<svg width="1200" height="675" xmlns="http://www.w3.org/2000/svg"><g fill="none" fill-rule="evenodd"><circle fill="#191919" cx="600" cy="337" r="217"/><circle fill="#2C2C2C" cx="600" cy="337" r="208"/><circle fill="#171616" cx="600.5" cy="337.5" r="2.5"/><circle fill="#171616" cx="417.5" cy="337.5" r="2.5"/><circle fill="#171616" cx="783.5" cy="337.5" r="2.5"/><circle fill="#171616" cx="508.5" cy="178.5" r="2.5"/><circle fill="#171616" cx="691.5" cy="178.5" r="2.5"/><circle fill="#171616" cx="508.5" cy="494.5" r="2.5"/><circle fill="#171616" cx="691.5" cy="494.5" r="2.5"/><circle fill="#000" opacity=".42" cx="600" cy="223" r="36"/><path d="M601.493 233.507v-9.156h9.156a1.35 1.35 0 100-2.702h-9.156v-9.156a1.493 1.493 0 00-2.986 0v9.156h-9.156a1.35 1.35 0 100 2.702h9.156v9.156a1.493 1.493 0 002.986 0z" fill="#FFF" fill-rule="nonzero"/><circle fill="#000" opacity=".42" cx="600" cy="452" r="36"/><path d="M612 452.35a1.35 1.35 0 00-1.35-1.35h-21.3a1.35 1.35 0 100 2.701h21.3a1.35 1.35 0 001.35-1.35z" fill="#FFF" fill-rule="nonzero"/><circle fill="#000" opacity=".42" cx="714" cy="337" r="36"/><circle fill="#FFF" cx="714" cy="337" r="6"/><g transform="translate(451 301)"><circle fill="#000" opacity=".42" cx="36" cy="36" r="36"/><path d="M46 34.667v2.31c-.422 5.675-3.956 9.788-8.889 10.331v2.38h3.333V52h-8.888v-2.311h3.333v-2.38C30 46.764 26.467 42.685 26 36.977v-2.311h2.222v1.155c0 5.443 3.2 9.245 7.778 9.245 4.578 0 7.778-3.802 7.778-9.245v-1.155H46zM36 44c3.682 0 6.667-3.07 6.667-6.857V26.857C42.667 23.07 39.682 20 36 20s-6.667 3.07-6.667 6.857v10.286C29.333 40.93 32.318 44 36 44z" fill="#FFF" fill-rule="nonzero"/><path d="M50.142 22.209a1.35 1.35 0 00-1.91 0L21.858 48.583a1.35 1.35 0 101.91 1.91l26.374-26.374a1.35 1.35 0 000-1.91z" fill="#FFF" fill-rule="nonzero"/></g></g></svg>