<svg width="1200" height="677" viewBox="0 0 1200 677" xmlns="http://www.w3.org/2000/svg" xmlns:xlink="http://www.w3.org/1999/xlink"><title>blink-text-04</title><desc>Created with Sketch.</desc><g id="Assets" stroke="none" stroke-width="1" fill="none" fill-rule="evenodd"><g id="Blink" fill="#fff" fill-rule="nonzero"><g id="blink-text-04"><path d="M133.992 153C138.248 153 141.878667 152.206667 144.884 150.62 147.889333 149.033333 150.185333 146.746667 151.772 143.76 153.358667 140.773333 154.152 137.152 154.152 132.896 154.152 128.677333 153.358667 125.084 151.772 122.116 150.185333 119.148 147.889333 116.88 144.884 115.312 141.878667 113.744 138.266667 112.96 134.048 112.96v0H117.696V153H133.992zM133.488 143.704H128.616V122.256H133.544C136.605333 122.256 138.92 123.161333 140.488 124.972 142.056 126.782667 142.84 129.424 142.84 132.896 142.84 136.405333 142.046667 139.084 140.46 140.932 138.873333 142.78 136.549333 143.704 133.488 143.704v0zM171.008 153V112.96H160.088V153H171.008zM194.696 153C198.952 153 202.582667 152.206667 205.588 150.62 208.593333 149.033333 210.889333 146.746667 212.476 143.76 214.062667 140.773333 214.856 137.152 214.856 132.896 214.856 128.677333 214.062667 125.084 212.476 122.116 210.889333 119.148 208.593333 116.88 205.588 115.312 202.582667 113.744 198.970667 112.96 194.752 112.96v0H178.4V153H194.696zM194.192 143.704H189.32V122.256H194.248C197.309333 122.256 199.624 123.161333 201.192 124.972 202.76 126.782667 203.544 129.424 203.544 132.896 203.544 136.405333 202.750667 139.084 201.164 140.932 199.577333 142.78 197.253333 143.704 194.192 143.704v0zM256.072 153V138.16C258.648 133.978667 261.186667 129.788 263.688 125.588 266.189333 121.388 268.634667 117.178667 271.024 112.96v0H259.04C257.733333 115.610667 256.389333 118.270667 255.008 120.94 253.626667 123.609333 252.245333 126.269333 250.864 128.92 249.445333 126.269333 248.054667 123.618667 246.692 120.968 245.329333 118.317333 243.976 115.648 242.632 112.96v0H230.256C232.608 117.178667 235.034667 121.388 237.536 125.588 240.037333 129.788 242.576 133.978667 245.152 138.16v0V153H256.072zM294.264 153.84C297.362667 153.84 300.162667 153.354667 302.664 152.384 305.165333 151.413333 307.302667 150.013333 309.076 148.184 310.849333 146.354667 312.212 144.152 313.164 141.576 314.116 139 314.592 136.125333 314.592 132.952 314.592 129.741333 314.116 126.857333 313.164 124.3 312.212 121.742667 310.849333 119.558667 309.076 117.748 307.302667 115.937333 305.165333 114.546667 302.664 113.576 300.162667 112.605333 297.362667 112.12 294.264 112.12 291.165333 112.12 288.365333 112.605333 285.864 113.576 283.362667 114.546667 281.225333 115.937333 279.452 117.748 277.678667 119.558667 276.316 121.742667 275.364 124.3 274.412 126.857333 273.936 129.741333 273.936 132.952 273.936 136.125333 274.412 139 275.364 141.576 276.316 144.152 277.678667 146.354667 279.452 148.184 281.225333 150.013333 283.362667 151.413333 285.864 152.384 288.365333 153.354667 291.165333 153.84 294.264 153.84zM294.264 144.432C291.352 144.432 289.121333 143.442667 287.572 141.464 286.022667 139.485333 285.248 136.648 285.248 132.952 285.248 129.293333 286.022667 126.474667 287.572 124.496 289.121333 122.517333 291.352 121.528 294.264 121.528 297.176 121.528 299.406667 122.517333 300.956 124.496 302.505333 126.474667 303.28 129.293333 303.28 132.952 303.28 136.648 302.505333 139.485333 300.956 141.464 299.406667 143.442667 297.176 144.432 294.264 144.432zM338.168 153.84C341.864 153.84 345.028 153.130667 347.66 151.712 350.292 150.293333 352.308 148.249333 353.708 145.58 355.108 142.910667 355.808 139.728 355.808 136.032v0V112.96H345.056V137.264C345.056 139.541333 344.458667 141.305333 343.264 142.556 342.069333 143.806667 340.370667 144.432 338.168 144.432 336.002667 144.432 334.313333 143.806667 333.1 142.556 331.886667 141.305333 331.28 139.541333 331.28 137.264v0V112.96H320.36V136.032C320.36 139.728 321.069333 142.910667 322.488 145.58 323.906667 148.249333 325.950667 150.293333 328.62 151.712 331.289333 153.130667 334.472 153.84 338.168 153.84zM392.88 153C396.24 153 399.124 152.533333 401.532 151.6 403.94 150.666667 405.788 149.322667 407.076 147.568 408.364 145.813333 409.008 143.722667 409.008 141.296 409.008 138.944 408.410667 136.937333 407.216 135.276 406.021333 133.614667 404.304 132.373333 402.064 131.552 405.237333 129.797333 406.824 127.128 406.824 123.544 406.824 120.109333 405.536 117.486667 402.96 115.676 400.384 113.865333 396.706667 112.96 391.928 112.96v0H375.52V153H392.88zM390.864 128.864H385.936V121.024H390.864C394.448 121.024 396.24 122.274667 396.24 124.776 396.24 126.045333 395.782667 127.044 394.868 127.772 393.953333 128.5 392.618667 128.864 390.864 128.864v0zM391.872 144.936H385.936V136.592H391.928C396.184 136.592 398.312 138.010667 398.312 140.848 398.312 142.154667 397.761333 143.162667 396.66 143.872 395.558667 144.581333 393.962667 144.936 391.872 144.936v0zM432.304 153.84C436 153.84 439.164 153.130667 441.796 151.712 444.428 150.293333 446.444 148.249333 447.844 145.58 449.244 142.910667 449.944 139.728 449.944 136.032v0V112.96H439.192V137.264C439.192 139.541333 438.594667 141.305333 437.4 142.556 436.205333 143.806667 434.506667 144.432 432.304 144.432 430.138667 144.432 428.449333 143.806667 427.236 142.556 426.022667 141.305333 425.416 139.541333 425.416 137.264v0V112.96H414.496V136.032C414.496 139.728 415.205333 142.910667 416.624 145.58 418.042667 148.249333 420.086667 150.293333 422.756 151.712 425.425333 153.130667 428.608 153.84 432.304 153.84zM479.96 153V138.16C482.536 133.978667 485.074667 129.788 487.576 125.588 490.077333 121.388 492.522667 117.178667 494.912 112.96v0H482.928C481.621333 115.610667 480.277333 118.270667 478.896 120.94 477.514667 123.609333 476.133333 126.269333 474.752 128.92 473.333333 126.269333 471.942667 123.618667 470.58 120.968 469.217333 118.317333 467.864 115.648 466.52 112.96v0H454.144C456.496 117.178667 458.922667 121.388 461.424 125.588 463.925333 129.788 466.464 133.978667 469.04 138.16v0V153H479.96zM522.688 153V112.96H511.768V153H522.688zM550.072 153V122.368H562.056V112.96H527.168V122.368H539.152V153H550.072zM136.176 215C137.258667 210.893333 138.304 206.777333 139.312 202.652 140.32 198.526667 141.328 194.392 142.336 190.248 143.306667 194.392 144.314667 198.526667 145.36 202.652 146.405333 206.777333 147.469333 210.893333 148.552 215v0H159.864C161.730667 208.466667 163.513333 201.858667 165.212 195.176 166.910667 188.493333 168.506667 181.754667 170 174.96v0H158.52C157.810667 179.626667 157.054667 184.293333 156.252 188.96 155.449333 193.626667 154.6 198.237333 153.704 202.792 152.696 198.461333 151.697333 194.121333 150.708 189.772 149.718667 185.422667 148.757333 181.045333 147.824 176.64v0H137.352C136.418667 181.12 135.448 185.609333 134.44 190.108 133.432 194.606667 132.386667 199.114667 131.304 203.632 130.408 198.965333 129.549333 194.224 128.728 189.408 127.906667 184.592 127.141333 179.776 126.432 174.96v0H114.728C116.258667 181.754667 117.873333 188.493333 119.572 195.176 121.270667 201.858667 123.034667 208.466667 124.864 215v0H136.176zM185.344 215V174.96H174.424V215H185.344zM212.728 215V184.368H224.712V174.96H189.824V184.368H201.808V215H212.728zM240.112 215V198.816H254.336V215H265.256V174.96H254.336V189.408H240.112V174.96H229.192V215H240.112zM295.328 215V190.696C296.56 193.533333 297.82 196.370667 299.108 199.208 300.396 202.045333 301.693333 204.882667 303 207.72v0H311.4C312.669333 204.882667 313.929333 202.036 315.18 199.18 316.430667 196.324 317.672 193.44 318.904 190.528v0V215H329.096V174.96H316.104C314.685333 178.730667 313.248 182.454667 311.792 186.132 310.336 189.809333 308.861333 193.44 307.368 197.024 305.8 193.402667 304.26 189.744 302.748 186.048 301.236 182.352 299.752 178.656 298.296 174.96v0H285.136V215H295.328zM355.36 215.84C358.458667 215.84 361.258667 215.354667 363.76 214.384 366.261333 213.413333 368.398667 212.013333 370.172 210.184 371.945333 208.354667 373.308 206.152 374.26 203.576 375.212 201 375.688 198.125333 375.688 194.952 375.688 191.741333 375.212 188.857333 374.26 186.3 373.308 183.742667 371.945333 181.558667 370.172 179.748 368.398667 177.937333 366.261333 176.546667 363.76 175.576 361.258667 174.605333 358.458667 174.12 355.36 174.12 352.261333 174.12 349.461333 174.605333 346.96 175.576 344.458667 176.546667 342.321333 177.937333 340.548 179.748 338.774667 181.558667 337.412 183.742667 336.46 186.3 335.508 188.857333 335.032 191.741333 335.032 194.952 335.032 198.125333 335.508 201 336.46 203.576 337.412 206.152 338.774667 208.354667 340.548 210.184 342.321333 212.013333 344.458667 213.413333 346.96 214.384 349.461333 215.354667 352.261333 215.84 355.36 215.84zM355.36 206.432C352.448 206.432 350.217333 205.442667 348.668 203.464 347.118667 201.485333 346.344 198.648 346.344 194.952 346.344 191.293333 347.118667 188.474667 348.668 186.496 350.217333 184.517333 352.448 183.528 355.36 183.528 358.272 183.528 360.502667 184.517333 362.052 186.496 363.601333 188.474667 364.376 191.293333 364.376 194.952 364.376 198.648 363.601333 201.485333 362.052 203.464 360.502667 205.442667 358.272 206.432 355.36 206.432zM392.04 215V190.696C394.466667 194.578667 396.94 198.582667 399.46 202.708 401.98 206.833333 404.434667 210.930667 406.824 215v0H417.8V174.96H407.384V198.816C404.957333 194.746667 402.512 190.714667 400.048 186.72 397.584 182.725333 395.101333 178.805333 392.6 174.96v0H381.624V215H392.04zM454.928 215V206.264H435.832V198.984H451.624V190.248H435.832V183.696H453.864V174.96H425.192V215H454.928zM482.984 215V200.16C485.56 195.978667 488.098667 191.788 490.6 187.588 493.101333 183.388 495.546667 179.178667 497.936 174.96v0H485.952C484.645333 177.610667 483.301333 180.270667 481.92 182.94 480.538667 185.609333 479.157333 188.269333 477.776 190.92 476.357333 188.269333 474.966667 185.618667 473.604 182.968 472.241333 180.317333 470.888 177.648 469.544 174.96v0H457.168C459.52 179.178667 461.946667 183.388 464.448 187.588 466.949333 191.788 469.488 195.978667 472.064 200.16v0V215H482.984zM136.568 277.84C139.666667 277.84 142.466667 277.354667 144.968 276.384 147.469333 275.413333 149.606667 274.013333 151.38 272.184 153.153333 270.354667 154.516 268.152 155.468 265.576 156.42 263 156.896 260.125333 156.896 256.952 156.896 253.741333 156.42 250.857333 155.468 248.3 154.516 245.742667 153.153333 243.558667 151.38 241.748 149.606667 239.937333 147.469333 238.546667 144.968 237.576 142.466667 236.605333 139.666667 236.12 136.568 236.12 133.469333 236.12 130.669333 236.605333 128.168 237.576 125.666667 238.546667 123.529333 239.937333 121.756 241.748 119.982667 243.558667 118.62 245.742667 117.668 248.3 116.716 250.857333 116.24 253.741333 116.24 256.952 116.24 260.125333 116.716 263 117.668 265.576 118.62 268.152 119.982667 270.354667 121.756 272.184 123.529333 274.013333 125.666667 275.413333 128.168 276.384 130.669333 277.354667 133.469333 277.84 136.568 277.84zM136.568 268.432C133.656 268.432 131.425333 267.442667 129.876 265.464 128.326667 263.485333 127.552 260.648 127.552 256.952 127.552 253.293333 128.326667 250.474667 129.876 248.496 131.425333 246.517333 133.656 245.528 136.568 245.528 139.48 245.528 141.710667 246.517333 143.26 248.496 144.809333 250.474667 145.584 253.293333 145.584 256.952 145.584 260.648 144.809333 263.485333 143.26 265.464 141.710667 267.442667 139.48 268.432 136.568 268.432zM173.416 277V263.504H178.904C180.210667 265.706667 181.470667 267.937333 182.684 270.196 183.897333 272.454667 185.101333 274.722667 186.296 277v0H198.336C196.805333 274.274667 195.246667 271.605333 193.66 268.992 192.073333 266.378667 190.458667 263.784 188.816 261.208 190.906667 260.088 192.521333 258.594667 193.66 256.728 194.798667 254.861333 195.368 252.696 195.368 250.232 195.368 245.938667 193.893333 242.653333 190.944 240.376 187.994667 238.098667 183.738667 236.96 178.176 236.96v0H162.832V277H173.416zM177.672 255.104h-4.256V245.36h4.256C179.949333 245.36 181.629333 245.761333 182.712 246.564 183.794667 247.366667 184.336 248.589333 184.336 250.232 184.336 251.837333 183.794667 253.050667 182.712 253.872 181.629333 254.693333 179.949333 255.104 177.672 255.104v0zM231.432 277C235.688 277 239.318667 276.206667 242.324 274.62 245.329333 273.033333 247.625333 270.746667 249.212 267.76 250.798667 264.773333 251.592 261.152 251.592 256.896 251.592 252.677333 250.798667 249.084 249.212 246.116 247.625333 243.148 245.329333 240.88 242.324 239.312 239.318667 237.744 235.706667 236.96 231.488 236.96v0H215.136V277H231.432zM230.928 267.704H226.056V246.256H230.984C234.045333 246.256 236.36 247.161333 237.928 248.972 239.496 250.782667 240.28 253.424 240.28 256.896 240.28 260.405333 239.486667 263.084 237.9 264.932 236.313333 266.78 233.989333 267.704 230.928 267.704v0zM268.448 277V236.96H257.528V277H268.448zM292.136 277C296.392 277 300.022667 276.206667 303.028 274.62 306.033333 273.033333 308.329333 270.746667 309.916 267.76 311.502667 264.773333 312.296 261.152 312.296 256.896 312.296 252.677333 311.502667 249.084 309.916 246.116 308.329333 243.148 306.033333 240.88 303.028 239.312 300.022667 237.744 296.410667 236.96 292.192 236.96v0H275.84V277H292.136zM291.632 267.704H286.76V246.256H291.688C294.749333 246.256 297.064 247.161333 298.632 248.972 300.2 250.782667 300.984 253.424 300.984 256.896 300.984 260.405333 300.190667 263.084 298.604 264.932 297.017333 266.78 294.693333 267.704 291.632 267.704v0zM353.512 277V262.16C356.088 257.978667 358.626667 253.788 361.128 249.588 363.629333 245.388 366.074667 241.178667 368.464 236.96v0H356.48C355.173333 239.610667 353.829333 242.270667 352.448 244.94 351.066667 247.609333 349.685333 250.269333 348.304 252.92 346.885333 250.269333 345.494667 247.618667 344.132 244.968 342.769333 242.317333 341.416 239.648 340.072 236.96v0H327.696C330.048 241.178667 332.474667 245.388 334.976 249.588 337.477333 253.788 340.016 257.978667 342.592 262.16v0V277H353.512zM391.704 277.84C394.802667 277.84 397.602667 277.354667 400.104 276.384 402.605333 275.413333 404.742667 274.013333 406.516 272.184 408.289333 270.354667 409.652 268.152 410.604 265.576 411.556 263 412.032 260.125333 412.032 256.952 412.032 253.741333 411.556 250.857333 410.604 248.3 409.652 245.742667 408.289333 243.558667 406.516 241.748 404.742667 239.937333 402.605333 238.546667 400.104 237.576 397.602667 236.605333 394.802667 236.12 391.704 236.12 388.605333 236.12 385.805333 236.605333 383.304 237.576 380.802667 238.546667 378.665333 239.937333 376.892 241.748 375.118667 243.558667 373.756 245.742667 372.804 248.3 371.852 250.857333 371.376 253.741333 371.376 256.952 371.376 260.125333 371.852 263 372.804 265.576 373.756 268.152 375.118667 270.354667 376.892 272.184 378.665333 274.013333 380.802667 275.413333 383.304 276.384 385.805333 277.354667 388.605333 277.84 391.704 277.84zM391.704 268.432C388.792 268.432 386.561333 267.442667 385.012 265.464 383.462667 263.485333 382.688 260.648 382.688 256.952 382.688 253.293333 383.462667 250.474667 385.012 248.496 386.561333 246.517333 388.792 245.528 391.704 245.528 394.616 245.528 396.846667 246.517333 398.396 248.496 399.945333 250.474667 400.72 253.293333 400.72 256.952 400.72 260.648 399.945333 263.485333 398.396 265.464 396.846667 267.442667 394.616 268.432 391.704 268.432zM435.608 277.84C439.304 277.84 442.468 277.130667 445.1 275.712 447.732 274.293333 449.748 272.249333 451.148 269.58 452.548 266.910667 453.248 263.728 453.248 260.032v0V236.96H442.496V261.264C442.496 263.541333 441.898667 265.305333 440.704 266.556 439.509333 267.806667 437.810667 268.432 435.608 268.432 433.442667 268.432 431.753333 267.806667 430.54 266.556 429.326667 265.305333 428.72 263.541333 428.72 261.264v0V236.96H417.8V260.032C417.8 263.728 418.509333 266.910667 419.928 269.58 421.346667 272.249333 423.390667 274.293333 426.06 275.712 428.729333 277.130667 431.912 277.84 435.608 277.84zM133.992 339C138.248 339 141.878667 338.206667 144.884 336.62 147.889333 335.033333 150.185333 332.746667 151.772 329.76 153.358667 326.773333 154.152 323.152 154.152 318.896 154.152 314.677333 153.358667 311.084 151.772 308.116 150.185333 305.148 147.889333 302.88 144.884 301.312 141.878667 299.744 138.266667 298.96 134.048 298.96v0H117.696V339H133.992zM133.488 329.704H128.616V308.256H133.544C136.605333 308.256 138.92 309.161333 140.488 310.972 142.056 312.782667 142.84 315.424 142.84 318.896 142.84 322.405333 142.046667 325.084 140.46 326.932 138.873333 328.78 136.549333 329.704 133.488 329.704v0zM178.96 339.84C182.058667 339.84 184.858667 339.354667 187.36 338.384 189.861333 337.413333 191.998667 336.013333 193.772 334.184 195.545333 332.354667 196.908 330.152 197.86 327.576 198.812 325 199.288 322.125333 199.288 318.952 199.288 315.741333 198.812 312.857333 197.86 310.3 196.908 307.742667 195.545333 305.558667 193.772 303.748 191.998667 301.937333 189.861333 300.546667 187.36 299.576 184.858667 298.605333 182.058667 298.12 178.96 298.12 175.861333 298.12 173.061333 298.605333 170.56 299.576 168.058667 300.546667 165.921333 301.937333 164.148 303.748 162.374667 305.558667 161.012 307.742667 160.06 310.3 159.108 312.857333 158.632 315.741333 158.632 318.952 158.632 322.125333 159.108 325 160.06 327.576 161.012 330.152 162.374667 332.354667 164.148 334.184 165.921333 336.013333 168.058667 337.413333 170.56 338.384 173.061333 339.354667 175.861333 339.84 178.96 339.84zM178.96 330.432C176.048 330.432 173.817333 329.442667 172.268 327.464 170.718667 325.485333 169.944 322.648 169.944 318.952 169.944 315.293333 170.718667 312.474667 172.268 310.496 173.817333 308.517333 176.048 307.528 178.96 307.528 181.872 307.528 184.102667 308.517333 185.652 310.496 187.201333 312.474667 187.976 315.293333 187.976 318.952 187.976 322.648 187.201333 325.485333 185.652 327.464 184.102667 329.442667 181.872 330.432 178.96 330.432zM223.704 339C224.786667 334.893333 225.832 330.777333 226.84 326.652 227.848 322.526667 228.856 318.392 229.864 314.248 230.834667 318.392 231.842667 322.526667 232.888 326.652 233.933333 330.777333 234.997333 334.893333 236.08 339v0H247.392C249.258667 332.466667 251.041333 325.858667 252.74 319.176 254.438667 312.493333 256.034667 305.754667 257.528 298.96v0H246.048C245.338667 303.626667 244.582667 308.293333 243.78 312.96 242.977333 317.626667 242.128 322.237333 241.232 326.792 240.224 322.461333 239.225333 318.121333 238.236 313.772 237.246667 309.422667 236.285333 305.045333 235.352 300.64v0H224.88C223.946667 305.12 222.976 309.609333 221.968 314.108 220.96 318.606667 219.914667 323.114667 218.832 327.632 217.936 322.965333 217.077333 318.224 216.256 313.408 215.434667 308.592 214.669333 303.776 213.96 298.96v0H202.256C203.786667 305.754667 205.401333 312.493333 207.1 319.176 208.798667 325.858667 210.562667 332.466667 212.392 339v0H223.704zM272.368 339V314.696C274.794667 318.578667 277.268 322.582667 279.788 326.708 282.308 330.833333 284.762667 334.930667 287.152 339v0H298.128V298.96H287.712V322.816C285.285333 318.746667 282.84 314.714667 280.376 310.72 277.912 306.725333 275.429333 302.805333 272.928 298.96v0H261.952V339H272.368zM334.248 339V329.592H316.44V298.96H305.52V339H334.248zM357.6 339.84C360.698667 339.84 363.498667 339.354667 366 338.384 368.501333 337.413333 370.638667 336.013333 372.412 334.184 374.185333 332.354667 375.548 330.152 376.5 327.576 377.452 325 377.928 322.125333 377.928 318.952 377.928 315.741333 377.452 312.857333 376.5 310.3 375.548 307.742667 374.185333 305.558667 372.412 303.748 370.638667 301.937333 368.501333 300.546667 366 299.576 363.498667 298.605333 360.698667 298.12 357.6 298.12 354.501333 298.12 351.701333 298.605333 349.2 299.576 346.698667 300.546667 344.561333 301.937333 342.788 303.748 341.014667 305.558667 339.652 307.742667 338.7 310.3 337.748 312.857333 337.272 315.741333 337.272 318.952 337.272 322.125333 337.748 325 338.7 327.576 339.652 330.152 341.014667 332.354667 342.788 334.184 344.561333 336.013333 346.698667 337.413333 349.2 338.384 351.701333 339.354667 354.501333 339.84 357.6 339.84zM357.6 330.432C354.688 330.432 352.457333 329.442667 350.908 327.464 349.358667 325.485333 348.584 322.648 348.584 318.952 348.584 315.293333 349.358667 312.474667 350.908 310.496 352.457333 308.517333 354.688 307.528 357.6 307.528 360.512 307.528 362.742667 308.517333 364.292 310.496 365.841333 312.474667 366.616 315.293333 366.616 318.952 366.616 322.648 365.841333 325.485333 364.292 327.464 362.742667 329.442667 360.512 330.432 357.6 330.432zM392.152 339C392.936 336.461333 393.701333 333.96 394.448 331.496v0H409.064C409.437333 332.728 409.82 333.969333 410.212 335.22 410.604 336.470667 410.986667 337.730667 411.36 339v0H423.176C420.786667 332.317333 418.322667 325.634667 415.784 318.952 413.245333 312.269333 410.632 305.605333 407.944 298.96v0H395.904C393.290667 305.269333 390.714667 311.765333 388.176 318.448 385.637333 325.130667 383.136 331.981333 380.672 339v0H392.152zM406.376 322.984H397.136C397.882667 320.669333 398.648 318.364 399.432 316.068 400.216 313.772 401 311.466667 401.784 309.152 402.568 311.429333 403.342667 313.716 404.108 316.012 404.873333 318.308 405.629333 320.632 406.376 322.984v0zM443.672 339C447.928 339 451.558667 338.206667 454.564 336.62 457.569333 335.033333 459.865333 332.746667 461.452 329.76 463.038667 326.773333 463.832 323.152 463.832 318.896 463.832 314.677333 463.038667 311.084 461.452 308.116 459.865333 305.148 457.569333 302.88 454.564 301.312 451.558667 299.744 447.946667 298.96 443.728 298.96v0H427.376V339H443.672zM443.168 329.704H438.296V308.256H443.224C446.285333 308.256 448.6 309.161333 450.168 310.972 451.736 312.782667 452.52 315.424 452.52 318.896 452.52 322.405333 451.726667 325.084 450.14 326.932 448.553333 328.78 446.229333 329.704 443.168 329.704v0zM493.176 339V298.96H482.256V339H493.176zM520.56 339V308.368H532.544V298.96H497.656V308.368H509.64V339H520.56zM549.848 325.448V324.776C549.848 324.216 549.969333 323.693333 550.212 323.208 550.454667 322.722667 550.874667 322.218667 551.472 321.696 552.069333 321.173333 552.853333 320.576 553.824 319.904 556.026667 318.373333 557.622667 316.777333 558.612 315.116 559.601333 313.454667 560.096 311.504 560.096 309.264 560.096 306.949333 559.526667 304.961333 558.388 303.3 557.249333 301.638667 555.634667 300.36 553.544 299.464 551.453333 298.568 548.933333 298.12 545.984 298.12 544.042667 298.12 542.157333 298.316 540.328 298.708 538.498667 299.1 536.762667 299.688 535.12 300.472v0V308.928C536.613333 308.069333 538.069333 307.444 539.488 307.052 540.906667 306.66 542.4 306.464 543.968 306.464 545.722667 306.464 547.076 306.809333 548.028 307.5 548.98 308.190667 549.456 309.152 549.456 310.384 549.456 311.093333 549.344 311.737333 549.12 312.316 548.896 312.894667 548.485333 313.482667 547.888 314.08 547.290667 314.677333 546.432 315.405333 545.312 316.264 543.856 317.346667 542.810667 318.541333 542.176 319.848 541.541333 321.154667 541.224 322.797333 541.224 324.776v0V325.448H549.848zM545.536 339.504C546.730667 339.504 547.757333 339.252 548.616 338.748 549.474667 338.244 550.137333 337.572 550.604 336.732 551.070667 335.892 551.304 334.968 551.304 333.96 551.304 332.952 551.070667 332.028 550.604 331.188 550.137333 330.348 549.474667 329.685333 548.616 329.2 547.757333 328.714667 546.730667 328.472 545.536 328.472 544.341333 328.472 543.314667 328.714667 542.456 329.2 541.597333 329.685333 540.934667 330.348 540.468 331.188 540.001333 332.028 539.768 332.952 539.768 333.96 539.768 334.968 540.001333 335.892 540.468 336.732 540.934667 337.572 541.597333 338.244 542.456 338.748 543.314667 339.252 544.341333 339.504 545.536 339.504z" id="DIDYOUBUYITWITHMONEYORDIDYOUDOWNLOADIT?"/></g></g></g></svg>