<svg width="1200" height="677" viewBox="0 0 1200 677" xmlns="http://www.w3.org/2000/svg" xmlns:xlink="http://www.w3.org/1999/xlink"><title>blink-text-08</title><desc>Created with Sketch.</desc><g id="Assets" stroke="none" stroke-width="1" fill="none" fill-rule="evenodd"><g id="Blink" transform="translate(0.000000, -1.000000)" fill="#fff" fill-rule="nonzero"><g id="blink-text-08" transform="translate(0.000000, 1.000000)"><path d="M137.688 335V304.368H149.672V294.96H114.784V304.368H126.768V335H137.688zM165.072 335V318.816H179.296V335H190.216V294.96H179.296V309.408H165.072V294.96H154.152V335H165.072zM205.896 335C206.68 332.461333 207.445333 329.96 208.192 327.496v0H222.808C223.181333 328.728 223.564 329.969333 223.956 331.22 224.348 332.470667 224.730667 333.730667 225.104 335v0H236.92C234.530667 328.317333 232.066667 321.634667 229.528 314.952 226.989333 308.269333 224.376 301.605333 221.688 294.96v0H209.648C207.034667 301.269333 204.458667 307.765333 201.92 314.448 199.381333 321.130667 196.88 327.981333 194.416 335v0H205.896zM220.12 318.984H210.88C211.626667 316.669333 212.392 314.364 213.176 312.068 213.96 309.772 214.744 307.466667 215.528 305.152 216.312 307.429333 217.086667 309.716 217.852 312.012 218.617333 314.308 219.373333 316.632 220.12 318.984v0zM261.112 335V304.368H273.096V294.96H238.208V304.368H250.192V335H261.112zM296.28 335.84C301.282667 335.84 305.128 334.477333 307.816 331.752 310.504 329.026667 311.848 325.125333 311.848 320.048v0V294.96H300.928V319.768C300.928 324.210667 298.725333 326.432 294.32 326.432 292.938667 326.432 291.650667 326.273333 290.456 325.956 289.261333 325.638667 288.178667 325.181333 287.208 324.584v0V333.88C288.365333 334.477333 289.728 334.953333 291.296 335.308 292.864 335.662667 294.525333 335.84 296.28 335.84zM336.712 335.84C340.408 335.84 343.572 335.130667 346.204 333.712 348.836 332.293333 350.852 330.249333 352.252 327.58 353.652 324.910667 354.352 321.728 354.352 318.032v0V294.96H343.6V319.264C343.6 321.541333 343.002667 323.305333 341.808 324.556 340.613333 325.806667 338.914667 326.432 336.712 326.432 334.546667 326.432 332.857333 325.806667 331.644 324.556 330.430667 323.305333 329.824 321.541333 329.824 319.264v0V294.96H318.904V318.032C318.904 321.728 319.613333 324.910667 321.032 327.58 322.450667 330.249333 324.494667 332.293333 327.164 333.712 329.833333 335.130667 333.016 335.84 336.712 335.84zM373.672 335.84C377.330667 335.84 380.438667 335.336 382.996 334.328 385.553333 333.32 387.513333 331.845333 388.876 329.904 390.238667 327.962667 390.92 325.610667 390.92 322.848 390.92 320.757333 390.584 319.012 389.912 317.612 389.24 316.212 388.288 315.054667 387.056 314.14 385.824 313.225333 384.368 312.450667 382.688 311.816 381.008 311.181333 379.141333 310.621333 377.088 310.136 375.109333 309.650667 373.588 309.137333 372.524 308.596 371.46 308.054667 370.928 307.242667 370.928 306.16 370.928 305.114667 371.441333 304.321333 372.468 303.78 373.494667 303.238667 374.941333 302.968 376.808 302.968 378.114667 302.968 379.468 303.089333 380.868 303.332 382.268 303.574667 383.658667 303.929333 385.04 304.396 386.421333 304.862667 387.728 305.469333 388.96 306.216v0V296.864C387.242667 296.005333 385.32 295.333333 383.192 294.848 381.064 294.362667 378.898667 294.12 376.696 294.12 373.298667 294.12 370.349333 294.633333 367.848 295.66 365.346667 296.686667 363.424 298.152 362.08 300.056 360.736 301.96 360.064 304.256 360.064 306.944 360.064 308.698667 360.325333 310.229333 360.848 311.536 361.370667 312.842667 362.192 313.990667 363.312 314.98 364.432 315.969333 365.888 316.837333 367.68 317.584 369.472 318.330667 371.637333 319.002667 374.176 319.6 375.333333 319.861333 376.341333 320.16 377.2 320.496 378.058667 320.832 378.730667 321.233333 379.216 321.7 379.701333 322.166667 379.944 322.792 379.944 323.576 379.944 324.658667 379.402667 325.498667 378.32 326.096 377.237333 326.693333 375.632 326.992 373.504 326.992 371.338667 326.992 369.164 326.684 366.98 326.068 364.796 325.452 362.658667 324.546667 360.568 323.352v0V332.816C362.733333 333.861333 364.889333 334.626667 367.036 335.112 369.182667 335.597333 371.394667 335.84 373.672 335.84zM416.624 335V304.368H428.608V294.96H393.72V304.368H405.704V335H416.624zM128.28 397V383.504H133.768C135.074667 385.706667 136.334667 387.937333 137.548 390.196 138.761333 392.454667 139.965333 394.722667 141.16 397v0H153.2C151.669333 394.274667 150.110667 391.605333 148.524 388.992 146.937333 386.378667 145.322667 383.784 143.68 381.208 145.770667 380.088 147.385333 378.594667 148.524 376.728 149.662667 374.861333 150.232 372.696 150.232 370.232 150.232 365.938667 148.757333 362.653333 145.808 360.376 142.858667 358.098667 138.602667 356.96 133.04 356.96v0H117.696V397H128.28zM132.536 375.104H128.28V365.36h4.256C134.813333 365.36 136.493333 365.761333 137.576 366.564 138.658667 367.366667 139.2 368.589333 139.2 370.232 139.2 371.837333 138.658667 373.050667 137.576 373.872 136.493333 374.693333 134.813333 375.104 132.536 375.104v0zM175.152 397.84C178.848 397.84 182.012 397.130667 184.644 395.712 187.276 394.293333 189.292 392.249333 190.692 389.58 192.092 386.910667 192.792 383.728 192.792 380.032v0V356.96H182.04V381.264C182.04 383.541333 181.442667 385.305333 180.248 386.556 179.053333 387.806667 177.354667 388.432 175.152 388.432 172.986667 388.432 171.297333 387.806667 170.084 386.556 168.870667 385.305333 168.264 383.541333 168.264 381.264v0V356.96H157.344V380.032C157.344 383.728 158.053333 386.910667 159.472 389.58 160.890667 392.249333 162.934667 394.293333 165.604 395.712 168.273333 397.130667 171.456 397.84 175.152 397.84zM210.936 397V356.96H200.016V397H210.936zM228.744 397V372.696C231.170667 376.578667 233.644 380.582667 236.164 384.708 238.684 388.833333 241.138667 392.930667 243.528 397v0H254.504V356.96H244.088V380.816C241.661333 376.746667 239.216 372.714667 236.752 368.72 234.288 364.725333 231.805333 360.805333 229.304 356.96v0H218.328V397H228.744zM291.632 397V388.264H272.536V380.984H288.328V372.248H272.536V365.696H290.568V356.96H261.896V397H291.632zM313.192 397C317.448 397 321.078667 396.206667 324.084 394.62 327.089333 393.033333 329.385333 390.746667 330.972 387.76 332.558667 384.773333 333.352 381.152 333.352 376.896 333.352 372.677333 332.558667 369.084 330.972 366.116 329.385333 363.148 327.089333 360.88 324.084 359.312 321.078667 357.744 317.466667 356.96 313.248 356.96v0H296.896V397H313.192zM312.688 387.704H307.816V366.256H312.744C315.805333 366.256 318.12 367.161333 319.688 368.972 321.256 370.782667 322.04 373.424 322.04 376.896 322.04 380.405333 321.246667 383.084 319.66 384.932 318.073333 386.78 315.749333 387.704 312.688 387.704v0zM361.968 397V372.696C363.2 375.533333 364.46 378.370667 365.748 381.208 367.036 384.045333 368.333333 386.882667 369.64 389.72v0H378.04C379.309333 386.882667 380.569333 384.036 381.82 381.18 383.070667 378.324 384.312 375.44 385.544 372.528v0V397H395.736V356.96H382.744C381.325333 360.730667 379.888 364.454667 378.432 368.132 376.976 371.809333 375.501333 375.44 374.008 379.024 372.44 375.402667 370.9 371.744 369.388 368.048 367.876 364.352 366.392 360.656 364.936 356.96v0H351.776V397H361.968zm63.952.0V382.16C428.496 377.978667 431.034667 373.788 433.536 369.588 436.037333 365.388 438.482667 361.178667 440.872 356.96v0H428.888C427.581333 359.610667 426.237333 362.270667 424.856 364.94 423.474667 367.609333 422.093333 370.269333 420.712 372.92 419.293333 370.269333 417.902667 367.618667 416.54 364.968 415.177333 362.317333 413.824 359.648 412.48 356.96v0H400.104C402.456 361.178667 404.882667 365.388 407.384 369.588 409.885333 373.788 412.424 377.978667 415 382.16v0V397H425.92zM136.176 459C137.258667 454.893333 138.304 450.777333 139.312 446.652 140.32 442.526667 141.328 438.392 142.336 434.248 143.306667 438.392 144.314667 442.526667 145.36 446.652 146.405333 450.777333 147.469333 454.893333 148.552 459v0H159.864C161.730667 452.466667 163.513333 445.858667 165.212 439.176 166.910667 432.493333 168.506667 425.754667 170 418.96v0H158.52C157.810667 423.626667 157.054667 428.293333 156.252 432.96 155.449333 437.626667 154.6 442.237333 153.704 446.792 152.696 442.461333 151.697333 438.121333 150.708 433.772 149.718667 429.422667 148.757333 425.045333 147.824 420.64v0H137.352C136.418667 425.12 135.448 429.609333 134.44 434.108 133.432 438.606667 132.386667 443.114667 131.304 447.632 130.408 442.965333 129.549333 438.224 128.728 433.408 127.906667 428.592 127.141333 423.776 126.432 418.96v0H114.728C116.258667 425.754667 117.873333 432.493333 119.572 439.176 121.270667 445.858667 123.034667 452.466667 124.864 459v0H136.176zM185.344 459V442.816H199.568V459H210.488V418.96H199.568V433.408H185.344V418.96H174.424V459H185.344zM236.752 459.84C239.850667 459.84 242.650667 459.354667 245.152 458.384 247.653333 457.413333 249.790667 456.013333 251.564 454.184 253.337333 452.354667 254.7 450.152 255.652 447.576 256.604 445 257.08 442.125333 257.08 438.952 257.08 435.741333 256.604 432.857333 255.652 430.3 254.7 427.742667 253.337333 425.558667 251.564 423.748 249.790667 421.937333 247.653333 420.546667 245.152 419.576 242.650667 418.605333 239.850667 418.12 236.752 418.12 233.653333 418.12 230.853333 418.605333 228.352 419.576 225.850667 420.546667 223.713333 421.937333 221.94 423.748 220.166667 425.558667 218.804 427.742667 217.852 430.3 216.9 432.857333 216.424 435.741333 216.424 438.952 216.424 442.125333 216.9 445 217.852 447.576 218.804 450.152 220.166667 452.354667 221.94 454.184 223.713333 456.013333 225.850667 457.413333 228.352 458.384 230.853333 459.354667 233.653333 459.84 236.752 459.84zM236.752 450.432C233.84 450.432 231.609333 449.442667 230.06 447.464 228.510667 445.485333 227.736 442.648 227.736 438.952 227.736 435.293333 228.510667 432.474667 230.06 430.496 231.609333 428.517333 233.84 427.528 236.752 427.528 239.664 427.528 241.894667 428.517333 243.444 430.496 244.993333 432.474667 245.768 435.293333 245.768 438.952 245.768 442.648 244.993333 445.485333 243.444 447.464 241.894667 449.442667 239.664 450.432 236.752 450.432zM291.744 459V449.592H273.936V418.96H263.016V459H291.744zM325.96 459V450.264H306.864V442.984H322.656V434.248H306.864V427.696H324.896V418.96H296.224V459H325.96zM133.992 521C138.248 521 141.878667 520.206667 144.884 518.62 147.889333 517.033333 150.185333 514.746667 151.772 511.76 153.358667 508.773333 154.152 505.152 154.152 500.896 154.152 496.677333 153.358667 493.084 151.772 490.116 150.185333 487.148 147.889333 484.88 144.884 483.312 141.878667 481.744 138.266667 480.96 134.048 480.96v0H117.696V521H133.992zM133.488 511.704H128.616V490.256H133.544C136.605333 490.256 138.92 491.161333 140.488 492.972 142.056 494.782667 142.84 497.424 142.84 500.896 142.84 504.405333 142.046667 507.084 140.46 508.932 138.873333 510.78 136.549333 511.704 133.488 511.704v0zM168.376 521C169.16 518.461333 169.925333 515.96 170.672 513.496v0H185.288C185.661333 514.728 186.044 515.969333 186.436 517.22 186.828 518.470667 187.210667 519.730667 187.584 521v0H199.4C197.010667 514.317333 194.546667 507.634667 192.008 500.952 189.469333 494.269333 186.856 487.605333 184.168 480.96v0H172.128C169.514667 487.269333 166.938667 493.765333 164.4 500.448 161.861333 507.130667 159.36 513.981333 156.896 521v0H168.376zM182.6 504.984H173.36C174.106667 502.669333 174.872 500.364 175.656 498.068 176.44 495.772 177.224 493.466667 178.008 491.152 178.792 493.429333 179.566667 495.716 180.332 498.012 181.097333 500.308 181.853333 502.632 182.6 504.984v0zM226.392 521V506.16C228.968 501.978667 231.506667 497.788 234.008 493.588 236.509333 489.388 238.954667 485.178667 241.344 480.96v0H229.36C228.053333 483.610667 226.709333 486.270667 225.328 488.94 223.946667 491.609333 222.565333 494.269333 221.184 496.92 219.765333 494.269333 218.374667 491.618667 217.012 488.968 215.649333 486.317333 214.296 483.648 212.952 480.96v0H200.576C202.928 485.178667 205.354667 489.388 207.856 493.588 210.357333 497.788 212.896 501.978667 215.472 506.16v0V521H226.392z" id="THATJUSTRUINEDMYWHOLEDAY"/></g></g></g></svg>