<svg width="1200" height="677" viewBox="0 0 1200 677" xmlns="http://www.w3.org/2000/svg" xmlns:xlink="http://www.w3.org/1999/xlink"><title>blink-text-09</title><desc>Created with Sketch.</desc><g id="Assets" stroke="none" stroke-width="1" fill="none" fill-rule="evenodd"><g id="Blink" transform="translate(0.000000, -1.000000)" fill="#fff" fill-rule="nonzero"><g id="blink-text-09" transform="translate(0.000000, -50.000000)"><path d="M137.24 185.84C139.666667 185.84 141.934667 185.597333 144.044 185.112 146.153333 184.626667 148.048 183.954667 149.728 183.096v0V173.408C147.973333 174.453333 146.228 175.218667 144.492 175.704 142.756 176.189333 140.917333 176.432 138.976 176.432 135.354667 176.432 132.545333 175.433333 130.548 173.436 128.550667 171.438667 127.552 168.610667 127.552 164.952 127.552 161.293333 128.588 158.474667 130.66 156.496 132.732 154.517333 135.634667 153.528 139.368 153.528 141.197333 153.528 142.942667 153.770667 144.604 154.256 146.265333 154.741333 147.824 155.469333 149.28 156.44v0V146.584C145.92 144.941333 142.056 144.12 137.688 144.12 134.44 144.12 131.5 144.614667 128.868 145.604 126.236 146.593333 123.977333 148.002667 122.092 149.832 120.206667 151.661333 118.76 153.854667 117.752 156.412 116.744 158.969333 116.24 161.816 116.24 164.952 116.24 168.2 116.716 171.121333 117.668 173.716 118.62 176.310667 120.001333 178.504 121.812 180.296 123.622667 182.088 125.825333 183.46 128.42 184.412 131.014667 185.364 133.954667 185.84 137.24 185.84zM173.92 185.84C177.018667 185.84 179.818667 185.354667 182.32 184.384 184.821333 183.413333 186.958667 182.013333 188.732 180.184 190.505333 178.354667 191.868 176.152 192.82 173.576 193.772 171 194.248 168.125333 194.248 164.952 194.248 161.741333 193.772 158.857333 192.82 156.3 191.868 153.742667 190.505333 151.558667 188.732 149.748 186.958667 147.937333 184.821333 146.546667 182.32 145.576 179.818667 144.605333 177.018667 144.12 173.92 144.12 170.821333 144.12 168.021333 144.605333 165.52 145.576 163.018667 146.546667 160.881333 147.937333 159.108 149.748 157.334667 151.558667 155.972 153.742667 155.02 156.3 154.068 158.857333 153.592 161.741333 153.592 164.952 153.592 168.125333 154.068 171 155.02 173.576 155.972 176.152 157.334667 178.354667 159.108 180.184 160.881333 182.013333 163.018667 183.413333 165.52 184.384 168.021333 185.354667 170.821333 185.84 173.92 185.84zM173.92 176.432C171.008 176.432 168.777333 175.442667 167.228 173.464 165.678667 171.485333 164.904 168.648 164.904 164.952 164.904 161.293333 165.678667 158.474667 167.228 156.496 168.777333 154.517333 171.008 153.528 173.92 153.528 176.832 153.528 179.062667 154.517333 180.612 156.496 182.161333 158.474667 182.936 161.293333 182.936 164.952 182.936 168.648 182.161333 171.485333 180.612 173.464 179.062667 175.442667 176.832 176.432 173.92 176.432zM210.6 185V160.696C213.026667 164.578667 215.5 168.582667 218.02 172.708 220.54 176.833333 222.994667 180.930667 225.384 185v0H236.36V144.96H225.944V168.816C223.517333 164.746667 221.072 160.714667 218.608 156.72 216.144 152.725333 213.661333 148.805333 211.16 144.96v0H200.184V185H210.6zM263.464 185.84C265.256 185.84 267.057333 185.728 268.868 185.504 270.678667 185.28 272.424 184.934667 274.104 184.468 275.784 184.001333 277.277333 183.450667 278.584 182.816v0V161.928H262.96V169.992H268.784V175.984C268.074667 176.170667 267.337333 176.310667 266.572 176.404 265.806667 176.497333 265.050667 176.544 264.304 176.544 260.794667 176.544 258.134667 175.564 256.324 173.604 254.513333 171.644 253.608 168.76 253.608 164.952 253.608 161.293333 254.644 158.474667 256.716 156.496 258.788 154.517333 261.746667 153.528 265.592 153.528 267.944 153.528 270.1 153.78 272.06 154.284 274.02 154.788 275.84 155.506667 277.52 156.44v0V146.584C273.6 144.941333 269.157333 144.12 264.192 144.12 260.906667 144.12 257.92 144.614667 255.232 145.604 252.544 146.593333 250.229333 148.002667 248.288 149.832 246.346667 151.661333 244.862667 153.854667 243.836 156.412 242.809333 158.969333 242.296 161.816 242.296 164.952 242.296 168.2 242.781333 171.112 243.752 173.688 244.722667 176.264 246.122667 178.457333 247.952 180.268 249.781333 182.078667 252.002667 183.46 254.616 184.412 257.229333 185.364 260.178667 185.84 263.464 185.84zM295.776 185V171.504H301.264C302.570667 173.706667 303.830667 175.937333 305.044 178.196 306.257333 180.454667 307.461333 182.722667 308.656 185v0H320.696C319.165333 182.274667 317.606667 179.605333 316.02 176.992 314.433333 174.378667 312.818667 171.784 311.176 169.208 313.266667 168.088 314.881333 166.594667 316.02 164.728 317.158667 162.861333 317.728 160.696 317.728 158.232 317.728 153.938667 316.253333 150.653333 313.304 148.376 310.354667 146.098667 306.098667 144.96 300.536 144.96v0H285.192V185H295.776zM300.032 163.104H295.776V153.36H300.032C302.309333 153.36 303.989333 153.761333 305.072 154.564 306.154667 155.366667 306.696 156.589333 306.696 158.232 306.696 159.837333 306.154667 161.050667 305.072 161.872 303.989333 162.693333 302.309333 163.104 300.032 163.104v0zM333.296 185C334.08 182.461333 334.845333 179.96 335.592 177.496v0H350.208C350.581333 178.728 350.964 179.969333 351.356 181.22 351.748 182.470667 352.130667 183.730667 352.504 185v0H364.32C361.930667 178.317333 359.466667 171.634667 356.928 164.952 354.389333 158.269333 351.776 151.605333 349.088 144.96v0H337.048C334.434667 151.269333 331.858667 157.765333 329.32 164.448 326.781333 171.130667 324.28 177.981333 321.816 185v0H333.296zM347.52 168.984H338.28C339.026667 166.669333 339.792 164.364 340.576 162.068 341.36 159.772 342.144 157.466667 342.928 155.152 343.712 157.429333 344.486667 159.716 345.252 162.012 346.017333 164.308 346.773333 166.632 347.52 168.984v0zM388.512 185V154.368H400.496V144.96H365.608V154.368H377.592V185H388.512zM422.616 185.84C426.312 185.84 429.476 185.130667 432.108 183.712 434.74 182.293333 436.756 180.249333 438.156 177.58 439.556 174.910667 440.256 171.728 440.256 168.032v0V144.96H429.504V169.264C429.504 171.541333 428.906667 173.305333 427.712 174.556 426.517333 175.806667 424.818667 176.432 422.616 176.432 420.450667 176.432 418.761333 175.806667 417.548 174.556 416.334667 173.305333 415.728 171.541333 415.728 169.264v0V144.96H404.808V168.032C404.808 171.728 405.517333 174.910667 406.936 177.58 408.354667 180.249333 410.398667 182.293333 413.068 183.712 415.737333 185.130667 418.92 185.84 422.616 185.84zM476.208 185V175.592H458.4V144.96H447.48V185H476.208zM488.976 185C489.76 182.461333 490.525333 179.96 491.272 177.496v0H505.888C506.261333 178.728 506.644 179.969333 507.036 181.22 507.428 182.470667 507.810667 183.730667 508.184 185v0H520C517.610667 178.317333 515.146667 171.634667 512.608 164.952 510.069333 158.269333 507.456 151.605333 504.768 144.96v0H492.728C490.114667 151.269333 487.538667 157.765333 485 164.448 482.461333 171.130667 479.96 177.981333 477.496 185v0H488.976zM503.2 168.984H493.96C494.706667 166.669333 495.472 164.364 496.256 162.068 497.04 159.772 497.824 157.466667 498.608 155.152 499.392 157.429333 500.166667 159.716 500.932 162.012 501.697333 164.308 502.453333 166.632 503.2 168.984v0zM544.192 185V154.368H556.176V144.96H521.288V154.368H533.272V185H544.192zM571.576 185V144.96H560.656V185H571.576zM597.84 185.84C600.938667 185.84 603.738667 185.354667 606.24 184.384 608.741333 183.413333 610.878667 182.013333 612.652 180.184 614.425333 178.354667 615.788 176.152 616.74 173.576 617.692 171 618.168 168.125333 618.168 164.952 618.168 161.741333 617.692 158.857333 616.74 156.3 615.788 153.742667 614.425333 151.558667 612.652 149.748 610.878667 147.937333 608.741333 146.546667 606.24 145.576 603.738667 144.605333 600.938667 144.12 597.84 144.12 594.741333 144.12 591.941333 144.605333 589.44 145.576 586.938667 146.546667 584.801333 147.937333 583.028 149.748 581.254667 151.558667 579.892 153.742667 578.94 156.3 577.988 158.857333 577.512 161.741333 577.512 164.952 577.512 168.125333 577.988 171 578.94 173.576 579.892 176.152 581.254667 178.354667 583.028 180.184 584.801333 182.013333 586.938667 183.413333 589.44 184.384 591.941333 185.354667 594.741333 185.84 597.84 185.84zM597.84 176.432C594.928 176.432 592.697333 175.442667 591.148 173.464 589.598667 171.485333 588.824 168.648 588.824 164.952 588.824 161.293333 589.598667 158.474667 591.148 156.496 592.697333 154.517333 594.928 153.528 597.84 153.528 600.752 153.528 602.982667 154.517333 604.532 156.496 606.081333 158.474667 606.856 161.293333 606.856 164.952 606.856 168.648 606.081333 171.485333 604.532 173.464 602.982667 175.442667 600.752 176.432 597.84 176.432zM634.52 185V160.696C636.946667 164.578667 639.42 168.582667 641.94 172.708 644.46 176.833333 646.914667 180.930667 649.304 185v0H660.28V144.96H649.864V168.816C647.437333 164.746667 644.992 160.714667 642.528 156.72 640.064 152.725333 637.581333 148.805333 635.08 144.96v0H624.104V185H634.52zM679.768 185.84C683.426667 185.84 686.534667 185.336 689.092 184.328 691.649333 183.32 693.609333 181.845333 694.972 179.904 696.334667 177.962667 697.016 175.610667 697.016 172.848 697.016 170.757333 696.68 169.012 696.008 167.612 695.336 166.212 694.384 165.054667 693.152 164.14 691.92 163.225333 690.464 162.450667 688.784 161.816 687.104 161.181333 685.237333 160.621333 683.184 160.136 681.205333 159.650667 679.684 159.137333 678.62 158.596 677.556 158.054667 677.024 157.242667 677.024 156.16 677.024 155.114667 677.537333 154.321333 678.564 153.78 679.590667 153.238667 681.037333 152.968 682.904 152.968 684.210667 152.968 685.564 153.089333 686.964 153.332 688.364 153.574667 689.754667 153.929333 691.136 154.396 692.517333 154.862667 693.824 155.469333 695.056 156.216v0V146.864C693.338667 146.005333 691.416 145.333333 689.288 144.848 687.16 144.362667 684.994667 144.12 682.792 144.12 679.394667 144.12 676.445333 144.633333 673.944 145.66 671.442667 146.686667 669.52 148.152 668.176 150.056 666.832 151.96 666.16 154.256 666.16 156.944 666.16 158.698667 666.421333 160.229333 666.944 161.536 667.466667 162.842667 668.288 163.990667 669.408 164.98 670.528 165.969333 671.984 166.837333 673.776 167.584 675.568 168.330667 677.733333 169.002667 680.272 169.6 681.429333 169.861333 682.437333 170.16 683.296 170.496 684.154667 170.832 684.826667 171.233333 685.312 171.7 685.797333 172.166667 686.04 172.792 686.04 173.576 686.04 174.658667 685.498667 175.498667 684.416 176.096 683.333333 176.693333 681.728 176.992 679.6 176.992 677.434667 176.992 675.26 176.684 673.076 176.068 670.892 175.452 668.754667 174.546667 666.664 173.352v0V182.816C668.829333 183.861333 670.985333 184.626667 673.132 185.112 675.278667 185.597333 677.490667 185.84 679.768 185.84zM128.616 247V206.96H117.696V247H128.616zM156 247V216.368H167.984V206.96H133.096V216.368H145.08V247H156zM177.224 223.704C178.232 222.696 179.1 221.585333 179.828 220.372 180.556 219.158667 181.125333 217.889333 181.536 216.564 181.946667 215.238667 182.152 213.978667 182.152 212.784 182.152 210.768 181.704 209.228 180.808 208.164 179.912 207.1 178.549333 206.568 176.72 206.568 175.152 206.568 173.910667 207.025333 172.996 207.94 172.081333 208.854667 171.624 210.058667 171.624 211.552 171.624 212.709333 171.922667 213.68 172.52 214.464 173.117333 215.248 173.938667 215.789333 174.984 216.088 174.274667 218.626667 172.688 221.165333 170.224 223.704v0h7zM200.8 247.84C204.458667 247.84 207.566667 247.336 210.124 246.328 212.681333 245.32 214.641333 243.845333 216.004 241.904 217.366667 239.962667 218.048 237.610667 218.048 234.848 218.048 232.757333 217.712 231.012 217.04 229.612 216.368 228.212 215.416 227.054667 214.184 226.14 212.952 225.225333 211.496 224.450667 209.816 223.816 208.136 223.181333 206.269333 222.621333 204.216 222.136 202.237333 221.650667 200.716 221.137333 199.652 220.596 198.588 220.054667 198.056 219.242667 198.056 218.16 198.056 217.114667 198.569333 216.321333 199.596 215.78 200.622667 215.238667 202.069333 214.968 203.936 214.968 205.242667 214.968 206.596 215.089333 207.996 215.332 209.396 215.574667 210.786667 215.929333 212.168 216.396 213.549333 216.862667 214.856 217.469333 216.088 218.216v0V208.864C214.370667 208.005333 212.448 207.333333 210.32 206.848 208.192 206.362667 206.026667 206.12 203.824 206.12 200.426667 206.12 197.477333 206.633333 194.976 207.66 192.474667 208.686667 190.552 210.152 189.208 212.056 187.864 213.96 187.192 216.256 187.192 218.944 187.192 220.698667 187.453333 222.229333 187.976 223.536 188.498667 224.842667 189.32 225.990667 190.44 226.98 191.56 227.969333 193.016 228.837333 194.808 229.584 196.6 230.330667 198.765333 231.002667 201.304 231.6 202.461333 231.861333 203.469333 232.16 204.328 232.496 205.186667 232.832 205.858667 233.233333 206.344 233.7 206.829333 234.166667 207.072 234.792 207.072 235.576 207.072 236.658667 206.530667 237.498667 205.448 238.096 204.365333 238.693333 202.76 238.992 200.632 238.992 198.466667 238.992 196.292 238.684 194.108 238.068 191.924 237.452 189.786667 236.546667 187.696 235.352v0V244.816C189.861333 245.861333 192.017333 246.626667 194.164 247.112 196.310667 247.597333 198.522667 247.84 200.8 247.84zM254.728 247C255.810667 242.893333 256.856 238.777333 257.864 234.652 258.872 230.526667 259.88 226.392 260.888 222.248 261.858667 226.392 262.866667 230.526667 263.912 234.652 264.957333 238.777333 266.021333 242.893333 267.104 247v0H278.416C280.282667 240.466667 282.065333 233.858667 283.764 227.176 285.462667 220.493333 287.058667 213.754667 288.552 206.96v0H277.072C276.362667 211.626667 275.606667 216.293333 274.804 220.96 274.001333 225.626667 273.152 230.237333 272.256 234.792 271.248 230.461333 270.249333 226.121333 269.26 221.772 268.270667 217.422667 267.309333 213.045333 266.376 208.64v0H255.904C254.970667 213.12 254 217.609333 252.992 222.108 251.984 226.606667 250.938667 231.114667 249.856 235.632 248.96 230.965333 248.101333 226.224 247.28 221.408 246.458667 216.592 245.693333 211.776 244.984 206.96v0H233.28C234.810667 213.754667 236.425333 220.493333 238.124 227.176 239.822667 233.858667 241.586667 240.466667 243.416 247v0H254.728zM322.712 247V238.264H303.616V230.984H319.408V222.248H303.616V215.696H321.648V206.96H292.976V247H322.712zM356.704 247V237.592H338.896V206.96H327.976V247H356.704zM389.912 247V237.592H372.104V206.96H361.184V247H389.912zM436.616 247V238.264H417.52V230.984H433.312V222.248H417.52V215.696H435.552V206.96H406.88V247H436.616zM450.168 247C450.952 244.461333 451.717333 241.96 452.464 239.496v0H467.08C467.453333 240.728 467.836 241.969333 468.228 243.22 468.62 244.470667 469.002667 245.730667 469.376 247v0H481.192C478.802667 240.317333 476.338667 233.634667 473.8 226.952 471.261333 220.269333 468.648 213.605333 465.96 206.96v0H453.92C451.306667 213.269333 448.730667 219.765333 446.192 226.448 443.653333 233.130667 441.152 239.981333 438.688 247v0H450.168zM464.392 230.984H455.152C455.898667 228.669333 456.664 226.364 457.448 224.068 458.232 221.772 459.016 219.466667 459.8 217.152 460.584 219.429333 461.358667 221.716 462.124 224.012 462.889333 226.308 463.645333 228.632 464.392 230.984v0zM495.976 247V233.504H501.464C502.770667 235.706667 504.030667 237.937333 505.244 240.196 506.457333 242.454667 507.661333 244.722667 508.856 247v0H520.896C519.365333 244.274667 517.806667 241.605333 516.22 238.992 514.633333 236.378667 513.018667 233.784 511.376 231.208 513.466667 230.088 515.081333 228.594667 516.22 226.728 517.358667 224.861333 517.928 222.696 517.928 220.232 517.928 215.938667 516.453333 212.653333 513.504 210.376 510.554667 208.098667 506.298667 206.96 500.736 206.96v0H485.392V247H495.976zM500.232 225.104H495.976V215.36H500.232C502.509333 215.36 504.189333 215.761333 505.272 216.564 506.354667 217.366667 506.896 218.589333 506.896 220.232 506.896 221.837333 506.354667 223.050667 505.272 223.872 504.189333 224.693333 502.509333 225.104 500.232 225.104v0zM535.624 247V222.696C538.050667 226.578667 540.524 230.582667 543.044 234.708 545.564 238.833333 548.018667 242.930667 550.408 247v0H561.384V206.96H550.968V230.816C548.541333 226.746667 546.096 222.714667 543.632 218.72 541.168 214.725333 538.685333 210.805333 536.184 206.96v0H525.208V247H535.624zM598.512 247V238.264H579.416V230.984H595.208V222.248H579.416V215.696H597.448V206.96H568.776V247H598.512zM620.072 247C624.328 247 627.958667 246.206667 630.964 244.62 633.969333 243.033333 636.265333 240.746667 637.852 237.76 639.438667 234.773333 640.232 231.152 640.232 226.896 640.232 222.677333 639.438667 219.084 637.852 216.116 636.265333 213.148 633.969333 210.88 630.964 209.312 627.958667 207.744 624.346667 206.96 620.128 206.96v0H603.776V247H620.072zM619.568 237.704H614.696V216.256H619.624C622.685333 216.256 625 217.161333 626.568 218.972 628.136 220.782667 628.92 223.424 628.92 226.896 628.92 230.405333 628.126667 233.084 626.54 234.932 624.953333 236.78 622.629333 237.704 619.568 237.704v0z" id="CONGRATULATIONSIT’SWELLEARNED"/></g></g></g></svg>