<svg width="1200" height="677" viewBox="0 0 1200 677" xmlns="http://www.w3.org/2000/svg" xmlns:xlink="http://www.w3.org/1999/xlink"><title>blink-text-06</title><desc>Created with Sketch.</desc><g id="Assets" stroke="none" stroke-width="1" fill="none" fill-rule="evenodd"><g id="Blink" fill="#fff" fill-rule="nonzero"><g id="blink-text-06"><path d="M451.52 265.08C461.226667 265.08 469.626667 263.72 476.72 261 483.813333 258.28 489.28 254.413333 493.12 249.4 496.96 244.386667 498.88 238.466667 498.88 231.64 498.88 225.24 497.2 219.746667 493.84 215.16 490.48 210.573333 485.706667 207.053333 479.52 204.6 485.066667 201.933333 489.28 198.44 492.16 194.12 495.04 189.8 496.48 184.866667 496.48 179.32 496.48 173.133333 494.746667 167.773333 491.28 163.24 487.813333 158.706667 482.906667 155.213333 476.56 152.76 470.213333 150.306667 462.666667 149.08 453.92 149.08 441.226667 149.08 429.76 151.533333 419.52 156.44v0V180.92C422.72 179.426667 425.84 178.146667 428.88 177.08 431.92 176.013333 435.12 175.186667 438.48 174.6 441.84 174.013333 445.493333 173.72 449.44 173.72 454.986667 173.72 459.2 174.573333 462.08 176.28 464.96 177.986667 466.4 180.386667 466.4 183.48 466.4 186.893333 464.96 189.533333 462.08 191.4 459.2 193.266667 455.04 194.2 449.6 194.2v0H431.84V217.88H450.4C456.16 217.88 460.533333 218.84 463.52 220.76 466.506667 222.68 468 225.506667 468 229.24 468 232.866667 466.48 235.64 463.44 237.56 460.4 239.48 455.733333 240.44 449.44 240.44 445.173333 240.44 441.2 240.173333 437.52 239.64 433.84 239.106667 430.346667 238.306667 427.04 237.24 423.733333 236.173333 420.373333 234.893333 416.96 233.4v0V258.52C422.506667 260.76 428.106667 262.413333 433.76 263.48 439.413333 264.546667 445.333333 265.08 451.52 265.08zM593.76 263V237.24H545.28C546.88 234.573333 549.226667 231.96 552.32 229.4 555.413333 226.84 559.52 223.96 564.64 220.76 569.866667 217.56 574.186667 214.52 577.6 211.64 581.013333 208.76 583.706667 205.826667 585.68 202.84 587.653333 199.853333 589.066667 196.626667 589.92 193.16 590.773333 189.693333 591.2 185.773333 591.2 181.4 591.2 174.786667 589.52 169.08 586.16 164.28 582.8 159.48 578.053333 155.746667 571.92 153.08 565.786667 150.413333 558.56 149.08 550.24 149.08 543.413333 149.08 537.146667 149.8 531.44 151.24 525.733333 152.68 520.053333 154.946667 514.4 158.04v0V184.44C519.093333 181.026667 523.786667 178.546667 528.48 177 533.173333 175.453333 538.026667 174.68 543.04 174.68 548.373333 174.68 552.506667 175.64 555.44 177.56 558.373333 179.48 559.84 182.306667 559.84 186.04 559.84 187.746667 559.573333 189.293333 559.04 190.68 558.506667 192.066667 557.573333 193.453333 556.24 194.84 554.906667 196.226667 553.013333 197.826667 550.56 199.64 548.106667 201.453333 544.906667 203.586667 540.96 206.04 534.026667 210.413333 528.426667 214.973333 524.16 219.72 519.893333 224.466667 516.773333 229.613333 514.8 235.16 512.826667 240.706667 511.84 247 511.84 254.04v0V263H593.76zM635.68 224.28 638.08 148.6H607.36L609.76 224.28H635.68zM622.72 264.44C626.133333 264.44 629.066667 263.72 631.52 262.28 633.973333 260.84 635.866667 258.92 637.2 256.52 638.533333 254.12 639.2 251.48 639.2 248.6 639.2 245.72 638.533333 243.08 637.2 240.68 635.866667 238.28 633.973333 236.386667 631.52 235 629.066667 233.613333 626.133333 232.92 622.72 232.92 619.306667 232.92 616.373333 233.613333 613.92 235 611.466667 236.386667 609.573333 238.28 608.24 240.68 606.906667 243.08 606.24 245.72 606.24 248.6 606.24 251.48 606.906667 254.12 608.24 256.52 609.573333 258.92 611.466667 260.84 613.92 262.28 616.373333 263.72 619.306667 264.44 622.72 264.44z" id="32!"/></g></g></g></svg>