<svg width="1200" height="677" viewBox="0 0 1200 677" xmlns="http://www.w3.org/2000/svg" xmlns:xlink="http://www.w3.org/1999/xlink"><title>blink-text-02</title><desc>Created with Sketch.</desc><g id="Assets" stroke="none" stroke-width="1" fill="none" fill-rule="evenodd"><g id="Blink" fill="#fff" fill-rule="nonzero"><g id="blink-text-02"><path d="M128.616 237V220.816H142.84V237H153.76V196.96H142.84V211.408H128.616V196.96H117.696V237H128.616zM172.072 237V196.96H161.152V237H172.072zM184.392 245.4C185.474667 244.28 186.417333 243.038667 187.22 241.676 188.022667 240.313333 188.638667 238.913333 189.068 237.476 189.497333 236.038667 189.712 234.666667 189.712 233.36 189.712 231.12 189.226667 229.412 188.256 228.236 187.285333 227.06 185.810667 226.472 183.832 226.472 182.077333 226.472 180.677333 226.976 179.632 227.984 178.586667 228.992 178.064 230.317333 178.064 231.96 178.064 233.229333 178.390667 234.302667 179.044 235.18 179.697333 236.057333 180.584 236.664 181.704 237 180.957333 239.8 179.277333 242.6 176.664 245.4v0H184.392zM219.112 237V220.816H233.336V237H244.256V196.96H233.336V211.408H219.112V196.96H208.192V237H219.112zM270.52 237.84C273.618667 237.84 276.418667 237.354667 278.92 236.384 281.421333 235.413333 283.558667 234.013333 285.332 232.184 287.105333 230.354667 288.468 228.152 289.42 225.576 290.372 223 290.848 220.125333 290.848 216.952 290.848 213.741333 290.372 210.857333 289.42 208.3 288.468 205.742667 287.105333 203.558667 285.332 201.748 283.558667 199.937333 281.421333 198.546667 278.92 197.576 276.418667 196.605333 273.618667 196.12 270.52 196.12 267.421333 196.12 264.621333 196.605333 262.12 197.576 259.618667 198.546667 257.481333 199.937333 255.708 201.748 253.934667 203.558667 252.572 205.742667 251.62 208.3 250.668 210.857333 250.192 213.741333 250.192 216.952 250.192 220.125333 250.668 223 251.62 225.576 252.572 228.152 253.934667 230.354667 255.708 232.184 257.481333 234.013333 259.618667 235.413333 262.12 236.384 264.621333 237.354667 267.421333 237.84 270.52 237.84zM270.52 228.432C267.608 228.432 265.377333 227.442667 263.828 225.464 262.278667 223.485333 261.504 220.648 261.504 216.952 261.504 213.293333 262.278667 210.474667 263.828 208.496 265.377333 206.517333 267.608 205.528 270.52 205.528 273.432 205.528 275.662667 206.517333 277.212 208.496 278.761333 210.474667 279.536 213.293333 279.536 216.952 279.536 220.648 278.761333 223.485333 277.212 225.464 275.662667 227.442667 273.432 228.432 270.52 228.432zM315.264 237C316.346667 232.893333 317.392 228.777333 318.4 224.652 319.408 220.526667 320.416 216.392 321.424 212.248 322.394667 216.392 323.402667 220.526667 324.448 224.652 325.493333 228.777333 326.557333 232.893333 327.64 237v0H338.952C340.818667 230.466667 342.601333 223.858667 344.3 217.176 345.998667 210.493333 347.594667 203.754667 349.088 196.96v0H337.608C336.898667 201.626667 336.142667 206.293333 335.34 210.96 334.537333 215.626667 333.688 220.237333 332.792 224.792 331.784 220.461333 330.785333 216.121333 329.796 211.772 328.806667 207.422667 327.845333 203.045333 326.912 198.64v0H316.44C315.506667 203.12 314.536 207.609333 313.528 212.108 312.52 216.606667 311.474667 221.114667 310.392 225.632 309.496 220.965333 308.637333 216.224 307.816 211.408 306.994667 206.592 306.229333 201.776 305.52 196.96v0H293.816C295.346667 203.754667 296.961333 210.493333 298.66 217.176 300.358667 223.858667 302.122667 230.466667 303.952 237v0H315.264zM125.984 299C126.768 296.461333 127.533333 293.96 128.28 291.496v0H142.896C143.269333 292.728 143.652 293.969333 144.044 295.22 144.436 296.470667 144.818667 297.730667 145.192 299v0H157.008C154.618667 292.317333 152.154667 285.634667 149.616 278.952 147.077333 272.269333 144.464 265.605333 141.776 258.96v0H129.736C127.122667 265.269333 124.546667 271.765333 122.008 278.448 119.469333 285.130667 116.968 291.981333 114.504 299v0H125.984zM140.208 282.984H130.968C131.714667 280.669333 132.48 278.364 133.264 276.068 134.048 273.772 134.832 271.466667 135.616 269.152 136.4 271.429333 137.174667 273.716 137.94 276.012 138.705333 278.308 139.461333 280.632 140.208 282.984v0zM171.792 299V285.504H177.28C178.586667 287.706667 179.846667 289.937333 181.06 292.196 182.273333 294.454667 183.477333 296.722667 184.672 299v0H196.712C195.181333 296.274667 193.622667 293.605333 192.036 290.992 190.449333 288.378667 188.834667 285.784 187.192 283.208 189.282667 282.088 190.897333 280.594667 192.036 278.728 193.174667 276.861333 193.744 274.696 193.744 272.232 193.744 267.938667 192.269333 264.653333 189.32 262.376 186.370667 260.098667 182.114667 258.96 176.552 258.96v0H161.208V299H171.792zM176.048 277.104h-4.256V267.36h4.256C178.325333 267.36 180.005333 267.761333 181.088 268.564 182.170667 269.366667 182.712 270.589333 182.712 272.232 182.712 273.837333 182.170667 275.050667 181.088 275.872 180.005333 276.693333 178.325333 277.104 176.048 277.104v0zM230.76 299V290.264H211.664V282.984H227.456V274.248H211.664V267.696H229.696V258.96H201.024V299H230.76zM271.304 299V284.16C273.88 279.978667 276.418667 275.788 278.92 271.588 281.421333 267.388 283.866667 263.178667 286.256 258.96v0H274.272C272.965333 261.610667 271.621333 264.270667 270.24 266.94 268.858667 269.609333 267.477333 272.269333 266.096 274.92 264.677333 272.269333 263.286667 269.618667 261.924 266.968 260.561333 264.317333 259.208 261.648 257.864 258.96v0H245.488C247.84 263.178667 250.266667 267.388 252.768 271.588 255.269333 275.788 257.808 279.978667 260.384 284.16v0V299H271.304zM298.912 299C299.696 296.461333 300.461333 293.96 301.208 291.496v0H315.824C316.197333 292.728 316.58 293.969333 316.972 295.22 317.364 296.470667 317.746667 297.730667 318.12 299v0H329.936C327.546667 292.317333 325.082667 285.634667 322.544 278.952 320.005333 272.269333 317.392 265.605333 314.704 258.96v0H302.664C300.050667 265.269333 297.474667 271.765333 294.936 278.448 292.397333 285.130667 289.896 291.981333 287.432 299v0H298.912zM313.136 282.984H303.896C304.642667 280.669333 305.408 278.364 306.192 276.068 306.976 273.772 307.76 271.466667 308.544 269.152 309.328 271.429333 310.102667 273.716 310.868 276.012 311.633333 278.308 312.389333 280.632 313.136 282.984v0zM346.96 285.448V284.776C346.96 284.216 347.081333 283.693333 347.324 283.208 347.566667 282.722667 347.986667 282.218667 348.584 281.696 349.181333 281.173333 349.965333 280.576 350.936 279.904 353.138667 278.373333 354.734667 276.777333 355.724 275.116 356.713333 273.454667 357.208 271.504 357.208 269.264 357.208 266.949333 356.638667 264.961333 355.5 263.3 354.361333 261.638667 352.746667 260.36 350.656 259.464 348.565333 258.568 346.045333 258.12 343.096 258.12 341.154667 258.12 339.269333 258.316 337.44 258.708 335.610667 259.1 333.874667 259.688 332.232 260.472v0V268.928C333.725333 268.069333 335.181333 267.444 336.6 267.052 338.018667 266.66 339.512 266.464 341.08 266.464 342.834667 266.464 344.188 266.809333 345.14 267.5 346.092 268.190667 346.568 269.152 346.568 270.384 346.568 271.093333 346.456 271.737333 346.232 272.316 346.008 272.894667 345.597333 273.482667 345 274.08 344.402667 274.677333 343.544 275.405333 342.424 276.264 340.968 277.346667 339.922667 278.541333 339.288 279.848 338.653333 281.154667 338.336 282.797333 338.336 284.776v0V285.448H346.96zM342.648 299.504C343.842667 299.504 344.869333 299.252 345.728 298.748 346.586667 298.244 347.249333 297.572 347.716 296.732 348.182667 295.892 348.416 294.968 348.416 293.96 348.416 292.952 348.182667 292.028 347.716 291.188 347.249333 290.348 346.586667 289.685333 345.728 289.2 344.869333 288.714667 343.842667 288.472 342.648 288.472 341.453333 288.472 340.426667 288.714667 339.568 289.2 338.709333 289.685333 338.046667 290.348 337.58 291.188 337.113333 292.028 336.88 292.952 336.88 293.96 336.88 294.968 337.113333 295.892 337.58 296.732 338.046667 297.572 338.709333 298.244 339.568 298.748 340.426667 299.252 341.453333 299.504 342.648 299.504z" id="HI,HOWAREYA?"/></g></g></g></svg>