<?xml version="1.0" encoding="UTF-8"?>
<svg width="1201px" height="676px" viewBox="0 0 1201 676" version="1.1" xmlns="http://www.w3.org/2000/svg" xmlns:xlink="http://www.w3.org/1999/xlink">
    <!-- Generator: Sketch 61.2 (89653) - https://sketch.com -->
    <title>Group</title>
    <desc>Created with Sketch.</desc>
    <g id="Assets" stroke="none" stroke-width="1" fill="none" fill-rule="evenodd">
        <g id="Blink" transform="translate(1.000000, 1.000000)" fill="#FFFFFF" fill-rule="nonzero">
            <g id="Group-2" transform="translate(-0.730469, -0.410156)">
                <path d="M248.170469,615.410156 L248.170469,602.390156 C248.830469,603.910156 249.505469,605.430156 250.195469,606.950156 C250.885469,608.470156 251.580469,609.990156 252.280469,611.510156 L252.280469,611.510156 L256.780469,611.510156 C257.460469,609.990156 258.135469,608.465156 258.805469,606.935156 C259.475469,605.405156 260.140469,603.860156 260.800469,602.300156 L260.800469,602.300156 L260.800469,615.410156 L266.260469,615.410156 L266.260469,593.960156 L259.300469,593.960156 C258.540469,595.980156 257.770469,597.975156 256.990469,599.945156 C256.210469,601.915156 255.420469,603.860156 254.620469,605.780156 C253.780469,603.840156 252.955469,601.880156 252.145469,599.900156 C251.335469,597.920156 250.540469,595.940156 249.760469,593.960156 L249.760469,593.960156 L242.710469,593.960156 L242.710469,615.410156 L248.170469,615.410156 Z M274.660469,615.410156 C275.080469,614.050156 275.490469,612.710156 275.890469,611.390156 L275.890469,611.390156 L283.720469,611.390156 C283.920469,612.050156 284.125469,612.715156 284.335469,613.385156 C284.545469,614.055156 284.750469,614.730156 284.950469,615.410156 L284.950469,615.410156 L291.280469,615.410156 C290.000469,611.830156 288.680469,608.250156 287.320469,604.670156 C285.960469,601.090156 284.560469,597.520156 283.120469,593.960156 L283.120469,593.960156 L276.670469,593.960156 C275.270469,597.340156 273.890469,600.820156 272.530469,604.400156 C271.170469,607.980156 269.830469,611.650156 268.510469,615.410156 L268.510469,615.410156 L274.660469,615.410156 Z M282.280469,606.830156 L277.330469,606.830156 C277.730469,605.590156 278.140469,604.355156 278.560469,603.125156 C278.980469,601.895156 279.400469,600.660156 279.820469,599.420156 C280.240469,600.640156 280.655469,601.865156 281.065469,603.095156 C281.475469,604.325156 281.880469,605.570156 282.280469,606.830156 L282.280469,606.830156 Z M304.240469,615.410156 L304.240469,599.000156 L310.660469,599.000156 L310.660469,593.960156 L291.970469,593.960156 L291.970469,599.000156 L298.390469,599.000156 L298.390469,615.410156 L304.240469,615.410156 Z M323.770469,615.410156 L323.770469,599.000156 L330.190469,599.000156 L330.190469,593.960156 L311.500469,593.960156 L311.500469,599.000156 L317.920469,599.000156 L317.920469,615.410156 L323.770469,615.410156 Z M345.760469,615.860156 C347.720469,615.860156 349.385469,615.590156 350.755469,615.050156 C352.125469,614.510156 353.175469,613.720156 353.905469,612.680156 C354.635469,611.640156 355.000469,610.380156 355.000469,608.900156 C355.000469,607.780156 354.820469,606.845156 354.460469,606.095156 C354.100469,605.345156 353.590469,604.725156 352.930469,604.235156 C352.270469,603.745156 351.490469,603.330156 350.590469,602.990156 C349.690469,602.650156 348.690469,602.350156 347.590469,602.090156 C346.530469,601.830156 345.715469,601.555156 345.145469,601.265156 C344.575469,600.975156 344.290469,600.540156 344.290469,599.960156 C344.290469,599.400156 344.565469,598.975156 345.115469,598.685156 C345.665469,598.395156 346.440469,598.250156 347.440469,598.250156 C348.140469,598.250156 348.865469,598.315156 349.615469,598.445156 C350.365469,598.575156 351.110469,598.765156 351.850469,599.015156 C352.590469,599.265156 353.290469,599.590156 353.950469,599.990156 L353.950469,599.990156 L353.950469,594.980156 C353.030469,594.520156 352.000469,594.160156 350.860469,593.900156 C349.720469,593.640156 348.560469,593.510156 347.380469,593.510156 C345.560469,593.510156 343.980469,593.785156 342.640469,594.335156 C341.300469,594.885156 340.270469,595.670156 339.550469,596.690156 C338.830469,597.710156 338.470469,598.940156 338.470469,600.380156 C338.470469,601.320156 338.610469,602.140156 338.890469,602.840156 C339.170469,603.540156 339.610469,604.155156 340.210469,604.685156 C340.810469,605.215156 341.590469,605.680156 342.550469,606.080156 C343.510469,606.480156 344.670469,606.840156 346.030469,607.160156 C346.650469,607.300156 347.190469,607.460156 347.650469,607.640156 C348.110469,607.820156 348.470469,608.035156 348.730469,608.285156 C348.990469,608.535156 349.120469,608.870156 349.120469,609.290156 C349.120469,609.870156 348.830469,610.320156 348.250469,610.640156 C347.670469,610.960156 346.810469,611.120156 345.670469,611.120156 C344.510469,611.120156 343.345469,610.955156 342.175469,610.625156 C341.005469,610.295156 339.860469,609.810156 338.740469,609.170156 L338.740469,609.170156 L338.740469,614.240156 C339.900469,614.800156 341.055469,615.210156 342.205469,615.470156 C343.355469,615.730156 344.540469,615.860156 345.760469,615.860156 Z M363.910469,615.410156 L363.910469,606.560156 L364.960469,606.560156 C366.080469,608.060156 367.165469,609.540156 368.215469,611.000156 C369.265469,612.460156 370.310469,613.930156 371.350469,615.410156 L371.350469,615.410156 L378.670469,615.410156 C377.190469,613.450156 375.725469,611.525156 374.275469,609.635156 C372.825469,607.745156 371.360469,605.880156 369.880469,604.040156 C371.260469,602.360156 372.610469,600.680156 373.930469,599.000156 C375.250469,597.320156 376.550469,595.640156 377.830469,593.960156 L377.830469,593.960156 L370.930469,593.960156 C370.010469,595.260156 369.070469,596.565156 368.110469,597.875156 C367.150469,599.185156 366.140469,600.520156 365.080469,601.880156 L365.080469,601.880156 L363.910469,601.880156 L363.910469,593.960156 L358.060469,593.960156 L358.060469,615.410156 L363.910469,615.410156 Z M386.680469,615.410156 L386.680469,593.960156 L380.830469,593.960156 L380.830469,615.410156 L386.680469,615.410156 Z M399.940469,615.410156 C401.740469,615.410156 403.285469,615.160156 404.575469,614.660156 C405.865469,614.160156 406.855469,613.440156 407.545469,612.500156 C408.235469,611.560156 408.580469,610.440156 408.580469,609.140156 C408.580469,607.880156 408.260469,606.805156 407.620469,605.915156 C406.980469,605.025156 406.060469,604.360156 404.860469,603.920156 C406.560469,602.980156 407.410469,601.550156 407.410469,599.630156 C407.410469,597.790156 406.720469,596.385156 405.340469,595.415156 C403.960469,594.445156 401.990469,593.960156 399.430469,593.960156 L399.430469,593.960156 L390.640469,593.960156 L390.640469,615.410156 L399.940469,615.410156 Z M398.860469,602.480156 L396.220469,602.480156 L396.220469,598.280156 L398.860469,598.280156 C400.780469,598.280156 401.740469,598.950156 401.740469,600.290156 C401.740469,600.970156 401.495469,601.505156 401.005469,601.895156 C400.515469,602.285156 399.800469,602.480156 398.860469,602.480156 L398.860469,602.480156 Z M399.400469,611.090156 L396.220469,611.090156 L396.220469,606.620156 L399.430469,606.620156 C401.710469,606.620156 402.850469,607.380156 402.850469,608.900156 C402.850469,609.600156 402.555469,610.140156 401.965469,610.520156 C401.375469,610.900156 400.520469,611.090156 399.400469,611.090156 L399.400469,611.090156 Z M416.050469,615.410156 C416.470469,614.050156 416.880469,612.710156 417.280469,611.390156 L417.280469,611.390156 L425.110469,611.390156 C425.310469,612.050156 425.515469,612.715156 425.725469,613.385156 C425.935469,614.055156 426.140469,614.730156 426.340469,615.410156 L426.340469,615.410156 L432.670469,615.410156 C431.390469,611.830156 430.070469,608.250156 428.710469,604.670156 C427.350469,601.090156 425.950469,597.520156 424.510469,593.960156 L424.510469,593.960156 L418.060469,593.960156 C416.660469,597.340156 415.280469,600.820156 413.920469,604.400156 C412.560469,607.980156 411.220469,611.650156 409.900469,615.410156 L409.900469,615.410156 L416.050469,615.410156 Z M423.670469,606.830156 L418.720469,606.830156 C419.120469,605.590156 419.530469,604.355156 419.950469,603.125156 C420.370469,601.895156 420.790469,600.660156 421.210469,599.420156 C421.630469,600.640156 422.045469,601.865156 422.455469,603.095156 C422.865469,604.325156 423.270469,605.570156 423.670469,606.830156 L423.670469,606.830156 Z" id="MATTSKIBA"></path>
                <path d="M406.172907,520.489032 C412.8418,520.510831 419.727041,521.040156 427.707626,522.000453 L438.139907,523.341064 C439.594852,523.522956 440.768383,523.662794 441.224684,523.700374 C442.050316,523.768372 442.664499,524.492802 442.596501,525.318434 C442.528503,526.144066 441.804073,526.758249 440.978441,526.690251 L440.593473,526.653213 C438.146074,526.397081 429.166675,525.20191 428.43462,525.111393 C420.093964,524.08009 412.994823,523.511347 406.1631,523.489016 C387.407127,523.427706 375.217377,527.670159 371.660478,537.498725 L371.295966,538.515226 C369.424382,543.784519 368.023119,548.539242 365.652672,557.385671 L363.393012,565.869319 C362.62314,568.73579 362.085907,570.671259 361.441131,572.904383 C361.211325,573.700297 360.379814,574.159219 359.583899,573.929413 C358.787984,573.699606 358.329062,572.868095 358.558869,572.07218 L359.281086,569.533637 C359.598536,568.399764 359.923281,567.21499 360.303368,565.80575 L362.759873,556.590596 C365.300903,547.10804 366.742623,542.272073 368.839522,536.477838 C372.934491,525.162458 385.997687,520.517113 405.577584,520.488488 L406.172907,520.489032 Z" id="Path-3"></path>
                <path d="M432.571147,511.822192 C433.221633,511.3092 434.164817,511.420662 434.677808,512.071147 C436.146144,513.933034 437.543418,515.59893 438.989927,517.236825 L439.65106,517.979889 L442.132298,520.706409 C444.427644,523.23417 445.09175,524.220223 444.972001,525.686746 C444.853399,527.139235 444.040351,527.9947 441.555958,529.798521 L438.864753,531.71927 C438.40321,532.050374 437.980893,532.356467 437.54533,532.676071 C435.798952,533.957514 434.109259,535.262476 432.307075,536.741533 C431.6667,537.267091 430.721525,537.174013 430.195967,536.533638 C429.670409,535.893263 429.763487,534.948087 430.403862,534.422529 C431.986312,533.123808 433.485036,531.955392 435.007085,530.821736 L435.770549,530.257362 C436.214992,529.931242 436.645183,529.619439 437.1142,529.282967 L439.531702,527.559961 C440.539952,526.834828 441.128768,526.376957 441.517008,526.007346 L441.603141,525.923537 C441.89417,525.633796 441.978145,525.48923 441.981953,525.442594 C441.98687,525.382379 441.918421,525.194502 441.667213,524.821514 L441.530045,524.625902 C441.23392,524.218733 440.799632,523.70671 440.093584,522.924456 L438.490219,521.168165 C437.850288,520.466559 437.304646,519.860575 436.741305,519.2227 C435.25935,517.54467 433.826551,515.836418 432.322192,513.928853 C431.8092,513.278367 431.920662,512.335183 432.571147,511.822192 Z" id="Path-4"></path>
            </g>
        </g>
    </g>
</svg>