<svg width="1201" height="676" xmlns="http://www.w3.org/2000/svg"><g fill="#FFF" fill-rule="nonzero"><path d="M248.44 616v-13.02c.66 1.52 1.335 3.04 2.025 4.56.69 1.52 1.385 3.04 2.085 4.56h4.5a632.5 632.5 0 002.025-4.575c.67-1.53 1.335-3.075 1.995-4.635V616h5.46v-21.45h-6.96c-.76 2.02-1.53 4.015-2.31 5.985-.78 1.97-1.57 3.915-2.37 5.835-.84-1.94-1.665-3.9-2.475-5.88s-1.605-3.96-2.385-5.94h-7.05V616h5.46zm26.49 0c.42-1.36.83-2.7 1.23-4.02h7.83c.2.66.405 1.325.615 1.995.21.67.415 1.345.615 2.025h6.33c-1.28-3.58-2.6-7.16-3.96-10.74a539.45 539.45 0 00-4.2-10.71h-6.45c-1.4 3.38-2.78 6.86-4.14 10.44-1.36 3.58-2.7 7.25-4.02 11.01h6.15zm7.62-8.58h-4.95c.4-1.24.81-2.475 1.23-3.705.42-1.23.84-2.465 1.26-3.705.42 1.22.835 2.445 1.245 3.675.41 1.23.815 2.475 1.215 3.735zm21.96 8.58v-16.41h6.42v-5.04h-18.69v5.04h6.42V616h5.85zm19.53 0v-16.41h6.42v-5.04h-18.69v5.04h6.42V616h5.85zm21.99.45c1.96 0 3.625-.27 4.995-.81s2.42-1.33 3.15-2.37 1.095-2.3 1.095-3.78c0-1.12-.18-2.055-.54-2.805-.36-.75-.87-1.37-1.53-1.86s-1.44-.905-2.34-1.245c-.9-.34-1.9-.64-3-.9-1.06-.26-1.875-.535-2.445-.825-.57-.29-.855-.725-.855-1.305 0-.56.275-.985.825-1.275.55-.29 1.325-.435 2.325-.435.7 0 1.425.065 2.175.195.75.13 1.495.32 2.235.57.74.25 1.44.575 2.1.975v-5.01c-.92-.46-1.95-.82-3.09-1.08a15.6 15.6 0 00-3.48-.39c-1.82 0-3.4.275-4.74.825-1.34.55-2.37 1.335-3.09 2.355-.72 1.02-1.08 2.25-1.08 3.69 0 .94.14 1.76.42 2.46.28.7.72 1.315 1.32 1.845.6.53 1.38.995 2.34 1.395s2.12.76 3.48 1.08c.62.14 1.16.3 1.62.48.46.18.82.395 1.08.645.26.25.39.585.39 1.005 0 .58-.29 1.03-.87 1.35-.58.32-1.44.48-2.58.48-1.16 0-2.325-.165-3.495-.495a15.265 15.265 0 01-3.435-1.455v5.07c1.16.56 2.315.97 3.465 1.23s2.335.39 3.555.39zm18.15-.45v-8.85h1.05c1.12 1.5 2.205 2.98 3.255 4.44 1.05 1.46 2.095 2.93 3.135 4.41h7.32a947.893 947.893 0 00-4.395-5.775 309.736 309.736 0 00-4.395-5.595c1.38-1.68 2.73-3.36 4.05-5.04 1.32-1.68 2.62-3.36 3.9-5.04h-6.9c-.92 1.3-1.86 2.605-2.82 3.915a169.53 169.53 0 01-3.03 4.005h-1.17v-7.92h-5.85V616h5.85zm22.77 0v-21.45h-5.85V616h5.85zm13.26 0c1.8 0 3.345-.25 4.635-.75 1.29-.5 2.28-1.22 2.97-2.16.69-.94 1.035-2.06 1.035-3.36 0-1.26-.32-2.335-.96-3.225-.64-.89-1.56-1.555-2.76-1.995 1.7-.94 2.55-2.37 2.55-4.29 0-1.84-.69-3.245-2.07-4.215-1.38-.97-3.35-1.455-5.91-1.455h-8.79V616h9.3zm-1.08-12.93h-2.64v-4.2h2.64c1.92 0 2.88.67 2.88 2.01 0 .68-.245 1.215-.735 1.605-.49.39-1.205.585-2.145.585zm.54 8.61h-3.18v-4.47h3.21c2.28 0 3.42.76 3.42 2.28 0 .7-.295 1.24-.885 1.62-.59.38-1.445.57-2.565.57zm16.65 4.32c.42-1.36.83-2.7 1.23-4.02h7.83c.2.66.405 1.325.615 1.995.21.67.415 1.345.615 2.025h6.33c-1.28-3.58-2.6-7.16-3.96-10.74a539.45 539.45 0 00-4.2-10.71h-6.45c-1.4 3.38-2.78 6.86-4.14 10.44-1.36 3.58-2.7 7.25-4.02 11.01h6.15zm7.62-8.58h-4.95c.4-1.24.81-2.475 1.23-3.705.42-1.23.84-2.465 1.26-3.705.42 1.22.835 2.445 1.245 3.675.41 1.23.815 2.475 1.215 3.735zM387.07 576.968a1.5 1.5 0 11-2.85-.937c8.808-26.767 27.702-44.638 58.191-58.679a1.5 1.5 0 011.255 2.725c-29.795 13.721-48.082 31.018-56.597 56.891z"/><path d="M439.928 537.227a1.5 1.5 0 01-1.22-1.736c.39-2.23.797-4.271 1.254-6.35l.35-1.553c.309-1.337.904-3.863 1.023-4.399l.111-.512c.426-2.033.417-2.793.15-3.12-.343-.417-1.246-.772-4.002-1.493l-2.396-.619c-4.723-1.228-7.321-1.997-11.734-3.537a1.5 1.5 0 11.989-2.833l.971.337c3.616 1.243 6.059 1.961 10.07 3.01l3.251.842c3.237.857 4.286 1.313 5.17 2.392 1.074 1.31 1.09 2.745.42 5.855l-.196.874c-.254 1.1-.769 3.283-.985 4.23l-.034.146c-.543 2.4-1.01 4.698-1.456 7.247a1.5 1.5 0 01-1.736 1.22z"/></g></svg>