<?xml version="1.0" encoding="UTF-8"?>
<svg width="1201px" height="676px" viewBox="0 0 1201 676" version="1.1" xmlns="http://www.w3.org/2000/svg" xmlns:xlink="http://www.w3.org/1999/xlink">
    <!-- Generator: Sketch 61.2 (89653) - https://sketch.com -->
    <title>Group</title>
    <desc>Created with Sketch.</desc>
    <g id="Assets" stroke="none" stroke-width="1" fill="none" fill-rule="evenodd">
        <g id="Blink" transform="translate(1.000000, 1.000000)" fill="#FFFFFF" fill-rule="nonzero">
            <g id="Group" transform="translate(-0.164950, -0.335938)">
                <path d="M1069.43153,222.531098 C1069.6905,221.744188 1070.53835,221.316206 1071.32526,221.575173 C1072.11217,221.83414 1072.54015,222.681992 1072.28118,223.468902 C1063.47254,250.23525 1044.57812,268.106787 1014.08927,282.147621 C1013.3368,282.49415 1012.44589,282.165072 1012.09936,281.412603 C1011.75283,280.660135 1012.08191,279.769221 1012.83438,279.422692 C1042.62998,265.701115 1060.91684,248.40425 1069.43153,222.531098 Z" id="Path-2"></path>
                <path d="M1012.21878,265.988546 C1013.04706,265.972973 1013.73114,266.631802 1013.74672,267.460083 C1013.78927,269.723279 1013.77977,271.805188 1013.72798,273.931867 L1013.68111,275.523911 C1013.63293,276.895813 1013.52986,279.488595 1013.51544,280.037281 L1013.50453,280.561567 C1013.4739,282.637734 1013.62806,283.382298 1013.95303,283.651723 C1014.36918,283.996742 1015.32295,284.172197 1018.1658,284.354337 L1020.63595,284.504653 C1025.50697,284.80934 1028.20388,285.067734 1032.82934,285.738169 C1033.6492,285.857003 1034.21749,286.617965 1034.09866,287.437824 C1033.97982,288.257684 1033.21886,288.825978 1032.399,288.707144 L1031.38113,288.561986 C1027.59523,288.0317 1025.05976,287.792984 1020.92293,287.528773 L1017.56989,287.322282 C1014.22904,287.099142 1013.11233,286.851671 1012.03829,285.961217 C1010.73494,284.880645 1010.44542,283.474029 1010.5087,280.293852 L1010.53494,279.398227 C1010.57509,278.270816 1010.66352,276.028553 1010.69525,275.057953 L1010.7,274.90837 C1010.77513,272.449256 1010.7959,270.104229 1010.74725,267.51648 C1010.73167,266.688199 1011.3905,266.00412 1012.21878,265.988546 Z" id="Path-5" transform="translate(1022.307488, 277.355563) rotate(11.000000) translate(-1022.307488, -277.355563) "></path>
                <path d="M936.60495,200.335938 L936.60495,187.315938 C937.26495,188.835938 937.93995,190.355938 938.62995,191.875938 C939.31995,193.395938 940.01495,194.915938 940.71495,196.435938 L940.71495,196.435938 L945.21495,196.435938 C945.89495,194.915938 946.56995,193.390938 947.23995,191.860938 C947.90995,190.330938 948.57495,188.785938 949.23495,187.225938 L949.23495,187.225938 L949.23495,200.335938 L954.69495,200.335938 L954.69495,178.885938 L947.73495,178.885938 C946.97495,180.905938 946.20495,182.900938 945.42495,184.870938 C944.64495,186.840938 943.85495,188.785938 943.05495,190.705938 C942.21495,188.765938 941.38995,186.805938 940.57995,184.825938 C939.76995,182.845938 938.97495,180.865938 938.19495,178.885938 L938.19495,178.885938 L931.14495,178.885938 L931.14495,200.335938 L936.60495,200.335938 Z M963.09495,200.335938 C963.51495,198.975938 963.92495,197.635938 964.32495,196.315938 L964.32495,196.315938 L972.15495,196.315938 C972.35495,196.975938 972.55995,197.640938 972.76995,198.310938 C972.97995,198.980938 973.18495,199.655938 973.38495,200.335938 L973.38495,200.335938 L979.71495,200.335938 C978.43495,196.755938 977.11495,193.175938 975.75495,189.595938 C974.39495,186.015938 972.99495,182.445938 971.55495,178.885938 L971.55495,178.885938 L965.10495,178.885938 C963.70495,182.265938 962.32495,185.745938 960.96495,189.325938 C959.60495,192.905938 958.26495,196.575938 956.94495,200.335938 L956.94495,200.335938 L963.09495,200.335938 Z M970.71495,191.755938 L965.76495,191.755938 C966.16495,190.515938 966.57495,189.280938 966.99495,188.050938 C967.41495,186.820938 967.83495,185.585938 968.25495,184.345938 C968.67495,185.565938 969.08995,186.790938 969.49995,188.020938 C969.90995,189.250938 970.31495,190.495938 970.71495,191.755938 L970.71495,191.755938 Z M987.63495,200.335938 L987.63495,193.105938 L990.57495,193.105938 C991.27495,194.285938 991.94995,195.480938 992.59995,196.690938 C993.24995,197.900938 993.89495,199.115938 994.53495,200.335938 L994.53495,200.335938 L1000.98495,200.335938 C1000.16495,198.875938 999.32995,197.445938 998.47995,196.045938 C997.62995,194.645938 996.76495,193.255938 995.88495,191.875938 C997.00495,191.275938 997.86995,190.475938 998.47995,189.475938 C999.08995,188.475938 999.39495,187.315938 999.39495,185.995938 C999.39495,183.695938 998.60495,181.935938 997.02495,180.715938 C995.44495,179.495938 993.16495,178.885938 990.18495,178.885938 L990.18495,178.885938 L981.96495,178.885938 L981.96495,200.335938 L987.63495,200.335938 Z M989.91495,188.605938 L987.63495,188.605938 L987.63495,183.385938 L989.91495,183.385938 C991.13495,183.385938 992.03495,183.600938 992.61495,184.030938 C993.19495,184.460938 993.48495,185.115938 993.48495,185.995938 C993.48495,186.855938 993.19495,187.505938 992.61495,187.945938 C992.03495,188.385938 991.13495,188.605938 989.91495,188.605938 L989.91495,188.605938 Z M1009.14495,200.335938 L1009.14495,191.485938 L1010.19495,191.485938 C1011.31495,192.985938 1012.39995,194.465938 1013.44995,195.925938 C1014.49995,197.385938 1015.54495,198.855938 1016.58495,200.335938 L1016.58495,200.335938 L1023.90495,200.335938 C1022.42495,198.375938 1020.95995,196.450938 1019.50995,194.560938 C1018.05995,192.670938 1016.59495,190.805938 1015.11495,188.965938 C1016.49495,187.285938 1017.84495,185.605938 1019.16495,183.925938 C1020.48495,182.245938 1021.78495,180.565938 1023.06495,178.885938 L1023.06495,178.885938 L1016.16495,178.885938 C1015.24495,180.185938 1014.30495,181.490938 1013.34495,182.800938 C1012.38495,184.110938 1011.37495,185.445938 1010.31495,186.805938 L1010.31495,186.805938 L1009.14495,186.805938 L1009.14495,178.885938 L1003.29495,178.885938 L1003.29495,200.335938 L1009.14495,200.335938 Z M1038.60495,200.335938 L1038.60495,191.665938 L1046.22495,191.665938 L1046.22495,200.335938 L1052.07495,200.335938 L1052.07495,178.885938 L1046.22495,178.885938 L1046.22495,186.625938 L1038.60495,186.625938 L1038.60495,178.885938 L1032.75495,178.885938 L1032.75495,200.335938 L1038.60495,200.335938 Z M1066.14495,200.785938 C1067.80495,200.785938 1069.30495,200.525938 1070.64495,200.005938 C1071.98495,199.485938 1073.12995,198.735938 1074.07995,197.755938 C1075.02995,196.775938 1075.75995,195.595938 1076.26995,194.215938 C1076.77995,192.835938 1077.03495,191.295938 1077.03495,189.595938 C1077.03495,187.875938 1076.77995,186.330938 1076.26995,184.960938 C1075.75995,183.590938 1075.02995,182.420938 1074.07995,181.450938 C1073.12995,180.480938 1071.98495,179.735938 1070.64495,179.215938 C1069.30495,178.695938 1067.80495,178.435938 1066.14495,178.435938 C1064.48495,178.435938 1062.98495,178.695938 1061.64495,179.215938 C1060.30495,179.735938 1059.15995,180.480938 1058.20995,181.450938 C1057.25995,182.420938 1056.52995,183.590938 1056.01995,184.960938 C1055.50995,186.330938 1055.25495,187.875938 1055.25495,189.595938 C1055.25495,191.295938 1055.50995,192.835938 1056.01995,194.215938 C1056.52995,195.595938 1057.25995,196.775938 1058.20995,197.755938 C1059.15995,198.735938 1060.30495,199.485938 1061.64495,200.005938 C1062.98495,200.525938 1064.48495,200.785938 1066.14495,200.785938 Z M1066.14495,195.745938 C1064.58495,195.745938 1063.38995,195.215938 1062.55995,194.155938 C1061.72995,193.095938 1061.31495,191.575938 1061.31495,189.595938 C1061.31495,187.635938 1061.72995,186.125938 1062.55995,185.065938 C1063.38995,184.005938 1064.58495,183.475938 1066.14495,183.475938 C1067.70495,183.475938 1068.89995,184.005938 1069.72995,185.065938 C1070.55995,186.125938 1070.97495,187.635938 1070.97495,189.595938 C1070.97495,191.575938 1070.55995,193.095938 1069.72995,194.155938 C1068.89995,195.215938 1067.70495,195.745938 1066.14495,195.745938 Z M1085.88495,200.335938 L1085.88495,193.525938 L1088.28495,193.525938 C1090.22495,193.525938 1091.86495,193.240938 1093.20495,192.670938 C1094.54495,192.100938 1095.56495,191.270938 1096.26495,190.180938 C1096.96495,189.090938 1097.31495,187.765938 1097.31495,186.205938 C1097.31495,183.845938 1096.53995,182.035938 1094.98995,180.775938 C1093.43995,179.515938 1091.20495,178.885938 1088.28495,178.885938 L1088.28495,178.885938 L1080.21495,178.885938 L1080.21495,200.335938 L1085.88495,200.335938 Z M1088.01495,189.025938 L1085.88495,189.025938 L1085.88495,183.385938 L1088.01495,183.385938 C1090.27495,183.385938 1091.40495,184.325938 1091.40495,186.205938 C1091.40495,188.085938 1090.27495,189.025938 1088.01495,189.025938 L1088.01495,189.025938 Z M1105.95495,200.335938 L1105.95495,193.525938 L1108.35495,193.525938 C1110.29495,193.525938 1111.93495,193.240938 1113.27495,192.670938 C1114.61495,192.100938 1115.63495,191.270938 1116.33495,190.180938 C1117.03495,189.090938 1117.38495,187.765938 1117.38495,186.205938 C1117.38495,183.845938 1116.60995,182.035938 1115.05995,180.775938 C1113.50995,179.515938 1111.27495,178.885938 1108.35495,178.885938 L1108.35495,178.885938 L1100.28495,178.885938 L1100.28495,200.335938 L1105.95495,200.335938 Z M1108.08495,189.025938 L1105.95495,189.025938 L1105.95495,183.385938 L1108.08495,183.385938 C1110.34495,183.385938 1111.47495,184.325938 1111.47495,186.205938 C1111.47495,188.085938 1110.34495,189.025938 1108.08495,189.025938 L1108.08495,189.025938 Z M1129.80495,200.785938 C1131.78495,200.785938 1133.47995,200.405938 1134.88995,199.645938 C1136.29995,198.885938 1137.37995,197.790938 1138.12995,196.360938 C1138.87995,194.930938 1139.25495,193.225938 1139.25495,191.245938 L1139.25495,191.245938 L1139.25495,178.885938 L1133.49495,178.885938 L1133.49495,191.905938 C1133.49495,193.125938 1133.17495,194.070938 1132.53495,194.740938 C1131.89495,195.410938 1130.98495,195.745938 1129.80495,195.745938 C1128.64495,195.745938 1127.73995,195.410938 1127.08995,194.740938 C1126.43995,194.070938 1126.11495,193.125938 1126.11495,191.905938 L1126.11495,191.905938 L1126.11495,178.885938 L1120.26495,178.885938 L1120.26495,191.245938 C1120.26495,193.225938 1120.64495,194.930938 1121.40495,196.360938 C1122.16495,197.790938 1123.25995,198.885938 1124.68995,199.645938 C1126.11995,200.405938 1127.82495,200.785938 1129.80495,200.785938 Z M1149.60495,200.785938 C1151.56495,200.785938 1153.22995,200.515938 1154.59995,199.975938 C1155.96995,199.435938 1157.01995,198.645938 1157.74995,197.605938 C1158.47995,196.565938 1158.84495,195.305938 1158.84495,193.825938 C1158.84495,192.705938 1158.66495,191.770938 1158.30495,191.020938 C1157.94495,190.270938 1157.43495,189.650938 1156.77495,189.160938 C1156.11495,188.670938 1155.33495,188.255938 1154.43495,187.915938 C1153.53495,187.575938 1152.53495,187.275938 1151.43495,187.015938 C1150.37495,186.755938 1149.55995,186.480938 1148.98995,186.190938 C1148.41995,185.900938 1148.13495,185.465938 1148.13495,184.885938 C1148.13495,184.325938 1148.40995,183.900938 1148.95995,183.610938 C1149.50995,183.320938 1150.28495,183.175938 1151.28495,183.175938 C1151.98495,183.175938 1152.70995,183.240938 1153.45995,183.370938 C1154.20995,183.500938 1154.95495,183.690938 1155.69495,183.940938 C1156.43495,184.190938 1157.13495,184.515938 1157.79495,184.915938 L1157.79495,184.915938 L1157.79495,179.905938 C1156.87495,179.445938 1155.84495,179.085938 1154.70495,178.825938 C1153.56495,178.565938 1152.40495,178.435938 1151.22495,178.435938 C1149.40495,178.435938 1147.82495,178.710938 1146.48495,179.260938 C1145.14495,179.810938 1144.11495,180.595938 1143.39495,181.615938 C1142.67495,182.635938 1142.31495,183.865938 1142.31495,185.305938 C1142.31495,186.245938 1142.45495,187.065938 1142.73495,187.765938 C1143.01495,188.465938 1143.45495,189.080938 1144.05495,189.610938 C1144.65495,190.140938 1145.43495,190.605938 1146.39495,191.005938 C1147.35495,191.405938 1148.51495,191.765938 1149.87495,192.085938 C1150.49495,192.225938 1151.03495,192.385938 1151.49495,192.565938 C1151.95495,192.745938 1152.31495,192.960938 1152.57495,193.210938 C1152.83495,193.460938 1152.96495,193.795938 1152.96495,194.215938 C1152.96495,194.795938 1152.67495,195.245938 1152.09495,195.565938 C1151.51495,195.885938 1150.65495,196.045938 1149.51495,196.045938 C1148.35495,196.045938 1147.18995,195.880938 1146.01995,195.550938 C1144.84995,195.220938 1143.70495,194.735938 1142.58495,194.095938 L1142.58495,194.095938 L1142.58495,199.165938 C1143.74495,199.725938 1144.89995,200.135938 1146.04995,200.395938 C1147.19995,200.655938 1148.38495,200.785938 1149.60495,200.785938 Z" id="MARKHOPPUS"></path>
            </g>
        </g>
    </g>
</svg>