<svg width="1200" height="677" viewBox="0 0 1200 677" xmlns="http://www.w3.org/2000/svg" xmlns:xlink="http://www.w3.org/1999/xlink"><title>blink-text-05</title><desc>Created with Sketch.</desc><g id="Assets" stroke="none" stroke-width="1" fill="none" fill-rule="evenodd"><g id="Blink" fill="#fff" fill-rule="nonzero"><g id="blink-text-05"><path d="M136.568 215.84C139.666667 215.84 142.466667 215.354667 144.968 214.384 147.469333 213.413333 149.606667 212.013333 151.38 210.184 153.153333 208.354667 154.516 206.152 155.468 203.576 156.42 201 156.896 198.125333 156.896 194.952 156.896 191.741333 156.42 188.857333 155.468 186.3 154.516 183.742667 153.153333 181.558667 151.38 179.748 149.606667 177.937333 147.469333 176.546667 144.968 175.576 142.466667 174.605333 139.666667 174.12 136.568 174.12 133.469333 174.12 130.669333 174.605333 128.168 175.576 125.666667 176.546667 123.529333 177.937333 121.756 179.748 119.982667 181.558667 118.62 183.742667 117.668 186.3 116.716 188.857333 116.24 191.741333 116.24 194.952 116.24 198.125333 116.716 201 117.668 203.576 118.62 206.152 119.982667 208.354667 121.756 210.184 123.529333 212.013333 125.666667 213.413333 128.168 214.384 130.669333 215.354667 133.469333 215.84 136.568 215.84zM136.568 206.432C133.656 206.432 131.425333 205.442667 129.876 203.464 128.326667 201.485333 127.552 198.648 127.552 194.952 127.552 191.293333 128.326667 188.474667 129.876 186.496 131.425333 184.517333 133.656 183.528 136.568 183.528 139.48 183.528 141.710667 184.517333 143.26 186.496 144.809333 188.474667 145.584 191.293333 145.584 194.952 145.584 198.648 144.809333 201.485333 143.26 203.464 141.710667 205.442667 139.48 206.432 136.568 206.432zM173.752 215V198.48H175.712C177.802667 201.28 179.828 204.042667 181.788 206.768 183.748 209.493333 185.698667 212.237333 187.64 215v0H201.304C198.541333 211.341333 195.806667 207.748 193.1 204.22 190.393333 200.692 187.658667 197.210667 184.896 193.776 187.472 190.64 189.992 187.504 192.456 184.368 194.92 181.232 197.346667 178.096 199.736 174.96v0H186.856C185.138667 177.386667 183.384 179.822667 181.592 182.268 179.8 184.713333 177.914667 187.205333 175.936 189.744v0H173.752V174.96H162.832V215H173.752zM213.624 215C214.408 212.461333 215.173333 209.96 215.92 207.496v0H230.536C230.909333 208.728 231.292 209.969333 231.684 211.22 232.076 212.470667 232.458667 213.730667 232.832 215v0H244.648C242.258667 208.317333 239.794667 201.634667 237.256 194.952 234.717333 188.269333 232.104 181.605333 229.416 174.96v0H217.376C214.762667 181.269333 212.186667 187.765333 209.648 194.448 207.109333 201.130667 204.608 207.981333 202.144 215v0H213.624zM227.848 198.984H218.608C219.354667 196.669333 220.12 194.364 220.904 192.068 221.688 189.772 222.472 187.466667 223.256 185.152 224.04 187.429333 224.814667 189.716 225.58 192.012 226.345333 194.308 227.101333 196.632 227.848 198.984v0zM271.64 215V200.16C274.216 195.978667 276.754667 191.788 279.256 187.588 281.757333 183.388 284.202667 179.178667 286.592 174.96v0H274.608C273.301333 177.610667 271.957333 180.270667 270.576 182.94 269.194667 185.609333 267.813333 188.269333 266.432 190.92 265.013333 188.269333 263.622667 185.618667 262.26 182.968 260.897333 180.317333 259.544 177.648 258.2 174.96v0H245.824C248.176 179.178667 250.602667 183.388 253.104 187.588 255.605333 191.788 258.144 195.978667 260.72 200.16v0V215H271.64zM295.888 223.4C296.970667 222.28 297.913333 221.038667 298.716 219.676 299.518667 218.313333 300.134667 216.913333 300.564 215.476 300.993333 214.038667 301.208 212.666667 301.208 211.36 301.208 209.12 300.722667 207.412 299.752 206.236 298.781333 205.06 297.306667 204.472 295.328 204.472 293.573333 204.472 292.173333 204.976 291.128 205.984 290.082667 206.992 289.56 208.317333 289.56 209.96 289.56 211.229333 289.886667 212.302667 290.54 213.18 291.193333 214.057333 292.08 214.664 293.2 215 292.453333 217.8 290.773333 220.6 288.16 223.4v0H295.888zM331.784 215.84C335.442667 215.84 338.550667 215.336 341.108 214.328 343.665333 213.32 345.625333 211.845333 346.988 209.904 348.350667 207.962667 349.032 205.610667 349.032 202.848 349.032 200.757333 348.696 199.012 348.024 197.612 347.352 196.212 346.4 195.054667 345.168 194.14 343.936 193.225333 342.48 192.450667 340.8 191.816 339.12 191.181333 337.253333 190.621333 335.2 190.136 333.221333 189.650667 331.7 189.137333 330.636 188.596 329.572 188.054667 329.04 187.242667 329.04 186.16 329.04 185.114667 329.553333 184.321333 330.58 183.78 331.606667 183.238667 333.053333 182.968 334.92 182.968 336.226667 182.968 337.58 183.089333 338.98 183.332 340.38 183.574667 341.770667 183.929333 343.152 184.396 344.533333 184.862667 345.84 185.469333 347.072 186.216v0V176.864C345.354667 176.005333 343.432 175.333333 341.304 174.848 339.176 174.362667 337.010667 174.12 334.808 174.12 331.410667 174.12 328.461333 174.633333 325.96 175.66 323.458667 176.686667 321.536 178.152 320.192 180.056 318.848 181.96 318.176 184.256 318.176 186.944 318.176 188.698667 318.437333 190.229333 318.96 191.536 319.482667 192.842667 320.304 193.990667 321.424 194.98 322.544 195.969333 324 196.837333 325.792 197.584 327.584 198.330667 329.749333 199.002667 332.288 199.6 333.445333 199.861333 334.453333 200.16 335.312 200.496 336.170667 200.832 336.842667 201.233333 337.328 201.7 337.813333 202.166667 338.056 202.792 338.056 203.576 338.056 204.658667 337.514667 205.498667 336.432 206.096 335.349333 206.693333 333.744 206.992 331.616 206.992 329.450667 206.992 327.276 206.684 325.092 206.068 322.908 205.452 320.770667 204.546667 318.68 203.352v0V212.816C320.845333 213.861333 323.001333 214.626667 325.148 215.112 327.294667 215.597333 329.506667 215.84 331.784 215.84zM373.616 215.84C376.714667 215.84 379.514667 215.354667 382.016 214.384 384.517333 213.413333 386.654667 212.013333 388.428 210.184 390.201333 208.354667 391.564 206.152 392.516 203.576 393.468 201 393.944 198.125333 393.944 194.952 393.944 191.741333 393.468 188.857333 392.516 186.3 391.564 183.742667 390.201333 181.558667 388.428 179.748 386.654667 177.937333 384.517333 176.546667 382.016 175.576 379.514667 174.605333 376.714667 174.12 373.616 174.12 370.517333 174.12 367.717333 174.605333 365.216 175.576 362.714667 176.546667 360.577333 177.937333 358.804 179.748 357.030667 181.558667 355.668 183.742667 354.716 186.3 353.764 188.857333 353.288 191.741333 353.288 194.952 353.288 198.125333 353.764 201 354.716 203.576 355.668 206.152 357.030667 208.354667 358.804 210.184 360.577333 212.013333 362.714667 213.413333 365.216 214.384 367.717333 215.354667 370.517333 215.84 373.616 215.84zM373.616 206.432C370.704 206.432 368.473333 205.442667 366.924 203.464 365.374667 201.485333 364.6 198.648 364.6 194.952 364.6 191.293333 365.374667 188.474667 366.924 186.496 368.473333 184.517333 370.704 183.528 373.616 183.528 376.528 183.528 378.758667 184.517333 380.308 186.496 381.857333 188.474667 382.632 191.293333 382.632 194.952 382.632 198.648 381.857333 201.485333 380.308 203.464 378.758667 205.442667 376.528 206.432 373.616 206.432zM435.16 215V200.16C437.736 195.978667 440.274667 191.788 442.776 187.588 445.277333 183.388 447.722667 179.178667 450.112 174.96v0H438.128C436.821333 177.610667 435.477333 180.270667 434.096 182.94 432.714667 185.609333 431.333333 188.269333 429.952 190.92 428.533333 188.269333 427.142667 185.618667 425.78 182.968 424.417333 180.317333 423.064 177.648 421.72 174.96v0H409.344C411.696 179.178667 414.122667 183.388 416.624 187.588 419.125333 191.788 421.664 195.978667 424.24 200.16v0V215H435.16zM473.352 215.84C476.450667 215.84 479.250667 215.354667 481.752 214.384 484.253333 213.413333 486.390667 212.013333 488.164 210.184 489.937333 208.354667 491.3 206.152 492.252 203.576 493.204 201 493.68 198.125333 493.68 194.952 493.68 191.741333 493.204 188.857333 492.252 186.3 491.3 183.742667 489.937333 181.558667 488.164 179.748 486.390667 177.937333 484.253333 176.546667 481.752 175.576 479.250667 174.605333 476.450667 174.12 473.352 174.12 470.253333 174.12 467.453333 174.605333 464.952 175.576 462.450667 176.546667 460.313333 177.937333 458.54 179.748 456.766667 181.558667 455.404 183.742667 454.452 186.3 453.5 188.857333 453.024 191.741333 453.024 194.952 453.024 198.125333 453.5 201 454.452 203.576 455.404 206.152 456.766667 208.354667 458.54 210.184 460.313333 212.013333 462.450667 213.413333 464.952 214.384 467.453333 215.354667 470.253333 215.84 473.352 215.84zM473.352 206.432C470.44 206.432 468.209333 205.442667 466.66 203.464 465.110667 201.485333 464.336 198.648 464.336 194.952 464.336 191.293333 465.110667 188.474667 466.66 186.496 468.209333 184.517333 470.44 183.528 473.352 183.528 476.264 183.528 478.494667 184.517333 480.044 186.496 481.593333 188.474667 482.368 191.293333 482.368 194.952 482.368 198.648 481.593333 201.485333 480.044 203.464 478.494667 205.442667 476.264 206.432 473.352 206.432zM517.256 215.84C520.952 215.84 524.116 215.130667 526.748 213.712 529.38 212.293333 531.396 210.249333 532.796 207.58 534.196 204.910667 534.896 201.728 534.896 198.032v0V174.96H524.144V199.264C524.144 201.541333 523.546667 203.305333 522.352 204.556 521.157333 205.806667 519.458667 206.432 517.256 206.432 515.090667 206.432 513.401333 205.806667 512.188 204.556 510.974667 203.305333 510.368 201.541333 510.368 199.264v0V174.96H499.448V198.032C499.448 201.728 500.157333 204.910667 501.576 207.58 502.994667 210.249333 505.038667 212.293333 507.708 213.712 510.377333 215.130667 513.56 215.84 517.256 215.84zM546.88 191.704C547.888 190.696 548.756 189.585333 549.484 188.372 550.212 187.158667 550.781333 185.889333 551.192 184.564 551.602667 183.238667 551.808 181.978667 551.808 180.784 551.808 178.768 551.36 177.228 550.464 176.164 549.568 175.1 548.205333 174.568 546.376 174.568 544.808 174.568 543.566667 175.025333 542.652 175.94 541.737333 176.854667 541.28 178.058667 541.28 179.552 541.28 180.709333 541.578667 181.68 542.176 182.464 542.773333 183.248 543.594667 183.789333 544.64 184.088 543.930667 186.626667 542.344 189.165333 539.88 191.704v0h7zM568.944 215V201.504H574.432C575.738667 203.706667 576.998667 205.937333 578.212 208.196 579.425333 210.454667 580.629333 212.722667 581.824 215v0H593.864C592.333333 212.274667 590.774667 209.605333 589.188 206.992 587.601333 204.378667 585.986667 201.784 584.344 199.208 586.434667 198.088 588.049333 196.594667 589.188 194.728 590.326667 192.861333 590.896 190.696 590.896 188.232 590.896 183.938667 589.421333 180.653333 586.472 178.376 583.522667 176.098667 579.266667 174.96 573.704 174.96v0H558.36V215H568.944zM573.2 193.104H568.944V183.36H573.2C575.477333 183.36 577.157333 183.761333 578.24 184.564 579.322667 185.366667 579.864 186.589333 579.864 188.232 579.864 189.837333 579.322667 191.050667 578.24 191.872 577.157333 192.693333 575.477333 193.104 573.2 193.104v0zM627.912 215V206.264H608.816V198.984H624.608V190.248H608.816V183.696H626.848V174.96H598.176V215H627.912zM128.616 277V236.96H117.696V277H128.616zM146.424 277V252.696C148.850667 256.578667 151.324 260.582667 153.844 264.708 156.364 268.833333 158.818667 272.930667 161.208 277v0H172.184V236.96H161.768V260.816C159.341333 256.746667 156.896 252.714667 154.432 248.72 151.968 244.725333 149.485333 240.805333 146.984 236.96v0H136.008V277H146.424zM214.856 277V262.16C217.432 257.978667 219.970667 253.788 222.472 249.588 224.973333 245.388 227.418667 241.178667 229.808 236.96v0H217.824C216.517333 239.610667 215.173333 242.270667 213.792 244.94 212.410667 247.609333 211.029333 250.269333 209.648 252.92 208.229333 250.269333 206.838667 247.618667 205.476 244.968 204.113333 242.317333 202.76 239.648 201.416 236.96v0H189.04C191.392 241.178667 193.818667 245.388 196.32 249.588 198.821333 253.788 201.36 257.978667 203.936 262.16v0V277H214.856zM253.048 277.84C256.146667 277.84 258.946667 277.354667 261.448 276.384 263.949333 275.413333 266.086667 274.013333 267.86 272.184 269.633333 270.354667 270.996 268.152 271.948 265.576 272.9 263 273.376 260.125333 273.376 256.952 273.376 253.741333 272.9 250.857333 271.948 248.3 270.996 245.742667 269.633333 243.558667 267.86 241.748 266.086667 239.937333 263.949333 238.546667 261.448 237.576 258.946667 236.605333 256.146667 236.12 253.048 236.12 249.949333 236.12 247.149333 236.605333 244.648 237.576 242.146667 238.546667 240.009333 239.937333 238.236 241.748 236.462667 243.558667 235.1 245.742667 234.148 248.3 233.196 250.857333 232.72 253.741333 232.72 256.952 232.72 260.125333 233.196 263 234.148 265.576 235.1 268.152 236.462667 270.354667 238.236 272.184 240.009333 274.013333 242.146667 275.413333 244.648 276.384 247.149333 277.354667 249.949333 277.84 253.048 277.84zM253.048 268.432C250.136 268.432 247.905333 267.442667 246.356 265.464 244.806667 263.485333 244.032 260.648 244.032 256.952 244.032 253.293333 244.806667 250.474667 246.356 248.496 247.905333 246.517333 250.136 245.528 253.048 245.528 255.96 245.528 258.190667 246.517333 259.74 248.496 261.289333 250.474667 262.064 253.293333 262.064 256.952 262.064 260.648 261.289333 263.485333 259.74 265.464 258.190667 267.442667 255.96 268.432 253.048 268.432zM296.952 277.84C300.648 277.84 303.812 277.130667 306.444 275.712 309.076 274.293333 311.092 272.249333 312.492 269.58 313.892 266.910667 314.592 263.728 314.592 260.032v0V236.96H303.84V261.264C303.84 263.541333 303.242667 265.305333 302.048 266.556 300.853333 267.806667 299.154667 268.432 296.952 268.432 294.786667 268.432 293.097333 267.806667 291.884 266.556 290.670667 265.305333 290.064 263.541333 290.064 261.264v0V236.96H279.144V260.032C279.144 263.728 279.853333 266.910667 281.272 269.58 282.690667 272.249333 284.734667 274.293333 287.404 275.712 290.073333 277.130667 293.256 277.84 296.952 277.84zM332.4 277V263.504H337.888C339.194667 265.706667 340.454667 267.937333 341.668 270.196 342.881333 272.454667 344.085333 274.722667 345.28 277v0H357.32C355.789333 274.274667 354.230667 271.605333 352.644 268.992 351.057333 266.378667 349.442667 263.784 347.8 261.208 349.890667 260.088 351.505333 258.594667 352.644 256.728 353.782667 254.861333 354.352 252.696 354.352 250.232 354.352 245.938667 352.877333 242.653333 349.928 240.376 346.978667 238.098667 342.722667 236.96 337.16 236.96v0H321.816V277H332.4zM336.656 255.104H332.4V245.36H336.656C338.933333 245.36 340.613333 245.761333 341.696 246.564 342.778667 247.366667 343.32 248.589333 343.32 250.232 343.32 251.837333 342.778667 253.050667 341.696 253.872 340.613333 254.693333 338.933333 255.104 336.656 255.104v0zM384.872 277V262.552H399.824V253.424H384.872V246.088H401.952V236.96H374.12V277H384.872zM425.864 277.84C428.962667 277.84 431.762667 277.354667 434.264 276.384 436.765333 275.413333 438.902667 274.013333 440.676 272.184 442.449333 270.354667 443.812 268.152 444.764 265.576 445.716 263 446.192 260.125333 446.192 256.952 446.192 253.741333 445.716 250.857333 444.764 248.3 443.812 245.742667 442.449333 243.558667 440.676 241.748 438.902667 239.937333 436.765333 238.546667 434.264 237.576 431.762667 236.605333 428.962667 236.12 425.864 236.12 422.765333 236.12 419.965333 236.605333 417.464 237.576 414.962667 238.546667 412.825333 239.937333 411.052 241.748 409.278667 243.558667 407.916 245.742667 406.964 248.3 406.012 250.857333 405.536 253.741333 405.536 256.952 405.536 260.125333 406.012 263 406.964 265.576 407.916 268.152 409.278667 270.354667 411.052 272.184 412.825333 274.013333 414.962667 275.413333 417.464 276.384 419.965333 277.354667 422.765333 277.84 425.864 277.84zM425.864 268.432C422.952 268.432 420.721333 267.442667 419.172 265.464 417.622667 263.485333 416.848 260.648 416.848 256.952 416.848 253.293333 417.622667 250.474667 419.172 248.496 420.721333 246.517333 422.952 245.528 425.864 245.528 428.776 245.528 431.006667 246.517333 432.556 248.496 434.105333 250.474667 434.88 253.293333 434.88 256.952 434.88 260.648 434.105333 263.485333 432.556 265.464 431.006667 267.442667 428.776 268.432 425.864 268.432zM462.712 277V263.504H468.2C469.506667 265.706667 470.766667 267.937333 471.98 270.196 473.193333 272.454667 474.397333 274.722667 475.592 277v0H487.632C486.101333 274.274667 484.542667 271.605333 482.956 268.992 481.369333 266.378667 479.754667 263.784 478.112 261.208 480.202667 260.088 481.817333 258.594667 482.956 256.728 484.094667 254.861333 484.664 252.696 484.664 250.232 484.664 245.938667 483.189333 242.653333 480.24 240.376 477.290667 238.098667 473.034667 236.96 467.472 236.96v0H452.128V277H462.712zM466.968 255.104H462.712V245.36H466.968C469.245333 245.36 470.925333 245.761333 472.008 246.564 473.090667 247.366667 473.632 248.589333 473.632 250.232 473.632 251.837333 473.090667 253.050667 472.008 253.872 470.925333 254.693333 469.245333 255.104 466.968 255.104v0zM511.936 277V246.368H523.92V236.96H489.032V246.368H501.016V277H511.936zM539.32 277V236.96H528.4V277H539.32zM576.448 277V268.264H557.352V260.984H573.144V252.248H557.352V245.696H575.384V236.96H546.712V277H576.448zM593.808 277.84C597.466667 277.84 600.574667 277.336 603.132 276.328 605.689333 275.32 607.649333 273.845333 609.012 271.904 610.374667 269.962667 611.056 267.610667 611.056 264.848 611.056 262.757333 610.72 261.012 610.048 259.612 609.376 258.212 608.424 257.054667 607.192 256.14 605.96 255.225333 604.504 254.450667 602.824 253.816 601.144 253.181333 599.277333 252.621333 597.224 252.136 595.245333 251.650667 593.724 251.137333 592.66 250.596 591.596 250.054667 591.064 249.242667 591.064 248.16 591.064 247.114667 591.577333 246.321333 592.604 245.78 593.630667 245.238667 595.077333 244.968 596.944 244.968 598.250667 244.968 599.604 245.089333 601.004 245.332 602.404 245.574667 603.794667 245.929333 605.176 246.396 606.557333 246.862667 607.864 247.469333 609.096 248.216v0V238.864C607.378667 238.005333 605.456 237.333333 603.328 236.848 601.2 236.362667 599.034667 236.12 596.832 236.12 593.434667 236.12 590.485333 236.633333 587.984 237.66 585.482667 238.686667 583.56 240.152 582.216 242.056 580.872 243.96 580.2 246.256 580.2 248.944 580.2 250.698667 580.461333 252.229333 580.984 253.536 581.506667 254.842667 582.328 255.990667 583.448 256.98 584.568 257.969333 586.024 258.837333 587.816 259.584 589.608 260.330667 591.773333 261.002667 594.312 261.6 595.469333 261.861333 596.477333 262.16 597.336 262.496 598.194667 262.832 598.866667 263.233333 599.352 263.7 599.837333 264.166667 600.08 264.792 600.08 265.576 600.08 266.658667 599.538667 267.498667 598.456 268.096 597.373333 268.693333 595.768 268.992 593.64 268.992 591.474667 268.992 589.3 268.684 587.116 268.068 584.932 267.452 582.794667 266.546667 580.704 265.352v0V274.816C582.869333 275.861333 585.025333 276.626667 587.172 277.112 589.318667 277.597333 591.530667 277.84 593.808 277.84z" id="OKAY,SOYOU’REINYOURFORTIES"/></g></g></g></svg>