<svg width="1200" height="677" viewBox="0 0 1200 677" xmlns="http://www.w3.org/2000/svg" xmlns:xlink="http://www.w3.org/1999/xlink"><title>blink-text-10</title><desc>Created with Sketch.</desc><g id="Assets" stroke="none" stroke-width="1" fill="none" fill-rule="evenodd"><g id="Blink" transform="translate(0.000000, -1.000000)" fill="#fff" fill-rule="nonzero"><g id="blink-text-10" transform="translate(0.000000, 1.000000)"><path d="M135.056 259C138.416 259 141.3 258.533333 143.708 257.6 146.116 256.666667 147.964 255.322667 149.252 253.568 150.54 251.813333 151.184 249.722667 151.184 247.296 151.184 244.944 150.586667 242.937333 149.392 241.276 148.197333 239.614667 146.48 238.373333 144.24 237.552 147.413333 235.797333 149 233.128 149 229.544 149 226.109333 147.712 223.486667 145.136 221.676 142.56 219.865333 138.882667 218.96 134.104 218.96v0H117.696V259H135.056zM133.04 234.864H128.112V227.024H133.04C136.624 227.024 138.416 228.274667 138.416 230.776 138.416 232.045333 137.958667 233.044 137.044 233.772 136.129333 234.5 134.794667 234.864 133.04 234.864v0zM134.048 250.936H128.112V242.592H134.104C138.36 242.592 140.488 244.010667 140.488 246.848 140.488 248.154667 139.937333 249.162667 138.836 249.872 137.734667 250.581333 136.138667 250.936 134.048 250.936v0zM174.48 259.84C178.176 259.84 181.34 259.130667 183.972 257.712 186.604 256.293333 188.62 254.249333 190.02 251.58 191.42 248.910667 192.12 245.728 192.12 242.032v0V218.96H181.368V243.264C181.368 245.541333 180.770667 247.305333 179.576 248.556 178.381333 249.806667 176.682667 250.432 174.48 250.432 172.314667 250.432 170.625333 249.806667 169.412 248.556 168.198667 247.305333 167.592 245.541333 167.592 243.264v0V218.96H156.672V242.032C156.672 245.728 157.381333 248.910667 158.8 251.58 160.218667 254.249333 162.262667 256.293333 164.932 257.712 167.601333 259.130667 170.784 259.84 174.48 259.84zM219.336 259V228.368H231.32V218.96H196.432V228.368H208.416V259H219.336zM268 259.84C269.792 259.84 271.593333 259.728 273.404 259.504 275.214667 259.28 276.96 258.934667 278.64 258.468 280.32 258.001333 281.813333 257.450667 283.12 256.816v0V235.928H267.496V243.992H273.32V249.984C272.610667 250.170667 271.873333 250.310667 271.108 250.404 270.342667 250.497333 269.586667 250.544 268.84 250.544 265.330667 250.544 262.670667 249.564 260.86 247.604 259.049333 245.644 258.144 242.76 258.144 238.952 258.144 235.293333 259.18 232.474667 261.252 230.496 263.324 228.517333 266.282667 227.528 270.128 227.528 272.48 227.528 274.636 227.78 276.596 228.284 278.556 228.788 280.376 229.506667 282.056 230.44v0V220.584C278.136 218.941333 273.693333 218.12 268.728 218.12 265.442667 218.12 262.456 218.614667 259.768 219.604 257.08 220.593333 254.765333 222.002667 252.824 223.832 250.882667 225.661333 249.398667 227.854667 248.372 230.412 247.345333 232.969333 246.832 235.816 246.832 238.952 246.832 242.2 247.317333 245.112 248.288 247.688 249.258667 250.264 250.658667 252.457333 252.488 254.268 254.317333 256.078667 256.538667 257.46 259.152 258.412 261.765333 259.364 264.714667 259.84 268 259.84zM300.312 259V245.504H305.8C307.106667 247.706667 308.366667 249.937333 309.58 252.196 310.793333 254.454667 311.997333 256.722667 313.192 259v0H325.232C323.701333 256.274667 322.142667 253.605333 320.556 250.992 318.969333 248.378667 317.354667 245.784 315.712 243.208 317.802667 242.088 319.417333 240.594667 320.556 238.728 321.694667 236.861333 322.264 234.696 322.264 232.232 322.264 227.938667 320.789333 224.653333 317.84 222.376 314.890667 220.098667 310.634667 218.96 305.072 218.96v0H289.728V259H300.312zM304.568 237.104H300.312V227.36H304.568C306.845333 227.36 308.525333 227.761333 309.608 228.564 310.690667 229.366667 311.232 230.589333 311.232 232.232 311.232 233.837333 310.690667 235.050667 309.608 235.872 308.525333 236.693333 306.845333 237.104 304.568 237.104v0zM359.28 259V250.264H340.184V242.984H355.976V234.248H340.184V227.696H358.216V218.96H329.544V259H359.28zM372.832 259C373.616 256.461333 374.381333 253.96 375.128 251.496v0H389.744C390.117333 252.728 390.5 253.969333 390.892 255.22 391.284 256.470667 391.666667 257.730667 392.04 259v0H403.856C401.466667 252.317333 399.002667 245.634667 396.464 238.952 393.925333 232.269333 391.312 225.605333 388.624 218.96v0H376.584C373.970667 225.269333 371.394667 231.765333 368.856 238.448 366.317333 245.130667 363.816 251.981333 361.352 259v0H372.832zM387.056 242.984H377.816C378.562667 240.669333 379.328 238.364 380.112 236.068 380.896 233.772 381.68 231.466667 382.464 229.152 383.248 231.429333 384.022667 233.716 384.788 236.012 385.553333 238.308 386.309333 240.632 387.056 242.984v0zM428.048 259V228.368H440.032V218.96H405.144V228.368H417.128V259H428.048zM473.24 259V249.592H455.432V218.96H444.512V259H473.24zM500.512 259V244.16C503.088 239.978667 505.626667 235.788 508.128 231.588 510.629333 227.388 513.074667 223.178667 515.464 218.96v0H503.48C502.173333 221.610667 500.829333 224.270667 499.448 226.94 498.066667 229.609333 496.685333 232.269333 495.304 234.92 493.885333 232.269333 492.494667 229.618667 491.132 226.968 489.769333 224.317333 488.416 221.648 487.072 218.96v0H474.696C477.048 223.178667 479.474667 227.388 481.976 231.588 484.477333 235.788 487.016 239.978667 489.592 244.16v0V259H500.512zm-366.52 62C138.248 321 141.878667 320.206667 144.884 318.62 147.889333 317.033333 150.185333 314.746667 151.772 311.76 153.358667 308.773333 154.152 305.152 154.152 300.896 154.152 296.677333 153.358667 293.084 151.772 290.116 150.185333 287.148 147.889333 284.88 144.884 283.312 141.878667 281.744 138.266667 280.96 134.048 280.96v0H117.696V321H133.992zM133.488 311.704H128.616V290.256H133.544C136.605333 290.256 138.92 291.161333 140.488 292.972 142.056 294.782667 142.84 297.424 142.84 300.896 142.84 304.405333 142.046667 307.084 140.46 308.932 138.873333 310.78 136.549333 311.704 133.488 311.704v0zM171.008 321V280.96H160.088V321H171.008zM190.496 321.84C194.154667 321.84 197.262667 321.336 199.82 320.328 202.377333 319.32 204.337333 317.845333 205.7 315.904 207.062667 313.962667 207.744 311.610667 207.744 308.848 207.744 306.757333 207.408 305.012 206.736 303.612 206.064 302.212 205.112 301.054667 203.88 300.14 202.648 299.225333 201.192 298.450667 199.512 297.816 197.832 297.181333 195.965333 296.621333 193.912 296.136 191.933333 295.650667 190.412 295.137333 189.348 294.596 188.284 294.054667 187.752 293.242667 187.752 292.16 187.752 291.114667 188.265333 290.321333 189.292 289.78 190.318667 289.238667 191.765333 288.968 193.632 288.968 194.938667 288.968 196.292 289.089333 197.692 289.332 199.092 289.574667 200.482667 289.929333 201.864 290.396 203.245333 290.862667 204.552 291.469333 205.784 292.216v0V282.864C204.066667 282.005333 202.144 281.333333 200.016 280.848 197.888 280.362667 195.722667 280.12 193.52 280.12 190.122667 280.12 187.173333 280.633333 184.672 281.66 182.170667 282.686667 180.248 284.152 178.904 286.056 177.56 287.96 176.888 290.256 176.888 292.944 176.888 294.698667 177.149333 296.229333 177.672 297.536 178.194667 298.842667 179.016 299.990667 180.136 300.98 181.256 301.969333 182.712 302.837333 184.504 303.584 186.296 304.330667 188.461333 305.002667 191 305.6 192.157333 305.861333 193.165333 306.16 194.024 306.496 194.882667 306.832 195.554667 307.233333 196.04 307.7 196.525333 308.166667 196.768 308.792 196.768 309.576 196.768 310.658667 196.226667 311.498667 195.144 312.096 194.061333 312.693333 192.456 312.992 190.328 312.992 188.162667 312.992 185.988 312.684 183.804 312.068 181.62 311.452 179.482667 310.546667 177.392 309.352v0V318.816C179.557333 319.861333 181.713333 320.626667 183.86 321.112 186.006667 321.597333 188.218667 321.84 190.496 321.84zM221.744 321C222.528 318.461333 223.293333 315.96 224.04 313.496v0H238.656C239.029333 314.728 239.412 315.969333 239.804 317.22 240.196 318.470667 240.578667 319.730667 240.952 321v0H252.768C250.378667 314.317333 247.914667 307.634667 245.376 300.952 242.837333 294.269333 240.224 287.605333 237.536 280.96v0H225.496C222.882667 287.269333 220.306667 293.765333 217.768 300.448 215.229333 307.130667 212.728 313.981333 210.264 321v0H221.744zM235.968 304.984H226.728C227.474667 302.669333 228.24 300.364 229.024 298.068 229.808 295.772 230.592 293.466667 231.376 291.152 232.16 293.429333 232.934667 295.716 233.7 298.012 234.465333 300.308 235.221333 302.632 235.968 304.984v0zM267.552 321V308.288H272.032C275.653333 308.288 278.714667 307.756 281.216 306.692 283.717333 305.628 285.621333 304.078667 286.928 302.044 288.234667 300.009333 288.888 297.536 288.888 294.624 288.888 290.218667 287.441333 286.84 284.548 284.488 281.654667 282.136 277.482667 280.96 272.032 280.96v0H256.968V321H267.552zM271.528 299.888H267.552V289.36H271.528C275.746667 289.36 277.856 291.114667 277.856 294.624 277.856 298.133333 275.746667 299.888 271.528 299.888v0zM305.016 321V308.288H309.496C313.117333 308.288 316.178667 307.756 318.68 306.692 321.181333 305.628 323.085333 304.078667 324.392 302.044 325.698667 300.009333 326.352 297.536 326.352 294.624 326.352 290.218667 324.905333 286.84 322.012 284.488 319.118667 282.136 314.946667 280.96 309.496 280.96v0H294.432V321H305.016zM308.992 299.888H305.016V289.36H308.992C313.210667 289.36 315.32 291.114667 315.32 294.624 315.32 298.133333 313.210667 299.888 308.992 299.888v0zM350.768 321.84C353.866667 321.84 356.666667 321.354667 359.168 320.384 361.669333 319.413333 363.806667 318.013333 365.58 316.184 367.353333 314.354667 368.716 312.152 369.668 309.576 370.62 307 371.096 304.125333 371.096 300.952 371.096 297.741333 370.62 294.857333 369.668 292.3 368.716 289.742667 367.353333 287.558667 365.58 285.748 363.806667 283.937333 361.669333 282.546667 359.168 281.576 356.666667 280.605333 353.866667 280.12 350.768 280.12 347.669333 280.12 344.869333 280.605333 342.368 281.576 339.866667 282.546667 337.729333 283.937333 335.956 285.748 334.182667 287.558667 332.82 289.742667 331.868 292.3 330.916 294.857333 330.44 297.741333 330.44 300.952 330.44 304.125333 330.916 307 331.868 309.576 332.82 312.152 334.182667 314.354667 335.956 316.184 337.729333 318.013333 339.866667 319.413333 342.368 320.384 344.869333 321.354667 347.669333 321.84 350.768 321.84zM350.768 312.432C347.856 312.432 345.625333 311.442667 344.076 309.464 342.526667 307.485333 341.752 304.648 341.752 300.952 341.752 297.293333 342.526667 294.474667 344.076 292.496 345.625333 290.517333 347.856 289.528 350.768 289.528 353.68 289.528 355.910667 290.517333 357.46 292.496 359.009333 294.474667 359.784 297.293333 359.784 300.952 359.784 304.648 359.009333 307.485333 357.46 309.464 355.910667 311.442667 353.68 312.432 350.768 312.432zM387.952 321V280.96H377.032V321H387.952zM405.76 321V296.696C408.186667 300.578667 410.66 304.582667 413.18 308.708 415.7 312.833333 418.154667 316.930667 420.544 321v0H431.52V280.96H421.104V304.816C418.677333 300.746667 416.232 296.714667 413.768 292.72 411.304 288.725333 408.821333 284.805333 406.32 280.96v0H395.344V321H405.76zM458.904 321V290.368H470.888V280.96H436V290.368H447.984V321H458.904zM486.288 321V280.96H475.368V321H486.288zM504.096 321V296.696C506.522667 300.578667 508.996 304.582667 511.516 308.708 514.036 312.833333 516.490667 316.930667 518.88 321v0H529.856V280.96H519.44V304.816C517.013333 300.746667 514.568 296.714667 512.104 292.72 509.64 288.725333 507.157333 284.805333 504.656 280.96v0H493.68V321H504.096zM556.96 321.84C558.752 321.84 560.553333 321.728 562.364 321.504 564.174667 321.28 565.92 320.934667 567.6 320.468 569.28 320.001333 570.773333 319.450667 572.08 318.816v0V297.928H556.456V305.992H562.28V311.984C561.570667 312.170667 560.833333 312.310667 560.068 312.404 559.302667 312.497333 558.546667 312.544 557.8 312.544 554.290667 312.544 551.630667 311.564 549.82 309.604 548.009333 307.644 547.104 304.76 547.104 300.952 547.104 297.293333 548.14 294.474667 550.212 292.496 552.284 290.517333 555.242667 289.528 559.088 289.528 561.44 289.528 563.596 289.78 565.556 290.284 567.516 290.788 569.336 291.506667 571.016 292.44v0V282.584C567.096 280.941333 562.653333 280.12 557.688 280.12 554.402667 280.12 551.416 280.614667 548.728 281.604 546.04 282.593333 543.725333 284.002667 541.784 285.832 539.842667 287.661333 538.358667 289.854667 537.332 292.412 536.305333 294.969333 535.792 297.816 535.792 300.952 535.792 304.2 536.277333 307.112 537.248 309.688 538.218667 312.264 539.618667 314.457333 541.448 316.268 543.277333 318.078667 545.498667 319.46 548.112 320.412 550.725333 321.364 553.674667 321.84 556.96 321.84z" id="BUTGREATLYDISAPPOINTING"/></g></g></g></svg>