<svg width="1200" height="677" viewBox="0 0 1200 677" xmlns="http://www.w3.org/2000/svg" xmlns:xlink="http://www.w3.org/1999/xlink"><title>blink-text-03</title><desc>Created with Sketch.</desc><g id="Assets" stroke="none" stroke-width="1" fill="none" fill-rule="evenodd"><g id="Blink" fill="#fff" fill-rule="nonzero"><g id="blink-text-03"><path d="M136.176 199C137.258667 194.893333 138.304 190.777333 139.312 186.652 140.32 182.526667 141.328 178.392 142.336 174.248 143.306667 178.392 144.314667 182.526667 145.36 186.652 146.405333 190.777333 147.469333 194.893333 148.552 199v0H159.864C161.730667 192.466667 163.513333 185.858667 165.212 179.176 166.910667 172.493333 168.506667 165.754667 170 158.96v0H158.52C157.810667 163.626667 157.054667 168.293333 156.252 172.96 155.449333 177.626667 154.6 182.237333 153.704 186.792 152.696 182.461333 151.697333 178.121333 150.708 173.772 149.718667 169.422667 148.757333 165.045333 147.824 160.64v0H137.352C136.418667 165.12 135.448 169.609333 134.44 174.108 133.432 178.606667 132.386667 183.114667 131.304 187.632 130.408 182.965333 129.549333 178.224 128.728 173.408 127.906667 168.592 127.141333 163.776 126.432 158.96v0H114.728C116.258667 165.754667 117.873333 172.493333 119.572 179.176 121.270667 185.858667 123.034667 192.466667 124.864 199v0H136.176zM185.344 199V182.816H199.568V199H210.488V158.96H199.568V173.408H185.344V158.96H174.424V199H185.344zM226.168 199C226.952 196.461333 227.717333 193.96 228.464 191.496v0H243.08C243.453333 192.728 243.836 193.969333 244.228 195.22 244.62 196.470667 245.002667 197.730667 245.376 199v0H257.192C254.802667 192.317333 252.338667 185.634667 249.8 178.952 247.261333 172.269333 244.648 165.605333 241.96 158.96v0H229.92C227.306667 165.269333 224.730667 171.765333 222.192 178.448 219.653333 185.130667 217.152 191.981333 214.688 199v0H226.168zM240.392 182.984H231.152C231.898667 180.669333 232.664 178.364 233.448 176.068 234.232 173.772 235.016 171.466667 235.8 169.152 236.584 171.429333 237.358667 173.716 238.124 176.012 238.889333 178.308 239.645333 180.632 240.392 182.984v0zM281.384 199V168.368H293.368V158.96H258.48V168.368H270.464V199H281.384zM328.816 199C329.898667 194.893333 330.944 190.777333 331.952 186.652 332.96 182.526667 333.968 178.392 334.976 174.248 335.946667 178.392 336.954667 182.526667 338 186.652 339.045333 190.777333 340.109333 194.893333 341.192 199v0H352.504C354.370667 192.466667 356.153333 185.858667 357.852 179.176 359.550667 172.493333 361.146667 165.754667 362.64 158.96v0H351.16C350.450667 163.626667 349.694667 168.293333 348.892 172.96 348.089333 177.626667 347.24 182.237333 346.344 186.792 345.336 182.461333 344.337333 178.121333 343.348 173.772 342.358667 169.422667 341.397333 165.045333 340.464 160.64v0H329.992C329.058667 165.12 328.088 169.609333 327.08 174.108 326.072 178.606667 325.026667 183.114667 323.944 187.632 323.048 182.965333 322.189333 178.224 321.368 173.408 320.546667 168.592 319.781333 163.776 319.072 158.96v0H307.368C308.898667 165.754667 310.513333 172.493333 312.212 179.176 313.910667 185.858667 315.674667 192.466667 317.504 199v0H328.816zm46.536.0C376.136 196.461333 376.901333 193.96 377.648 191.496v0H392.264C392.637333 192.728 393.02 193.969333 393.412 195.22 393.804 196.470667 394.186667 197.730667 394.56 199v0H406.376C403.986667 192.317333 401.522667 185.634667 398.984 178.952 396.445333 172.269333 393.832 165.605333 391.144 158.96v0H379.104C376.490667 165.269333 373.914667 171.765333 371.376 178.448 368.837333 185.130667 366.336 191.981333 363.872 199v0H375.352zM389.576 182.984H380.336C381.082667 180.669333 381.848 178.364 382.632 176.068 383.416 173.772 384.2 171.466667 384.984 169.152 385.768 171.429333 386.542667 173.716 387.308 176.012 388.073333 178.308 388.829333 180.632 389.576 182.984v0zM422.672 199.84C426.330667 199.84 429.438667 199.336 431.996 198.328 434.553333 197.32 436.513333 195.845333 437.876 193.904 439.238667 191.962667 439.92 189.610667 439.92 186.848 439.92 184.757333 439.584 183.012 438.912 181.612 438.24 180.212 437.288 179.054667 436.056 178.14 434.824 177.225333 433.368 176.450667 431.688 175.816 430.008 175.181333 428.141333 174.621333 426.088 174.136 424.109333 173.650667 422.588 173.137333 421.524 172.596 420.46 172.054667 419.928 171.242667 419.928 170.16 419.928 169.114667 420.441333 168.321333 421.468 167.78 422.494667 167.238667 423.941333 166.968 425.808 166.968 427.114667 166.968 428.468 167.089333 429.868 167.332 431.268 167.574667 432.658667 167.929333 434.04 168.396 435.421333 168.862667 436.728 169.469333 437.96 170.216v0V160.864C436.242667 160.005333 434.32 159.333333 432.192 158.848 430.064 158.362667 427.898667 158.12 425.696 158.12 422.298667 158.12 419.349333 158.633333 416.848 159.66 414.346667 160.686667 412.424 162.152 411.08 164.056 409.736 165.96 409.064 168.256 409.064 170.944 409.064 172.698667 409.325333 174.229333 409.848 175.536 410.370667 176.842667 411.192 177.990667 412.312 178.98 413.432 179.969333 414.888 180.837333 416.68 181.584 418.472 182.330667 420.637333 183.002667 423.176 183.6 424.333333 183.861333 425.341333 184.16 426.2 184.496 427.058667 184.832 427.730667 185.233333 428.216 185.7 428.701333 186.166667 428.944 186.792 428.944 187.576 428.944 188.658667 428.402667 189.498667 427.32 190.096 426.237333 190.693333 424.632 190.992 422.504 190.992 420.338667 190.992 418.164 190.684 415.98 190.068 413.796 189.452 411.658667 188.546667 409.568 187.352v0V196.816C411.733333 197.861333 413.889333 198.626667 416.036 199.112 418.182667 199.597333 420.394667 199.84 422.672 199.84zM137.688 261V230.368H149.672V220.96H114.784V230.368H126.768V261H137.688zM165.072 261V244.816H179.296V261H190.216V220.96H179.296V235.408H165.072V220.96H154.152V261H165.072zM227.344 261V252.264H208.248V244.984H224.04V236.248H208.248V229.696H226.28V220.96H197.608V261H227.344zM255.848 261V246.552H270.8V237.424H255.848V230.088H272.928V220.96H245.096V261H255.848zM288.888 261V220.96H277.968V261H288.888zm17.976.0V247.504H312.352C313.658667 249.706667 314.918667 251.937333 316.132 254.196 317.345333 256.454667 318.549333 258.722667 319.744 261v0H331.784C330.253333 258.274667 328.694667 255.605333 327.108 252.992 325.521333 250.378667 323.906667 247.784 322.264 245.208 324.354667 244.088 325.969333 242.594667 327.108 240.728 328.246667 238.861333 328.816 236.696 328.816 234.232 328.816 229.938667 327.341333 226.653333 324.392 224.376 321.442667 222.098667 317.186667 220.96 311.624 220.96v0H296.28V261H306.864zM311.12 239.104H306.864V229.36H311.12C313.397333 229.36 315.077333 229.761333 316.16 230.564 317.242667 231.366667 317.784 232.589333 317.784 234.232 317.784 235.837333 317.242667 237.050667 316.16 237.872 315.077333 238.693333 313.397333 239.104 311.12 239.104v0zM348.192 261.84C351.850667 261.84 354.958667 261.336 357.516 260.328 360.073333 259.32 362.033333 257.845333 363.396 255.904 364.758667 253.962667 365.44 251.610667 365.44 248.848 365.44 246.757333 365.104 245.012 364.432 243.612 363.76 242.212 362.808 241.054667 361.576 240.14 360.344 239.225333 358.888 238.450667 357.208 237.816 355.528 237.181333 353.661333 236.621333 351.608 236.136 349.629333 235.650667 348.108 235.137333 347.044 234.596 345.98 234.054667 345.448 233.242667 345.448 232.16 345.448 231.114667 345.961333 230.321333 346.988 229.78 348.014667 229.238667 349.461333 228.968 351.328 228.968 352.634667 228.968 353.988 229.089333 355.388 229.332 356.788 229.574667 358.178667 229.929333 359.56 230.396 360.941333 230.862667 362.248 231.469333 363.48 232.216v0V222.864C361.762667 222.005333 359.84 221.333333 357.712 220.848 355.584 220.362667 353.418667 220.12 351.216 220.12 347.818667 220.12 344.869333 220.633333 342.368 221.66 339.866667 222.686667 337.944 224.152 336.6 226.056 335.256 227.96 334.584 230.256 334.584 232.944 334.584 234.698667 334.845333 236.229333 335.368 237.536 335.890667 238.842667 336.712 239.990667 337.832 240.98 338.952 241.969333 340.408 242.837333 342.2 243.584 343.992 244.330667 346.157333 245.002667 348.696 245.6 349.853333 245.861333 350.861333 246.16 351.72 246.496 352.578667 246.832 353.250667 247.233333 353.736 247.7 354.221333 248.166667 354.464 248.792 354.464 249.576 354.464 250.658667 353.922667 251.498667 352.84 252.096 351.757333 252.693333 350.152 252.992 348.024 252.992 345.858667 252.992 343.684 252.684 341.5 252.068 339.316 251.452 337.178667 250.546667 335.088 249.352v0V258.816C337.253333 259.861333 339.409333 260.626667 341.556 261.112 343.702667 261.597333 345.914667 261.84 348.192 261.84zM391.144 261V230.368H403.128V220.96H368.24V230.368H380.224V261H391.144zm-265.16 62C126.768 320.461333 127.533333 317.96 128.28 315.496v0H142.896C143.269333 316.728 143.652 317.969333 144.044 319.22 144.436 320.470667 144.818667 321.730667 145.192 323v0H157.008C154.618667 316.317333 152.154667 309.634667 149.616 302.952 147.077333 296.269333 144.464 289.605333 141.776 282.96v0H129.736C127.122667 289.269333 124.546667 295.765333 122.008 302.448 119.469333 309.130667 116.968 315.981333 114.504 323v0H125.984zM140.208 306.984H130.968C131.714667 304.669333 132.48 302.364 133.264 300.068 134.048 297.772 134.832 295.466667 135.616 293.152 136.4 295.429333 137.174667 297.716 137.94 300.012 138.705333 302.308 139.461333 304.632 140.208 306.984v0zM189.936 323V313.592H172.128V282.96H161.208V323H189.936zM211.776 323C215.136 323 218.02 322.533333 220.428 321.6 222.836 320.666667 224.684 319.322667 225.972 317.568 227.26 315.813333 227.904 313.722667 227.904 311.296 227.904 308.944 227.306667 306.937333 226.112 305.276 224.917333 303.614667 223.2 302.373333 220.96 301.552 224.133333 299.797333 225.72 297.128 225.72 293.544 225.72 290.109333 224.432 287.486667 221.856 285.676 219.28 283.865333 215.602667 282.96 210.824 282.96v0H194.416V323H211.776zM209.76 298.864H204.832V291.024H209.76C213.344 291.024 215.136 292.274667 215.136 294.776 215.136 296.045333 214.678667 297.044 213.764 297.772 212.849333 298.5 211.514667 298.864 209.76 298.864v0zM210.768 314.936H204.832V306.592H210.824C215.08 306.592 217.208 308.010667 217.208 310.848 217.208 312.154667 216.657333 313.162667 215.556 313.872 214.454667 314.581333 212.858667 314.936 210.768 314.936v0zM251.2 323.84C254.896 323.84 258.06 323.130667 260.692 321.712 263.324 320.293333 265.34 318.249333 266.74 315.58 268.14 312.910667 268.84 309.728 268.84 306.032v0V282.96H258.088V307.264C258.088 309.541333 257.490667 311.305333 256.296 312.556 255.101333 313.806667 253.402667 314.432 251.2 314.432 249.034667 314.432 247.345333 313.806667 246.132 312.556 244.918667 311.305333 244.312 309.541333 244.312 307.264v0V282.96H233.392V306.032C233.392 309.728 234.101333 312.910667 235.52 315.58 236.938667 318.249333 238.982667 320.293333 241.652 321.712 244.321333 323.130667 247.504 323.84 251.2 323.84zM286.256 323V298.696C287.488 301.533333 288.748 304.370667 290.036 307.208 291.324 310.045333 292.621333 312.882667 293.928 315.72v0H302.328C303.597333 312.882667 304.857333 310.036 306.108 307.18 307.358667 304.324 308.6 301.44 309.832 298.528v0V323H320.024V282.96H307.032C305.613333 286.730667 304.176 290.454667 302.72 294.132 301.264 297.809333 299.789333 301.44 298.296 305.024 296.728 301.402667 295.188 297.744 293.676 294.048 292.164 290.352 290.68 286.656 289.224 282.96v0H276.064V323H286.256zM362.696 323V308.16C365.272 303.978667 367.810667 299.788 370.312 295.588 372.813333 291.388 375.258667 287.178667 377.648 282.96v0H365.664C364.357333 285.610667 363.013333 288.270667 361.632 290.94 360.250667 293.609333 358.869333 296.269333 357.488 298.92 356.069333 296.269333 354.678667 293.618667 353.316 290.968 351.953333 288.317333 350.6 285.648 349.256 282.96v0H336.88C339.232 287.178667 341.658667 291.388 344.16 295.588 346.661333 299.788 349.2 303.978667 351.776 308.16v0V323H362.696zM400.888 323.84C403.986667 323.84 406.786667 323.354667 409.288 322.384 411.789333 321.413333 413.926667 320.013333 415.7 318.184 417.473333 316.354667 418.836 314.152 419.788 311.576 420.74 309 421.216 306.125333 421.216 302.952 421.216 299.741333 420.74 296.857333 419.788 294.3 418.836 291.742667 417.473333 289.558667 415.7 287.748 413.926667 285.937333 411.789333 284.546667 409.288 283.576 406.786667 282.605333 403.986667 282.12 400.888 282.12 397.789333 282.12 394.989333 282.605333 392.488 283.576 389.986667 284.546667 387.849333 285.937333 386.076 287.748 384.302667 289.558667 382.94 291.742667 381.988 294.3 381.036 296.857333 380.56 299.741333 380.56 302.952 380.56 306.125333 381.036 309 381.988 311.576 382.94 314.152 384.302667 316.354667 386.076 318.184 387.849333 320.013333 389.986667 321.413333 392.488 322.384 394.989333 323.354667 397.789333 323.84 400.888 323.84zM400.888 314.432C397.976 314.432 395.745333 313.442667 394.196 311.464 392.646667 309.485333 391.872 306.648 391.872 302.952 391.872 299.293333 392.646667 296.474667 394.196 294.496 395.745333 292.517333 397.976 291.528 400.888 291.528 403.8 291.528 406.030667 292.517333 407.58 294.496 409.129333 296.474667 409.904 299.293333 409.904 302.952 409.904 306.648 409.129333 309.485333 407.58 311.464 406.030667 313.442667 403.8 314.432 400.888 314.432zM444.792 323.84C448.488 323.84 451.652 323.130667 454.284 321.712 456.916 320.293333 458.932 318.249333 460.332 315.58 461.732 312.910667 462.432 309.728 462.432 306.032v0V282.96H451.68V307.264C451.68 309.541333 451.082667 311.305333 449.888 312.556 448.693333 313.806667 446.994667 314.432 444.792 314.432 442.626667 314.432 440.937333 313.806667 439.724 312.556 438.510667 311.305333 437.904 309.541333 437.904 307.264v0V282.96H426.984V306.032C426.984 309.728 427.693333 312.910667 429.112 315.58 430.530667 318.249333 432.574667 320.293333 435.244 321.712 437.913333 323.130667 441.096 323.84 444.792 323.84zM135.056 385C138.416 385 141.3 384.533333 143.708 383.6 146.116 382.666667 147.964 381.322667 149.252 379.568 150.54 377.813333 151.184 375.722667 151.184 373.296 151.184 370.944 150.586667 368.937333 149.392 367.276 148.197333 365.614667 146.48 364.373333 144.24 363.552 147.413333 361.797333 149 359.128 149 355.544 149 352.109333 147.712 349.486667 145.136 347.676 142.56 345.865333 138.882667 344.96 134.104 344.96v0H117.696V385H135.056zM133.04 360.864H128.112V353.024H133.04C136.624 353.024 138.416 354.274667 138.416 356.776 138.416 358.045333 137.958667 359.044 137.044 359.772 136.129333 360.5 134.794667 360.864 133.04 360.864v0zM134.048 376.936H128.112V368.592H134.104C138.36 368.592 140.488 370.010667 140.488 372.848 140.488 374.154667 139.937333 375.162667 138.836 375.872 137.734667 376.581333 136.138667 376.936 134.048 376.936v0zM175.712 385.84C178.810667 385.84 181.610667 385.354667 184.112 384.384 186.613333 383.413333 188.750667 382.013333 190.524 380.184 192.297333 378.354667 193.66 376.152 194.612 373.576 195.564 371 196.04 368.125333 196.04 364.952 196.04 361.741333 195.564 358.857333 194.612 356.3 193.66 353.742667 192.297333 351.558667 190.524 349.748 188.750667 347.937333 186.613333 346.546667 184.112 345.576 181.610667 344.605333 178.810667 344.12 175.712 344.12 172.613333 344.12 169.813333 344.605333 167.312 345.576 164.810667 346.546667 162.673333 347.937333 160.9 349.748 159.126667 351.558667 157.764 353.742667 156.812 356.3 155.86 358.857333 155.384 361.741333 155.384 364.952 155.384 368.125333 155.86 371 156.812 373.576 157.764 376.152 159.126667 378.354667 160.9 380.184 162.673333 382.013333 164.810667 383.413333 167.312 384.384 169.813333 385.354667 172.613333 385.84 175.712 385.84zM175.712 376.432C172.8 376.432 170.569333 375.442667 169.02 373.464 167.470667 371.485333 166.696 368.648 166.696 364.952 166.696 361.293333 167.470667 358.474667 169.02 356.496 170.569333 354.517333 172.8 353.528 175.712 353.528 178.624 353.528 180.854667 354.517333 182.404 356.496 183.953333 358.474667 184.728 361.293333 184.728 364.952 184.728 368.648 183.953333 371.485333 182.404 373.464 180.854667 375.442667 178.624 376.432 175.712 376.432zM219.616 385.84C223.312 385.84 226.476 385.130667 229.108 383.712 231.74 382.293333 233.756 380.249333 235.156 377.58 236.556 374.910667 237.256 371.728 237.256 368.032v0V344.96H226.504V369.264C226.504 371.541333 225.906667 373.305333 224.712 374.556 223.517333 375.806667 221.818667 376.432 219.616 376.432 217.450667 376.432 215.761333 375.806667 214.548 374.556 213.334667 373.305333 212.728 371.541333 212.728 369.264v0V344.96H201.808V368.032C201.808 371.728 202.517333 374.910667 203.936 377.58 205.354667 380.249333 207.398667 382.293333 210.068 383.712 212.737333 385.130667 215.92 385.84 219.616 385.84zM264.192 385.84C265.984 385.84 267.785333 385.728 269.596 385.504 271.406667 385.28 273.152 384.934667 274.832 384.468 276.512 384.001333 278.005333 383.450667 279.312 382.816v0V361.928H263.688V369.992H269.512V375.984C268.802667 376.170667 268.065333 376.310667 267.3 376.404 266.534667 376.497333 265.778667 376.544 265.032 376.544 261.522667 376.544 258.862667 375.564 257.052 373.604 255.241333 371.644 254.336 368.76 254.336 364.952 254.336 361.293333 255.372 358.474667 257.444 356.496 259.516 354.517333 262.474667 353.528 266.32 353.528 268.672 353.528 270.828 353.78 272.788 354.284 274.748 354.788 276.568 355.506667 278.248 356.44v0V346.584C274.328 344.941333 269.885333 344.12 264.92 344.12 261.634667 344.12 258.648 344.614667 255.96 345.604 253.272 346.593333 250.957333 348.002667 249.016 349.832 247.074667 351.661333 245.590667 353.854667 244.564 356.412 243.537333 358.969333 243.024 361.816 243.024 364.952 243.024 368.2 243.509333 371.112 244.48 373.688 245.450667 376.264 246.850667 378.457333 248.68 380.268 250.509333 382.078667 252.730667 383.46 255.344 384.412 257.957333 385.364 260.906667 385.84 264.192 385.84zM296.84 385V368.816H311.064V385H321.984V344.96H311.064V359.408H296.84V344.96H285.92V385H296.84zM349.368 385V354.368H361.352V344.96H326.464V354.368H338.448V385H349.368zM378.656 371.448V370.776C378.656 370.216 378.777333 369.693333 379.02 369.208 379.262667 368.722667 379.682667 368.218667 380.28 367.696 380.877333 367.173333 381.661333 366.576 382.632 365.904 384.834667 364.373333 386.430667 362.777333 387.42 361.116 388.409333 359.454667 388.904 357.504 388.904 355.264 388.904 352.949333 388.334667 350.961333 387.196 349.3 386.057333 347.638667 384.442667 346.36 382.352 345.464 380.261333 344.568 377.741333 344.12 374.792 344.12 372.850667 344.12 370.965333 344.316 369.136 344.708 367.306667 345.1 365.570667 345.688 363.928 346.472v0V354.928C365.421333 354.069333 366.877333 353.444 368.296 353.052 369.714667 352.66 371.208 352.464 372.776 352.464 374.530667 352.464 375.884 352.809333 376.836 353.5 377.788 354.190667 378.264 355.152 378.264 356.384 378.264 357.093333 378.152 357.737333 377.928 358.316 377.704 358.894667 377.293333 359.482667 376.696 360.08 376.098667 360.677333 375.24 361.405333 374.12 362.264 372.664 363.346667 371.618667 364.541333 370.984 365.848 370.349333 367.154667 370.032 368.797333 370.032 370.776v0V371.448H378.656zM374.344 385.504C375.538667 385.504 376.565333 385.252 377.424 384.748 378.282667 384.244 378.945333 383.572 379.412 382.732 379.878667 381.892 380.112 380.968 380.112 379.96 380.112 378.952 379.878667 378.028 379.412 377.188 378.945333 376.348 378.282667 375.685333 377.424 375.2 376.565333 374.714667 375.538667 374.472 374.344 374.472 373.149333 374.472 372.122667 374.714667 371.264 375.2 370.405333 375.685333 369.742667 376.348 369.276 377.188 368.809333 378.028 368.576 378.952 368.576 379.96 368.576 380.968 368.809333 381.892 369.276 382.732 369.742667 383.572 370.405333 384.244 371.264 384.748 372.122667 385.252 373.149333 385.504 374.344 385.504z" id="WHATWASTHEFIRSTALBUMYOUBOUGHT?"/></g></g></g></svg>