<svg width="1200" height="677" viewBox="0 0 1200 677" xmlns="http://www.w3.org/2000/svg" xmlns:xlink="http://www.w3.org/1999/xlink"><title>blink-text-01</title><desc>Created with Sketch.</desc><g id="Assets" stroke="none" stroke-width="1" fill="none" fill-rule="evenodd"><g id="Blink" fill="#fff" fill-rule="nonzero"><g id="blink-text-01"><path d="M500.91 292V287.32H490.68V283.42H499.14V278.74H490.68V275.23H500.34V270.55H484.98V292H500.91zM509.4 292V284.77H512.34C513.04 285.95 513.715 287.145 514.365 288.355 515.015 289.565 515.66 290.78 516.3 292v0H522.75C521.93 290.54 521.095 289.11 520.245 287.71 519.395 286.31 518.53 284.92 517.65 283.54 518.77 282.94 519.635 282.14 520.245 281.14 520.855 280.14 521.16 278.98 521.16 277.66 521.16 275.36 520.37 273.6 518.79 272.38 517.21 271.16 514.93 270.55 511.95 270.55v0H503.73V292H509.4zM511.68 280.27H509.4V275.05H511.68C512.9 275.05 513.8 275.265 514.38 275.695 514.96 276.125 515.25 276.78 515.25 277.66 515.25 278.52 514.96 279.17 514.38 279.61 513.8 280.05 512.9 280.27 511.68 280.27v0zM530.52 292V278.98C531.18 280.5 531.855 282.02 532.545 283.54 533.235 285.06 533.93 286.58 534.63 288.1v0h4.5C539.81 286.58 540.485 285.055 541.155 283.525 541.825 281.995 542.49 280.45 543.15 278.89v0V292H548.61V270.55H541.65C540.89 272.57 540.12 274.565 539.34 276.535 538.56 278.505 537.77 280.45 536.97 282.37 536.13 280.43 535.305 278.47 534.495 276.49 533.685 274.51 532.89 272.53 532.11 270.55v0H525.06V292H530.52zM555.57 292.27C556.21 292.27 556.76 292.135 557.22 291.865 557.68 291.595 558.035 291.235 558.285 290.785 558.535 290.335 558.66 289.84 558.66 289.3 558.66 288.76 558.535 288.265 558.285 287.815 558.035 287.365 557.68 287.01 557.22 286.75 556.76 286.49 556.21 286.36 555.57 286.36 554.93 286.36 554.38 286.49 553.92 286.75 553.46 287.01 553.105 287.365 552.855 287.815 552.605 288.265 552.48 288.76 552.48 289.3 552.48 289.84 552.605 290.335 552.855 290.785 553.105 291.235 553.46 291.595 553.92 291.865 554.38 292.135 554.93 292.27 555.57 292.27zM565.59 292.27C566.23 292.27 566.78 292.135 567.24 291.865 567.7 291.595 568.055 291.235 568.305 290.785 568.555 290.335 568.68 289.84 568.68 289.3 568.68 288.76 568.555 288.265 568.305 287.815 568.055 287.365 567.7 287.01 567.24 286.75 566.78 286.49 566.23 286.36 565.59 286.36 564.95 286.36 564.4 286.49 563.94 286.75 563.48 287.01 563.125 287.365 562.875 287.815 562.625 288.265 562.5 288.76 562.5 289.3 562.5 289.84 562.625 290.335 562.875 290.785 563.125 291.235 563.48 291.595 563.94 291.865 564.4 292.135 564.95 292.27 565.59 292.27zM575.61 292.27C576.25 292.27 576.8 292.135 577.26 291.865 577.72 291.595 578.075 291.235 578.325 290.785 578.575 290.335 578.7 289.84 578.7 289.3 578.7 288.76 578.575 288.265 578.325 287.815 578.075 287.365 577.72 287.01 577.26 286.75 576.8 286.49 576.25 286.36 575.61 286.36 574.97 286.36 574.42 286.49 573.96 286.75 573.5 287.01 573.145 287.365 572.895 287.815 572.645 288.265 572.52 288.76 572.52 289.3 572.52 289.84 572.645 290.335 572.895 290.785 573.145 291.235 573.5 291.595 573.96 291.865 574.42 292.135 574.97 292.27 575.61 292.27zM594.78 292V284.05C596.16 281.81 597.52 279.565 598.86 277.315 600.2 275.065 601.51 272.81 602.79 270.55v0H596.37C595.67 271.97 594.95 273.395 594.21 274.825 593.47 276.255 592.73 277.68 591.99 279.1 591.23 277.68 590.485 276.26 589.755 274.84 589.025 273.42 588.3 271.99 587.58 270.55v0H580.95C582.21 272.81 583.51 275.065 584.85 277.315 586.19 279.565 587.55 281.81 588.93 284.05v0V292H594.78zM621.06 292V287.32H610.83V283.42H619.29V278.74H610.83V275.23H620.49V270.55H605.13V292H621.06zM628.32 292C628.74 290.64 629.15 289.3 629.55 287.98v0H637.38C637.58 288.64 637.785 289.305 637.995 289.975 638.205 290.645 638.41 291.32 638.61 292v0H644.94C643.66 288.42 642.34 284.84 640.98 281.26 639.62 277.68 638.22 274.11 636.78 270.55v0H630.33C628.93 273.93 627.55 277.41 626.19 280.99 624.83 284.57 623.49 288.24 622.17 292v0H628.32zM635.94 283.42H630.99C631.39 282.18 631.8 280.945 632.22 279.715 632.64 278.485 633.06 277.25 633.48 276.01 633.9 277.23 634.315 278.455 634.725 279.685 635.135 280.915 635.54 282.16 635.94 283.42v0zM653.04 292V283.33H660.66V292H666.51V270.55H660.66V278.29H653.04V270.55H647.19V292H653.04z" id="ERM…YEAH"/></g></g></g></svg>