<?xml version="1.0" encoding="UTF-8"?>
<svg width="1200px" height="675px" viewBox="0 0 1200 675" version="1.1" xmlns="http://www.w3.org/2000/svg" xmlns:xlink="http://www.w3.org/1999/xlink">
    <!-- Generator: Sketch 61.2 (89653) - https://sketch.com -->
    <title>shot53</title>
    <desc>Created with Sketch.</desc>
    <g id="shot53" stroke="none" stroke-width="1" fill="none" fill-rule="evenodd">
        <g id="Intro" transform="translate(241.000000, 213.000000)" fill="#FFFFFF">
            <g id="Group" transform="translate(9.000000, 0.000000)">
                <path d="M285.933598,54.8888889 C287.352502,49.5111111 288.722478,44.1211111 290.043527,38.7188889 C291.364575,33.3166667 292.685624,27.9022222 294.006672,22.4755556 C295.278793,27.9022222 296.599841,33.3166667 297.969817,38.7188889 C299.339793,44.1211111 300.734234,49.5111111 302.153137,54.8888889 L302.153137,54.8888889 L316.978237,54.8888889 C319.424623,46.3333333 321.760921,37.68 323.987133,28.9288889 C326.213344,20.1777778 328.305004,11.3533333 330.262113,2.45555556 L330.262113,2.45555556 L315.216839,2.45555556 C314.287212,8.56666667 313.296426,14.6777778 312.24448,20.7888889 C311.192534,26.9 310.079428,32.9377778 308.905163,38.9022222 C307.584114,33.2311111 306.275298,27.5477778 304.978713,21.8522222 C303.682129,16.1566667 302.42224,10.4244444 301.199047,4.65555556 L301.199047,4.65555556 L287.474821,4.65555556 C286.251628,10.5222222 284.979508,16.4011111 283.658459,22.2922222 C282.337411,28.1833333 280.967434,34.0866667 279.548531,40.0022222 C278.374265,33.8911111 277.248928,27.6822222 276.172518,21.3755556 C275.096108,15.0688889 274.09309,8.76222222 273.163463,2.45555556 L273.163463,2.45555556 L257.824623,2.45555556 C259.830659,11.3533333 261.946783,20.1777778 264.172994,28.9288889 C266.399206,37.68 268.711041,46.3333333 271.108499,54.8888889 L271.108499,54.8888889 L285.933598,54.8888889 Z M348.981414,54.8888889 L348.981414,33.6955556 L367.622875,33.6955556 L367.622875,54.8888889 L381.934234,54.8888889 L381.934234,2.45555556 L367.622875,2.45555556 L367.622875,21.3755556 L348.981414,21.3755556 L348.981414,2.45555556 L334.670056,2.45555556 L334.670056,54.8888889 L348.981414,54.8888889 Z M401.093884,54.8888889 C402.121366,51.5644444 403.124384,48.2888889 404.102939,45.0622222 L404.102939,45.0622222 L423.258141,45.0622222 C423.747419,46.6755556 424.248928,48.3011111 424.762669,49.9388889 C425.27641,51.5766667 425.777919,53.2266667 426.267196,54.8888889 L426.267196,54.8888889 L441.75282,54.8888889 C438.621446,46.1377778 435.392216,37.3866667 432.065131,28.6355556 C428.738046,19.8844444 425.313106,11.1577778 421.79031,2.45555556 L421.79031,2.45555556 L406.01112,2.45555556 C402.58618,10.7177778 399.210167,19.2244444 395.883082,27.9755556 C392.555997,36.7266667 389.27784,45.6977778 386.04861,54.8888889 L386.04861,54.8888889 L401.093884,54.8888889 Z M419.735346,33.9155556 L407.625735,33.9155556 C408.604289,30.8844444 409.607307,27.8655556 410.63479,24.8588889 C411.662272,21.8522222 412.689754,18.8333333 413.717236,15.8022222 C414.744718,18.7844444 415.759968,21.7788889 416.762986,24.7855556 C417.766005,27.7922222 418.756791,30.8355556 419.735346,33.9155556 L419.735346,33.9155556 Z M465.829706,54.8888889 L465.829706,14.7755556 L481.535504,14.7755556 L481.535504,2.45555556 L435.81255,2.45555556 L435.81255,14.7755556 L451.518348,14.7755556 L451.518348,54.8888889 L465.829706,54.8888889 Z M492.255123,24.3822222 C493.576172,23.0622222 494.713741,21.6077778 495.667832,20.0188889 C496.621922,18.43 497.36807,16.7677778 497.906275,15.0322222 C498.44448,13.2966667 498.713582,11.6466667 498.713582,10.0822222 C498.713582,7.44222222 498.12645,5.42555556 496.952184,4.03222222 C495.777919,2.63888889 493.992057,1.94222222 491.594599,1.94222222 C489.539635,1.94222222 487.912788,2.54111111 486.714059,3.73888889 C485.51533,4.93666667 484.915965,6.51333333 484.915965,8.46888889 C484.915965,9.98444444 485.307387,11.2555556 486.09023,12.2822222 C486.873074,13.3088889 487.949484,14.0177778 489.31946,14.4088889 C488.389833,17.7333333 486.310405,21.0577778 483.081176,24.3822222 L483.081176,24.3822222 L492.255123,24.3822222 Z M521.762986,55.9888889 C526.557903,55.9888889 530.631136,55.3288889 533.982685,54.0088889 C537.334234,52.6888889 539.902939,50.7577778 541.688801,48.2155556 C543.474662,45.6733333 544.367593,42.5933333 544.367593,38.9755556 C544.367593,36.2377778 543.927244,33.9522222 543.046545,32.1188889 C542.165846,30.2855556 540.918189,28.77 539.303574,27.5722222 C537.688959,26.3744444 535.780778,25.36 533.579031,24.5288889 C531.377284,23.6977778 528.930898,22.9644444 526.239873,22.3288889 C523.646704,21.6933333 521.652899,21.0211111 520.258459,20.3122222 C518.864019,19.6033333 518.166799,18.54 518.166799,17.1222222 C518.166799,15.7533333 518.839555,14.7144444 520.185068,14.0055556 C521.53058,13.2966667 523.426529,12.9422222 525.872915,12.9422222 C527.585385,12.9422222 529.359015,13.1011111 531.193805,13.4188889 C533.028594,13.7366667 534.851152,14.2011111 536.661477,14.8122222 C538.471803,15.4233333 540.184273,16.2177778 541.798888,17.1955556 L541.798888,17.1955556 L541.798888,4.94888889 C539.548213,3.82444444 537.028435,2.94444444 534.239555,2.30888889 C531.450675,1.67333333 528.612867,1.35555556 525.726132,1.35555556 C521.273709,1.35555556 517.408419,2.02777778 514.130262,3.37222222 C510.852105,4.71666667 508.332327,6.63555556 506.570929,9.12888889 C504.809531,11.6222222 503.928832,14.6288889 503.928832,18.1488889 C503.928832,20.4466667 504.271326,22.4511111 504.956315,24.1622222 C505.641303,25.8733333 506.717712,27.3766667 508.185544,28.6722222 C509.653376,29.9677778 511.561557,31.1044444 513.910087,32.0822222 C516.258618,33.06 519.096426,33.94 522.423511,34.7222222 C523.94027,35.0644444 525.261319,35.4555556 526.386656,35.8955556 C527.511994,36.3355556 528.392693,36.8611111 529.028753,37.4722222 C529.664813,38.0833333 529.982844,38.9022222 529.982844,39.9288889 C529.982844,41.3466667 529.273392,42.4466667 527.854488,43.2288889 C526.435584,44.0111111 524.331692,44.4022222 521.542812,44.4022222 C518.705004,44.4022222 515.854964,43.9988889 512.992693,43.1922222 C510.130421,42.3855556 507.329309,41.2 504.589357,39.6355556 L504.589357,39.6355556 L504.589357,52.0288889 C507.427164,53.3977778 510.25274,54.4 513.066084,55.0355556 C515.879428,55.6711111 518.778396,55.9888889 521.762986,55.9888889 Z M578.797141,54.8888889 L578.797141,23.0622222 C580.411755,26.7777778 582.063066,30.4933333 583.751072,34.2088889 C585.439079,37.9244444 587.139317,41.64 588.851787,45.3555556 L588.851787,45.3555556 L599.860524,45.3555556 C601.524067,41.64 603.175377,37.9122222 604.814456,34.1722222 C606.453535,30.4322222 608.080381,26.6555556 609.694996,22.8422222 L609.694996,22.8422222 L609.694996,54.8888889 L623.052264,54.8888889 L623.052264,2.45555556 L606.025417,2.45555556 C604.166164,7.39333333 602.282446,12.27 600.374265,17.0855556 C598.466084,21.9011111 596.533439,26.6555556 594.57633,31.3488889 C592.521366,26.6066667 590.503098,21.8155556 588.521525,16.9755556 C586.539952,12.1355556 584.595075,7.29555556 582.686894,2.45555556 L582.686894,2.45555556 L565.439873,2.45555556 L565.439873,54.8888889 L578.797141,54.8888889 Z M661.220334,54.8888889 L661.220334,35.4555556 C664.596346,29.98 667.923431,24.4922222 671.201589,18.9922222 C674.479746,13.4922222 677.684512,7.98 680.815886,2.45555556 L680.815886,2.45555556 L665.110087,2.45555556 C663.397617,5.92666667 661.636219,9.41 659.825894,12.9055556 C658.015568,16.4011111 656.205242,19.8844444 654.394917,23.3555556 C652.535663,19.8844444 650.713106,16.4133333 648.927244,12.9422222 C647.141382,9.47111111 645.367752,5.97555556 643.606354,2.45555556 L643.606354,2.45555556 L627.386815,2.45555556 C630.469261,7.98 633.649563,13.4922222 636.92772,18.9922222 C640.205878,24.4922222 643.532963,29.98 646.908975,35.4555556 L646.908975,35.4555556 L646.908975,54.8888889 L661.220334,54.8888889 Z M272.57633,126 C273.603813,122.675556 274.606831,119.4 275.585385,116.173333 L275.585385,116.173333 L294.740588,116.173333 C295.229865,117.786667 295.731374,119.412222 296.245115,121.05 C296.758856,122.687778 297.260365,124.337778 297.749643,126 L297.749643,126 L313.235266,126 C310.103892,117.248889 306.874662,108.497778 303.547577,99.7466667 C300.220492,90.9955556 296.795552,82.2688889 293.272756,73.5666667 L293.272756,73.5666667 L277.493566,73.5666667 C274.068626,81.8288889 270.692613,90.3355556 267.365528,99.0866667 C264.038443,107.837778 260.760286,116.808889 257.531056,126 L257.531056,126 L272.57633,126 Z M291.217792,105.026667 L279.108181,105.026667 C280.086736,101.995556 281.089754,98.9766667 282.117236,95.97 C283.144718,92.9633333 284.1722,89.9444444 285.199682,86.9133333 C286.227164,89.8955556 287.242415,92.89 288.245433,95.8966667 C289.248451,98.9033333 290.239237,101.946667 291.217792,105.026667 L291.217792,105.026667 Z M341.715647,127.1 C344.064178,127.1 346.42494,126.953333 348.797935,126.66 C351.170929,126.366667 353.4583,125.914444 355.660048,125.303333 C357.861795,124.692222 359.818904,123.971111 361.531374,123.14 L361.531374,123.14 L361.531374,95.7866667 L341.055123,95.7866667 L341.055123,106.346667 L348.687847,106.346667 L348.687847,114.193333 C347.758221,114.437778 346.791898,114.621111 345.78888,114.743333 C344.785862,114.865556 343.795075,114.926667 342.816521,114.926667 C338.217315,114.926667 334.731215,113.643333 332.358221,111.076667 C329.985226,108.51 328.798729,104.733333 328.798729,99.7466667 C328.798729,94.9555556 330.156473,91.2644444 332.871962,88.6733333 C335.58745,86.0822222 339.464972,84.7866667 344.504527,84.7866667 C347.586974,84.7866667 350.41255,85.1166667 352.981255,85.7766667 C355.54996,86.4366667 357.935187,87.3777778 360.136934,88.6 L360.136934,88.6 L360.136934,75.6933333 C354.999523,73.5422222 349.177125,72.4666667 342.669738,72.4666667 C338.364098,72.4666667 334.449881,73.1144444 330.927085,74.41 C327.404289,75.7055556 324.37077,77.5511111 321.826529,79.9466667 C319.282288,82.3422222 317.337411,85.2144444 315.991898,88.5633333 C314.646386,91.9122222 313.97363,95.64 313.97363,99.7466667 C313.97363,104 314.60969,107.813333 315.881811,111.186667 C317.153932,114.56 318.988721,117.432222 321.38618,119.803333 C323.783638,122.174444 326.694837,123.983333 330.119778,125.23 C333.544718,126.476667 337.410008,127.1 341.715647,127.1 Z M407.772518,126 L407.772518,114.56 L382.745989,114.56 L382.745989,105.026667 L403.442415,105.026667 L403.442415,93.5866667 L382.745989,93.5866667 L382.745989,85.0066667 L406.378078,85.0066667 L406.378078,73.5666667 L368.801589,73.5666667 L368.801589,126 L407.772518,126 Z M439.119619,126 C440.147101,122.675556 441.150119,119.4 442.128674,116.173333 L442.128674,116.173333 L461.283876,116.173333 C461.773153,117.786667 462.274662,119.412222 462.788403,121.05 C463.302145,122.687778 463.803654,124.337778 464.292931,126 L464.292931,126 L479.778554,126 C476.64718,117.248889 473.417951,108.497778 470.090866,99.7466667 C466.763781,90.9955556 463.33884,82.2688889 459.816044,73.5666667 L459.816044,73.5666667 L444.036855,73.5666667 C440.611914,81.8288889 437.235902,90.3355556 433.908817,99.0866667 C430.581732,107.837778 427.303574,116.808889 424.074345,126 L424.074345,126 L439.119619,126 Z M457.76108,105.026667 L445.651469,105.026667 C446.630024,101.995556 447.633042,98.9766667 448.660524,95.97 C449.688006,92.9633333 450.715488,89.9444444 451.742971,86.9133333 C452.770453,89.8955556 453.785703,92.89 454.788721,95.8966667 C455.791739,98.9033333 456.782526,101.946667 457.76108,105.026667 L457.76108,105.026667 Z M508.258936,127.1 C510.607466,127.1 512.968229,126.953333 515.341223,126.66 C517.714218,126.366667 520.001589,125.914444 522.203336,125.303333 C524.405083,124.692222 526.362192,123.971111 528.074662,123.14 L528.074662,123.14 L528.074662,95.7866667 L507.598411,95.7866667 L507.598411,106.346667 L515.231136,106.346667 L515.231136,114.193333 C514.301509,114.437778 513.335187,114.621111 512.332168,114.743333 C511.32915,114.865556 510.338364,114.926667 509.359809,114.926667 C504.760604,114.926667 501.274504,113.643333 498.901509,111.076667 C496.528515,108.51 495.342017,104.733333 495.342017,99.7466667 C495.342017,94.9555556 496.699762,91.2644444 499.41525,88.6733333 C502.130739,86.0822222 506.008261,84.7866667 511.047816,84.7866667 C514.130262,84.7866667 516.955838,85.1166667 519.524543,85.7766667 C522.093249,86.4366667 524.478475,87.3777778 526.680222,88.6 L526.680222,88.6 L526.680222,75.6933333 C521.542812,73.5422222 515.720413,72.4666667 509.213026,72.4666667 C504.907387,72.4666667 500.993169,73.1144444 497.470373,74.41 C493.947577,75.7055556 490.914059,77.5511111 488.369817,79.9466667 C485.825576,82.3422222 483.880699,85.2144444 482.535187,88.5633333 C481.189674,91.9122222 480.516918,95.64 480.516918,99.7466667 C480.516918,104 481.152979,107.813333 482.425099,111.186667 C483.69722,114.56 485.53201,117.432222 487.929468,119.803333 C490.326926,122.174444 493.238125,123.983333 496.663066,125.23 C500.088006,126.476667 503.953296,127.1 508.258936,127.1 Z M546.206831,126 C547.234313,122.675556 548.237331,119.4 549.215886,116.173333 L549.215886,116.173333 L568.371088,116.173333 C568.860365,117.786667 569.361875,119.412222 569.875616,121.05 C570.389357,122.687778 570.890866,124.337778 571.380143,126 L571.380143,126 L586.865766,126 C583.734392,117.248889 580.505163,108.497778 577.178078,99.7466667 C573.850993,90.9955556 570.426052,82.2688889 566.903257,73.5666667 L566.903257,73.5666667 L551.124067,73.5666667 C547.699126,81.8288889 544.323114,90.3355556 540.996029,99.0866667 C537.668944,107.837778 534.390786,116.808889 531.161557,126 L531.161557,126 L546.206831,126 Z M564.848292,105.026667 L552.738681,105.026667 C553.717236,101.995556 554.720254,98.9766667 555.747736,95.97 C556.775218,92.9633333 557.802701,89.9444444 558.830183,86.9133333 C559.857665,89.8955556 560.872915,92.89 561.875933,95.8966667 C562.878952,98.9033333 563.869738,101.946667 564.848292,105.026667 L564.848292,105.026667 Z M605.291501,126 L605.291501,73.5666667 L590.980143,73.5666667 L590.980143,126 L605.291501,126 Z M680.453376,112.213333 C682.019063,112.213333 683.364575,112.531111 684.489913,113.166667 C685.61525,113.802222 686.483717,114.67 687.095314,115.77 C687.70691,116.87 688.012708,118.08 688.012708,119.4 C688.012708,120.72 687.70691,121.93 687.095314,123.03 C686.483717,124.13 685.61525,125.01 684.489913,125.67 C683.364575,126.33 682.019063,126.66 680.453376,126.66 C678.887689,126.66 677.542176,126.33 676.416839,125.67 C675.291501,125.01 674.423034,124.13 673.811438,123.03 C673.199841,121.93 672.894043,120.72 672.894043,119.4 C672.894043,118.08 673.199841,116.87 673.811438,115.77 C674.423034,114.67 675.291501,113.802222 676.416839,113.166667 C677.542176,112.531111 678.887689,112.213333 680.453376,112.213333 Z M627.973948,73.5666667 L629.610988,76.0925926 C632.33599,80.3160494 635.044003,84.6074074 637.735028,88.9666667 C640.964257,94.1977778 644.169023,99.4777778 647.349325,104.806667 L647.349325,104.806667 L647.349325,73.5666667 L661.000159,73.5666667 L661.000159,126 L646.615409,126 L645.042587,123.3325 C642.409324,118.881574 639.7166,114.405185 636.964416,109.903333 C633.661795,104.501111 630.420334,99.2577778 627.240032,94.1733333 L627.240032,94.1733333 L627.240032,126 L613.589198,126 L613.589198,73.5666667 L627.973948,73.5666667 Z M681.040508,72.4666667 C684.905798,72.4666667 688.208419,73.0533333 690.948372,74.2266667 C693.688324,75.4 695.804448,77.0744444 697.296743,79.25 C698.789039,81.4255556 699.535187,84.0288889 699.535187,87.06 C699.535187,89.9933333 698.886894,92.5477778 697.59031,94.7233333 C696.293725,96.8988889 694.202065,98.9888889 691.31533,100.993333 C690.043209,101.873333 689.015727,102.655556 688.232883,103.34 C687.45004,104.024444 686.899603,104.684444 686.581573,105.32 C686.263542,105.955556 686.104527,106.64 686.104527,107.373333 L686.104527,107.373333 L686.104527,108.253333 L674.802224,108.253333 L674.802224,107.373333 L674.807098,106.892656 C674.855834,104.515052 675.270095,102.524167 676.049881,100.92 C676.881652,99.2088889 678.251628,97.6444444 680.159809,96.2266667 C681.627641,95.1022222 682.752979,94.1488889 683.535822,93.3666667 C684.318666,92.5844444 684.856871,91.8144444 685.150437,91.0566667 C685.444003,90.2988889 685.590786,89.4555556 685.590786,88.5266667 C685.590786,86.9133333 684.966958,85.6544444 683.719301,84.75 C682.471644,83.8455556 680.698014,83.3933333 678.398411,83.3933333 C676.343447,83.3933333 674.386338,83.65 672.527085,84.1633333 C670.667832,84.6766667 668.759651,85.4955556 666.802542,86.62 L666.802542,86.62 L666.802542,75.5466667 L667.452057,75.2463667 C669.411612,74.3685667 671.470246,73.6986667 673.627959,73.2366667 C676.025417,72.7233333 678.496267,72.4666667 681.040508,72.4666667 Z" id="WHAT’SMYAGEAGAIN?" fill-rule="nonzero"></path>
                <g id="R1-Logo" transform="translate(0.000000, 0.000000)">
                    <g id="g3324" transform="translate(118.000000, 65.979980) scale(-1, 1) rotate(-180.000000) translate(-118.000000, -65.979980) translate(0.000000, 0.979980)">
                        <path d="M60.6931466,125.593288 L86.9228387,125.593288 L86.9228387,100.919871 L60.6931466,100.919871 L60.6931466,125.593288 Z M77.2213924,122.156272 C77.1085849,122.1796 76.9841077,122.195152 76.8674102,122.218481 L76.7273733,122.237921 C76.5250978,122.265137 76.3267122,122.288465 76.1166568,122.304017 C75.9766199,122.323457 75.836583,122.331233 75.700436,122.335121 C75.4475915,122.354561 75.2064168,122.362338 74.973022,122.362338 C74.8641044,122.362338 74.7979758,122.35845 74.6929482,122.35845 C74.4906726,122.354561 74.3000668,122.342897 74.109461,122.331233 C74.0044333,122.323457 73.8955157,122.315681 73.790488,122.304017 C73.6348915,122.292353 73.4831848,122.280689 73.3275882,122.253473 L73.1992211,122.241809 L73.0552942,122.218481 L72.884138,122.187376 C72.8102296,122.1796 72.7363213,122.164048 72.6624129,122.148496 C72.5534953,122.136832 72.4523575,122.109616 72.3551097,122.090176 C71.7327234,121.957983 71.1570161,121.78691 70.6279877,121.580844 C70.3518038,121.471979 70.0872896,121.355339 69.842225,121.23481 C69.6282798,121.129833 69.433784,121.020968 69.2353984,120.912104 C69.0486825,120.803239 68.8736364,120.694374 68.6985902,120.581621 C68.6013424,120.511637 68.5002046,120.453317 68.4029568,120.379444 C68.3212686,120.317236 68.2434703,120.262803 68.1617821,120.204483 C67.9984057,120.076178 67.8350293,119.940097 67.6833226,119.811792 C67.5471756,119.683487 67.4110286,119.55907 67.2826614,119.434654 C67.1737438,119.329677 67.0570464,119.216924 66.9636885,119.092507 C66.850881,118.975866 66.7458533,118.859226 66.6447155,118.730921 C66.531908,118.598728 66.43855,118.466535 66.3335224,118.322678 C66.2479442,118.217701 66.1818157,118.108837 66.1079073,117.999972 C66.0534485,117.922211 66.0106595,117.852227 65.9717603,117.770578 C65.6916865,117.331231 65.4544017,116.853004 65.2521262,116.343672 C65.0109515,115.702148 64.8320154,115.013967 64.7347676,114.294683 C64.7114281,114.061401 64.6880886,113.828119 64.668639,113.587062 C64.6569693,113.404324 64.6530794,113.217699 64.6530794,113.034962 C64.6530794,112.891105 64.6530794,112.755024 64.6569693,112.615055 C64.668639,112.475086 64.6880886,112.335117 64.6997584,112.195148 L64.7114281,112.09406 C64.7308777,111.922986 64.7581071,111.759689 64.7892264,111.60028 C64.804786,111.534184 64.8164558,111.475863 64.8281255,111.409767 C64.8553549,111.277574 64.8903642,111.145381 64.9175936,111.0093 C64.9642725,110.842115 65.0148414,110.678818 65.0731901,110.511633 C65.1393187,110.309455 65.213227,110.115054 65.2871354,109.924541 C65.4193925,109.625163 65.5594294,109.337449 65.7033562,109.061399 C65.7928243,108.90199 65.8822923,108.746469 65.9756502,108.590948 C66.0534485,108.478195 66.1273569,108.361554 66.2012653,108.248801 C66.302403,108.097168 66.4113206,107.957199 66.5163483,107.821118 C66.6252659,107.677261 66.7458533,107.548957 66.8625507,107.416764 C66.9948078,107.257355 67.1348447,107.10961 67.2709917,106.973529 L67.3410102,106.903544 C67.4615975,106.794679 67.5782949,106.674151 67.7222218,106.549734 C67.8155797,106.475861 67.9167175,106.386437 68.0256351,106.304788 C68.1228829,106.227028 68.2318005,106.141491 68.3368282,106.06373 C68.4768651,105.96653 68.6052323,105.873217 68.753049,105.776016 C68.9203154,105.686592 69.0836918,105.577727 69.254848,105.480526 C69.6010504,105.286125 69.982262,105.0995 70.4062626,104.928427 C70.5579693,104.866218 70.7252356,104.807898 70.8925019,104.753465 C71.0597682,104.691257 71.2309244,104.640713 71.4059706,104.590168 C71.7132738,104.50852 72.0322468,104.426871 72.3589996,104.360775 C72.6274037,104.306342 72.9152573,104.267462 73.1992211,104.236358 C73.4870747,104.197478 73.7827082,104.170262 74.0822316,104.154709 C74.2378282,104.143045 74.3934248,104.143045 74.5412415,104.135269 L74.7590767,104.135269 C75.3114445,104.135269 75.8171334,104.158597 76.2917029,104.197478 L76.3850609,104.205254 C76.5756667,104.220806 76.7507128,104.240246 76.9296489,104.267462 C77.2058328,104.294678 77.4547873,104.333559 77.6998519,104.380215 C77.8554485,104.403543 78.0032652,104.438535 78.151082,104.465752 C78.3805869,104.520184 78.5945322,104.570728 78.7968077,104.625161 C78.9485144,104.660153 79.0963311,104.702921 79.240258,104.749577 C79.4075243,104.796234 79.5631208,104.854554 79.7226073,104.908987 L79.8704241,104.955643 C79.9443324,104.982859 80.0493601,105.021739 80.1621676,105.064508 C80.3216541,105.126716 80.5122599,105.204477 80.7300951,105.297789 C80.8623522,105.352222 81.0023891,105.41443 81.1502059,105.480526 C81.2669033,105.542735 81.4069402,105.608831 81.550867,105.67104 C81.597546,105.698256 81.6597846,105.72936 81.7220233,105.752688 L81.7220233,109.123607 C81.6792342,109.096391 81.6325552,109.065287 81.597546,109.045847 L81.3680411,108.909766 C81.1346462,108.769797 80.9129211,108.637604 80.6950859,108.513187 C80.4539112,108.384882 80.2049567,108.264353 79.9676719,108.143825 C79.555341,107.949423 79.1507899,107.786126 78.7695783,107.650045 C78.0343845,107.385659 77.3614294,107.222362 76.7701624,107.113498 C76.696254,107.101833 76.6262356,107.086281 76.560107,107.078505 C76.3928407,107.055177 76.2372441,107.031849 76.0816476,107.016297 C75.8521426,106.992969 75.6304175,106.981305 75.4437016,106.969641 C75.3114445,106.965753 75.198637,106.957977 75.0819396,106.957977 C74.8446548,106.957977 74.5995902,106.965753 74.3428559,106.985193 C74.0511123,107.008521 73.7593687,107.043513 73.4520655,107.086281 C72.9658262,107.171818 72.475697,107.296235 72.0050174,107.467308 C71.9272191,107.490636 71.8610906,107.52174 71.7910721,107.552845 C71.7443931,107.564509 71.6977142,107.583949 71.6471453,107.607277 C71.5732369,107.642269 71.4993285,107.673373 71.4176403,107.708366 C71.250374,107.786126 71.0869976,107.867775 70.9275111,107.961087 C70.8536028,108.007744 70.7758045,108.058288 70.6941163,108.101056 C70.616318,108.155489 70.5346298,108.206033 70.4529416,108.268241 C70.3634736,108.326562 70.2584459,108.400434 70.1689778,108.470419 C70.0756199,108.548179 69.982262,108.62594 69.8966838,108.688148 L69.7916562,108.789237 L69.7333074,108.839781 L69.7021881,108.870886 L69.6593991,108.909766 C69.5076924,109.061399 69.3715454,109.213032 69.2392883,109.368553 C69.1770497,109.450201 69.1070312,109.539626 69.0370128,109.621275 C68.9786641,109.706811 68.9242053,109.78846 68.8736364,109.873996 C68.8191776,109.951757 68.7686087,110.029517 68.7258196,110.111166 C68.6558012,110.227807 68.5896726,110.344448 68.527434,110.464976 C68.484645,110.562177 68.437966,110.667154 68.3990668,110.764354 C68.3212686,110.93154 68.2629198,111.102613 68.212351,111.269798 C68.1695619,111.390327 68.1345527,111.52252 68.0995434,111.643048 C68.0178552,111.989083 67.9711763,112.311789 67.9439469,112.587839 C67.9283872,112.692816 67.9283872,112.790016 67.9206074,112.883329 C67.9167175,113.011634 67.9167175,113.128275 67.9167175,113.221587 L67.9167175,113.435429 C67.9206074,113.625942 67.9439469,113.870888 67.9789561,114.146938 C68.0022956,114.318011 68.0373048,114.49686 68.0839838,114.687373 C68.1151031,114.815678 68.1462224,114.940095 68.1890115,115.072288 C68.2318005,115.192817 68.2706997,115.309457 68.3212686,115.44165 C68.344608,115.523299 68.3796173,115.604947 68.4224063,115.686596 C68.4729752,115.799349 68.527434,115.91599 68.5857827,116.024854 C68.6285718,116.118167 68.6791407,116.207592 68.7297096,116.28924 C68.8386272,116.479753 68.9669943,116.670267 69.1070312,116.86078 C69.1576001,116.930764 69.2120589,116.996861 69.2626278,117.066845 C69.3365362,117.148494 69.4104446,117.241807 69.4882428,117.323455 C69.5349218,117.362335 69.573821,117.408992 69.6127201,117.45176 C70.2312165,118.066068 70.9275111,118.528743 71.6393654,118.855338 C71.7560629,118.901994 71.8688704,118.952538 71.9816779,118.995307 C72.0983753,119.041963 72.2072929,119.084731 72.3239904,119.123611 C72.4445777,119.16638 72.569055,119.201372 72.6974221,119.236364 C72.8141196,119.271356 72.9385968,119.298573 73.0552942,119.329677 C73.1719917,119.356893 73.2964689,119.380221 73.4092764,119.399661 C73.5376436,119.422989 73.6660108,119.44243 73.7982679,119.46187 C73.926635,119.477422 74.0550022,119.492974 74.1872593,119.50075 C74.4323239,119.52019 74.6696087,119.535742 74.9030035,119.535742 C74.9885816,119.535742 75.06249,119.535742 75.1441782,119.527966 C75.3192244,119.527966 75.4826008,119.52019 75.6498671,119.516302 C75.7704544,119.50075 75.879372,119.50075 75.9960694,119.489086 C76.198345,119.465758 76.4122903,119.44243 76.5990062,119.411325 C76.7740523,119.384109 76.9452085,119.356893 77.0969152,119.329677 C77.3380899,119.275244 77.559815,119.2247 77.7620905,119.16638 C77.8865678,119.139164 78.0032652,119.104171 78.1121828,119.069179 C78.2716693,119.018635 78.4155961,118.975866 78.5245137,118.940874 C78.7073397,118.874778 78.8162573,118.839786 78.8162573,118.839786 C78.9796337,118.781465 79.1430101,118.711481 79.3024966,118.65316 C79.5203318,118.559848 79.7226073,118.474311 79.917103,118.384886 C80.0804794,118.307126 80.2321861,118.229365 80.3800028,118.167157 C80.5005902,118.104949 80.6133977,118.04274 80.7145355,117.992196 C80.9012514,117.894995 81.0568479,117.809458 81.1852151,117.739474 L81.5314175,117.552849 L81.5314175,120.861559 C81.5314175,120.861559 81.3174722,120.943208 80.9673799,121.079289 C80.8078934,121.137609 80.6211775,121.203706 80.4072322,121.277578 C80.2905348,121.320346 80.1660576,121.367003 80.0338005,121.413659 C79.9287728,121.444763 79.8237451,121.483644 79.7109376,121.514748 C79.5825704,121.557516 79.4580932,121.60806 79.3258361,121.646941 C79.2208084,121.670269 79.1274504,121.705261 79.0185328,121.736365 L78.9329547,121.763581 C78.8357069,121.78691 78.7306792,121.814126 78.6412112,121.841342 C78.512844,121.868558 78.3883667,121.907438 78.2716693,121.942431 C78.193871,121.954095 78.1082929,121.969647 78.0304946,121.992975 C77.8943476,122.024079 77.7698704,122.055183 77.6337234,122.078512 C77.4975764,122.105728 77.3614294,122.136832 77.2213924,122.156272" id="path3326"></path>
                        <g id="g3328" transform="translate(40.539477, 107.025364)">
                            <path d="M0,4.92332194 L0,0.0749528832 L3.14694066,0.0749528832 C3.14694066,0.0749528832 3.2130692,0.0827289362 3.30642714,0.0827289362 C3.41534474,0.0866169627 3.5670514,0.0943930157 3.75376728,0.106057095 C4.08829991,0.141049334 4.54341988,0.203257758 4.9829802,0.354890792 C5.37586154,0.47930764 5.75707314,0.681485018 6.05270663,0.976975033 C6.16940406,1.09361583 6.262762,1.21025662 6.34056028,1.33078544 C6.58173497,1.7195881 6.6439736,2.11227877 6.65953326,2.33389628 C6.66731308,2.438873 6.66731308,2.48941734 6.66731308,2.48941734 C6.66731308,2.48941734 6.66731308,2.53607366 6.66731308,2.60994617 C6.66731308,2.7032588 6.65175343,2.88210802 6.60507446,3.08039737 C6.54283583,3.30979094 6.43780814,3.57417674 6.23942251,3.82301044 C6.19663346,3.86577873 6.1538444,3.91243505 6.11105534,3.95520334 C6.02547723,4.04073992 5.92822937,4.1262765 5.8270916,4.20403703 C5.65204546,4.32845388 5.45754974,4.43731862 5.24360446,4.52674323 C4.95964071,4.65504811 4.64455766,4.74447272 4.29057546,4.80668114 C4.12330914,4.84167338 3.92492351,4.87277759 3.73820763,4.88444167 C3.61373037,4.9038818 3.50092286,4.90776983 3.37255568,4.91554588 C3.26363808,4.92332194 3.15472049,4.92332194 3.03802306,4.92332194 L0,4.92332194 Z" id="path3330"></path>
                        </g>
                        <g id="g3332" transform="translate(40.539477, 114.697595)">
                            <path d="M-6.70859492e-14,4.62858275 L-6.70859492e-14,0.0329354225 L1.52095649,0.0329354225 C1.52095649,0.0329354225 1.62209426,0.0329354225 1.75824126,0.0329354225 C1.87104877,0.036823449 1.9877462,0.0407114755 2.10055371,0.052375555 C2.41174686,0.0757037141 2.85130717,0.118472006 3.27919774,0.235112801 C3.37255568,0.262328986 3.4581338,0.289545172 3.53204217,0.320649384 C3.87435463,0.441178206 4.20110743,0.612251372 4.46173168,0.864973095 C4.66011731,1.06326245 4.7923744,1.28487996 4.87795251,1.50260944 C4.98687011,1.76310722 5.02576926,2.01194091 5.04521883,2.19079013 C5.05299866,2.35408725 5.05299866,2.45128791 5.05299866,2.45128791 C5.05299866,2.45128791 5.05299866,2.52904844 5.04910874,2.64957726 C5.04521883,2.84786661 5.00242977,3.17446084 4.84294328,3.48550296 C4.765145,3.63713599 4.66011731,3.78099298 4.51619048,3.92096193 C4.34503426,4.08814707 4.14275871,4.224228 3.91714368,4.32142866 C3.4853632,4.51194196 2.99134409,4.58581446 2.58290309,4.60914262 C2.40007711,4.6208067 2.23670071,4.62858275 2.0966638,4.62858275 L-6.70859492e-14,4.62858275 Z" id="path3334"></path>
                        </g>
                        <path d="M30.4724026,125.593288 L56.7020946,125.593288 L56.7020946,100.919871 L30.4724026,100.919871 L30.4724026,125.593288 Z M37.349771,122.136832 L37.349771,104.360775 L44.0443135,104.360775 C44.0443135,104.360775 47.3118415,104.279126 49.1128718,106.075394 C50.5754796,107.54118 50.4743418,109.240248 50.4743418,109.240248 C50.4743418,109.240248 50.5754796,111.005412 49.2178995,112.370109 C48.0587051,113.520965 46.5844275,113.835895 46.5844275,113.835895 C46.5844275,113.835895 47.2496029,114.139161 47.7669615,114.656269 C48.0042463,114.893439 48.8600274,115.667156 48.8600274,117.537297 C48.8600274,119.422989 47.6035851,120.507749 47.6035851,120.507749 C47.6035851,120.507749 46.2265554,122.136832 43.1224038,122.136832 L37.349771,122.136832 Z" id="path3336"></path>
                        <g id="g3338" transform="translate(10.314116, 107.025364)">
                            <path d="M0,4.92332194 L0,0.0749528832 L3.15472049,0.0749528832 C3.15472049,0.0749528832 3.2130692,0.0827289362 3.31420697,0.0827289362 C3.41923466,0.0866169627 3.57483123,0.0943930157 3.7576572,0.106057095 C4.09996966,0.141049334 4.5473098,0.203257758 4.9829802,0.354890792 C5.37975146,0.47930764 5.76096306,0.681485018 6.06048646,0.976975033 C6.17329397,1.09361583 6.262762,1.21025662 6.34056028,1.33078544 C6.58562488,1.7195881 6.64786351,2.11227877 6.65953326,2.33389628 C6.67509291,2.438873 6.67509291,2.48941734 6.67509291,2.48941734 L6.67509291,2.60994617 C6.65953326,2.7032588 6.65175343,2.88210802 6.60507446,3.08039737 C6.54283583,3.30979094 6.43391823,3.57417674 6.2355326,3.82301044 C6.20441328,3.86577873 6.16162423,3.91243505 6.11883517,3.95520334 C6.02547723,4.04073992 5.9360092,4.1262765 5.83876134,4.20403703 C5.65982528,4.32845388 5.46143966,4.43731862 5.25138428,4.52674323 C4.96353063,4.65504811 4.64844757,4.74447272 4.29835528,4.80668114 C4.12719906,4.84167338 3.93270334,4.87277759 3.74209754,4.88444167 C3.62540011,4.9038818 3.50092286,4.90776983 3.38033551,4.91554588 C3.27141791,4.92332194 3.1586104,4.92332194 3.04580289,4.92332194 L0,4.92332194 Z" id="path3340"></path>
                        </g>
                        <g id="g3342" transform="translate(10.314116, 114.697595)">
                            <path d="M0,4.62858275 L0,0.0329354225 L1.52873631,0.0329354225 C1.52873631,0.0329354225 1.62987409,0.0329354225 1.76213117,0.0329354225 C1.86715886,0.036823449 1.99552603,0.0407114755 2.10444363,0.052375555 C2.41563677,0.0757037141 2.859087,0.118472006 3.28697757,0.235112801 C3.37255568,0.262328986 3.45424388,0.289545172 3.54371191,0.320649384 C3.87824454,0.441178206 4.20888726,0.612251372 4.45784177,0.864973095 C4.66011731,1.06326245 4.78848448,1.28487996 4.88573234,1.50260944 C4.98687011,1.76310722 5.02965917,2.01194091 5.04521883,2.19079013 C5.06077848,2.35408725 5.06077848,2.45128791 5.06077848,2.45128791 L5.06077848,2.64957726 C5.037439,2.84786661 5.00242977,3.17446084 4.8468332,3.48550296 C4.76903491,3.63713599 4.66011731,3.78099298 4.52786023,3.92096193 C4.34892417,4.08814707 4.14275871,4.224228 3.91714368,4.32142866 C3.4853632,4.51194196 2.99912391,4.58581446 2.57901317,4.60914262 C2.40396703,4.6208067 2.23670071,4.62858275 2.10444363,4.62858275 L0,4.62858275 Z" id="path3344"></path>
                        </g>
                        <path d="M0.247768575,125.593288 L26.4774606,125.593288 L26.4774606,100.919871 L0.247768575,100.919871 L0.247768575,125.593288 Z M7.12902695,122.136832 L7.12902695,104.360775 L13.8235694,104.360775 C13.8235694,104.360775 17.0872075,104.279126 18.8843479,106.075394 C20.3508456,107.54118 20.2497078,109.240248 20.2497078,109.240248 C20.2497078,109.240248 20.3508456,111.005412 18.9932655,112.370109 C17.8340711,113.520965 16.3597935,113.835895 16.3597935,113.835895 C16.3597935,113.835895 17.0288588,114.139161 17.5384376,114.656269 C17.7796123,114.893439 18.6353934,115.667156 18.6353934,117.537297 C18.6353934,119.422989 17.3789511,120.507749 17.3789511,120.507749 C17.3789511,120.507749 16.0058113,122.136832 12.9055497,122.136832 L7.12902695,122.136832 Z" id="path3346"></path>
                        <g id="g3348" transform="translate(0.238261, 74.279779)">
                            <path d="M2.93741872,18.013767 L4.82791706,18.013767 C7.66366457,18.013767 8.80729937,16.8512471 8.83452877,14.93445 C8.86175817,13.2276064 7.96707789,11.6140754 4.82791706,11.6140754 L2.93741872,11.6140754 L2.93741872,18.013767 Z M0.00831326109,20.5293201 L0.00831326109,0.132733091 L2.93741872,0.132733091 L2.93741872,8.98576945 L4.16274172,8.98576945 C5.66813855,8.98576945 6.88568172,8.50365416 9.58528223,4.31624961 L12.2771029,0.132733091 L15.7741359,0.132733091 C14.3698768,2.06897029 13.860298,2.76103901 12.9889572,4.16850461 C11.4368814,6.70738591 10.2971365,8.59307877 8.44164743,9.81391909 C10.6277793,10.6887251 11.8531023,12.4500011 11.8531023,14.8178092 C11.8531023,18.3442492 9.28186892,20.5293201 5.15466986,20.5293201 L0.00831326109,20.5293201 Z" id="path3350"></path>
                        </g>
                        <g id="g3352" transform="translate(15.835926, 74.325028)">
                            <path d="M9.76475172,16.1119463 L13.0595091,8.72858394 L6.71116901,8.72858394 L9.76475172,16.1119463 Z M10.8383681,20.5987289 L8.77671349,20.5987289 L0.0088466936,0.0893890436 L2.99630086,0.0893890436 L5.57531404,6.09250197 L14.2498229,6.09250197 L16.9727629,0.0893890436 L19.964107,0.0893890436 L10.8383681,20.5987289 Z" id="path3354"></path>
                        </g>
                        <g id="g3356" transform="translate(38.232236, 74.160416)">
                            <path d="M2.93741872,18.013767 L7.44582937,18.013767 C13.1678933,18.013767 15.7702459,14.5456474 15.7702459,10.4476674 C15.7702459,7.93600229 14.2453995,2.88156783 7.60531586,2.88156783 L2.93741872,2.88156783 L2.93741872,18.013767 Z M0.0044233468,0.253261913 L7.95929806,0.253261913 C14.6966296,0.253261913 18.7888194,5.21438374 18.7888194,10.4476674 C18.7888194,15.2610442 15.4668326,20.649849 7.93206866,20.649849 L0.0044233468,20.649849 L0.0044233468,0.253261913 Z" id="path3358"></path>
                        </g>
                        <polygon id="path3360" points="60.4014031 94.8078937 63.3305085 94.8078937 63.3305085 74.4113066 60.4014031 74.4113066"></polygon>
                        <g id="g3362" transform="translate(66.616645, 73.893321)">
                            <path d="M3.11861938,10.7131692 C3.11861938,15.2038398 6.5028448,18.4853341 11.0462647,18.4853341 C15.6285837,18.4853341 19.0089192,15.2038398 19.0089192,10.7131692 C19.0089192,6.25749079 15.6285837,2.93711615 11.0462647,2.93711615 C6.5028448,2.93711615 3.11861938,6.25749079 3.11861938,10.7131692 M0.0961559769,10.7131692 C0.0961559769,5.18050744 4.32060289,0.250489832 10.987916,0.250489832 C17.9002937,0.250489832 22.0274927,5.21549968 22.0274927,10.7131692 C22.0274927,16.3935759 17.7835962,21.1797365 11.0462647,21.1797365 C4.4334104,21.1797365 0.0961559769,16.3663597 0.0961559769,10.7131692" id="path3364"></path>
                        </g>
                        <g id="g3366" transform="translate(106.150074, 0.168803)" fill-rule="nonzero">
                            <path d="M76.6218122,21.3820621 L53.8463641,21.3820621 L53.8463641,83.256116 L44.1099086,83.256116 L57.5534524,108.19003 L76.6218122,108.19003 L76.6218122,21.3820621 Z M64.7225644,129.410879 C29.0092614,129.410879 0.056629343,100.456745 0.056629343,64.7374457 C0.056629343,29.0181462 29.0092614,0.0679008256 64.7225644,0.0679008256 C100.443647,0.0679008256 129.392389,29.0181462 129.392389,64.7374457 C129.392389,100.456745 100.443647,129.410879 64.7225644,129.410879" id="path3368"></path>
                        </g>
                    </g>
                </g>
            </g>
            <path d="M17.911,196 C19.133,192.126 20.3095,188.2585 21.4405,184.3975 C22.5715,180.5365 23.683,176.669 24.775,172.795 C25.867,176.669 26.985,180.543 28.129,184.417 C29.273,188.291 30.456,192.152 31.678,196 L31.678,196 L34.174,196 C35.63,191.45 37.0145,186.848 38.3275,182.194 C39.6405,177.54 40.895,172.847 42.091,168.115 L42.091,168.115 L39.634,168.115 C38.672,172.275 37.619,176.4415 36.475,180.6145 C35.331,184.7875 34.135,188.863 32.887,192.841 C31.691,188.915 30.5275,184.9955 29.3965,181.0825 C28.2655,177.1695 27.167,173.237 26.101,169.285 L26.101,169.285 L23.605,169.285 C22.565,173.211 21.4795,177.1435 20.3485,181.0825 C19.2175,185.0215 18.041,188.967 16.819,192.919 C15.571,188.941 14.3685,184.859 13.2115,180.673 C12.0545,176.487 10.995,172.301 10.033,168.115 L10.033,168.115 L7.498,168.115 C8.694,172.847 9.955,177.54 11.281,182.194 C12.607,186.848 13.985,191.45 15.415,196 L15.415,196 L17.911,196 Z M53.123,196.507 C54.527,196.507 55.801,196.26 56.945,195.766 C58.089,195.272 59.064,194.5635 59.87,193.6405 C60.676,192.7175 61.3,191.6125 61.742,190.3255 C62.184,189.0385 62.405,187.602 62.405,186.016 C62.405,183.91 62.0215,182.0835 61.2545,180.5365 C60.4875,178.9895 59.415,177.7935 58.037,176.9485 C56.659,176.1035 55.021,175.681 53.123,175.681 C51.251,175.681 49.6195,176.1035 48.2285,176.9485 C46.8375,177.7935 45.7585,178.9895 44.9915,180.5365 C44.2245,182.0835 43.841,183.91 43.841,186.016 C43.841,187.602 44.062,189.0385 44.504,190.3255 C44.946,191.6125 45.57,192.7175 46.376,193.6405 C47.182,194.5635 48.157,195.272 49.301,195.766 C50.445,196.26 51.719,196.507 53.123,196.507 Z M53.123,194.557 C51.693,194.557 50.4645,194.206 49.4375,193.504 C48.4105,192.802 47.6175,191.8075 47.0585,190.5205 C46.4995,189.2335 46.22,187.732 46.22,186.016 C46.22,184.3 46.4995,182.8115 47.0585,181.5505 C47.6175,180.2895 48.417,179.321 49.457,178.645 C50.497,177.969 51.719,177.631 53.123,177.631 C54.553,177.631 55.7815,177.969 56.8085,178.645 C57.8355,179.321 58.6285,180.2895 59.1875,181.5505 C59.7465,182.8115 60.026,184.3 60.026,186.016 C60.026,187.732 59.7465,189.2335 59.1875,190.5205 C58.6285,191.8075 57.8355,192.802 56.8085,193.504 C55.7815,194.206 54.553,194.557 53.123,194.557 Z M70.044,196 L70.044,181.141 C70.798,180.075 71.6625,179.256 72.6375,178.684 C73.6125,178.112 74.633,177.826 75.699,177.826 C76.271,177.826 76.804,177.8845 77.298,178.0015 C77.792,178.1185 78.234,178.307 78.624,178.567 L78.624,178.567 L78.624,176.344 C77.87,176.006 76.947,175.837 75.855,175.837 C74.659,175.837 73.567,176.1035 72.579,176.6365 C71.591,177.1695 70.707,177.995 69.927,179.113 L69.927,179.113 L69.654,176.188 L67.743,176.188 L67.743,196 L70.044,196 Z M86.068,196.351 C86.562,196.351 87.03,196.299 87.472,196.195 C87.914,196.091 88.291,195.948 88.603,195.766 L88.603,195.766 L88.603,193.933 C88.239,194.115 87.888,194.2515 87.55,194.3425 C87.212,194.4335 86.874,194.479 86.536,194.479 C85.834,194.479 85.327,194.3035 85.015,193.9525 C84.703,193.6015 84.547,193.036 84.547,192.256 L84.547,192.256 L84.547,166.945 L82.246,166.945 L82.246,192.139 C82.246,193.569 82.558,194.6285 83.182,195.3175 C83.806,196.0065 84.768,196.351 86.068,196.351 Z M100.61,196.507 C103.21,196.507 105.394,195.493 107.162,193.465 L107.162,193.465 L107.396,196 L109.307,196 L109.307,166.945 L107.006,166.945 L107.006,177.163 C105.264,176.175 103.509,175.681 101.741,175.681 C100.233,175.681 98.8745,175.9345 97.6655,176.4415 C96.4565,176.9485 95.423,177.6765 94.565,178.6255 C93.707,179.5745 93.044,180.712 92.576,182.038 C92.108,183.364 91.874,184.846 91.874,186.484 C91.874,188.538 92.225,190.3125 92.927,191.8075 C93.629,193.3025 94.6365,194.4595 95.9495,195.2785 C97.2625,196.0975 98.816,196.507 100.61,196.507 Z M100.844,194.557 C98.712,194.557 97.0805,193.842 95.9495,192.412 C94.8185,190.982 94.253,188.941 94.253,186.289 C94.253,184.469 94.5585,182.9155 95.1695,181.6285 C95.7805,180.3415 96.658,179.3535 97.802,178.6645 C98.946,177.9755 100.337,177.631 101.975,177.631 C102.859,177.631 103.704,177.748 104.51,177.982 C105.316,178.216 106.148,178.593 107.006,179.113 L107.006,179.113 L107.006,191.554 C105.264,193.556 103.21,194.557 100.844,194.557 Z M128.836,196 L128.836,178.06 L139.054,178.06 L139.054,196 L141.355,196 L141.355,176.188 L128.836,176.188 L128.836,174.199 C128.836,170.325 130.318,168.388 133.282,168.388 C133.854,168.388 134.4065,168.4595 134.9395,168.6025 C135.4725,168.7455 135.96,168.96 136.402,169.246 L136.402,169.246 L136.402,167.14 C135.908,166.906 135.3815,166.7305 134.8225,166.6135 C134.2635,166.4965 133.685,166.438 133.087,166.438 C131.709,166.438 130.5325,166.75 129.5575,167.374 C128.5825,167.998 127.835,168.9015 127.315,170.0845 C126.795,171.2675 126.535,172.691 126.535,174.355 L126.535,174.355 L126.535,176.188 L122.713,176.188 L122.713,178.06 L126.535,178.06 L126.535,196 L128.836,196 Z M140.185,171.196 C140.705,171.196 141.121,171.04 141.433,170.728 C141.745,170.416 141.901,170.013 141.901,169.519 C141.901,169.025 141.745,168.6285 141.433,168.3295 C141.121,168.0305 140.705,167.881 140.185,167.881 C139.691,167.881 139.288,168.0305 138.976,168.3295 C138.664,168.6285 138.508,169.025 138.508,169.519 C138.508,170.013 138.664,170.416 138.976,170.728 C139.288,171.04 139.691,171.196 140.185,171.196 Z M150.32,196 L150.32,181.141 C151.074,180.075 151.9385,179.256 152.9135,178.684 C153.8885,178.112 154.909,177.826 155.975,177.826 C156.547,177.826 157.08,177.8845 157.574,178.0015 C158.068,178.1185 158.51,178.307 158.9,178.567 L158.9,178.567 L158.9,176.344 C158.146,176.006 157.223,175.837 156.131,175.837 C154.935,175.837 153.843,176.1035 152.855,176.6365 C151.867,177.1695 150.983,177.995 150.203,179.113 L150.203,179.113 L149.93,176.188 L148.019,176.188 L148.019,196 L150.32,196 Z M167.436,196.507 C168.996,196.507 170.348,196.2665 171.492,195.7855 C172.636,195.3045 173.5135,194.622 174.1245,193.738 C174.7355,192.854 175.041,191.814 175.041,190.618 C175.041,189.604 174.8265,188.7525 174.3975,188.0635 C173.9685,187.3745 173.273,186.7765 172.311,186.2695 C171.349,185.7625 170.036,185.301 168.372,184.885 C167.358,184.625 166.5325,184.3715 165.8955,184.1245 C165.2585,183.8775 164.758,183.6175 164.394,183.3445 C164.03,183.0715 163.7765,182.7465 163.6335,182.3695 C163.4905,181.9925 163.419,181.557 163.419,181.063 C163.419,179.971 163.8675,179.1195 164.7645,178.5085 C165.6615,177.8975 166.877,177.592 168.411,177.592 C170.803,177.592 172.753,178.229 174.261,179.503 L174.261,179.503 L174.261,177.202 C173.507,176.682 172.636,176.2985 171.648,176.0515 C170.66,175.8045 169.594,175.681 168.45,175.681 C166.968,175.681 165.681,175.902 164.589,176.344 C163.497,176.786 162.652,177.423 162.054,178.255 C161.456,179.087 161.157,180.088 161.157,181.258 C161.157,182.246 161.3585,183.0845 161.7615,183.7735 C162.1645,184.4625 162.8535,185.0475 163.8285,185.5285 C164.8035,186.0095 166.123,186.471 167.787,186.913 C169.113,187.225 170.1335,187.55 170.8485,187.888 C171.5635,188.226 172.0575,188.629 172.3305,189.097 C172.6035,189.565 172.74,190.15 172.74,190.852 C172.74,192.048 172.2915,192.971 171.3945,193.621 C170.4975,194.271 169.23,194.596 167.592,194.596 C166.37,194.596 165.2,194.4205 164.082,194.0695 C162.964,193.7185 161.989,193.205 161.157,192.529 L161.157,192.529 L161.157,194.869 C162.119,195.441 163.133,195.857 164.199,196.117 C165.265,196.377 166.344,196.507 167.436,196.507 Z M186.97,196.507 C188.4,196.507 189.726,196.169 190.948,195.493 L190.948,195.493 L190.948,193.465 C190.298,193.803 189.6805,194.0695 189.0955,194.2645 C188.5105,194.4595 187.919,194.557 187.321,194.557 C184.981,194.557 183.811,193.348 183.811,190.93 L183.811,190.93 L183.811,178.06 L190.363,178.06 L190.363,176.188 L183.811,176.188 L183.811,169.636 L181.51,170.221 L181.51,176.188 L177.298,176.188 L177.298,178.06 L181.51,178.06 L181.51,190.774 C181.51,192.646 181.9715,194.0695 182.8945,195.0445 C183.8175,196.0195 185.176,196.507 186.97,196.507 Z M205.875,171.196 C206.395,171.196 206.811,171.04 207.123,170.728 C207.435,170.416 207.591,170.013 207.591,169.519 C207.591,169.025 207.435,168.6285 207.123,168.3295 C206.811,168.0305 206.395,167.881 205.875,167.881 C205.381,167.881 204.978,168.0305 204.666,168.3295 C204.354,168.6285 204.198,169.025 204.198,169.519 C204.198,170.013 204.354,170.416 204.666,170.728 C204.978,171.04 205.381,171.196 205.875,171.196 Z M207.045,196 L207.045,176.188 L204.744,176.188 L204.744,196 L207.045,196 Z M216.01,196 L216.01,180.829 C216.868,179.789 217.8365,178.996 218.9155,178.45 C219.9945,177.904 221.171,177.631 222.445,177.631 C224.057,177.631 225.2985,178.125 226.1695,179.113 C227.0405,180.101 227.476,181.518 227.476,183.364 L227.476,183.364 L227.476,196 L229.777,196 L229.777,183.169 C229.777,181.609 229.4975,180.27 228.9385,179.152 C228.3795,178.034 227.5735,177.176 226.5205,176.578 C225.4675,175.98 224.213,175.681 222.757,175.681 C221.379,175.681 220.1115,175.9475 218.9545,176.4805 C217.7975,177.0135 216.764,177.813 215.854,178.879 L215.854,178.879 L215.62,176.188 L213.709,176.188 L213.709,196 L216.01,196 Z M242.954,196.507 C244.384,196.507 245.71,196.169 246.932,195.493 L246.932,195.493 L246.932,193.465 C246.282,193.803 245.6645,194.0695 245.0795,194.2645 C244.4945,194.4595 243.903,194.557 243.305,194.557 C240.965,194.557 239.795,193.348 239.795,190.93 L239.795,190.93 L239.795,178.06 L246.347,178.06 L246.347,176.188 L239.795,176.188 L239.795,169.636 L237.494,170.221 L237.494,176.188 L233.282,176.188 L233.282,178.06 L237.494,178.06 L237.494,190.774 C237.494,192.646 237.9555,194.0695 238.8785,195.0445 C239.8015,196.0195 241.16,196.507 242.954,196.507 Z M258.783,196.507 C261.435,196.507 263.723,195.87 265.647,194.596 L265.647,194.596 L265.647,192.451 C264.581,193.179 263.515,193.712 262.449,194.05 C261.383,194.388 260.226,194.557 258.978,194.557 C256.664,194.557 254.8635,193.8355 253.5765,192.3925 C252.2895,190.9495 251.62,188.915 251.568,186.289 L251.568,186.289 L266.232,186.289 L266.232,184.885 C266.232,181.973 265.556,179.711 264.204,178.099 C262.852,176.487 260.863,175.681 258.237,175.681 C256.755,175.681 255.455,175.9475 254.337,176.4805 C253.219,177.0135 252.283,177.761 251.529,178.723 C250.775,179.685 250.2095,180.8095 249.8325,182.0965 C249.4555,183.3835 249.267,184.781 249.267,186.289 C249.267,188.369 249.657,190.176 250.437,191.71 C251.217,193.244 252.3155,194.427 253.7325,195.259 C255.1495,196.091 256.833,196.507 258.783,196.507 Z M263.97,184.456 L251.646,184.456 C251.802,183.026 252.166,181.7975 252.738,180.7705 C253.31,179.7435 254.064,178.9505 255,178.3915 C255.936,177.8325 257.015,177.553 258.237,177.553 C261.903,177.553 263.814,179.854 263.97,184.456 L263.97,184.456 Z M273.715,196 L273.715,181.141 C274.469,180.075 275.3335,179.256 276.3085,178.684 C277.2835,178.112 278.304,177.826 279.37,177.826 C279.942,177.826 280.475,177.8845 280.969,178.0015 C281.463,178.1185 281.905,178.307 282.295,178.567 L282.295,178.567 L282.295,176.344 C281.541,176.006 280.618,175.837 279.526,175.837 C278.33,175.837 277.238,176.1035 276.25,176.6365 C275.262,177.1695 274.378,177.995 273.598,179.113 L273.598,179.113 L273.325,176.188 L271.414,176.188 L271.414,196 L273.715,196 Z M290.519,196.507 C291.871,196.507 293.0995,196.26 294.2045,195.766 C295.3095,195.272 296.291,194.544 297.149,193.582 C297.279,195.454 298.319,196.39 300.269,196.39 C301.101,196.39 301.777,196.247 302.297,195.961 L302.297,195.961 L302.297,194.206 C301.829,194.44 301.322,194.557 300.776,194.557 C300.282,194.557 299.9245,194.4205 299.7035,194.1475 C299.4825,193.8745 299.372,193.452 299.372,192.88 L299.372,192.88 L299.372,182.389 C299.372,180.985 299.0795,179.7825 298.4945,178.7815 C297.9095,177.7805 297.0775,177.0135 295.9985,176.4805 C294.9195,175.9475 293.626,175.681 292.118,175.681 C289.778,175.681 287.555,176.279 285.449,177.475 L285.449,177.475 L285.449,179.659 C286.515,178.957 287.5745,178.4435 288.6275,178.1185 C289.6805,177.7935 290.805,177.631 292.001,177.631 C293.639,177.631 294.8935,178.06 295.7645,178.918 C296.6355,179.776 297.071,181.011 297.071,182.623 L297.071,182.623 L297.071,185.236 C296.447,185.158 295.745,185.093 294.965,185.041 C294.185,184.989 293.47,184.963 292.82,184.963 C289.986,184.963 287.815,185.483 286.307,186.523 C284.799,187.563 284.045,189.045 284.045,190.969 C284.045,192.711 284.617,194.0695 285.761,195.0445 C286.905,196.0195 288.491,196.507 290.519,196.507 Z M290.753,194.635 C287.841,194.635 286.385,193.4 286.385,190.93 C286.385,189.474 286.918,188.4145 287.984,187.7515 C289.05,187.0885 290.714,186.757 292.976,186.757 C293.652,186.757 294.3475,186.783 295.0625,186.835 C295.7775,186.887 296.447,186.952 297.071,187.03 L297.071,187.03 L297.071,191.593 C295.381,193.621 293.275,194.635 290.753,194.635 Z M314.421,196.507 C316.553,196.507 318.529,195.909 320.349,194.713 L320.349,194.713 L320.349,192.529 C319.387,193.231 318.412,193.7445 317.424,194.0695 C316.436,194.3945 315.396,194.557 314.304,194.557 C312.822,194.557 311.5415,194.219 310.4625,193.543 C309.3835,192.867 308.558,191.8855 307.986,190.5985 C307.414,189.3115 307.128,187.784 307.128,186.016 C307.128,184.248 307.4205,182.74 308.0055,181.492 C308.5905,180.244 309.4225,179.2885 310.5015,178.6255 C311.5805,177.9625 312.874,177.631 314.382,177.631 C315.396,177.631 316.3775,177.787 317.3265,178.099 C318.2755,178.411 319.192,178.905 320.076,179.581 L320.076,179.581 L320.076,177.358 C319.322,176.812 318.477,176.396 317.541,176.11 C316.605,175.824 315.591,175.681 314.499,175.681 C312.497,175.681 310.7615,176.097 309.2925,176.929 C307.8235,177.761 306.699,178.9505 305.919,180.4975 C305.139,182.0445 304.749,183.884 304.749,186.016 C304.749,188.2 305.1325,190.0785 305.8995,191.6515 C306.6665,193.2245 307.778,194.427 309.234,195.259 C310.69,196.091 312.419,196.507 314.421,196.507 Z M332.005,196.507 C333.435,196.507 334.761,196.169 335.983,195.493 L335.983,195.493 L335.983,193.465 C335.333,193.803 334.7155,194.0695 334.1305,194.2645 C333.5455,194.4595 332.954,194.557 332.356,194.557 C330.016,194.557 328.846,193.348 328.846,190.93 L328.846,190.93 L328.846,178.06 L335.398,178.06 L335.398,176.188 L328.846,176.188 L328.846,169.636 L326.545,170.221 L326.545,176.188 L322.333,176.188 L322.333,178.06 L326.545,178.06 L326.545,190.774 C326.545,192.646 327.0065,194.0695 327.9295,195.0445 C328.8525,196.0195 330.211,196.507 332.005,196.507 Z M341.36,171.196 C341.88,171.196 342.296,171.04 342.608,170.728 C342.92,170.416 343.076,170.013 343.076,169.519 C343.076,169.025 342.92,168.6285 342.608,168.3295 C342.296,168.0305 341.88,167.881 341.36,167.881 C340.866,167.881 340.463,168.0305 340.151,168.3295 C339.839,168.6285 339.683,169.025 339.683,169.519 C339.683,170.013 339.839,170.416 340.151,170.728 C340.463,171.04 340.866,171.196 341.36,171.196 Z M342.53,196 L342.53,176.188 L340.229,176.188 L340.229,196 L342.53,196 Z M356.409,196 C357.813,192.802 359.178,189.565 360.504,186.289 C361.83,183.013 363.117,179.646 364.365,176.188 L364.365,176.188 L361.986,176.188 C360.946,179.178 359.867,182.1225 358.749,185.0215 C357.631,187.9205 356.474,190.787 355.278,193.621 C354.082,190.813 352.9315,187.953 351.8265,185.041 C350.7215,182.129 349.649,179.178 348.609,176.188 L348.609,176.188 L346.152,176.188 C348.648,183.156 351.274,189.76 354.03,196 L354.03,196 L356.409,196 Z M375.592,196.507 C378.244,196.507 380.532,195.87 382.456,194.596 L382.456,194.596 L382.456,192.451 C381.39,193.179 380.324,193.712 379.258,194.05 C378.192,194.388 377.035,194.557 375.787,194.557 C373.473,194.557 371.6725,193.8355 370.3855,192.3925 C369.0985,190.9495 368.429,188.915 368.377,186.289 L368.377,186.289 L383.041,186.289 L383.041,184.885 C383.041,181.973 382.365,179.711 381.013,178.099 C379.661,176.487 377.672,175.681 375.046,175.681 C373.564,175.681 372.264,175.9475 371.146,176.4805 C370.028,177.0135 369.092,177.761 368.338,178.723 C367.584,179.685 367.0185,180.8095 366.6415,182.0965 C366.2645,183.3835 366.076,184.781 366.076,186.289 C366.076,188.369 366.466,190.176 367.246,191.71 C368.026,193.244 369.1245,194.427 370.5415,195.259 C371.9585,196.091 373.642,196.507 375.592,196.507 Z M380.779,184.456 L368.455,184.456 C368.611,183.026 368.975,181.7975 369.547,180.7705 C370.119,179.7435 370.873,178.9505 371.809,178.3915 C372.745,177.8325 373.824,177.553 375.046,177.553 C378.712,177.553 380.623,179.854 380.779,184.456 L380.779,184.456 Z M400.074,196 L400.074,181.141 C400.828,180.075 401.6925,179.256 402.6675,178.684 C403.6425,178.112 404.663,177.826 405.729,177.826 C406.301,177.826 406.834,177.8845 407.328,178.0015 C407.822,178.1185 408.264,178.307 408.654,178.567 L408.654,178.567 L408.654,176.344 C407.9,176.006 406.977,175.837 405.885,175.837 C404.689,175.837 403.597,176.1035 402.609,176.6365 C401.621,177.1695 400.737,177.995 399.957,179.113 L399.957,179.113 L399.684,176.188 L397.773,176.188 L397.773,196 L400.074,196 Z M416.878,196.507 C418.23,196.507 419.4585,196.26 420.5635,195.766 C421.6685,195.272 422.65,194.544 423.508,193.582 C423.638,195.454 424.678,196.39 426.628,196.39 C427.46,196.39 428.136,196.247 428.656,195.961 L428.656,195.961 L428.656,194.206 C428.188,194.44 427.681,194.557 427.135,194.557 C426.641,194.557 426.2835,194.4205 426.0625,194.1475 C425.8415,193.8745 425.731,193.452 425.731,192.88 L425.731,192.88 L425.731,182.389 C425.731,180.985 425.4385,179.7825 424.8535,178.7815 C424.2685,177.7805 423.4365,177.0135 422.3575,176.4805 C421.2785,175.9475 419.985,175.681 418.477,175.681 C416.137,175.681 413.914,176.279 411.808,177.475 L411.808,177.475 L411.808,179.659 C412.874,178.957 413.9335,178.4435 414.9865,178.1185 C416.0395,177.7935 417.164,177.631 418.36,177.631 C419.998,177.631 421.2525,178.06 422.1235,178.918 C422.9945,179.776 423.43,181.011 423.43,182.623 L423.43,182.623 L423.43,185.236 C422.806,185.158 422.104,185.093 421.324,185.041 C420.544,184.989 419.829,184.963 419.179,184.963 C416.345,184.963 414.174,185.483 412.666,186.523 C411.158,187.563 410.404,189.045 410.404,190.969 C410.404,192.711 410.976,194.0695 412.12,195.0445 C413.264,196.0195 414.85,196.507 416.878,196.507 Z M417.112,194.635 C414.2,194.635 412.744,193.4 412.744,190.93 C412.744,189.474 413.277,188.4145 414.343,187.7515 C415.409,187.0885 417.073,186.757 419.335,186.757 C420.011,186.757 420.7065,186.783 421.4215,186.835 C422.1365,186.887 422.806,186.952 423.43,187.03 L423.43,187.03 L423.43,191.593 C421.74,193.621 419.634,194.635 417.112,194.635 Z M439.844,196.507 C442.444,196.507 444.628,195.493 446.396,193.465 L446.396,193.465 L446.63,196 L448.541,196 L448.541,166.945 L446.24,166.945 L446.24,177.163 C444.498,176.175 442.743,175.681 440.975,175.681 C439.467,175.681 438.1085,175.9345 436.8995,176.4415 C435.6905,176.9485 434.657,177.6765 433.799,178.6255 C432.941,179.5745 432.278,180.712 431.81,182.038 C431.342,183.364 431.108,184.846 431.108,186.484 C431.108,188.538 431.459,190.3125 432.161,191.8075 C432.863,193.3025 433.8705,194.4595 435.1835,195.2785 C436.4965,196.0975 438.05,196.507 439.844,196.507 Z M440.078,194.557 C437.946,194.557 436.3145,193.842 435.1835,192.412 C434.0525,190.982 433.487,188.941 433.487,186.289 C433.487,184.469 433.7925,182.9155 434.4035,181.6285 C435.0145,180.3415 435.892,179.3535 437.036,178.6645 C438.18,177.9755 439.571,177.631 441.209,177.631 C442.093,177.631 442.938,177.748 443.744,177.982 C444.55,178.216 445.382,178.593 446.24,179.113 L446.24,179.113 L446.24,191.554 C444.498,193.556 442.444,194.557 440.078,194.557 Z M456.336,171.196 C456.856,171.196 457.272,171.04 457.584,170.728 C457.896,170.416 458.052,170.013 458.052,169.519 C458.052,169.025 457.896,168.6285 457.584,168.3295 C457.272,168.0305 456.856,167.881 456.336,167.881 C455.842,167.881 455.439,168.0305 455.127,168.3295 C454.815,168.6285 454.659,169.025 454.659,169.519 C454.659,170.013 454.815,170.416 455.127,170.728 C455.439,171.04 455.842,171.196 456.336,171.196 Z M457.506,196 L457.506,176.188 L455.205,176.188 L455.205,196 L457.506,196 Z M472.126,196.507 C473.53,196.507 474.804,196.26 475.948,195.766 C477.092,195.272 478.067,194.5635 478.873,193.6405 C479.679,192.7175 480.303,191.6125 480.745,190.3255 C481.187,189.0385 481.408,187.602 481.408,186.016 C481.408,183.91 481.0245,182.0835 480.2575,180.5365 C479.4905,178.9895 478.418,177.7935 477.04,176.9485 C475.662,176.1035 474.024,175.681 472.126,175.681 C470.254,175.681 468.6225,176.1035 467.2315,176.9485 C465.8405,177.7935 464.7615,178.9895 463.9945,180.5365 C463.2275,182.0835 462.844,183.91 462.844,186.016 C462.844,187.602 463.065,189.0385 463.507,190.3255 C463.949,191.6125 464.573,192.7175 465.379,193.6405 C466.185,194.5635 467.16,195.272 468.304,195.766 C469.448,196.26 470.722,196.507 472.126,196.507 Z M472.126,194.557 C470.696,194.557 469.4675,194.206 468.4405,193.504 C467.4135,192.802 466.6205,191.8075 466.0615,190.5205 C465.5025,189.2335 465.223,187.732 465.223,186.016 C465.223,184.3 465.5025,182.8115 466.0615,181.5505 C466.6205,180.2895 467.42,179.321 468.46,178.645 C469.5,177.969 470.722,177.631 472.126,177.631 C473.556,177.631 474.7845,177.969 475.8115,178.645 C476.8385,179.321 477.6315,180.2895 478.1905,181.5505 C478.7495,182.8115 479.029,184.3 479.029,186.016 C479.029,187.732 478.7495,189.2335 478.1905,190.5205 C477.6315,191.8075 476.8385,192.802 475.8115,193.504 C474.7845,194.206 473.556,194.557 472.126,194.557 Z M503.16,196.507 C504.59,196.507 505.916,196.169 507.138,195.493 L507.138,195.493 L507.138,193.465 C506.488,193.803 505.8705,194.0695 505.2855,194.2645 C504.7005,194.4595 504.109,194.557 503.511,194.557 C501.171,194.557 500.001,193.348 500.001,190.93 L500.001,190.93 L500.001,178.06 L506.553,178.06 L506.553,176.188 L500.001,176.188 L500.001,169.636 L497.7,170.221 L497.7,176.188 L493.488,176.188 L493.488,178.06 L497.7,178.06 L497.7,190.774 C497.7,192.646 498.1615,194.0695 499.0845,195.0445 C500.0075,196.0195 501.366,196.507 503.16,196.507 Z M513.685,196 L513.685,180.829 C514.543,179.789 515.5115,178.996 516.5905,178.45 C517.6695,177.904 518.846,177.631 520.12,177.631 C521.732,177.631 522.9735,178.125 523.8445,179.113 C524.7155,180.101 525.151,181.518 525.151,183.364 L525.151,183.364 L525.151,196 L527.452,196 L527.452,183.169 C527.452,181.609 527.1725,180.27 526.6135,179.152 C526.0545,178.034 525.2485,177.176 524.1955,176.578 C523.1425,175.98 521.888,175.681 520.432,175.681 C517.702,175.681 515.453,176.708 513.685,178.762 L513.685,178.762 L513.685,166.945 L511.384,166.945 L511.384,196 L513.685,196 Z M538.835,196.507 C540.187,196.507 541.4155,196.26 542.5205,195.766 C543.6255,195.272 544.607,194.544 545.465,193.582 C545.595,195.454 546.635,196.39 548.585,196.39 C549.417,196.39 550.093,196.247 550.613,195.961 L550.613,195.961 L550.613,194.206 C550.145,194.44 549.638,194.557 549.092,194.557 C548.598,194.557 548.2405,194.4205 548.0195,194.1475 C547.7985,193.8745 547.688,193.452 547.688,192.88 L547.688,192.88 L547.688,182.389 C547.688,180.985 547.3955,179.7825 546.8105,178.7815 C546.2255,177.7805 545.3935,177.0135 544.3145,176.4805 C543.2355,175.9475 541.942,175.681 540.434,175.681 C538.094,175.681 535.871,176.279 533.765,177.475 L533.765,177.475 L533.765,179.659 C534.831,178.957 535.8905,178.4435 536.9435,178.1185 C537.9965,177.7935 539.121,177.631 540.317,177.631 C541.955,177.631 543.2095,178.06 544.0805,178.918 C544.9515,179.776 545.387,181.011 545.387,182.623 L545.387,182.623 L545.387,185.236 C544.763,185.158 544.061,185.093 543.281,185.041 C542.501,184.989 541.786,184.963 541.136,184.963 C538.302,184.963 536.131,185.483 534.623,186.523 C533.115,187.563 532.361,189.045 532.361,190.969 C532.361,192.711 532.933,194.0695 534.077,195.0445 C535.221,196.0195 536.807,196.507 538.835,196.507 Z M539.069,194.635 C536.157,194.635 534.701,193.4 534.701,190.93 C534.701,189.474 535.234,188.4145 536.3,187.7515 C537.366,187.0885 539.03,186.757 541.292,186.757 C541.968,186.757 542.6635,186.783 543.3785,186.835 C544.0935,186.887 544.763,186.952 545.387,187.03 L545.387,187.03 L545.387,191.593 C543.697,193.621 541.591,194.635 539.069,194.635 Z M561.255,196.507 C562.685,196.507 564.011,196.169 565.233,195.493 L565.233,195.493 L565.233,193.465 C564.583,193.803 563.9655,194.0695 563.3805,194.2645 C562.7955,194.4595 562.204,194.557 561.606,194.557 C559.266,194.557 558.096,193.348 558.096,190.93 L558.096,190.93 L558.096,178.06 L564.648,178.06 L564.648,176.188 L558.096,176.188 L558.096,169.636 L555.795,170.221 L555.795,176.188 L551.583,176.188 L551.583,178.06 L555.795,178.06 L555.795,190.774 C555.795,192.646 556.2565,194.0695 557.1795,195.0445 C558.1025,196.0195 559.461,196.507 561.255,196.507 Z M587.219,196.507 C589.871,196.507 592.159,195.87 594.083,194.596 L594.083,194.596 L594.083,192.451 C593.017,193.179 591.951,193.712 590.885,194.05 C589.819,194.388 588.662,194.557 587.414,194.557 C585.1,194.557 583.2995,193.8355 582.0125,192.3925 C580.7255,190.9495 580.056,188.915 580.004,186.289 L580.004,186.289 L594.668,186.289 L594.668,184.885 C594.668,181.973 593.992,179.711 592.64,178.099 C591.288,176.487 589.299,175.681 586.673,175.681 C585.191,175.681 583.891,175.9475 582.773,176.4805 C581.655,177.0135 580.719,177.761 579.965,178.723 C579.211,179.685 578.6455,180.8095 578.2685,182.0965 C577.8915,183.3835 577.703,184.781 577.703,186.289 C577.703,188.369 578.093,190.176 578.873,191.71 C579.653,193.244 580.7515,194.427 582.1685,195.259 C583.5855,196.091 585.269,196.507 587.219,196.507 Z M592.406,184.456 L580.082,184.456 C580.238,183.026 580.602,181.7975 581.174,180.7705 C581.746,179.7435 582.5,178.9505 583.436,178.3915 C584.372,177.8325 585.451,177.553 586.673,177.553 C590.339,177.553 592.25,179.854 592.406,184.456 L592.406,184.456 Z M602.151,196 L602.151,180.829 C603.009,179.789 603.9775,178.996 605.0565,178.45 C606.1355,177.904 607.312,177.631 608.586,177.631 C610.198,177.631 611.4395,178.125 612.3105,179.113 C613.1815,180.101 613.617,181.518 613.617,183.364 L613.617,183.364 L613.617,196 L615.918,196 L615.918,183.169 C615.918,181.609 615.6385,180.27 615.0795,179.152 C614.5205,178.034 613.7145,177.176 612.6615,176.578 C611.6085,175.98 610.354,175.681 608.898,175.681 C607.52,175.681 606.2525,175.9475 605.0955,176.4805 C603.9385,177.0135 602.905,177.813 601.995,178.879 L601.995,178.879 L601.761,176.188 L599.85,176.188 L599.85,196 L602.151,196 Z M627.301,196.507 C628.653,196.507 629.8815,196.26 630.9865,195.766 C632.0915,195.272 633.073,194.544 633.931,193.582 C634.061,195.454 635.101,196.39 637.051,196.39 C637.883,196.39 638.559,196.247 639.079,195.961 L639.079,195.961 L639.079,194.206 C638.611,194.44 638.104,194.557 637.558,194.557 C637.064,194.557 636.7065,194.4205 636.4855,194.1475 C636.2645,193.8745 636.154,193.452 636.154,192.88 L636.154,192.88 L636.154,182.389 C636.154,180.985 635.8615,179.7825 635.2765,178.7815 C634.6915,177.7805 633.8595,177.0135 632.7805,176.4805 C631.7015,175.9475 630.408,175.681 628.9,175.681 C626.56,175.681 624.337,176.279 622.231,177.475 L622.231,177.475 L622.231,179.659 C623.297,178.957 624.3565,178.4435 625.4095,178.1185 C626.4625,177.7935 627.587,177.631 628.783,177.631 C630.421,177.631 631.6755,178.06 632.5465,178.918 C633.4175,179.776 633.853,181.011 633.853,182.623 L633.853,182.623 L633.853,185.236 C633.229,185.158 632.527,185.093 631.747,185.041 C630.967,184.989 630.252,184.963 629.602,184.963 C626.768,184.963 624.597,185.483 623.089,186.523 C621.581,187.563 620.827,189.045 620.827,190.969 C620.827,192.711 621.399,194.0695 622.543,195.0445 C623.687,196.0195 625.273,196.507 627.301,196.507 Z M627.535,194.635 C624.623,194.635 623.167,193.4 623.167,190.93 C623.167,189.474 623.7,188.4145 624.766,187.7515 C625.832,187.0885 627.496,186.757 629.758,186.757 C630.434,186.757 631.1295,186.783 631.8445,186.835 C632.5595,186.887 633.229,186.952 633.853,187.03 L633.853,187.03 L633.853,191.593 C632.163,193.621 630.057,194.635 627.535,194.635 Z M650.228,196.507 C652.308,196.507 654.0955,196.065 655.5905,195.181 C657.0855,194.297 658.2425,193.049 659.0615,191.437 C659.8805,189.825 660.29,187.914 660.29,185.704 C660.29,183.65 659.9325,181.8755 659.2175,180.3805 C658.5025,178.8855 657.495,177.7285 656.195,176.9095 C654.895,176.0905 653.348,175.681 651.554,175.681 C649.032,175.681 646.9,176.643 645.158,178.567 L645.158,178.567 L645.158,166.945 L642.857,166.945 L642.857,194.791 C644.235,195.389 645.509,195.8245 646.679,196.0975 C647.849,196.3705 649.032,196.507 650.228,196.507 Z M649.994,194.557 C649.396,194.557 648.8435,194.5245 648.3365,194.4595 C647.8295,194.3945 647.3225,194.284 646.8155,194.128 C646.3085,193.972 645.756,193.764 645.158,193.504 L645.158,193.504 L645.158,180.634 C646.068,179.594 647.0235,178.8335 648.0245,178.3525 C649.0255,177.8715 650.124,177.631 651.32,177.631 C653.452,177.631 655.0835,178.346 656.2145,179.776 C657.3455,181.206 657.911,183.247 657.911,185.899 C657.911,188.681 657.2285,190.8195 655.8635,192.3145 C654.4985,193.8095 652.542,194.557 649.994,194.557 Z M669.333,196.351 C669.827,196.351 670.295,196.299 670.737,196.195 C671.179,196.091 671.556,195.948 671.868,195.766 L671.868,195.766 L671.868,193.933 C671.504,194.115 671.153,194.2515 670.815,194.3425 C670.477,194.4335 670.139,194.479 669.801,194.479 C669.099,194.479 668.592,194.3035 668.28,193.9525 C667.968,193.6015 667.812,193.036 667.812,192.256 L667.812,192.256 L667.812,166.945 L665.511,166.945 L665.511,192.139 C665.511,193.569 665.823,194.6285 666.447,195.3175 C667.071,196.0065 668.033,196.351 669.333,196.351 Z M684.655,196.507 C687.307,196.507 689.595,195.87 691.519,194.596 L691.519,194.596 L691.519,192.451 C690.453,193.179 689.387,193.712 688.321,194.05 C687.255,194.388 686.098,194.557 684.85,194.557 C682.536,194.557 680.7355,193.8355 679.4485,192.3925 C678.1615,190.9495 677.492,188.915 677.44,186.289 L677.44,186.289 L692.104,186.289 L692.104,184.885 C692.104,181.973 691.428,179.711 690.076,178.099 C688.724,176.487 686.735,175.681 684.109,175.681 C682.627,175.681 681.327,175.9475 680.209,176.4805 C679.091,177.0135 678.155,177.761 677.401,178.723 C676.647,179.685 676.0815,180.8095 675.7045,182.0965 C675.3275,183.3835 675.139,184.781 675.139,186.289 C675.139,188.369 675.529,190.176 676.309,191.71 C677.089,193.244 678.1875,194.427 679.6045,195.259 C681.0215,196.091 682.705,196.507 684.655,196.507 Z M689.842,184.456 L677.518,184.456 C677.674,183.026 678.038,181.7975 678.61,180.7705 C679.182,179.7435 679.936,178.9505 680.872,178.3915 C681.808,177.8325 682.887,177.553 684.109,177.553 C687.775,177.553 689.686,179.854 689.842,184.456 L689.842,184.456 Z M702.083,196.507 C703.643,196.507 704.995,196.2665 706.139,195.7855 C707.283,195.3045 708.1605,194.622 708.7715,193.738 C709.3825,192.854 709.688,191.814 709.688,190.618 C709.688,189.604 709.4735,188.7525 709.0445,188.0635 C708.6155,187.3745 707.92,186.7765 706.958,186.2695 C705.996,185.7625 704.683,185.301 703.019,184.885 C702.005,184.625 701.1795,184.3715 700.5425,184.1245 C699.9055,183.8775 699.405,183.6175 699.041,183.3445 C698.677,183.0715 698.4235,182.7465 698.2805,182.3695 C698.1375,181.9925 698.066,181.557 698.066,181.063 C698.066,179.971 698.5145,179.1195 699.4115,178.5085 C700.3085,177.8975 701.524,177.592 703.058,177.592 C705.45,177.592 707.4,178.229 708.908,179.503 L708.908,179.503 L708.908,177.202 C708.154,176.682 707.283,176.2985 706.295,176.0515 C705.307,175.8045 704.241,175.681 703.097,175.681 C701.615,175.681 700.328,175.902 699.236,176.344 C698.144,176.786 697.299,177.423 696.701,178.255 C696.103,179.087 695.804,180.088 695.804,181.258 C695.804,182.246 696.0055,183.0845 696.4085,183.7735 C696.8115,184.4625 697.5005,185.0475 698.4755,185.5285 C699.4505,186.0095 700.77,186.471 702.434,186.913 C703.76,187.225 704.7805,187.55 705.4955,187.888 C706.2105,188.226 706.7045,188.629 706.9775,189.097 C707.2505,189.565 707.387,190.15 707.387,190.852 C707.387,192.048 706.9385,192.971 706.0415,193.621 C705.1445,194.271 703.877,194.596 702.239,194.596 C701.017,194.596 699.847,194.4205 698.729,194.0695 C697.611,193.7185 696.636,193.205 695.804,192.529 L695.804,192.529 L695.804,194.869 C696.766,195.441 697.78,195.857 698.846,196.117 C699.912,196.377 700.991,196.507 702.083,196.507 Z M94.1455,248 L94.1455,241.916 L80.8465,241.916 L80.8465,236.846 L91.8445,236.846 L91.8445,230.762 L80.8465,230.762 L80.8465,226.199 L93.4045,226.199 L93.4045,220.115 L73.4365,220.115 L73.4365,248 L94.1455,248 Z M113.9915,248 C115.7855,243.346 117.5535,238.692 119.2955,234.038 C121.0375,229.384 122.7275,224.743 124.3655,220.115 L124.3655,220.115 L116.2925,220.115 C115.2785,223.495 114.245,226.862 113.192,230.216 C112.139,233.57 111.0665,236.924 109.9745,240.278 C108.9085,236.924 107.849,233.57 106.796,230.216 C105.743,226.862 104.7095,223.495 103.6955,220.115 L103.6955,220.115 L95.3885,220.115 C97.0265,224.743 98.7165,229.384 100.4585,234.038 C102.2005,238.692 103.9685,243.346 105.7625,248 L105.7625,248 L113.9915,248 Z M147.7995,248 L147.7995,241.916 L134.5005,241.916 L134.5005,236.846 L145.4985,236.846 L145.4985,230.762 L134.5005,230.762 L134.5005,226.199 L147.0585,226.199 L147.0585,220.115 L127.0905,220.115 L127.0905,248 L147.7995,248 Z M158.6365,248 L158.6365,238.601 L162.4585,238.601 C163.3685,240.135 164.246,241.6885 165.091,243.2615 C165.936,244.8345 166.7745,246.414 167.6065,248 L167.6065,248 L175.9915,248 C174.9255,246.102 173.84,244.243 172.735,242.423 C171.63,240.603 170.5055,238.796 169.3615,237.002 C170.8175,236.222 171.942,235.182 172.735,233.882 C173.528,232.582 173.9245,231.074 173.9245,229.358 C173.9245,226.368 172.8975,224.08 170.8435,222.494 C168.7895,220.908 165.8255,220.115 161.9515,220.115 L161.9515,220.115 L151.2655,220.115 L151.2655,248 L158.6365,248 Z M161.6005,232.751 L158.6365,232.751 L158.6365,225.965 L161.6005,225.965 C163.1865,225.965 164.3565,226.2445 165.1105,226.8035 C165.8645,227.3625 166.2415,228.214 166.2415,229.358 C166.2415,230.476 165.8645,231.321 165.1105,231.893 C164.3565,232.465 163.1865,232.751 161.6005,232.751 L161.6005,232.751 Z M192.9125,248 L192.9125,237.665 C194.7065,234.753 196.4745,231.8345 198.2165,228.9095 C199.9585,225.9845 201.6615,223.053 203.3255,220.115 L203.3255,220.115 L194.9795,220.115 C194.0695,221.961 193.1335,223.8135 192.1715,225.6725 C191.2095,227.5315 190.2475,229.384 189.2855,231.23 C188.2975,229.384 187.329,227.538 186.38,225.692 C185.431,223.846 184.4885,221.987 183.5525,220.115 L183.5525,220.115 L174.9335,220.115 C176.5715,223.053 178.2615,225.9845 180.0035,228.9095 C181.7455,231.8345 183.5135,234.753 185.3075,237.665 L185.3075,237.665 L185.3075,248 L192.9125,248 Z M234.6715,248 L234.6715,241.448 L222.2695,241.448 L222.2695,220.115 L214.6645,220.115 L214.6645,248 L234.6715,248 Z M245.1965,248 L245.1965,220.115 L237.5915,220.115 L237.5915,248 L245.1965,248 Z M258.5685,248.585 C261.1165,248.585 263.281,248.234 265.062,247.532 C266.843,246.83 268.208,245.803 269.157,244.451 C270.106,243.099 270.5805,241.461 270.5805,239.537 C270.5805,238.081 270.3465,236.8655 269.8785,235.8905 C269.4105,234.9155 268.7475,234.1095 267.8895,233.4725 C267.0315,232.8355 266.0175,232.296 264.8475,231.854 C263.6775,231.412 262.3775,231.022 260.9475,230.684 C259.5695,230.346 258.51,229.9885 257.769,229.6115 C257.028,229.2345 256.6575,228.669 256.6575,227.915 C256.6575,227.187 257.015,226.6345 257.73,226.2575 C258.445,225.8805 259.4525,225.692 260.7525,225.692 C261.6625,225.692 262.605,225.7765 263.58,225.9455 C264.555,226.1145 265.5235,226.3615 266.4855,226.6865 C267.4475,227.0115 268.3575,227.434 269.2155,227.954 L269.2155,227.954 L269.2155,221.441 C268.0195,220.843 266.6805,220.375 265.1985,220.037 C263.7165,219.699 262.2085,219.53 260.6745,219.53 C258.3085,219.53 256.2545,219.8875 254.5125,220.6025 C252.7705,221.3175 251.4315,222.338 250.4955,223.664 C249.5595,224.99 249.0915,226.589 249.0915,228.461 C249.0915,229.683 249.2735,230.749 249.6375,231.659 C250.0015,232.569 250.5735,233.3685 251.3535,234.0575 C252.1335,234.7465 253.1475,235.351 254.3955,235.871 C255.6435,236.391 257.1515,236.859 258.9195,237.275 C259.7255,237.457 260.4275,237.665 261.0255,237.899 C261.6235,238.133 262.0915,238.4125 262.4295,238.7375 C262.7675,239.0625 262.9365,239.498 262.9365,240.044 C262.9365,240.798 262.5595,241.383 261.8055,241.799 C261.0515,242.215 259.9335,242.423 258.4515,242.423 C256.9435,242.423 255.429,242.2085 253.908,241.7795 C252.387,241.3505 250.8985,240.72 249.4425,239.888 L249.4425,239.888 L249.4425,246.479 C250.9505,247.207 252.452,247.74 253.947,248.078 C255.442,248.416 256.9825,248.585 258.5685,248.585 Z M287.5015,248 L287.5015,226.667 L295.8475,226.667 L295.8475,220.115 L271.5505,220.115 L271.5505,226.667 L279.8965,226.667 L279.8965,248 L287.5015,248 Z M319.4765,248 L319.4765,241.916 L306.1775,241.916 L306.1775,236.846 L317.1755,236.846 L317.1755,230.762 L306.1775,230.762 L306.1775,226.199 L318.7355,226.199 L318.7355,220.115 L298.7675,220.115 L298.7675,248 L319.4765,248 Z M330.1965,248 L330.1965,231.074 C331.8865,233.778 333.609,236.5665 335.364,239.4395 C337.119,242.3125 338.8285,245.166 340.4925,248 L340.4925,248 L348.1365,248 L348.1365,220.115 L340.8825,220.115 L340.8825,236.729 C339.1925,233.895 337.4895,231.087 335.7735,228.305 C334.0575,225.523 332.3285,222.793 330.5865,220.115 L330.5865,220.115 L322.9425,220.115 L322.9425,248 L330.1965,248 Z M373.7935,248 L373.7935,241.916 L360.4945,241.916 L360.4945,236.846 L371.4925,236.846 L371.4925,230.762 L360.4945,230.762 L360.4945,226.199 L373.0525,226.199 L373.0525,220.115 L353.0845,220.115 L353.0845,248 L373.7935,248 Z M384.6305,248 L384.6305,238.601 L388.4525,238.601 C389.3625,240.135 390.24,241.6885 391.085,243.2615 C391.93,244.8345 392.7685,246.414 393.6005,248 L393.6005,248 L401.9855,248 C400.9195,246.102 399.834,244.243 398.729,242.423 C397.624,240.603 396.4995,238.796 395.3555,237.002 C396.8115,236.222 397.936,235.182 398.729,233.882 C399.522,232.582 399.9185,231.074 399.9185,229.358 C399.9185,226.368 398.8915,224.08 396.8375,222.494 C394.7835,220.908 391.8195,220.115 387.9455,220.115 L387.9455,220.115 L377.2595,220.115 L377.2595,248 L384.6305,248 Z M387.5945,232.751 L384.6305,232.751 L384.6305,225.965 L387.5945,225.965 C389.1805,225.965 390.3505,226.2445 391.1045,226.8035 C391.8585,227.3625 392.2355,228.214 392.2355,229.358 C392.2355,230.476 391.8585,231.321 391.1045,231.893 C390.3505,232.465 389.1805,232.751 387.5945,232.751 L387.5945,232.751 Z M421.7875,248.507 C423.2175,248.507 424.5435,248.169 425.7655,247.493 L425.7655,247.493 L425.7655,245.465 C425.1155,245.803 424.498,246.0695 423.913,246.2645 C423.328,246.4595 422.7365,246.557 422.1385,246.557 C419.7985,246.557 418.6285,245.348 418.6285,242.93 L418.6285,242.93 L418.6285,230.06 L425.1805,230.06 L425.1805,228.188 L418.6285,228.188 L418.6285,221.636 L416.3275,222.221 L416.3275,228.188 L412.1155,228.188 L412.1155,230.06 L416.3275,230.06 L416.3275,242.774 C416.3275,244.646 416.789,246.0695 417.712,247.0445 C418.635,248.0195 419.9935,248.507 421.7875,248.507 Z M437.3825,248.507 C438.7865,248.507 440.0605,248.26 441.2045,247.766 C442.3485,247.272 443.3235,246.5635 444.1295,245.6405 C444.9355,244.7175 445.5595,243.6125 446.0015,242.3255 C446.4435,241.0385 446.6645,239.602 446.6645,238.016 C446.6645,235.91 446.281,234.0835 445.514,232.5365 C444.747,230.9895 443.6745,229.7935 442.2965,228.9485 C440.9185,228.1035 439.2805,227.681 437.3825,227.681 C435.5105,227.681 433.879,228.1035 432.488,228.9485 C431.097,229.7935 430.018,230.9895 429.251,232.5365 C428.484,234.0835 428.1005,235.91 428.1005,238.016 C428.1005,239.602 428.3215,241.0385 428.7635,242.3255 C429.2055,243.6125 429.8295,244.7175 430.6355,245.6405 C431.4415,246.5635 432.4165,247.272 433.5605,247.766 C434.7045,248.26 435.9785,248.507 437.3825,248.507 Z M437.3825,246.557 C435.9525,246.557 434.724,246.206 433.697,245.504 C432.67,244.802 431.877,243.8075 431.318,242.5205 C430.759,241.2335 430.4795,239.732 430.4795,238.016 C430.4795,236.3 430.759,234.8115 431.318,233.5505 C431.877,232.2895 432.6765,231.321 433.7165,230.645 C434.7565,229.969 435.9785,229.631 437.3825,229.631 C438.8125,229.631 440.041,229.969 441.068,230.645 C442.095,231.321 442.888,232.2895 443.447,233.5505 C444.006,234.8115 444.2855,236.3 444.2855,238.016 C444.2855,239.732 444.006,241.2335 443.447,242.5205 C442.888,243.8075 442.095,244.802 441.068,245.504 C440.041,246.206 438.8125,246.557 437.3825,246.557 Z M463.8535,256.814 L463.8535,247.025 C465.5695,248.013 467.3895,248.507 469.3135,248.507 C470.7695,248.507 472.0955,248.2535 473.2915,247.7465 C474.4875,247.2395 475.508,246.5115 476.353,245.5625 C477.198,244.6135 477.848,243.476 478.303,242.15 C478.758,240.824 478.9855,239.342 478.9855,237.704 C478.9855,235.65 478.628,233.8755 477.913,232.3805 C477.198,230.8855 476.1905,229.7285 474.8905,228.9095 C473.5905,228.0905 472.0435,227.681 470.2495,227.681 C467.6495,227.681 465.4655,228.695 463.6975,230.723 L463.6975,230.723 L463.4635,228.188 L461.5525,228.188 L461.5525,256.814 L463.8535,256.814 Z M469.0795,246.557 C468.1175,246.557 467.2335,246.4465 466.4275,246.2255 C465.6215,246.0045 464.7635,245.621 463.8535,245.075 L463.8535,245.075 L463.8535,232.634 C465.5955,230.632 467.6495,229.631 470.0155,229.631 C472.1475,229.631 473.779,230.346 474.91,231.776 C476.041,233.206 476.6065,235.247 476.6065,237.899 C476.6065,239.693 476.3075,241.24 475.7095,242.54 C475.1115,243.84 474.2535,244.8345 473.1355,245.5235 C472.0175,246.2125 470.6655,246.557 469.0795,246.557 Z M489.1985,248.507 C490.5505,248.507 491.779,248.26 492.884,247.766 C493.989,247.272 494.9705,246.544 495.8285,245.582 C495.9585,247.454 496.9985,248.39 498.9485,248.39 C499.7805,248.39 500.4565,248.247 500.9765,247.961 L500.9765,247.961 L500.9765,246.206 C500.5085,246.44 500.0015,246.557 499.4555,246.557 C498.9615,246.557 498.604,246.4205 498.383,246.1475 C498.162,245.8745 498.0515,245.452 498.0515,244.88 L498.0515,244.88 L498.0515,234.389 C498.0515,232.985 497.759,231.7825 497.174,230.7815 C496.589,229.7805 495.757,229.0135 494.678,228.4805 C493.599,227.9475 492.3055,227.681 490.7975,227.681 C488.4575,227.681 486.2345,228.279 484.1285,229.475 L484.1285,229.475 L484.1285,231.659 C485.1945,230.957 486.254,230.4435 487.307,230.1185 C488.36,229.7935 489.4845,229.631 490.6805,229.631 C492.3185,229.631 493.573,230.06 494.444,230.918 C495.315,231.776 495.7505,233.011 495.7505,234.623 L495.7505,234.623 L495.7505,237.236 C495.1265,237.158 494.4245,237.093 493.6445,237.041 C492.8645,236.989 492.1495,236.963 491.4995,236.963 C488.6655,236.963 486.4945,237.483 484.9865,238.523 C483.4785,239.563 482.7245,241.045 482.7245,242.969 C482.7245,244.711 483.2965,246.0695 484.4405,247.0445 C485.5845,248.0195 487.1705,248.507 489.1985,248.507 Z M489.4325,246.635 C486.5205,246.635 485.0645,245.4 485.0645,242.93 C485.0645,241.474 485.5975,240.4145 486.6635,239.7515 C487.7295,239.0885 489.3935,238.757 491.6555,238.757 C492.3315,238.757 493.027,238.783 493.742,238.835 C494.457,238.887 495.1265,238.952 495.7505,239.03 L495.7505,239.03 L495.7505,243.593 C494.0605,245.621 491.9545,246.635 489.4325,246.635 Z M507.0555,248 L507.0555,233.141 C507.8095,232.075 508.674,231.256 509.649,230.684 C510.624,230.112 511.6445,229.826 512.7105,229.826 C513.2825,229.826 513.8155,229.8845 514.3095,230.0015 C514.8035,230.1185 515.2455,230.307 515.6355,230.567 L515.6355,230.567 L515.6355,228.344 C514.8815,228.006 513.9585,227.837 512.8665,227.837 C511.6705,227.837 510.5785,228.1035 509.5905,228.6365 C508.6025,229.1695 507.7185,229.995 506.9385,231.113 L506.9385,231.113 L506.6655,228.188 L504.7545,228.188 L504.7545,248 L507.0555,248 Z M526.8235,248.507 C528.2535,248.507 529.5795,248.169 530.8015,247.493 L530.8015,247.493 L530.8015,245.465 C530.1515,245.803 529.534,246.0695 528.949,246.2645 C528.364,246.4595 527.7725,246.557 527.1745,246.557 C524.8345,246.557 523.6645,245.348 523.6645,242.93 L523.6645,242.93 L523.6645,230.06 L530.2165,230.06 L530.2165,228.188 L523.6645,228.188 L523.6645,221.636 L521.3635,222.221 L521.3635,228.188 L517.1515,228.188 L517.1515,230.06 L521.3635,230.06 L521.3635,242.774 C521.3635,244.646 521.825,246.0695 522.748,247.0445 C523.671,248.0195 525.0295,248.507 526.8235,248.507 Z M536.1785,223.196 C536.6985,223.196 537.1145,223.04 537.4265,222.728 C537.7385,222.416 537.8945,222.013 537.8945,221.519 C537.8945,221.025 537.7385,220.6285 537.4265,220.3295 C537.1145,220.0305 536.6985,219.881 536.1785,219.881 C535.6845,219.881 535.2815,220.0305 534.9695,220.3295 C534.6575,220.6285 534.5015,221.025 534.5015,221.519 C534.5015,222.013 534.6575,222.416 534.9695,222.728 C535.2815,223.04 535.6845,223.196 536.1785,223.196 Z M537.3485,248 L537.3485,228.188 L535.0475,228.188 L535.0475,248 L537.3485,248 Z M552.3585,248.507 C554.4905,248.507 556.4665,247.909 558.2865,246.713 L558.2865,246.713 L558.2865,244.529 C557.3245,245.231 556.3495,245.7445 555.3615,246.0695 C554.3735,246.3945 553.3335,246.557 552.2415,246.557 C550.7595,246.557 549.479,246.219 548.4,245.543 C547.321,244.867 546.4955,243.8855 545.9235,242.5985 C545.3515,241.3115 545.0655,239.784 545.0655,238.016 C545.0655,236.248 545.358,234.74 545.943,233.492 C546.528,232.244 547.36,231.2885 548.439,230.6255 C549.518,229.9625 550.8115,229.631 552.3195,229.631 C553.3335,229.631 554.315,229.787 555.264,230.099 C556.213,230.411 557.1295,230.905 558.0135,231.581 L558.0135,231.581 L558.0135,229.358 C557.2595,228.812 556.4145,228.396 555.4785,228.11 C554.5425,227.824 553.5285,227.681 552.4365,227.681 C550.4345,227.681 548.699,228.097 547.23,228.929 C545.761,229.761 544.6365,230.9505 543.8565,232.4975 C543.0765,234.0445 542.6865,235.884 542.6865,238.016 C542.6865,240.2 543.07,242.0785 543.837,243.6515 C544.604,245.2245 545.7155,246.427 547.1715,247.259 C548.6275,248.091 550.3565,248.507 552.3585,248.507 Z M564.2095,223.196 C564.7295,223.196 565.1455,223.04 565.4575,222.728 C565.7695,222.416 565.9255,222.013 565.9255,221.519 C565.9255,221.025 565.7695,220.6285 565.4575,220.3295 C565.1455,220.0305 564.7295,219.881 564.2095,219.881 C563.7155,219.881 563.3125,220.0305 563.0005,220.3295 C562.6885,220.6285 562.5325,221.025 562.5325,221.519 C562.5325,222.013 562.6885,222.416 563.0005,222.728 C563.3125,223.04 563.7155,223.196 564.2095,223.196 Z M565.3795,248 L565.3795,228.188 L563.0785,228.188 L563.0785,248 L565.3795,248 Z M574.3445,256.814 L574.3445,247.025 C576.0605,248.013 577.8805,248.507 579.8045,248.507 C581.2605,248.507 582.5865,248.2535 583.7825,247.7465 C584.9785,247.2395 585.999,246.5115 586.844,245.5625 C587.689,244.6135 588.339,243.476 588.794,242.15 C589.249,240.824 589.4765,239.342 589.4765,237.704 C589.4765,235.65 589.119,233.8755 588.404,232.3805 C587.689,230.8855 586.6815,229.7285 585.3815,228.9095 C584.0815,228.0905 582.5345,227.681 580.7405,227.681 C578.1405,227.681 575.9565,228.695 574.1885,230.723 L574.1885,230.723 L573.9545,228.188 L572.0435,228.188 L572.0435,256.814 L574.3445,256.814 Z M579.5705,246.557 C578.6085,246.557 577.7245,246.4465 576.9185,246.2255 C576.1125,246.0045 575.2545,245.621 574.3445,245.075 L574.3445,245.075 L574.3445,232.634 C576.0865,230.632 578.1405,229.631 580.5065,229.631 C582.6385,229.631 584.27,230.346 585.401,231.776 C586.532,233.206 587.0975,235.247 587.0975,237.899 C587.0975,239.693 586.7985,241.24 586.2005,242.54 C585.6025,243.84 584.7445,244.8345 583.6265,245.5235 C582.5085,246.2125 581.1565,246.557 579.5705,246.557 Z M599.6895,248.507 C601.0415,248.507 602.27,248.26 603.375,247.766 C604.48,247.272 605.4615,246.544 606.3195,245.582 C606.4495,247.454 607.4895,248.39 609.4395,248.39 C610.2715,248.39 610.9475,248.247 611.4675,247.961 L611.4675,247.961 L611.4675,246.206 C610.9995,246.44 610.4925,246.557 609.9465,246.557 C609.4525,246.557 609.095,246.4205 608.874,246.1475 C608.653,245.8745 608.5425,245.452 608.5425,244.88 L608.5425,244.88 L608.5425,234.389 C608.5425,232.985 608.25,231.7825 607.665,230.7815 C607.08,229.7805 606.248,229.0135 605.169,228.4805 C604.09,227.9475 602.7965,227.681 601.2885,227.681 C598.9485,227.681 596.7255,228.279 594.6195,229.475 L594.6195,229.475 L594.6195,231.659 C595.6855,230.957 596.745,230.4435 597.798,230.1185 C598.851,229.7935 599.9755,229.631 601.1715,229.631 C602.8095,229.631 604.064,230.06 604.935,230.918 C605.806,231.776 606.2415,233.011 606.2415,234.623 L606.2415,234.623 L606.2415,237.236 C605.6175,237.158 604.9155,237.093 604.1355,237.041 C603.3555,236.989 602.6405,236.963 601.9905,236.963 C599.1565,236.963 596.9855,237.483 595.4775,238.523 C593.9695,239.563 593.2155,241.045 593.2155,242.969 C593.2155,244.711 593.7875,246.0695 594.9315,247.0445 C596.0755,248.0195 597.6615,248.507 599.6895,248.507 Z M599.9235,246.635 C597.0115,246.635 595.5555,245.4 595.5555,242.93 C595.5555,241.474 596.0885,240.4145 597.1545,239.7515 C598.2205,239.0885 599.8845,238.757 602.1465,238.757 C602.8225,238.757 603.518,238.783 604.233,238.835 C604.948,238.887 605.6175,238.952 606.2415,239.03 L606.2415,239.03 L606.2415,243.593 C604.5515,245.621 602.4455,246.635 599.9235,246.635 Z M622.1095,248.507 C623.5395,248.507 624.8655,248.169 626.0875,247.493 L626.0875,247.493 L626.0875,245.465 C625.4375,245.803 624.82,246.0695 624.235,246.2645 C623.65,246.4595 623.0585,246.557 622.4605,246.557 C620.1205,246.557 618.9505,245.348 618.9505,242.93 L618.9505,242.93 L618.9505,230.06 L625.5025,230.06 L625.5025,228.188 L618.9505,228.188 L618.9505,221.636 L616.6495,222.221 L616.6495,228.188 L612.4375,228.188 L612.4375,230.06 L616.6495,230.06 L616.6495,242.774 C616.6495,244.646 617.111,246.0695 618.034,247.0445 C618.957,248.0195 620.3155,248.507 622.1095,248.507 Z M637.9385,248.507 C640.5905,248.507 642.8785,247.87 644.8025,246.596 L644.8025,246.596 L644.8025,244.451 C643.7365,245.179 642.6705,245.712 641.6045,246.05 C640.5385,246.388 639.3815,246.557 638.1335,246.557 C635.8195,246.557 634.019,245.8355 632.732,244.3925 C631.445,242.9495 630.7755,240.915 630.7235,238.289 L630.7235,238.289 L645.3875,238.289 L645.3875,236.885 C645.3875,233.973 644.7115,231.711 643.3595,230.099 C642.0075,228.487 640.0185,227.681 637.3925,227.681 C635.9105,227.681 634.6105,227.9475 633.4925,228.4805 C632.3745,229.0135 631.4385,229.761 630.6845,230.723 C629.9305,231.685 629.365,232.8095 628.988,234.0965 C628.611,235.3835 628.4225,236.781 628.4225,238.289 C628.4225,240.369 628.8125,242.176 629.5925,243.71 C630.3725,245.244 631.471,246.427 632.888,247.259 C634.305,248.091 635.9885,248.507 637.9385,248.507 Z M643.1255,236.456 L630.8015,236.456 C630.9575,235.026 631.3215,233.7975 631.8935,232.7705 C632.4655,231.7435 633.2195,230.9505 634.1555,230.3915 C635.0915,229.8325 636.1705,229.553 637.3925,229.553 C641.0585,229.553 642.9695,231.854 643.1255,236.456 L643.1255,236.456 Z" id="WorldfrstinteractiveradiothatenablesEVERYLISTENERtoparticipate" fill-rule="nonzero"></path>
        </g>
    </g>
</svg>