<?xml version="1.0" encoding="UTF-8"?>
<svg width="1200px" height="675px" viewBox="0 0 1200 675" version="1.1" xmlns="http://www.w3.org/2000/svg" xmlns:xlink="http://www.w3.org/1999/xlink">
    <!-- Generator: Sketch 61.2 (89653) - https://sketch.com -->
    <title>Daisy</title>
    <desc>Created with Sketch.</desc>
    <g id="Daisy" stroke="none" stroke-width="1" fill="none" fill-rule="evenodd">
        <path d="M104.792,130.56 L104.792,79.08 L90.752,79.08 L90.752,130.56 L104.792,130.56 Z M138.344,131.64 C144.776,131.64 149.72,129.888 153.176,126.384 C156.632,122.88 158.36,117.864 158.36,111.336 L158.36,111.336 L158.36,79.08 L144.32,79.08 L144.32,110.976 C144.32,116.688 141.488,119.544 135.824,119.544 C134.048,119.544 132.392,119.34 130.856,118.932 C129.32,118.524 127.928,117.936 126.68,117.168 L126.68,117.168 L126.68,129.12 C128.168,129.888 129.92,130.5 131.936,130.956 C133.952,131.412 136.088,131.64 138.344,131.64 Z M190.328,131.64 C195.08,131.64 199.148,130.728 202.532,128.904 C205.916,127.08 208.508,124.452 210.308,121.02 C212.108,117.588 213.008,113.496 213.008,108.744 L213.008,108.744 L213.008,79.08 L199.184,79.08 L199.184,110.328 C199.184,113.256 198.416,115.524 196.88,117.132 C195.344,118.74 193.16,119.544 190.328,119.544 C187.544,119.544 185.372,118.74 183.812,117.132 C182.252,115.524 181.472,113.256 181.472,110.328 L181.472,110.328 L181.472,79.08 L167.432,79.08 L167.432,108.744 C167.432,113.496 168.344,117.588 170.168,121.02 C171.992,124.452 174.62,127.08 178.052,128.904 C181.484,130.728 185.576,131.64 190.328,131.64 Z M237.848,131.64 C242.552,131.64 246.548,130.992 249.836,129.696 C253.124,128.4 255.644,126.504 257.396,124.008 C259.148,121.512 260.024,118.488 260.024,114.936 C260.024,112.248 259.592,110.004 258.728,108.204 C257.864,106.404 256.64,104.916 255.056,103.74 C253.472,102.564 251.6,101.568 249.44,100.752 C247.28,99.936 244.88,99.216 242.24,98.592 C239.696,97.968 237.74,97.308 236.372,96.612 C235.004,95.916 234.32,94.872 234.32,93.48 C234.32,92.136 234.98,91.116 236.3,90.42 C237.62,89.724 239.48,89.376 241.88,89.376 C243.56,89.376 245.3,89.532 247.1,89.844 C248.9,90.156 250.688,90.612 252.464,91.212 C254.24,91.812 255.92,92.592 257.504,93.552 L257.504,93.552 L257.504,81.528 C255.296,80.424 252.824,79.56 250.088,78.936 C247.352,78.312 244.568,78 241.736,78 C237.368,78 233.576,78.66 230.36,79.98 C227.144,81.3 224.672,83.184 222.944,85.632 C221.216,88.08 220.352,91.032 220.352,94.488 C220.352,96.744 220.688,98.712 221.36,100.392 C222.032,102.072 223.088,103.548 224.528,104.82 C225.968,106.092 227.84,107.208 230.144,108.168 C232.448,109.128 235.232,109.992 238.496,110.76 C239.984,111.096 241.28,111.48 242.384,111.912 C243.488,112.344 244.352,112.86 244.976,113.46 C245.6,114.06 245.912,114.864 245.912,115.872 C245.912,117.264 245.216,118.344 243.824,119.112 C242.432,119.88 240.368,120.264 237.632,120.264 C234.848,120.264 232.052,119.868 229.244,119.076 C226.436,118.284 223.688,117.12 221,115.584 L221,115.584 L221,127.752 C223.784,129.096 226.556,130.08 229.316,130.704 C232.076,131.328 234.92,131.64 237.848,131.64 Z M293.072,130.56 L293.072,91.176 L308.48,91.176 L308.48,79.08 L263.624,79.08 L263.624,91.176 L279.032,91.176 L279.032,130.56 L293.072,130.56 Z M343.904,130.56 L343.904,114.216 L349.664,114.216 C354.32,114.216 358.256,113.532 361.472,112.164 C364.688,110.796 367.136,108.804 368.816,106.188 C370.496,103.572 371.336,100.392 371.336,96.648 C371.336,90.984 369.476,86.64 365.756,83.616 C362.036,80.592 356.672,79.08 349.664,79.08 L349.664,79.08 L330.296,79.08 L330.296,130.56 L343.904,130.56 Z M349.016,103.416 L343.904,103.416 L343.904,89.88 L349.016,89.88 C354.44,89.88 357.152,92.136 357.152,96.648 C357.152,101.16 354.44,103.416 349.016,103.416 L349.016,103.416 Z M415.4,130.56 L415.4,118.464 L392.504,118.464 L392.504,79.08 L378.464,79.08 L378.464,130.56 L415.4,130.56 Z M431.816,130.56 C432.824,127.296 433.808,124.08 434.768,120.912 L434.768,120.912 L453.56,120.912 C454.04,122.496 454.532,124.092 455.036,125.7 C455.54,127.308 456.032,128.928 456.512,130.56 L456.512,130.56 L471.704,130.56 C468.632,121.968 465.464,113.376 462.2,104.784 C458.936,96.192 455.576,87.624 452.12,79.08 L452.12,79.08 L436.64,79.08 C433.28,87.192 429.968,95.544 426.704,104.136 C423.44,112.728 420.224,121.536 417.056,130.56 L417.056,130.56 L431.816,130.56 Z M450.104,109.968 L438.224,109.968 C439.184,106.992 440.168,104.028 441.176,101.076 C442.184,98.124 443.192,95.16 444.2,92.184 C445.208,95.112 446.204,98.052 447.188,101.004 C448.172,103.956 449.144,106.944 450.104,109.968 L450.104,109.968 Z M506.408,130.56 L506.408,111.48 C509.72,106.104 512.984,100.716 516.2,95.316 C519.416,89.916 522.56,84.504 525.632,79.08 L525.632,79.08 L510.224,79.08 C508.544,82.488 506.816,85.908 505.04,89.34 C503.264,92.772 501.488,96.192 499.712,99.6 C497.888,96.192 496.1,92.784 494.348,89.376 C492.596,85.968 490.856,82.536 489.128,79.08 L489.128,79.08 L473.216,79.08 C476.24,84.504 479.36,89.916 482.576,95.316 C485.792,100.716 489.056,106.104 492.368,111.48 L492.368,111.48 L492.368,130.56 L506.408,130.56 Z M569.48,130.56 L569.48,119.328 L544.928,119.328 L544.928,109.968 L565.232,109.968 L565.232,98.736 L544.928,98.736 L544.928,90.312 L568.112,90.312 L568.112,79.08 L531.248,79.08 L531.248,130.56 L569.48,130.56 Z M597.2,130.56 C602.672,130.56 607.34,129.54 611.204,127.5 C615.068,125.46 618.02,122.52 620.06,118.68 C622.1,114.84 623.12,110.184 623.12,104.712 C623.12,99.288 622.1,94.668 620.06,90.852 C618.02,87.036 615.068,84.12 611.204,82.104 C607.34,80.088 602.696,79.08 597.272,79.08 L597.272,79.08 L576.248,79.08 L576.248,130.56 L597.2,130.56 Z M596.552,118.608 L590.288,118.608 L590.288,91.032 L596.624,91.032 C600.56,91.032 603.536,92.196 605.552,94.524 C607.568,96.852 608.576,100.248 608.576,104.712 C608.576,109.224 607.556,112.668 605.516,115.044 C603.476,117.42 600.488,118.608 596.552,118.608 L596.552,118.608 Z M672.512,130.56 L672.512,91.176 L687.92,91.176 L687.92,79.08 L643.064,79.08 L643.064,91.176 L658.472,91.176 L658.472,130.56 L672.512,130.56 Z M707.72,130.56 L707.72,109.752 L726.008,109.752 L726.008,130.56 L740.048,130.56 L740.048,79.08 L726.008,79.08 L726.008,97.656 L707.72,97.656 L707.72,79.08 L693.68,79.08 L693.68,130.56 L707.72,130.56 Z M763.592,130.56 L763.592,79.08 L749.552,79.08 L749.552,130.56 L763.592,130.56 Z M788.648,131.64 C793.352,131.64 797.348,130.992 800.636,129.696 C803.924,128.4 806.444,126.504 808.196,124.008 C809.948,121.512 810.824,118.488 810.824,114.936 C810.824,112.248 810.392,110.004 809.528,108.204 C808.664,106.404 807.44,104.916 805.856,103.74 C804.272,102.564 802.4,101.568 800.24,100.752 C798.08,99.936 795.68,99.216 793.04,98.592 C790.496,97.968 788.54,97.308 787.172,96.612 C785.804,95.916 785.12,94.872 785.12,93.48 C785.12,92.136 785.78,91.116 787.1,90.42 C788.42,89.724 790.28,89.376 792.68,89.376 C794.36,89.376 796.1,89.532 797.9,89.844 C799.7,90.156 801.488,90.612 803.264,91.212 C805.04,91.812 806.72,92.592 808.304,93.552 L808.304,93.552 L808.304,81.528 C806.096,80.424 803.624,79.56 800.888,78.936 C798.152,78.312 795.368,78 792.536,78 C788.168,78 784.376,78.66 781.16,79.98 C777.944,81.3 775.472,83.184 773.744,85.632 C772.016,88.08 771.152,91.032 771.152,94.488 C771.152,96.744 771.488,98.712 772.16,100.392 C772.832,102.072 773.888,103.548 775.328,104.82 C776.768,106.092 778.64,107.208 780.944,108.168 C783.248,109.128 786.032,109.992 789.296,110.76 C790.784,111.096 792.08,111.48 793.184,111.912 C794.288,112.344 795.152,112.86 795.776,113.46 C796.4,114.06 796.712,114.864 796.712,115.872 C796.712,117.264 796.016,118.344 794.624,119.112 C793.232,119.88 791.168,120.264 788.432,120.264 C785.648,120.264 782.852,119.868 780.044,119.076 C777.236,118.284 774.488,117.12 771.8,115.584 L771.8,115.584 L771.8,127.752 C774.584,129.096 777.356,130.08 780.116,130.704 C782.876,131.328 785.72,131.64 788.648,131.64 Z M825.368,131.208 C826.904,131.208 828.224,130.884 829.328,130.236 C830.432,129.588 831.284,128.724 831.884,127.644 C832.484,126.564 832.784,125.376 832.784,124.08 C832.784,122.784 832.484,121.596 831.884,120.516 C831.284,119.436 830.432,118.584 829.328,117.96 C828.224,117.336 826.904,117.024 825.368,117.024 C823.832,117.024 822.512,117.336 821.408,117.96 C820.304,118.584 819.452,119.436 818.852,120.516 C818.252,121.596 817.952,122.784 817.952,124.08 C817.952,125.376 818.252,126.564 818.852,127.644 C819.452,128.724 820.304,129.588 821.408,130.236 C822.512,130.884 823.832,131.208 825.368,131.208 Z M849.416,131.208 C850.952,131.208 852.272,130.884 853.376,130.236 C854.48,129.588 855.332,128.724 855.932,127.644 C856.532,126.564 856.832,125.376 856.832,124.08 C856.832,122.784 856.532,121.596 855.932,120.516 C855.332,119.436 854.48,118.584 853.376,117.96 C852.272,117.336 850.952,117.024 849.416,117.024 C847.88,117.024 846.56,117.336 845.456,117.96 C844.352,118.584 843.5,119.436 842.9,120.516 C842.3,121.596 842,122.784 842,124.08 C842,125.376 842.3,126.564 842.9,127.644 C843.5,128.724 844.352,129.588 845.456,130.236 C846.56,130.884 847.88,131.208 849.416,131.208 Z M873.464,131.208 C875,131.208 876.32,130.884 877.424,130.236 C878.528,129.588 879.38,128.724 879.98,127.644 C880.58,126.564 880.88,125.376 880.88,124.08 C880.88,122.784 880.58,121.596 879.98,120.516 C879.38,119.436 878.528,118.584 877.424,117.96 C876.32,117.336 875,117.024 873.464,117.024 C871.928,117.024 870.608,117.336 869.504,117.96 C868.4,118.584 867.548,119.436 866.948,120.516 C866.348,121.596 866.048,122.784 866.048,124.08 C866.048,125.376 866.348,126.564 866.948,127.644 C867.548,128.724 868.4,129.588 869.504,130.236 C870.608,130.884 871.928,131.208 873.464,131.208 Z M900.824,130.56 C901.832,127.296 902.816,124.08 903.776,120.912 L903.776,120.912 L922.568,120.912 C923.048,122.496 923.54,124.092 924.044,125.7 C924.548,127.308 925.04,128.928 925.52,130.56 L925.52,130.56 L940.712,130.56 C937.64,121.968 934.472,113.376 931.208,104.784 C927.944,96.192 924.584,87.624 921.128,79.08 L921.128,79.08 L905.648,79.08 C902.288,87.192 898.976,95.544 895.712,104.136 C892.448,112.728 889.232,121.536 886.064,130.56 L886.064,130.56 L900.824,130.56 Z M919.112,109.968 L907.232,109.968 C908.192,106.992 909.176,104.028 910.184,101.076 C911.192,98.124 912.2,95.16 913.208,92.184 C914.216,95.112 915.212,98.052 916.196,101.004 C917.18,103.956 918.152,106.944 919.112,109.968 L919.112,109.968 Z M971.816,130.56 L971.816,91.176 L987.224,91.176 L987.224,79.08 L942.368,79.08 L942.368,91.176 L957.776,91.176 L957.776,130.56 L971.816,130.56 Z M104.792,210.56 L104.792,189.752 L123.08,189.752 L123.08,210.56 L137.12,210.56 L137.12,159.08 L123.08,159.08 L123.08,177.656 L104.792,177.656 L104.792,159.08 L90.752,159.08 L90.752,210.56 L104.792,210.56 Z M170.888,211.64 C174.872,211.64 178.472,211.016 181.688,209.768 C184.904,208.52 187.652,206.72 189.932,204.368 C192.212,202.016 193.964,199.184 195.188,195.872 C196.412,192.56 197.024,188.864 197.024,184.784 C197.024,180.656 196.412,176.948 195.188,173.66 C193.964,170.372 192.212,167.564 189.932,165.236 C187.652,162.908 184.904,161.12 181.688,159.872 C178.472,158.624 174.872,158 170.888,158 C166.904,158 163.304,158.624 160.088,159.872 C156.872,161.12 154.124,162.908 151.844,165.236 C149.564,167.564 147.812,170.372 146.588,173.66 C145.364,176.948 144.752,180.656 144.752,184.784 C144.752,188.864 145.364,192.56 146.588,195.872 C147.812,199.184 149.564,202.016 151.844,204.368 C154.124,206.72 156.872,208.52 160.088,209.768 C163.304,211.016 166.904,211.64 170.888,211.64 Z M170.888,199.544 C167.144,199.544 164.276,198.272 162.284,195.728 C160.292,193.184 159.296,189.536 159.296,184.784 C159.296,180.08 160.292,176.456 162.284,173.912 C164.276,171.368 167.144,170.096 170.888,170.096 C174.632,170.096 177.5,171.368 179.492,173.912 C181.484,176.456 182.48,180.08 182.48,184.784 C182.48,189.536 181.484,193.184 179.492,195.728 C177.5,198.272 174.632,199.544 170.888,199.544 Z M217.76,210.56 L217.76,179.312 C219.344,182.96 220.964,186.608 222.62,190.256 C224.276,193.904 225.944,197.552 227.624,201.2 L227.624,201.2 L238.424,201.2 C240.056,197.552 241.676,193.892 243.284,190.22 C244.892,186.548 246.488,182.84 248.072,179.096 L248.072,179.096 L248.072,210.56 L261.176,210.56 L261.176,159.08 L244.472,159.08 C242.648,163.928 240.8,168.716 238.928,173.444 C237.056,178.172 235.16,182.84 233.24,187.448 C231.224,182.792 229.244,178.088 227.3,173.336 C225.356,168.584 223.448,163.832 221.576,159.08 L221.576,159.08 L204.656,159.08 L204.656,210.56 L217.76,210.56 Z M308.912,210.56 L308.912,199.328 L284.36,199.328 L284.36,189.968 L304.664,189.968 L304.664,178.736 L284.36,178.736 L284.36,170.312 L307.544,170.312 L307.544,159.08 L270.68,159.08 L270.68,210.56 L308.912,210.56 Z M322.88,211.208 C324.416,211.208 325.736,210.884 326.84,210.236 C327.944,209.588 328.796,208.724 329.396,207.644 C329.996,206.564 330.296,205.376 330.296,204.08 C330.296,202.784 329.996,201.596 329.396,200.516 C328.796,199.436 327.944,198.584 326.84,197.96 C325.736,197.336 324.416,197.024 322.88,197.024 C321.344,197.024 320.024,197.336 318.92,197.96 C317.816,198.584 316.964,199.436 316.364,200.516 C315.764,201.596 315.464,202.784 315.464,204.08 C315.464,205.376 315.764,206.564 316.364,207.644 C316.964,208.724 317.816,209.588 318.92,210.236 C320.024,210.884 321.344,211.208 322.88,211.208 Z M346.928,211.208 C348.464,211.208 349.784,210.884 350.888,210.236 C351.992,209.588 352.844,208.724 353.444,207.644 C354.044,206.564 354.344,205.376 354.344,204.08 C354.344,202.784 354.044,201.596 353.444,200.516 C352.844,199.436 351.992,198.584 350.888,197.96 C349.784,197.336 348.464,197.024 346.928,197.024 C345.392,197.024 344.072,197.336 342.968,197.96 C341.864,198.584 341.012,199.436 340.412,200.516 C339.812,201.596 339.512,202.784 339.512,204.08 C339.512,205.376 339.812,206.564 340.412,207.644 C341.012,208.724 341.864,209.588 342.968,210.236 C344.072,210.884 345.392,211.208 346.928,211.208 Z M370.976,211.208 C372.512,211.208 373.832,210.884 374.936,210.236 C376.04,209.588 376.892,208.724 377.492,207.644 C378.092,206.564 378.392,205.376 378.392,204.08 C378.392,202.784 378.092,201.596 377.492,200.516 C376.892,199.436 376.04,198.584 374.936,197.96 C373.832,197.336 372.512,197.024 370.976,197.024 C369.44,197.024 368.12,197.336 367.016,197.96 C365.912,198.584 365.06,199.436 364.46,200.516 C363.86,201.596 363.56,202.784 363.56,204.08 C363.56,205.376 363.86,206.564 364.46,207.644 C365.06,208.724 365.912,209.588 367.016,210.236 C368.12,210.884 369.44,211.208 370.976,211.208 Z M411.944,211.64 C415.928,211.64 419.528,211.016 422.744,209.768 C425.96,208.52 428.708,206.72 430.988,204.368 C433.268,202.016 435.02,199.184 436.244,195.872 C437.468,192.56 438.08,188.864 438.08,184.784 C438.08,180.656 437.468,176.948 436.244,173.66 C435.02,170.372 433.268,167.564 430.988,165.236 C428.708,162.908 425.96,161.12 422.744,159.872 C419.528,158.624 415.928,158 411.944,158 C407.96,158 404.36,158.624 401.144,159.872 C397.928,161.12 395.18,162.908 392.9,165.236 C390.62,167.564 388.868,170.372 387.644,173.66 C386.42,176.948 385.808,180.656 385.808,184.784 C385.808,188.864 386.42,192.56 387.644,195.872 C388.868,199.184 390.62,202.016 392.9,204.368 C395.18,206.72 397.928,208.52 401.144,209.768 C404.36,211.016 407.96,211.64 411.944,211.64 Z M411.944,199.544 C408.2,199.544 405.332,198.272 403.34,195.728 C401.348,193.184 400.352,189.536 400.352,184.784 C400.352,180.08 401.348,176.456 403.34,173.912 C405.332,171.368 408.2,170.096 411.944,170.096 C415.688,170.096 418.556,171.368 420.548,173.912 C422.54,176.456 423.536,180.08 423.536,184.784 C423.536,189.536 422.54,193.184 420.548,195.728 C418.556,198.272 415.688,199.544 411.944,199.544 Z M459.104,210.56 L459.104,179.312 C462.224,184.304 465.404,189.452 468.644,194.756 C471.884,200.06 475.04,205.328 478.112,210.56 L478.112,210.56 L492.224,210.56 L492.224,159.08 L478.832,159.08 L478.832,189.752 C475.712,184.52 472.568,179.336 469.4,174.2 C466.232,169.064 463.04,164.024 459.824,159.08 L459.824,159.08 L445.712,159.08 L445.712,210.56 L459.104,210.56 Z M543.488,210.56 L543.488,171.176 L558.896,171.176 L558.896,159.08 L514.04,159.08 L514.04,171.176 L529.448,171.176 L529.448,210.56 L543.488,210.56 Z M578.696,210.56 L578.696,189.752 L596.984,189.752 L596.984,210.56 L611.024,210.56 L611.024,159.08 L596.984,159.08 L596.984,177.656 L578.696,177.656 L578.696,159.08 L564.656,159.08 L564.656,210.56 L578.696,210.56 Z M658.76,210.56 L658.76,199.328 L634.208,199.328 L634.208,189.968 L654.512,189.968 L654.512,178.736 L634.208,178.736 L634.208,170.312 L657.392,170.312 L657.392,159.08 L620.528,159.08 L620.528,210.56 L658.76,210.56 Z M695.192,210.56 L695.192,193.208 L702.248,193.208 C703.928,196.04 705.548,198.908 707.108,201.812 C708.668,204.716 710.216,207.632 711.752,210.56 L711.752,210.56 L727.232,210.56 C725.264,207.056 723.26,203.624 721.22,200.264 C719.18,196.904 717.104,193.568 714.992,190.256 C717.68,188.816 719.756,186.896 721.22,184.496 C722.684,182.096 723.416,179.312 723.416,176.144 C723.416,170.624 721.52,166.4 717.728,163.472 C713.936,160.544 708.464,159.08 701.312,159.08 L701.312,159.08 L681.584,159.08 L681.584,210.56 L695.192,210.56 Z M700.664,182.408 L695.192,182.408 L695.192,169.88 L700.664,169.88 C703.592,169.88 705.752,170.396 707.144,171.428 C708.536,172.46 709.232,174.032 709.232,176.144 C709.232,178.208 708.536,179.768 707.144,180.824 C705.752,181.88 703.592,182.408 700.664,182.408 L700.664,182.408 Z M743.432,210.56 C744.44,207.296 745.424,204.08 746.384,200.912 L746.384,200.912 L765.176,200.912 C765.656,202.496 766.148,204.092 766.652,205.7 C767.156,207.308 767.648,208.928 768.128,210.56 L768.128,210.56 L783.32,210.56 C780.248,201.968 777.08,193.376 773.816,184.784 C770.552,176.192 767.192,167.624 763.736,159.08 L763.736,159.08 L748.256,159.08 C744.896,167.192 741.584,175.544 738.32,184.136 C735.056,192.728 731.84,201.536 728.672,210.56 L728.672,210.56 L743.432,210.56 Z M761.72,189.968 L749.84,189.968 C750.8,186.992 751.784,184.028 752.792,181.076 C753.8,178.124 754.808,175.16 755.816,172.184 C756.824,175.112 757.82,178.052 758.804,181.004 C759.788,183.956 760.76,186.944 761.72,189.968 L761.72,189.968 Z M809.672,210.56 C815.144,210.56 819.812,209.54 823.676,207.5 C827.54,205.46 830.492,202.52 832.532,198.68 C834.572,194.84 835.592,190.184 835.592,184.712 C835.592,179.288 834.572,174.668 832.532,170.852 C830.492,167.036 827.54,164.12 823.676,162.104 C819.812,160.088 815.168,159.08 809.744,159.08 L809.744,159.08 L788.72,159.08 L788.72,210.56 L809.672,210.56 Z M809.024,198.608 L802.76,198.608 L802.76,171.032 L809.096,171.032 C813.032,171.032 816.008,172.196 818.024,174.524 C820.04,176.852 821.048,180.248 821.048,184.712 C821.048,189.224 820.028,192.668 817.988,195.044 C815.948,197.42 812.96,198.608 809.024,198.608 L809.024,198.608 Z M857.264,210.56 L857.264,159.08 L843.224,159.08 L843.224,210.56 L857.264,210.56 Z M891.032,211.64 C895.016,211.64 898.616,211.016 901.832,209.768 C905.048,208.52 907.796,206.72 910.076,204.368 C912.356,202.016 914.108,199.184 915.332,195.872 C916.556,192.56 917.168,188.864 917.168,184.784 C917.168,180.656 916.556,176.948 915.332,173.66 C914.108,170.372 912.356,167.564 910.076,165.236 C907.796,162.908 905.048,161.12 901.832,159.872 C898.616,158.624 895.016,158 891.032,158 C887.048,158 883.448,158.624 880.232,159.872 C877.016,161.12 874.268,162.908 871.988,165.236 C869.708,167.564 867.956,170.372 866.732,173.66 C865.508,176.948 864.896,180.656 864.896,184.784 C864.896,188.864 865.508,192.56 866.732,195.872 C867.956,199.184 869.708,202.016 871.988,204.368 C874.268,206.72 877.016,208.52 880.232,209.768 C883.448,211.016 887.048,211.64 891.032,211.64 Z M891.032,199.544 C887.288,199.544 884.42,198.272 882.428,195.728 C880.436,193.184 879.44,189.536 879.44,184.784 C879.44,180.08 880.436,176.456 882.428,173.912 C884.42,171.368 887.288,170.096 891.032,170.096 C894.776,170.096 897.644,171.368 899.636,173.912 C901.628,176.456 902.624,180.08 902.624,184.784 C902.624,189.536 901.628,193.184 899.636,195.728 C897.644,198.272 894.776,199.544 891.032,199.544 Z M101.408,290.56 C102.416,287.296 103.4,284.08 104.36,280.912 L104.36,280.912 L123.152,280.912 C123.632,282.496 124.124,284.092 124.628,285.7 C125.132,287.308 125.624,288.928 126.104,290.56 L126.104,290.56 L141.296,290.56 C138.224,281.968 135.056,273.376 131.792,264.784 C128.528,256.192 125.168,247.624 121.712,239.08 L121.712,239.08 L106.232,239.08 C102.872,247.192 99.56,255.544 96.296,264.136 C93.032,272.728 89.816,281.536 86.648,290.56 L86.648,290.56 L101.408,290.56 Z M119.696,269.968 L107.816,269.968 C108.776,266.992 109.76,264.028 110.768,261.076 C111.776,258.124 112.784,255.16 113.792,252.184 C114.8,255.112 115.796,258.052 116.78,261.004 C117.764,263.956 118.736,266.944 119.696,269.968 L119.696,269.968 Z M160.088,290.56 L160.088,259.312 C163.208,264.304 166.388,269.452 169.628,274.756 C172.868,280.06 176.024,285.328 179.096,290.56 L179.096,290.56 L193.208,290.56 L193.208,239.08 L179.816,239.08 L179.816,269.752 C176.696,264.52 173.552,259.336 170.384,254.2 C167.216,249.064 164.024,244.024 160.808,239.08 L160.808,239.08 L146.696,239.08 L146.696,290.56 L160.088,290.56 Z M223.664,290.56 C229.136,290.56 233.804,289.54 237.668,287.5 C241.532,285.46 244.484,282.52 246.524,278.68 C248.564,274.84 249.584,270.184 249.584,264.712 C249.584,259.288 248.564,254.668 246.524,250.852 C244.484,247.036 241.532,244.12 237.668,242.104 C233.804,240.088 229.16,239.08 223.736,239.08 L223.736,239.08 L202.712,239.08 L202.712,290.56 L223.664,290.56 Z M223.016,278.608 L216.752,278.608 L216.752,251.032 L223.088,251.032 C227.024,251.032 230,252.196 232.016,254.524 C234.032,256.852 235.04,260.248 235.04,264.712 C235.04,269.224 234.02,272.668 231.98,275.044 C229.94,277.42 226.952,278.608 223.016,278.608 L223.016,278.608 Z M287.312,290.56 L287.312,239.08 L273.272,239.08 L273.272,290.56 L287.312,290.56 Z M336.632,290.56 C338.024,285.28 339.368,279.988 340.664,274.684 C341.96,269.38 343.256,264.064 344.552,258.736 C345.8,264.064 347.096,269.38 348.44,274.684 C349.784,279.988 351.152,285.28 352.544,290.56 L352.544,290.56 L367.088,290.56 C369.488,282.16 371.78,273.664 373.964,265.072 C376.148,256.48 378.2,247.816 380.12,239.08 L380.12,239.08 L365.36,239.08 C364.448,245.08 363.476,251.08 362.444,257.08 C361.412,263.08 360.32,269.008 359.168,274.864 C357.872,269.296 356.588,263.716 355.316,258.124 C354.044,252.532 352.808,246.904 351.608,241.24 L351.608,241.24 L338.144,241.24 C336.944,247 335.696,252.772 334.4,258.556 C333.104,264.34 331.76,270.136 330.368,275.944 C329.216,269.944 328.112,263.848 327.056,257.656 C326,251.464 325.016,245.272 324.104,239.08 L324.104,239.08 L309.056,239.08 C311.024,247.816 313.1,256.48 315.284,265.072 C317.468,273.664 319.736,282.16 322.088,290.56 L322.088,290.56 L336.632,290.56 Z M396.464,290.56 C397.472,287.296 398.456,284.08 399.416,280.912 L399.416,280.912 L418.208,280.912 C418.688,282.496 419.18,284.092 419.684,285.7 C420.188,287.308 420.68,288.928 421.16,290.56 L421.16,290.56 L436.352,290.56 C433.28,281.968 430.112,273.376 426.848,264.784 C423.584,256.192 420.224,247.624 416.768,239.08 L416.768,239.08 L401.288,239.08 C397.928,247.192 394.616,255.544 391.352,264.136 C388.088,272.728 384.872,281.536 381.704,290.56 L381.704,290.56 L396.464,290.56 Z M414.752,269.968 L402.872,269.968 C403.832,266.992 404.816,264.028 405.824,261.076 C406.832,258.124 407.84,255.16 408.848,252.184 C409.856,255.112 410.852,258.052 411.836,261.004 C412.82,263.956 413.792,266.944 414.752,269.968 L414.752,269.968 Z M457.304,291.64 C462.008,291.64 466.004,290.992 469.292,289.696 C472.58,288.4 475.1,286.504 476.852,284.008 C478.604,281.512 479.48,278.488 479.48,274.936 C479.48,272.248 479.048,270.004 478.184,268.204 C477.32,266.404 476.096,264.916 474.512,263.74 C472.928,262.564 471.056,261.568 468.896,260.752 C466.736,259.936 464.336,259.216 461.696,258.592 C459.152,257.968 457.196,257.308 455.828,256.612 C454.46,255.916 453.776,254.872 453.776,253.48 C453.776,252.136 454.436,251.116 455.756,250.42 C457.076,249.724 458.936,249.376 461.336,249.376 C463.016,249.376 464.756,249.532 466.556,249.844 C468.356,250.156 470.144,250.612 471.92,251.212 C473.696,251.812 475.376,252.592 476.96,253.552 L476.96,253.552 L476.96,241.528 C474.752,240.424 472.28,239.56 469.544,238.936 C466.808,238.312 464.024,238 461.192,238 C456.824,238 453.032,238.66 449.816,239.98 C446.6,241.3 444.128,243.184 442.4,245.632 C440.672,248.08 439.808,251.032 439.808,254.488 C439.808,256.744 440.144,258.712 440.816,260.392 C441.488,262.072 442.544,263.548 443.984,264.82 C445.424,266.092 447.296,267.208 449.6,268.168 C451.904,269.128 454.688,269.992 457.952,270.76 C459.44,271.096 460.736,271.48 461.84,271.912 C462.944,272.344 463.808,272.86 464.432,273.46 C465.056,274.06 465.368,274.864 465.368,275.872 C465.368,277.264 464.672,278.344 463.28,279.112 C461.888,279.88 459.824,280.264 457.088,280.264 C454.304,280.264 451.508,279.868 448.7,279.076 C445.892,278.284 443.144,277.12 440.456,275.584 L440.456,275.584 L440.456,287.752 C443.24,289.096 446.012,290.08 448.772,290.704 C451.532,291.328 454.376,291.64 457.304,291.64 Z M516.488,290.56 L516.488,274.216 L522.248,274.216 C526.904,274.216 530.84,273.532 534.056,272.164 C537.272,270.796 539.72,268.804 541.4,266.188 C543.08,263.572 543.92,260.392 543.92,256.648 C543.92,250.984 542.06,246.64 538.34,243.616 C534.62,240.592 529.256,239.08 522.248,239.08 L522.248,239.08 L502.88,239.08 L502.88,290.56 L516.488,290.56 Z M521.6,263.416 L516.488,263.416 L516.488,249.88 L521.6,249.88 C527.024,249.88 529.736,252.136 529.736,256.648 C529.736,261.16 527.024,263.416 521.6,263.416 L521.6,263.416 Z M587.984,290.56 L587.984,278.464 L565.088,278.464 L565.088,239.08 L551.048,239.08 L551.048,290.56 L587.984,290.56 Z M604.4,290.56 C605.408,287.296 606.392,284.08 607.352,280.912 L607.352,280.912 L626.144,280.912 C626.624,282.496 627.116,284.092 627.62,285.7 C628.124,287.308 628.616,288.928 629.096,290.56 L629.096,290.56 L644.288,290.56 C641.216,281.968 638.048,273.376 634.784,264.784 C631.52,256.192 628.16,247.624 624.704,239.08 L624.704,239.08 L609.224,239.08 C605.864,247.192 602.552,255.544 599.288,264.136 C596.024,272.728 592.808,281.536 589.64,290.56 L589.64,290.56 L604.4,290.56 Z M622.688,269.968 L610.808,269.968 C611.768,266.992 612.752,264.028 613.76,261.076 C614.768,258.124 615.776,255.16 616.784,252.184 C617.792,255.112 618.788,258.052 619.772,261.004 C620.756,263.956 621.728,266.944 622.688,269.968 L622.688,269.968 Z M678.992,290.56 L678.992,271.48 C682.304,266.104 685.568,260.716 688.784,255.316 C692,249.916 695.144,244.504 698.216,239.08 L698.216,239.08 L682.808,239.08 C681.128,242.488 679.4,245.908 677.624,249.34 C675.848,252.772 674.072,256.192 672.296,259.6 C670.472,256.192 668.684,252.784 666.932,249.376 C665.18,245.968 663.44,242.536 661.712,239.08 L661.712,239.08 L645.8,239.08 C648.824,244.504 651.944,249.916 655.16,255.316 C658.376,260.716 661.64,266.104 664.952,271.48 L664.952,271.48 L664.952,290.56 L678.992,290.56 Z M717.872,290.56 L717.872,239.08 L703.832,239.08 L703.832,290.56 L717.872,290.56 Z M740.768,290.56 L740.768,259.312 C743.888,264.304 747.068,269.452 750.308,274.756 C753.548,280.06 756.704,285.328 759.776,290.56 L759.776,290.56 L773.888,290.56 L773.888,239.08 L760.496,239.08 L760.496,269.752 C757.376,264.52 754.232,259.336 751.064,254.2 C747.896,249.064 744.704,244.024 741.488,239.08 L741.488,239.08 L727.376,239.08 L727.376,290.56 L740.768,290.56 Z M808.736,291.64 C811.04,291.64 813.356,291.496 815.684,291.208 C818.012,290.92 820.256,290.476 822.416,289.876 C824.576,289.276 826.496,288.568 828.176,287.752 L828.176,287.752 L828.176,260.896 L808.088,260.896 L808.088,271.264 L815.576,271.264 L815.576,278.968 C814.664,279.208 813.716,279.388 812.732,279.508 C811.748,279.628 810.776,279.688 809.816,279.688 C805.304,279.688 801.884,278.428 799.556,275.908 C797.228,273.388 796.064,269.68 796.064,264.784 C796.064,260.08 797.396,256.456 800.06,253.912 C802.724,251.368 806.528,250.096 811.472,250.096 C814.496,250.096 817.268,250.42 819.788,251.068 C822.308,251.716 824.648,252.64 826.808,253.84 L826.808,253.84 L826.808,241.168 C821.768,239.056 816.056,238 809.672,238 C805.448,238 801.608,238.636 798.152,239.908 C794.696,241.18 791.72,242.992 789.224,245.344 C786.728,247.696 784.82,250.516 783.5,253.804 C782.18,257.092 781.52,260.752 781.52,264.784 C781.52,268.96 782.144,272.704 783.392,276.016 C784.64,279.328 786.44,282.148 788.792,284.476 C791.144,286.804 794,288.58 797.36,289.804 C800.72,291.028 804.512,291.64 808.736,291.64 Z M876.488,290.56 C877.88,285.28 879.224,279.988 880.52,274.684 C881.816,269.38 883.112,264.064 884.408,258.736 C885.656,264.064 886.952,269.38 888.296,274.684 C889.64,279.988 891.008,285.28 892.4,290.56 L892.4,290.56 L906.944,290.56 C909.344,282.16 911.636,273.664 913.82,265.072 C916.004,256.48 918.056,247.816 919.976,239.08 L919.976,239.08 L905.216,239.08 C904.304,245.08 903.332,251.08 902.3,257.08 C901.268,263.08 900.176,269.008 899.024,274.864 C897.728,269.296 896.444,263.716 895.172,258.124 C893.9,252.532 892.664,246.904 891.464,241.24 L891.464,241.24 L878,241.24 C876.8,247 875.552,252.772 874.256,258.556 C872.96,264.34 871.616,270.136 870.224,275.944 C869.072,269.944 867.968,263.848 866.912,257.656 C865.856,251.464 864.872,245.272 863.96,239.08 L863.96,239.08 L848.912,239.08 C850.88,247.816 852.956,256.48 855.14,265.072 C857.324,273.664 859.592,282.16 861.944,290.56 L861.944,290.56 L876.488,290.56 Z M939.704,290.56 L939.704,239.08 L925.664,239.08 L925.664,290.56 L939.704,290.56 Z M974.912,290.56 L974.912,251.176 L990.32,251.176 L990.32,239.08 L945.464,239.08 L945.464,251.176 L960.872,251.176 L960.872,290.56 L974.912,290.56 Z M1010.12,290.56 L1010.12,269.752 L1028.408,269.752 L1028.408,290.56 L1042.448,290.56 L1042.448,239.08 L1028.408,239.08 L1028.408,257.656 L1010.12,257.656 L1010.12,239.08 L996.08,239.08 L996.08,290.56 L1010.12,290.56 Z M113.072,370.56 C117.392,370.56 121.1,369.96 124.196,368.76 C127.292,367.56 129.668,365.832 131.324,363.576 C132.98,361.32 133.808,358.632 133.808,355.512 C133.808,352.488 133.04,349.908 131.504,347.772 C129.968,345.636 127.76,344.04 124.88,342.984 C128.96,340.728 131,337.296 131,332.688 C131,328.272 129.344,324.9 126.032,322.572 C122.72,320.244 117.992,319.08 111.848,319.08 L111.848,319.08 L90.752,319.08 L90.752,370.56 L113.072,370.56 Z M110.48,339.528 L104.144,339.528 L104.144,329.448 L110.48,329.448 C115.088,329.448 117.392,331.056 117.392,334.272 C117.392,335.904 116.804,337.188 115.628,338.124 C114.452,339.06 112.736,339.528 110.48,339.528 L110.48,339.528 Z M111.776,360.192 L104.144,360.192 L104.144,349.464 L111.848,349.464 C117.32,349.464 120.056,351.288 120.056,354.936 C120.056,356.616 119.348,357.912 117.932,358.824 C116.516,359.736 114.464,360.192 111.776,360.192 L111.776,360.192 Z M178.016,370.56 L178.016,358.464 L155.12,358.464 L155.12,319.08 L141.08,319.08 L141.08,370.56 L178.016,370.56 Z M197.816,370.56 L197.816,319.08 L183.776,319.08 L183.776,370.56 L197.816,370.56 Z M220.712,370.56 L220.712,339.312 C223.832,344.304 227.012,349.452 230.252,354.756 C233.492,360.06 236.648,365.328 239.72,370.56 L239.72,370.56 L253.832,370.56 L253.832,319.08 L240.44,319.08 L240.44,349.752 C237.32,344.52 234.176,339.336 231.008,334.2 C227.84,329.064 224.648,324.024 221.432,319.08 L221.432,319.08 L207.32,319.08 L207.32,370.56 L220.712,370.56 Z M277.376,370.56 L277.376,349.32 L279.896,349.32 C282.584,352.92 285.188,356.472 287.708,359.976 C290.228,363.48 292.736,367.008 295.232,370.56 L295.232,370.56 L312.8,370.56 C309.248,365.856 305.732,361.236 302.252,356.7 C298.772,352.164 295.256,347.688 291.704,343.272 C295.016,339.24 298.256,335.208 301.424,331.176 C304.592,327.144 307.712,323.112 310.784,319.08 L310.784,319.08 L294.224,319.08 C292.016,322.2 289.76,325.332 287.456,328.476 C285.152,331.62 282.728,334.824 280.184,338.088 L280.184,338.088 L277.376,338.088 L277.376,319.08 L263.336,319.08 L263.336,370.56 L277.376,370.56 Z M360.464,370.56 L360.464,320.232 L349.448,320.232 C346.808,321.432 344.336,322.596 342.032,323.724 C339.728,324.852 337.664,325.896 335.84,326.856 L335.84,326.856 L335.84,339.024 C337.472,338.16 339.224,337.26 341.096,336.324 C342.968,335.388 344.864,334.488 346.784,333.624 L346.784,333.624 L346.784,370.56 L360.464,370.56 Z M396.464,371.496 C400.592,371.496 404.18,370.896 407.228,369.696 C410.276,368.496 412.64,366.78 414.32,364.548 C416,362.316 416.84,359.688 416.84,356.664 C416.84,353.736 416.156,351.228 414.788,349.14 C413.42,347.052 411.368,345.312 408.632,343.92 C410.84,342.864 412.544,341.46 413.744,339.708 C414.944,337.956 415.544,335.976 415.544,333.768 C415.544,330.792 414.764,328.224 413.204,326.064 C411.644,323.904 409.448,322.236 406.616,321.06 C403.784,319.884 400.4,319.296 396.464,319.296 C393.632,319.296 391.04,319.644 388.688,320.34 C386.336,321.036 384.32,322.02 382.64,323.292 C380.96,324.564 379.664,326.088 378.752,327.864 C377.84,329.64 377.384,331.608 377.384,333.768 C377.384,339.048 379.76,342.984 384.512,345.576 C381.872,346.68 379.808,348.216 378.32,350.184 C376.832,352.152 376.088,354.432 376.088,357.024 C376.088,360 376.916,362.58 378.572,364.764 C380.228,366.948 382.592,368.616 385.664,369.768 C388.736,370.92 392.336,371.496 396.464,371.496 Z M398.48,340.536 L395.816,340.176 C394.184,339.936 392.864,339.36 391.856,338.448 C390.848,337.536 390.344,336.36 390.344,334.92 C390.344,333.288 390.884,332.016 391.964,331.104 C393.044,330.192 394.544,329.736 396.464,329.736 C398.432,329.736 399.944,330.192 401,331.104 C402.056,332.016 402.584,333.288 402.584,334.92 C402.584,336.216 402.212,337.344 401.468,338.304 C400.724,339.264 399.728,340.008 398.48,340.536 L398.48,340.536 Z M396.464,361.056 C394.304,361.056 392.588,360.54 391.316,359.508 C390.044,358.476 389.408,357.048 389.408,355.224 C389.408,353.688 389.912,352.38 390.92,351.3 C391.928,350.22 393.32,349.464 395.096,349.032 L395.096,349.032 L397.184,349.32 C399.2,349.608 400.76,350.256 401.864,351.264 C402.968,352.272 403.52,353.592 403.52,355.224 C403.52,357.048 402.896,358.476 401.648,359.508 C400.4,360.54 398.672,361.056 396.464,361.056 Z M459.464,370.56 L459.464,358.968 L437.648,358.968 C438.368,357.768 439.424,356.592 440.816,355.44 C442.208,354.288 444.056,352.992 446.36,351.552 C448.712,350.112 450.656,348.744 452.192,347.448 C453.728,346.152 454.94,344.832 455.828,343.488 C456.716,342.144 457.352,340.692 457.736,339.132 C458.12,337.572 458.312,335.808 458.312,333.84 C458.312,330.864 457.556,328.296 456.044,326.136 C454.532,323.976 452.396,322.296 449.636,321.096 C446.876,319.896 443.624,319.296 439.88,319.296 C436.808,319.296 433.988,319.62 431.42,320.268 C428.852,320.916 426.296,321.936 423.752,323.328 L423.752,323.328 L423.752,335.208 C425.864,333.672 427.976,332.556 430.088,331.86 C432.2,331.164 434.384,330.816 436.64,330.816 C439.04,330.816 440.9,331.248 442.22,332.112 C443.54,332.976 444.2,334.248 444.2,335.928 C444.2,336.696 444.08,337.392 443.84,338.016 C443.6,338.64 443.18,339.264 442.58,339.888 C441.98,340.512 441.128,341.232 440.024,342.048 C438.92,342.864 437.48,343.824 435.704,344.928 C432.584,346.896 430.064,348.948 428.144,351.084 C426.224,353.22 424.82,355.536 423.932,358.032 C423.044,360.528 422.6,363.36 422.6,366.528 L422.6,366.528 L422.6,370.56 L459.464,370.56 Z M495.104,370.56 C496.112,367.296 497.096,364.08 498.056,360.912 L498.056,360.912 L516.848,360.912 C517.328,362.496 517.82,364.092 518.324,365.7 C518.828,367.308 519.32,368.928 519.8,370.56 L519.8,370.56 L534.992,370.56 C531.92,361.968 528.752,353.376 525.488,344.784 C522.224,336.192 518.864,327.624 515.408,319.08 L515.408,319.08 L499.928,319.08 C496.568,327.192 493.256,335.544 489.992,344.136 C486.728,352.728 483.512,361.536 480.344,370.56 L480.344,370.56 L495.104,370.56 Z M513.392,349.968 L501.512,349.968 C502.472,346.992 503.456,344.028 504.464,341.076 C505.472,338.124 506.48,335.16 507.488,332.184 C508.496,335.112 509.492,338.052 510.476,341.004 C511.46,343.956 512.432,346.944 513.392,349.968 L513.392,349.968 Z M553.784,370.56 L553.784,339.312 C556.904,344.304 560.084,349.452 563.324,354.756 C566.564,360.06 569.72,365.328 572.792,370.56 L572.792,370.56 L586.904,370.56 L586.904,319.08 L573.512,319.08 L573.512,349.752 C570.392,344.52 567.248,339.336 564.08,334.2 C560.912,329.064 557.72,324.024 554.504,319.08 L554.504,319.08 L540.392,319.08 L540.392,370.56 L553.784,370.56 Z M617.36,370.56 C622.832,370.56 627.5,369.54 631.364,367.5 C635.228,365.46 638.18,362.52 640.22,358.68 C642.26,354.84 643.28,350.184 643.28,344.712 C643.28,339.288 642.26,334.668 640.22,330.852 C638.18,327.036 635.228,324.12 631.364,322.104 C627.5,320.088 622.856,319.08 617.432,319.08 L617.432,319.08 L596.408,319.08 L596.408,370.56 L617.36,370.56 Z M616.712,358.608 L610.448,358.608 L610.448,331.032 L616.784,331.032 C620.72,331.032 623.696,332.196 625.712,334.524 C627.728,336.852 628.736,340.248 628.736,344.712 C628.736,349.224 627.716,352.668 625.676,355.044 C623.636,357.42 620.648,358.608 616.712,358.608 L616.712,358.608 Z M681.008,370.56 L681.008,319.08 L666.968,319.08 L666.968,370.56 L681.008,370.56 Z M731.912,371.64 C734.216,371.64 736.532,371.496 738.86,371.208 C741.188,370.92 743.432,370.476 745.592,369.876 C747.752,369.276 749.672,368.568 751.352,367.752 L751.352,367.752 L751.352,340.896 L731.264,340.896 L731.264,351.264 L738.752,351.264 L738.752,358.968 C737.84,359.208 736.892,359.388 735.908,359.508 C734.924,359.628 733.952,359.688 732.992,359.688 C728.48,359.688 725.06,358.428 722.732,355.908 C720.404,353.388 719.24,349.68 719.24,344.784 C719.24,340.08 720.572,336.456 723.236,333.912 C725.9,331.368 729.704,330.096 734.648,330.096 C737.672,330.096 740.444,330.42 742.964,331.068 C745.484,331.716 747.824,332.64 749.984,333.84 L749.984,333.84 L749.984,321.168 C744.944,319.056 739.232,318 732.848,318 C728.624,318 724.784,318.636 721.328,319.908 C717.872,321.18 714.896,322.992 712.4,325.344 C709.904,327.696 707.996,330.516 706.676,333.804 C705.356,337.092 704.696,340.752 704.696,344.784 C704.696,348.96 705.32,352.704 706.568,356.016 C707.816,359.328 709.616,362.148 711.968,364.476 C714.32,366.804 717.176,368.58 720.536,369.804 C723.896,371.028 727.688,371.64 731.912,371.64 Z M782.528,371.64 C787.28,371.64 791.348,370.728 794.732,368.904 C798.116,367.08 800.708,364.452 802.508,361.02 C804.308,357.588 805.208,353.496 805.208,348.744 L805.208,348.744 L805.208,319.08 L791.384,319.08 L791.384,350.328 C791.384,353.256 790.616,355.524 789.08,357.132 C787.544,358.74 785.36,359.544 782.528,359.544 C779.744,359.544 777.572,358.74 776.012,357.132 C774.452,355.524 773.672,353.256 773.672,350.328 L773.672,350.328 L773.672,319.08 L759.632,319.08 L759.632,348.744 C759.632,353.496 760.544,357.588 762.368,361.02 C764.192,364.452 766.82,367.08 770.252,368.904 C773.684,370.728 777.776,371.64 782.528,371.64 Z M852.728,370.56 L852.728,359.328 L828.176,359.328 L828.176,349.968 L848.48,349.968 L848.48,338.736 L828.176,338.736 L828.176,330.312 L851.36,330.312 L851.36,319.08 L814.496,319.08 L814.496,370.56 L852.728,370.56 Z M875.048,371.64 C879.752,371.64 883.748,370.992 887.036,369.696 C890.324,368.4 892.844,366.504 894.596,364.008 C896.348,361.512 897.224,358.488 897.224,354.936 C897.224,352.248 896.792,350.004 895.928,348.204 C895.064,346.404 893.84,344.916 892.256,343.74 C890.672,342.564 888.8,341.568 886.64,340.752 C884.48,339.936 882.08,339.216 879.44,338.592 C876.896,337.968 874.94,337.308 873.572,336.612 C872.204,335.916 871.52,334.872 871.52,333.48 C871.52,332.136 872.18,331.116 873.5,330.42 C874.82,329.724 876.68,329.376 879.08,329.376 C880.76,329.376 882.5,329.532 884.3,329.844 C886.1,330.156 887.888,330.612 889.664,331.212 C891.44,331.812 893.12,332.592 894.704,333.552 L894.704,333.552 L894.704,321.528 C892.496,320.424 890.024,319.56 887.288,318.936 C884.552,318.312 881.768,318 878.936,318 C874.568,318 870.776,318.66 867.56,319.98 C864.344,321.3 861.872,323.184 860.144,325.632 C858.416,328.08 857.552,331.032 857.552,334.488 C857.552,336.744 857.888,338.712 858.56,340.392 C859.232,342.072 860.288,343.548 861.728,344.82 C863.168,346.092 865.04,347.208 867.344,348.168 C869.648,349.128 872.432,349.992 875.696,350.76 C877.184,351.096 878.48,351.48 879.584,351.912 C880.688,352.344 881.552,352.86 882.176,353.46 C882.8,354.06 883.112,354.864 883.112,355.872 C883.112,357.264 882.416,358.344 881.024,359.112 C879.632,359.88 877.568,360.264 874.832,360.264 C872.048,360.264 869.252,359.868 866.444,359.076 C863.636,358.284 860.888,357.12 858.2,355.584 L858.2,355.584 L858.2,367.752 C860.984,369.096 863.756,370.08 866.516,370.704 C869.276,371.328 872.12,371.64 875.048,371.64 Z M920.12,371.64 C924.824,371.64 928.82,370.992 932.108,369.696 C935.396,368.4 937.916,366.504 939.668,364.008 C941.42,361.512 942.296,358.488 942.296,354.936 C942.296,352.248 941.864,350.004 941,348.204 C940.136,346.404 938.912,344.916 937.328,343.74 C935.744,342.564 933.872,341.568 931.712,340.752 C929.552,339.936 927.152,339.216 924.512,338.592 C921.968,337.968 920.012,337.308 918.644,336.612 C917.276,335.916 916.592,334.872 916.592,333.48 C916.592,332.136 917.252,331.116 918.572,330.42 C919.892,329.724 921.752,329.376 924.152,329.376 C925.832,329.376 927.572,329.532 929.372,329.844 C931.172,330.156 932.96,330.612 934.736,331.212 C936.512,331.812 938.192,332.592 939.776,333.552 L939.776,333.552 L939.776,321.528 C937.568,320.424 935.096,319.56 932.36,318.936 C929.624,318.312 926.84,318 924.008,318 C919.64,318 915.848,318.66 912.632,319.98 C909.416,321.3 906.944,323.184 905.216,325.632 C903.488,328.08 902.624,331.032 902.624,334.488 C902.624,336.744 902.96,338.712 903.632,340.392 C904.304,342.072 905.36,343.548 906.8,344.82 C908.24,346.092 910.112,347.208 912.416,348.168 C914.72,349.128 917.504,349.992 920.768,350.76 C922.256,351.096 923.552,351.48 924.656,351.912 C925.76,352.344 926.624,352.86 927.248,353.46 C927.872,354.06 928.184,354.864 928.184,355.872 C928.184,357.264 927.488,358.344 926.096,359.112 C924.704,359.88 922.64,360.264 919.904,360.264 C917.12,360.264 914.324,359.868 911.516,359.076 C908.708,358.284 905.96,357.12 903.272,355.584 L903.272,355.584 L903.272,367.752 C906.056,369.096 908.828,370.08 911.588,370.704 C914.348,371.328 917.192,371.64 920.12,371.64 Z M987.872,370.56 L987.872,359.328 L963.32,359.328 L963.32,349.968 L983.624,349.968 L983.624,338.736 L963.32,338.736 L963.32,330.312 L986.504,330.312 L986.504,319.08 L949.64,319.08 L949.64,370.56 L987.872,370.56 Z M1015.592,370.56 C1021.064,370.56 1025.732,369.54 1029.596,367.5 C1033.46,365.46 1036.412,362.52 1038.452,358.68 C1040.492,354.84 1041.512,350.184 1041.512,344.712 C1041.512,339.288 1040.492,334.668 1038.452,330.852 C1036.412,327.036 1033.46,324.12 1029.596,322.104 C1025.732,320.088 1021.088,319.08 1015.664,319.08 L1015.664,319.08 L994.64,319.08 L994.64,370.56 L1015.592,370.56 Z M1014.944,358.608 L1008.68,358.608 L1008.68,331.032 L1015.016,331.032 C1018.952,331.032 1021.928,332.196 1023.944,334.524 C1025.96,336.852 1026.968,340.248 1026.968,344.712 C1026.968,349.224 1025.948,352.668 1023.908,355.044 C1021.868,357.42 1018.88,358.608 1014.944,358.608 L1014.944,358.608 Z M116.456,450.56 L116.456,411.176 L131.864,411.176 L131.864,399.08 L87.008,399.08 L87.008,411.176 L102.416,411.176 L102.416,450.56 L116.456,450.56 Z M151.664,450.56 L151.664,429.752 L169.952,429.752 L169.952,450.56 L183.992,450.56 L183.992,399.08 L169.952,399.08 L169.952,417.656 L151.664,417.656 L151.664,399.08 L137.624,399.08 L137.624,450.56 L151.664,450.56 Z M231.728,450.56 L231.728,439.328 L207.176,439.328 L207.176,429.968 L227.48,429.968 L227.48,418.736 L207.176,418.736 L207.176,410.312 L230.36,410.312 L230.36,399.08 L193.496,399.08 L193.496,450.56 L231.728,450.56 Z M265.208,450.56 C266.216,447.296 267.2,444.08 268.16,440.912 L268.16,440.912 L286.952,440.912 C287.432,442.496 287.924,444.092 288.428,445.7 C288.932,447.308 289.424,448.928 289.904,450.56 L289.904,450.56 L305.096,450.56 C302.024,441.968 298.856,433.376 295.592,424.784 C292.328,416.192 288.968,407.624 285.512,399.08 L285.512,399.08 L270.032,399.08 C266.672,407.192 263.36,415.544 260.096,424.136 C256.832,432.728 253.616,441.536 250.448,450.56 L250.448,450.56 L265.208,450.56 Z M283.496,429.968 L271.616,429.968 C272.576,426.992 273.56,424.028 274.568,421.076 C275.576,418.124 276.584,415.16 277.592,412.184 C278.6,415.112 279.596,418.052 280.58,421.004 C281.564,423.956 282.536,426.944 283.496,429.968 L283.496,429.968 Z M335.84,451.64 C338.144,451.64 340.46,451.496 342.788,451.208 C345.116,450.92 347.36,450.476 349.52,449.876 C351.68,449.276 353.6,448.568 355.28,447.752 L355.28,447.752 L355.28,420.896 L335.192,420.896 L335.192,431.264 L342.68,431.264 L342.68,438.968 C341.768,439.208 340.82,439.388 339.836,439.508 C338.852,439.628 337.88,439.688 336.92,439.688 C332.408,439.688 328.988,438.428 326.66,435.908 C324.332,433.388 323.168,429.68 323.168,424.784 C323.168,420.08 324.5,416.456 327.164,413.912 C329.828,411.368 333.632,410.096 338.576,410.096 C341.6,410.096 344.372,410.42 346.892,411.068 C349.412,411.716 351.752,412.64 353.912,413.84 L353.912,413.84 L353.912,401.168 C348.872,399.056 343.16,398 336.776,398 C332.552,398 328.712,398.636 325.256,399.908 C321.8,401.18 318.824,402.992 316.328,405.344 C313.832,407.696 311.924,410.516 310.604,413.804 C309.284,417.092 308.624,420.752 308.624,424.784 C308.624,428.96 309.248,432.704 310.496,436.016 C311.744,439.328 313.544,442.148 315.896,444.476 C318.248,446.804 321.104,448.58 324.464,449.804 C327.824,451.028 331.616,451.64 335.84,451.64 Z M402.008,450.56 L402.008,439.328 L377.456,439.328 L377.456,429.968 L397.76,429.968 L397.76,418.736 L377.456,418.736 L377.456,410.312 L400.64,410.312 L400.64,399.08 L363.776,399.08 L363.776,450.56 L402.008,450.56 Z M435.488,450.56 C436.496,447.296 437.48,444.08 438.44,440.912 L438.44,440.912 L457.232,440.912 C457.712,442.496 458.204,444.092 458.708,445.7 C459.212,447.308 459.704,448.928 460.184,450.56 L460.184,450.56 L475.376,450.56 C472.304,441.968 469.136,433.376 465.872,424.784 C462.608,416.192 459.248,407.624 455.792,399.08 L455.792,399.08 L440.312,399.08 C436.952,407.192 433.64,415.544 430.376,424.136 C427.112,432.728 423.896,441.536 420.728,450.56 L420.728,450.56 L435.488,450.56 Z M453.776,429.968 L441.896,429.968 C442.856,426.992 443.84,424.028 444.848,421.076 C445.856,418.124 446.864,415.16 447.872,412.184 C448.88,415.112 449.876,418.052 450.86,421.004 C451.844,423.956 452.816,426.944 453.776,429.968 L453.776,429.968 Z M496.328,451.64 C501.032,451.64 505.028,450.992 508.316,449.696 C511.604,448.4 514.124,446.504 515.876,444.008 C517.628,441.512 518.504,438.488 518.504,434.936 C518.504,432.248 518.072,430.004 517.208,428.204 C516.344,426.404 515.12,424.916 513.536,423.74 C511.952,422.564 510.08,421.568 507.92,420.752 C505.76,419.936 503.36,419.216 500.72,418.592 C498.176,417.968 496.22,417.308 494.852,416.612 C493.484,415.916 492.8,414.872 492.8,413.48 C492.8,412.136 493.46,411.116 494.78,410.42 C496.1,409.724 497.96,409.376 500.36,409.376 C502.04,409.376 503.78,409.532 505.58,409.844 C507.38,410.156 509.168,410.612 510.944,411.212 C512.72,411.812 514.4,412.592 515.984,413.552 L515.984,413.552 L515.984,401.528 C513.776,400.424 511.304,399.56 508.568,398.936 C505.832,398.312 503.048,398 500.216,398 C495.848,398 492.056,398.66 488.84,399.98 C485.624,401.3 483.152,403.184 481.424,405.632 C479.696,408.08 478.832,411.032 478.832,414.488 C478.832,416.744 479.168,418.712 479.84,420.392 C480.512,422.072 481.568,423.548 483.008,424.82 C484.448,426.092 486.32,427.208 488.624,428.168 C490.928,429.128 493.712,429.992 496.976,430.76 C498.464,431.096 499.76,431.48 500.864,431.912 C501.968,432.344 502.832,432.86 503.456,433.46 C504.08,434.06 504.392,434.864 504.392,435.872 C504.392,437.264 503.696,438.344 502.304,439.112 C500.912,439.88 498.848,440.264 496.112,440.264 C493.328,440.264 490.532,439.868 487.724,439.076 C484.916,438.284 482.168,437.12 479.48,435.584 L479.48,435.584 L479.48,447.752 C482.264,449.096 485.036,450.08 487.796,450.704 C490.556,451.328 493.4,451.64 496.328,451.64 Z M565.664,450.56 C567.056,445.28 568.4,439.988 569.696,434.684 C570.992,429.38 572.288,424.064 573.584,418.736 C574.832,424.064 576.128,429.38 577.472,434.684 C578.816,439.988 580.184,445.28 581.576,450.56 L581.576,450.56 L596.12,450.56 C598.52,442.16 600.812,433.664 602.996,425.072 C605.18,416.48 607.232,407.816 609.152,399.08 L609.152,399.08 L594.392,399.08 C593.48,405.08 592.508,411.08 591.476,417.08 C590.444,423.08 589.352,429.008 588.2,434.864 C586.904,429.296 585.62,423.716 584.348,418.124 C583.076,412.532 581.84,406.904 580.64,401.24 L580.64,401.24 L567.176,401.24 C565.976,407 564.728,412.772 563.432,418.556 C562.136,424.34 560.792,430.136 559.4,435.944 C558.248,429.944 557.144,423.848 556.088,417.656 C555.032,411.464 554.048,405.272 553.136,399.08 L553.136,399.08 L538.088,399.08 C540.056,407.816 542.132,416.48 544.316,425.072 C546.5,433.664 548.768,442.16 551.12,450.56 L551.12,450.56 L565.664,450.56 Z M653.072,450.56 L653.072,439.328 L628.52,439.328 L628.52,429.968 L648.824,429.968 L648.824,418.736 L628.52,418.736 L628.52,410.312 L651.704,410.312 L651.704,399.08 L614.84,399.08 L614.84,450.56 L653.072,450.56 Z M696.776,450.56 L696.776,438.464 L673.88,438.464 L673.88,399.08 L659.84,399.08 L659.84,450.56 L696.776,450.56 Z M739.472,450.56 L739.472,438.464 L716.576,438.464 L716.576,399.08 L702.536,399.08 L702.536,450.56 L739.472,450.56 Z M750.92,451.208 C752.456,451.208 753.776,450.884 754.88,450.236 C755.984,449.588 756.836,448.724 757.436,447.644 C758.036,446.564 758.336,445.376 758.336,444.08 C758.336,442.784 758.036,441.596 757.436,440.516 C756.836,439.436 755.984,438.584 754.88,437.96 C753.776,437.336 752.456,437.024 750.92,437.024 C749.384,437.024 748.064,437.336 746.96,437.96 C745.856,438.584 745.004,439.436 744.404,440.516 C743.804,441.596 743.504,442.784 743.504,444.08 C743.504,445.376 743.804,446.564 744.404,447.644 C745.004,448.724 745.856,449.588 746.96,450.236 C748.064,450.884 749.384,451.208 750.92,451.208 Z M104.792,530.56 L104.792,479.08 L90.752,479.08 L90.752,530.56 L104.792,530.56 Z M140,530.56 L140,491.176 L155.408,491.176 L155.408,479.08 L110.552,479.08 L110.552,491.176 L125.96,491.176 L125.96,530.56 L140,530.56 Z M200.984,530.56 C202.376,525.28 203.72,519.988 205.016,514.684 C206.312,509.38 207.608,504.064 208.904,498.736 C210.152,504.064 211.448,509.38 212.792,514.684 C214.136,519.988 215.504,525.28 216.896,530.56 L216.896,530.56 L231.44,530.56 C233.84,522.16 236.132,513.664 238.316,505.072 C240.5,496.48 242.552,487.816 244.472,479.08 L244.472,479.08 L229.712,479.08 C228.8,485.08 227.828,491.08 226.796,497.08 C225.764,503.08 224.672,509.008 223.52,514.864 C222.224,509.296 220.94,503.716 219.668,498.124 C218.396,492.532 217.16,486.904 215.96,481.24 L215.96,481.24 L202.496,481.24 C201.296,487 200.048,492.772 198.752,498.556 C197.456,504.34 196.112,510.136 194.72,515.944 C193.568,509.944 192.464,503.848 191.408,497.656 C190.352,491.464 189.368,485.272 188.456,479.08 L188.456,479.08 L173.408,479.08 C175.376,487.816 177.452,496.48 179.636,505.072 C181.82,513.664 184.088,522.16 186.44,530.56 L186.44,530.56 L200.984,530.56 Z M260.816,530.56 C261.824,527.296 262.808,524.08 263.768,520.912 L263.768,520.912 L282.56,520.912 C283.04,522.496 283.532,524.092 284.036,525.7 C284.54,527.308 285.032,528.928 285.512,530.56 L285.512,530.56 L300.704,530.56 C297.632,521.968 294.464,513.376 291.2,504.784 C287.936,496.192 284.576,487.624 281.12,479.08 L281.12,479.08 L265.64,479.08 C262.28,487.192 258.968,495.544 255.704,504.136 C252.44,512.728 249.224,521.536 246.056,530.56 L246.056,530.56 L260.816,530.56 Z M279.104,509.968 L267.224,509.968 C268.184,506.992 269.168,504.028 270.176,501.076 C271.184,498.124 272.192,495.16 273.2,492.184 C274.208,495.112 275.204,498.052 276.188,501.004 C277.172,503.956 278.144,506.944 279.104,509.968 L279.104,509.968 Z M321.656,531.64 C326.36,531.64 330.356,530.992 333.644,529.696 C336.932,528.4 339.452,526.504 341.204,524.008 C342.956,521.512 343.832,518.488 343.832,514.936 C343.832,512.248 343.4,510.004 342.536,508.204 C341.672,506.404 340.448,504.916 338.864,503.74 C337.28,502.564 335.408,501.568 333.248,500.752 C331.088,499.936 328.688,499.216 326.048,498.592 C323.504,497.968 321.548,497.308 320.18,496.612 C318.812,495.916 318.128,494.872 318.128,493.48 C318.128,492.136 318.788,491.116 320.108,490.42 C321.428,489.724 323.288,489.376 325.688,489.376 C327.368,489.376 329.108,489.532 330.908,489.844 C332.708,490.156 334.496,490.612 336.272,491.212 C338.048,491.812 339.728,492.592 341.312,493.552 L341.312,493.552 L341.312,481.528 C339.104,480.424 336.632,479.56 333.896,478.936 C331.16,478.312 328.376,478 325.544,478 C321.176,478 317.384,478.66 314.168,479.98 C310.952,481.3 308.48,483.184 306.752,485.632 C305.024,488.08 304.16,491.032 304.16,494.488 C304.16,496.744 304.496,498.712 305.168,500.392 C305.84,502.072 306.896,503.548 308.336,504.82 C309.776,506.092 311.648,507.208 313.952,508.168 C316.256,509.128 319.04,509.992 322.304,510.76 C323.792,511.096 325.088,511.48 326.192,511.912 C327.296,512.344 328.16,512.86 328.784,513.46 C329.408,514.06 329.72,514.864 329.72,515.872 C329.72,517.264 329.024,518.344 327.632,519.112 C326.24,519.88 324.176,520.264 321.44,520.264 C318.656,520.264 315.86,519.868 313.052,519.076 C310.244,518.284 307.496,517.12 304.808,515.584 L304.808,515.584 L304.808,527.752 C307.592,529.096 310.364,530.08 313.124,530.704 C315.884,531.328 318.728,531.64 321.656,531.64 Z M380.336,530.56 L380.336,499.312 C381.92,502.96 383.54,506.608 385.196,510.256 C386.852,513.904 388.52,517.552 390.2,521.2 L390.2,521.2 L401,521.2 C402.632,517.552 404.252,513.892 405.86,510.22 C407.468,506.548 409.064,502.84 410.648,499.096 L410.648,499.096 L410.648,530.56 L423.752,530.56 L423.752,479.08 L407.048,479.08 C405.224,483.928 403.376,488.716 401.504,493.444 C399.632,498.172 397.736,502.84 395.816,507.448 C393.8,502.792 391.82,498.088 389.876,493.336 C387.932,488.584 386.024,483.832 384.152,479.08 L384.152,479.08 L367.232,479.08 L367.232,530.56 L380.336,530.56 Z M443.912,530.56 C444.92,527.296 445.904,524.08 446.864,520.912 L446.864,520.912 L465.656,520.912 C466.136,522.496 466.628,524.092 467.132,525.7 C467.636,527.308 468.128,528.928 468.608,530.56 L468.608,530.56 L483.8,530.56 C480.728,521.968 477.56,513.376 474.296,504.784 C471.032,496.192 467.672,487.624 464.216,479.08 L464.216,479.08 L448.736,479.08 C445.376,487.192 442.064,495.544 438.8,504.136 C435.536,512.728 432.32,521.536 429.152,530.56 L429.152,530.56 L443.912,530.56 Z M462.2,509.968 L450.32,509.968 C451.28,506.992 452.264,504.028 453.272,501.076 C454.28,498.124 455.288,495.16 456.296,492.184 C457.304,495.112 458.3,498.052 459.284,501.004 C460.268,503.956 461.24,506.944 462.2,509.968 L462.2,509.968 Z M510.152,530.56 C515.624,530.56 520.292,529.54 524.156,527.5 C528.02,525.46 530.972,522.52 533.012,518.68 C535.052,514.84 536.072,510.184 536.072,504.712 C536.072,499.288 535.052,494.668 533.012,490.852 C530.972,487.036 528.02,484.12 524.156,482.104 C520.292,480.088 515.648,479.08 510.224,479.08 L510.224,479.08 L489.2,479.08 L489.2,530.56 L510.152,530.56 Z M509.504,518.608 L503.24,518.608 L503.24,491.032 L509.576,491.032 C513.512,491.032 516.488,492.196 518.504,494.524 C520.52,496.852 521.528,500.248 521.528,504.712 C521.528,509.224 520.508,512.668 518.468,515.044 C516.428,517.42 513.44,518.608 509.504,518.608 L509.504,518.608 Z M557.096,530.56 L557.096,499.312 C560.216,504.304 563.396,509.452 566.636,514.756 C569.876,520.06 573.032,525.328 576.104,530.56 L576.104,530.56 L590.216,530.56 L590.216,479.08 L576.824,479.08 L576.824,509.752 C573.704,504.52 570.56,499.336 567.392,494.2 C564.224,489.064 561.032,484.024 557.816,479.08 L557.816,479.08 L543.704,479.08 L543.704,530.56 L557.096,530.56 Z M637.952,530.56 L637.952,519.328 L613.4,519.328 L613.4,509.968 L633.704,509.968 L633.704,498.736 L613.4,498.736 L613.4,490.312 L636.584,490.312 L636.584,479.08 L599.72,479.08 L599.72,530.56 L637.952,530.56 Z M660.272,531.64 C664.976,531.64 668.972,530.992 672.26,529.696 C675.548,528.4 678.068,526.504 679.82,524.008 C681.572,521.512 682.448,518.488 682.448,514.936 C682.448,512.248 682.016,510.004 681.152,508.204 C680.288,506.404 679.064,504.916 677.48,503.74 C675.896,502.564 674.024,501.568 671.864,500.752 C669.704,499.936 667.304,499.216 664.664,498.592 C662.12,497.968 660.164,497.308 658.796,496.612 C657.428,495.916 656.744,494.872 656.744,493.48 C656.744,492.136 657.404,491.116 658.724,490.42 C660.044,489.724 661.904,489.376 664.304,489.376 C665.984,489.376 667.724,489.532 669.524,489.844 C671.324,490.156 673.112,490.612 674.888,491.212 C676.664,491.812 678.344,492.592 679.928,493.552 L679.928,493.552 L679.928,481.528 C677.72,480.424 675.248,479.56 672.512,478.936 C669.776,478.312 666.992,478 664.16,478 C659.792,478 656,478.66 652.784,479.98 C649.568,481.3 647.096,483.184 645.368,485.632 C643.64,488.08 642.776,491.032 642.776,494.488 C642.776,496.744 643.112,498.712 643.784,500.392 C644.456,502.072 645.512,503.548 646.952,504.82 C648.392,506.092 650.264,507.208 652.568,508.168 C654.872,509.128 657.656,509.992 660.92,510.76 C662.408,511.096 663.704,511.48 664.808,511.912 C665.912,512.344 666.776,512.86 667.4,513.46 C668.024,514.06 668.336,514.864 668.336,515.872 C668.336,517.264 667.64,518.344 666.248,519.112 C664.856,519.88 662.792,520.264 660.056,520.264 C657.272,520.264 654.476,519.868 651.668,519.076 C648.86,518.284 646.112,517.12 643.424,515.584 L643.424,515.584 L643.424,527.752 C646.208,529.096 648.98,530.08 651.74,530.704 C654.5,531.328 657.344,531.64 660.272,531.64 Z M705.344,531.64 C710.048,531.64 714.044,530.992 717.332,529.696 C720.62,528.4 723.14,526.504 724.892,524.008 C726.644,521.512 727.52,518.488 727.52,514.936 C727.52,512.248 727.088,510.004 726.224,508.204 C725.36,506.404 724.136,504.916 722.552,503.74 C720.968,502.564 719.096,501.568 716.936,500.752 C714.776,499.936 712.376,499.216 709.736,498.592 C707.192,497.968 705.236,497.308 703.868,496.612 C702.5,495.916 701.816,494.872 701.816,493.48 C701.816,492.136 702.476,491.116 703.796,490.42 C705.116,489.724 706.976,489.376 709.376,489.376 C711.056,489.376 712.796,489.532 714.596,489.844 C716.396,490.156 718.184,490.612 719.96,491.212 C721.736,491.812 723.416,492.592 725,493.552 L725,493.552 L725,481.528 C722.792,480.424 720.32,479.56 717.584,478.936 C714.848,478.312 712.064,478 709.232,478 C704.864,478 701.072,478.66 697.856,479.98 C694.64,481.3 692.168,483.184 690.44,485.632 C688.712,488.08 687.848,491.032 687.848,494.488 C687.848,496.744 688.184,498.712 688.856,500.392 C689.528,502.072 690.584,503.548 692.024,504.82 C693.464,506.092 695.336,507.208 697.64,508.168 C699.944,509.128 702.728,509.992 705.992,510.76 C707.48,511.096 708.776,511.48 709.88,511.912 C710.984,512.344 711.848,512.86 712.472,513.46 C713.096,514.06 713.408,514.864 713.408,515.872 C713.408,517.264 712.712,518.344 711.32,519.112 C709.928,519.88 707.864,520.264 705.128,520.264 C702.344,520.264 699.548,519.868 696.74,519.076 C693.932,518.284 691.184,517.12 688.496,515.584 L688.496,515.584 L688.496,527.752 C691.28,529.096 694.052,530.08 696.812,530.704 C699.572,531.328 702.416,531.64 705.344,531.64 Z M746.6,513.136 L747.68,479.08 L733.856,479.08 L734.936,513.136 L746.6,513.136 Z M740.768,531.208 C742.304,531.208 743.624,530.884 744.728,530.236 C745.832,529.588 746.684,528.724 747.284,527.644 C747.884,526.564 748.184,525.376 748.184,524.08 C748.184,522.784 747.884,521.596 747.284,520.516 C746.684,519.436 745.832,518.584 744.728,517.96 C743.624,517.336 742.304,517.024 740.768,517.024 C739.232,517.024 737.912,517.336 736.808,517.96 C735.704,518.584 734.852,519.436 734.252,520.516 C733.652,521.596 733.352,522.784 733.352,524.08 C733.352,525.376 733.652,526.564 734.252,527.644 C734.852,528.724 735.704,529.588 736.808,530.236 C737.912,530.884 739.232,531.208 740.768,531.208 Z" id="IJUSTPLAYEDTHISATHOMEONTHERADIOANDIWASPLAYINGWITHBLINK182ANDIGUESSEDTHEAGEASWELL.ITWASMADNESS!-Copy" fill="#FFFFFF" fill-rule="nonzero"></path>
        <path d="M110,594.384 L110,591.696 L86,591.696 L86,594.384 L110,594.384 Z M137.936,606 C141.488,606 144.528,605.32 147.056,603.96 C149.584,602.6 151.52,600.632 152.864,598.056 C154.208,595.48 154.88,592.368 154.88,588.72 C154.88,585.072 154.2,581.976 152.84,579.432 C151.48,576.888 149.544,574.96 147.032,573.648 C144.52,572.336 141.504,571.68 137.984,571.68 L137.984,571.68 L126.8,571.68 L126.8,606 L137.936,606 Z M137.648,603.456 L129.776,603.456 L129.776,574.224 L137.696,574.224 C142.176,574.224 145.64,575.448 148.088,577.896 C150.536,580.344 151.76,583.952 151.76,588.72 C151.76,593.552 150.536,597.216 148.088,599.712 C145.64,602.208 142.16,603.456 137.648,603.456 L137.648,603.456 Z M167.984,606.624 C169.648,606.624 171.16,606.32 172.52,605.712 C173.88,605.104 175.088,604.208 176.144,603.024 C176.304,605.328 177.584,606.48 179.984,606.48 C181.008,606.48 181.84,606.304 182.48,605.952 L182.48,605.952 L182.48,603.792 C181.904,604.08 181.28,604.224 180.608,604.224 C180,604.224 179.56,604.056 179.288,603.72 C179.016,603.384 178.88,602.864 178.88,602.16 L178.88,602.16 L178.88,589.248 C178.88,587.52 178.52,586.04 177.8,584.808 C177.08,583.576 176.056,582.632 174.728,581.976 C173.4,581.32 171.808,580.992 169.952,580.992 C167.072,580.992 164.336,581.728 161.744,583.2 L161.744,583.2 L161.744,585.888 C163.056,585.024 164.36,584.392 165.656,583.992 C166.952,583.592 168.336,583.392 169.808,583.392 C171.824,583.392 173.368,583.92 174.44,584.976 C175.512,586.032 176.048,587.552 176.048,589.536 L176.048,589.536 L176.048,592.752 C175.28,592.656 174.416,592.576 173.456,592.512 C172.496,592.448 171.616,592.416 170.816,592.416 C167.328,592.416 164.656,593.056 162.8,594.336 C160.944,595.616 160.016,597.44 160.016,599.808 C160.016,601.952 160.72,603.624 162.128,604.824 C163.536,606.024 165.488,606.624 167.984,606.624 Z M168.272,604.32 C164.688,604.32 162.896,602.8 162.896,599.76 C162.896,597.968 163.552,596.664 164.864,595.848 C166.176,595.032 168.224,594.624 171.008,594.624 C171.84,594.624 172.696,594.656 173.576,594.72 C174.456,594.784 175.28,594.864 176.048,594.96 L176.048,594.96 L176.048,600.576 C173.968,603.072 171.376,604.32 168.272,604.32 Z M188.768,575.472 C189.408,575.472 189.92,575.28 190.304,574.896 C190.688,574.512 190.88,574.016 190.88,573.408 C190.88,572.8 190.688,572.312 190.304,571.944 C189.92,571.576 189.408,571.392 188.768,571.392 C188.16,571.392 187.664,571.576 187.28,571.944 C186.896,572.312 186.704,572.8 186.704,573.408 C186.704,574.016 186.896,574.512 187.28,574.896 C187.664,575.28 188.16,575.472 188.768,575.472 Z M190.208,606 L190.208,581.616 L187.376,581.616 L187.376,606 L190.208,606 Z M204.56,606.624 C206.48,606.624 208.144,606.328 209.552,605.736 C210.96,605.144 212.04,604.304 212.792,603.216 C213.544,602.128 213.92,600.848 213.92,599.376 C213.92,598.128 213.656,597.08 213.128,596.232 C212.6,595.384 211.744,594.648 210.56,594.024 C209.376,593.4 207.76,592.832 205.712,592.32 C204.464,592 203.448,591.688 202.664,591.384 C201.88,591.08 201.264,590.76 200.816,590.424 C200.368,590.088 200.056,589.688 199.88,589.224 C199.704,588.76 199.616,588.224 199.616,587.616 C199.616,586.272 200.168,585.224 201.272,584.472 C202.376,583.72 203.872,583.344 205.76,583.344 C208.704,583.344 211.104,584.128 212.96,585.696 L212.96,585.696 L212.96,582.864 C212.032,582.224 210.96,581.752 209.744,581.448 C208.528,581.144 207.216,580.992 205.808,580.992 C203.984,580.992 202.4,581.264 201.056,581.808 C199.712,582.352 198.672,583.136 197.936,584.16 C197.2,585.184 196.832,586.416 196.832,587.856 C196.832,589.072 197.08,590.104 197.576,590.952 C198.072,591.8 198.92,592.52 200.12,593.112 C201.32,593.704 202.944,594.272 204.992,594.816 C206.624,595.2 207.88,595.6 208.76,596.016 C209.64,596.432 210.248,596.928 210.584,597.504 C210.92,598.08 211.088,598.8 211.088,599.664 C211.088,601.136 210.536,602.272 209.432,603.072 C208.328,603.872 206.768,604.272 204.752,604.272 C203.248,604.272 201.808,604.056 200.432,603.624 C199.056,603.192 197.856,602.56 196.832,601.728 L196.832,601.728 L196.832,604.608 C198.016,605.312 199.264,605.824 200.576,606.144 C201.888,606.464 203.216,606.624 204.56,606.624 Z M219.68,617.472 C222.4,617.472 224.544,615.792 226.112,612.432 C226.368,611.888 226.72,611.104 227.168,610.08 C227.616,609.056 228.136,607.856 228.728,606.48 C229.32,605.104 229.96,603.6 230.648,601.968 C231.336,600.336 232.048,598.64 232.784,596.88 C233.52,595.12 234.256,593.352 234.992,591.576 C235.728,589.8 236.448,588.064 237.152,586.368 C237.856,584.672 238.496,583.088 239.072,581.616 L239.072,581.616 L236.144,581.616 C234.832,585.104 233.504,588.6 232.16,592.104 C230.816,595.608 229.376,599.104 227.84,602.592 C226.4,599.104 225,595.616 223.64,592.128 C222.28,588.64 220.96,585.136 219.68,581.616 L219.68,581.616 L216.656,581.616 C218.16,585.616 219.728,589.624 221.36,593.64 C222.992,597.656 224.688,601.68 226.448,605.712 C226,606.768 225.528,607.832 225.032,608.904 C224.536,609.976 224.016,611.024 223.472,612.048 C222.896,613.136 222.296,613.912 221.672,614.376 C221.048,614.84 220.272,615.072 219.344,615.072 C218.832,615.072 218.344,615.024 217.88,614.928 C217.416,614.832 217.008,614.688 216.656,614.496 L216.656,614.496 L216.656,616.896 C217.584,617.28 218.592,617.472 219.68,617.472 Z" id="Daisy" fill="#FFFFFF" fill-rule="nonzero"></path>
    </g>
</svg>