<?xml version="1.0" encoding="UTF-8"?>
<svg width="1200px" height="675px" viewBox="0 0 1200 675" version="1.1" xmlns="http://www.w3.org/2000/svg" xmlns:xlink="http://www.w3.org/1999/xlink">
    <!-- Generator: Sketch 61.2 (89653) - https://sketch.com -->
    <title>Daisy</title>
    <desc>Created with Sketch.</desc>
    <g id="Daisy" stroke="none" stroke-width="1" fill="none" fill-rule="evenodd">
        <g id="I-JUST-PLAYED-THIS…A" transform="translate(86.648000, 72.440000)" fill="#FFFFFF" fill-rule="nonzero">
            <path d="M18.144,52.56 L18.144,1.08 L4.104,1.08 L4.104,52.56 L18.144,52.56 Z M51.696,53.64 C58.128,53.64 63.072,51.888 66.528,48.384 C69.984,44.88 71.712,39.864 71.712,33.336 L71.712,33.336 L71.712,1.08 L57.672,1.08 L57.672,32.976 C57.672,38.688 54.84,41.544 49.176,41.544 C47.4,41.544 45.744,41.34 44.208,40.932 C42.672,40.524 41.28,39.936 40.032,39.168 L40.032,39.168 L40.032,51.12 C41.52,51.888 43.272,52.5 45.288,52.956 C47.304,53.412 49.44,53.64 51.696,53.64 Z M103.68,53.64 C108.432,53.64 112.5,52.728 115.884,50.904 C119.268,49.08 121.86,46.452 123.66,43.02 C125.46,39.588 126.36,35.496 126.36,30.744 L126.36,30.744 L126.36,1.08 L112.536,1.08 L112.536,32.328 C112.536,35.256 111.768,37.524 110.232,39.132 C108.696,40.74 106.512,41.544 103.68,41.544 C100.896,41.544 98.724,40.74 97.164,39.132 C95.604,37.524 94.824,35.256 94.824,32.328 L94.824,32.328 L94.824,1.08 L80.784,1.08 L80.784,30.744 C80.784,35.496 81.696,39.588 83.52,43.02 C85.344,46.452 87.972,49.08 91.404,50.904 C94.836,52.728 98.928,53.64 103.68,53.64 Z M151.2,53.64 C155.904,53.64 159.9,52.992 163.188,51.696 C166.476,50.4 168.996,48.504 170.748,46.008 C172.5,43.512 173.376,40.488 173.376,36.936 C173.376,34.248 172.944,32.004 172.08,30.204 C171.216,28.404 169.992,26.916 168.408,25.74 C166.824,24.564 164.952,23.568 162.792,22.752 C160.632,21.936 158.232,21.216 155.592,20.592 C153.048,19.968 151.092,19.308 149.724,18.612 C148.356,17.916 147.672,16.872 147.672,15.48 C147.672,14.136 148.332,13.116 149.652,12.42 C150.972,11.724 152.832,11.376 155.232,11.376 C156.912,11.376 158.652,11.532 160.452,11.844 C162.252,12.156 164.04,12.612 165.816,13.212 C167.592,13.812 169.272,14.592 170.856,15.552 L170.856,15.552 L170.856,3.528 C168.648,2.424 166.176,1.56 163.44,0.936 C160.704,0.312 157.92,0 155.088,0 C150.72,0 146.928,0.66 143.712,1.98 C140.496,3.3 138.024,5.184 136.296,7.632 C134.568,10.08 133.704,13.032 133.704,16.488 C133.704,18.744 134.04,20.712 134.712,22.392 C135.384,24.072 136.44,25.548 137.88,26.82 C139.32,28.092 141.192,29.208 143.496,30.168 C145.8,31.128 148.584,31.992 151.848,32.76 C153.336,33.096 154.632,33.48 155.736,33.912 C156.84,34.344 157.704,34.86 158.328,35.46 C158.952,36.06 159.264,36.864 159.264,37.872 C159.264,39.264 158.568,40.344 157.176,41.112 C155.784,41.88 153.72,42.264 150.984,42.264 C148.2,42.264 145.404,41.868 142.596,41.076 C139.788,40.284 137.04,39.12 134.352,37.584 L134.352,37.584 L134.352,49.752 C137.136,51.096 139.908,52.08 142.668,52.704 C145.428,53.328 148.272,53.64 151.2,53.64 Z M206.424,52.56 L206.424,13.176 L221.832,13.176 L221.832,1.08 L176.976,1.08 L176.976,13.176 L192.384,13.176 L192.384,52.56 L206.424,52.56 Z M257.256,52.56 L257.256,36.216 L263.016,36.216 C267.672,36.216 271.608,35.532 274.824,34.164 C278.04,32.796 280.488,30.804 282.168,28.188 C283.848,25.572 284.688,22.392 284.688,18.648 C284.688,12.984 282.828,8.64 279.108,5.616 C275.388,2.592 270.024,1.08 263.016,1.08 L263.016,1.08 L243.648,1.08 L243.648,52.56 L257.256,52.56 Z M262.368,25.416 L257.256,25.416 L257.256,11.88 L262.368,11.88 C267.792,11.88 270.504,14.136 270.504,18.648 C270.504,23.16 267.792,25.416 262.368,25.416 L262.368,25.416 Z M328.752,52.56 L328.752,40.464 L305.856,40.464 L305.856,1.08 L291.816,1.08 L291.816,52.56 L328.752,52.56 Z M345.168,52.56 C346.176,49.296 347.16,46.08 348.12,42.912 L348.12,42.912 L366.912,42.912 C367.392,44.496 367.884,46.092 368.388,47.7 C368.892,49.308 369.384,50.928 369.864,52.56 L369.864,52.56 L385.056,52.56 C381.984,43.968 378.816,35.376 375.552,26.784 C372.288,18.192 368.928,9.624 365.472,1.08 L365.472,1.08 L349.992,1.08 C346.632,9.192 343.32,17.544 340.056,26.136 C336.792,34.728 333.576,43.536 330.408,52.56 L330.408,52.56 L345.168,52.56 Z M363.456,31.968 L351.576,31.968 C352.536,28.992 353.52,26.028 354.528,23.076 C355.536,20.124 356.544,17.16 357.552,14.184 C358.56,17.112 359.556,20.052 360.54,23.004 C361.524,25.956 362.496,28.944 363.456,31.968 L363.456,31.968 Z M419.76,52.56 L419.76,33.48 C423.072,28.104 426.336,22.716 429.552,17.316 C432.768,11.916 435.912,6.504 438.984,1.08 L438.984,1.08 L423.576,1.08 C421.896,4.488 420.168,7.908 418.392,11.34 C416.616,14.772 414.84,18.192 413.064,21.6 C411.24,18.192 409.452,14.784 407.7,11.376 C405.948,7.968 404.208,4.536 402.48,1.08 L402.48,1.08 L386.568,1.08 C389.592,6.504 392.712,11.916 395.928,17.316 C399.144,22.716 402.408,28.104 405.72,33.48 L405.72,33.48 L405.72,52.56 L419.76,52.56 Z M482.832,52.56 L482.832,41.328 L458.28,41.328 L458.28,31.968 L478.584,31.968 L478.584,20.736 L458.28,20.736 L458.28,12.312 L481.464,12.312 L481.464,1.08 L444.6,1.08 L444.6,52.56 L482.832,52.56 Z M510.552,52.56 C516.024,52.56 520.692,51.54 524.556,49.5 C528.42,47.46 531.372,44.52 533.412,40.68 C535.452,36.84 536.472,32.184 536.472,26.712 C536.472,21.288 535.452,16.668 533.412,12.852 C531.372,9.036 528.42,6.12 524.556,4.104 C520.692,2.088 516.048,1.08 510.624,1.08 L510.624,1.08 L489.6,1.08 L489.6,52.56 L510.552,52.56 Z M509.904,40.608 L503.64,40.608 L503.64,13.032 L509.976,13.032 C513.912,13.032 516.888,14.196 518.904,16.524 C520.92,18.852 521.928,22.248 521.928,26.712 C521.928,31.224 520.908,34.668 518.868,37.044 C516.828,39.42 513.84,40.608 509.904,40.608 L509.904,40.608 Z M585.864,52.56 L585.864,13.176 L601.272,13.176 L601.272,1.08 L556.416,1.08 L556.416,13.176 L571.824,13.176 L571.824,52.56 L585.864,52.56 Z M621.072,52.56 L621.072,31.752 L639.36,31.752 L639.36,52.56 L653.4,52.56 L653.4,1.08 L639.36,1.08 L639.36,19.656 L621.072,19.656 L621.072,1.08 L607.032,1.08 L607.032,52.56 L621.072,52.56 Z M676.944,52.56 L676.944,1.08 L662.904,1.08 L662.904,52.56 L676.944,52.56 Z M702,53.64 C706.704,53.64 710.7,52.992 713.988,51.696 C717.276,50.4 719.796,48.504 721.548,46.008 C723.3,43.512 724.176,40.488 724.176,36.936 C724.176,34.248 723.744,32.004 722.88,30.204 C722.016,28.404 720.792,26.916 719.208,25.74 C717.624,24.564 715.752,23.568 713.592,22.752 C711.432,21.936 709.032,21.216 706.392,20.592 C703.848,19.968 701.892,19.308 700.524,18.612 C699.156,17.916 698.472,16.872 698.472,15.48 C698.472,14.136 699.132,13.116 700.452,12.42 C701.772,11.724 703.632,11.376 706.032,11.376 C707.712,11.376 709.452,11.532 711.252,11.844 C713.052,12.156 714.84,12.612 716.616,13.212 C718.392,13.812 720.072,14.592 721.656,15.552 L721.656,15.552 L721.656,3.528 C719.448,2.424 716.976,1.56 714.24,0.936 C711.504,0.312 708.72,0 705.888,0 C701.52,0 697.728,0.66 694.512,1.98 C691.296,3.3 688.824,5.184 687.096,7.632 C685.368,10.08 684.504,13.032 684.504,16.488 C684.504,18.744 684.84,20.712 685.512,22.392 C686.184,24.072 687.24,25.548 688.68,26.82 C690.12,28.092 691.992,29.208 694.296,30.168 C696.6,31.128 699.384,31.992 702.648,32.76 C704.136,33.096 705.432,33.48 706.536,33.912 C707.64,34.344 708.504,34.86 709.128,35.46 C709.752,36.06 710.064,36.864 710.064,37.872 C710.064,39.264 709.368,40.344 707.976,41.112 C706.584,41.88 704.52,42.264 701.784,42.264 C699,42.264 696.204,41.868 693.396,41.076 C690.588,40.284 687.84,39.12 685.152,37.584 L685.152,37.584 L685.152,49.752 C687.936,51.096 690.708,52.08 693.468,52.704 C696.228,53.328 699.072,53.64 702,53.64 Z M738.72,53.208 C740.256,53.208 741.576,52.884 742.68,52.236 C743.784,51.588 744.636,50.724 745.236,49.644 C745.836,48.564 746.136,47.376 746.136,46.08 C746.136,44.784 745.836,43.596 745.236,42.516 C744.636,41.436 743.784,40.584 742.68,39.96 C741.576,39.336 740.256,39.024 738.72,39.024 C737.184,39.024 735.864,39.336 734.76,39.96 C733.656,40.584 732.804,41.436 732.204,42.516 C731.604,43.596 731.304,44.784 731.304,46.08 C731.304,47.376 731.604,48.564 732.204,49.644 C732.804,50.724 733.656,51.588 734.76,52.236 C735.864,52.884 737.184,53.208 738.72,53.208 Z M762.768,53.208 C764.304,53.208 765.624,52.884 766.728,52.236 C767.832,51.588 768.684,50.724 769.284,49.644 C769.884,48.564 770.184,47.376 770.184,46.08 C770.184,44.784 769.884,43.596 769.284,42.516 C768.684,41.436 767.832,40.584 766.728,39.96 C765.624,39.336 764.304,39.024 762.768,39.024 C761.232,39.024 759.912,39.336 758.808,39.96 C757.704,40.584 756.852,41.436 756.252,42.516 C755.652,43.596 755.352,44.784 755.352,46.08 C755.352,47.376 755.652,48.564 756.252,49.644 C756.852,50.724 757.704,51.588 758.808,52.236 C759.912,52.884 761.232,53.208 762.768,53.208 Z M786.816,53.208 C788.352,53.208 789.672,52.884 790.776,52.236 C791.88,51.588 792.732,50.724 793.332,49.644 C793.932,48.564 794.232,47.376 794.232,46.08 C794.232,44.784 793.932,43.596 793.332,42.516 C792.732,41.436 791.88,40.584 790.776,39.96 C789.672,39.336 788.352,39.024 786.816,39.024 C785.28,39.024 783.96,39.336 782.856,39.96 C781.752,40.584 780.9,41.436 780.3,42.516 C779.7,43.596 779.4,44.784 779.4,46.08 C779.4,47.376 779.7,48.564 780.3,49.644 C780.9,50.724 781.752,51.588 782.856,52.236 C783.96,52.884 785.28,53.208 786.816,53.208 Z M814.176,52.56 C815.184,49.296 816.168,46.08 817.128,42.912 L817.128,42.912 L835.92,42.912 C836.4,44.496 836.892,46.092 837.396,47.7 C837.9,49.308 838.392,50.928 838.872,52.56 L838.872,52.56 L854.064,52.56 C850.992,43.968 847.824,35.376 844.56,26.784 C841.296,18.192 837.936,9.624 834.48,1.08 L834.48,1.08 L819,1.08 C815.64,9.192 812.328,17.544 809.064,26.136 C805.8,34.728 802.584,43.536 799.416,52.56 L799.416,52.56 L814.176,52.56 Z M832.464,31.968 L820.584,31.968 C821.544,28.992 822.528,26.028 823.536,23.076 C824.544,20.124 825.552,17.16 826.56,14.184 C827.568,17.112 828.564,20.052 829.548,23.004 C830.532,25.956 831.504,28.944 832.464,31.968 L832.464,31.968 Z M885.168,52.56 L885.168,13.176 L900.576,13.176 L900.576,1.08 L855.72,1.08 L855.72,13.176 L871.128,13.176 L871.128,52.56 L885.168,52.56 Z M18.144,132.56 L18.144,111.752 L36.432,111.752 L36.432,132.56 L50.472,132.56 L50.472,81.08 L36.432,81.08 L36.432,99.656 L18.144,99.656 L18.144,81.08 L4.104,81.08 L4.104,132.56 L18.144,132.56 Z M84.24,133.64 C88.224,133.64 91.824,133.016 95.04,131.768 C98.256,130.52 101.004,128.72 103.284,126.368 C105.564,124.016 107.316,121.184 108.54,117.872 C109.764,114.56 110.376,110.864 110.376,106.784 C110.376,102.656 109.764,98.948 108.54,95.66 C107.316,92.372 105.564,89.564 103.284,87.236 C101.004,84.908 98.256,83.12 95.04,81.872 C91.824,80.624 88.224,80 84.24,80 C80.256,80 76.656,80.624 73.44,81.872 C70.224,83.12 67.476,84.908 65.196,87.236 C62.916,89.564 61.164,92.372 59.94,95.66 C58.716,98.948 58.104,102.656 58.104,106.784 C58.104,110.864 58.716,114.56 59.94,117.872 C61.164,121.184 62.916,124.016 65.196,126.368 C67.476,128.72 70.224,130.52 73.44,131.768 C76.656,133.016 80.256,133.64 84.24,133.64 Z M84.24,121.544 C80.496,121.544 77.628,120.272 75.636,117.728 C73.644,115.184 72.648,111.536 72.648,106.784 C72.648,102.08 73.644,98.456 75.636,95.912 C77.628,93.368 80.496,92.096 84.24,92.096 C87.984,92.096 90.852,93.368 92.844,95.912 C94.836,98.456 95.832,102.08 95.832,106.784 C95.832,111.536 94.836,115.184 92.844,117.728 C90.852,120.272 87.984,121.544 84.24,121.544 Z M131.112,132.56 L131.112,101.312 C132.696,104.96 134.316,108.608 135.972,112.256 C137.628,115.904 139.296,119.552 140.976,123.2 L140.976,123.2 L151.776,123.2 C153.408,119.552 155.028,115.892 156.636,112.22 C158.244,108.548 159.84,104.84 161.424,101.096 L161.424,101.096 L161.424,132.56 L174.528,132.56 L174.528,81.08 L157.824,81.08 C156,85.928 154.152,90.716 152.28,95.444 C150.408,100.172 148.512,104.84 146.592,109.448 C144.576,104.792 142.596,100.088 140.652,95.336 C138.708,90.584 136.8,85.832 134.928,81.08 L134.928,81.08 L118.008,81.08 L118.008,132.56 L131.112,132.56 Z M222.264,132.56 L222.264,121.328 L197.712,121.328 L197.712,111.968 L218.016,111.968 L218.016,100.736 L197.712,100.736 L197.712,92.312 L220.896,92.312 L220.896,81.08 L184.032,81.08 L184.032,132.56 L222.264,132.56 Z M236.232,133.208 C237.768,133.208 239.088,132.884 240.192,132.236 C241.296,131.588 242.148,130.724 242.748,129.644 C243.348,128.564 243.648,127.376 243.648,126.08 C243.648,124.784 243.348,123.596 242.748,122.516 C242.148,121.436 241.296,120.584 240.192,119.96 C239.088,119.336 237.768,119.024 236.232,119.024 C234.696,119.024 233.376,119.336 232.272,119.96 C231.168,120.584 230.316,121.436 229.716,122.516 C229.116,123.596 228.816,124.784 228.816,126.08 C228.816,127.376 229.116,128.564 229.716,129.644 C230.316,130.724 231.168,131.588 232.272,132.236 C233.376,132.884 234.696,133.208 236.232,133.208 Z M260.28,133.208 C261.816,133.208 263.136,132.884 264.24,132.236 C265.344,131.588 266.196,130.724 266.796,129.644 C267.396,128.564 267.696,127.376 267.696,126.08 C267.696,124.784 267.396,123.596 266.796,122.516 C266.196,121.436 265.344,120.584 264.24,119.96 C263.136,119.336 261.816,119.024 260.28,119.024 C258.744,119.024 257.424,119.336 256.32,119.96 C255.216,120.584 254.364,121.436 253.764,122.516 C253.164,123.596 252.864,124.784 252.864,126.08 C252.864,127.376 253.164,128.564 253.764,129.644 C254.364,130.724 255.216,131.588 256.32,132.236 C257.424,132.884 258.744,133.208 260.28,133.208 Z M284.328,133.208 C285.864,133.208 287.184,132.884 288.288,132.236 C289.392,131.588 290.244,130.724 290.844,129.644 C291.444,128.564 291.744,127.376 291.744,126.08 C291.744,124.784 291.444,123.596 290.844,122.516 C290.244,121.436 289.392,120.584 288.288,119.96 C287.184,119.336 285.864,119.024 284.328,119.024 C282.792,119.024 281.472,119.336 280.368,119.96 C279.264,120.584 278.412,121.436 277.812,122.516 C277.212,123.596 276.912,124.784 276.912,126.08 C276.912,127.376 277.212,128.564 277.812,129.644 C278.412,130.724 279.264,131.588 280.368,132.236 C281.472,132.884 282.792,133.208 284.328,133.208 Z M325.296,133.64 C329.28,133.64 332.88,133.016 336.096,131.768 C339.312,130.52 342.06,128.72 344.34,126.368 C346.62,124.016 348.372,121.184 349.596,117.872 C350.82,114.56 351.432,110.864 351.432,106.784 C351.432,102.656 350.82,98.948 349.596,95.66 C348.372,92.372 346.62,89.564 344.34,87.236 C342.06,84.908 339.312,83.12 336.096,81.872 C332.88,80.624 329.28,80 325.296,80 C321.312,80 317.712,80.624 314.496,81.872 C311.28,83.12 308.532,84.908 306.252,87.236 C303.972,89.564 302.22,92.372 300.996,95.66 C299.772,98.948 299.16,102.656 299.16,106.784 C299.16,110.864 299.772,114.56 300.996,117.872 C302.22,121.184 303.972,124.016 306.252,126.368 C308.532,128.72 311.28,130.52 314.496,131.768 C317.712,133.016 321.312,133.64 325.296,133.64 Z M325.296,121.544 C321.552,121.544 318.684,120.272 316.692,117.728 C314.7,115.184 313.704,111.536 313.704,106.784 C313.704,102.08 314.7,98.456 316.692,95.912 C318.684,93.368 321.552,92.096 325.296,92.096 C329.04,92.096 331.908,93.368 333.9,95.912 C335.892,98.456 336.888,102.08 336.888,106.784 C336.888,111.536 335.892,115.184 333.9,117.728 C331.908,120.272 329.04,121.544 325.296,121.544 Z M372.456,132.56 L372.456,101.312 C375.576,106.304 378.756,111.452 381.996,116.756 C385.236,122.06 388.392,127.328 391.464,132.56 L391.464,132.56 L405.576,132.56 L405.576,81.08 L392.184,81.08 L392.184,111.752 C389.064,106.52 385.92,101.336 382.752,96.2 C379.584,91.064 376.392,86.024 373.176,81.08 L373.176,81.08 L359.064,81.08 L359.064,132.56 L372.456,132.56 Z M456.84,132.56 L456.84,93.176 L472.248,93.176 L472.248,81.08 L427.392,81.08 L427.392,93.176 L442.8,93.176 L442.8,132.56 L456.84,132.56 Z M492.048,132.56 L492.048,111.752 L510.336,111.752 L510.336,132.56 L524.376,132.56 L524.376,81.08 L510.336,81.08 L510.336,99.656 L492.048,99.656 L492.048,81.08 L478.008,81.08 L478.008,132.56 L492.048,132.56 Z M572.112,132.56 L572.112,121.328 L547.56,121.328 L547.56,111.968 L567.864,111.968 L567.864,100.736 L547.56,100.736 L547.56,92.312 L570.744,92.312 L570.744,81.08 L533.88,81.08 L533.88,132.56 L572.112,132.56 Z M608.544,132.56 L608.544,115.208 L615.6,115.208 C617.28,118.04 618.9,120.908 620.46,123.812 C622.02,126.716 623.568,129.632 625.104,132.56 L625.104,132.56 L640.584,132.56 C638.616,129.056 636.612,125.624 634.572,122.264 C632.532,118.904 630.456,115.568 628.344,112.256 C631.032,110.816 633.108,108.896 634.572,106.496 C636.036,104.096 636.768,101.312 636.768,98.144 C636.768,92.624 634.872,88.4 631.08,85.472 C627.288,82.544 621.816,81.08 614.664,81.08 L614.664,81.08 L594.936,81.08 L594.936,132.56 L608.544,132.56 Z M614.016,104.408 L608.544,104.408 L608.544,91.88 L614.016,91.88 C616.944,91.88 619.104,92.396 620.496,93.428 C621.888,94.46 622.584,96.032 622.584,98.144 C622.584,100.208 621.888,101.768 620.496,102.824 C619.104,103.88 616.944,104.408 614.016,104.408 L614.016,104.408 Z M656.784,132.56 C657.792,129.296 658.776,126.08 659.736,122.912 L659.736,122.912 L678.528,122.912 C679.008,124.496 679.5,126.092 680.004,127.7 C680.508,129.308 681,130.928 681.48,132.56 L681.48,132.56 L696.672,132.56 C693.6,123.968 690.432,115.376 687.168,106.784 C683.904,98.192 680.544,89.624 677.088,81.08 L677.088,81.08 L661.608,81.08 C658.248,89.192 654.936,97.544 651.672,106.136 C648.408,114.728 645.192,123.536 642.024,132.56 L642.024,132.56 L656.784,132.56 Z M675.072,111.968 L663.192,111.968 C664.152,108.992 665.136,106.028 666.144,103.076 C667.152,100.124 668.16,97.16 669.168,94.184 C670.176,97.112 671.172,100.052 672.156,103.004 C673.14,105.956 674.112,108.944 675.072,111.968 L675.072,111.968 Z M723.024,132.56 C728.496,132.56 733.164,131.54 737.028,129.5 C740.892,127.46 743.844,124.52 745.884,120.68 C747.924,116.84 748.944,112.184 748.944,106.712 C748.944,101.288 747.924,96.668 745.884,92.852 C743.844,89.036 740.892,86.12 737.028,84.104 C733.164,82.088 728.52,81.08 723.096,81.08 L723.096,81.08 L702.072,81.08 L702.072,132.56 L723.024,132.56 Z M722.376,120.608 L716.112,120.608 L716.112,93.032 L722.448,93.032 C726.384,93.032 729.36,94.196 731.376,96.524 C733.392,98.852 734.4,102.248 734.4,106.712 C734.4,111.224 733.38,114.668 731.34,117.044 C729.3,119.42 726.312,120.608 722.376,120.608 L722.376,120.608 Z M770.616,132.56 L770.616,81.08 L756.576,81.08 L756.576,132.56 L770.616,132.56 Z M804.384,133.64 C808.368,133.64 811.968,133.016 815.184,131.768 C818.4,130.52 821.148,128.72 823.428,126.368 C825.708,124.016 827.46,121.184 828.684,117.872 C829.908,114.56 830.52,110.864 830.52,106.784 C830.52,102.656 829.908,98.948 828.684,95.66 C827.46,92.372 825.708,89.564 823.428,87.236 C821.148,84.908 818.4,83.12 815.184,81.872 C811.968,80.624 808.368,80 804.384,80 C800.4,80 796.8,80.624 793.584,81.872 C790.368,83.12 787.62,84.908 785.34,87.236 C783.06,89.564 781.308,92.372 780.084,95.66 C778.86,98.948 778.248,102.656 778.248,106.784 C778.248,110.864 778.86,114.56 780.084,117.872 C781.308,121.184 783.06,124.016 785.34,126.368 C787.62,128.72 790.368,130.52 793.584,131.768 C796.8,133.016 800.4,133.64 804.384,133.64 Z M804.384,121.544 C800.64,121.544 797.772,120.272 795.78,117.728 C793.788,115.184 792.792,111.536 792.792,106.784 C792.792,102.08 793.788,98.456 795.78,95.912 C797.772,93.368 800.64,92.096 804.384,92.096 C808.128,92.096 810.996,93.368 812.988,95.912 C814.98,98.456 815.976,102.08 815.976,106.784 C815.976,111.536 814.98,115.184 812.988,117.728 C810.996,120.272 808.128,121.544 804.384,121.544 Z M14.76,212.56 C15.768,209.296 16.752,206.08 17.712,202.912 L17.712,202.912 L36.504,202.912 C36.984,204.496 37.476,206.092 37.98,207.7 C38.484,209.308 38.976,210.928 39.456,212.56 L39.456,212.56 L54.648,212.56 C51.576,203.968 48.408,195.376 45.144,186.784 C41.88,178.192 38.52,169.624 35.064,161.08 L35.064,161.08 L19.584,161.08 C16.224,169.192 12.912,177.544 9.648,186.136 C6.384,194.728 3.168,203.536 1.53477231e-12,212.56 L1.53477231e-12,212.56 L14.76,212.56 Z M33.048,191.968 L21.168,191.968 C22.128,188.992 23.112,186.028 24.12,183.076 C25.128,180.124 26.136,177.16 27.144,174.184 C28.152,177.112 29.148,180.052 30.132,183.004 C31.116,185.956 32.088,188.944 33.048,191.968 L33.048,191.968 Z M73.44,212.56 L73.44,181.312 C76.56,186.304 79.74,191.452 82.98,196.756 C86.22,202.06 89.376,207.328 92.448,212.56 L92.448,212.56 L106.56,212.56 L106.56,161.08 L93.168,161.08 L93.168,191.752 C90.048,186.52 86.904,181.336 83.736,176.2 C80.568,171.064 77.376,166.024 74.16,161.08 L74.16,161.08 L60.048,161.08 L60.048,212.56 L73.44,212.56 Z M137.016,212.56 C142.488,212.56 147.156,211.54 151.02,209.5 C154.884,207.46 157.836,204.52 159.876,200.68 C161.916,196.84 162.936,192.184 162.936,186.712 C162.936,181.288 161.916,176.668 159.876,172.852 C157.836,169.036 154.884,166.12 151.02,164.104 C147.156,162.088 142.512,161.08 137.088,161.08 L137.088,161.08 L116.064,161.08 L116.064,212.56 L137.016,212.56 Z M136.368,200.608 L130.104,200.608 L130.104,173.032 L136.44,173.032 C140.376,173.032 143.352,174.196 145.368,176.524 C147.384,178.852 148.392,182.248 148.392,186.712 C148.392,191.224 147.372,194.668 145.332,197.044 C143.292,199.42 140.304,200.608 136.368,200.608 L136.368,200.608 Z M200.664,212.56 L200.664,161.08 L186.624,161.08 L186.624,212.56 L200.664,212.56 Z M249.984,212.56 C251.376,207.28 252.72,201.988 254.016,196.684 C255.312,191.38 256.608,186.064 257.904,180.736 C259.152,186.064 260.448,191.38 261.792,196.684 C263.136,201.988 264.504,207.28 265.896,212.56 L265.896,212.56 L280.44,212.56 C282.84,204.16 285.132,195.664 287.316,187.072 C289.5,178.48 291.552,169.816 293.472,161.08 L293.472,161.08 L278.712,161.08 C277.8,167.08 276.828,173.08 275.796,179.08 C274.764,185.08 273.672,191.008 272.52,196.864 C271.224,191.296 269.94,185.716 268.668,180.124 C267.396,174.532 266.16,168.904 264.96,163.24 L264.96,163.24 L251.496,163.24 C250.296,169 249.048,174.772 247.752,180.556 C246.456,186.34 245.112,192.136 243.72,197.944 C242.568,191.944 241.464,185.848 240.408,179.656 C239.352,173.464 238.368,167.272 237.456,161.08 L237.456,161.08 L222.408,161.08 C224.376,169.816 226.452,178.48 228.636,187.072 C230.82,195.664 233.088,204.16 235.44,212.56 L235.44,212.56 L249.984,212.56 Z M309.816,212.56 C310.824,209.296 311.808,206.08 312.768,202.912 L312.768,202.912 L331.56,202.912 C332.04,204.496 332.532,206.092 333.036,207.7 C333.54,209.308 334.032,210.928 334.512,212.56 L334.512,212.56 L349.704,212.56 C346.632,203.968 343.464,195.376 340.2,186.784 C336.936,178.192 333.576,169.624 330.12,161.08 L330.12,161.08 L314.64,161.08 C311.28,169.192 307.968,177.544 304.704,186.136 C301.44,194.728 298.224,203.536 295.056,212.56 L295.056,212.56 L309.816,212.56 Z M328.104,191.968 L316.224,191.968 C317.184,188.992 318.168,186.028 319.176,183.076 C320.184,180.124 321.192,177.16 322.2,174.184 C323.208,177.112 324.204,180.052 325.188,183.004 C326.172,185.956 327.144,188.944 328.104,191.968 L328.104,191.968 Z M370.656,213.64 C375.36,213.64 379.356,212.992 382.644,211.696 C385.932,210.4 388.452,208.504 390.204,206.008 C391.956,203.512 392.832,200.488 392.832,196.936 C392.832,194.248 392.4,192.004 391.536,190.204 C390.672,188.404 389.448,186.916 387.864,185.74 C386.28,184.564 384.408,183.568 382.248,182.752 C380.088,181.936 377.688,181.216 375.048,180.592 C372.504,179.968 370.548,179.308 369.18,178.612 C367.812,177.916 367.128,176.872 367.128,175.48 C367.128,174.136 367.788,173.116 369.108,172.42 C370.428,171.724 372.288,171.376 374.688,171.376 C376.368,171.376 378.108,171.532 379.908,171.844 C381.708,172.156 383.496,172.612 385.272,173.212 C387.048,173.812 388.728,174.592 390.312,175.552 L390.312,175.552 L390.312,163.528 C388.104,162.424 385.632,161.56 382.896,160.936 C380.16,160.312 377.376,160 374.544,160 C370.176,160 366.384,160.66 363.168,161.98 C359.952,163.3 357.48,165.184 355.752,167.632 C354.024,170.08 353.16,173.032 353.16,176.488 C353.16,178.744 353.496,180.712 354.168,182.392 C354.84,184.072 355.896,185.548 357.336,186.82 C358.776,188.092 360.648,189.208 362.952,190.168 C365.256,191.128 368.04,191.992 371.304,192.76 C372.792,193.096 374.088,193.48 375.192,193.912 C376.296,194.344 377.16,194.86 377.784,195.46 C378.408,196.06 378.72,196.864 378.72,197.872 C378.72,199.264 378.024,200.344 376.632,201.112 C375.24,201.88 373.176,202.264 370.44,202.264 C367.656,202.264 364.86,201.868 362.052,201.076 C359.244,200.284 356.496,199.12 353.808,197.584 L353.808,197.584 L353.808,209.752 C356.592,211.096 359.364,212.08 362.124,212.704 C364.884,213.328 367.728,213.64 370.656,213.64 Z M429.84,212.56 L429.84,196.216 L435.6,196.216 C440.256,196.216 444.192,195.532 447.408,194.164 C450.624,192.796 453.072,190.804 454.752,188.188 C456.432,185.572 457.272,182.392 457.272,178.648 C457.272,172.984 455.412,168.64 451.692,165.616 C447.972,162.592 442.608,161.08 435.6,161.08 L435.6,161.08 L416.232,161.08 L416.232,212.56 L429.84,212.56 Z M434.952,185.416 L429.84,185.416 L429.84,171.88 L434.952,171.88 C440.376,171.88 443.088,174.136 443.088,178.648 C443.088,183.16 440.376,185.416 434.952,185.416 L434.952,185.416 Z M501.336,212.56 L501.336,200.464 L478.44,200.464 L478.44,161.08 L464.4,161.08 L464.4,212.56 L501.336,212.56 Z M517.752,212.56 C518.76,209.296 519.744,206.08 520.704,202.912 L520.704,202.912 L539.496,202.912 C539.976,204.496 540.468,206.092 540.972,207.7 C541.476,209.308 541.968,210.928 542.448,212.56 L542.448,212.56 L557.64,212.56 C554.568,203.968 551.4,195.376 548.136,186.784 C544.872,178.192 541.512,169.624 538.056,161.08 L538.056,161.08 L522.576,161.08 C519.216,169.192 515.904,177.544 512.64,186.136 C509.376,194.728 506.16,203.536 502.992,212.56 L502.992,212.56 L517.752,212.56 Z M536.04,191.968 L524.16,191.968 C525.12,188.992 526.104,186.028 527.112,183.076 C528.12,180.124 529.128,177.16 530.136,174.184 C531.144,177.112 532.14,180.052 533.124,183.004 C534.108,185.956 535.08,188.944 536.04,191.968 L536.04,191.968 Z M592.344,212.56 L592.344,193.48 C595.656,188.104 598.92,182.716 602.136,177.316 C605.352,171.916 608.496,166.504 611.568,161.08 L611.568,161.08 L596.16,161.08 C594.48,164.488 592.752,167.908 590.976,171.34 C589.2,174.772 587.424,178.192 585.648,181.6 C583.824,178.192 582.036,174.784 580.284,171.376 C578.532,167.968 576.792,164.536 575.064,161.08 L575.064,161.08 L559.152,161.08 C562.176,166.504 565.296,171.916 568.512,177.316 C571.728,182.716 574.992,188.104 578.304,193.48 L578.304,193.48 L578.304,212.56 L592.344,212.56 Z M631.224,212.56 L631.224,161.08 L617.184,161.08 L617.184,212.56 L631.224,212.56 Z M654.12,212.56 L654.12,181.312 C657.24,186.304 660.42,191.452 663.66,196.756 C666.9,202.06 670.056,207.328 673.128,212.56 L673.128,212.56 L687.24,212.56 L687.24,161.08 L673.848,161.08 L673.848,191.752 C670.728,186.52 667.584,181.336 664.416,176.2 C661.248,171.064 658.056,166.024 654.84,161.08 L654.84,161.08 L640.728,161.08 L640.728,212.56 L654.12,212.56 Z M722.088,213.64 C724.392,213.64 726.708,213.496 729.036,213.208 C731.364,212.92 733.608,212.476 735.768,211.876 C737.928,211.276 739.848,210.568 741.528,209.752 L741.528,209.752 L741.528,182.896 L721.44,182.896 L721.44,193.264 L728.928,193.264 L728.928,200.968 C728.016,201.208 727.068,201.388 726.084,201.508 C725.1,201.628 724.128,201.688 723.168,201.688 C718.656,201.688 715.236,200.428 712.908,197.908 C710.58,195.388 709.416,191.68 709.416,186.784 C709.416,182.08 710.748,178.456 713.412,175.912 C716.076,173.368 719.88,172.096 724.824,172.096 C727.848,172.096 730.62,172.42 733.14,173.068 C735.66,173.716 738,174.64 740.16,175.84 L740.16,175.84 L740.16,163.168 C735.12,161.056 729.408,160 723.024,160 C718.8,160 714.96,160.636 711.504,161.908 C708.048,163.18 705.072,164.992 702.576,167.344 C700.08,169.696 698.172,172.516 696.852,175.804 C695.532,179.092 694.872,182.752 694.872,186.784 C694.872,190.96 695.496,194.704 696.744,198.016 C697.992,201.328 699.792,204.148 702.144,206.476 C704.496,208.804 707.352,210.58 710.712,211.804 C714.072,213.028 717.864,213.64 722.088,213.64 Z M789.84,212.56 C791.232,207.28 792.576,201.988 793.872,196.684 C795.168,191.38 796.464,186.064 797.76,180.736 C799.008,186.064 800.304,191.38 801.648,196.684 C802.992,201.988 804.36,207.28 805.752,212.56 L805.752,212.56 L820.296,212.56 C822.696,204.16 824.988,195.664 827.172,187.072 C829.356,178.48 831.408,169.816 833.328,161.08 L833.328,161.08 L818.568,161.08 C817.656,167.08 816.684,173.08 815.652,179.08 C814.62,185.08 813.528,191.008 812.376,196.864 C811.08,191.296 809.796,185.716 808.524,180.124 C807.252,174.532 806.016,168.904 804.816,163.24 L804.816,163.24 L791.352,163.24 C790.152,169 788.904,174.772 787.608,180.556 C786.312,186.34 784.968,192.136 783.576,197.944 C782.424,191.944 781.32,185.848 780.264,179.656 C779.208,173.464 778.224,167.272 777.312,161.08 L777.312,161.08 L762.264,161.08 C764.232,169.816 766.308,178.48 768.492,187.072 C770.676,195.664 772.944,204.16 775.296,212.56 L775.296,212.56 L789.84,212.56 Z M853.056,212.56 L853.056,161.08 L839.016,161.08 L839.016,212.56 L853.056,212.56 Z M888.264,212.56 L888.264,173.176 L903.672,173.176 L903.672,161.08 L858.816,161.08 L858.816,173.176 L874.224,173.176 L874.224,212.56 L888.264,212.56 Z M923.472,212.56 L923.472,191.752 L941.76,191.752 L941.76,212.56 L955.8,212.56 L955.8,161.08 L941.76,161.08 L941.76,179.656 L923.472,179.656 L923.472,161.08 L909.432,161.08 L909.432,212.56 L923.472,212.56 Z M26.424,292.56 C30.744,292.56 34.452,291.96 37.548,290.76 C40.644,289.56 43.02,287.832 44.676,285.576 C46.332,283.32 47.16,280.632 47.16,277.512 C47.16,274.488 46.392,271.908 44.856,269.772 C43.32,267.636 41.112,266.04 38.232,264.984 C42.312,262.728 44.352,259.296 44.352,254.688 C44.352,250.272 42.696,246.9 39.384,244.572 C36.072,242.244 31.344,241.08 25.2,241.08 L25.2,241.08 L4.104,241.08 L4.104,292.56 L26.424,292.56 Z M23.832,261.528 L17.496,261.528 L17.496,251.448 L23.832,251.448 C28.44,251.448 30.744,253.056 30.744,256.272 C30.744,257.904 30.156,259.188 28.98,260.124 C27.804,261.06 26.088,261.528 23.832,261.528 L23.832,261.528 Z M25.128,282.192 L17.496,282.192 L17.496,271.464 L25.2,271.464 C30.672,271.464 33.408,273.288 33.408,276.936 C33.408,278.616 32.7,279.912 31.284,280.824 C29.868,281.736 27.816,282.192 25.128,282.192 L25.128,282.192 Z M91.368,292.56 L91.368,280.464 L68.472,280.464 L68.472,241.08 L54.432,241.08 L54.432,292.56 L91.368,292.56 Z M111.168,292.56 L111.168,241.08 L97.128,241.08 L97.128,292.56 L111.168,292.56 Z M134.064,292.56 L134.064,261.312 C137.184,266.304 140.364,271.452 143.604,276.756 C146.844,282.06 150,287.328 153.072,292.56 L153.072,292.56 L167.184,292.56 L167.184,241.08 L153.792,241.08 L153.792,271.752 C150.672,266.52 147.528,261.336 144.36,256.2 C141.192,251.064 138,246.024 134.784,241.08 L134.784,241.08 L120.672,241.08 L120.672,292.56 L134.064,292.56 Z M190.728,292.56 L190.728,271.32 L193.248,271.32 C195.936,274.92 198.54,278.472 201.06,281.976 C203.58,285.48 206.088,289.008 208.584,292.56 L208.584,292.56 L226.152,292.56 C222.6,287.856 219.084,283.236 215.604,278.7 C212.124,274.164 208.608,269.688 205.056,265.272 C208.368,261.24 211.608,257.208 214.776,253.176 C217.944,249.144 221.064,245.112 224.136,241.08 L224.136,241.08 L207.576,241.08 C205.368,244.2 203.112,247.332 200.808,250.476 C198.504,253.62 196.08,256.824 193.536,260.088 L193.536,260.088 L190.728,260.088 L190.728,241.08 L176.688,241.08 L176.688,292.56 L190.728,292.56 Z M273.816,292.56 L273.816,242.232 L262.8,242.232 C260.16,243.432 257.688,244.596 255.384,245.724 C253.08,246.852 251.016,247.896 249.192,248.856 L249.192,248.856 L249.192,261.024 C250.824,260.16 252.576,259.26 254.448,258.324 C256.32,257.388 258.216,256.488 260.136,255.624 L260.136,255.624 L260.136,292.56 L273.816,292.56 Z M309.816,293.496 C313.944,293.496 317.532,292.896 320.58,291.696 C323.628,290.496 325.992,288.78 327.672,286.548 C329.352,284.316 330.192,281.688 330.192,278.664 C330.192,275.736 329.508,273.228 328.14,271.14 C326.772,269.052 324.72,267.312 321.984,265.92 C324.192,264.864 325.896,263.46 327.096,261.708 C328.296,259.956 328.896,257.976 328.896,255.768 C328.896,252.792 328.116,250.224 326.556,248.064 C324.996,245.904 322.8,244.236 319.968,243.06 C317.136,241.884 313.752,241.296 309.816,241.296 C306.984,241.296 304.392,241.644 302.04,242.34 C299.688,243.036 297.672,244.02 295.992,245.292 C294.312,246.564 293.016,248.088 292.104,249.864 C291.192,251.64 290.736,253.608 290.736,255.768 C290.736,261.048 293.112,264.984 297.864,267.576 C295.224,268.68 293.16,270.216 291.672,272.184 C290.184,274.152 289.44,276.432 289.44,279.024 C289.44,282 290.268,284.58 291.924,286.764 C293.58,288.948 295.944,290.616 299.016,291.768 C302.088,292.92 305.688,293.496 309.816,293.496 Z M311.832,262.536 L309.168,262.176 C307.536,261.936 306.216,261.36 305.208,260.448 C304.2,259.536 303.696,258.36 303.696,256.92 C303.696,255.288 304.236,254.016 305.316,253.104 C306.396,252.192 307.896,251.736 309.816,251.736 C311.784,251.736 313.296,252.192 314.352,253.104 C315.408,254.016 315.936,255.288 315.936,256.92 C315.936,258.216 315.564,259.344 314.82,260.304 C314.076,261.264 313.08,262.008 311.832,262.536 L311.832,262.536 Z M309.816,283.056 C307.656,283.056 305.94,282.54 304.668,281.508 C303.396,280.476 302.76,279.048 302.76,277.224 C302.76,275.688 303.264,274.38 304.272,273.3 C305.28,272.22 306.672,271.464 308.448,271.032 L308.448,271.032 L310.536,271.32 C312.552,271.608 314.112,272.256 315.216,273.264 C316.32,274.272 316.872,275.592 316.872,277.224 C316.872,279.048 316.248,280.476 315,281.508 C313.752,282.54 312.024,283.056 309.816,283.056 Z M372.816,292.56 L372.816,280.968 L351,280.968 C351.72,279.768 352.776,278.592 354.168,277.44 C355.56,276.288 357.408,274.992 359.712,273.552 C362.064,272.112 364.008,270.744 365.544,269.448 C367.08,268.152 368.292,266.832 369.18,265.488 C370.068,264.144 370.704,262.692 371.088,261.132 C371.472,259.572 371.664,257.808 371.664,255.84 C371.664,252.864 370.908,250.296 369.396,248.136 C367.884,245.976 365.748,244.296 362.988,243.096 C360.228,241.896 356.976,241.296 353.232,241.296 C350.16,241.296 347.34,241.62 344.772,242.268 C342.204,242.916 339.648,243.936 337.104,245.328 L337.104,245.328 L337.104,257.208 C339.216,255.672 341.328,254.556 343.44,253.86 C345.552,253.164 347.736,252.816 349.992,252.816 C352.392,252.816 354.252,253.248 355.572,254.112 C356.892,254.976 357.552,256.248 357.552,257.928 C357.552,258.696 357.432,259.392 357.192,260.016 C356.952,260.64 356.532,261.264 355.932,261.888 C355.332,262.512 354.48,263.232 353.376,264.048 C352.272,264.864 350.832,265.824 349.056,266.928 C345.936,268.896 343.416,270.948 341.496,273.084 C339.576,275.22 338.172,277.536 337.284,280.032 C336.396,282.528 335.952,285.36 335.952,288.528 L335.952,288.528 L335.952,292.56 L372.816,292.56 Z M408.456,292.56 C409.464,289.296 410.448,286.08 411.408,282.912 L411.408,282.912 L430.2,282.912 C430.68,284.496 431.172,286.092 431.676,287.7 C432.18,289.308 432.672,290.928 433.152,292.56 L433.152,292.56 L448.344,292.56 C445.272,283.968 442.104,275.376 438.84,266.784 C435.576,258.192 432.216,249.624 428.76,241.08 L428.76,241.08 L413.28,241.08 C409.92,249.192 406.608,257.544 403.344,266.136 C400.08,274.728 396.864,283.536 393.696,292.56 L393.696,292.56 L408.456,292.56 Z M426.744,271.968 L414.864,271.968 C415.824,268.992 416.808,266.028 417.816,263.076 C418.824,260.124 419.832,257.16 420.84,254.184 C421.848,257.112 422.844,260.052 423.828,263.004 C424.812,265.956 425.784,268.944 426.744,271.968 L426.744,271.968 Z M467.136,292.56 L467.136,261.312 C470.256,266.304 473.436,271.452 476.676,276.756 C479.916,282.06 483.072,287.328 486.144,292.56 L486.144,292.56 L500.256,292.56 L500.256,241.08 L486.864,241.08 L486.864,271.752 C483.744,266.52 480.6,261.336 477.432,256.2 C474.264,251.064 471.072,246.024 467.856,241.08 L467.856,241.08 L453.744,241.08 L453.744,292.56 L467.136,292.56 Z M530.712,292.56 C536.184,292.56 540.852,291.54 544.716,289.5 C548.58,287.46 551.532,284.52 553.572,280.68 C555.612,276.84 556.632,272.184 556.632,266.712 C556.632,261.288 555.612,256.668 553.572,252.852 C551.532,249.036 548.58,246.12 544.716,244.104 C540.852,242.088 536.208,241.08 530.784,241.08 L530.784,241.08 L509.76,241.08 L509.76,292.56 L530.712,292.56 Z M530.064,280.608 L523.8,280.608 L523.8,253.032 L530.136,253.032 C534.072,253.032 537.048,254.196 539.064,256.524 C541.08,258.852 542.088,262.248 542.088,266.712 C542.088,271.224 541.068,274.668 539.028,277.044 C536.988,279.42 534,280.608 530.064,280.608 L530.064,280.608 Z M594.36,292.56 L594.36,241.08 L580.32,241.08 L580.32,292.56 L594.36,292.56 Z M645.264,293.64 C647.568,293.64 649.884,293.496 652.212,293.208 C654.54,292.92 656.784,292.476 658.944,291.876 C661.104,291.276 663.024,290.568 664.704,289.752 L664.704,289.752 L664.704,262.896 L644.616,262.896 L644.616,273.264 L652.104,273.264 L652.104,280.968 C651.192,281.208 650.244,281.388 649.26,281.508 C648.276,281.628 647.304,281.688 646.344,281.688 C641.832,281.688 638.412,280.428 636.084,277.908 C633.756,275.388 632.592,271.68 632.592,266.784 C632.592,262.08 633.924,258.456 636.588,255.912 C639.252,253.368 643.056,252.096 648,252.096 C651.024,252.096 653.796,252.42 656.316,253.068 C658.836,253.716 661.176,254.64 663.336,255.84 L663.336,255.84 L663.336,243.168 C658.296,241.056 652.584,240 646.2,240 C641.976,240 638.136,240.636 634.68,241.908 C631.224,243.18 628.248,244.992 625.752,247.344 C623.256,249.696 621.348,252.516 620.028,255.804 C618.708,259.092 618.048,262.752 618.048,266.784 C618.048,270.96 618.672,274.704 619.92,278.016 C621.168,281.328 622.968,284.148 625.32,286.476 C627.672,288.804 630.528,290.58 633.888,291.804 C637.248,293.028 641.04,293.64 645.264,293.64 Z M695.88,293.64 C700.632,293.64 704.7,292.728 708.084,290.904 C711.468,289.08 714.06,286.452 715.86,283.02 C717.66,279.588 718.56,275.496 718.56,270.744 L718.56,270.744 L718.56,241.08 L704.736,241.08 L704.736,272.328 C704.736,275.256 703.968,277.524 702.432,279.132 C700.896,280.74 698.712,281.544 695.88,281.544 C693.096,281.544 690.924,280.74 689.364,279.132 C687.804,277.524 687.024,275.256 687.024,272.328 L687.024,272.328 L687.024,241.08 L672.984,241.08 L672.984,270.744 C672.984,275.496 673.896,279.588 675.72,283.02 C677.544,286.452 680.172,289.08 683.604,290.904 C687.036,292.728 691.128,293.64 695.88,293.64 Z M766.08,292.56 L766.08,281.328 L741.528,281.328 L741.528,271.968 L761.832,271.968 L761.832,260.736 L741.528,260.736 L741.528,252.312 L764.712,252.312 L764.712,241.08 L727.848,241.08 L727.848,292.56 L766.08,292.56 Z M788.4,293.64 C793.104,293.64 797.1,292.992 800.388,291.696 C803.676,290.4 806.196,288.504 807.948,286.008 C809.7,283.512 810.576,280.488 810.576,276.936 C810.576,274.248 810.144,272.004 809.28,270.204 C808.416,268.404 807.192,266.916 805.608,265.74 C804.024,264.564 802.152,263.568 799.992,262.752 C797.832,261.936 795.432,261.216 792.792,260.592 C790.248,259.968 788.292,259.308 786.924,258.612 C785.556,257.916 784.872,256.872 784.872,255.48 C784.872,254.136 785.532,253.116 786.852,252.42 C788.172,251.724 790.032,251.376 792.432,251.376 C794.112,251.376 795.852,251.532 797.652,251.844 C799.452,252.156 801.24,252.612 803.016,253.212 C804.792,253.812 806.472,254.592 808.056,255.552 L808.056,255.552 L808.056,243.528 C805.848,242.424 803.376,241.56 800.64,240.936 C797.904,240.312 795.12,240 792.288,240 C787.92,240 784.128,240.66 780.912,241.98 C777.696,243.3 775.224,245.184 773.496,247.632 C771.768,250.08 770.904,253.032 770.904,256.488 C770.904,258.744 771.24,260.712 771.912,262.392 C772.584,264.072 773.64,265.548 775.08,266.82 C776.52,268.092 778.392,269.208 780.696,270.168 C783,271.128 785.784,271.992 789.048,272.76 C790.536,273.096 791.832,273.48 792.936,273.912 C794.04,274.344 794.904,274.86 795.528,275.46 C796.152,276.06 796.464,276.864 796.464,277.872 C796.464,279.264 795.768,280.344 794.376,281.112 C792.984,281.88 790.92,282.264 788.184,282.264 C785.4,282.264 782.604,281.868 779.796,281.076 C776.988,280.284 774.24,279.12 771.552,277.584 L771.552,277.584 L771.552,289.752 C774.336,291.096 777.108,292.08 779.868,292.704 C782.628,293.328 785.472,293.64 788.4,293.64 Z M833.472,293.64 C838.176,293.64 842.172,292.992 845.46,291.696 C848.748,290.4 851.268,288.504 853.02,286.008 C854.772,283.512 855.648,280.488 855.648,276.936 C855.648,274.248 855.216,272.004 854.352,270.204 C853.488,268.404 852.264,266.916 850.68,265.74 C849.096,264.564 847.224,263.568 845.064,262.752 C842.904,261.936 840.504,261.216 837.864,260.592 C835.32,259.968 833.364,259.308 831.996,258.612 C830.628,257.916 829.944,256.872 829.944,255.48 C829.944,254.136 830.604,253.116 831.924,252.42 C833.244,251.724 835.104,251.376 837.504,251.376 C839.184,251.376 840.924,251.532 842.724,251.844 C844.524,252.156 846.312,252.612 848.088,253.212 C849.864,253.812 851.544,254.592 853.128,255.552 L853.128,255.552 L853.128,243.528 C850.92,242.424 848.448,241.56 845.712,240.936 C842.976,240.312 840.192,240 837.36,240 C832.992,240 829.2,240.66 825.984,241.98 C822.768,243.3 820.296,245.184 818.568,247.632 C816.84,250.08 815.976,253.032 815.976,256.488 C815.976,258.744 816.312,260.712 816.984,262.392 C817.656,264.072 818.712,265.548 820.152,266.82 C821.592,268.092 823.464,269.208 825.768,270.168 C828.072,271.128 830.856,271.992 834.12,272.76 C835.608,273.096 836.904,273.48 838.008,273.912 C839.112,274.344 839.976,274.86 840.6,275.46 C841.224,276.06 841.536,276.864 841.536,277.872 C841.536,279.264 840.84,280.344 839.448,281.112 C838.056,281.88 835.992,282.264 833.256,282.264 C830.472,282.264 827.676,281.868 824.868,281.076 C822.06,280.284 819.312,279.12 816.624,277.584 L816.624,277.584 L816.624,289.752 C819.408,291.096 822.18,292.08 824.94,292.704 C827.7,293.328 830.544,293.64 833.472,293.64 Z M901.224,292.56 L901.224,281.328 L876.672,281.328 L876.672,271.968 L896.976,271.968 L896.976,260.736 L876.672,260.736 L876.672,252.312 L899.856,252.312 L899.856,241.08 L862.992,241.08 L862.992,292.56 L901.224,292.56 Z M928.944,292.56 C934.416,292.56 939.084,291.54 942.948,289.5 C946.812,287.46 949.764,284.52 951.804,280.68 C953.844,276.84 954.864,272.184 954.864,266.712 C954.864,261.288 953.844,256.668 951.804,252.852 C949.764,249.036 946.812,246.12 942.948,244.104 C939.084,242.088 934.44,241.08 929.016,241.08 L929.016,241.08 L907.992,241.08 L907.992,292.56 L928.944,292.56 Z M928.296,280.608 L922.032,280.608 L922.032,253.032 L928.368,253.032 C932.304,253.032 935.28,254.196 937.296,256.524 C939.312,258.852 940.32,262.248 940.32,266.712 C940.32,271.224 939.3,274.668 937.26,277.044 C935.22,279.42 932.232,280.608 928.296,280.608 L928.296,280.608 Z M29.808,372.56 L29.808,333.176 L45.216,333.176 L45.216,321.08 L0.36,321.08 L0.36,333.176 L15.768,333.176 L15.768,372.56 L29.808,372.56 Z M65.016,372.56 L65.016,351.752 L83.304,351.752 L83.304,372.56 L97.344,372.56 L97.344,321.08 L83.304,321.08 L83.304,339.656 L65.016,339.656 L65.016,321.08 L50.976,321.08 L50.976,372.56 L65.016,372.56 Z M145.08,372.56 L145.08,361.328 L120.528,361.328 L120.528,351.968 L140.832,351.968 L140.832,340.736 L120.528,340.736 L120.528,332.312 L143.712,332.312 L143.712,321.08 L106.848,321.08 L106.848,372.56 L145.08,372.56 Z M178.56,372.56 C179.568,369.296 180.552,366.08 181.512,362.912 L181.512,362.912 L200.304,362.912 C200.784,364.496 201.276,366.092 201.78,367.7 C202.284,369.308 202.776,370.928 203.256,372.56 L203.256,372.56 L218.448,372.56 C215.376,363.968 212.208,355.376 208.944,346.784 C205.68,338.192 202.32,329.624 198.864,321.08 L198.864,321.08 L183.384,321.08 C180.024,329.192 176.712,337.544 173.448,346.136 C170.184,354.728 166.968,363.536 163.8,372.56 L163.8,372.56 L178.56,372.56 Z M196.848,351.968 L184.968,351.968 C185.928,348.992 186.912,346.028 187.92,343.076 C188.928,340.124 189.936,337.16 190.944,334.184 C191.952,337.112 192.948,340.052 193.932,343.004 C194.916,345.956 195.888,348.944 196.848,351.968 L196.848,351.968 Z M249.192,373.64 C251.496,373.64 253.812,373.496 256.14,373.208 C258.468,372.92 260.712,372.476 262.872,371.876 C265.032,371.276 266.952,370.568 268.632,369.752 L268.632,369.752 L268.632,342.896 L248.544,342.896 L248.544,353.264 L256.032,353.264 L256.032,360.968 C255.12,361.208 254.172,361.388 253.188,361.508 C252.204,361.628 251.232,361.688 250.272,361.688 C245.76,361.688 242.34,360.428 240.012,357.908 C237.684,355.388 236.52,351.68 236.52,346.784 C236.52,342.08 237.852,338.456 240.516,335.912 C243.18,333.368 246.984,332.096 251.928,332.096 C254.952,332.096 257.724,332.42 260.244,333.068 C262.764,333.716 265.104,334.64 267.264,335.84 L267.264,335.84 L267.264,323.168 C262.224,321.056 256.512,320 250.128,320 C245.904,320 242.064,320.636 238.608,321.908 C235.152,323.18 232.176,324.992 229.68,327.344 C227.184,329.696 225.276,332.516 223.956,335.804 C222.636,339.092 221.976,342.752 221.976,346.784 C221.976,350.96 222.6,354.704 223.848,358.016 C225.096,361.328 226.896,364.148 229.248,366.476 C231.6,368.804 234.456,370.58 237.816,371.804 C241.176,373.028 244.968,373.64 249.192,373.64 Z M315.36,372.56 L315.36,361.328 L290.808,361.328 L290.808,351.968 L311.112,351.968 L311.112,340.736 L290.808,340.736 L290.808,332.312 L313.992,332.312 L313.992,321.08 L277.128,321.08 L277.128,372.56 L315.36,372.56 Z M348.84,372.56 C349.848,369.296 350.832,366.08 351.792,362.912 L351.792,362.912 L370.584,362.912 C371.064,364.496 371.556,366.092 372.06,367.7 C372.564,369.308 373.056,370.928 373.536,372.56 L373.536,372.56 L388.728,372.56 C385.656,363.968 382.488,355.376 379.224,346.784 C375.96,338.192 372.6,329.624 369.144,321.08 L369.144,321.08 L353.664,321.08 C350.304,329.192 346.992,337.544 343.728,346.136 C340.464,354.728 337.248,363.536 334.08,372.56 L334.08,372.56 L348.84,372.56 Z M367.128,351.968 L355.248,351.968 C356.208,348.992 357.192,346.028 358.2,343.076 C359.208,340.124 360.216,337.16 361.224,334.184 C362.232,337.112 363.228,340.052 364.212,343.004 C365.196,345.956 366.168,348.944 367.128,351.968 L367.128,351.968 Z M409.68,373.64 C414.384,373.64 418.38,372.992 421.668,371.696 C424.956,370.4 427.476,368.504 429.228,366.008 C430.98,363.512 431.856,360.488 431.856,356.936 C431.856,354.248 431.424,352.004 430.56,350.204 C429.696,348.404 428.472,346.916 426.888,345.74 C425.304,344.564 423.432,343.568 421.272,342.752 C419.112,341.936 416.712,341.216 414.072,340.592 C411.528,339.968 409.572,339.308 408.204,338.612 C406.836,337.916 406.152,336.872 406.152,335.48 C406.152,334.136 406.812,333.116 408.132,332.42 C409.452,331.724 411.312,331.376 413.712,331.376 C415.392,331.376 417.132,331.532 418.932,331.844 C420.732,332.156 422.52,332.612 424.296,333.212 C426.072,333.812 427.752,334.592 429.336,335.552 L429.336,335.552 L429.336,323.528 C427.128,322.424 424.656,321.56 421.92,320.936 C419.184,320.312 416.4,320 413.568,320 C409.2,320 405.408,320.66 402.192,321.98 C398.976,323.3 396.504,325.184 394.776,327.632 C393.048,330.08 392.184,333.032 392.184,336.488 C392.184,338.744 392.52,340.712 393.192,342.392 C393.864,344.072 394.92,345.548 396.36,346.82 C397.8,348.092 399.672,349.208 401.976,350.168 C404.28,351.128 407.064,351.992 410.328,352.76 C411.816,353.096 413.112,353.48 414.216,353.912 C415.32,354.344 416.184,354.86 416.808,355.46 C417.432,356.06 417.744,356.864 417.744,357.872 C417.744,359.264 417.048,360.344 415.656,361.112 C414.264,361.88 412.2,362.264 409.464,362.264 C406.68,362.264 403.884,361.868 401.076,361.076 C398.268,360.284 395.52,359.12 392.832,357.584 L392.832,357.584 L392.832,369.752 C395.616,371.096 398.388,372.08 401.148,372.704 C403.908,373.328 406.752,373.64 409.68,373.64 Z M479.016,372.56 C480.408,367.28 481.752,361.988 483.048,356.684 C484.344,351.38 485.64,346.064 486.936,340.736 C488.184,346.064 489.48,351.38 490.824,356.684 C492.168,361.988 493.536,367.28 494.928,372.56 L494.928,372.56 L509.472,372.56 C511.872,364.16 514.164,355.664 516.348,347.072 C518.532,338.48 520.584,329.816 522.504,321.08 L522.504,321.08 L507.744,321.08 C506.832,327.08 505.86,333.08 504.828,339.08 C503.796,345.08 502.704,351.008 501.552,356.864 C500.256,351.296 498.972,345.716 497.7,340.124 C496.428,334.532 495.192,328.904 493.992,323.24 L493.992,323.24 L480.528,323.24 C479.328,329 478.08,334.772 476.784,340.556 C475.488,346.34 474.144,352.136 472.752,357.944 C471.6,351.944 470.496,345.848 469.44,339.656 C468.384,333.464 467.4,327.272 466.488,321.08 L466.488,321.08 L451.44,321.08 C453.408,329.816 455.484,338.48 457.668,347.072 C459.852,355.664 462.12,364.16 464.472,372.56 L464.472,372.56 L479.016,372.56 Z M566.424,372.56 L566.424,361.328 L541.872,361.328 L541.872,351.968 L562.176,351.968 L562.176,340.736 L541.872,340.736 L541.872,332.312 L565.056,332.312 L565.056,321.08 L528.192,321.08 L528.192,372.56 L566.424,372.56 Z M610.128,372.56 L610.128,360.464 L587.232,360.464 L587.232,321.08 L573.192,321.08 L573.192,372.56 L610.128,372.56 Z M652.824,372.56 L652.824,360.464 L629.928,360.464 L629.928,321.08 L615.888,321.08 L615.888,372.56 L652.824,372.56 Z M664.272,373.208 C665.808,373.208 667.128,372.884 668.232,372.236 C669.336,371.588 670.188,370.724 670.788,369.644 C671.388,368.564 671.688,367.376 671.688,366.08 C671.688,364.784 671.388,363.596 670.788,362.516 C670.188,361.436 669.336,360.584 668.232,359.96 C667.128,359.336 665.808,359.024 664.272,359.024 C662.736,359.024 661.416,359.336 660.312,359.96 C659.208,360.584 658.356,361.436 657.756,362.516 C657.156,363.596 656.856,364.784 656.856,366.08 C656.856,367.376 657.156,368.564 657.756,369.644 C658.356,370.724 659.208,371.588 660.312,372.236 C661.416,372.884 662.736,373.208 664.272,373.208 Z" id="IJUSTPLAYEDTHIS…ATHOME…ONTHERADIOANDIWASPLAYINGWITHBLINK182ANDIGUESSEDTHEAGEASWELL." fill-opacity="0"></path>
            <path d="M18.144,452.56 L18.144,401.08 L4.104,401.08 L4.104,452.56 L18.144,452.56 Z M53.352,452.56 L53.352,413.176 L68.76,413.176 L68.76,401.08 L23.904,401.08 L23.904,413.176 L39.312,413.176 L39.312,452.56 L53.352,452.56 Z M114.336,452.56 C115.728,447.28 117.072,441.988 118.368,436.684 C119.664,431.38 120.96,426.064 122.256,420.736 C123.504,426.064 124.8,431.38 126.144,436.684 C127.488,441.988 128.856,447.28 130.248,452.56 L130.248,452.56 L144.792,452.56 C147.192,444.16 149.484,435.664 151.668,427.072 C153.852,418.48 155.904,409.816 157.824,401.08 L157.824,401.08 L143.064,401.08 C142.152,407.08 141.18,413.08 140.148,419.08 C139.116,425.08 138.024,431.008 136.872,436.864 C135.576,431.296 134.292,425.716 133.02,420.124 C131.748,414.532 130.512,408.904 129.312,403.24 L129.312,403.24 L115.848,403.24 C114.648,409 113.4,414.772 112.104,420.556 C110.808,426.34 109.464,432.136 108.072,437.944 C106.92,431.944 105.816,425.848 104.76,419.656 C103.704,413.464 102.72,407.272 101.808,401.08 L101.808,401.08 L86.76,401.08 C88.728,409.816 90.804,418.48 92.988,427.072 C95.172,435.664 97.44,444.16 99.792,452.56 L99.792,452.56 L114.336,452.56 Z M174.168,452.56 C175.176,449.296 176.16,446.08 177.12,442.912 L177.12,442.912 L195.912,442.912 C196.392,444.496 196.884,446.092 197.388,447.7 C197.892,449.308 198.384,450.928 198.864,452.56 L198.864,452.56 L214.056,452.56 C210.984,443.968 207.816,435.376 204.552,426.784 C201.288,418.192 197.928,409.624 194.472,401.08 L194.472,401.08 L178.992,401.08 C175.632,409.192 172.32,417.544 169.056,426.136 C165.792,434.728 162.576,443.536 159.408,452.56 L159.408,452.56 L174.168,452.56 Z M192.456,431.968 L180.576,431.968 C181.536,428.992 182.52,426.028 183.528,423.076 C184.536,420.124 185.544,417.16 186.552,414.184 C187.56,417.112 188.556,420.052 189.54,423.004 C190.524,425.956 191.496,428.944 192.456,431.968 L192.456,431.968 Z M235.008,453.64 C239.712,453.64 243.708,452.992 246.996,451.696 C250.284,450.4 252.804,448.504 254.556,446.008 C256.308,443.512 257.184,440.488 257.184,436.936 C257.184,434.248 256.752,432.004 255.888,430.204 C255.024,428.404 253.8,426.916 252.216,425.74 C250.632,424.564 248.76,423.568 246.6,422.752 C244.44,421.936 242.04,421.216 239.4,420.592 C236.856,419.968 234.9,419.308 233.532,418.612 C232.164,417.916 231.48,416.872 231.48,415.48 C231.48,414.136 232.14,413.116 233.46,412.42 C234.78,411.724 236.64,411.376 239.04,411.376 C240.72,411.376 242.46,411.532 244.26,411.844 C246.06,412.156 247.848,412.612 249.624,413.212 C251.4,413.812 253.08,414.592 254.664,415.552 L254.664,415.552 L254.664,403.528 C252.456,402.424 249.984,401.56 247.248,400.936 C244.512,400.312 241.728,400 238.896,400 C234.528,400 230.736,400.66 227.52,401.98 C224.304,403.3 221.832,405.184 220.104,407.632 C218.376,410.08 217.512,413.032 217.512,416.488 C217.512,418.744 217.848,420.712 218.52,422.392 C219.192,424.072 220.248,425.548 221.688,426.82 C223.128,428.092 225,429.208 227.304,430.168 C229.608,431.128 232.392,431.992 235.656,432.76 C237.144,433.096 238.44,433.48 239.544,433.912 C240.648,434.344 241.512,434.86 242.136,435.46 C242.76,436.06 243.072,436.864 243.072,437.872 C243.072,439.264 242.376,440.344 240.984,441.112 C239.592,441.88 237.528,442.264 234.792,442.264 C232.008,442.264 229.212,441.868 226.404,441.076 C223.596,440.284 220.848,439.12 218.16,437.584 L218.16,437.584 L218.16,449.752 C220.944,451.096 223.716,452.08 226.476,452.704 C229.236,453.328 232.08,453.64 235.008,453.64 Z M293.688,452.56 L293.688,421.312 C295.272,424.96 296.892,428.608 298.548,432.256 C300.204,435.904 301.872,439.552 303.552,443.2 L303.552,443.2 L314.352,443.2 C315.984,439.552 317.604,435.892 319.212,432.22 C320.82,428.548 322.416,424.84 324,421.096 L324,421.096 L324,452.56 L337.104,452.56 L337.104,401.08 L320.4,401.08 C318.576,405.928 316.728,410.716 314.856,415.444 C312.984,420.172 311.088,424.84 309.168,429.448 C307.152,424.792 305.172,420.088 303.228,415.336 C301.284,410.584 299.376,405.832 297.504,401.08 L297.504,401.08 L280.584,401.08 L280.584,452.56 L293.688,452.56 Z M357.264,452.56 C358.272,449.296 359.256,446.08 360.216,442.912 L360.216,442.912 L379.008,442.912 C379.488,444.496 379.98,446.092 380.484,447.7 C380.988,449.308 381.48,450.928 381.96,452.56 L381.96,452.56 L397.152,452.56 C394.08,443.968 390.912,435.376 387.648,426.784 C384.384,418.192 381.024,409.624 377.568,401.08 L377.568,401.08 L362.088,401.08 C358.728,409.192 355.416,417.544 352.152,426.136 C348.888,434.728 345.672,443.536 342.504,452.56 L342.504,452.56 L357.264,452.56 Z M375.552,431.968 L363.672,431.968 C364.632,428.992 365.616,426.028 366.624,423.076 C367.632,420.124 368.64,417.16 369.648,414.184 C370.656,417.112 371.652,420.052 372.636,423.004 C373.62,425.956 374.592,428.944 375.552,431.968 L375.552,431.968 Z M423.504,452.56 C428.976,452.56 433.644,451.54 437.508,449.5 C441.372,447.46 444.324,444.52 446.364,440.68 C448.404,436.84 449.424,432.184 449.424,426.712 C449.424,421.288 448.404,416.668 446.364,412.852 C444.324,409.036 441.372,406.12 437.508,404.104 C433.644,402.088 429,401.08 423.576,401.08 L423.576,401.08 L402.552,401.08 L402.552,452.56 L423.504,452.56 Z M422.856,440.608 L416.592,440.608 L416.592,413.032 L422.928,413.032 C426.864,413.032 429.84,414.196 431.856,416.524 C433.872,418.852 434.88,422.248 434.88,426.712 C434.88,431.224 433.86,434.668 431.82,437.044 C429.78,439.42 426.792,440.608 422.856,440.608 L422.856,440.608 Z M470.448,452.56 L470.448,421.312 C473.568,426.304 476.748,431.452 479.988,436.756 C483.228,442.06 486.384,447.328 489.456,452.56 L489.456,452.56 L503.568,452.56 L503.568,401.08 L490.176,401.08 L490.176,431.752 C487.056,426.52 483.912,421.336 480.744,416.2 C477.576,411.064 474.384,406.024 471.168,401.08 L471.168,401.08 L457.056,401.08 L457.056,452.56 L470.448,452.56 Z M551.304,452.56 L551.304,441.328 L526.752,441.328 L526.752,431.968 L547.056,431.968 L547.056,420.736 L526.752,420.736 L526.752,412.312 L549.936,412.312 L549.936,401.08 L513.072,401.08 L513.072,452.56 L551.304,452.56 Z M573.624,453.64 C578.328,453.64 582.324,452.992 585.612,451.696 C588.9,450.4 591.42,448.504 593.172,446.008 C594.924,443.512 595.8,440.488 595.8,436.936 C595.8,434.248 595.368,432.004 594.504,430.204 C593.64,428.404 592.416,426.916 590.832,425.74 C589.248,424.564 587.376,423.568 585.216,422.752 C583.056,421.936 580.656,421.216 578.016,420.592 C575.472,419.968 573.516,419.308 572.148,418.612 C570.78,417.916 570.096,416.872 570.096,415.48 C570.096,414.136 570.756,413.116 572.076,412.42 C573.396,411.724 575.256,411.376 577.656,411.376 C579.336,411.376 581.076,411.532 582.876,411.844 C584.676,412.156 586.464,412.612 588.24,413.212 C590.016,413.812 591.696,414.592 593.28,415.552 L593.28,415.552 L593.28,403.528 C591.072,402.424 588.6,401.56 585.864,400.936 C583.128,400.312 580.344,400 577.512,400 C573.144,400 569.352,400.66 566.136,401.98 C562.92,403.3 560.448,405.184 558.72,407.632 C556.992,410.08 556.128,413.032 556.128,416.488 C556.128,418.744 556.464,420.712 557.136,422.392 C557.808,424.072 558.864,425.548 560.304,426.82 C561.744,428.092 563.616,429.208 565.92,430.168 C568.224,431.128 571.008,431.992 574.272,432.76 C575.76,433.096 577.056,433.48 578.16,433.912 C579.264,434.344 580.128,434.86 580.752,435.46 C581.376,436.06 581.688,436.864 581.688,437.872 C581.688,439.264 580.992,440.344 579.6,441.112 C578.208,441.88 576.144,442.264 573.408,442.264 C570.624,442.264 567.828,441.868 565.02,441.076 C562.212,440.284 559.464,439.12 556.776,437.584 L556.776,437.584 L556.776,449.752 C559.56,451.096 562.332,452.08 565.092,452.704 C567.852,453.328 570.696,453.64 573.624,453.64 Z M618.696,453.64 C623.4,453.64 627.396,452.992 630.684,451.696 C633.972,450.4 636.492,448.504 638.244,446.008 C639.996,443.512 640.872,440.488 640.872,436.936 C640.872,434.248 640.44,432.004 639.576,430.204 C638.712,428.404 637.488,426.916 635.904,425.74 C634.32,424.564 632.448,423.568 630.288,422.752 C628.128,421.936 625.728,421.216 623.088,420.592 C620.544,419.968 618.588,419.308 617.22,418.612 C615.852,417.916 615.168,416.872 615.168,415.48 C615.168,414.136 615.828,413.116 617.148,412.42 C618.468,411.724 620.328,411.376 622.728,411.376 C624.408,411.376 626.148,411.532 627.948,411.844 C629.748,412.156 631.536,412.612 633.312,413.212 C635.088,413.812 636.768,414.592 638.352,415.552 L638.352,415.552 L638.352,403.528 C636.144,402.424 633.672,401.56 630.936,400.936 C628.2,400.312 625.416,400 622.584,400 C618.216,400 614.424,400.66 611.208,401.98 C607.992,403.3 605.52,405.184 603.792,407.632 C602.064,410.08 601.2,413.032 601.2,416.488 C601.2,418.744 601.536,420.712 602.208,422.392 C602.88,424.072 603.936,425.548 605.376,426.82 C606.816,428.092 608.688,429.208 610.992,430.168 C613.296,431.128 616.08,431.992 619.344,432.76 C620.832,433.096 622.128,433.48 623.232,433.912 C624.336,434.344 625.2,434.86 625.824,435.46 C626.448,436.06 626.76,436.864 626.76,437.872 C626.76,439.264 626.064,440.344 624.672,441.112 C623.28,441.88 621.216,442.264 618.48,442.264 C615.696,442.264 612.9,441.868 610.092,441.076 C607.284,440.284 604.536,439.12 601.848,437.584 L601.848,437.584 L601.848,449.752 C604.632,451.096 607.404,452.08 610.164,452.704 C612.924,453.328 615.768,453.64 618.696,453.64 Z M659.952,435.136 L661.032,401.08 L647.208,401.08 L648.288,435.136 L659.952,435.136 Z M654.12,453.208 C655.656,453.208 656.976,452.884 658.08,452.236 C659.184,451.588 660.036,450.724 660.636,449.644 C661.236,448.564 661.536,447.376 661.536,446.08 C661.536,444.784 661.236,443.596 660.636,442.516 C660.036,441.436 659.184,440.584 658.08,439.96 C656.976,439.336 655.656,439.024 654.12,439.024 C652.584,439.024 651.264,439.336 650.16,439.96 C649.056,440.584 648.204,441.436 647.604,442.516 C647.004,443.596 646.704,444.784 646.704,446.08 C646.704,447.376 647.004,448.564 647.604,449.644 C648.204,450.724 649.056,451.588 650.16,452.236 C651.264,452.884 652.584,453.208 654.12,453.208 Z" id="ITWASMADNESS!"></path>
        </g>
    </g>
</svg>