<?xml version="1.0" encoding="UTF-8"?>
<svg width="1200px" height="675px" viewBox="0 0 1200 675" version="1.1" xmlns="http://www.w3.org/2000/svg" xmlns:xlink="http://www.w3.org/1999/xlink">
    <!-- Generator: Sketch 61.2 (89653) - https://sketch.com -->
    <title>Rhianna</title>
    <desc>Created with Sketch.</desc>
    <g id="Rhianna" stroke="none" stroke-width="1" fill="none" fill-rule="evenodd">
        <path d="M104.792,125 L104.792,73.52 L90.752,73.52 L90.752,125 L104.792,125 Z M154.112,125 C155.504,119.72 156.848,114.428 158.144,109.124 C159.44,103.82 160.736,98.504 162.032,93.176 C163.28,98.504 164.576,103.82 165.92,109.124 C167.264,114.428 168.632,119.72 170.024,125 L170.024,125 L184.568,125 C186.968,116.6 189.26,108.104 191.444,99.512 C193.628,90.92 195.68,82.256 197.6,73.52 L197.6,73.52 L182.84,73.52 C181.928,79.52 180.956,85.52 179.924,91.52 C178.892,97.52 177.8,103.448 176.648,109.304 C175.352,103.736 174.068,98.156 172.796,92.564 C171.524,86.972 170.288,81.344 169.088,75.68 L169.088,75.68 L155.624,75.68 C154.424,81.44 153.176,87.212 151.88,92.996 C150.584,98.78 149.24,104.576 147.848,110.384 C146.696,104.384 145.592,98.288 144.536,92.096 C143.48,85.904 142.496,79.712 141.584,73.52 L141.584,73.52 L126.536,73.52 C128.504,82.256 130.58,90.92 132.764,99.512 C134.948,108.104 137.216,116.6 139.568,125 L139.568,125 L154.112,125 Z M213.944,125 C214.952,121.736 215.936,118.52 216.896,115.352 L216.896,115.352 L235.688,115.352 C236.168,116.936 236.66,118.532 237.164,120.14 C237.668,121.748 238.16,123.368 238.64,125 L238.64,125 L253.832,125 C250.76,116.408 247.592,107.816 244.328,99.224 C241.064,90.632 237.704,82.064 234.248,73.52 L234.248,73.52 L218.768,73.52 C215.408,81.632 212.096,89.984 208.832,98.576 C205.568,107.168 202.352,115.976 199.184,125 L199.184,125 L213.944,125 Z M232.232,104.408 L220.352,104.408 C221.312,101.432 222.296,98.468 223.304,95.516 C224.312,92.564 225.32,89.6 226.328,86.624 C227.336,89.552 228.332,92.492 229.316,95.444 C230.3,98.396 231.272,101.384 232.232,104.408 L232.232,104.408 Z M274.784,126.08 C279.488,126.08 283.484,125.432 286.772,124.136 C290.06,122.84 292.58,120.944 294.332,118.448 C296.084,115.952 296.96,112.928 296.96,109.376 C296.96,106.688 296.528,104.444 295.664,102.644 C294.8,100.844 293.576,99.356 291.992,98.18 C290.408,97.004 288.536,96.008 286.376,95.192 C284.216,94.376 281.816,93.656 279.176,93.032 C276.632,92.408 274.676,91.748 273.308,91.052 C271.94,90.356 271.256,89.312 271.256,87.92 C271.256,86.576 271.916,85.556 273.236,84.86 C274.556,84.164 276.416,83.816 278.816,83.816 C280.496,83.816 282.236,83.972 284.036,84.284 C285.836,84.596 287.624,85.052 289.4,85.652 C291.176,86.252 292.856,87.032 294.44,87.992 L294.44,87.992 L294.44,75.968 C292.232,74.864 289.76,74 287.024,73.376 C284.288,72.752 281.504,72.44 278.672,72.44 C274.304,72.44 270.512,73.1 267.296,74.42 C264.08,75.74 261.608,77.624 259.88,80.072 C258.152,82.52 257.288,85.472 257.288,88.928 C257.288,91.184 257.624,93.152 258.296,94.832 C258.968,96.512 260.024,97.988 261.464,99.26 C262.904,100.532 264.776,101.648 267.08,102.608 C269.384,103.568 272.168,104.432 275.432,105.2 C276.92,105.536 278.216,105.92 279.32,106.352 C280.424,106.784 281.288,107.3 281.912,107.9 C282.536,108.5 282.848,109.304 282.848,110.312 C282.848,111.704 282.152,112.784 280.76,113.552 C279.368,114.32 277.304,114.704 274.568,114.704 C271.784,114.704 268.988,114.308 266.18,113.516 C263.372,112.724 260.624,111.56 257.936,110.024 L257.936,110.024 L257.936,122.192 C260.72,123.536 263.492,124.52 266.252,125.144 C269.012,125.768 271.856,126.08 274.784,126.08 Z M333.968,125 L333.968,108.656 L339.728,108.656 C344.384,108.656 348.32,107.972 351.536,106.604 C354.752,105.236 357.2,103.244 358.88,100.628 C360.56,98.012 361.4,94.832 361.4,91.088 C361.4,85.424 359.54,81.08 355.82,78.056 C352.1,75.032 346.736,73.52 339.728,73.52 L339.728,73.52 L320.36,73.52 L320.36,125 L333.968,125 Z M339.08,97.856 L333.968,97.856 L333.968,84.32 L339.08,84.32 C344.504,84.32 347.216,86.576 347.216,91.088 C347.216,95.6 344.504,97.856 339.08,97.856 L339.08,97.856 Z M405.464,125 L405.464,112.904 L382.568,112.904 L382.568,73.52 L368.528,73.52 L368.528,125 L405.464,125 Z M421.88,125 C422.888,121.736 423.872,118.52 424.832,115.352 L424.832,115.352 L443.624,115.352 C444.104,116.936 444.596,118.532 445.1,120.14 C445.604,121.748 446.096,123.368 446.576,125 L446.576,125 L461.768,125 C458.696,116.408 455.528,107.816 452.264,99.224 C449,90.632 445.64,82.064 442.184,73.52 L442.184,73.52 L426.704,73.52 C423.344,81.632 420.032,89.984 416.768,98.576 C413.504,107.168 410.288,115.976 407.12,125 L407.12,125 L421.88,125 Z M440.168,104.408 L428.288,104.408 C429.248,101.432 430.232,98.468 431.24,95.516 C432.248,92.564 433.256,89.6 434.264,86.624 C435.272,89.552 436.268,92.492 437.252,95.444 C438.236,98.396 439.208,101.384 440.168,104.408 L440.168,104.408 Z M496.472,125 L496.472,105.92 C499.784,100.544 503.048,95.156 506.264,89.756 C509.48,84.356 512.624,78.944 515.696,73.52 L515.696,73.52 L500.288,73.52 C498.608,76.928 496.88,80.348 495.104,83.78 C493.328,87.212 491.552,90.632 489.776,94.04 C487.952,90.632 486.164,87.224 484.412,83.816 C482.66,80.408 480.92,76.976 479.192,73.52 L479.192,73.52 L463.28,73.52 C466.304,78.944 469.424,84.356 472.64,89.756 C475.856,95.156 479.12,100.544 482.432,105.92 L482.432,105.92 L482.432,125 L496.472,125 Z M535.352,125 L535.352,73.52 L521.312,73.52 L521.312,125 L535.352,125 Z M558.248,125 L558.248,93.752 C561.368,98.744 564.548,103.892 567.788,109.196 C571.028,114.5 574.184,119.768 577.256,125 L577.256,125 L591.368,125 L591.368,73.52 L577.976,73.52 L577.976,104.192 C574.856,98.96 571.712,93.776 568.544,88.64 C565.376,83.504 562.184,78.464 558.968,73.52 L558.968,73.52 L544.856,73.52 L544.856,125 L558.248,125 Z M626.216,126.08 C628.52,126.08 630.836,125.936 633.164,125.648 C635.492,125.36 637.736,124.916 639.896,124.316 C642.056,123.716 643.976,123.008 645.656,122.192 L645.656,122.192 L645.656,95.336 L625.568,95.336 L625.568,105.704 L633.056,105.704 L633.056,113.408 C632.144,113.648 631.196,113.828 630.212,113.948 C629.228,114.068 628.256,114.128 627.296,114.128 C622.784,114.128 619.364,112.868 617.036,110.348 C614.708,107.828 613.544,104.12 613.544,99.224 C613.544,94.52 614.876,90.896 617.54,88.352 C620.204,85.808 624.008,84.536 628.952,84.536 C631.976,84.536 634.748,84.86 637.268,85.508 C639.788,86.156 642.128,87.08 644.288,88.28 L644.288,88.28 L644.288,75.608 C639.248,73.496 633.536,72.44 627.152,72.44 C622.928,72.44 619.088,73.076 615.632,74.348 C612.176,75.62 609.2,77.432 606.704,79.784 C604.208,82.136 602.3,84.956 600.98,88.244 C599.66,91.532 599,95.192 599,99.224 C599,103.4 599.624,107.144 600.872,110.456 C602.12,113.768 603.92,116.588 606.272,118.916 C608.624,121.244 611.48,123.02 614.84,124.244 C618.2,125.468 621.992,126.08 626.216,126.08 Z M680.864,125 C681.872,121.736 682.856,118.52 683.816,115.352 L683.816,115.352 L702.608,115.352 C703.088,116.936 703.58,118.532 704.084,120.14 C704.588,121.748 705.08,123.368 705.56,125 L705.56,125 L720.752,125 C717.68,116.408 714.512,107.816 711.248,99.224 C707.984,90.632 704.624,82.064 701.168,73.52 L701.168,73.52 L685.688,73.52 C682.328,81.632 679.016,89.984 675.752,98.576 C672.488,107.168 669.272,115.976 666.104,125 L666.104,125 L680.864,125 Z M699.152,104.408 L687.272,104.408 C688.232,101.432 689.216,98.468 690.224,95.516 C691.232,92.564 692.24,89.6 693.248,86.624 C694.256,89.552 695.252,92.492 696.236,95.444 C697.22,98.396 698.192,101.384 699.152,104.408 L699.152,104.408 Z M763.088,125 L763.088,112.904 L740.192,112.904 L740.192,73.52 L726.152,73.52 L726.152,125 L763.088,125 Z M793.112,126.08 C797.096,126.08 800.696,125.456 803.912,124.208 C807.128,122.96 809.876,121.16 812.156,118.808 C814.436,116.456 816.188,113.624 817.412,110.312 C818.636,107 819.248,103.304 819.248,99.224 C819.248,95.096 818.636,91.388 817.412,88.1 C816.188,84.812 814.436,82.004 812.156,79.676 C809.876,77.348 807.128,75.56 803.912,74.312 C800.696,73.064 797.096,72.44 793.112,72.44 C789.128,72.44 785.528,73.064 782.312,74.312 C779.096,75.56 776.348,77.348 774.068,79.676 C771.788,82.004 770.036,84.812 768.812,88.1 C767.588,91.388 766.976,95.096 766.976,99.224 C766.976,103.304 767.588,107 768.812,110.312 C770.036,113.624 771.788,116.456 774.068,118.808 C776.348,121.16 779.096,122.96 782.312,124.208 C785.528,125.456 789.128,126.08 793.112,126.08 Z M793.112,113.984 C789.368,113.984 786.5,112.712 784.508,110.168 C782.516,107.624 781.52,103.976 781.52,99.224 C781.52,94.52 782.516,90.896 784.508,88.352 C786.5,85.808 789.368,84.536 793.112,84.536 C796.856,84.536 799.724,85.808 801.716,88.352 C803.708,90.896 804.704,94.52 804.704,99.224 C804.704,103.976 803.708,107.624 801.716,110.168 C799.724,112.712 796.856,113.984 793.112,113.984 Z M840.272,125 L840.272,93.752 C843.392,98.744 846.572,103.892 849.812,109.196 C853.052,114.5 856.208,119.768 859.28,125 L859.28,125 L873.392,125 L873.392,73.52 L860,73.52 L860,104.192 C856.88,98.96 853.736,93.776 850.568,88.64 C847.4,83.504 844.208,78.464 840.992,73.52 L840.992,73.52 L826.88,73.52 L826.88,125 L840.272,125 Z M908.24,126.08 C910.544,126.08 912.86,125.936 915.188,125.648 C917.516,125.36 919.76,124.916 921.92,124.316 C924.08,123.716 926,123.008 927.68,122.192 L927.68,122.192 L927.68,95.336 L907.592,95.336 L907.592,105.704 L915.08,105.704 L915.08,113.408 C914.168,113.648 913.22,113.828 912.236,113.948 C911.252,114.068 910.28,114.128 909.32,114.128 C904.808,114.128 901.388,112.868 899.06,110.348 C896.732,107.828 895.568,104.12 895.568,99.224 C895.568,94.52 896.9,90.896 899.564,88.352 C902.228,85.808 906.032,84.536 910.976,84.536 C914,84.536 916.772,84.86 919.292,85.508 C921.812,86.156 924.152,87.08 926.312,88.28 L926.312,88.28 L926.312,75.608 C921.272,73.496 915.56,72.44 909.176,72.44 C904.952,72.44 901.112,73.076 897.656,74.348 C894.2,75.62 891.224,77.432 888.728,79.784 C886.232,82.136 884.324,84.956 883.004,88.244 C881.684,91.532 881.024,95.192 881.024,99.224 C881.024,103.4 881.648,107.144 882.896,110.456 C884.144,113.768 885.944,116.588 888.296,118.916 C890.648,121.244 893.504,123.02 896.864,124.244 C900.224,125.468 904.016,126.08 908.24,126.08 Z M962.888,125 C963.896,121.736 964.88,118.52 965.84,115.352 L965.84,115.352 L984.632,115.352 C985.112,116.936 985.604,118.532 986.108,120.14 C986.612,121.748 987.104,123.368 987.584,125 L987.584,125 L1002.776,125 C999.704,116.408 996.536,107.816 993.272,99.224 C990.008,90.632 986.648,82.064 983.192,73.52 L983.192,73.52 L967.712,73.52 C964.352,81.632 961.04,89.984 957.776,98.576 C954.512,107.168 951.296,115.976 948.128,125 L948.128,125 L962.888,125 Z M981.176,104.408 L969.296,104.408 C970.256,101.432 971.24,98.468 972.248,95.516 C973.256,92.564 974.264,89.6 975.272,86.624 C976.28,89.552 977.276,92.492 978.26,95.444 C979.244,98.396 980.216,101.384 981.176,104.408 L981.176,104.408 Z M1023.728,126.08 C1028.432,126.08 1032.428,125.432 1035.716,124.136 C1039.004,122.84 1041.524,120.944 1043.276,118.448 C1045.028,115.952 1045.904,112.928 1045.904,109.376 C1045.904,106.688 1045.472,104.444 1044.608,102.644 C1043.744,100.844 1042.52,99.356 1040.936,98.18 C1039.352,97.004 1037.48,96.008 1035.32,95.192 C1033.16,94.376 1030.76,93.656 1028.12,93.032 C1025.576,92.408 1023.62,91.748 1022.252,91.052 C1020.884,90.356 1020.2,89.312 1020.2,87.92 C1020.2,86.576 1020.86,85.556 1022.18,84.86 C1023.5,84.164 1025.36,83.816 1027.76,83.816 C1029.44,83.816 1031.18,83.972 1032.98,84.284 C1034.78,84.596 1036.568,85.052 1038.344,85.652 C1040.12,86.252 1041.8,87.032 1043.384,87.992 L1043.384,87.992 L1043.384,75.968 C1041.176,74.864 1038.704,74 1035.968,73.376 C1033.232,72.752 1030.448,72.44 1027.616,72.44 C1023.248,72.44 1019.456,73.1 1016.24,74.42 C1013.024,75.74 1010.552,77.624 1008.824,80.072 C1007.096,82.52 1006.232,85.472 1006.232,88.928 C1006.232,91.184 1006.568,93.152 1007.24,94.832 C1007.912,96.512 1008.968,97.988 1010.408,99.26 C1011.848,100.532 1013.72,101.648 1016.024,102.608 C1018.328,103.568 1021.112,104.432 1024.376,105.2 C1025.864,105.536 1027.16,105.92 1028.264,106.352 C1029.368,106.784 1030.232,107.3 1030.856,107.9 C1031.48,108.5 1031.792,109.304 1031.792,110.312 C1031.792,111.704 1031.096,112.784 1029.704,113.552 C1028.312,114.32 1026.248,114.704 1023.512,114.704 C1020.728,114.704 1017.932,114.308 1015.124,113.516 C1012.316,112.724 1009.568,111.56 1006.88,110.024 L1006.88,110.024 L1006.88,122.192 C1009.664,123.536 1012.436,124.52 1015.196,125.144 C1017.956,125.768 1020.8,126.08 1023.728,126.08 Z M114.512,205 C115.904,199.72 117.248,194.428 118.544,189.124 C119.84,183.82 121.136,178.504 122.432,173.176 C123.68,178.504 124.976,183.82 126.32,189.124 C127.664,194.428 129.032,199.72 130.424,205 L130.424,205 L144.968,205 C147.368,196.6 149.66,188.104 151.844,179.512 C154.028,170.92 156.08,162.256 158,153.52 L158,153.52 L143.24,153.52 C142.328,159.52 141.356,165.52 140.324,171.52 C139.292,177.52 138.2,183.448 137.048,189.304 C135.752,183.736 134.468,178.156 133.196,172.564 C131.924,166.972 130.688,161.344 129.488,155.68 L129.488,155.68 L116.024,155.68 C114.824,161.44 113.576,167.212 112.28,172.996 C110.984,178.78 109.64,184.576 108.248,190.384 C107.096,184.384 105.992,178.288 104.936,172.096 C103.88,165.904 102.896,159.712 101.984,153.52 L101.984,153.52 L86.936,153.52 C88.904,162.256 90.98,170.92 93.164,179.512 C95.348,188.104 97.616,196.6 99.968,205 L99.968,205 L114.512,205 Z M201.92,205 L201.92,193.768 L177.368,193.768 L177.368,184.408 L197.672,184.408 L197.672,173.176 L177.368,173.176 L177.368,164.752 L200.552,164.752 L200.552,153.52 L163.688,153.52 L163.688,205 L201.92,205 Z M245.624,205 L245.624,192.904 L222.728,192.904 L222.728,153.52 L208.688,153.52 L208.688,205 L245.624,205 Z M288.32,205 L288.32,192.904 L265.424,192.904 L265.424,153.52 L251.384,153.52 L251.384,205 L288.32,205 Z M330.584,190.024 L330.584,179.512 L307.832,179.512 L307.832,190.024 L330.584,190.024 Z M364.496,205 C365.504,201.736 366.488,198.52 367.448,195.352 L367.448,195.352 L386.24,195.352 C386.72,196.936 387.212,198.532 387.716,200.14 C388.22,201.748 388.712,203.368 389.192,205 L389.192,205 L404.384,205 C401.312,196.408 398.144,187.816 394.88,179.224 C391.616,170.632 388.256,162.064 384.8,153.52 L384.8,153.52 L369.32,153.52 C365.96,161.632 362.648,169.984 359.384,178.576 C356.12,187.168 352.904,195.976 349.736,205 L349.736,205 L364.496,205 Z M382.784,184.408 L370.904,184.408 C371.864,181.432 372.848,178.468 373.856,175.516 C374.864,172.564 375.872,169.6 376.88,166.624 C377.888,169.552 378.884,172.492 379.868,175.444 C380.852,178.396 381.824,181.384 382.784,184.408 L382.784,184.408 Z M422.888,205 L422.888,173.752 C424.472,177.4 426.092,181.048 427.748,184.696 C429.404,188.344 431.072,191.992 432.752,195.64 L432.752,195.64 L443.552,195.64 C445.184,191.992 446.804,188.332 448.412,184.66 C450.02,180.988 451.616,177.28 453.2,173.536 L453.2,173.536 L453.2,205 L466.304,205 L466.304,153.52 L449.6,153.52 C447.776,158.368 445.928,163.156 444.056,167.884 C442.184,172.612 440.288,177.28 438.368,181.888 C436.352,177.232 434.372,172.528 432.428,167.776 C430.484,163.024 428.576,158.272 426.704,153.52 L426.704,153.52 L409.784,153.52 L409.784,205 L422.888,205 Z M486.464,205 C487.472,201.736 488.456,198.52 489.416,195.352 L489.416,195.352 L508.208,195.352 C508.688,196.936 509.18,198.532 509.684,200.14 C510.188,201.748 510.68,203.368 511.16,205 L511.16,205 L526.352,205 C523.28,196.408 520.112,187.816 516.848,179.224 C513.584,170.632 510.224,162.064 506.768,153.52 L506.768,153.52 L491.288,153.52 C487.928,161.632 484.616,169.984 481.352,178.576 C478.088,187.168 474.872,195.976 471.704,205 L471.704,205 L486.464,205 Z M504.752,184.408 L492.872,184.408 C493.832,181.432 494.816,178.468 495.824,175.516 C496.832,172.564 497.84,169.6 498.848,166.624 C499.856,169.552 500.852,172.492 501.836,175.444 C502.82,178.396 503.792,181.384 504.752,184.408 L504.752,184.408 Z M572.36,205 L572.36,193.264 L547.664,193.264 C551.552,188.224 555.488,183.196 559.472,178.18 C563.456,173.164 567.44,168.208 571.424,163.312 L571.424,163.312 L571.424,153.52 L530.456,153.52 L530.456,165.256 L552.848,165.256 C548.912,170.104 544.964,175.024 541.004,180.016 C537.044,185.008 533.12,190.072 529.232,195.208 L529.232,195.208 L529.232,205 L572.36,205 Z M593.384,205 L593.384,153.52 L579.344,153.52 L579.344,205 L593.384,205 Z M616.28,205 L616.28,173.752 C619.4,178.744 622.58,183.892 625.82,189.196 C629.06,194.5 632.216,199.768 635.288,205 L635.288,205 L649.4,205 L649.4,153.52 L636.008,153.52 L636.008,184.192 C632.888,178.96 629.744,173.776 626.576,168.64 C623.408,163.504 620.216,158.464 617,153.52 L617,153.52 L602.888,153.52 L602.888,205 L616.28,205 Z M684.248,206.08 C686.552,206.08 688.868,205.936 691.196,205.648 C693.524,205.36 695.768,204.916 697.928,204.316 C700.088,203.716 702.008,203.008 703.688,202.192 L703.688,202.192 L703.688,175.336 L683.6,175.336 L683.6,185.704 L691.088,185.704 L691.088,193.408 C690.176,193.648 689.228,193.828 688.244,193.948 C687.26,194.068 686.288,194.128 685.328,194.128 C680.816,194.128 677.396,192.868 675.068,190.348 C672.74,187.828 671.576,184.12 671.576,179.224 C671.576,174.52 672.908,170.896 675.572,168.352 C678.236,165.808 682.04,164.536 686.984,164.536 C690.008,164.536 692.78,164.86 695.3,165.508 C697.82,166.156 700.16,167.08 702.32,168.28 L702.32,168.28 L702.32,155.608 C697.28,153.496 691.568,152.44 685.184,152.44 C680.96,152.44 677.12,153.076 673.664,154.348 C670.208,155.62 667.232,157.432 664.736,159.784 C662.24,162.136 660.332,164.956 659.012,168.244 C657.692,171.532 657.032,175.192 657.032,179.224 C657.032,183.4 657.656,187.144 658.904,190.456 C660.152,193.768 661.952,196.588 664.304,198.916 C666.656,201.244 669.512,203.02 672.872,204.244 C676.232,205.468 680.024,206.08 684.248,206.08 Z M723.92,187.576 L725,153.52 L711.176,153.52 L712.256,187.576 L723.92,187.576 Z M718.088,205.648 C719.624,205.648 720.944,205.324 722.048,204.676 C723.152,204.028 724.004,203.164 724.604,202.084 C725.204,201.004 725.504,199.816 725.504,198.52 C725.504,197.224 725.204,196.036 724.604,194.956 C724.004,193.876 723.152,193.024 722.048,192.4 C720.944,191.776 719.624,191.464 718.088,191.464 C716.552,191.464 715.232,191.776 714.128,192.4 C713.024,193.024 712.172,193.876 711.572,194.956 C710.972,196.036 710.672,197.224 710.672,198.52 C710.672,199.816 710.972,201.004 711.572,202.084 C712.172,203.164 713.024,204.028 714.128,204.676 C715.232,205.324 716.552,205.648 718.088,205.648 Z M763.592,205 L763.592,153.52 L749.552,153.52 L749.552,205 L763.592,205 Z M798.8,205 L798.8,165.616 L814.208,165.616 L814.208,153.52 L769.352,153.52 L769.352,165.616 L784.76,165.616 L784.76,205 L798.8,205 Z M859.784,205 C861.176,199.72 862.52,194.428 863.816,189.124 C865.112,183.82 866.408,178.504 867.704,173.176 C868.952,178.504 870.248,183.82 871.592,189.124 C872.936,194.428 874.304,199.72 875.696,205 L875.696,205 L890.24,205 C892.64,196.6 894.932,188.104 897.116,179.512 C899.3,170.92 901.352,162.256 903.272,153.52 L903.272,153.52 L888.512,153.52 C887.6,159.52 886.628,165.52 885.596,171.52 C884.564,177.52 883.472,183.448 882.32,189.304 C881.024,183.736 879.74,178.156 878.468,172.564 C877.196,166.972 875.96,161.344 874.76,155.68 L874.76,155.68 L861.296,155.68 C860.096,161.44 858.848,167.212 857.552,172.996 C856.256,178.78 854.912,184.576 853.52,190.384 C852.368,184.384 851.264,178.288 850.208,172.096 C849.152,165.904 848.168,159.712 847.256,153.52 L847.256,153.52 L832.208,153.52 C834.176,162.256 836.252,170.92 838.436,179.512 C840.62,188.104 842.888,196.6 845.24,205 L845.24,205 L859.784,205 Z M919.616,205 C920.624,201.736 921.608,198.52 922.568,195.352 L922.568,195.352 L941.36,195.352 C941.84,196.936 942.332,198.532 942.836,200.14 C943.34,201.748 943.832,203.368 944.312,205 L944.312,205 L959.504,205 C956.432,196.408 953.264,187.816 950,179.224 C946.736,170.632 943.376,162.064 939.92,153.52 L939.92,153.52 L924.44,153.52 C921.08,161.632 917.768,169.984 914.504,178.576 C911.24,187.168 908.024,195.976 904.856,205 L904.856,205 L919.616,205 Z M937.904,184.408 L926.024,184.408 C926.984,181.432 927.968,178.468 928.976,175.516 C929.984,172.564 930.992,169.6 932,166.624 C933.008,169.552 934.004,172.492 934.988,175.444 C935.972,178.396 936.944,181.384 937.904,184.408 L937.904,184.408 Z M980.456,206.08 C985.16,206.08 989.156,205.432 992.444,204.136 C995.732,202.84 998.252,200.944 1000.004,198.448 C1001.756,195.952 1002.632,192.928 1002.632,189.376 C1002.632,186.688 1002.2,184.444 1001.336,182.644 C1000.472,180.844 999.248,179.356 997.664,178.18 C996.08,177.004 994.208,176.008 992.048,175.192 C989.888,174.376 987.488,173.656 984.848,173.032 C982.304,172.408 980.348,171.748 978.98,171.052 C977.612,170.356 976.928,169.312 976.928,167.92 C976.928,166.576 977.588,165.556 978.908,164.86 C980.228,164.164 982.088,163.816 984.488,163.816 C986.168,163.816 987.908,163.972 989.708,164.284 C991.508,164.596 993.296,165.052 995.072,165.652 C996.848,166.252 998.528,167.032 1000.112,167.992 L1000.112,167.992 L1000.112,155.968 C997.904,154.864 995.432,154 992.696,153.376 C989.96,152.752 987.176,152.44 984.344,152.44 C979.976,152.44 976.184,153.1 972.968,154.42 C969.752,155.74 967.28,157.624 965.552,160.072 C963.824,162.52 962.96,165.472 962.96,168.928 C962.96,171.184 963.296,173.152 963.968,174.832 C964.64,176.512 965.696,177.988 967.136,179.26 C968.576,180.532 970.448,181.648 972.752,182.608 C975.056,183.568 977.84,184.432 981.104,185.2 C982.592,185.536 983.888,185.92 984.992,186.352 C986.096,186.784 986.96,187.3 987.584,187.9 C988.208,188.5 988.52,189.304 988.52,190.312 C988.52,191.704 987.824,192.784 986.432,193.552 C985.04,194.32 982.976,194.704 980.24,194.704 C977.456,194.704 974.66,194.308 971.852,193.516 C969.044,192.724 966.296,191.56 963.608,190.024 L963.608,190.024 L963.608,202.192 C966.392,203.536 969.164,204.52 971.924,205.144 C974.684,205.768 977.528,206.08 980.456,206.08 Z M106.304,286.08 C111.008,286.08 115.004,285.432 118.292,284.136 C121.58,282.84 124.1,280.944 125.852,278.448 C127.604,275.952 128.48,272.928 128.48,269.376 C128.48,266.688 128.048,264.444 127.184,262.644 C126.32,260.844 125.096,259.356 123.512,258.18 C121.928,257.004 120.056,256.008 117.896,255.192 C115.736,254.376 113.336,253.656 110.696,253.032 C108.152,252.408 106.196,251.748 104.828,251.052 C103.46,250.356 102.776,249.312 102.776,247.92 C102.776,246.576 103.436,245.556 104.756,244.86 C106.076,244.164 107.936,243.816 110.336,243.816 C112.016,243.816 113.756,243.972 115.556,244.284 C117.356,244.596 119.144,245.052 120.92,245.652 C122.696,246.252 124.376,247.032 125.96,247.992 L125.96,247.992 L125.96,235.968 C123.752,234.864 121.28,234 118.544,233.376 C115.808,232.752 113.024,232.44 110.192,232.44 C105.824,232.44 102.032,233.1 98.816,234.42 C95.6,235.74 93.128,237.624 91.4,240.072 C89.672,242.52 88.808,245.472 88.808,248.928 C88.808,251.184 89.144,253.152 89.816,254.832 C90.488,256.512 91.544,257.988 92.984,259.26 C94.424,260.532 96.296,261.648 98.6,262.608 C100.904,263.568 103.688,264.432 106.952,265.2 C108.44,265.536 109.736,265.92 110.84,266.352 C111.944,266.784 112.808,267.3 113.432,267.9 C114.056,268.5 114.368,269.304 114.368,270.312 C114.368,271.704 113.672,272.784 112.28,273.552 C110.888,274.32 108.824,274.704 106.088,274.704 C103.304,274.704 100.508,274.308 97.7,273.516 C94.892,272.724 92.144,271.56 89.456,270.024 L89.456,270.024 L89.456,282.192 C92.24,283.536 95.012,284.52 97.772,285.144 C100.532,285.768 103.376,286.08 106.304,286.08 Z M160.088,286.08 C164.072,286.08 167.672,285.456 170.888,284.208 C174.104,282.96 176.852,281.16 179.132,278.808 C181.412,276.456 183.164,273.624 184.388,270.312 C185.612,267 186.224,263.304 186.224,259.224 C186.224,255.096 185.612,251.388 184.388,248.1 C183.164,244.812 181.412,242.004 179.132,239.676 C176.852,237.348 174.104,235.56 170.888,234.312 C167.672,233.064 164.072,232.44 160.088,232.44 C156.104,232.44 152.504,233.064 149.288,234.312 C146.072,235.56 143.324,237.348 141.044,239.676 C138.764,242.004 137.012,244.812 135.788,248.1 C134.564,251.388 133.952,255.096 133.952,259.224 C133.952,263.304 134.564,267 135.788,270.312 C137.012,273.624 138.764,276.456 141.044,278.808 C143.324,281.16 146.072,282.96 149.288,284.208 C152.504,285.456 156.104,286.08 160.088,286.08 Z M160.088,273.984 C156.344,273.984 153.476,272.712 151.484,270.168 C149.492,267.624 148.496,263.976 148.496,259.224 C148.496,254.52 149.492,250.896 151.484,248.352 C153.476,245.808 156.344,244.536 160.088,244.536 C163.832,244.536 166.7,245.808 168.692,248.352 C170.684,250.896 171.68,254.52 171.68,259.224 C171.68,263.976 170.684,267.624 168.692,270.168 C166.7,272.712 163.832,273.984 160.088,273.984 Z M223.736,285 L223.736,266.424 L242.96,266.424 L242.96,254.688 L223.736,254.688 L223.736,245.256 L245.696,245.256 L245.696,233.52 L209.912,233.52 L209.912,285 L223.736,285 Z M274.856,286.08 C279.608,286.08 283.676,285.168 287.06,283.344 C290.444,281.52 293.036,278.892 294.836,275.46 C296.636,272.028 297.536,267.936 297.536,263.184 L297.536,263.184 L297.536,233.52 L283.712,233.52 L283.712,264.768 C283.712,267.696 282.944,269.964 281.408,271.572 C279.872,273.18 277.688,273.984 274.856,273.984 C272.072,273.984 269.9,273.18 268.34,271.572 C266.78,269.964 266,267.696 266,264.768 L266,264.768 L266,233.52 L251.96,233.52 L251.96,263.184 C251.96,267.936 252.872,272.028 254.696,275.46 C256.52,278.892 259.148,281.52 262.58,283.344 C266.012,285.168 270.104,286.08 274.856,286.08 Z M320.216,285 L320.216,253.752 C323.336,258.744 326.516,263.892 329.756,269.196 C332.996,274.5 336.152,279.768 339.224,285 L339.224,285 L353.336,285 L353.336,233.52 L339.944,233.52 L339.944,264.192 C336.824,258.96 333.68,253.776 330.512,248.64 C327.344,243.504 324.152,238.464 320.936,233.52 L320.936,233.52 L306.824,233.52 L306.824,285 L320.216,285 Z M374.576,267.576 L375.656,233.52 L361.832,233.52 L362.912,267.576 L374.576,267.576 Z M368.744,285.648 C370.28,285.648 371.6,285.324 372.704,284.676 C373.808,284.028 374.66,283.164 375.26,282.084 C375.86,281.004 376.16,279.816 376.16,278.52 C376.16,277.224 375.86,276.036 375.26,274.956 C374.66,273.876 373.808,273.024 372.704,272.4 C371.6,271.776 370.28,271.464 368.744,271.464 C367.208,271.464 365.888,271.776 364.784,272.4 C363.68,273.024 362.828,273.876 362.228,274.956 C361.628,276.036 361.328,277.224 361.328,278.52 C361.328,279.816 361.628,281.004 362.228,282.084 C362.828,283.164 363.68,284.028 364.784,284.676 C365.888,285.324 367.208,285.648 368.744,285.648 Z" id="IWASPLAYINGALONGASWELL-AMAZING!ITWASSOFUN!" fill="#FFFFFF" fill-rule="nonzero"></path>
        <path d="M89.928,606 L89.928,591.312 L97.32,591.312 C98.056,591.312 98.76,591.28 99.432,591.216 C101.096,593.68 102.696,596.128 104.232,598.56 C105.768,600.992 107.272,603.472 108.744,606 L108.744,606 L112.248,606 C110.68,603.344 109.088,600.76 107.472,598.248 C105.856,595.736 104.2,593.232 102.504,590.736 C105.032,590.128 106.976,589.032 108.336,587.448 C109.696,585.864 110.376,583.888 110.376,581.52 C110.376,578.32 109.256,575.88 107.016,574.2 C104.776,572.52 101.56,571.68 97.368,571.68 L97.368,571.68 L87,571.68 L87,606 L89.928,606 Z M97.032,588.768 L89.928,588.768 L89.928,574.224 L97.08,574.224 C103.896,574.224 107.304,576.656 107.304,581.52 C107.304,583.952 106.464,585.768 104.784,586.968 C103.104,588.168 100.52,588.768 97.032,588.768 L97.032,588.768 Z M120.072,606 L120.072,587.328 C121.128,586.048 122.32,585.072 123.648,584.4 C124.976,583.728 126.424,583.392 127.992,583.392 C129.976,583.392 131.504,584 132.576,585.216 C133.648,586.432 134.184,588.176 134.184,590.448 L134.184,590.448 L134.184,606 L137.016,606 L137.016,590.208 C137.016,588.288 136.672,586.64 135.984,585.264 C135.296,583.888 134.304,582.832 133.008,582.096 C131.712,581.36 130.168,580.992 128.376,580.992 C125.016,580.992 122.248,582.256 120.072,584.784 L120.072,584.784 L120.072,570.24 L117.24,570.24 L117.24,606 L120.072,606 Z M146.664,575.472 C147.304,575.472 147.816,575.28 148.2,574.896 C148.584,574.512 148.776,574.016 148.776,573.408 C148.776,572.8 148.584,572.312 148.2,571.944 C147.816,571.576 147.304,571.392 146.664,571.392 C146.056,571.392 145.56,571.576 145.176,571.944 C144.792,572.312 144.6,572.8 144.6,573.408 C144.6,574.016 144.792,574.512 145.176,574.896 C145.56,575.28 146.056,575.472 146.664,575.472 Z M148.104,606 L148.104,581.616 L145.272,581.616 L145.272,606 L148.104,606 Z M162.552,606.624 C164.216,606.624 165.728,606.32 167.088,605.712 C168.448,605.104 169.656,604.208 170.712,603.024 C170.872,605.328 172.152,606.48 174.552,606.48 C175.576,606.48 176.408,606.304 177.048,605.952 L177.048,605.952 L177.048,603.792 C176.472,604.08 175.848,604.224 175.176,604.224 C174.568,604.224 174.128,604.056 173.856,603.72 C173.584,603.384 173.448,602.864 173.448,602.16 L173.448,602.16 L173.448,589.248 C173.448,587.52 173.088,586.04 172.368,584.808 C171.648,583.576 170.624,582.632 169.296,581.976 C167.968,581.32 166.376,580.992 164.52,580.992 C161.64,580.992 158.904,581.728 156.312,583.2 L156.312,583.2 L156.312,585.888 C157.624,585.024 158.928,584.392 160.224,583.992 C161.52,583.592 162.904,583.392 164.376,583.392 C166.392,583.392 167.936,583.92 169.008,584.976 C170.08,586.032 170.616,587.552 170.616,589.536 L170.616,589.536 L170.616,592.752 C169.848,592.656 168.984,592.576 168.024,592.512 C167.064,592.448 166.184,592.416 165.384,592.416 C161.896,592.416 159.224,593.056 157.368,594.336 C155.512,595.616 154.584,597.44 154.584,599.808 C154.584,601.952 155.288,603.624 156.696,604.824 C158.104,606.024 160.056,606.624 162.552,606.624 Z M162.84,604.32 C159.256,604.32 157.464,602.8 157.464,599.76 C157.464,597.968 158.12,596.664 159.432,595.848 C160.744,595.032 162.792,594.624 165.576,594.624 C166.408,594.624 167.264,594.656 168.144,594.72 C169.024,594.784 169.848,594.864 170.616,594.96 L170.616,594.96 L170.616,600.576 C168.536,603.072 165.944,604.32 162.84,604.32 Z M184.776,606 L184.776,587.328 C185.832,586.048 187.024,585.072 188.352,584.4 C189.68,583.728 191.128,583.392 192.696,583.392 C194.68,583.392 196.208,584 197.28,585.216 C198.352,586.432 198.888,588.176 198.888,590.448 L198.888,590.448 L198.888,606 L201.72,606 L201.72,590.208 C201.72,588.288 201.376,586.64 200.688,585.264 C200,583.888 199.008,582.832 197.712,582.096 C196.416,581.36 194.872,580.992 193.08,580.992 C191.384,580.992 189.824,581.32 188.4,581.976 C186.976,582.632 185.704,583.616 184.584,584.928 L184.584,584.928 L184.296,581.616 L181.944,581.616 L181.944,606 L184.776,606 Z M212.808,606 L212.808,587.328 C213.864,586.048 215.056,585.072 216.384,584.4 C217.712,583.728 219.16,583.392 220.728,583.392 C222.712,583.392 224.24,584 225.312,585.216 C226.384,586.432 226.92,588.176 226.92,590.448 L226.92,590.448 L226.92,606 L229.752,606 L229.752,590.208 C229.752,588.288 229.408,586.64 228.72,585.264 C228.032,583.888 227.04,582.832 225.744,582.096 C224.448,581.36 222.904,580.992 221.112,580.992 C219.416,580.992 217.856,581.32 216.432,581.976 C215.008,582.632 213.736,583.616 212.616,584.928 L212.616,584.928 L212.328,581.616 L209.976,581.616 L209.976,606 L212.808,606 Z M244.008,606.624 C245.672,606.624 247.184,606.32 248.544,605.712 C249.904,605.104 251.112,604.208 252.168,603.024 C252.328,605.328 253.608,606.48 256.008,606.48 C257.032,606.48 257.864,606.304 258.504,605.952 L258.504,605.952 L258.504,603.792 C257.928,604.08 257.304,604.224 256.632,604.224 C256.024,604.224 255.584,604.056 255.312,603.72 C255.04,603.384 254.904,602.864 254.904,602.16 L254.904,602.16 L254.904,589.248 C254.904,587.52 254.544,586.04 253.824,584.808 C253.104,583.576 252.08,582.632 250.752,581.976 C249.424,581.32 247.832,580.992 245.976,580.992 C243.096,580.992 240.36,581.728 237.768,583.2 L237.768,583.2 L237.768,585.888 C239.08,585.024 240.384,584.392 241.68,583.992 C242.976,583.592 244.36,583.392 245.832,583.392 C247.848,583.392 249.392,583.92 250.464,584.976 C251.536,586.032 252.072,587.552 252.072,589.536 L252.072,589.536 L252.072,592.752 C251.304,592.656 250.44,592.576 249.48,592.512 C248.52,592.448 247.64,592.416 246.84,592.416 C243.352,592.416 240.68,593.056 238.824,594.336 C236.968,595.616 236.04,597.44 236.04,599.808 C236.04,601.952 236.744,603.624 238.152,604.824 C239.56,606.024 241.512,606.624 244.008,606.624 Z M244.296,604.32 C240.712,604.32 238.92,602.8 238.92,599.76 C238.92,597.968 239.576,596.664 240.888,595.848 C242.2,595.032 244.248,594.624 247.032,594.624 C247.864,594.624 248.72,594.656 249.6,594.72 C250.48,594.784 251.304,594.864 252.072,594.96 L252.072,594.96 L252.072,600.576 C249.992,603.072 247.4,604.32 244.296,604.32 Z" id="–Rhianna" fill="#FFFFFF" fill-rule="nonzero"></path>
    </g>
</svg>