<?xml version="1.0" encoding="UTF-8"?>
<svg width="1200px" height="675px" viewBox="0 0 1200 675" version="1.1" xmlns="http://www.w3.org/2000/svg" xmlns:xlink="http://www.w3.org/1999/xlink">
    <!-- Generator: Sketch 61.2 (89653) - https://sketch.com -->
    <title>Sarah</title>
    <desc>Created with Sketch.</desc>
    <g id="Sarah" stroke="none" stroke-width="1" fill="none" fill-rule="evenodd">
        <path d="M114.512,125 C115.904,119.72 117.248,114.428 118.544,109.124 C119.84,103.82 121.136,98.504 122.432,93.176 C123.68,98.504 124.976,103.82 126.32,109.124 C127.664,114.428 129.032,119.72 130.424,125 L130.424,125 L144.968,125 C147.368,116.6 149.66,108.104 151.844,99.512 C154.028,90.92 156.08,82.256 158,73.52 L158,73.52 L143.24,73.52 C142.328,79.52 141.356,85.52 140.324,91.52 C139.292,97.52 138.2,103.448 137.048,109.304 C135.752,103.736 134.468,98.156 133.196,92.564 C131.924,86.972 130.688,81.344 129.488,75.68 L129.488,75.68 L116.024,75.68 C114.824,81.44 113.576,87.212 112.28,92.996 C110.984,98.78 109.64,104.576 108.248,110.384 C107.096,104.384 105.992,98.288 104.936,92.096 C103.88,85.904 102.896,79.712 101.984,73.52 L101.984,73.52 L86.936,73.52 C88.904,82.256 90.98,90.92 93.164,99.512 C95.348,108.104 97.616,116.6 99.968,125 L99.968,125 L114.512,125 Z M177.728,125 L177.728,104.192 L196.016,104.192 L196.016,125 L210.056,125 L210.056,73.52 L196.016,73.52 L196.016,92.096 L177.728,92.096 L177.728,73.52 L163.688,73.52 L163.688,125 L177.728,125 Z M230.216,125 C231.224,121.736 232.208,118.52 233.168,115.352 L233.168,115.352 L251.96,115.352 C252.44,116.936 252.932,118.532 253.436,120.14 C253.94,121.748 254.432,123.368 254.912,125 L254.912,125 L270.104,125 C267.032,116.408 263.864,107.816 260.6,99.224 C257.336,90.632 253.976,82.064 250.52,73.52 L250.52,73.52 L235.04,73.52 C231.68,81.632 228.368,89.984 225.104,98.576 C221.84,107.168 218.624,115.976 215.456,125 L215.456,125 L230.216,125 Z M248.504,104.408 L236.624,104.408 C237.584,101.432 238.568,98.468 239.576,95.516 C240.584,92.564 241.592,89.6 242.6,86.624 C243.608,89.552 244.604,92.492 245.588,95.444 C246.572,98.396 247.544,101.384 248.504,104.408 L248.504,104.408 Z M301.208,125 L301.208,85.616 L316.616,85.616 L316.616,73.52 L271.76,73.52 L271.76,85.616 L287.168,85.616 L287.168,125 L301.208,125 Z M328.496,95.048 C329.792,93.752 330.908,92.324 331.844,90.764 C332.78,89.204 333.512,87.572 334.04,85.868 C334.568,84.164 334.832,82.544 334.832,81.008 C334.832,78.416 334.256,76.436 333.104,75.068 C331.952,73.7 330.2,73.016 327.848,73.016 C325.832,73.016 324.236,73.604 323.06,74.78 C321.884,75.956 321.296,77.504 321.296,79.424 C321.296,80.912 321.68,82.16 322.448,83.168 C323.216,84.176 324.272,84.872 325.616,85.256 C324.704,88.52 322.664,91.784 319.496,95.048 L319.496,95.048 L328.496,95.048 Z M358.808,126.08 C363.512,126.08 367.508,125.432 370.796,124.136 C374.084,122.84 376.604,120.944 378.356,118.448 C380.108,115.952 380.984,112.928 380.984,109.376 C380.984,106.688 380.552,104.444 379.688,102.644 C378.824,100.844 377.6,99.356 376.016,98.18 C374.432,97.004 372.56,96.008 370.4,95.192 C368.24,94.376 365.84,93.656 363.2,93.032 C360.656,92.408 358.7,91.748 357.332,91.052 C355.964,90.356 355.28,89.312 355.28,87.92 C355.28,86.576 355.94,85.556 357.26,84.86 C358.58,84.164 360.44,83.816 362.84,83.816 C364.52,83.816 366.26,83.972 368.06,84.284 C369.86,84.596 371.648,85.052 373.424,85.652 C375.2,86.252 376.88,87.032 378.464,87.992 L378.464,87.992 L378.464,75.968 C376.256,74.864 373.784,74 371.048,73.376 C368.312,72.752 365.528,72.44 362.696,72.44 C358.328,72.44 354.536,73.1 351.32,74.42 C348.104,75.74 345.632,77.624 343.904,80.072 C342.176,82.52 341.312,85.472 341.312,88.928 C341.312,91.184 341.648,93.152 342.32,94.832 C342.992,96.512 344.048,97.988 345.488,99.26 C346.928,100.532 348.8,101.648 351.104,102.608 C353.408,103.568 356.192,104.432 359.456,105.2 C360.944,105.536 362.24,105.92 363.344,106.352 C364.448,106.784 365.312,107.3 365.936,107.9 C366.56,108.5 366.872,109.304 366.872,110.312 C366.872,111.704 366.176,112.784 364.784,113.552 C363.392,114.32 361.328,114.704 358.592,114.704 C355.808,114.704 353.012,114.308 350.204,113.516 C347.396,112.724 344.648,111.56 341.96,110.024 L341.96,110.024 L341.96,122.192 C344.744,123.536 347.516,124.52 350.276,125.144 C353.036,125.768 355.88,126.08 358.808,126.08 Z M417.488,125 L417.488,93.752 C419.072,97.4 420.692,101.048 422.348,104.696 C424.004,108.344 425.672,111.992 427.352,115.64 L427.352,115.64 L438.152,115.64 C439.784,111.992 441.404,108.332 443.012,104.66 C444.62,100.988 446.216,97.28 447.8,93.536 L447.8,93.536 L447.8,125 L460.904,125 L460.904,73.52 L444.2,73.52 C442.376,78.368 440.528,83.156 438.656,87.884 C436.784,92.612 434.888,97.28 432.968,101.888 C430.952,97.232 428.972,92.528 427.028,87.776 C425.084,83.024 423.176,78.272 421.304,73.52 L421.304,73.52 L404.384,73.52 L404.384,125 L417.488,125 Z M499.712,125 L499.712,105.92 C503.024,100.544 506.288,95.156 509.504,89.756 C512.72,84.356 515.864,78.944 518.936,73.52 L518.936,73.52 L503.528,73.52 C501.848,76.928 500.12,80.348 498.344,83.78 C496.568,87.212 494.792,90.632 493.016,94.04 C491.192,90.632 489.404,87.224 487.652,83.816 C485.9,80.408 484.16,76.976 482.432,73.52 L482.432,73.52 L466.52,73.52 C469.544,78.944 472.664,84.356 475.88,89.756 C479.096,95.156 482.36,100.544 485.672,105.92 L485.672,105.92 L485.672,125 L499.712,125 Z M551.264,125 C552.272,121.736 553.256,118.52 554.216,115.352 L554.216,115.352 L573.008,115.352 C573.488,116.936 573.98,118.532 574.484,120.14 C574.988,121.748 575.48,123.368 575.96,125 L575.96,125 L591.152,125 C588.08,116.408 584.912,107.816 581.648,99.224 C578.384,90.632 575.024,82.064 571.568,73.52 L571.568,73.52 L556.088,73.52 C552.728,81.632 549.416,89.984 546.152,98.576 C542.888,107.168 539.672,115.976 536.504,125 L536.504,125 L551.264,125 Z M569.552,104.408 L557.672,104.408 C558.632,101.432 559.616,98.468 560.624,95.516 C561.632,92.564 562.64,89.6 563.648,86.624 C564.656,89.552 565.652,92.492 566.636,95.444 C567.62,98.396 568.592,101.384 569.552,104.408 L569.552,104.408 Z M621.896,126.08 C624.2,126.08 626.516,125.936 628.844,125.648 C631.172,125.36 633.416,124.916 635.576,124.316 C637.736,123.716 639.656,123.008 641.336,122.192 L641.336,122.192 L641.336,95.336 L621.248,95.336 L621.248,105.704 L628.736,105.704 L628.736,113.408 C627.824,113.648 626.876,113.828 625.892,113.948 C624.908,114.068 623.936,114.128 622.976,114.128 C618.464,114.128 615.044,112.868 612.716,110.348 C610.388,107.828 609.224,104.12 609.224,99.224 C609.224,94.52 610.556,90.896 613.22,88.352 C615.884,85.808 619.688,84.536 624.632,84.536 C627.656,84.536 630.428,84.86 632.948,85.508 C635.468,86.156 637.808,87.08 639.968,88.28 L639.968,88.28 L639.968,75.608 C634.928,73.496 629.216,72.44 622.832,72.44 C618.608,72.44 614.768,73.076 611.312,74.348 C607.856,75.62 604.88,77.432 602.384,79.784 C599.888,82.136 597.98,84.956 596.66,88.244 C595.34,91.532 594.68,95.192 594.68,99.224 C594.68,103.4 595.304,107.144 596.552,110.456 C597.8,113.768 599.6,116.588 601.952,118.916 C604.304,121.244 607.16,123.02 610.52,124.244 C613.88,125.468 617.672,126.08 621.896,126.08 Z M688.064,125 L688.064,113.768 L663.512,113.768 L663.512,104.408 L683.816,104.408 L683.816,93.176 L663.512,93.176 L663.512,84.752 L686.696,84.752 L686.696,73.52 L649.832,73.52 L649.832,125 L688.064,125 Z M721.544,125 C722.552,121.736 723.536,118.52 724.496,115.352 L724.496,115.352 L743.288,115.352 C743.768,116.936 744.26,118.532 744.764,120.14 C745.268,121.748 745.76,123.368 746.24,125 L746.24,125 L761.432,125 C758.36,116.408 755.192,107.816 751.928,99.224 C748.664,90.632 745.304,82.064 741.848,73.52 L741.848,73.52 L726.368,73.52 C723.008,81.632 719.696,89.984 716.432,98.576 C713.168,107.168 709.952,115.976 706.784,125 L706.784,125 L721.544,125 Z M739.832,104.408 L727.952,104.408 C728.912,101.432 729.896,98.468 730.904,95.516 C731.912,92.564 732.92,89.6 733.928,86.624 C734.936,89.552 735.932,92.492 736.916,95.444 C737.9,98.396 738.872,101.384 739.832,104.408 L739.832,104.408 Z M792.176,126.08 C794.48,126.08 796.796,125.936 799.124,125.648 C801.452,125.36 803.696,124.916 805.856,124.316 C808.016,123.716 809.936,123.008 811.616,122.192 L811.616,122.192 L811.616,95.336 L791.528,95.336 L791.528,105.704 L799.016,105.704 L799.016,113.408 C798.104,113.648 797.156,113.828 796.172,113.948 C795.188,114.068 794.216,114.128 793.256,114.128 C788.744,114.128 785.324,112.868 782.996,110.348 C780.668,107.828 779.504,104.12 779.504,99.224 C779.504,94.52 780.836,90.896 783.5,88.352 C786.164,85.808 789.968,84.536 794.912,84.536 C797.936,84.536 800.708,84.86 803.228,85.508 C805.748,86.156 808.088,87.08 810.248,88.28 L810.248,88.28 L810.248,75.608 C805.208,73.496 799.496,72.44 793.112,72.44 C788.888,72.44 785.048,73.076 781.592,74.348 C778.136,75.62 775.16,77.432 772.664,79.784 C770.168,82.136 768.26,84.956 766.94,88.244 C765.62,91.532 764.96,95.192 764.96,99.224 C764.96,103.4 765.584,107.144 766.832,110.456 C768.08,113.768 769.88,116.588 772.232,118.916 C774.584,121.244 777.44,123.02 780.8,124.244 C784.16,125.468 787.952,126.08 792.176,126.08 Z M830.768,125 C831.776,121.736 832.76,118.52 833.72,115.352 L833.72,115.352 L852.512,115.352 C852.992,116.936 853.484,118.532 853.988,120.14 C854.492,121.748 854.984,123.368 855.464,125 L855.464,125 L870.656,125 C867.584,116.408 864.416,107.816 861.152,99.224 C857.888,90.632 854.528,82.064 851.072,73.52 L851.072,73.52 L835.592,73.52 C832.232,81.632 828.92,89.984 825.656,98.576 C822.392,107.168 819.176,115.976 816.008,125 L816.008,125 L830.768,125 Z M849.056,104.408 L837.176,104.408 C838.136,101.432 839.12,98.468 840.128,95.516 C841.136,92.564 842.144,89.6 843.152,86.624 C844.16,89.552 845.156,92.492 846.14,95.444 C847.124,98.396 848.096,101.384 849.056,104.408 L849.056,104.408 Z M890.096,125 L890.096,73.52 L876.056,73.52 L876.056,125 L890.096,125 Z M912.992,125 L912.992,93.752 C916.112,98.744 919.292,103.892 922.532,109.196 C925.772,114.5 928.928,119.768 932,125 L932,125 L946.112,125 L946.112,73.52 L932.72,73.52 L932.72,104.192 C929.6,98.96 926.456,93.776 923.288,88.64 C920.12,83.504 916.928,78.464 913.712,73.52 L913.712,73.52 L899.6,73.52 L899.6,125 L912.992,125 Z M114.512,205 C115.904,199.72 117.248,194.428 118.544,189.124 C119.84,183.82 121.136,178.504 122.432,173.176 C123.68,178.504 124.976,183.82 126.32,189.124 C127.664,194.428 129.032,199.72 130.424,205 L130.424,205 L144.968,205 C147.368,196.6 149.66,188.104 151.844,179.512 C154.028,170.92 156.08,162.256 158,153.52 L158,153.52 L143.24,153.52 C142.328,159.52 141.356,165.52 140.324,171.52 C139.292,177.52 138.2,183.448 137.048,189.304 C135.752,183.736 134.468,178.156 133.196,172.564 C131.924,166.972 130.688,161.344 129.488,155.68 L129.488,155.68 L116.024,155.68 C114.824,161.44 113.576,167.212 112.28,172.996 C110.984,178.78 109.64,184.576 108.248,190.384 C107.096,184.384 105.992,178.288 104.936,172.096 C103.88,165.904 102.896,159.712 101.984,153.52 L101.984,153.52 L86.936,153.52 C88.904,162.256 90.98,170.92 93.164,179.512 C95.348,188.104 97.616,196.6 99.968,205 L99.968,205 L114.512,205 Z M177.728,205 L177.728,153.52 L163.688,153.52 L163.688,205 L177.728,205 Z M212.936,205 L212.936,165.616 L228.344,165.616 L228.344,153.52 L183.488,153.52 L183.488,165.616 L198.896,165.616 L198.896,205 L212.936,205 Z M248.144,205 L248.144,184.192 L266.432,184.192 L266.432,205 L280.472,205 L280.472,153.52 L266.432,153.52 L266.432,172.096 L248.144,172.096 L248.144,153.52 L234.104,153.52 L234.104,205 L248.144,205 Z M316.688,205 C317.696,201.736 318.68,198.52 319.64,195.352 L319.64,195.352 L338.432,195.352 C338.912,196.936 339.404,198.532 339.908,200.14 C340.412,201.748 340.904,203.368 341.384,205 L341.384,205 L356.576,205 C353.504,196.408 350.336,187.816 347.072,179.224 C343.808,170.632 340.448,162.064 336.992,153.52 L336.992,153.52 L321.512,153.52 C318.152,161.632 314.84,169.984 311.576,178.576 C308.312,187.168 305.096,195.976 301.928,205 L301.928,205 L316.688,205 Z M334.976,184.408 L323.096,184.408 C324.056,181.432 325.04,178.468 326.048,175.516 C327.056,172.564 328.064,169.6 329.072,166.624 C330.08,169.552 331.076,172.492 332.06,175.444 C333.044,178.396 334.016,181.384 334.976,184.408 L334.976,184.408 Z M387.104,206.08 C390.224,206.08 393.14,205.768 395.852,205.144 C398.564,204.52 401,203.656 403.16,202.552 L403.16,202.552 L403.16,190.096 C400.904,191.44 398.66,192.424 396.428,193.048 C394.196,193.672 391.832,193.984 389.336,193.984 C384.68,193.984 381.068,192.7 378.5,190.132 C375.932,187.564 374.648,183.928 374.648,179.224 C374.648,174.52 375.98,170.896 378.644,168.352 C381.308,165.808 385.04,164.536 389.84,164.536 C392.192,164.536 394.436,164.848 396.572,165.472 C398.708,166.096 400.712,167.032 402.584,168.28 L402.584,168.28 L402.584,155.608 C398.264,153.496 393.296,152.44 387.68,152.44 C383.504,152.44 379.724,153.076 376.34,154.348 C372.956,155.62 370.052,157.432 367.628,159.784 C365.204,162.136 363.344,164.956 362.048,168.244 C360.752,171.532 360.104,175.192 360.104,179.224 C360.104,183.4 360.716,187.156 361.94,190.492 C363.164,193.828 364.94,196.648 367.268,198.952 C369.596,201.256 372.428,203.02 375.764,204.244 C379.1,205.468 382.88,206.08 387.104,206.08 Z M435.704,205 L435.704,165.616 L451.112,165.616 L451.112,153.52 L406.256,153.52 L406.256,165.616 L421.664,165.616 L421.664,205 L435.704,205 Z M479.552,206.08 C484.304,206.08 488.372,205.168 491.756,203.344 C495.14,201.52 497.732,198.892 499.532,195.46 C501.332,192.028 502.232,187.936 502.232,183.184 L502.232,183.184 L502.232,153.52 L488.408,153.52 L488.408,184.768 C488.408,187.696 487.64,189.964 486.104,191.572 C484.568,193.18 482.384,193.984 479.552,193.984 C476.768,193.984 474.596,193.18 473.036,191.572 C471.476,189.964 470.696,187.696 470.696,184.768 L470.696,184.768 L470.696,153.52 L456.656,153.52 L456.656,183.184 C456.656,187.936 457.568,192.028 459.392,195.46 C461.216,198.892 463.844,201.52 467.276,203.344 C470.708,205.168 474.8,206.08 479.552,206.08 Z M522.176,205 C523.184,201.736 524.168,198.52 525.128,195.352 L525.128,195.352 L543.92,195.352 C544.4,196.936 544.892,198.532 545.396,200.14 C545.9,201.748 546.392,203.368 546.872,205 L546.872,205 L562.064,205 C558.992,196.408 555.824,187.816 552.56,179.224 C549.296,170.632 545.936,162.064 542.48,153.52 L542.48,153.52 L527,153.52 C523.64,161.632 520.328,169.984 517.064,178.576 C513.8,187.168 510.584,195.976 507.416,205 L507.416,205 L522.176,205 Z M540.464,184.408 L528.584,184.408 C529.544,181.432 530.528,178.468 531.536,175.516 C532.544,172.564 533.552,169.6 534.56,166.624 C535.568,169.552 536.564,172.492 537.548,175.444 C538.532,178.396 539.504,181.384 540.464,184.408 L540.464,184.408 Z M604.4,205 L604.4,192.904 L581.504,192.904 L581.504,153.52 L567.464,153.52 L567.464,205 L604.4,205 Z M648.536,205 C652.856,205 656.564,204.4 659.66,203.2 C662.756,202 665.132,200.272 666.788,198.016 C668.444,195.76 669.272,193.072 669.272,189.952 C669.272,186.928 668.504,184.348 666.968,182.212 C665.432,180.076 663.224,178.48 660.344,177.424 C664.424,175.168 666.464,171.736 666.464,167.128 C666.464,162.712 664.808,159.34 661.496,157.012 C658.184,154.684 653.456,153.52 647.312,153.52 L647.312,153.52 L626.216,153.52 L626.216,205 L648.536,205 Z M645.944,173.968 L639.608,173.968 L639.608,163.888 L645.944,163.888 C650.552,163.888 652.856,165.496 652.856,168.712 C652.856,170.344 652.268,171.628 651.092,172.564 C649.916,173.5 648.2,173.968 645.944,173.968 L645.944,173.968 Z M647.24,194.632 L639.608,194.632 L639.608,183.904 L647.312,183.904 C652.784,183.904 655.52,185.728 655.52,189.376 C655.52,191.056 654.812,192.352 653.396,193.264 C651.98,194.176 649.928,194.632 647.24,194.632 L647.24,194.632 Z M713.48,205 L713.48,192.904 L690.584,192.904 L690.584,153.52 L676.544,153.52 L676.544,205 L713.48,205 Z M733.28,205 L733.28,153.52 L719.24,153.52 L719.24,205 L733.28,205 Z M756.176,205 L756.176,173.752 C759.296,178.744 762.476,183.892 765.716,189.196 C768.956,194.5 772.112,199.768 775.184,205 L775.184,205 L789.296,205 L789.296,153.52 L775.904,153.52 L775.904,184.192 C772.784,178.96 769.64,173.776 766.472,168.64 C763.304,163.504 760.112,158.464 756.896,153.52 L756.896,153.52 L742.784,153.52 L742.784,205 L756.176,205 Z M812.84,205 L812.84,183.76 L815.36,183.76 C818.048,187.36 820.652,190.912 823.172,194.416 C825.692,197.92 828.2,201.448 830.696,205 L830.696,205 L848.264,205 C844.712,200.296 841.196,195.676 837.716,191.14 C834.236,186.604 830.72,182.128 827.168,177.712 C830.48,173.68 833.72,169.648 836.888,165.616 C840.056,161.584 843.176,157.552 846.248,153.52 L846.248,153.52 L829.688,153.52 C827.48,156.64 825.224,159.772 822.92,162.916 C820.616,166.06 818.192,169.264 815.648,172.528 L815.648,172.528 L812.84,172.528 L812.84,153.52 L798.8,153.52 L798.8,205 L812.84,205 Z M117.176,285 L117.176,234.672 L106.16,234.672 C103.52,235.872 101.048,237.036 98.744,238.164 C96.44,239.292 94.376,240.336 92.552,241.296 L92.552,241.296 L92.552,253.464 C94.184,252.6 95.936,251.7 97.808,250.764 C99.68,249.828 101.576,248.928 103.496,248.064 L103.496,248.064 L103.496,285 L117.176,285 Z M153.176,285.936 C157.304,285.936 160.892,285.336 163.94,284.136 C166.988,282.936 169.352,281.22 171.032,278.988 C172.712,276.756 173.552,274.128 173.552,271.104 C173.552,268.176 172.868,265.668 171.5,263.58 C170.132,261.492 168.08,259.752 165.344,258.36 C167.552,257.304 169.256,255.9 170.456,254.148 C171.656,252.396 172.256,250.416 172.256,248.208 C172.256,245.232 171.476,242.664 169.916,240.504 C168.356,238.344 166.16,236.676 163.328,235.5 C160.496,234.324 157.112,233.736 153.176,233.736 C150.344,233.736 147.752,234.084 145.4,234.78 C143.048,235.476 141.032,236.46 139.352,237.732 C137.672,239.004 136.376,240.528 135.464,242.304 C134.552,244.08 134.096,246.048 134.096,248.208 C134.096,253.488 136.472,257.424 141.224,260.016 C138.584,261.12 136.52,262.656 135.032,264.624 C133.544,266.592 132.8,268.872 132.8,271.464 C132.8,274.44 133.628,277.02 135.284,279.204 C136.94,281.388 139.304,283.056 142.376,284.208 C145.448,285.36 149.048,285.936 153.176,285.936 Z M155.192,254.976 L152.528,254.616 C150.896,254.376 149.576,253.8 148.568,252.888 C147.56,251.976 147.056,250.8 147.056,249.36 C147.056,247.728 147.596,246.456 148.676,245.544 C149.756,244.632 151.256,244.176 153.176,244.176 C155.144,244.176 156.656,244.632 157.712,245.544 C158.768,246.456 159.296,247.728 159.296,249.36 C159.296,250.656 158.924,251.784 158.18,252.744 C157.436,253.704 156.44,254.448 155.192,254.976 L155.192,254.976 Z M153.176,275.496 C151.016,275.496 149.3,274.98 148.028,273.948 C146.756,272.916 146.12,271.488 146.12,269.664 C146.12,268.128 146.624,266.82 147.632,265.74 C148.64,264.66 150.032,263.904 151.808,263.472 L151.808,263.472 L153.896,263.76 C155.912,264.048 157.472,264.696 158.576,265.704 C159.68,266.712 160.232,268.032 160.232,269.664 C160.232,271.488 159.608,272.916 158.36,273.948 C157.112,274.98 155.384,275.496 153.176,275.496 Z M216.176,285 L216.176,273.408 L194.36,273.408 C195.08,272.208 196.136,271.032 197.528,269.88 C198.92,268.728 200.768,267.432 203.072,265.992 C205.424,264.552 207.368,263.184 208.904,261.888 C210.44,260.592 211.652,259.272 212.54,257.928 C213.428,256.584 214.064,255.132 214.448,253.572 C214.832,252.012 215.024,250.248 215.024,248.28 C215.024,245.304 214.268,242.736 212.756,240.576 C211.244,238.416 209.108,236.736 206.348,235.536 C203.588,234.336 200.336,233.736 196.592,233.736 C193.52,233.736 190.7,234.06 188.132,234.708 C185.564,235.356 183.008,236.376 180.464,237.768 L180.464,237.768 L180.464,249.648 C182.576,248.112 184.688,246.996 186.8,246.3 C188.912,245.604 191.096,245.256 193.352,245.256 C195.752,245.256 197.612,245.688 198.932,246.552 C200.252,247.416 200.912,248.688 200.912,250.368 C200.912,251.136 200.792,251.832 200.552,252.456 C200.312,253.08 199.892,253.704 199.292,254.328 C198.692,254.952 197.84,255.672 196.736,256.488 C195.632,257.304 194.192,258.264 192.416,259.368 C189.296,261.336 186.776,263.388 184.856,265.524 C182.936,267.66 181.532,269.976 180.644,272.472 C179.756,274.968 179.312,277.8 179.312,280.968 L179.312,280.968 L179.312,285 L216.176,285 Z M255.2,285 L255.2,233.52 L241.16,233.52 L241.16,285 L255.2,285 Z M280.256,286.08 C284.96,286.08 288.956,285.432 292.244,284.136 C295.532,282.84 298.052,280.944 299.804,278.448 C301.556,275.952 302.432,272.928 302.432,269.376 C302.432,266.688 302,264.444 301.136,262.644 C300.272,260.844 299.048,259.356 297.464,258.18 C295.88,257.004 294.008,256.008 291.848,255.192 C289.688,254.376 287.288,253.656 284.648,253.032 C282.104,252.408 280.148,251.748 278.78,251.052 C277.412,250.356 276.728,249.312 276.728,247.92 C276.728,246.576 277.388,245.556 278.708,244.86 C280.028,244.164 281.888,243.816 284.288,243.816 C285.968,243.816 287.708,243.972 289.508,244.284 C291.308,244.596 293.096,245.052 294.872,245.652 C296.648,246.252 298.328,247.032 299.912,247.992 L299.912,247.992 L299.912,235.968 C297.704,234.864 295.232,234 292.496,233.376 C289.76,232.752 286.976,232.44 284.144,232.44 C279.776,232.44 275.984,233.1 272.768,234.42 C269.552,235.74 267.08,237.624 265.352,240.072 C263.624,242.52 262.76,245.472 262.76,248.928 C262.76,251.184 263.096,253.152 263.768,254.832 C264.44,256.512 265.496,257.988 266.936,259.26 C268.376,260.532 270.248,261.648 272.552,262.608 C274.856,263.568 277.64,264.432 280.904,265.2 C282.392,265.536 283.688,265.92 284.792,266.352 C285.896,266.784 286.76,267.3 287.384,267.9 C288.008,268.5 288.32,269.304 288.32,270.312 C288.32,271.704 287.624,272.784 286.232,273.552 C284.84,274.32 282.776,274.704 280.04,274.704 C277.256,274.704 274.46,274.308 271.652,273.516 C268.844,272.724 266.096,271.56 263.408,270.024 L263.408,270.024 L263.408,282.192 C266.192,283.536 268.964,284.52 271.724,285.144 C274.484,285.768 277.328,286.08 280.256,286.08 Z M336.488,285 C337.496,281.736 338.48,278.52 339.44,275.352 L339.44,275.352 L358.232,275.352 C358.712,276.936 359.204,278.532 359.708,280.14 C360.212,281.748 360.704,283.368 361.184,285 L361.184,285 L376.376,285 C373.304,276.408 370.136,267.816 366.872,259.224 C363.608,250.632 360.248,242.064 356.792,233.52 L356.792,233.52 L341.312,233.52 C337.952,241.632 334.64,249.984 331.376,258.576 C328.112,267.168 324.896,275.976 321.728,285 L321.728,285 L336.488,285 Z M354.776,264.408 L342.896,264.408 C343.856,261.432 344.84,258.468 345.848,255.516 C346.856,252.564 347.864,249.6 348.872,246.624 C349.88,249.552 350.876,252.492 351.86,255.444 C352.844,258.396 353.816,261.384 354.776,264.408 L354.776,264.408 Z M418.712,285 L418.712,272.904 L395.816,272.904 L395.816,233.52 L381.776,233.52 L381.776,285 L418.712,285 Z M461.408,285 L461.408,272.904 L438.512,272.904 L438.512,233.52 L424.472,233.52 L424.472,285 L461.408,285 Z M497.264,285 L497.264,233.52 L483.224,233.52 L483.224,285 L497.264,285 Z M536.216,285 L536.216,253.752 C539.336,258.744 542.516,263.892 545.756,269.196 C548.996,274.5 552.152,279.768 555.224,285 L555.224,285 L569.336,285 L569.336,233.52 L555.944,233.52 L555.944,264.192 C552.824,258.96 549.68,253.776 546.512,248.64 C543.344,243.504 540.152,238.464 536.936,233.52 L536.936,233.52 L522.824,233.52 L522.824,285 L536.216,285 Z M617.072,285 L617.072,273.768 L592.52,273.768 L592.52,264.408 L612.824,264.408 L612.824,253.176 L592.52,253.176 L592.52,244.752 L615.704,244.752 L615.704,233.52 L578.84,233.52 L578.84,285 L617.072,285 Z M662.072,285 L662.072,273.768 L637.52,273.768 L637.52,264.408 L657.824,264.408 L657.824,253.176 L637.52,253.176 L637.52,244.752 L660.704,244.752 L660.704,233.52 L623.84,233.52 L623.84,285 L662.072,285 Z M689.792,285 C695.264,285 699.932,283.98 703.796,281.94 C707.66,279.9 710.612,276.96 712.652,273.12 C714.692,269.28 715.712,264.624 715.712,259.152 C715.712,253.728 714.692,249.108 712.652,245.292 C710.612,241.476 707.66,238.56 703.796,236.544 C699.932,234.528 695.288,233.52 689.864,233.52 L689.864,233.52 L668.84,233.52 L668.84,285 L689.792,285 Z M689.144,273.048 L682.88,273.048 L682.88,245.472 L689.216,245.472 C693.152,245.472 696.128,246.636 698.144,248.964 C700.16,251.292 701.168,254.688 701.168,259.152 C701.168,263.664 700.148,267.108 698.108,269.484 C696.068,271.86 693.08,273.048 689.144,273.048 L689.144,273.048 Z M765.104,285 L765.104,245.616 L780.512,245.616 L780.512,233.52 L735.656,233.52 L735.656,245.616 L751.064,245.616 L751.064,285 L765.104,285 Z M810.536,286.08 C814.52,286.08 818.12,285.456 821.336,284.208 C824.552,282.96 827.3,281.16 829.58,278.808 C831.86,276.456 833.612,273.624 834.836,270.312 C836.06,267 836.672,263.304 836.672,259.224 C836.672,255.096 836.06,251.388 834.836,248.1 C833.612,244.812 831.86,242.004 829.58,239.676 C827.3,237.348 824.552,235.56 821.336,234.312 C818.12,233.064 814.52,232.44 810.536,232.44 C806.552,232.44 802.952,233.064 799.736,234.312 C796.52,235.56 793.772,237.348 791.492,239.676 C789.212,242.004 787.46,244.812 786.236,248.1 C785.012,251.388 784.4,255.096 784.4,259.224 C784.4,263.304 785.012,267 786.236,270.312 C787.46,273.624 789.212,276.456 791.492,278.808 C793.772,281.16 796.52,282.96 799.736,284.208 C802.952,285.456 806.552,286.08 810.536,286.08 Z M810.536,273.984 C806.792,273.984 803.924,272.712 801.932,270.168 C799.94,267.624 798.944,263.976 798.944,259.224 C798.944,254.52 799.94,250.896 801.932,248.352 C803.924,245.808 806.792,244.536 810.536,244.536 C814.28,244.536 817.148,245.808 819.14,248.352 C821.132,250.896 822.128,254.52 822.128,259.224 C822.128,263.976 821.132,267.624 819.14,270.168 C817.148,272.712 814.28,273.984 810.536,273.984 Z M116.096,366.08 C118.4,366.08 120.716,365.936 123.044,365.648 C125.372,365.36 127.616,364.916 129.776,364.316 C131.936,363.716 133.856,363.008 135.536,362.192 L135.536,362.192 L135.536,335.336 L115.448,335.336 L115.448,345.704 L122.936,345.704 L122.936,353.408 C122.024,353.648 121.076,353.828 120.092,353.948 C119.108,354.068 118.136,354.128 117.176,354.128 C112.664,354.128 109.244,352.868 106.916,350.348 C104.588,347.828 103.424,344.12 103.424,339.224 C103.424,334.52 104.756,330.896 107.42,328.352 C110.084,325.808 113.888,324.536 118.832,324.536 C121.856,324.536 124.628,324.86 127.148,325.508 C129.668,326.156 132.008,327.08 134.168,328.28 L134.168,328.28 L134.168,315.608 C129.128,313.496 123.416,312.44 117.032,312.44 C112.808,312.44 108.968,313.076 105.512,314.348 C102.056,315.62 99.08,317.432 96.584,319.784 C94.088,322.136 92.18,324.956 90.86,328.244 C89.54,331.532 88.88,335.192 88.88,339.224 C88.88,343.4 89.504,347.144 90.752,350.456 C92,353.768 93.8,356.588 96.152,358.916 C98.504,361.244 101.36,363.02 104.72,364.244 C108.08,365.468 111.872,366.08 116.096,366.08 Z M182.264,365 L182.264,353.768 L157.712,353.768 L157.712,344.408 L178.016,344.408 L178.016,333.176 L157.712,333.176 L157.712,324.752 L180.896,324.752 L180.896,313.52 L144.032,313.52 L144.032,365 L182.264,365 Z M214.736,365 L214.736,325.616 L230.144,325.616 L230.144,313.52 L185.288,313.52 L185.288,325.616 L200.696,325.616 L200.696,365 L214.736,365 Z M265.064,365 L265.064,333.752 C266.648,337.4 268.268,341.048 269.924,344.696 C271.58,348.344 273.248,351.992 274.928,355.64 L274.928,355.64 L285.728,355.64 C287.36,351.992 288.98,348.332 290.588,344.66 C292.196,340.988 293.792,337.28 295.376,333.536 L295.376,333.536 L295.376,365 L308.48,365 L308.48,313.52 L291.776,313.52 C289.952,318.368 288.104,323.156 286.232,327.884 C284.36,332.612 282.464,337.28 280.544,341.888 C278.528,337.232 276.548,332.528 274.604,327.776 C272.66,323.024 270.752,318.272 268.88,313.52 L268.88,313.52 L251.96,313.52 L251.96,365 L265.064,365 Z M356.216,365 L356.216,353.768 L331.664,353.768 L331.664,344.408 L351.968,344.408 L351.968,333.176 L331.664,333.176 L331.664,324.752 L354.848,324.752 L354.848,313.52 L317.984,313.52 L317.984,365 L356.216,365 Z M404.744,365 L404.744,325.616 L420.152,325.616 L420.152,313.52 L375.296,313.52 L375.296,325.616 L390.704,325.616 L390.704,365 L404.744,365 Z M439.952,365 L439.952,344.192 L458.24,344.192 L458.24,365 L472.28,365 L472.28,313.52 L458.24,313.52 L458.24,332.096 L439.952,332.096 L439.952,313.52 L425.912,313.52 L425.912,365 L439.952,365 Z M495.392,365 L495.392,347.648 L502.448,347.648 C504.128,350.48 505.748,353.348 507.308,356.252 C508.868,359.156 510.416,362.072 511.952,365 L511.952,365 L527.432,365 C525.464,361.496 523.46,358.064 521.42,354.704 C519.38,351.344 517.304,348.008 515.192,344.696 C517.88,343.256 519.956,341.336 521.42,338.936 C522.884,336.536 523.616,333.752 523.616,330.584 C523.616,325.064 521.72,320.84 517.928,317.912 C514.136,314.984 508.664,313.52 501.512,313.52 L501.512,313.52 L481.784,313.52 L481.784,365 L495.392,365 Z M500.864,336.848 L495.392,336.848 L495.392,324.32 L500.864,324.32 C503.792,324.32 505.952,324.836 507.344,325.868 C508.736,326.9 509.432,328.472 509.432,330.584 C509.432,332.648 508.736,334.208 507.344,335.264 C505.952,336.32 503.792,336.848 500.864,336.848 L500.864,336.848 Z M557.24,366.08 C561.224,366.08 564.824,365.456 568.04,364.208 C571.256,362.96 574.004,361.16 576.284,358.808 C578.564,356.456 580.316,353.624 581.54,350.312 C582.764,347 583.376,343.304 583.376,339.224 C583.376,335.096 582.764,331.388 581.54,328.1 C580.316,324.812 578.564,322.004 576.284,319.676 C574.004,317.348 571.256,315.56 568.04,314.312 C564.824,313.064 561.224,312.44 557.24,312.44 C553.256,312.44 549.656,313.064 546.44,314.312 C543.224,315.56 540.476,317.348 538.196,319.676 C535.916,322.004 534.164,324.812 532.94,328.1 C531.716,331.388 531.104,335.096 531.104,339.224 C531.104,343.304 531.716,347 532.94,350.312 C534.164,353.624 535.916,356.456 538.196,358.808 C540.476,361.16 543.224,362.96 546.44,364.208 C549.656,365.456 553.256,366.08 557.24,366.08 Z M557.24,353.984 C553.496,353.984 550.628,352.712 548.636,350.168 C546.644,347.624 545.648,343.976 545.648,339.224 C545.648,334.52 546.644,330.896 548.636,328.352 C550.628,325.808 553.496,324.536 557.24,324.536 C560.984,324.536 563.852,325.808 565.844,328.352 C567.836,330.896 568.832,334.52 568.832,339.224 C568.832,343.976 567.836,347.624 565.844,350.168 C563.852,352.712 560.984,353.984 557.24,353.984 Z M613.688,366.08 C618.44,366.08 622.508,365.168 625.892,363.344 C629.276,361.52 631.868,358.892 633.668,355.46 C635.468,352.028 636.368,347.936 636.368,343.184 L636.368,343.184 L636.368,313.52 L622.544,313.52 L622.544,344.768 C622.544,347.696 621.776,349.964 620.24,351.572 C618.704,353.18 616.52,353.984 613.688,353.984 C610.904,353.984 608.732,353.18 607.172,351.572 C605.612,349.964 604.832,347.696 604.832,344.768 L604.832,344.768 L604.832,313.52 L590.792,313.52 L590.792,343.184 C590.792,347.936 591.704,352.028 593.528,355.46 C595.352,358.892 597.98,361.52 601.412,363.344 C604.844,365.168 608.936,366.08 613.688,366.08 Z M671,366.08 C673.304,366.08 675.62,365.936 677.948,365.648 C680.276,365.36 682.52,364.916 684.68,364.316 C686.84,363.716 688.76,363.008 690.44,362.192 L690.44,362.192 L690.44,335.336 L670.352,335.336 L670.352,345.704 L677.84,345.704 L677.84,353.408 C676.928,353.648 675.98,353.828 674.996,353.948 C674.012,354.068 673.04,354.128 672.08,354.128 C667.568,354.128 664.148,352.868 661.82,350.348 C659.492,347.828 658.328,344.12 658.328,339.224 C658.328,334.52 659.66,330.896 662.324,328.352 C664.988,325.808 668.792,324.536 673.736,324.536 C676.76,324.536 679.532,324.86 682.052,325.508 C684.572,326.156 686.912,327.08 689.072,328.28 L689.072,328.28 L689.072,315.608 C684.032,313.496 678.32,312.44 671.936,312.44 C667.712,312.44 663.872,313.076 660.416,314.348 C656.96,315.62 653.984,317.432 651.488,319.784 C648.992,322.136 647.084,324.956 645.764,328.244 C644.444,331.532 643.784,335.192 643.784,339.224 C643.784,343.4 644.408,347.144 645.656,350.456 C646.904,353.768 648.704,356.588 651.056,358.916 C653.408,361.244 656.264,363.02 659.624,364.244 C662.984,365.468 666.776,366.08 671,366.08 Z M712.976,365 L712.976,344.192 L731.264,344.192 L731.264,365 L745.304,365 L745.304,313.52 L731.264,313.52 L731.264,332.096 L712.976,332.096 L712.976,313.52 L698.936,313.52 L698.936,365 L712.976,365 Z M116.456,445 L116.456,405.616 L131.864,405.616 L131.864,393.52 L87.008,393.52 L87.008,405.616 L102.416,405.616 L102.416,445 L116.456,445 Z M151.664,445 L151.664,424.192 L169.952,424.192 L169.952,445 L183.992,445 L183.992,393.52 L169.952,393.52 L169.952,412.096 L151.664,412.096 L151.664,393.52 L137.624,393.52 L137.624,445 L151.664,445 Z M207.536,445 L207.536,393.52 L193.496,393.52 L193.496,445 L207.536,445 Z M232.592,446.08 C237.296,446.08 241.292,445.432 244.58,444.136 C247.868,442.84 250.388,440.944 252.14,438.448 C253.892,435.952 254.768,432.928 254.768,429.376 C254.768,426.688 254.336,424.444 253.472,422.644 C252.608,420.844 251.384,419.356 249.8,418.18 C248.216,417.004 246.344,416.008 244.184,415.192 C242.024,414.376 239.624,413.656 236.984,413.032 C234.44,412.408 232.484,411.748 231.116,411.052 C229.748,410.356 229.064,409.312 229.064,407.92 C229.064,406.576 229.724,405.556 231.044,404.86 C232.364,404.164 234.224,403.816 236.624,403.816 C238.304,403.816 240.044,403.972 241.844,404.284 C243.644,404.596 245.432,405.052 247.208,405.652 C248.984,406.252 250.664,407.032 252.248,407.992 L252.248,407.992 L252.248,395.968 C250.04,394.864 247.568,394 244.832,393.376 C242.096,392.752 239.312,392.44 236.48,392.44 C232.112,392.44 228.32,393.1 225.104,394.42 C221.888,395.74 219.416,397.624 217.688,400.072 C215.96,402.52 215.096,405.472 215.096,408.928 C215.096,411.184 215.432,413.152 216.104,414.832 C216.776,416.512 217.832,417.988 219.272,419.26 C220.712,420.532 222.584,421.648 224.888,422.608 C227.192,423.568 229.976,424.432 233.24,425.2 C234.728,425.536 236.024,425.92 237.128,426.352 C238.232,426.784 239.096,427.3 239.72,427.9 C240.344,428.5 240.656,429.304 240.656,430.312 C240.656,431.704 239.96,432.784 238.568,433.552 C237.176,434.32 235.112,434.704 232.376,434.704 C229.592,434.704 226.796,434.308 223.988,433.516 C221.18,432.724 218.432,431.56 215.744,430.024 L215.744,430.024 L215.744,442.192 C218.528,443.536 221.3,444.52 224.06,445.144 C226.82,445.768 229.664,446.08 232.592,446.08 Z M301.928,445 C303.32,439.72 304.664,434.428 305.96,429.124 C307.256,423.82 308.552,418.504 309.848,413.176 C311.096,418.504 312.392,423.82 313.736,429.124 C315.08,434.428 316.448,439.72 317.84,445 L317.84,445 L332.384,445 C334.784,436.6 337.076,428.104 339.26,419.512 C341.444,410.92 343.496,402.256 345.416,393.52 L345.416,393.52 L330.656,393.52 C329.744,399.52 328.772,405.52 327.74,411.52 C326.708,417.52 325.616,423.448 324.464,429.304 C323.168,423.736 321.884,418.156 320.612,412.564 C319.34,406.972 318.104,401.344 316.904,395.68 L316.904,395.68 L303.44,395.68 C302.24,401.44 300.992,407.212 299.696,412.996 C298.4,418.78 297.056,424.576 295.664,430.384 C294.512,424.384 293.408,418.288 292.352,412.096 C291.296,405.904 290.312,399.712 289.4,393.52 L289.4,393.52 L274.352,393.52 C276.32,402.256 278.396,410.92 280.58,419.512 C282.764,428.104 285.032,436.6 287.384,445 L287.384,445 L301.928,445 Z M389.336,445 L389.336,433.768 L364.784,433.768 L364.784,424.408 L385.088,424.408 L385.088,413.176 L364.784,413.176 L364.784,404.752 L387.968,404.752 L387.968,393.52 L351.104,393.52 L351.104,445 L389.336,445 Z M434.336,445 L434.336,433.768 L409.784,433.768 L409.784,424.408 L430.088,424.408 L430.088,413.176 L409.784,413.176 L409.784,404.752 L432.968,404.752 L432.968,393.52 L396.104,393.52 L396.104,445 L434.336,445 Z M455.144,445 L455.144,423.76 L457.664,423.76 C460.352,427.36 462.956,430.912 465.476,434.416 C467.996,437.92 470.504,441.448 473,445 L473,445 L490.568,445 C487.016,440.296 483.5,435.676 480.02,431.14 C476.54,426.604 473.024,422.128 469.472,417.712 C472.784,413.68 476.024,409.648 479.192,405.616 C482.36,401.584 485.48,397.552 488.552,393.52 L488.552,393.52 L471.992,393.52 C469.784,396.64 467.528,399.772 465.224,402.916 C462.92,406.06 460.496,409.264 457.952,412.528 L457.952,412.528 L455.144,412.528 L455.144,393.52 L441.104,393.52 L441.104,445 L455.144,445 Z" id="WHAT’SMYAGEAGAINWITHACTUALBLINK182ISALLINEEDTOGETMETHROUGHTHISWEEK" fill="#FFFFFF" fill-rule="nonzero"></path>
        <path d="M97.032,606.72 C99.656,606.72 101.92,606.32 103.824,605.52 C105.728,604.72 107.2,603.568 108.24,602.064 C109.28,600.56 109.8,598.784 109.8,596.736 C109.8,595.392 109.584,594.232 109.152,593.256 C108.72,592.28 108.136,591.448 107.4,590.76 C106.664,590.072 105.824,589.488 104.88,589.008 C103.936,588.528 102.928,588.128 101.856,587.808 C100.784,587.488 99.72,587.184 98.664,586.896 C97.416,586.576 96.264,586.256 95.208,585.936 C94.152,585.616 93.24,585.216 92.472,584.736 C91.704,584.256 91.104,583.656 90.672,582.936 C90.24,582.216 90.024,581.296 90.024,580.176 C90.024,578.096 90.784,576.48 92.304,575.328 C93.824,574.176 95.944,573.6 98.664,573.6 C100.648,573.6 102.44,573.84 104.04,574.32 C105.64,574.8 107,575.424 108.12,576.192 L108.12,576.192 L108.12,573.168 C107.32,572.72 106.416,572.328 105.408,571.992 C104.4,571.656 103.344,571.4 102.24,571.224 C101.136,571.048 100.024,570.96 98.904,570.96 C96.472,570.96 94.36,571.344 92.568,572.112 C90.776,572.88 89.4,573.968 88.44,575.376 C87.48,576.784 87,578.464 87,580.416 C87,581.696 87.208,582.8 87.624,583.728 C88.04,584.656 88.608,585.448 89.328,586.104 C90.048,586.76 90.864,587.304 91.776,587.736 C92.688,588.168 93.656,588.536 94.68,588.84 C95.704,589.144 96.712,589.424 97.704,589.68 C98.824,589.968 99.912,590.272 100.968,590.592 C102.024,590.912 102.992,591.328 103.872,591.84 C104.752,592.352 105.448,593.016 105.96,593.832 C106.472,594.648 106.728,595.712 106.728,597.024 C106.728,598.496 106.36,599.76 105.624,600.816 C104.888,601.872 103.824,602.68 102.432,603.24 C101.04,603.8 99.368,604.08 97.416,604.08 C95.368,604.08 93.48,603.824 91.752,603.312 C90.024,602.8 88.44,602.064 87,601.104 L87,601.104 L87,604.176 C88.6,605.008 90.256,605.64 91.968,606.072 C93.68,606.504 95.368,606.72 97.032,606.72 Z M122.712,606.624 C124.376,606.624 125.888,606.32 127.248,605.712 C128.608,605.104 129.816,604.208 130.872,603.024 C131.032,605.328 132.312,606.48 134.712,606.48 C135.736,606.48 136.568,606.304 137.208,605.952 L137.208,605.952 L137.208,603.792 C136.632,604.08 136.008,604.224 135.336,604.224 C134.728,604.224 134.288,604.056 134.016,603.72 C133.744,603.384 133.608,602.864 133.608,602.16 L133.608,602.16 L133.608,589.248 C133.608,587.52 133.248,586.04 132.528,584.808 C131.808,583.576 130.784,582.632 129.456,581.976 C128.128,581.32 126.536,580.992 124.68,580.992 C121.8,580.992 119.064,581.728 116.472,583.2 L116.472,583.2 L116.472,585.888 C117.784,585.024 119.088,584.392 120.384,583.992 C121.68,583.592 123.064,583.392 124.536,583.392 C126.552,583.392 128.096,583.92 129.168,584.976 C130.24,586.032 130.776,587.552 130.776,589.536 L130.776,589.536 L130.776,592.752 C130.008,592.656 129.144,592.576 128.184,592.512 C127.224,592.448 126.344,592.416 125.544,592.416 C122.056,592.416 119.384,593.056 117.528,594.336 C115.672,595.616 114.744,597.44 114.744,599.808 C114.744,601.952 115.448,603.624 116.856,604.824 C118.264,606.024 120.216,606.624 122.712,606.624 Z M123,604.32 C119.416,604.32 117.624,602.8 117.624,599.76 C117.624,597.968 118.28,596.664 119.592,595.848 C120.904,595.032 122.952,594.624 125.736,594.624 C126.568,594.624 127.424,594.656 128.304,594.72 C129.184,594.784 130.008,594.864 130.776,594.96 L130.776,594.96 L130.776,600.576 C128.696,603.072 126.104,604.32 123,604.32 Z M144.936,606 L144.936,587.712 C145.864,586.4 146.928,585.392 148.128,584.688 C149.328,583.984 150.584,583.632 151.896,583.632 C152.6,583.632 153.256,583.704 153.864,583.848 C154.472,583.992 155.016,584.224 155.496,584.544 L155.496,584.544 L155.496,581.808 C154.568,581.392 153.432,581.184 152.088,581.184 C150.616,581.184 149.272,581.512 148.056,582.168 C146.84,582.824 145.752,583.84 144.792,585.216 L144.792,585.216 L144.456,581.616 L142.104,581.616 L142.104,606 L144.936,606 Z M166.344,606.624 C168.008,606.624 169.52,606.32 170.88,605.712 C172.24,605.104 173.448,604.208 174.504,603.024 C174.664,605.328 175.944,606.48 178.344,606.48 C179.368,606.48 180.2,606.304 180.84,605.952 L180.84,605.952 L180.84,603.792 C180.264,604.08 179.64,604.224 178.968,604.224 C178.36,604.224 177.92,604.056 177.648,603.72 C177.376,603.384 177.24,602.864 177.24,602.16 L177.24,602.16 L177.24,589.248 C177.24,587.52 176.88,586.04 176.16,584.808 C175.44,583.576 174.416,582.632 173.088,581.976 C171.76,581.32 170.168,580.992 168.312,580.992 C165.432,580.992 162.696,581.728 160.104,583.2 L160.104,583.2 L160.104,585.888 C161.416,585.024 162.72,584.392 164.016,583.992 C165.312,583.592 166.696,583.392 168.168,583.392 C170.184,583.392 171.728,583.92 172.8,584.976 C173.872,586.032 174.408,587.552 174.408,589.536 L174.408,589.536 L174.408,592.752 C173.64,592.656 172.776,592.576 171.816,592.512 C170.856,592.448 169.976,592.416 169.176,592.416 C165.688,592.416 163.016,593.056 161.16,594.336 C159.304,595.616 158.376,597.44 158.376,599.808 C158.376,601.952 159.08,603.624 160.488,604.824 C161.896,606.024 163.848,606.624 166.344,606.624 Z M166.632,604.32 C163.048,604.32 161.256,602.8 161.256,599.76 C161.256,597.968 161.912,596.664 163.224,595.848 C164.536,595.032 166.584,594.624 169.368,594.624 C170.2,594.624 171.056,594.656 171.936,594.72 C172.816,594.784 173.64,594.864 174.408,594.96 L174.408,594.96 L174.408,600.576 C172.328,603.072 169.736,604.32 166.632,604.32 Z M188.568,606 L188.568,587.328 C189.624,586.048 190.816,585.072 192.144,584.4 C193.472,583.728 194.92,583.392 196.488,583.392 C198.472,583.392 200,584 201.072,585.216 C202.144,586.432 202.68,588.176 202.68,590.448 L202.68,590.448 L202.68,606 L205.512,606 L205.512,590.208 C205.512,588.288 205.168,586.64 204.48,585.264 C203.792,583.888 202.8,582.832 201.504,582.096 C200.208,581.36 198.664,580.992 196.872,580.992 C193.512,580.992 190.744,582.256 188.568,584.784 L188.568,584.784 L188.568,570.24 L185.736,570.24 L185.736,606 L188.568,606 Z" id="–Sarah" fill="#FFFFFF" fill-rule="nonzero"></path>
    </g>
</svg>