<?xml version="1.0" encoding="UTF-8"?>
<svg width="307px" height="260px" viewBox="0 0 307 260" version="1.1" xmlns="http://www.w3.org/2000/svg" xmlns:xlink="http://www.w3.org/1999/xlink">
    <!-- Generator: Sketch 61.2 (89653) - https://sketch.com -->
    <title>girl3</title>
    <desc>Created with Sketch.</desc>
    <g id="Assets" stroke="none" stroke-width="1" fill="none" fill-rule="evenodd">
        <g id="Rhianna" transform="translate(-839.000000, -415.000000)">
            <g id="girl3" transform="translate(1033.000000, 727.500000) scale(-1, 1) translate(-1033.000000, -727.500000) translate(806.000000, 415.000000)">
                <g id="Head/Front" transform="translate(168.093333, 0.000000)">
                    <path d="M48.3133333,98.4723405 C65.609126,98.4723405 71.8993861,77.7875821 81.725643,66.4363481 C88.7561283,58.3147729 100.754994,60.7364884 104.306667,49.3664598 C113.237668,20.7755016 89.333911,0.65258216 58.15,0.65258216 C26.966089,0.65258216 5.94,18.3009825 1.4,44.8312486 C-3.14,71.3615146 17.1294223,98.4723405 48.3133333,98.4723405 Z" id="Hair-Back" fill="#222222"></path>
                    <g id="Head" transform="translate(37.720000, 27.863850)" fill="#915B3C">
                        <path d="M57.72359,13.8081052 C66.4930702,30.1365616 65.451028,71.5550453 54.1172561,74.473396 C49.597434,75.637212 39.9689488,72.7863914 30.1693214,66.8860344 L36.32,110.356808 L0,110.356808 L12.5032122,52.1395791 C5.53010793,43.9630475 0.810607645,33.9426527 1.59925485,22.7145359 C3.8716064,-9.63735505 48.9541097,-2.52035123 57.72359,13.8081052 Z"></path>
                    </g>
                    <path d="M97.6225163,41.7635569 C90.6767261,43.0660678 76.6881194,49.6901635 65.5347405,59.1921135 C64.2159409,58.4949332 62.7034932,58.0985915 61.0959582,58.0985915 C55.9503078,58.0985915 51.778934,62.159558 51.778934,67.1690141 C51.778934,69.2138096 52.4739547,71.1005709 53.6465589,72.6176158 C51.4388053,76.2517274 49.931994,80.0710118 49.4381014,83.9973276 C41.7863797,83.9973276 13.8601515,55.0751174 41.6800757,27.8638498 C69.5,0.65258216 109.703234,39.4981176 97.6225163,41.7635569 Z" id="Hair" fill="#222222"></path>
                </g>
                <g id="Body/Long-Sleeve-1" transform="translate(60.293333, 104.962441)">
                    <path d="M75.8609518,112.548348 L108.999005,112.672582 C72.6622302,194.357491 53.7156724,237.126415 52.1593311,240.979353 C48.6575633,249.648464 56.0677749,262.851369 59.2366756,269.946512 C48.9156718,274.559982 50.0153858,257.474418 36.9957173,263.525242 C25.1119677,269.048153 16.0720289,279.055298 2.34207328,270.59243 C0.654055922,269.55197 -1.19573609,265.634451 3.27359527,262.573117 C14.4083296,254.946217 30.4541563,241.597768 32.6222002,237.204022 C35.5787154,231.212366 49.9916326,189.660474 75.8609518,112.548348 L75.8609518,112.548348 Z M356.922306,83.6220346 L356.304258,84.1382681 C349.81678,89.5740643 343.470885,95.4567633 344.627037,98.3407565 C345.819892,101.316305 352.046205,100.209202 353.077659,104.785848 C353.765295,107.836946 343.660368,108.332719 322.762879,106.273167 L274.280263,125.474178 L263.56,98.7327434 L323.310752,90.5910942 C335.263327,83.949824 346.259116,79.4538002 356.298119,77.1030229 C359.123198,77.0206259 363.617357,78.0465317 356.922306,83.6220346 Z" id="Skin" fill="#915B3C"></path>
                    <path d="M159.864062,14.6245404 L185.86183,14.0832721 C197.260752,71.0567814 235.113568,104.361759 311.669271,85.2677887 L328.464794,158.451823 C256.725457,174.167402 190.552238,150.715826 170.636876,73.287549 C165.481417,53.2438142 160.963853,32.3102493 159.864062,14.6245404 Z" id="Clothes-Back" fill="#432C84" transform="translate(244.164428, 88.575587) rotate(5.000000) translate(-244.164428, -88.575587) "></path>
                    <path d="M153.80876,0 L153.828809,0.024 L193.140975,9.01792984 C193.140975,75.8856237 214.250757,118.790367 225.392133,167.826697 L225.726667,169.314554 L119.556809,169.313646 C118.061173,186.473506 117.142721,204.110742 116.664124,222.225352 L116.664124,222.225352 L37.1678087,222.225352 C55.1821195,126.477916 93.204235,52.402799 151.234155,0 L151.234155,0 L153.80876,0 Z" id="Clothes" fill="#4B3193"></path>
                    <path d="M136.307478,72.9558267 C133.571435,115.044261 135.18062,147.163837 141.135034,169.314554 L141.135034,169.314554 L119.556809,169.313646 C122.454465,136.068 127.518609,104.614206 135.747922,74.9522621 Z" id="Shade" fill-opacity="0.1" fill="#000000"></path>
                </g>
            </g>
        </g>
    </g>
</svg>