<?xml version="1.0" encoding="UTF-8"?>
<svg width="262px" height="267px" viewBox="0 0 262 267" version="1.1" xmlns="http://www.w3.org/2000/svg" xmlns:xlink="http://www.w3.org/1999/xlink">
    <!-- Generator: Sketch 61.2 (89653) - https://sketch.com -->
    <title>girl</title>
    <desc>Created with Sketch.</desc>
    <g id="Assets" stroke="none" stroke-width="1" fill="none" fill-rule="evenodd">
        <g id="Daisy" transform="translate(-823.000000, -408.000000)">
            <g id="girl" transform="translate(1014.000000, 719.500000) scale(-1, 1) translate(-1014.000000, -719.500000) translate(792.000000, 407.000000)">
                <g id="Head/Front" transform="translate(178.360000, 0.000000)">
                    <g id="Head" transform="translate(22.920000, 40.845070)" fill="#D4A181">
                        <path d="M56.4521452,13.507929 C65.0284651,29.4814189 64.0093754,69.9995009 52.9252461,72.8544091 C48.5049691,73.9929275 39.088531,71.2040653 29.5047311,65.4319493 L35.52,107.957746 L0,107.957746 L12.2274651,51.0057041 C5.40814326,43.0069975 0.792765895,33.2045831 1.56402897,22.2207417 C3.78632873,-9.42784733 47.8758254,-2.46556099 56.4521452,13.507929 Z"></path>
                    </g>
                    <path d="M65.3419727,36.9555988 C60.4883991,35.4767255 53.4427156,34.9751923 50.478806,35.3144753 C52.1648128,31.2780086 52.8338452,26.7808991 52.2884224,22.4021691 C51.758295,18.1474217 49.8556599,14.5246276 48.0960085,10.7283771 C47.2848988,8.97855413 46.3657016,7.23826824 44.9952333,5.89985273 C43.5991594,4.53628306 41.831917,3.6362174 39.9787937,3.20680859 C38.0823901,2.7672666 36.0994258,2.80386529 34.2000764,3.20275532 C33.3598488,3.37919203 32.6059553,3.76306109 31.7819295,3.97645414 C30.9380763,4.19509261 30.528726,3.66733225 29.91623,3.13694919 C28.4401667,1.85897517 26.2762635,1.22809472 24.4088644,1.00230341 C22.3137339,0.749092885 20.1397469,1.06489076 18.1416006,1.75311315 C16.1967048,2.4230958 14.3282861,3.51104271 12.9221286,5.09599276 C12.2960366,5.80150118 11.7277274,6.60452665 11.3583717,7.49112113 C11.2068905,7.85496224 11.1818514,8.07050114 10.8185005,8.20378238 C10.4824548,8.32716887 10.0894195,8.33074529 9.7426104,8.44817107 C6.38917782,9.5830883 3.52202582,12.1721778 1.96087481,15.4964601 C1.05006176,17.4358333 0.618618042,20.8503842 0.736789209,24.6775347 C0.854960375,28.5046852 4.3133081,38.4908129 7.54788972,42.1332773 C10.4350957,45.3844814 14.6789475,47.5299756 18.7746037,48.4691435 C16.0561004,51.574072 14.246484,55.4540106 12.908306,59.3999939 C11.4547894,63.686333 10.555193,68.1400486 10.2229994,72.6779293 C9.90746087,76.9894227 9.87822966,81.5488811 10.8897658,85.7683412 C11.8360415,89.7142052 13.8596802,92.9512228 17.2379254,95.0048031 C18.7853672,95.9455207 20.4503003,96.6522213 22.1248639,97.2981227 C23.7751815,97.9346062 25.4304842,98.553446 27.1592049,98.9106112 C30.4309487,99.5863161 34.2007562,99.4703209 36.7209857,96.8681178 C37.6293062,95.9300229 38.6282661,94.7512349 39.2909537,93.6052308 C39.5292221,93.193108 39.6728856,92.9235652 39.3834059,92.5207411 C39.0365967,92.038282 38.4756519,91.6685994 38.0301591,91.2911679 C35.489649,89.1392361 33.9170547,86.2664173 33.5206205,82.8523669 C33.118408,79.3883659 34.0496149,74.917245 37.4200424,73.4054923 C41.5805058,71.5393165 46.1623294,73.6813535 49.8601918,75.6780687 C51.4317664,70.1355717 54.6586436,65.1451547 59.7177971,62.602797 C65.3148957,59.7901813 71.7374929,59.4610314 77.4893583,57.0477825 C78.9881947,56.4189287 80.5147894,55.7050753 81.6183246,54.4237633 C82.0794527,53.888254 82.6204569,53.1935941 82.8045682,52.4853438 C83.0464622,51.5549977 82.4459759,50.7749806 81.9821286,50.0496826 C79.5226275,46.2039584 70.1955463,38.434472 65.3419727,36.9555988 Z" id="hair" fill="#C36B00"></path>
                </g>
                <g id="Body/Pointing-Forward" transform="translate(32.560000, 116.267606)">
                    <path d="M353.063444,68.6312279 C359.475979,67.3120697 375.127144,55.680596 377.823917,58.0422247 C381.81362,61.5361021 378.256156,72.2643304 374.064618,77.6010494 C366.230639,87.5753708 359.744442,90.9862877 343.712799,95.4529039 C335.330628,97.7882815 326.268019,102.469345 316.524972,109.496094 L315.24,86.868777 L337.804854,74.4822772 C340.971022,62.4438116 344.755791,56.3868525 349.15916,56.3113999 C352.541862,54.7386604 346.650909,69.950386 353.063444,68.6312279 Z M314.225906,17.0684258 C310.082616,24.4167576 306.05523,32.3322972 308.166073,34.5961592 C310.276916,36.8600212 315.540493,33.6975057 318.058697,37.4589317 C319.737499,39.966549 310.745095,43.9278783 291.081485,49.3429198 L253.754573,83.4936962 L234.784298,63.1482314 L286.154775,35.0342435 C294.697371,24.8976033 303.114207,17.0250819 311.405284,11.4166794 C313.93877,10.3597956 318.369196,9.72009404 314.225906,17.0684258 Z" id="Skin" fill="#D4A181"></path>
                    <path d="M211.429066,51.3869884 C229.2305,54.0141517 253.523198,54.0170093 281.350111,41.9832631 L287.775807,65.685116 C267.59419,80.2192254 240.818124,90.5461387 219.469022,86.5479041 C202.644754,83.3970749 197.242866,61.603404 211.429066,51.3869884 Z" id="Sleeve" fill="#DB2721" transform="translate(245.529829, 64.698937) rotate(-9.000000) translate(-245.529829, -64.698937) "></path>
                    <path d="M210.96475,-2.1516435e-13 C213.230544,29.0878208 224.634863,61.1451029 233.994156,92.8153696 C253.094928,97.5764632 285.128311,91.9628591 330.093181,75.9747773 C341.246077,99.030556 346.401781,115.467558 345.560293,125.285783 C306.983438,145.421499 273.920384,154.397688 246.681671,154.988389 L246.690777,154.98054 C247.557348,171.13239 245.590641,186.501221 238.981421,200.544034 C225.396127,229.409124 145.846686,202.676833 119.099726,207.938401 C102.349993,153.582938 134.736108,131.493098 134.762166,96.713305 C134.790703,58.6257254 165.396527,-2.1516435e-13 169.899561,-2.1516435e-13 L169.899561,-2.1516435e-13 Z" id="Clothes" fill="#FF4133"></path>
                </g>
            </g>
        </g>
    </g>
</svg>