<?xml version="1.0" encoding="UTF-8"?>
<svg width="228px" height="256px" viewBox="0 0 228 256" version="1.1" xmlns="http://www.w3.org/2000/svg" xmlns:xlink="http://www.w3.org/1999/xlink">
    <!-- Generator: Sketch 61.2 (89653) - https://sketch.com -->
    <title>girl2</title>
    <desc>Created with Sketch.</desc>
    <g id="Assets" stroke="none" stroke-width="1" fill="none" fill-rule="evenodd">
        <g id="Sarah" transform="translate(-857.000000, -419.000000)">
            <g id="girl2" transform="translate(972.000000, 768.500000) scale(-1, 1) translate(-972.000000, -768.500000) translate(714.000000, 419.000000)">
                <g id="Head/Front" transform="translate(153.040000, 0.000000)">
                    <g id="Head" transform="translate(80.880000, 19.340376)" fill="#D4A181">
                        <path d="M65.6065472,15.7163681 C75.5736216,34.3013969 74.3892741,81.4438637 61.5077184,84.7655268 C56.3706402,86.0901838 45.4272135,82.8453655 34.2892848,76.1295554 L41.28,125.607981 L0,125.607981 L14.2107713,59.3452886 C6.28535337,50.0387551 0.921304655,38.6335238 1.81765529,25.8536566 C4.40032798,-10.9692255 55.6394727,-2.86866064 65.6065472,15.7163681 Z"></path>
                    </g>
                    <path d="M134.2,0.41314554 C143.699298,0.41314554 151.4,8.11679057 151.4,17.6197183 C151.4,26.8097925 144.197993,34.317105 135.132143,34.8014531 C129.946624,36.40218 123.282392,37.5777634 115.891772,38.0734282 C116.610082,40.7723347 117,43.8386572 117,47.3037444 C117,50.363212 116.662456,53.6079377 116.040921,56.9025145 C114.437933,54.9970083 112.295012,53.7535211 110.12,53.7535211 C104.035386,53.7535211 99.8,58.7608904 99.8,64.0774648 C99.8,70.8246314 103.693428,75.7058232 109.377194,76.096752 C104.259253,85.9263954 97.1795652,93.3286385 90.1066618,93.3286385 C76.672231,93.3286385 67.12,75.3602954 67.12,56.0412532 C67.12,55.3625492 67.1334415,54.6883597 67.1599626,54.0192054 C52.9489094,63.7745111 41.9964638,83.0046948 23.1924823,83.0046948 C-2.38996585,83.0046948 -12.5498225,31.3849765 23.1924823,31.3849765 C47.5003986,31.3849765 59.4570974,34.9304847 69.7615666,40.1734226 C71.7936755,34.4406022 74.8932524,29.6211241 78.6834268,26.2558326 C79.5980652,25.2260434 81.0016691,24.2411349 82.8128327,23.3283922 C83.9000986,22.7340471 85.0240703,22.2495245 86.178853,21.8830082 C92.3950678,19.593848 101.409099,17.9778197 111.479837,17.6260074 C113.357366,17.5604176 115.201317,17.541225 117.000166,17.5654048 C117.02924,8.08757323 124.718733,0.41314554 134.2,0.41314554 Z" id="hair" fill="#783A1F"></path>
                </g>
                <g id="Body/Hoodie" transform="translate(37.840000, 107.093897)">
                    <path d="M117.489636,160.055353 L153.43315,160.196756 C131.239689,231.868443 119.258518,269.896991 117.489636,274.2824 C113.509653,284.149571 121.931832,299.177102 125.53349,307.252784 C113.80301,312.503831 115.052905,293.057063 100.255221,299.944103 C86.74858,306.230273 76.4741121,317.620394 60.8691406,307.987968 C58.950601,306.803718 56.8481942,302.344802 61.9278748,298.860395 C74.5832116,290.179467 92.8203187,274.986279 95.284439,269.985324 C98.6447074,263.165627 106.04644,226.522304 117.489636,160.055353 L117.489636,160.055353 Z M328.143672,158.664363 L383.008698,198.968349 C397.889223,202.985186 410.321421,207.982809 420.305291,213.96122 C422.663654,216.111017 425.513958,220.464715 415.733254,219.712287 C405.95255,218.959859 395.630891,218.608461 394.281344,221.945782 C392.931797,225.283104 398.850549,229.274174 396.122527,233.777095 C394.303845,236.779042 385.711663,229.251771 370.345979,211.195282 L316.015211,188.657075 L328.143672,158.664363 Z" id="Skin" fill="#B28B67"></path>
                    <path d="M211.095205,16.481761 L225.689237,12.6431763 C284.818946,55.3408811 315.383316,144.632572 386.996983,187.085194 L372.5378,208.615545 C254.37247,204.363509 215.65856,95.5744324 211.095205,16.481761 Z" id="Coat-Back" fill="#E87613" transform="translate(299.046094, 110.629361) rotate(5.000000) translate(-299.046094, -110.629361) "></path>
                    <path d="M154.8,196.15493 C214.43542,196.15493 258.301985,196.15493 286.399695,196.15493 C292.41313,196.15493 291.280013,187.468427 290.410735,183.085171 C280.378211,132.497091 241.215043,77.9655888 241.215043,5.95473077 L203.255496,0 C171.858074,50.5157563 161.000301,112.71088 154.8,196.15493 Z" id="Shirt" fill="#F2F2F2"></path>
                    <path d="M200.397254,-1.15463195e-14 C201.681414,-1.0658141e-14 202.857625,0.0804858911 203.925887,0.241457673 L215.81113,0.920104176 C249.905656,116.514642 259.308723,193.637518 244.02033,232.288732 L244.02033,232.288732 L140.440704,232.289703 C134.303897,246.604923 128.431484,258.649201 122.823467,268.422535 L122.823467,268.422535 L94.6,268.422535 C91.9437546,182.504446 112.363267,109.581355 155.858538,49.6532633 C150.345607,48.0703342 145.97899,44.3725516 142.76,38.5619775 C128.885718,13.517614 133.896371,-0.271163173 148.723578,-4.80361208 C163.550785,-9.33606099 176.773549,-3.55271368e-14 200.397254,-1.15463195e-14 Z" id="Coat-Front" fill="#FF9B21"></path>
                    <path d="M178.88,232.288732 L140.440704,232.289703 C147.599383,215.590782 155.117839,195.801658 162.996073,172.922331 C166.253384,200.186862 171.548095,219.976693 178.88,232.288732 Z" id="Shade" fill-opacity="0.1" fill="#000000"></path>
                </g>
            </g>
        </g>
    </g>
</svg>