<?xml version="1.0" encoding="UTF-8"?>
<svg width="1200px" height="675px" viewBox="0 0 1200 675" version="1.1" xmlns="http://www.w3.org/2000/svg" xmlns:xlink="http://www.w3.org/1999/xlink">
    <!-- Generator: Sketch 61.2 (89653) - https://sketch.com -->
    <title>Daisy</title>
    <desc>Created with Sketch.</desc>
    <g id="Daisy" stroke="none" stroke-width="1" fill="none" fill-rule="evenodd">
        <path d="M99.936,606 C103.488,606 106.528,605.32 109.056,603.96 C111.584,602.6 113.52,600.632 114.864,598.056 C116.208,595.48 116.88,592.368 116.88,588.72 C116.88,585.072 116.2,581.976 114.84,579.432 C113.48,576.888 111.544,574.96 109.032,573.648 C106.52,572.336 103.504,571.68 99.984,571.68 L99.984,571.68 L88.8,571.68 L88.8,606 L99.936,606 Z M99.648,603.456 L91.776,603.456 L91.776,574.224 L99.696,574.224 C104.176,574.224 107.64,575.448 110.088,577.896 C112.536,580.344 113.76,583.952 113.76,588.72 C113.76,593.552 112.536,597.216 110.088,599.712 C107.64,602.208 104.16,603.456 99.648,603.456 L99.648,603.456 Z M129.984,606.624 C131.648,606.624 133.16,606.32 134.52,605.712 C135.88,605.104 137.088,604.208 138.144,603.024 C138.304,605.328 139.584,606.48 141.984,606.48 C143.008,606.48 143.84,606.304 144.48,605.952 L144.48,605.952 L144.48,603.792 C143.904,604.08 143.28,604.224 142.608,604.224 C142,604.224 141.56,604.056 141.288,603.72 C141.016,603.384 140.88,602.864 140.88,602.16 L140.88,602.16 L140.88,589.248 C140.88,587.52 140.52,586.04 139.8,584.808 C139.08,583.576 138.056,582.632 136.728,581.976 C135.4,581.32 133.808,580.992 131.952,580.992 C129.072,580.992 126.336,581.728 123.744,583.2 L123.744,583.2 L123.744,585.888 C125.056,585.024 126.36,584.392 127.656,583.992 C128.952,583.592 130.336,583.392 131.808,583.392 C133.824,583.392 135.368,583.92 136.44,584.976 C137.512,586.032 138.048,587.552 138.048,589.536 L138.048,589.536 L138.048,592.752 C137.28,592.656 136.416,592.576 135.456,592.512 C134.496,592.448 133.616,592.416 132.816,592.416 C129.328,592.416 126.656,593.056 124.8,594.336 C122.944,595.616 122.016,597.44 122.016,599.808 C122.016,601.952 122.72,603.624 124.128,604.824 C125.536,606.024 127.488,606.624 129.984,606.624 Z M130.272,604.32 C126.688,604.32 124.896,602.8 124.896,599.76 C124.896,597.968 125.552,596.664 126.864,595.848 C128.176,595.032 130.224,594.624 133.008,594.624 C133.84,594.624 134.696,594.656 135.576,594.72 C136.456,594.784 137.28,594.864 138.048,594.96 L138.048,594.96 L138.048,600.576 C135.968,603.072 133.376,604.32 130.272,604.32 Z M150.768,575.472 C151.408,575.472 151.92,575.28 152.304,574.896 C152.688,574.512 152.88,574.016 152.88,573.408 C152.88,572.8 152.688,572.312 152.304,571.944 C151.92,571.576 151.408,571.392 150.768,571.392 C150.16,571.392 149.664,571.576 149.28,571.944 C148.896,572.312 148.704,572.8 148.704,573.408 C148.704,574.016 148.896,574.512 149.28,574.896 C149.664,575.28 150.16,575.472 150.768,575.472 Z M152.208,606 L152.208,581.616 L149.376,581.616 L149.376,606 L152.208,606 Z M166.56,606.624 C168.48,606.624 170.144,606.328 171.552,605.736 C172.96,605.144 174.04,604.304 174.792,603.216 C175.544,602.128 175.92,600.848 175.92,599.376 C175.92,598.128 175.656,597.08 175.128,596.232 C174.6,595.384 173.744,594.648 172.56,594.024 C171.376,593.4 169.76,592.832 167.712,592.32 C166.464,592 165.448,591.688 164.664,591.384 C163.88,591.08 163.264,590.76 162.816,590.424 C162.368,590.088 162.056,589.688 161.88,589.224 C161.704,588.76 161.616,588.224 161.616,587.616 C161.616,586.272 162.168,585.224 163.272,584.472 C164.376,583.72 165.872,583.344 167.76,583.344 C170.704,583.344 173.104,584.128 174.96,585.696 L174.96,585.696 L174.96,582.864 C174.032,582.224 172.96,581.752 171.744,581.448 C170.528,581.144 169.216,580.992 167.808,580.992 C165.984,580.992 164.4,581.264 163.056,581.808 C161.712,582.352 160.672,583.136 159.936,584.16 C159.2,585.184 158.832,586.416 158.832,587.856 C158.832,589.072 159.08,590.104 159.576,590.952 C160.072,591.8 160.92,592.52 162.12,593.112 C163.32,593.704 164.944,594.272 166.992,594.816 C168.624,595.2 169.88,595.6 170.76,596.016 C171.64,596.432 172.248,596.928 172.584,597.504 C172.92,598.08 173.088,598.8 173.088,599.664 C173.088,601.136 172.536,602.272 171.432,603.072 C170.328,603.872 168.768,604.272 166.752,604.272 C165.248,604.272 163.808,604.056 162.432,603.624 C161.056,603.192 159.856,602.56 158.832,601.728 L158.832,601.728 L158.832,604.608 C160.016,605.312 161.264,605.824 162.576,606.144 C163.888,606.464 165.216,606.624 166.56,606.624 Z M181.68,617.472 C184.4,617.472 186.544,615.792 188.112,612.432 C188.368,611.888 188.72,611.104 189.168,610.08 C189.616,609.056 190.136,607.856 190.728,606.48 C191.32,605.104 191.96,603.6 192.648,601.968 C193.336,600.336 194.048,598.64 194.784,596.88 C195.52,595.12 196.256,593.352 196.992,591.576 C197.728,589.8 198.448,588.064 199.152,586.368 C199.856,584.672 200.496,583.088 201.072,581.616 L201.072,581.616 L198.144,581.616 C196.832,585.104 195.504,588.6 194.16,592.104 C192.816,595.608 191.376,599.104 189.84,602.592 C188.4,599.104 187,595.616 185.64,592.128 C184.28,588.64 182.96,585.136 181.68,581.616 L181.68,581.616 L178.656,581.616 C180.16,585.616 181.728,589.624 183.36,593.64 C184.992,597.656 186.688,601.68 188.448,605.712 C188,606.768 187.528,607.832 187.032,608.904 C186.536,609.976 186.016,611.024 185.472,612.048 C184.896,613.136 184.296,613.912 183.672,614.376 C183.048,614.84 182.272,615.072 181.344,615.072 C180.832,615.072 180.344,615.024 179.88,614.928 C179.416,614.832 179.008,614.688 178.656,614.496 L178.656,614.496 L178.656,616.896 C179.584,617.28 180.592,617.472 181.68,617.472 Z" id="–Daisy" fill="#FFFFFF" fill-rule="nonzero"></path>
        <path d="M104.792,125 L104.792,73.52 L90.752,73.52 L90.752,125 L104.792,125 Z M138.344,126.08 C144.776,126.08 149.72,124.328 153.176,120.824 C156.632,117.32 158.36,112.304 158.36,105.776 L158.36,105.776 L158.36,73.52 L144.32,73.52 L144.32,105.416 C144.32,111.128 141.488,113.984 135.824,113.984 C134.048,113.984 132.392,113.78 130.856,113.372 C129.32,112.964 127.928,112.376 126.68,111.608 L126.68,111.608 L126.68,123.56 C128.168,124.328 129.92,124.94 131.936,125.396 C133.952,125.852 136.088,126.08 138.344,126.08 Z M190.328,126.08 C195.08,126.08 199.148,125.168 202.532,123.344 C205.916,121.52 208.508,118.892 210.308,115.46 C212.108,112.028 213.008,107.936 213.008,103.184 L213.008,103.184 L213.008,73.52 L199.184,73.52 L199.184,104.768 C199.184,107.696 198.416,109.964 196.88,111.572 C195.344,113.18 193.16,113.984 190.328,113.984 C187.544,113.984 185.372,113.18 183.812,111.572 C182.252,109.964 181.472,107.696 181.472,104.768 L181.472,104.768 L181.472,73.52 L167.432,73.52 L167.432,103.184 C167.432,107.936 168.344,112.028 170.168,115.46 C171.992,118.892 174.62,121.52 178.052,123.344 C181.484,125.168 185.576,126.08 190.328,126.08 Z M237.848,126.08 C242.552,126.08 246.548,125.432 249.836,124.136 C253.124,122.84 255.644,120.944 257.396,118.448 C259.148,115.952 260.024,112.928 260.024,109.376 C260.024,106.688 259.592,104.444 258.728,102.644 C257.864,100.844 256.64,99.356 255.056,98.18 C253.472,97.004 251.6,96.008 249.44,95.192 C247.28,94.376 244.88,93.656 242.24,93.032 C239.696,92.408 237.74,91.748 236.372,91.052 C235.004,90.356 234.32,89.312 234.32,87.92 C234.32,86.576 234.98,85.556 236.3,84.86 C237.62,84.164 239.48,83.816 241.88,83.816 C243.56,83.816 245.3,83.972 247.1,84.284 C248.9,84.596 250.688,85.052 252.464,85.652 C254.24,86.252 255.92,87.032 257.504,87.992 L257.504,87.992 L257.504,75.968 C255.296,74.864 252.824,74 250.088,73.376 C247.352,72.752 244.568,72.44 241.736,72.44 C237.368,72.44 233.576,73.1 230.36,74.42 C227.144,75.74 224.672,77.624 222.944,80.072 C221.216,82.52 220.352,85.472 220.352,88.928 C220.352,91.184 220.688,93.152 221.36,94.832 C222.032,96.512 223.088,97.988 224.528,99.26 C225.968,100.532 227.84,101.648 230.144,102.608 C232.448,103.568 235.232,104.432 238.496,105.2 C239.984,105.536 241.28,105.92 242.384,106.352 C243.488,106.784 244.352,107.3 244.976,107.9 C245.6,108.5 245.912,109.304 245.912,110.312 C245.912,111.704 245.216,112.784 243.824,113.552 C242.432,114.32 240.368,114.704 237.632,114.704 C234.848,114.704 232.052,114.308 229.244,113.516 C226.436,112.724 223.688,111.56 221,110.024 L221,110.024 L221,122.192 C223.784,123.536 226.556,124.52 229.316,125.144 C232.076,125.768 234.92,126.08 237.848,126.08 Z M293.072,125 L293.072,85.616 L308.48,85.616 L308.48,73.52 L263.624,73.52 L263.624,85.616 L279.032,85.616 L279.032,125 L293.072,125 Z M343.904,125 L343.904,108.656 L349.664,108.656 C354.32,108.656 358.256,107.972 361.472,106.604 C364.688,105.236 367.136,103.244 368.816,100.628 C370.496,98.012 371.336,94.832 371.336,91.088 C371.336,85.424 369.476,81.08 365.756,78.056 C362.036,75.032 356.672,73.52 349.664,73.52 L349.664,73.52 L330.296,73.52 L330.296,125 L343.904,125 Z M349.016,97.856 L343.904,97.856 L343.904,84.32 L349.016,84.32 C354.44,84.32 357.152,86.576 357.152,91.088 C357.152,95.6 354.44,97.856 349.016,97.856 L349.016,97.856 Z M415.4,125 L415.4,112.904 L392.504,112.904 L392.504,73.52 L378.464,73.52 L378.464,125 L415.4,125 Z M431.816,125 C432.824,121.736 433.808,118.52 434.768,115.352 L434.768,115.352 L453.56,115.352 C454.04,116.936 454.532,118.532 455.036,120.14 C455.54,121.748 456.032,123.368 456.512,125 L456.512,125 L471.704,125 C468.632,116.408 465.464,107.816 462.2,99.224 C458.936,90.632 455.576,82.064 452.12,73.52 L452.12,73.52 L436.64,73.52 C433.28,81.632 429.968,89.984 426.704,98.576 C423.44,107.168 420.224,115.976 417.056,125 L417.056,125 L431.816,125 Z M450.104,104.408 L438.224,104.408 C439.184,101.432 440.168,98.468 441.176,95.516 C442.184,92.564 443.192,89.6 444.2,86.624 C445.208,89.552 446.204,92.492 447.188,95.444 C448.172,98.396 449.144,101.384 450.104,104.408 L450.104,104.408 Z M506.408,125 L506.408,105.92 C509.72,100.544 512.984,95.156 516.2,89.756 C519.416,84.356 522.56,78.944 525.632,73.52 L525.632,73.52 L510.224,73.52 C508.544,76.928 506.816,80.348 505.04,83.78 C503.264,87.212 501.488,90.632 499.712,94.04 C497.888,90.632 496.1,87.224 494.348,83.816 C492.596,80.408 490.856,76.976 489.128,73.52 L489.128,73.52 L473.216,73.52 C476.24,78.944 479.36,84.356 482.576,89.756 C485.792,95.156 489.056,100.544 492.368,105.92 L492.368,105.92 L492.368,125 L506.408,125 Z M569.48,125 L569.48,113.768 L544.928,113.768 L544.928,104.408 L565.232,104.408 L565.232,93.176 L544.928,93.176 L544.928,84.752 L568.112,84.752 L568.112,73.52 L531.248,73.52 L531.248,125 L569.48,125 Z M597.2,125 C602.672,125 607.34,123.98 611.204,121.94 C615.068,119.9 618.02,116.96 620.06,113.12 C622.1,109.28 623.12,104.624 623.12,99.152 C623.12,93.728 622.1,89.108 620.06,85.292 C618.02,81.476 615.068,78.56 611.204,76.544 C607.34,74.528 602.696,73.52 597.272,73.52 L597.272,73.52 L576.248,73.52 L576.248,125 L597.2,125 Z M596.552,113.048 L590.288,113.048 L590.288,85.472 L596.624,85.472 C600.56,85.472 603.536,86.636 605.552,88.964 C607.568,91.292 608.576,94.688 608.576,99.152 C608.576,103.664 607.556,107.108 605.516,109.484 C603.476,111.86 600.488,113.048 596.552,113.048 L596.552,113.048 Z M672.512,125 L672.512,85.616 L687.92,85.616 L687.92,73.52 L643.064,73.52 L643.064,85.616 L658.472,85.616 L658.472,125 L672.512,125 Z M707.72,125 L707.72,104.192 L726.008,104.192 L726.008,125 L740.048,125 L740.048,73.52 L726.008,73.52 L726.008,92.096 L707.72,92.096 L707.72,73.52 L693.68,73.52 L693.68,125 L707.72,125 Z M763.592,125 L763.592,73.52 L749.552,73.52 L749.552,125 L763.592,125 Z M788.648,126.08 C793.352,126.08 797.348,125.432 800.636,124.136 C803.924,122.84 806.444,120.944 808.196,118.448 C809.948,115.952 810.824,112.928 810.824,109.376 C810.824,106.688 810.392,104.444 809.528,102.644 C808.664,100.844 807.44,99.356 805.856,98.18 C804.272,97.004 802.4,96.008 800.24,95.192 C798.08,94.376 795.68,93.656 793.04,93.032 C790.496,92.408 788.54,91.748 787.172,91.052 C785.804,90.356 785.12,89.312 785.12,87.92 C785.12,86.576 785.78,85.556 787.1,84.86 C788.42,84.164 790.28,83.816 792.68,83.816 C794.36,83.816 796.1,83.972 797.9,84.284 C799.7,84.596 801.488,85.052 803.264,85.652 C805.04,86.252 806.72,87.032 808.304,87.992 L808.304,87.992 L808.304,75.968 C806.096,74.864 803.624,74 800.888,73.376 C798.152,72.752 795.368,72.44 792.536,72.44 C788.168,72.44 784.376,73.1 781.16,74.42 C777.944,75.74 775.472,77.624 773.744,80.072 C772.016,82.52 771.152,85.472 771.152,88.928 C771.152,91.184 771.488,93.152 772.16,94.832 C772.832,96.512 773.888,97.988 775.328,99.26 C776.768,100.532 778.64,101.648 780.944,102.608 C783.248,103.568 786.032,104.432 789.296,105.2 C790.784,105.536 792.08,105.92 793.184,106.352 C794.288,106.784 795.152,107.3 795.776,107.9 C796.4,108.5 796.712,109.304 796.712,110.312 C796.712,111.704 796.016,112.784 794.624,113.552 C793.232,114.32 791.168,114.704 788.432,114.704 C785.648,114.704 782.852,114.308 780.044,113.516 C777.236,112.724 774.488,111.56 771.8,110.024 L771.8,110.024 L771.8,122.192 C774.584,123.536 777.356,124.52 780.116,125.144 C782.876,125.768 785.72,126.08 788.648,126.08 Z M825.368,125.648 C826.904,125.648 828.224,125.324 829.328,124.676 C830.432,124.028 831.284,123.164 831.884,122.084 C832.484,121.004 832.784,119.816 832.784,118.52 C832.784,117.224 832.484,116.036 831.884,114.956 C831.284,113.876 830.432,113.024 829.328,112.4 C828.224,111.776 826.904,111.464 825.368,111.464 C823.832,111.464 822.512,111.776 821.408,112.4 C820.304,113.024 819.452,113.876 818.852,114.956 C818.252,116.036 817.952,117.224 817.952,118.52 C817.952,119.816 818.252,121.004 818.852,122.084 C819.452,123.164 820.304,124.028 821.408,124.676 C822.512,125.324 823.832,125.648 825.368,125.648 Z M849.416,125.648 C850.952,125.648 852.272,125.324 853.376,124.676 C854.48,124.028 855.332,123.164 855.932,122.084 C856.532,121.004 856.832,119.816 856.832,118.52 C856.832,117.224 856.532,116.036 855.932,114.956 C855.332,113.876 854.48,113.024 853.376,112.4 C852.272,111.776 850.952,111.464 849.416,111.464 C847.88,111.464 846.56,111.776 845.456,112.4 C844.352,113.024 843.5,113.876 842.9,114.956 C842.3,116.036 842,117.224 842,118.52 C842,119.816 842.3,121.004 842.9,122.084 C843.5,123.164 844.352,124.028 845.456,124.676 C846.56,125.324 847.88,125.648 849.416,125.648 Z M873.464,125.648 C875,125.648 876.32,125.324 877.424,124.676 C878.528,124.028 879.38,123.164 879.98,122.084 C880.58,121.004 880.88,119.816 880.88,118.52 C880.88,117.224 880.58,116.036 879.98,114.956 C879.38,113.876 878.528,113.024 877.424,112.4 C876.32,111.776 875,111.464 873.464,111.464 C871.928,111.464 870.608,111.776 869.504,112.4 C868.4,113.024 867.548,113.876 866.948,114.956 C866.348,116.036 866.048,117.224 866.048,118.52 C866.048,119.816 866.348,121.004 866.948,122.084 C867.548,123.164 868.4,124.028 869.504,124.676 C870.608,125.324 871.928,125.648 873.464,125.648 Z" id="IJUSTPLAYEDTHIS…" fill="#FFFFFF" fill-rule="nonzero"></path>
    </g>
</svg>