<?xml version="1.0" encoding="UTF-8"?>
<svg width="1200px" height="675px" viewBox="0 0 1200 675" version="1.1" xmlns="http://www.w3.org/2000/svg" xmlns:xlink="http://www.w3.org/1999/xlink">
    <!-- Generator: Sketch 61.2 (89653) - https://sketch.com -->
    <title>Daisy</title>
    <desc>Created with Sketch.</desc>
    <g id="Daisy" stroke="none" stroke-width="1" fill="none" fill-rule="evenodd">
        <g id="I-JUST-PLAYED-THIS…A" transform="translate(90.752000, 72.440000)" fill="#FFFFFF" fill-rule="nonzero">
            <path d="M14.04,52.56 L14.04,1.08 L2.27373675e-13,1.08 L2.27373675e-13,52.56 L14.04,52.56 Z M47.592,53.64 C54.024,53.64 58.968,51.888 62.424,48.384 C65.88,44.88 67.608,39.864 67.608,33.336 L67.608,33.336 L67.608,1.08 L53.568,1.08 L53.568,32.976 C53.568,38.688 50.736,41.544 45.072,41.544 C43.296,41.544 41.64,41.34 40.104,40.932 C38.568,40.524 37.176,39.936 35.928,39.168 L35.928,39.168 L35.928,51.12 C37.416,51.888 39.168,52.5 41.184,52.956 C43.2,53.412 45.336,53.64 47.592,53.64 Z M99.576,53.64 C104.328,53.64 108.396,52.728 111.78,50.904 C115.164,49.08 117.756,46.452 119.556,43.02 C121.356,39.588 122.256,35.496 122.256,30.744 L122.256,30.744 L122.256,1.08 L108.432,1.08 L108.432,32.328 C108.432,35.256 107.664,37.524 106.128,39.132 C104.592,40.74 102.408,41.544 99.576,41.544 C96.792,41.544 94.62,40.74 93.06,39.132 C91.5,37.524 90.72,35.256 90.72,32.328 L90.72,32.328 L90.72,1.08 L76.68,1.08 L76.68,30.744 C76.68,35.496 77.592,39.588 79.416,43.02 C81.24,46.452 83.868,49.08 87.3,50.904 C90.732,52.728 94.824,53.64 99.576,53.64 Z M147.096,53.64 C151.8,53.64 155.796,52.992 159.084,51.696 C162.372,50.4 164.892,48.504 166.644,46.008 C168.396,43.512 169.272,40.488 169.272,36.936 C169.272,34.248 168.84,32.004 167.976,30.204 C167.112,28.404 165.888,26.916 164.304,25.74 C162.72,24.564 160.848,23.568 158.688,22.752 C156.528,21.936 154.128,21.216 151.488,20.592 C148.944,19.968 146.988,19.308 145.62,18.612 C144.252,17.916 143.568,16.872 143.568,15.48 C143.568,14.136 144.228,13.116 145.548,12.42 C146.868,11.724 148.728,11.376 151.128,11.376 C152.808,11.376 154.548,11.532 156.348,11.844 C158.148,12.156 159.936,12.612 161.712,13.212 C163.488,13.812 165.168,14.592 166.752,15.552 L166.752,15.552 L166.752,3.528 C164.544,2.424 162.072,1.56 159.336,0.936 C156.6,0.312 153.816,0 150.984,0 C146.616,0 142.824,0.66 139.608,1.98 C136.392,3.3 133.92,5.184 132.192,7.632 C130.464,10.08 129.6,13.032 129.6,16.488 C129.6,18.744 129.936,20.712 130.608,22.392 C131.28,24.072 132.336,25.548 133.776,26.82 C135.216,28.092 137.088,29.208 139.392,30.168 C141.696,31.128 144.48,31.992 147.744,32.76 C149.232,33.096 150.528,33.48 151.632,33.912 C152.736,34.344 153.6,34.86 154.224,35.46 C154.848,36.06 155.16,36.864 155.16,37.872 C155.16,39.264 154.464,40.344 153.072,41.112 C151.68,41.88 149.616,42.264 146.88,42.264 C144.096,42.264 141.3,41.868 138.492,41.076 C135.684,40.284 132.936,39.12 130.248,37.584 L130.248,37.584 L130.248,49.752 C133.032,51.096 135.804,52.08 138.564,52.704 C141.324,53.328 144.168,53.64 147.096,53.64 Z M202.32,52.56 L202.32,13.176 L217.728,13.176 L217.728,1.08 L172.872,1.08 L172.872,13.176 L188.28,13.176 L188.28,52.56 L202.32,52.56 Z M253.152,52.56 L253.152,36.216 L258.912,36.216 C263.568,36.216 267.504,35.532 270.72,34.164 C273.936,32.796 276.384,30.804 278.064,28.188 C279.744,25.572 280.584,22.392 280.584,18.648 C280.584,12.984 278.724,8.64 275.004,5.616 C271.284,2.592 265.92,1.08 258.912,1.08 L258.912,1.08 L239.544,1.08 L239.544,52.56 L253.152,52.56 Z M258.264,25.416 L253.152,25.416 L253.152,11.88 L258.264,11.88 C263.688,11.88 266.4,14.136 266.4,18.648 C266.4,23.16 263.688,25.416 258.264,25.416 L258.264,25.416 Z M324.648,52.56 L324.648,40.464 L301.752,40.464 L301.752,1.08 L287.712,1.08 L287.712,52.56 L324.648,52.56 Z M341.064,52.56 C342.072,49.296 343.056,46.08 344.016,42.912 L344.016,42.912 L362.808,42.912 C363.288,44.496 363.78,46.092 364.284,47.7 C364.788,49.308 365.28,50.928 365.76,52.56 L365.76,52.56 L380.952,52.56 C377.88,43.968 374.712,35.376 371.448,26.784 C368.184,18.192 364.824,9.624 361.368,1.08 L361.368,1.08 L345.888,1.08 C342.528,9.192 339.216,17.544 335.952,26.136 C332.688,34.728 329.472,43.536 326.304,52.56 L326.304,52.56 L341.064,52.56 Z M359.352,31.968 L347.472,31.968 C348.432,28.992 349.416,26.028 350.424,23.076 C351.432,20.124 352.44,17.16 353.448,14.184 C354.456,17.112 355.452,20.052 356.436,23.004 C357.42,25.956 358.392,28.944 359.352,31.968 L359.352,31.968 Z M415.656,52.56 L415.656,33.48 C418.968,28.104 422.232,22.716 425.448,17.316 C428.664,11.916 431.808,6.504 434.88,1.08 L434.88,1.08 L419.472,1.08 C417.792,4.488 416.064,7.908 414.288,11.34 C412.512,14.772 410.736,18.192 408.96,21.6 C407.136,18.192 405.348,14.784 403.596,11.376 C401.844,7.968 400.104,4.536 398.376,1.08 L398.376,1.08 L382.464,1.08 C385.488,6.504 388.608,11.916 391.824,17.316 C395.04,22.716 398.304,28.104 401.616,33.48 L401.616,33.48 L401.616,52.56 L415.656,52.56 Z M478.728,52.56 L478.728,41.328 L454.176,41.328 L454.176,31.968 L474.48,31.968 L474.48,20.736 L454.176,20.736 L454.176,12.312 L477.36,12.312 L477.36,1.08 L440.496,1.08 L440.496,52.56 L478.728,52.56 Z M506.448,52.56 C511.92,52.56 516.588,51.54 520.452,49.5 C524.316,47.46 527.268,44.52 529.308,40.68 C531.348,36.84 532.368,32.184 532.368,26.712 C532.368,21.288 531.348,16.668 529.308,12.852 C527.268,9.036 524.316,6.12 520.452,4.104 C516.588,2.088 511.944,1.08 506.52,1.08 L506.52,1.08 L485.496,1.08 L485.496,52.56 L506.448,52.56 Z M505.8,40.608 L499.536,40.608 L499.536,13.032 L505.872,13.032 C509.808,13.032 512.784,14.196 514.8,16.524 C516.816,18.852 517.824,22.248 517.824,26.712 C517.824,31.224 516.804,34.668 514.764,37.044 C512.724,39.42 509.736,40.608 505.8,40.608 L505.8,40.608 Z M581.76,52.56 L581.76,13.176 L597.168,13.176 L597.168,1.08 L552.312,1.08 L552.312,13.176 L567.72,13.176 L567.72,52.56 L581.76,52.56 Z M616.968,52.56 L616.968,31.752 L635.256,31.752 L635.256,52.56 L649.296,52.56 L649.296,1.08 L635.256,1.08 L635.256,19.656 L616.968,19.656 L616.968,1.08 L602.928,1.08 L602.928,52.56 L616.968,52.56 Z M672.84,52.56 L672.84,1.08 L658.8,1.08 L658.8,52.56 L672.84,52.56 Z M697.896,53.64 C702.6,53.64 706.596,52.992 709.884,51.696 C713.172,50.4 715.692,48.504 717.444,46.008 C719.196,43.512 720.072,40.488 720.072,36.936 C720.072,34.248 719.64,32.004 718.776,30.204 C717.912,28.404 716.688,26.916 715.104,25.74 C713.52,24.564 711.648,23.568 709.488,22.752 C707.328,21.936 704.928,21.216 702.288,20.592 C699.744,19.968 697.788,19.308 696.42,18.612 C695.052,17.916 694.368,16.872 694.368,15.48 C694.368,14.136 695.028,13.116 696.348,12.42 C697.668,11.724 699.528,11.376 701.928,11.376 C703.608,11.376 705.348,11.532 707.148,11.844 C708.948,12.156 710.736,12.612 712.512,13.212 C714.288,13.812 715.968,14.592 717.552,15.552 L717.552,15.552 L717.552,3.528 C715.344,2.424 712.872,1.56 710.136,0.936 C707.4,0.312 704.616,0 701.784,0 C697.416,0 693.624,0.66 690.408,1.98 C687.192,3.3 684.72,5.184 682.992,7.632 C681.264,10.08 680.4,13.032 680.4,16.488 C680.4,18.744 680.736,20.712 681.408,22.392 C682.08,24.072 683.136,25.548 684.576,26.82 C686.016,28.092 687.888,29.208 690.192,30.168 C692.496,31.128 695.28,31.992 698.544,32.76 C700.032,33.096 701.328,33.48 702.432,33.912 C703.536,34.344 704.4,34.86 705.024,35.46 C705.648,36.06 705.96,36.864 705.96,37.872 C705.96,39.264 705.264,40.344 703.872,41.112 C702.48,41.88 700.416,42.264 697.68,42.264 C694.896,42.264 692.1,41.868 689.292,41.076 C686.484,40.284 683.736,39.12 681.048,37.584 L681.048,37.584 L681.048,49.752 C683.832,51.096 686.604,52.08 689.364,52.704 C692.124,53.328 694.968,53.64 697.896,53.64 Z M734.616,53.208 C736.152,53.208 737.472,52.884 738.576,52.236 C739.68,51.588 740.532,50.724 741.132,49.644 C741.732,48.564 742.032,47.376 742.032,46.08 C742.032,44.784 741.732,43.596 741.132,42.516 C740.532,41.436 739.68,40.584 738.576,39.96 C737.472,39.336 736.152,39.024 734.616,39.024 C733.08,39.024 731.76,39.336 730.656,39.96 C729.552,40.584 728.7,41.436 728.1,42.516 C727.5,43.596 727.2,44.784 727.2,46.08 C727.2,47.376 727.5,48.564 728.1,49.644 C728.7,50.724 729.552,51.588 730.656,52.236 C731.76,52.884 733.08,53.208 734.616,53.208 Z M758.664,53.208 C760.2,53.208 761.52,52.884 762.624,52.236 C763.728,51.588 764.58,50.724 765.18,49.644 C765.78,48.564 766.08,47.376 766.08,46.08 C766.08,44.784 765.78,43.596 765.18,42.516 C764.58,41.436 763.728,40.584 762.624,39.96 C761.52,39.336 760.2,39.024 758.664,39.024 C757.128,39.024 755.808,39.336 754.704,39.96 C753.6,40.584 752.748,41.436 752.148,42.516 C751.548,43.596 751.248,44.784 751.248,46.08 C751.248,47.376 751.548,48.564 752.148,49.644 C752.748,50.724 753.6,51.588 754.704,52.236 C755.808,52.884 757.128,53.208 758.664,53.208 Z M782.712,53.208 C784.248,53.208 785.568,52.884 786.672,52.236 C787.776,51.588 788.628,50.724 789.228,49.644 C789.828,48.564 790.128,47.376 790.128,46.08 C790.128,44.784 789.828,43.596 789.228,42.516 C788.628,41.436 787.776,40.584 786.672,39.96 C785.568,39.336 784.248,39.024 782.712,39.024 C781.176,39.024 779.856,39.336 778.752,39.96 C777.648,40.584 776.796,41.436 776.196,42.516 C775.596,43.596 775.296,44.784 775.296,46.08 C775.296,47.376 775.596,48.564 776.196,49.644 C776.796,50.724 777.648,51.588 778.752,52.236 C779.856,52.884 781.176,53.208 782.712,53.208 Z" id="IJUSTPLAYEDTHIS…" fill-opacity="0"></path>
            <path d="M810.072,52.56 C811.08,49.296 812.064,46.08 813.024,42.912 L813.024,42.912 L831.816,42.912 C832.296,44.496 832.788,46.092 833.292,47.7 C833.796,49.308 834.288,50.928 834.768,52.56 L834.768,52.56 L849.96,52.56 C846.888,43.968 843.72,35.376 840.456,26.784 C837.192,18.192 833.832,9.624 830.376,1.08 L830.376,1.08 L814.896,1.08 C811.536,9.192 808.224,17.544 804.96,26.136 C801.696,34.728 798.48,43.536 795.312,52.56 L795.312,52.56 L810.072,52.56 Z M828.36,31.968 L816.48,31.968 C817.44,28.992 818.424,26.028 819.432,23.076 C820.44,20.124 821.448,17.16 822.456,14.184 C823.464,17.112 824.46,20.052 825.444,23.004 C826.428,25.956 827.4,28.944 828.36,31.968 L828.36,31.968 Z M881.064,52.56 L881.064,13.176 L896.472,13.176 L896.472,1.08 L851.616,1.08 L851.616,13.176 L867.024,13.176 L867.024,52.56 L881.064,52.56 Z M14.04,132.56 L14.04,111.752 L32.328,111.752 L32.328,132.56 L46.368,132.56 L46.368,81.08 L32.328,81.08 L32.328,99.656 L14.04,99.656 L14.04,81.08 L-1.08002496e-12,81.08 L-1.08002496e-12,132.56 L14.04,132.56 Z M80.136,133.64 C84.12,133.64 87.72,133.016 90.936,131.768 C94.152,130.52 96.9,128.72 99.18,126.368 C101.46,124.016 103.212,121.184 104.436,117.872 C105.66,114.56 106.272,110.864 106.272,106.784 C106.272,102.656 105.66,98.948 104.436,95.66 C103.212,92.372 101.46,89.564 99.18,87.236 C96.9,84.908 94.152,83.12 90.936,81.872 C87.72,80.624 84.12,80 80.136,80 C76.152,80 72.552,80.624 69.336,81.872 C66.12,83.12 63.372,84.908 61.092,87.236 C58.812,89.564 57.06,92.372 55.836,95.66 C54.612,98.948 54,102.656 54,106.784 C54,110.864 54.612,114.56 55.836,117.872 C57.06,121.184 58.812,124.016 61.092,126.368 C63.372,128.72 66.12,130.52 69.336,131.768 C72.552,133.016 76.152,133.64 80.136,133.64 Z M80.136,121.544 C76.392,121.544 73.524,120.272 71.532,117.728 C69.54,115.184 68.544,111.536 68.544,106.784 C68.544,102.08 69.54,98.456 71.532,95.912 C73.524,93.368 76.392,92.096 80.136,92.096 C83.88,92.096 86.748,93.368 88.74,95.912 C90.732,98.456 91.728,102.08 91.728,106.784 C91.728,111.536 90.732,115.184 88.74,117.728 C86.748,120.272 83.88,121.544 80.136,121.544 Z M127.008,132.56 L127.008,101.312 C128.592,104.96 130.212,108.608 131.868,112.256 C133.524,115.904 135.192,119.552 136.872,123.2 L136.872,123.2 L147.672,123.2 C149.304,119.552 150.924,115.892 152.532,112.22 C154.14,108.548 155.736,104.84 157.32,101.096 L157.32,101.096 L157.32,132.56 L170.424,132.56 L170.424,81.08 L153.72,81.08 C151.896,85.928 150.048,90.716 148.176,95.444 C146.304,100.172 144.408,104.84 142.488,109.448 C140.472,104.792 138.492,100.088 136.548,95.336 C134.604,90.584 132.696,85.832 130.824,81.08 L130.824,81.08 L113.904,81.08 L113.904,132.56 L127.008,132.56 Z M218.16,132.56 L218.16,121.328 L193.608,121.328 L193.608,111.968 L213.912,111.968 L213.912,100.736 L193.608,100.736 L193.608,92.312 L216.792,92.312 L216.792,81.08 L179.928,81.08 L179.928,132.56 L218.16,132.56 Z M232.128,133.208 C233.664,133.208 234.984,132.884 236.088,132.236 C237.192,131.588 238.044,130.724 238.644,129.644 C239.244,128.564 239.544,127.376 239.544,126.08 C239.544,124.784 239.244,123.596 238.644,122.516 C238.044,121.436 237.192,120.584 236.088,119.96 C234.984,119.336 233.664,119.024 232.128,119.024 C230.592,119.024 229.272,119.336 228.168,119.96 C227.064,120.584 226.212,121.436 225.612,122.516 C225.012,123.596 224.712,124.784 224.712,126.08 C224.712,127.376 225.012,128.564 225.612,129.644 C226.212,130.724 227.064,131.588 228.168,132.236 C229.272,132.884 230.592,133.208 232.128,133.208 Z M256.176,133.208 C257.712,133.208 259.032,132.884 260.136,132.236 C261.24,131.588 262.092,130.724 262.692,129.644 C263.292,128.564 263.592,127.376 263.592,126.08 C263.592,124.784 263.292,123.596 262.692,122.516 C262.092,121.436 261.24,120.584 260.136,119.96 C259.032,119.336 257.712,119.024 256.176,119.024 C254.64,119.024 253.32,119.336 252.216,119.96 C251.112,120.584 250.26,121.436 249.66,122.516 C249.06,123.596 248.76,124.784 248.76,126.08 C248.76,127.376 249.06,128.564 249.66,129.644 C250.26,130.724 251.112,131.588 252.216,132.236 C253.32,132.884 254.64,133.208 256.176,133.208 Z M280.224,133.208 C281.76,133.208 283.08,132.884 284.184,132.236 C285.288,131.588 286.14,130.724 286.74,129.644 C287.34,128.564 287.64,127.376 287.64,126.08 C287.64,124.784 287.34,123.596 286.74,122.516 C286.14,121.436 285.288,120.584 284.184,119.96 C283.08,119.336 281.76,119.024 280.224,119.024 C278.688,119.024 277.368,119.336 276.264,119.96 C275.16,120.584 274.308,121.436 273.708,122.516 C273.108,123.596 272.808,124.784 272.808,126.08 C272.808,127.376 273.108,128.564 273.708,129.644 C274.308,130.724 275.16,131.588 276.264,132.236 C277.368,132.884 278.688,133.208 280.224,133.208 Z" id="ATHOME…"></path>
        </g>
    </g>
</svg>