<svg width="1200" height="677" viewBox="0 0 1200 677" xmlns="http://www.w3.org/2000/svg" xmlns:xlink="http://www.w3.org/1999/xlink"><title>greg-text-11</title><desc>Created with Sketch.</desc><g id="Assets" stroke="none" stroke-width="1" fill="none" fill-rule="evenodd"><g id="Greg" fill="#fff" fill-rule="nonzero"><g id="greg-text-11"><path d="M807.992 265C812.248 265 815.878667 264.206667 818.884 262.62 821.889333 261.033333 824.185333 258.746667 825.772 255.76 827.358667 252.773333 828.152 249.152 828.152 244.896 828.152 240.677333 827.358667 237.084 825.772 234.116 824.185333 231.148 821.889333 228.88 818.884 227.312 815.878667 225.744 812.266667 224.96 808.048 224.96v0H791.696V265H807.992zM807.488 255.704H802.616V234.256H807.544C810.605333 234.256 812.92 235.161333 814.488 236.972 816.056 238.782667 816.84 241.424 816.84 244.896 816.84 248.405333 816.046667 251.084 814.46 252.932 812.873333 254.78 810.549333 255.704 807.488 255.704v0zM852.96 265.84C856.058667 265.84 858.858667 265.354667 861.36 264.384 863.861333 263.413333 865.998667 262.013333 867.772 260.184 869.545333 258.354667 870.908 256.152 871.86 253.576 872.812 251 873.288 248.125333 873.288 244.952 873.288 241.741333 872.812 238.857333 871.86 236.3 870.908 233.742667 869.545333 231.558667 867.772 229.748 865.998667 227.937333 863.861333 226.546667 861.36 225.576 858.858667 224.605333 856.058667 224.12 852.96 224.12 849.861333 224.12 847.061333 224.605333 844.56 225.576 842.058667 226.546667 839.921333 227.937333 838.148 229.748 836.374667 231.558667 835.012 233.742667 834.06 236.3 833.108 238.857333 832.632 241.741333 832.632 244.952 832.632 248.125333 833.108 251 834.06 253.576 835.012 256.152 836.374667 258.354667 838.148 260.184 839.921333 262.013333 842.058667 263.413333 844.56 264.384 847.061333 265.354667 849.861333 265.84 852.96 265.84zM852.96 256.432C850.048 256.432 847.817333 255.442667 846.268 253.464 844.718667 251.485333 843.944 248.648 843.944 244.952 843.944 241.293333 844.718667 238.474667 846.268 236.496 847.817333 234.517333 850.048 233.528 852.96 233.528 855.872 233.528 858.102667 234.517333 859.652 236.496 861.201333 238.474667 861.976 241.293333 861.976 244.952 861.976 248.648 861.201333 251.485333 859.652 253.464 858.102667 255.442667 855.872 256.432 852.96 256.432zM914.504 265V250.16C917.08 245.978667 919.618667 241.788 922.12 237.588 924.621333 233.388 927.066667 229.178667 929.456 224.96v0H917.472C916.165333 227.610667 914.821333 230.270667 913.44 232.94 912.058667 235.609333 910.677333 238.269333 909.296 240.92 907.877333 238.269333 906.486667 235.618667 905.124 232.968 903.761333 230.317333 902.408 227.648 901.064 224.96v0H888.688C891.04 229.178667 893.466667 233.388 895.968 237.588 898.469333 241.788 901.008 245.978667 903.584 250.16v0V265H914.504zM952.696 265.84C955.794667 265.84 958.594667 265.354667 961.096 264.384 963.597333 263.413333 965.734667 262.013333 967.508 260.184 969.281333 258.354667 970.644 256.152 971.596 253.576 972.548 251 973.024 248.125333 973.024 244.952 973.024 241.741333 972.548 238.857333 971.596 236.3 970.644 233.742667 969.281333 231.558667 967.508 229.748 965.734667 227.937333 963.597333 226.546667 961.096 225.576 958.594667 224.605333 955.794667 224.12 952.696 224.12 949.597333 224.12 946.797333 224.605333 944.296 225.576 941.794667 226.546667 939.657333 227.937333 937.884 229.748 936.110667 231.558667 934.748 233.742667 933.796 236.3 932.844 238.857333 932.368 241.741333 932.368 244.952 932.368 248.125333 932.844 251 933.796 253.576 934.748 256.152 936.110667 258.354667 937.884 260.184 939.657333 262.013333 941.794667 263.413333 944.296 264.384 946.797333 265.354667 949.597333 265.84 952.696 265.84zM952.696 256.432C949.784 256.432 947.553333 255.442667 946.004 253.464 944.454667 251.485333 943.68 248.648 943.68 244.952 943.68 241.293333 944.454667 238.474667 946.004 236.496 947.553333 234.517333 949.784 233.528 952.696 233.528 955.608 233.528 957.838667 234.517333 959.388 236.496 960.937333 238.474667 961.712 241.293333 961.712 244.952 961.712 248.648 960.937333 251.485333 959.388 253.464 957.838667 255.442667 955.608 256.432 952.696 256.432zM996.6 265.84C1000.296 265.84 1003.46 265.130667 1006.092 263.712 1008.724 262.293333 1010.74 260.249333 1012.14 257.58 1013.54 254.910667 1014.24 251.728 1014.24 248.032v0V224.96H1003.488V249.264C1003.488 251.541333 1002.89067 253.305333 1001.696 254.556 1000.50133 255.806667 998.802667 256.432 996.6 256.432 994.434667 256.432 992.745333 255.806667 991.532 254.556 990.318667 253.305333 989.712 251.541333 989.712 249.264v0V224.96H978.792V248.032C978.792 251.728 979.501333 254.910667 980.92 257.58 982.338667 260.249333 984.382667 262.293333 987.052 263.712 989.721333 265.130667 992.904 265.84 996.6 265.84zM802.616 327V310.816H816.84V327H827.76V286.96H816.84V301.408H802.616V286.96H791.696V327H802.616zM843.44 327C844.224 324.461333 844.989333 321.96 845.736 319.496v0H860.352C860.725333 320.728 861.108 321.969333 861.5 323.22 861.892 324.470667 862.274667 325.730667 862.648 327v0H874.464C872.074667 320.317333 869.610667 313.634667 867.072 306.952 864.533333 300.269333 861.92 293.605333 859.232 286.96v0H847.192C844.578667 293.269333 842.002667 299.765333 839.464 306.448 836.925333 313.130667 834.424 319.981333 831.96 327v0H843.44zM857.664 310.984H848.424C849.170667 308.669333 849.936 306.364 850.72 304.068 851.504 301.772 852.288 299.466667 853.072 297.152 853.856 299.429333 854.630667 301.716 855.396 304.012 856.161333 306.308 856.917333 308.632 857.664 310.984v0zM902.184 327C904.76 320.317333 907.298667 313.634667 909.8 306.952 912.301333 300.269333 914.728 293.605333 917.08 286.96v0H905.488C904.032 291.813333 902.548 296.648 901.036 301.464 899.524 306.28 897.984 311.096 896.416 315.912 894.885333 311.096 893.364 306.28 891.852 301.464 890.34 296.648 888.856 291.813333 887.4 286.96v0H875.472C877.824 293.605333 880.250667 300.269333 882.752 306.952 885.253333 313.634667 887.792 320.317333 890.368 327v0H902.184zM951.016 327V318.264H931.92V310.984H947.712V302.248H931.92V295.696H949.952V286.96H921.28V327H951.016zM799.984 389C800.768 386.461333 801.533333 383.96 802.28 381.496v0H816.896C817.269333 382.728 817.652 383.969333 818.044 385.22 818.436 386.470667 818.818667 387.730667 819.192 389v0H831.008C828.618667 382.317333 826.154667 375.634667 823.616 368.952 821.077333 362.269333 818.464 355.605333 815.776 348.96v0H803.736C801.122667 355.269333 798.546667 361.765333 796.008 368.448 793.469333 375.130667 790.968 381.981333 788.504 389v0H799.984zM814.208 372.984H804.968C805.714667 370.669333 806.48 368.364 807.264 366.068 808.048 363.772 808.832 361.466667 809.616 359.152 810.4 361.429333 811.174667 363.716 811.94 366.012 812.705333 368.308 813.461333 370.632 814.208 372.984v0zM845.624 389V364.696C848.050667 368.578667 850.524 372.582667 853.044 376.708 855.564 380.833333 858.018667 384.930667 860.408 389v0H871.384V348.96H860.968V372.816C858.541333 368.746667 856.096 364.714667 853.632 360.72 851.168 356.725333 848.685333 352.805333 846.184 348.96v0H835.208V389H845.624zM901.568 389V374.16C904.144 369.978667 906.682667 365.788 909.184 361.588 911.685333 357.388 914.130667 353.178667 916.52 348.96v0H904.536C903.229333 351.610667 901.885333 354.270667 900.504 356.94 899.122667 359.609333 897.741333 362.269333 896.36 364.92 894.941333 362.269333 893.550667 359.618667 892.188 356.968 890.825333 354.317333 889.472 351.648 888.128 348.96v0H875.752C878.104 353.178667 880.530667 357.388 883.032 361.588 885.533333 365.788 888.072 369.978667 890.648 374.16v0V389H901.568zM940.88 389V358.368H952.864V348.96H917.976V358.368H929.96V389H940.88zM968.264 389V372.816H982.488V389H993.408V348.96H982.488V363.408H968.264V348.96H957.344V389H968.264zM1011.72 389V348.96H1000.8V389H1011.72zM1029.528 389V364.696C1031.95467 368.578667 1034.428 372.582667 1036.948 376.708 1039.468 380.833333 1041.92267 384.930667 1044.312 389v0H1055.288V348.96H1044.872V372.816C1042.44533 368.746667 1040 364.714667 1037.536 360.72 1035.072 356.725333 1032.58933 352.805333 1030.088 348.96v0H1019.112V389H1029.528zM1082.392 389.84C1084.184 389.84 1085.98533 389.728 1087.796 389.504 1089.60667 389.28 1091.352 388.934667 1093.032 388.468 1094.712 388.001333 1096.20533 387.450667 1097.512 386.816v0V365.928H1081.888V373.992H1087.712V379.984C1087.00267 380.170667 1086.26533 380.310667 1085.5 380.404 1084.73467 380.497333 1083.97867 380.544 1083.232 380.544 1079.72267 380.544 1077.06267 379.564 1075.252 377.604 1073.44133 375.644 1072.536 372.76 1072.536 368.952 1072.536 365.293333 1073.572 362.474667 1075.644 360.496 1077.716 358.517333 1080.67467 357.528 1084.52 357.528 1086.872 357.528 1089.028 357.78 1090.988 358.284 1092.948 358.788 1094.768 359.506667 1096.448 360.44v0V350.584C1092.528 348.941333 1088.08533 348.12 1083.12 348.12 1079.83467 348.12 1076.848 348.614667 1074.16 349.604 1071.472 350.593333 1069.15733 352.002667 1067.216 353.832 1065.27467 355.661333 1063.79067 357.854667 1062.764 360.412 1061.73733 362.969333 1061.224 365.816 1061.224 368.952 1061.224 372.2 1061.70933 375.112 1062.68 377.688 1063.65067 380.264 1065.05067 382.457333 1066.88 384.268 1068.70933 386.078667 1070.93067 387.46 1073.544 388.412 1076.15733 389.364 1079.10667 389.84 1082.392 389.84zM811.688 451V420.368H823.672V410.96H788.784V420.368H800.768V451H811.688zM847.024 451.84C850.122667 451.84 852.922667 451.354667 855.424 450.384 857.925333 449.413333 860.062667 448.013333 861.836 446.184 863.609333 444.354667 864.972 442.152 865.924 439.576 866.876 437 867.352 434.125333 867.352 430.952 867.352 427.741333 866.876 424.857333 865.924 422.3 864.972 419.742667 863.609333 417.558667 861.836 415.748 860.062667 413.937333 857.925333 412.546667 855.424 411.576 852.922667 410.605333 850.122667 410.12 847.024 410.12 843.925333 410.12 841.125333 410.605333 838.624 411.576 836.122667 412.546667 833.985333 413.937333 832.212 415.748 830.438667 417.558667 829.076 419.742667 828.124 422.3 827.172 424.857333 826.696 427.741333 826.696 430.952 826.696 434.125333 827.172 437 828.124 439.576 829.076 442.152 830.438667 444.354667 832.212 446.184 833.985333 448.013333 836.122667 449.413333 838.624 450.384 841.125333 451.354667 843.925333 451.84 847.024 451.84zM847.024 442.432C844.112 442.432 841.881333 441.442667 840.332 439.464 838.782667 437.485333 838.008 434.648 838.008 430.952 838.008 427.293333 838.782667 424.474667 840.332 422.496 841.881333 420.517333 844.112 419.528 847.024 419.528 849.936 419.528 852.166667 420.517333 853.716 422.496 855.265333 424.474667 856.04 427.293333 856.04 430.952 856.04 434.648 855.265333 437.485333 853.716 439.464 852.166667 441.442667 849.936 442.432 847.024 442.432zM897.872 451.84C901.530667 451.84 904.638667 451.336 907.196 450.328 909.753333 449.32 911.713333 447.845333 913.076 445.904 914.438667 443.962667 915.12 441.610667 915.12 438.848 915.12 436.757333 914.784 435.012 914.112 433.612 913.44 432.212 912.488 431.054667 911.256 430.14 910.024 429.225333 908.568 428.450667 906.888 427.816 905.208 427.181333 903.341333 426.621333 901.288 426.136 899.309333 425.650667 897.788 425.137333 896.724 424.596 895.66 424.054667 895.128 423.242667 895.128 422.16 895.128 421.114667 895.641333 420.321333 896.668 419.78 897.694667 419.238667 899.141333 418.968 901.008 418.968 902.314667 418.968 903.668 419.089333 905.068 419.332 906.468 419.574667 907.858667 419.929333 909.24 420.396 910.621333 420.862667 911.928 421.469333 913.16 422.216v0V412.864C911.442667 412.005333 909.52 411.333333 907.392 410.848 905.264 410.362667 903.098667 410.12 900.896 410.12 897.498667 410.12 894.549333 410.633333 892.048 411.66 889.546667 412.686667 887.624 414.152 886.28 416.056 884.936 417.96 884.264 420.256 884.264 422.944 884.264 424.698667 884.525333 426.229333 885.048 427.536 885.570667 428.842667 886.392 429.990667 887.512 430.98 888.632 431.969333 890.088 432.837333 891.88 433.584 893.672 434.330667 895.837333 435.002667 898.376 435.6 899.533333 435.861333 900.541333 436.16 901.4 436.496 902.258667 436.832 902.930667 437.233333 903.416 437.7 903.901333 438.166667 904.144 438.792 904.144 439.576 904.144 440.658667 903.602667 441.498667 902.52 442.096 901.437333 442.693333 899.832 442.992 897.704 442.992 895.538667 442.992 893.364 442.684 891.18 442.068 888.996 441.452 886.858667 440.546667 884.768 439.352v0V448.816C886.933333 449.861333 889.089333 450.626667 891.236 451.112 893.382667 451.597333 895.594667 451.84 897.872 451.84zM929.12 451C929.904 448.461333 930.669333 445.96 931.416 443.496v0H946.032C946.405333 444.728 946.788 445.969333 947.18 447.22 947.572 448.470667 947.954667 449.730667 948.328 451v0H960.144C957.754667 444.317333 955.290667 437.634667 952.752 430.952 950.213333 424.269333 947.6 417.605333 944.912 410.96v0H932.872C930.258667 417.269333 927.682667 423.765333 925.144 430.448 922.605333 437.130667 920.104 443.981333 917.64 451v0H929.12zM943.344 434.984H934.104C934.850667 432.669333 935.616 430.364 936.4 428.068 937.184 425.772 937.968 423.466667 938.752 421.152 939.536 423.429333 940.310667 425.716 941.076 428.012 941.841333 430.308 942.597333 432.632 943.344 434.984v0zM987.136 451V436.16C989.712 431.978667 992.250667 427.788 994.752 423.588 997.253333 419.388 999.698667 415.178667 1002.088 410.96v0H990.104C988.797333 413.610667 987.453333 416.270667 986.072 418.94 984.690667 421.609333 983.309333 424.269333 981.928 426.92 980.509333 424.269333 979.118667 421.618667 977.756 418.968 976.393333 416.317333 975.04 413.648 973.696 410.96v0H961.32C963.672 415.178667 966.098667 419.388 968.6 423.588 971.101333 427.788 973.64 431.978667 976.216 436.16v0V451H987.136zM1019.28 437.448V436.776C1019.28 436.216 1019.40133 435.693333 1019.644 435.208 1019.88667 434.722667 1020.30667 434.218667 1020.904 433.696 1021.50133 433.173333 1022.28533 432.576 1023.256 431.904 1025.45867 430.373333 1027.05467 428.777333 1028.044 427.116 1029.03333 425.454667 1029.528 423.504 1029.528 421.264 1029.528 418.949333 1028.95867 416.961333 1027.82 415.3 1026.68133 413.638667 1025.06667 412.36 1022.976 411.464 1020.88533 410.568 1018.36533 410.12 1015.416 410.12 1013.47467 410.12 1011.58933 410.316 1009.76 410.708 1007.93067 411.1 1006.19467 411.688 1004.552 412.472v0V420.928C1006.04533 420.069333 1007.50133 419.444 1008.92 419.052 1010.33867 418.66 1011.832 418.464 1013.4 418.464 1015.15467 418.464 1016.508 418.809333 1017.46 419.5 1018.412 420.190667 1018.888 421.152 1018.888 422.384 1018.888 423.093333 1018.776 423.737333 1018.552 424.316 1018.328 424.894667 1017.91733 425.482667 1017.32 426.08 1016.72267 426.677333 1015.864 427.405333 1014.744 428.264 1013.288 429.346667 1012.24267 430.541333 1011.608 431.848 1010.97333 433.154667 1010.656 434.797333 1010.656 436.776v0V437.448H1019.28zM1014.968 451.504C1016.16267 451.504 1017.18933 451.252 1018.048 450.748 1018.90667 450.244 1019.56933 449.572 1020.036 448.732 1020.50267 447.892 1020.736 446.968 1020.736 445.96 1020.736 444.952 1020.50267 444.028 1020.036 443.188 1019.56933 442.348 1018.90667 441.685333 1018.048 441.2 1017.18933 440.714667 1016.16267 440.472 1014.968 440.472 1013.77333 440.472 1012.74667 440.714667 1011.888 441.2 1011.02933 441.685333 1010.36667 442.348 1009.9 443.188 1009.43333 444.028 1009.2 444.952 1009.2 445.96 1009.2 446.968 1009.43333 447.892 1009.9 448.732 1010.36667 449.572 1011.02933 450.244 1011.888 450.748 1012.74667 451.252 1013.77333 451.504 1014.968 451.504z" id="DOYOUHAVEANYTHINGTOSAY?"/></g></g></g></svg>