<?xml version="1.0" encoding="UTF-8"?>
<svg width="1200px" height="677px" viewBox="0 0 1200 677" version="1.1" xmlns="http://www.w3.org/2000/svg" xmlns:xlink="http://www.w3.org/1999/xlink">
    <!-- Generator: Sketch 61.2 (89653) - https://sketch.com -->
    <title>greg-text-05 copy 2</title>
    <desc>Created with Sketch.</desc>
    <g id="Assets" stroke="none" stroke-width="1" fill="none" fill-rule="evenodd">
        <g id="Greg" fill="#FFFFFF" fill-rule="nonzero">
            <g id="greg-text-05a">
                <path d="M814.488,264 L814.488,249.16 C817.064,244.978667 819.602667,240.788 822.104,236.588 C824.605333,232.388 827.050667,228.178667 829.44,223.96 L829.44,223.96 L817.456,223.96 C816.149333,226.610667 814.805333,229.270667 813.424,231.94 C812.042667,234.609333 810.661333,237.269333 809.28,239.92 C807.861333,237.269333 806.470667,234.618667 805.108,231.968 C803.745333,229.317333 802.392,226.648 801.048,223.96 L801.048,223.96 L788.672,223.96 C791.024,228.178667 793.450667,232.388 795.952,236.588 C798.453333,240.788 800.992,244.978667 803.568,249.16 L803.568,249.16 L803.568,264 L814.488,264 Z M852.68,264.84 C855.778667,264.84 858.578667,264.354667 861.08,263.384 C863.581333,262.413333 865.718667,261.013333 867.492,259.184 C869.265333,257.354667 870.628,255.152 871.58,252.576 C872.532,250 873.008,247.125333 873.008,243.952 C873.008,240.741333 872.532,237.857333 871.58,235.3 C870.628,232.742667 869.265333,230.558667 867.492,228.748 C865.718667,226.937333 863.581333,225.546667 861.08,224.576 C858.578667,223.605333 855.778667,223.12 852.68,223.12 C849.581333,223.12 846.781333,223.605333 844.28,224.576 C841.778667,225.546667 839.641333,226.937333 837.868,228.748 C836.094667,230.558667 834.732,232.742667 833.78,235.3 C832.828,237.857333 832.352,240.741333 832.352,243.952 C832.352,247.125333 832.828,250 833.78,252.576 C834.732,255.152 836.094667,257.354667 837.868,259.184 C839.641333,261.013333 841.778667,262.413333 844.28,263.384 C846.781333,264.354667 849.581333,264.84 852.68,264.84 Z M852.68,255.432 C849.768,255.432 847.537333,254.442667 845.988,252.464 C844.438667,250.485333 843.664,247.648 843.664,243.952 C843.664,240.293333 844.438667,237.474667 845.988,235.496 C847.537333,233.517333 849.768,232.528 852.68,232.528 C855.592,232.528 857.822667,233.517333 859.372,235.496 C860.921333,237.474667 861.696,240.293333 861.696,243.952 C861.696,247.648 860.921333,250.485333 859.372,252.464 C857.822667,254.442667 855.592,255.432 852.68,255.432 Z M896.584,264.84 C900.28,264.84 903.444,264.130667 906.076,262.712 C908.708,261.293333 910.724,259.249333 912.124,256.58 C913.524,253.910667 914.224,250.728 914.224,247.032 L914.224,247.032 L914.224,223.96 L903.472,223.96 L903.472,248.264 C903.472,250.541333 902.874667,252.305333 901.68,253.556 C900.485333,254.806667 898.786667,255.432 896.584,255.432 C894.418667,255.432 892.729333,254.806667 891.516,253.556 C890.302667,252.305333 889.696,250.541333 889.696,248.264 L889.696,248.264 L889.696,223.96 L878.776,223.96 L878.776,247.032 C878.776,250.728 879.485333,253.910667 880.904,256.58 C882.322667,259.249333 884.366667,261.293333 887.036,262.712 C889.705333,264.130667 892.888,264.84 896.584,264.84 Z M926.208,240.704 C927.216,239.696 928.084,238.585333 928.812,237.372 C929.54,236.158667 930.109333,234.889333 930.52,233.564 C930.930667,232.238667 931.136,230.978667 931.136,229.784 C931.136,227.768 930.688,226.228 929.792,225.164 C928.896,224.1 927.533333,223.568 925.704,223.568 C924.136,223.568 922.894667,224.025333 921.98,224.94 C921.065333,225.854667 920.608,227.058667 920.608,228.552 C920.608,229.709333 920.906667,230.68 921.504,231.464 C922.101333,232.248 922.922667,232.789333 923.968,233.088 C923.258667,235.626667 921.672,238.165333 919.208,240.704 L919.208,240.704 L926.208,240.704 Z M948.272,264 L948.272,250.504 L953.76,250.504 C955.066667,252.706667 956.326667,254.937333 957.54,257.196 C958.753333,259.454667 959.957333,261.722667 961.152,264 L961.152,264 L973.192,264 C971.661333,261.274667 970.102667,258.605333 968.516,255.992 C966.929333,253.378667 965.314667,250.784 963.672,248.208 C965.762667,247.088 967.377333,245.594667 968.516,243.728 C969.654667,241.861333 970.224,239.696 970.224,237.232 C970.224,232.938667 968.749333,229.653333 965.8,227.376 C962.850667,225.098667 958.594667,223.96 953.032,223.96 L953.032,223.96 L937.688,223.96 L937.688,264 L948.272,264 Z M952.528,242.104 L948.272,242.104 L948.272,232.36 L952.528,232.36 C954.805333,232.36 956.485333,232.761333 957.568,233.564 C958.650667,234.366667 959.192,235.589333 959.192,237.232 C959.192,238.837333 958.650667,240.050667 957.568,240.872 C956.485333,241.693333 954.805333,242.104 952.528,242.104 L952.528,242.104 Z M1007.24,264 L1007.24,255.264 L988.144,255.264 L988.144,247.984 L1003.936,247.984 L1003.936,239.248 L988.144,239.248 L988.144,232.696 L1006.176,232.696 L1006.176,223.96 L977.504,223.96 L977.504,264 L1007.24,264 Z M1043.864,264.84 C1046.96267,264.84 1049.76267,264.354667 1052.264,263.384 C1054.76533,262.413333 1056.90267,261.013333 1058.676,259.184 C1060.44933,257.354667 1061.812,255.152 1062.764,252.576 C1063.716,250 1064.192,247.125333 1064.192,243.952 C1064.192,240.741333 1063.716,237.857333 1062.764,235.3 C1061.812,232.742667 1060.44933,230.558667 1058.676,228.748 C1056.90267,226.937333 1054.76533,225.546667 1052.264,224.576 C1049.76267,223.605333 1046.96267,223.12 1043.864,223.12 C1040.76533,223.12 1037.96533,223.605333 1035.464,224.576 C1032.96267,225.546667 1030.82533,226.937333 1029.052,228.748 C1027.27867,230.558667 1025.916,232.742667 1024.964,235.3 C1024.012,237.857333 1023.536,240.741333 1023.536,243.952 C1023.536,247.125333 1024.012,250 1024.964,252.576 C1025.916,255.152 1027.27867,257.354667 1029.052,259.184 C1030.82533,261.013333 1032.96267,262.413333 1035.464,263.384 C1037.96533,264.354667 1040.76533,264.84 1043.864,264.84 Z M1043.864,255.432 C1040.952,255.432 1038.72133,254.442667 1037.172,252.464 C1035.62267,250.485333 1034.848,247.648 1034.848,243.952 C1034.848,240.293333 1035.62267,237.474667 1037.172,235.496 C1038.72133,233.517333 1040.952,232.528 1043.864,232.528 C1046.776,232.528 1049.00667,233.517333 1050.556,235.496 C1052.10533,237.474667 1052.88,240.293333 1052.88,243.952 C1052.88,247.648 1052.10533,250.485333 1050.556,252.464 C1049.00667,254.442667 1046.776,255.432 1043.864,255.432 Z M1080.544,264 L1080.544,239.696 C1082.97067,243.578667 1085.444,247.582667 1087.964,251.708 C1090.484,255.833333 1092.93867,259.930667 1095.328,264 L1095.328,264 L1106.304,264 L1106.304,223.96 L1095.888,223.96 L1095.888,247.816 C1093.46133,243.746667 1091.016,239.714667 1088.552,235.72 C1086.088,231.725333 1083.60533,227.805333 1081.104,223.96 L1081.104,223.96 L1070.128,223.96 L1070.128,264 L1080.544,264 Z M810.176,326 C811.258667,321.893333 812.304,317.777333 813.312,313.652 C814.32,309.526667 815.328,305.392 816.336,301.248 C817.306667,305.392 818.314667,309.526667 819.36,313.652 C820.405333,317.777333 821.469333,321.893333 822.552,326 L822.552,326 L833.864,326 C835.730667,319.466667 837.513333,312.858667 839.212,306.176 C840.910667,299.493333 842.506667,292.754667 844,285.96 L844,285.96 L832.52,285.96 C831.810667,290.626667 831.054667,295.293333 830.252,299.96 C829.449333,304.626667 828.6,309.237333 827.704,313.792 C826.696,309.461333 825.697333,305.121333 824.708,300.772 C823.718667,296.422667 822.757333,292.045333 821.824,287.64 L821.824,287.64 L811.352,287.64 C810.418667,292.12 809.448,296.609333 808.44,301.108 C807.432,305.606667 806.386667,310.114667 805.304,314.632 C804.408,309.965333 803.549333,305.224 802.728,300.408 C801.906667,295.592 801.141333,290.776 800.432,285.96 L800.432,285.96 L788.728,285.96 C790.258667,292.754667 791.873333,299.493333 793.572,306.176 C795.270667,312.858667 797.034667,319.466667 798.864,326 L798.864,326 L810.176,326 Z M859.344,326 L859.344,285.96 L848.424,285.96 L848.424,326 L859.344,326 Z M886.728,326 L886.728,295.368 L898.712,295.368 L898.712,285.96 L863.824,285.96 L863.824,295.368 L875.808,295.368 L875.808,326 L886.728,326 Z M914.112,326 L914.112,309.816 L928.336,309.816 L928.336,326 L939.256,326 L939.256,285.96 L928.336,285.96 L928.336,300.408 L914.112,300.408 L914.112,285.96 L903.192,285.96 L903.192,326 L914.112,326 Z M969.328,326 L969.328,301.696 C970.56,304.533333 971.82,307.370667 973.108,310.208 C974.396,313.045333 975.693333,315.882667 977,318.72 L977,318.72 L985.4,318.72 C986.669333,315.882667 987.929333,313.036 989.18,310.18 C990.430667,307.324 991.672,304.44 992.904,301.528 L992.904,301.528 L992.904,326 L1003.096,326 L1003.096,285.96 L990.104,285.96 C988.685333,289.730667 987.248,293.454667 985.792,297.132 C984.336,300.809333 982.861333,304.44 981.368,308.024 C979.8,304.402667 978.26,300.744 976.748,297.048 C975.236,293.352 973.752,289.656 972.296,285.96 L972.296,285.96 L959.136,285.96 L959.136,326 L969.328,326 Z M1018.776,326 C1019.56,323.461333 1020.32533,320.96 1021.072,318.496 L1021.072,318.496 L1035.688,318.496 C1036.06133,319.728 1036.444,320.969333 1036.836,322.22 C1037.228,323.470667 1037.61067,324.730667 1037.984,326 L1037.984,326 L1049.8,326 C1047.41067,319.317333 1044.94667,312.634667 1042.408,305.952 C1039.86933,299.269333 1037.256,292.605333 1034.568,285.96 L1034.568,285.96 L1022.528,285.96 C1019.91467,292.269333 1017.33867,298.765333 1014.8,305.448 C1012.26133,312.130667 1009.76,318.981333 1007.296,326 L1007.296,326 L1018.776,326 Z M1033,309.984 L1023.76,309.984 C1024.50667,307.669333 1025.272,305.364 1026.056,303.068 C1026.84,300.772 1027.624,298.466667 1028.408,296.152 C1029.192,298.429333 1029.96667,300.716 1030.732,303.012 C1031.49733,305.308 1032.25333,307.632 1033,309.984 L1033,309.984 Z M1064.584,326 L1064.584,312.504 L1070.072,312.504 C1071.37867,314.706667 1072.63867,316.937333 1073.852,319.196 C1075.06533,321.454667 1076.26933,323.722667 1077.464,326 L1077.464,326 L1089.504,326 C1087.97333,323.274667 1086.41467,320.605333 1084.828,317.992 C1083.24133,315.378667 1081.62667,312.784 1079.984,310.208 C1082.07467,309.088 1083.68933,307.594667 1084.828,305.728 C1085.96667,303.861333 1086.536,301.696 1086.536,299.232 C1086.536,294.938667 1085.06133,291.653333 1082.112,289.376 C1079.16267,287.098667 1074.90667,285.96 1069.344,285.96 L1069.344,285.96 L1054,285.96 L1054,326 L1064.584,326 Z M1068.84,304.104 L1064.584,304.104 L1064.584,294.36 L1068.84,294.36 C1071.11733,294.36 1072.79733,294.761333 1073.88,295.564 C1074.96267,296.366667 1075.504,297.589333 1075.504,299.232 C1075.504,300.837333 1074.96267,302.050667 1073.88,302.872 C1072.79733,303.693333 1071.11733,304.104 1068.84,304.104 L1068.84,304.104 Z M1104.736,326 L1104.736,309.48 L1106.696,309.48 C1108.78667,312.28 1110.812,315.042667 1112.772,317.768 C1114.732,320.493333 1116.68267,323.237333 1118.624,326 L1118.624,326 L1132.288,326 C1129.52533,322.341333 1126.79067,318.748 1124.084,315.22 C1121.37733,311.692 1118.64267,308.210667 1115.88,304.776 C1118.456,301.64 1120.976,298.504 1123.44,295.368 C1125.904,292.232 1128.33067,289.096 1130.72,285.96 L1130.72,285.96 L1117.84,285.96 C1116.12267,288.386667 1114.368,290.822667 1112.576,293.268 C1110.784,295.713333 1108.89867,298.205333 1106.92,300.744 L1106.92,300.744 L1104.736,300.744 L1104.736,285.96 L1093.816,285.96 L1093.816,326 L1104.736,326 Z M799.984,388 C800.768,385.461333 801.533333,382.96 802.28,380.496 L802.28,380.496 L816.896,380.496 C817.269333,381.728 817.652,382.969333 818.044,384.22 C818.436,385.470667 818.818667,386.730667 819.192,388 L819.192,388 L831.008,388 C828.618667,381.317333 826.154667,374.634667 823.616,367.952 C821.077333,361.269333 818.464,354.605333 815.776,347.96 L815.776,347.96 L803.736,347.96 C801.122667,354.269333 798.546667,360.765333 796.008,367.448 C793.469333,374.130667 790.968,380.981333 788.504,388 L788.504,388 L799.984,388 Z M814.208,371.984 L804.968,371.984 C805.714667,369.669333 806.48,367.364 807.264,365.068 C808.048,362.772 808.832,360.466667 809.616,358.152 C810.4,360.429333 811.174667,362.716 811.94,365.012 C812.705333,367.308 813.461333,369.632 814.208,371.984 L814.208,371.984 Z M845.624,388 L845.624,363.696 C848.050667,367.578667 850.524,371.582667 853.044,375.708 C855.564,379.833333 858.018667,383.930667 860.408,388 L860.408,388 L871.384,388 L871.384,347.96 L860.968,347.96 L860.968,371.816 C858.541333,367.746667 856.096,363.714667 853.632,359.72 C851.168,355.725333 848.685333,351.805333 846.184,347.96 L846.184,347.96 L835.208,347.96 L835.208,388 L845.624,388 Z M895.072,388 C899.328,388 902.958667,387.206667 905.964,385.62 C908.969333,384.033333 911.265333,381.746667 912.852,378.76 C914.438667,375.773333 915.232,372.152 915.232,367.896 C915.232,363.677333 914.438667,360.084 912.852,357.116 C911.265333,354.148 908.969333,351.88 905.964,350.312 C902.958667,348.744 899.346667,347.96 895.128,347.96 L895.128,347.96 L878.776,347.96 L878.776,388 L895.072,388 Z M894.568,378.704 L889.696,378.704 L889.696,357.256 L894.624,357.256 C897.685333,357.256 900,358.161333 901.568,359.972 C903.136,361.782667 903.92,364.424 903.92,367.896 C903.92,371.405333 903.126667,374.084 901.54,375.932 C899.953333,377.78 897.629333,378.704 894.568,378.704 L894.568,378.704 Z M943.848,388 L943.848,363.696 C945.08,366.533333 946.34,369.370667 947.628,372.208 C948.916,375.045333 950.213333,377.882667 951.52,380.72 L951.52,380.72 L959.92,380.72 C961.189333,377.882667 962.449333,375.036 963.7,372.18 C964.950667,369.324 966.192,366.44 967.424,363.528 L967.424,363.528 L967.424,388 L977.616,388 L977.616,347.96 L964.624,347.96 C963.205333,351.730667 961.768,355.454667 960.312,359.132 C958.856,362.809333 957.381333,366.44 955.888,370.024 C954.32,366.402667 952.78,362.744 951.268,359.048 C949.756,355.352 948.272,351.656 946.816,347.96 L946.816,347.96 L933.656,347.96 L933.656,388 L943.848,388 Z M993.296,388 C994.08,385.461333 994.845333,382.96 995.592,380.496 L995.592,380.496 L1010.208,380.496 C1010.58133,381.728 1010.964,382.969333 1011.356,384.22 C1011.748,385.470667 1012.13067,386.730667 1012.504,388 L1012.504,388 L1024.32,388 C1021.93067,381.317333 1019.46667,374.634667 1016.928,367.952 C1014.38933,361.269333 1011.776,354.605333 1009.088,347.96 L1009.088,347.96 L997.048,347.96 C994.434667,354.269333 991.858667,360.765333 989.32,367.448 C986.781333,374.130667 984.28,380.981333 981.816,388 L981.816,388 L993.296,388 Z M1007.52,371.984 L998.28,371.984 C999.026667,369.669333 999.792,367.364 1000.576,365.068 C1001.36,362.772 1002.144,360.466667 1002.928,358.152 C1003.712,360.429333 1004.48667,362.716 1005.252,365.012 C1006.01733,367.308 1006.77333,369.632 1007.52,371.984 L1007.52,371.984 Z M1048.512,388 L1048.512,357.368 L1060.496,357.368 L1060.496,347.96 L1025.608,347.96 L1025.608,357.368 L1037.592,357.368 L1037.592,388 L1048.512,388 Z M1084.968,388 L1084.968,357.368 L1096.952,357.368 L1096.952,347.96 L1062.064,347.96 L1062.064,357.368 L1074.048,357.368 L1074.048,388 L1084.968,388 Z M802.448,450 L802.448,435.552 L817.4,435.552 L817.4,426.424 L802.448,426.424 L802.448,419.088 L819.528,419.088 L819.528,409.96 L791.696,409.96 L791.696,450 L802.448,450 Z M835.152,450 L835.152,436.504 L840.64,436.504 C841.946667,438.706667 843.206667,440.937333 844.42,443.196 C845.633333,445.454667 846.837333,447.722667 848.032,450 L848.032,450 L860.072,450 C858.541333,447.274667 856.982667,444.605333 855.396,441.992 C853.809333,439.378667 852.194667,436.784 850.552,434.208 C852.642667,433.088 854.257333,431.594667 855.396,429.728 C856.534667,427.861333 857.104,425.696 857.104,423.232 C857.104,418.938667 855.629333,415.653333 852.68,413.376 C849.730667,411.098667 845.474667,409.96 839.912,409.96 L839.912,409.96 L824.568,409.96 L824.568,450 L835.152,450 Z M839.408,428.104 L835.152,428.104 L835.152,418.36 L839.408,418.36 C841.685333,418.36 843.365333,418.761333 844.448,419.564 C845.530667,420.366667 846.072,421.589333 846.072,423.232 C846.072,424.837333 845.530667,426.050667 844.448,426.872 C843.365333,427.693333 841.685333,428.104 839.408,428.104 L839.408,428.104 Z M883.256,450.84 C886.354667,450.84 889.154667,450.354667 891.656,449.384 C894.157333,448.413333 896.294667,447.013333 898.068,445.184 C899.841333,443.354667 901.204,441.152 902.156,438.576 C903.108,436 903.584,433.125333 903.584,429.952 C903.584,426.741333 903.108,423.857333 902.156,421.3 C901.204,418.742667 899.841333,416.558667 898.068,414.748 C896.294667,412.937333 894.157333,411.546667 891.656,410.576 C889.154667,409.605333 886.354667,409.12 883.256,409.12 C880.157333,409.12 877.357333,409.605333 874.856,410.576 C872.354667,411.546667 870.217333,412.937333 868.444,414.748 C866.670667,416.558667 865.308,418.742667 864.356,421.3 C863.404,423.857333 862.928,426.741333 862.928,429.952 C862.928,433.125333 863.404,436 864.356,438.576 C865.308,441.152 866.670667,443.354667 868.444,445.184 C870.217333,447.013333 872.354667,448.413333 874.856,449.384 C877.357333,450.354667 880.157333,450.84 883.256,450.84 Z M883.256,441.432 C880.344,441.432 878.113333,440.442667 876.564,438.464 C875.014667,436.485333 874.24,433.648 874.24,429.952 C874.24,426.293333 875.014667,423.474667 876.564,421.496 C878.113333,419.517333 880.344,418.528 883.256,418.528 C886.168,418.528 888.398667,419.517333 889.948,421.496 C891.497333,423.474667 892.272,426.293333 892.272,429.952 C892.272,433.648 891.497333,436.485333 889.948,438.464 C888.398667,440.442667 886.168,441.432 883.256,441.432 Z M919.712,450 L919.712,425.696 C920.944,428.533333 922.204,431.370667 923.492,434.208 C924.78,437.045333 926.077333,439.882667 927.384,442.72 L927.384,442.72 L935.784,442.72 C937.053333,439.882667 938.313333,437.036 939.564,434.18 C940.814667,431.324 942.056,428.44 943.288,425.528 L943.288,425.528 L943.288,450 L953.48,450 L953.48,409.96 L940.488,409.96 C939.069333,413.730667 937.632,417.454667 936.176,421.132 C934.72,424.809333 933.245333,428.44 931.752,432.024 C930.184,428.402667 928.644,424.744 927.132,421.048 C925.62,417.352 924.136,413.656 922.68,409.96 L922.68,409.96 L909.52,409.96 L909.52,450 L919.712,450 Z M809.056,512 C812.416,512 815.3,511.533333 817.708,510.6 C820.116,509.666667 821.964,508.322667 823.252,506.568 C824.54,504.813333 825.184,502.722667 825.184,500.296 C825.184,497.944 824.586667,495.937333 823.392,494.276 C822.197333,492.614667 820.48,491.373333 818.24,490.552 C821.413333,488.797333 823,486.128 823,482.544 C823,479.109333 821.712,476.486667 819.136,474.676 C816.56,472.865333 812.882667,471.96 808.104,471.96 L808.104,471.96 L791.696,471.96 L791.696,512 L809.056,512 Z M807.04,487.864 L802.112,487.864 L802.112,480.024 L807.04,480.024 C810.624,480.024 812.416,481.274667 812.416,483.776 C812.416,485.045333 811.958667,486.044 811.044,486.772 C810.129333,487.5 808.794667,487.864 807.04,487.864 L807.04,487.864 Z M808.048,503.936 L802.112,503.936 L802.112,495.592 L808.104,495.592 C812.36,495.592 814.488,497.010667 814.488,499.848 C814.488,501.154667 813.937333,502.162667 812.836,502.872 C811.734667,503.581333 810.138667,503.936 808.048,503.936 L808.048,503.936 Z M859.568,512 L859.568,502.592 L841.76,502.592 L841.76,471.96 L830.84,471.96 L830.84,512 L859.568,512 Z M874.968,512 L874.968,471.96 L864.048,471.96 L864.048,512 L874.968,512 Z M892.776,512 L892.776,487.696 C895.202667,491.578667 897.676,495.582667 900.196,499.708 C902.716,503.833333 905.170667,507.930667 907.56,512 L907.56,512 L918.536,512 L918.536,471.96 L908.12,471.96 L908.12,495.816 C905.693333,491.746667 903.248,487.714667 900.784,483.72 C898.32,479.725333 895.837333,475.805333 893.336,471.96 L893.336,471.96 L882.36,471.96 L882.36,512 L892.776,512 Z M936.848,512 L936.848,495.48 L938.808,495.48 C940.898667,498.28 942.924,501.042667 944.884,503.768 C946.844,506.493333 948.794667,509.237333 950.736,512 L950.736,512 L964.4,512 C961.637333,508.341333 958.902667,504.748 956.196,501.22 C953.489333,497.692 950.754667,494.210667 947.992,490.776 C950.568,487.64 953.088,484.504 955.552,481.368 C958.016,478.232 960.442667,475.096 962.832,471.96 L962.832,471.96 L949.952,471.96 C948.234667,474.386667 946.48,476.822667 944.688,479.268 C942.896,481.713333 941.010667,484.205333 939.032,486.744 L939.032,486.744 L936.848,486.744 L936.848,471.96 L925.928,471.96 L925.928,512 L936.848,512 Z M1001.472,512 L1001.472,472.856 L992.904,472.856 C990.850667,473.789333 988.928,474.694667 987.136,475.572 C985.344,476.449333 983.738667,477.261333 982.32,478.008 L982.32,478.008 L982.32,487.472 C983.589333,486.8 984.952,486.1 986.408,485.372 C987.864,484.644 989.338667,483.944 990.832,483.272 L990.832,483.272 L990.832,512 L1001.472,512 Z M1029.472,512.728 C1032.68267,512.728 1035.47333,512.261333 1037.844,511.328 C1040.21467,510.394667 1042.05333,509.06 1043.36,507.324 C1044.66667,505.588 1045.32,503.544 1045.32,501.192 C1045.32,498.914667 1044.788,496.964 1043.724,495.34 C1042.66,493.716 1041.064,492.362667 1038.936,491.28 C1040.65333,490.458667 1041.97867,489.366667 1042.912,488.004 C1043.84533,486.641333 1044.312,485.101333 1044.312,483.384 C1044.312,481.069333 1043.70533,479.072 1042.492,477.392 C1041.27867,475.712 1039.57067,474.414667 1037.368,473.5 C1035.16533,472.585333 1032.53333,472.128 1029.472,472.128 C1027.26933,472.128 1025.25333,472.398667 1023.424,472.94 C1021.59467,473.481333 1020.02667,474.246667 1018.72,475.236 C1017.41333,476.225333 1016.40533,477.410667 1015.696,478.792 C1014.98667,480.173333 1014.632,481.704 1014.632,483.384 C1014.632,487.490667 1016.48,490.552 1020.176,492.568 C1018.12267,493.426667 1016.51733,494.621333 1015.36,496.152 C1014.20267,497.682667 1013.624,499.456 1013.624,501.472 C1013.624,503.786667 1014.268,505.793333 1015.556,507.492 C1016.844,509.190667 1018.68267,510.488 1021.072,511.384 C1023.46133,512.28 1026.26133,512.728 1029.472,512.728 Z M1031.04,488.648 L1028.968,488.368 C1027.69867,488.181333 1026.672,487.733333 1025.888,487.024 C1025.104,486.314667 1024.712,485.4 1024.712,484.28 C1024.712,483.010667 1025.132,482.021333 1025.972,481.312 C1026.812,480.602667 1027.97867,480.248 1029.472,480.248 C1031.00267,480.248 1032.17867,480.602667 1033,481.312 C1033.82133,482.021333 1034.232,483.010667 1034.232,484.28 C1034.232,485.288 1033.94267,486.165333 1033.364,486.912 C1032.78533,487.658667 1032.01067,488.237333 1031.04,488.648 L1031.04,488.648 Z M1029.472,504.608 C1027.792,504.608 1026.45733,504.206667 1025.468,503.404 C1024.47867,502.601333 1023.984,501.490667 1023.984,500.072 C1023.984,498.877333 1024.376,497.86 1025.16,497.02 C1025.944,496.18 1027.02667,495.592 1028.408,495.256 L1028.408,495.256 L1030.032,495.48 C1031.6,495.704 1032.81333,496.208 1033.672,496.992 C1034.53067,497.776 1034.96,498.802667 1034.96,500.072 C1034.96,501.490667 1034.47467,502.601333 1033.504,503.404 C1032.53333,504.206667 1031.18933,504.608 1029.472,504.608 Z M1078.472,512 L1078.472,502.984 L1061.504,502.984 C1062.064,502.050667 1062.88533,501.136 1063.968,500.24 C1065.05067,499.344 1066.488,498.336 1068.28,497.216 C1070.10933,496.096 1071.62133,495.032 1072.816,494.024 C1074.01067,493.016 1074.95333,491.989333 1075.644,490.944 C1076.33467,489.898667 1076.82933,488.769333 1077.128,487.556 C1077.42667,486.342667 1077.576,484.970667 1077.576,483.44 C1077.576,481.125333 1076.988,479.128 1075.812,477.448 C1074.636,475.768 1072.97467,474.461333 1070.828,473.528 C1068.68133,472.594667 1066.152,472.128 1063.24,472.128 C1060.85067,472.128 1058.65733,472.38 1056.66,472.884 C1054.66267,473.388 1052.67467,474.181333 1050.696,475.264 L1050.696,475.264 L1050.696,484.504 C1052.33867,483.309333 1053.98133,482.441333 1055.624,481.9 C1057.26667,481.358667 1058.96533,481.088 1060.72,481.088 C1062.58667,481.088 1064.03333,481.424 1065.06,482.096 C1066.08667,482.768 1066.6,483.757333 1066.6,485.064 C1066.6,485.661333 1066.50667,486.202667 1066.32,486.688 C1066.13333,487.173333 1065.80667,487.658667 1065.34,488.144 C1064.87333,488.629333 1064.21067,489.189333 1063.352,489.824 C1062.49333,490.458667 1061.37333,491.205333 1059.992,492.064 C1057.56533,493.594667 1055.60533,495.190667 1054.112,496.852 C1052.61867,498.513333 1051.52667,500.314667 1050.836,502.256 C1050.14533,504.197333 1049.8,506.4 1049.8,508.864 L1049.8,508.864 L1049.8,512 L1078.472,512 Z" id="YOU’REONWITHMARKANDMATTFROMBLINK182"></path>
            </g>
        </g>
    </g>
</svg>