<?xml version="1.0" encoding="UTF-8"?>
<svg width="1200px" height="677px" viewBox="0 0 1200 677" version="1.1" xmlns="http://www.w3.org/2000/svg" xmlns:xlink="http://www.w3.org/1999/xlink">
    <!-- Generator: Sketch 61.2 (89653) - https://sketch.com -->
    <title>greg-text-01 copy 5</title>
    <desc>Created with Sketch.</desc>
    <g id="Assets" stroke="none" stroke-width="1" fill="none" fill-rule="evenodd">
        <g id="Greg" transform="translate(0.000000, 3.000000)" fill="#FFFFFF" fill-rule="nonzero">
            <g id="greg-text-02b" transform="translate(0.000000, -3.000000)">
                <path d="M799.984,296 C800.768,293.461333 801.533333,290.96 802.28,288.496 L802.28,288.496 L816.896,288.496 C817.269333,289.728 817.652,290.969333 818.044,292.22 C818.436,293.470667 818.818667,294.730667 819.192,296 L819.192,296 L831.008,296 C828.618667,289.317333 826.154667,282.634667 823.616,275.952 C821.077333,269.269333 818.464,262.605333 815.776,255.96 L815.776,255.96 L803.736,255.96 C801.122667,262.269333 798.546667,268.765333 796.008,275.448 C793.469333,282.130667 790.968,288.981333 788.504,296 L788.504,296 L799.984,296 Z M814.208,279.984 L804.968,279.984 C805.714667,277.669333 806.48,275.364 807.264,273.068 C808.048,270.772 808.832,268.466667 809.616,266.152 C810.4,268.429333 811.174667,270.716 811.94,273.012 C812.705333,275.308 813.461333,277.632 814.208,279.984 L814.208,279.984 Z M845.624,296 L845.624,271.696 C848.050667,275.578667 850.524,279.582667 853.044,283.708 C855.564,287.833333 858.018667,291.930667 860.408,296 L860.408,296 L871.384,296 L871.384,255.96 L860.968,255.96 L860.968,279.816 C858.541333,275.746667 856.096,271.714667 853.632,267.72 C851.168,263.725333 848.685333,259.805333 846.184,255.96 L846.184,255.96 L835.208,255.96 L835.208,296 L845.624,296 Z M899.552,296 C900.336,293.461333 901.101333,290.96 901.848,288.496 L901.848,288.496 L916.464,288.496 C916.837333,289.728 917.22,290.969333 917.612,292.22 C918.004,293.470667 918.386667,294.730667 918.76,296 L918.76,296 L930.576,296 C928.186667,289.317333 925.722667,282.634667 923.184,275.952 C920.645333,269.269333 918.032,262.605333 915.344,255.96 L915.344,255.96 L903.304,255.96 C900.690667,262.269333 898.114667,268.765333 895.576,275.448 C893.037333,282.130667 890.536,288.981333 888.072,296 L888.072,296 L899.552,296 Z M913.776,279.984 L904.536,279.984 C905.282667,277.669333 906.048,275.364 906.832,273.068 C907.616,270.772 908.4,268.466667 909.184,266.152 C909.968,268.429333 910.742667,270.716 911.508,273.012 C912.273333,275.308 913.029333,277.632 913.776,279.984 L913.776,279.984 Z M944.968,296 L944.968,271.696 C946.2,274.533333 947.46,277.370667 948.748,280.208 C950.036,283.045333 951.333333,285.882667 952.64,288.72 L952.64,288.72 L961.04,288.72 C962.309333,285.882667 963.569333,283.036 964.82,280.18 C966.070667,277.324 967.312,274.44 968.544,271.528 L968.544,271.528 L968.544,296 L978.736,296 L978.736,255.96 L965.744,255.96 C964.325333,259.730667 962.888,263.454667 961.432,267.132 C959.976,270.809333 958.501333,274.44 957.008,278.024 C955.44,274.402667 953.9,270.744 952.388,267.048 C950.876,263.352 949.392,259.656 947.936,255.96 L947.936,255.96 L934.776,255.96 L934.776,296 L944.968,296 Z M994.416,296 C995.2,293.461333 995.965333,290.96 996.712,288.496 L996.712,288.496 L1011.328,288.496 C1011.70133,289.728 1012.084,290.969333 1012.476,292.22 C1012.868,293.470667 1013.25067,294.730667 1013.624,296 L1013.624,296 L1025.44,296 C1023.05067,289.317333 1020.58667,282.634667 1018.048,275.952 C1015.50933,269.269333 1012.896,262.605333 1010.208,255.96 L1010.208,255.96 L998.168,255.96 C995.554667,262.269333 992.978667,268.765333 990.44,275.448 C987.901333,282.130667 985.4,288.981333 982.936,296 L982.936,296 L994.416,296 Z M1008.64,279.984 L999.4,279.984 C1000.14667,277.669333 1000.912,275.364 1001.696,273.068 C1002.48,270.772 1003.264,268.466667 1004.048,266.152 C1004.832,268.429333 1005.60667,270.716 1006.372,273.012 C1007.13733,275.308 1007.89333,277.632 1008.64,279.984 L1008.64,279.984 Z M1061.224,296 L1061.224,286.872 L1042.016,286.872 C1045.04,282.952 1048.10133,279.041333 1051.2,275.14 C1054.29867,271.238667 1057.39733,267.384 1060.496,263.576 L1060.496,263.576 L1060.496,255.96 L1028.632,255.96 L1028.632,265.088 L1046.048,265.088 C1042.98667,268.858667 1039.916,272.685333 1036.836,276.568 C1033.756,280.450667 1030.704,284.389333 1027.68,288.384 L1027.68,288.384 L1027.68,296 L1061.224,296 Z M1085.528,296.84 C1088.62667,296.84 1091.42667,296.354667 1093.928,295.384 C1096.42933,294.413333 1098.56667,293.013333 1100.34,291.184 C1102.11333,289.354667 1103.476,287.152 1104.428,284.576 C1105.38,282 1105.856,279.125333 1105.856,275.952 C1105.856,272.741333 1105.38,269.857333 1104.428,267.3 C1103.476,264.742667 1102.11333,262.558667 1100.34,260.748 C1098.56667,258.937333 1096.42933,257.546667 1093.928,256.576 C1091.42667,255.605333 1088.62667,255.12 1085.528,255.12 C1082.42933,255.12 1079.62933,255.605333 1077.128,256.576 C1074.62667,257.546667 1072.48933,258.937333 1070.716,260.748 C1068.94267,262.558667 1067.58,264.742667 1066.628,267.3 C1065.676,269.857333 1065.2,272.741333 1065.2,275.952 C1065.2,279.125333 1065.676,282 1066.628,284.576 C1067.58,287.152 1068.94267,289.354667 1070.716,291.184 C1072.48933,293.013333 1074.62667,294.413333 1077.128,295.384 C1079.62933,296.354667 1082.42933,296.84 1085.528,296.84 Z M1085.528,287.432 C1082.616,287.432 1080.38533,286.442667 1078.836,284.464 C1077.28667,282.485333 1076.512,279.648 1076.512,275.952 C1076.512,272.293333 1077.28667,269.474667 1078.836,267.496 C1080.38533,265.517333 1082.616,264.528 1085.528,264.528 C1088.44,264.528 1090.67067,265.517333 1092.22,267.496 C1093.76933,269.474667 1094.544,272.293333 1094.544,275.952 C1094.544,279.648 1093.76933,282.485333 1092.22,284.464 C1090.67067,286.442667 1088.44,287.432 1085.528,287.432 Z M1122.208,296 L1122.208,271.696 C1124.63467,275.578667 1127.108,279.582667 1129.628,283.708 C1132.148,287.833333 1134.60267,291.930667 1136.992,296 L1136.992,296 L1147.968,296 L1147.968,255.96 L1137.552,255.96 L1137.552,279.816 C1135.12533,275.746667 1132.68,271.714667 1130.216,267.72 C1127.752,263.725333 1125.26933,259.805333 1122.768,255.96 L1122.768,255.96 L1111.792,255.96 L1111.792,296 L1122.208,296 Z M803.792,358.84 C807.450667,358.84 810.558667,358.336 813.116,357.328 C815.673333,356.32 817.633333,354.845333 818.996,352.904 C820.358667,350.962667 821.04,348.610667 821.04,345.848 C821.04,343.757333 820.704,342.012 820.032,340.612 C819.36,339.212 818.408,338.054667 817.176,337.14 C815.944,336.225333 814.488,335.450667 812.808,334.816 C811.128,334.181333 809.261333,333.621333 807.208,333.136 C805.229333,332.650667 803.708,332.137333 802.644,331.596 C801.58,331.054667 801.048,330.242667 801.048,329.16 C801.048,328.114667 801.561333,327.321333 802.588,326.78 C803.614667,326.238667 805.061333,325.968 806.928,325.968 C808.234667,325.968 809.588,326.089333 810.988,326.332 C812.388,326.574667 813.778667,326.929333 815.16,327.396 C816.541333,327.862667 817.848,328.469333 819.08,329.216 L819.08,329.216 L819.08,319.864 C817.362667,319.005333 815.44,318.333333 813.312,317.848 C811.184,317.362667 809.018667,317.12 806.816,317.12 C803.418667,317.12 800.469333,317.633333 797.968,318.66 C795.466667,319.686667 793.544,321.152 792.2,323.056 C790.856,324.96 790.184,327.256 790.184,329.944 C790.184,331.698667 790.445333,333.229333 790.968,334.536 C791.490667,335.842667 792.312,336.990667 793.432,337.98 C794.552,338.969333 796.008,339.837333 797.8,340.584 C799.592,341.330667 801.757333,342.002667 804.296,342.6 C805.453333,342.861333 806.461333,343.16 807.32,343.496 C808.178667,343.832 808.850667,344.233333 809.336,344.7 C809.821333,345.166667 810.064,345.792 810.064,346.576 C810.064,347.658667 809.522667,348.498667 808.44,349.096 C807.357333,349.693333 805.752,349.992 803.624,349.992 C801.458667,349.992 799.284,349.684 797.1,349.068 C794.916,348.452 792.778667,347.546667 790.688,346.352 L790.688,346.352 L790.688,355.816 C792.853333,356.861333 795.009333,357.626667 797.156,358.112 C799.302667,358.597333 801.514667,358.84 803.792,358.84 Z M836.944,358 L836.944,333.696 C838.176,336.533333 839.436,339.370667 840.724,342.208 C842.012,345.045333 843.309333,347.882667 844.616,350.72 L844.616,350.72 L853.016,350.72 C854.285333,347.882667 855.545333,345.036 856.796,342.18 C858.046667,339.324 859.288,336.44 860.52,333.528 L860.52,333.528 L860.52,358 L870.712,358 L870.712,317.96 L857.72,317.96 C856.301333,321.730667 854.864,325.454667 853.408,329.132 C851.952,332.809333 850.477333,336.44 848.984,340.024 C847.416,336.402667 845.876,332.744 844.364,329.048 C842.852,325.352 841.368,321.656 839.912,317.96 L839.912,317.96 L826.752,317.96 L826.752,358 L836.944,358 Z M886.392,358 C887.176,355.461333 887.941333,352.96 888.688,350.496 L888.688,350.496 L903.304,350.496 C903.677333,351.728 904.06,352.969333 904.452,354.22 C904.844,355.470667 905.226667,356.730667 905.6,358 L905.6,358 L917.416,358 C915.026667,351.317333 912.562667,344.634667 910.024,337.952 C907.485333,331.269333 904.872,324.605333 902.184,317.96 L902.184,317.96 L890.144,317.96 C887.530667,324.269333 884.954667,330.765333 882.416,337.448 C879.877333,344.130667 877.376,350.981333 874.912,358 L874.912,358 L886.392,358 Z M900.616,341.984 L891.376,341.984 C892.122667,339.669333 892.888,337.364 893.672,335.068 C894.456,332.772 895.24,330.466667 896.024,328.152 C896.808,330.429333 897.582667,332.716 898.348,335.012 C899.113333,337.308 899.869333,339.632 900.616,341.984 L900.616,341.984 Z M932.2,358 L932.2,344.504 L937.688,344.504 C938.994667,346.706667 940.254667,348.937333 941.468,351.196 C942.681333,353.454667 943.885333,355.722667 945.08,358 L945.08,358 L957.12,358 C955.589333,355.274667 954.030667,352.605333 952.444,349.992 C950.857333,347.378667 949.242667,344.784 947.6,342.208 C949.690667,341.088 951.305333,339.594667 952.444,337.728 C953.582667,335.861333 954.152,333.696 954.152,331.232 C954.152,326.938667 952.677333,323.653333 949.728,321.376 C946.778667,319.098667 942.522667,317.96 936.96,317.96 L936.96,317.96 L921.616,317.96 L921.616,358 L932.2,358 Z M936.456,336.104 L932.2,336.104 L932.2,326.36 L936.456,326.36 C938.733333,326.36 940.413333,326.761333 941.496,327.564 C942.578667,328.366667 943.12,329.589333 943.12,331.232 C943.12,332.837333 942.578667,334.050667 941.496,334.872 C940.413333,335.693333 938.733333,336.104 936.456,336.104 L936.456,336.104 Z M981.424,358 L981.424,327.368 L993.408,327.368 L993.408,317.96 L958.52,317.96 L958.52,327.368 L970.504,327.368 L970.504,358 L981.424,358 Z M803.792,420.84 C807.450667,420.84 810.558667,420.336 813.116,419.328 C815.673333,418.32 817.633333,416.845333 818.996,414.904 C820.358667,412.962667 821.04,410.610667 821.04,407.848 C821.04,405.757333 820.704,404.012 820.032,402.612 C819.36,401.212 818.408,400.054667 817.176,399.14 C815.944,398.225333 814.488,397.450667 812.808,396.816 C811.128,396.181333 809.261333,395.621333 807.208,395.136 C805.229333,394.650667 803.708,394.137333 802.644,393.596 C801.58,393.054667 801.048,392.242667 801.048,391.16 C801.048,390.114667 801.561333,389.321333 802.588,388.78 C803.614667,388.238667 805.061333,387.968 806.928,387.968 C808.234667,387.968 809.588,388.089333 810.988,388.332 C812.388,388.574667 813.778667,388.929333 815.16,389.396 C816.541333,389.862667 817.848,390.469333 819.08,391.216 L819.08,391.216 L819.08,381.864 C817.362667,381.005333 815.44,380.333333 813.312,379.848 C811.184,379.362667 809.018667,379.12 806.816,379.12 C803.418667,379.12 800.469333,379.633333 797.968,380.66 C795.466667,381.686667 793.544,383.152 792.2,385.056 C790.856,386.96 790.184,389.256 790.184,391.944 C790.184,393.698667 790.445333,395.229333 790.968,396.536 C791.490667,397.842667 792.312,398.990667 793.432,399.98 C794.552,400.969333 796.008,401.837333 797.8,402.584 C799.592,403.330667 801.757333,404.002667 804.296,404.6 C805.453333,404.861333 806.461333,405.16 807.32,405.496 C808.178667,405.832 808.850667,406.233333 809.336,406.7 C809.821333,407.166667 810.064,407.792 810.064,408.576 C810.064,409.658667 809.522667,410.498667 808.44,411.096 C807.357333,411.693333 805.752,411.992 803.624,411.992 C801.458667,411.992 799.284,411.684 797.1,411.068 C794.916,410.452 792.778667,409.546667 790.688,408.352 L790.688,408.352 L790.688,417.816 C792.853333,418.861333 795.009333,419.626667 797.156,420.112 C799.302667,420.597333 801.514667,420.84 803.792,420.84 Z M837.336,420 L837.336,407.288 L841.816,407.288 C845.437333,407.288 848.498667,406.756 851,405.692 C853.501333,404.628 855.405333,403.078667 856.712,401.044 C858.018667,399.009333 858.672,396.536 858.672,393.624 C858.672,389.218667 857.225333,385.84 854.332,383.488 C851.438667,381.136 847.266667,379.96 841.816,379.96 L841.816,379.96 L826.752,379.96 L826.752,420 L837.336,420 Z M841.312,398.888 L837.336,398.888 L837.336,388.36 L841.312,388.36 C845.530667,388.36 847.64,390.114667 847.64,393.624 C847.64,397.133333 845.530667,398.888 841.312,398.888 L841.312,398.888 Z M893.952,420 L893.952,411.264 L874.856,411.264 L874.856,403.984 L890.648,403.984 L890.648,395.248 L874.856,395.248 L874.856,388.696 L892.888,388.696 L892.888,379.96 L864.216,379.96 L864.216,420 L893.952,420 Z M907.504,420 C908.288,417.461333 909.053333,414.96 909.8,412.496 L909.8,412.496 L924.416,412.496 C924.789333,413.728 925.172,414.969333 925.564,416.22 C925.956,417.470667 926.338667,418.730667 926.712,420 L926.712,420 L938.528,420 C936.138667,413.317333 933.674667,406.634667 931.136,399.952 C928.597333,393.269333 925.984,386.605333 923.296,379.96 L923.296,379.96 L911.256,379.96 C908.642667,386.269333 906.066667,392.765333 903.528,399.448 C900.989333,406.130667 898.488,412.981333 896.024,420 L896.024,420 L907.504,420 Z M921.728,403.984 L912.488,403.984 C913.234667,401.669333 914,399.364 914.784,397.068 C915.568,394.772 916.352,392.466667 917.136,390.152 C917.92,392.429333 918.694667,394.716 919.46,397.012 C920.225333,399.308 920.981333,401.632 921.728,403.984 L921.728,403.984 Z M953.648,420 L953.648,403.48 L955.608,403.48 C957.698667,406.28 959.724,409.042667 961.684,411.768 C963.644,414.493333 965.594667,417.237333 967.536,420 L967.536,420 L981.2,420 C978.437333,416.341333 975.702667,412.748 972.996,409.22 C970.289333,405.692 967.554667,402.210667 964.792,398.776 C967.368,395.64 969.888,392.504 972.352,389.368 C974.816,386.232 977.242667,383.096 979.632,379.96 L979.632,379.96 L966.752,379.96 C965.034667,382.386667 963.28,384.822667 961.488,387.268 C959.696,389.713333 957.810667,392.205333 955.832,394.744 L955.832,394.744 L953.648,394.744 L953.648,379.96 L942.728,379.96 L942.728,420 L953.648,420 Z M1014.968,420 L1014.968,411.264 L995.872,411.264 L995.872,403.984 L1011.664,403.984 L1011.664,395.248 L995.872,395.248 L995.872,388.696 L1013.904,388.696 L1013.904,379.96 L985.232,379.96 L985.232,420 L1014.968,420 Z M1030.816,420 L1030.816,406.504 L1036.304,406.504 C1037.61067,408.706667 1038.87067,410.937333 1040.084,413.196 C1041.29733,415.454667 1042.50133,417.722667 1043.696,420 L1043.696,420 L1055.736,420 C1054.20533,417.274667 1052.64667,414.605333 1051.06,411.992 C1049.47333,409.378667 1047.85867,406.784 1046.216,404.208 C1048.30667,403.088 1049.92133,401.594667 1051.06,399.728 C1052.19867,397.861333 1052.768,395.696 1052.768,393.232 C1052.768,388.938667 1051.29333,385.653333 1048.344,383.376 C1045.39467,381.098667 1041.13867,379.96 1035.576,379.96 L1035.576,379.96 L1020.232,379.96 L1020.232,420 L1030.816,420 Z M1035.072,398.104 L1030.816,398.104 L1030.816,388.36 L1035.072,388.36 C1037.34933,388.36 1039.02933,388.761333 1040.112,389.564 C1041.19467,390.366667 1041.736,391.589333 1041.736,393.232 C1041.736,394.837333 1041.19467,396.050667 1040.112,396.872 C1039.02933,397.693333 1037.34933,398.104 1035.072,398.104 L1035.072,398.104 Z" id="ANAMAZONSMARTSPEAKER"></path>
            </g>
        </g>
    </g>
</svg>