<svg width="1200" height="677" viewBox="0 0 1200 677" xmlns="http://www.w3.org/2000/svg" xmlns:xlink="http://www.w3.org/1999/xlink"><title>greg-text-10</title><desc>Created with Sketch.</desc><g id="Assets" stroke="none" stroke-width="1" fill="none" fill-rule="evenodd"><g id="Greg" fill="#fff" fill-rule="nonzero"><g id="greg-text-10"><path d="M814.488 265V250.16C817.064 245.978667 819.602667 241.788 822.104 237.588 824.605333 233.388 827.050667 229.178667 829.44 224.96v0H817.456C816.149333 227.610667 814.805333 230.270667 813.424 232.94 812.042667 235.609333 810.661333 238.269333 809.28 240.92 807.861333 238.269333 806.470667 235.618667 805.108 232.968 803.745333 230.317333 802.392 227.648 801.048 224.96v0H788.672C791.024 229.178667 793.450667 233.388 795.952 237.588 798.453333 241.788 800.992 245.978667 803.568 250.16v0V265H814.488zM852.68 265.84C855.778667 265.84 858.578667 265.354667 861.08 264.384 863.581333 263.413333 865.718667 262.013333 867.492 260.184 869.265333 258.354667 870.628 256.152 871.58 253.576 872.532 251 873.008 248.125333 873.008 244.952 873.008 241.741333 872.532 238.857333 871.58 236.3 870.628 233.742667 869.265333 231.558667 867.492 229.748 865.718667 227.937333 863.581333 226.546667 861.08 225.576 858.578667 224.605333 855.778667 224.12 852.68 224.12 849.581333 224.12 846.781333 224.605333 844.28 225.576 841.778667 226.546667 839.641333 227.937333 837.868 229.748 836.094667 231.558667 834.732 233.742667 833.78 236.3 832.828 238.857333 832.352 241.741333 832.352 244.952 832.352 248.125333 832.828 251 833.78 253.576 834.732 256.152 836.094667 258.354667 837.868 260.184 839.641333 262.013333 841.778667 263.413333 844.28 264.384 846.781333 265.354667 849.581333 265.84 852.68 265.84zM852.68 256.432C849.768 256.432 847.537333 255.442667 845.988 253.464 844.438667 251.485333 843.664 248.648 843.664 244.952 843.664 241.293333 844.438667 238.474667 845.988 236.496 847.537333 234.517333 849.768 233.528 852.68 233.528 855.592 233.528 857.822667 234.517333 859.372 236.496 860.921333 238.474667 861.696 241.293333 861.696 244.952 861.696 248.648 860.921333 251.485333 859.372 253.464 857.822667 255.442667 855.592 256.432 852.68 256.432zM896.584 265.84C900.28 265.84 903.444 265.130667 906.076 263.712 908.708 262.293333 910.724 260.249333 912.124 257.58 913.524 254.910667 914.224 251.728 914.224 248.032v0V224.96H903.472V249.264C903.472 251.541333 902.874667 253.305333 901.68 254.556 900.485333 255.806667 898.786667 256.432 896.584 256.432 894.418667 256.432 892.729333 255.806667 891.516 254.556 890.302667 253.305333 889.696 251.541333 889.696 249.264v0V224.96H878.776V248.032C878.776 251.728 879.485333 254.910667 880.904 257.58 882.322667 260.249333 884.366667 262.293333 887.036 263.712 889.705333 265.130667 892.888 265.84 896.584 265.84zM926.208 241.704C927.216 240.696 928.084 239.585333 928.812 238.372 929.54 237.158667 930.109333 235.889333 930.52 234.564 930.930667 233.238667 931.136 231.978667 931.136 230.784 931.136 228.768 930.688 227.228 929.792 226.164 928.896 225.1 927.533333 224.568 925.704 224.568 924.136 224.568 922.894667 225.025333 921.98 225.94 921.065333 226.854667 920.608 228.058667 920.608 229.552 920.608 230.709333 920.906667 231.68 921.504 232.464 922.101333 233.248 922.922667 233.789333 923.968 234.088 923.258667 236.626667 921.672 239.165333 919.208 241.704v0h7zM961.208 265C963.784 258.317333 966.322667 251.634667 968.824 244.952 971.325333 238.269333 973.752 231.605333 976.104 224.96v0H964.512C963.056 229.813333 961.572 234.648 960.06 239.464 958.548 244.28 957.008 249.096 955.44 253.912 953.909333 249.096 952.388 244.28 950.876 239.464 949.364 234.648 947.88 229.813333 946.424 224.96v0H934.496C936.848 231.605333 939.274667 238.269333 941.776 244.952 944.277333 251.634667 946.816 258.317333 949.392 265v0H961.208zM1010.04 265V256.264H990.944V248.984H1006.736V240.248H990.944V233.696H1008.976V224.96H980.304V265H1010.04zM1045.152 265C1048.512 265 1051.396 264.533333 1053.804 263.6 1056.212 262.666667 1058.06 261.322667 1059.348 259.568 1060.636 257.813333 1061.28 255.722667 1061.28 253.296 1061.28 250.944 1060.68267 248.937333 1059.488 247.276 1058.29333 245.614667 1056.576 244.373333 1054.336 243.552 1057.50933 241.797333 1059.096 239.128 1059.096 235.544 1059.096 232.109333 1057.808 229.486667 1055.232 227.676 1052.656 225.865333 1048.97867 224.96 1044.2 224.96v0H1027.792V265H1045.152zM1043.136 240.864H1038.208V233.024H1043.136C1046.72 233.024 1048.512 234.274667 1048.512 236.776 1048.512 238.045333 1048.05467 239.044 1047.14 239.772 1046.22533 240.5 1044.89067 240.864 1043.136 240.864v0zM1044.144 256.936H1038.208V248.592H1044.2C1048.456 248.592 1050.584 250.010667 1050.584 252.848 1050.584 254.154667 1050.03333 255.162667 1048.932 255.872 1047.83067 256.581333 1046.23467 256.936 1044.144 256.936v0zM1096.672 265V256.264H1077.576V248.984H1093.368V240.248H1077.576V233.696H1095.608V224.96H1066.936V265H1096.672zm35 0V256.264H1112.576V248.984H1128.368V240.248H1112.576V233.696H1130.608V224.96H1101.936V265H1131.672zM1147.352 265V240.696C1149.77867 244.578667 1152.252 248.582667 1154.772 252.708 1157.292 256.833333 1159.74667 260.930667 1162.136 265v0H1173.112V224.96H1162.696V248.816C1160.26933 244.746667 1157.824 240.714667 1155.36 236.72 1152.896 232.725333 1150.41333 228.805333 1147.912 224.96v0H1136.936V265H1147.352zM809.056 327C812.416 327 815.3 326.533333 817.708 325.6 820.116 324.666667 821.964 323.322667 823.252 321.568 824.54 319.813333 825.184 317.722667 825.184 315.296 825.184 312.944 824.586667 310.937333 823.392 309.276 822.197333 307.614667 820.48 306.373333 818.24 305.552 821.413333 303.797333 823 301.128 823 297.544 823 294.109333 821.712 291.486667 819.136 289.676 816.56 287.865333 812.882667 286.96 808.104 286.96v0H791.696V327H809.056zM807.04 302.864H802.112V295.024H807.04C810.624 295.024 812.416 296.274667 812.416 298.776 812.416 300.045333 811.958667 301.044 811.044 301.772 810.129333 302.5 808.794667 302.864 807.04 302.864v0zM808.048 318.936H802.112V310.592H808.104C812.36 310.592 814.488 312.010667 814.488 314.848 814.488 316.154667 813.937333 317.162667 812.836 317.872 811.734667 318.581333 810.138667 318.936 808.048 318.936v0zM860.576 327V318.264H841.48V310.984H857.272V302.248H841.48V295.696H859.512V286.96H830.84V327H860.576zM874.128 327C874.912 324.461333 875.677333 321.96 876.424 319.496v0H891.04C891.413333 320.728 891.796 321.969333 892.188 323.22 892.58 324.470667 892.962667 325.730667 893.336 327v0H905.152C902.762667 320.317333 900.298667 313.634667 897.76 306.952 895.221333 300.269333 892.608 293.605333 889.92 286.96v0H877.88C875.266667 293.269333 872.690667 299.765333 870.152 306.448 867.613333 313.130667 865.112 319.981333 862.648 327v0H874.128zM888.352 310.984H879.112C879.858667 308.669333 880.624 306.364 881.408 304.068 882.192 301.772 882.976 299.466667 883.76 297.152 884.544 299.429333 885.318667 301.716 886.084 304.012 886.849333 306.308 887.605333 308.632 888.352 310.984v0zM929.344 327V296.368H941.328V286.96H906.44V296.368H918.424V327H929.344zM975.544 327V318.264H956.448V310.984H972.24V302.248H956.448V295.696H974.48V286.96H945.808V327H975.544zM991.224 327V302.696C993.650667 306.578667 996.124 310.582667 998.644 314.708 1001.164 318.833333 1003.61867 322.930667 1006.008 327v0H1016.984V286.96H1006.568V310.816C1004.14133 306.746667 1001.696 302.714667 999.232 298.72 996.768 294.725333 994.285333 290.805333 991.784 286.96v0H980.808V327H991.224zM1054.224 327C1057.584 327 1060.468 326.533333 1062.876 325.6 1065.284 324.666667 1067.132 323.322667 1068.42 321.568 1069.708 319.813333 1070.352 317.722667 1070.352 315.296 1070.352 312.944 1069.75467 310.937333 1068.56 309.276 1067.36533 307.614667 1065.648 306.373333 1063.408 305.552 1066.58133 303.797333 1068.168 301.128 1068.168 297.544 1068.168 294.109333 1066.88 291.486667 1064.304 289.676 1061.728 287.865333 1058.05067 286.96 1053.272 286.96v0H1036.864V327H1054.224zM1052.208 302.864H1047.28V295.024H1052.208C1055.792 295.024 1057.584 296.274667 1057.584 298.776 1057.584 300.045333 1057.12667 301.044 1056.212 301.772 1055.29733 302.5 1053.96267 302.864 1052.208 302.864v0zM1053.216 318.936H1047.28V310.592H1053.272C1057.528 310.592 1059.656 312.010667 1059.656 314.848 1059.656 316.154667 1059.10533 317.162667 1058.004 317.872 1056.90267 318.581333 1055.30667 318.936 1053.216 318.936v0zM1098.8 327V312.16C1101.376 307.978667 1103.91467 303.788 1106.416 299.588 1108.91733 295.388 1111.36267 291.178667 1113.752 286.96v0H1101.768C1100.46133 289.610667 1099.11733 292.270667 1097.736 294.94 1096.35467 297.609333 1094.97333 300.269333 1093.592 302.92 1092.17333 300.269333 1090.78267 297.618667 1089.42 294.968 1088.05733 292.317333 1086.704 289.648 1085.36 286.96v0H1072.984C1075.336 291.178667 1077.76267 295.388 1080.264 299.588 1082.76533 303.788 1085.304 307.978667 1087.88 312.16v0V327H1098.8zM811.688 389V358.368H823.672V348.96H788.784V358.368H800.768V389H811.688zM839.072 389V372.816H853.296V389H864.216V348.96H853.296V363.408H839.072V348.96H828.152V389H839.072zM901.344 389V380.264H882.248V372.984H898.04V364.248H882.248V357.696H900.28V348.96H871.608V389H901.344zM947.824 389V379.592H930.016V348.96H919.096V389H947.824zM963.224 389V348.96H952.304V389H963.224zM982.712 389.84C986.370667 389.84 989.478667 389.336 992.036 388.328 994.593333 387.32 996.553333 385.845333 997.916 383.904 999.278667 381.962667 999.96 379.610667 999.96 376.848 999.96 374.757333 999.624 373.012 998.952 371.612 998.28 370.212 997.328 369.054667 996.096 368.14 994.864 367.225333 993.408 366.450667 991.728 365.816 990.048 365.181333 988.181333 364.621333 986.128 364.136 984.149333 363.650667 982.628 363.137333 981.564 362.596 980.5 362.054667 979.968 361.242667 979.968 360.16 979.968 359.114667 980.481333 358.321333 981.508 357.78 982.534667 357.238667 983.981333 356.968 985.848 356.968 987.154667 356.968 988.508 357.089333 989.908 357.332 991.308 357.574667 992.698667 357.929333 994.08 358.396 995.461333 358.862667 996.768 359.469333 998 360.216v0V350.864C996.282667 350.005333 994.36 349.333333 992.232 348.848 990.104 348.362667 987.938667 348.12 985.736 348.12 982.338667 348.12 979.389333 348.633333 976.888 349.66 974.386667 350.686667 972.464 352.152 971.12 354.056 969.776 355.96 969.104 358.256 969.104 360.944 969.104 362.698667 969.365333 364.229333 969.888 365.536 970.410667 366.842667 971.232 367.990667 972.352 368.98 973.472 369.969333 974.928 370.837333 976.72 371.584 978.512 372.330667 980.677333 373.002667 983.216 373.6 984.373333 373.861333 985.381333 374.16 986.24 374.496 987.098667 374.832 987.770667 375.233333 988.256 375.7 988.741333 376.166667 988.984 376.792 988.984 377.576 988.984 378.658667 988.442667 379.498667 987.36 380.096 986.277333 380.693333 984.672 380.992 982.544 380.992 980.378667 380.992 978.204 380.684 976.02 380.068 973.836 379.452 971.698667 378.546667 969.608 377.352v0V386.816C971.773333 387.861333 973.929333 388.626667 976.076 389.112 978.222667 389.597333 980.434667 389.84 982.712 389.84zM1025.664 389V358.368H1037.648V348.96H1002.76V358.368H1014.744V389H1025.664zM1071.864 389V380.264H1052.768V372.984H1068.56V364.248H1052.768V357.696H1070.8V348.96H1042.128V389H1071.864zM1087.544 389V364.696C1089.97067 368.578667 1092.444 372.582667 1094.964 376.708 1097.484 380.833333 1099.93867 384.930667 1102.328 389v0H1113.304V348.96H1102.888V372.816C1100.46133 368.746667 1098.016 364.714667 1095.552 360.72 1093.088 356.725333 1090.60533 352.805333 1088.104 348.96v0H1077.128V389H1087.544zM1150.432 389V380.264H1131.336V372.984H1147.128V364.248H1131.336V357.696H1149.368V348.96H1120.696V389H1150.432zM1166.28 389V375.504H1171.768C1173.07467 377.706667 1174.33467 379.937333 1175.548 382.196 1176.76133 384.454667 1177.96533 386.722667 1179.16 389v0H1191.2C1189.66933 386.274667 1188.11067 383.605333 1186.524 380.992 1184.93733 378.378667 1183.32267 375.784 1181.68 373.208 1183.77067 372.088 1185.38533 370.594667 1186.524 368.728 1187.66267 366.861333 1188.232 364.696 1188.232 362.232 1188.232 357.938667 1186.75733 354.653333 1183.808 352.376 1180.85867 350.098667 1176.60267 348.96 1171.04 348.96v0H1155.696V389H1166.28zM1170.536 367.104H1166.28V357.36H1170.536C1172.81333 357.36 1174.49333 357.761333 1175.576 358.564 1176.65867 359.366667 1177.2 360.589333 1177.2 362.232 1177.2 363.837333 1176.65867 365.050667 1175.576 365.872 1174.49333 366.693333 1172.81333 367.104 1170.536 367.104v0zM799.984 451C800.768 448.461333 801.533333 445.96 802.28 443.496v0H816.896C817.269333 444.728 817.652 445.969333 818.044 447.22 818.436 448.470667 818.818667 449.730667 819.192 451v0H831.008C828.618667 444.317333 826.154667 437.634667 823.616 430.952 821.077333 424.269333 818.464 417.605333 815.776 410.96v0H803.736C801.122667 417.269333 798.546667 423.765333 796.008 430.448 793.469333 437.130667 790.968 443.981333 788.504 451v0H799.984zM814.208 434.984H804.968C805.714667 432.669333 806.48 430.364 807.264 428.068 808.048 425.772 808.832 423.466667 809.616 421.152 810.4 423.429333 811.174667 425.716 811.94 428.012 812.705333 430.308 813.461333 432.632 814.208 434.984v0zM855.2 451V420.368H867.184V410.96H832.296V420.368H844.28V451H855.2zM895.072 451V434.816H909.296V451H920.216V410.96H909.296V425.408H895.072V410.96H884.152V451H895.072zM946.48 451.84C949.578667 451.84 952.378667 451.354667 954.88 450.384 957.381333 449.413333 959.518667 448.013333 961.292 446.184 963.065333 444.354667 964.428 442.152 965.38 439.576 966.332 437 966.808 434.125333 966.808 430.952 966.808 427.741333 966.332 424.857333 965.38 422.3 964.428 419.742667 963.065333 417.558667 961.292 415.748 959.518667 413.937333 957.381333 412.546667 954.88 411.576 952.378667 410.605333 949.578667 410.12 946.48 410.12 943.381333 410.12 940.581333 410.605333 938.08 411.576 935.578667 412.546667 933.441333 413.937333 931.668 415.748 929.894667 417.558667 928.532 419.742667 927.58 422.3 926.628 424.857333 926.152 427.741333 926.152 430.952 926.152 434.125333 926.628 437 927.58 439.576 928.532 442.152 929.894667 444.354667 931.668 446.184 933.441333 448.013333 935.578667 449.413333 938.08 450.384 940.581333 451.354667 943.381333 451.84 946.48 451.84zM946.48 442.432C943.568 442.432 941.337333 441.442667 939.788 439.464 938.238667 437.485333 937.464 434.648 937.464 430.952 937.464 427.293333 938.238667 424.474667 939.788 422.496 941.337333 420.517333 943.568 419.528 946.48 419.528 949.392 419.528 951.622667 420.517333 953.172 422.496 954.721333 424.474667 955.496 427.293333 955.496 430.952 955.496 434.648 954.721333 437.485333 953.172 439.464 951.622667 441.442667 949.392 442.432 946.48 442.432zM982.936 451V426.696C984.168 429.533333 985.428 432.370667 986.716 435.208 988.004 438.045333 989.301333 440.882667 990.608 443.72v0H999.008C1000.27733 440.882667 1001.53733 438.036 1002.788 435.18 1004.03867 432.324 1005.28 429.44 1006.512 426.528v0V451H1016.704V410.96H1003.712C1002.29333 414.730667 1000.856 418.454667 999.4 422.132 997.944 425.809333 996.469333 429.44 994.976 433.024 993.408 429.402667 991.868 425.744 990.356 422.048 988.844 418.352 987.36 414.656 985.904 410.96v0H972.744V451H982.936zM1053.832 451V442.264H1034.736V434.984H1050.528V426.248H1034.736V419.696H1052.768V410.96H1024.096V451H1053.832z" id="YOU’VEBEENBEATENBYTHELISTENERATHOME"/></g></g></g></svg>