<?xml version="1.0" encoding="UTF-8"?>
<svg width="1200px" height="677px" viewBox="0 0 1200 677" version="1.1" xmlns="http://www.w3.org/2000/svg" xmlns:xlink="http://www.w3.org/1999/xlink">
    <!-- Generator: Sketch 61.2 (89653) - https://sketch.com -->
    <title>greg-text-01 copy 7</title>
    <desc>Created with Sketch.</desc>
    <g id="Assets" stroke="none" stroke-width="1" fill="none" fill-rule="evenodd">
        <g id="Greg" transform="translate(0.000000, 3.000000)" fill="#FFFFFF" fill-rule="nonzero">
            <g id="greg-text-02e" transform="translate(0.000000, -3.000000)">
                <path d="M803.792,358.84 C807.450667,358.84 810.558667,358.336 813.116,357.328 C815.673333,356.32 817.633333,354.845333 818.996,352.904 C820.358667,350.962667 821.04,348.610667 821.04,345.848 C821.04,343.757333 820.704,342.012 820.032,340.612 C819.36,339.212 818.408,338.054667 817.176,337.14 C815.944,336.225333 814.488,335.450667 812.808,334.816 C811.128,334.181333 809.261333,333.621333 807.208,333.136 C805.229333,332.650667 803.708,332.137333 802.644,331.596 C801.58,331.054667 801.048,330.242667 801.048,329.16 C801.048,328.114667 801.561333,327.321333 802.588,326.78 C803.614667,326.238667 805.061333,325.968 806.928,325.968 C808.234667,325.968 809.588,326.089333 810.988,326.332 C812.388,326.574667 813.778667,326.929333 815.16,327.396 C816.541333,327.862667 817.848,328.469333 819.08,329.216 L819.08,329.216 L819.08,319.864 C817.362667,319.005333 815.44,318.333333 813.312,317.848 C811.184,317.362667 809.018667,317.12 806.816,317.12 C803.418667,317.12 800.469333,317.633333 797.968,318.66 C795.466667,319.686667 793.544,321.152 792.2,323.056 C790.856,324.96 790.184,327.256 790.184,329.944 C790.184,331.698667 790.445333,333.229333 790.968,334.536 C791.490667,335.842667 792.312,336.990667 793.432,337.98 C794.552,338.969333 796.008,339.837333 797.8,340.584 C799.592,341.330667 801.757333,342.002667 804.296,342.6 C805.453333,342.861333 806.461333,343.16 807.32,343.496 C808.178667,343.832 808.850667,344.233333 809.336,344.7 C809.821333,345.166667 810.064,345.792 810.064,346.576 C810.064,347.658667 809.522667,348.498667 808.44,349.096 C807.357333,349.693333 805.752,349.992 803.624,349.992 C801.458667,349.992 799.284,349.684 797.1,349.068 C794.916,348.452 792.778667,347.546667 790.688,346.352 L790.688,346.352 L790.688,355.816 C792.853333,356.861333 795.009333,357.626667 797.156,358.112 C799.302667,358.597333 801.514667,358.84 803.792,358.84 Z M835.04,358 C835.824,355.461333 836.589333,352.96 837.336,350.496 L837.336,350.496 L851.952,350.496 C852.325333,351.728 852.708,352.969333 853.1,354.22 C853.492,355.470667 853.874667,356.730667 854.248,358 L854.248,358 L866.064,358 C863.674667,351.317333 861.210667,344.634667 858.672,337.952 C856.133333,331.269333 853.52,324.605333 850.832,317.96 L850.832,317.96 L838.792,317.96 C836.178667,324.269333 833.602667,330.765333 831.064,337.448 C828.525333,344.130667 826.024,350.981333 823.56,358 L823.56,358 L835.04,358 Z M849.264,341.984 L840.024,341.984 C840.770667,339.669333 841.536,337.364 842.32,335.068 C843.104,332.772 843.888,330.466667 844.672,328.152 C845.456,330.429333 846.230667,332.716 846.996,335.012 C847.761333,337.308 848.517333,339.632 849.264,341.984 L849.264,341.984 Z M893.056,358 L893.056,343.16 C895.632,338.978667 898.170667,334.788 900.672,330.588 C903.173333,326.388 905.618667,322.178667 908.008,317.96 L908.008,317.96 L896.024,317.96 C894.717333,320.610667 893.373333,323.270667 891.992,325.94 C890.610667,328.609333 889.229333,331.269333 887.848,333.92 C886.429333,331.269333 885.038667,328.618667 883.676,325.968 C882.313333,323.317333 880.96,320.648 879.616,317.96 L879.616,317.96 L867.24,317.96 C869.592,322.178667 872.018667,326.388 874.52,330.588 C877.021333,334.788 879.56,338.978667 882.136,343.16 L882.136,343.16 L882.136,358 L893.056,358 Z M935.28,358 L935.28,333.696 C937.706667,337.578667 940.18,341.582667 942.7,345.708 C945.22,349.833333 947.674667,353.930667 950.064,358 L950.064,358 L961.04,358 L961.04,317.96 L950.624,317.96 L950.624,341.816 C948.197333,337.746667 945.752,333.714667 943.288,329.72 C940.824,325.725333 938.341333,321.805333 935.84,317.96 L935.84,317.96 L924.864,317.96 L924.864,358 L935.28,358 Z M987.304,358.84 C990.402667,358.84 993.202667,358.354667 995.704,357.384 C998.205333,356.413333 1000.34267,355.013333 1002.116,353.184 C1003.88933,351.354667 1005.252,349.152 1006.204,346.576 C1007.156,344 1007.632,341.125333 1007.632,337.952 C1007.632,334.741333 1007.156,331.857333 1006.204,329.3 C1005.252,326.742667 1003.88933,324.558667 1002.116,322.748 C1000.34267,320.937333 998.205333,319.546667 995.704,318.576 C993.202667,317.605333 990.402667,317.12 987.304,317.12 C984.205333,317.12 981.405333,317.605333 978.904,318.576 C976.402667,319.546667 974.265333,320.937333 972.492,322.748 C970.718667,324.558667 969.356,326.742667 968.404,329.3 C967.452,331.857333 966.976,334.741333 966.976,337.952 C966.976,341.125333 967.452,344 968.404,346.576 C969.356,349.152 970.718667,351.354667 972.492,353.184 C974.265333,355.013333 976.402667,356.413333 978.904,357.384 C981.405333,358.354667 984.205333,358.84 987.304,358.84 Z M987.304,349.432 C984.392,349.432 982.161333,348.442667 980.612,346.464 C979.062667,344.485333 978.288,341.648 978.288,337.952 C978.288,334.293333 979.062667,331.474667 980.612,329.496 C982.161333,327.517333 984.392,326.528 987.304,326.528 C990.216,326.528 992.446667,327.517333 993.996,329.496 C995.545333,331.474667 996.32,334.293333 996.32,337.952 C996.32,341.648 995.545333,344.485333 993.996,346.464 C992.446667,348.442667 990.216,349.432 987.304,349.432 Z M1032.048,358 C1033.13067,353.893333 1034.176,349.777333 1035.184,345.652 C1036.192,341.526667 1037.2,337.392 1038.208,333.248 C1039.17867,337.392 1040.18667,341.526667 1041.232,345.652 C1042.27733,349.777333 1043.34133,353.893333 1044.424,358 L1044.424,358 L1055.736,358 C1057.60267,351.466667 1059.38533,344.858667 1061.084,338.176 C1062.78267,331.493333 1064.37867,324.754667 1065.872,317.96 L1065.872,317.96 L1054.392,317.96 C1053.68267,322.626667 1052.92667,327.293333 1052.124,331.96 C1051.32133,336.626667 1050.472,341.237333 1049.576,345.792 C1048.568,341.461333 1047.56933,337.121333 1046.58,332.772 C1045.59067,328.422667 1044.62933,324.045333 1043.696,319.64 L1043.696,319.64 L1033.224,319.64 C1032.29067,324.12 1031.32,328.609333 1030.312,333.108 C1029.304,337.606667 1028.25867,342.114667 1027.176,346.632 C1026.28,341.965333 1025.42133,337.224 1024.6,332.408 C1023.77867,327.592 1023.01333,322.776 1022.304,317.96 L1022.304,317.96 L1010.6,317.96 C1012.13067,324.754667 1013.74533,331.493333 1015.444,338.176 C1017.14267,344.858667 1018.90667,351.466667 1020.736,358 L1020.736,358 L1032.048,358 Z M1075.896,358.504 C1077.09067,358.504 1078.11733,358.252 1078.976,357.748 C1079.83467,357.244 1080.49733,356.572 1080.964,355.732 C1081.43067,354.892 1081.664,353.968 1081.664,352.96 C1081.664,351.952 1081.43067,351.028 1080.964,350.188 C1080.49733,349.348 1079.83467,348.685333 1078.976,348.2 C1078.11733,347.714667 1077.09067,347.472 1075.896,347.472 C1074.70133,347.472 1073.67467,347.714667 1072.816,348.2 C1071.95733,348.685333 1071.29467,349.348 1070.828,350.188 C1070.36133,351.028 1070.128,351.952 1070.128,352.96 C1070.128,353.968 1070.36133,354.892 1070.828,355.732 C1071.29467,356.572 1071.95733,357.244 1072.816,357.748 C1073.67467,358.252 1074.70133,358.504 1075.896,358.504 Z M1094.6,358.504 C1095.79467,358.504 1096.82133,358.252 1097.68,357.748 C1098.53867,357.244 1099.20133,356.572 1099.668,355.732 C1100.13467,354.892 1100.368,353.968 1100.368,352.96 C1100.368,351.952 1100.13467,351.028 1099.668,350.188 C1099.20133,349.348 1098.53867,348.685333 1097.68,348.2 C1096.82133,347.714667 1095.79467,347.472 1094.6,347.472 C1093.40533,347.472 1092.37867,347.714667 1091.52,348.2 C1090.66133,348.685333 1089.99867,349.348 1089.532,350.188 C1089.06533,351.028 1088.832,351.952 1088.832,352.96 C1088.832,353.968 1089.06533,354.892 1089.532,355.732 C1089.99867,356.572 1090.66133,357.244 1091.52,357.748 C1092.37867,358.252 1093.40533,358.504 1094.6,358.504 Z M1113.304,358.504 C1114.49867,358.504 1115.52533,358.252 1116.384,357.748 C1117.24267,357.244 1117.90533,356.572 1118.372,355.732 C1118.83867,354.892 1119.072,353.968 1119.072,352.96 C1119.072,351.952 1118.83867,351.028 1118.372,350.188 C1117.90533,349.348 1117.24267,348.685333 1116.384,348.2 C1115.52533,347.714667 1114.49867,347.472 1113.304,347.472 C1112.10933,347.472 1111.08267,347.714667 1110.224,348.2 C1109.36533,348.685333 1108.70267,349.348 1108.236,350.188 C1107.76933,351.028 1107.536,351.952 1107.536,352.96 C1107.536,353.968 1107.76933,354.892 1108.236,355.732 C1108.70267,356.572 1109.36533,357.244 1110.224,357.748 C1111.08267,358.252 1112.10933,358.504 1113.304,358.504 Z" id="SAYNOW…"></path>
            </g>
        </g>
    </g>
</svg>