<svg width="1200" height="677" viewBox="0 0 1200 677" xmlns="http://www.w3.org/2000/svg" xmlns:xlink="http://www.w3.org/1999/xlink"><title>greg-text-01</title><desc>Created with Sketch.</desc><g id="Assets" stroke="none" stroke-width="1" fill="none" fill-rule="evenodd"><g id="Greg" fill="#fff" fill-rule="nonzero"><g id="greg-text-01"><path d="M811.688 327V296.368H823.672V286.96H788.784V296.368H800.768V327H811.688zM839.072 327V310.816H853.296V327H864.216V286.96H853.296V301.408H839.072V286.96H828.152V327H839.072zM882.528 327V286.96H871.608V327H882.528zM902.016 327.84C905.674667 327.84 908.782667 327.336 911.34 326.328 913.897333 325.32 915.857333 323.845333 917.22 321.904 918.582667 319.962667 919.264 317.610667 919.264 314.848 919.264 312.757333 918.928 311.012 918.256 309.612 917.584 308.212 916.632 307.054667 915.4 306.14 914.168 305.225333 912.712 304.450667 911.032 303.816 909.352 303.181333 907.485333 302.621333 905.432 302.136 903.453333 301.650667 901.932 301.137333 900.868 300.596 899.804 300.054667 899.272 299.242667 899.272 298.16 899.272 297.114667 899.785333 296.321333 900.812 295.78 901.838667 295.238667 903.285333 294.968 905.152 294.968 906.458667 294.968 907.812 295.089333 909.212 295.332 910.612 295.574667 912.002667 295.929333 913.384 296.396 914.765333 296.862667 916.072 297.469333 917.304 298.216v0V288.864C915.586667 288.005333 913.664 287.333333 911.536 286.848 909.408 286.362667 907.242667 286.12 905.04 286.12 901.642667 286.12 898.693333 286.633333 896.192 287.66 893.690667 288.686667 891.768 290.152 890.424 292.056 889.08 293.96 888.408 296.256 888.408 298.944 888.408 300.698667 888.669333 302.229333 889.192 303.536 889.714667 304.842667 890.536 305.990667 891.656 306.98 892.776 307.969333 894.232 308.837333 896.024 309.584 897.816 310.330667 899.981333 311.002667 902.52 311.6 903.677333 311.861333 904.685333 312.16 905.544 312.496 906.402667 312.832 907.074667 313.233333 907.56 313.7 908.045333 314.166667 908.288 314.792 908.288 315.576 908.288 316.658667 907.746667 317.498667 906.664 318.096 905.581333 318.693333 903.976 318.992 901.848 318.992 899.682667 318.992 897.508 318.684 895.324 318.068 893.14 317.452 891.002667 316.546667 888.912 315.352v0V324.816C891.077333 325.861333 893.233333 326.626667 895.38 327.112 897.526667 327.597333 899.738667 327.84 902.016 327.84zM948.384 327V286.96H937.464V327H948.384zM967.872 327.84C971.530667 327.84 974.638667 327.336 977.196 326.328 979.753333 325.32 981.713333 323.845333 983.076 321.904 984.438667 319.962667 985.12 317.610667 985.12 314.848 985.12 312.757333 984.784 311.012 984.112 309.612 983.44 308.212 982.488 307.054667 981.256 306.14 980.024 305.225333 978.568 304.450667 976.888 303.816 975.208 303.181333 973.341333 302.621333 971.288 302.136 969.309333 301.650667 967.788 301.137333 966.724 300.596 965.66 300.054667 965.128 299.242667 965.128 298.16 965.128 297.114667 965.641333 296.321333 966.668 295.78 967.694667 295.238667 969.141333 294.968 971.008 294.968 972.314667 294.968 973.668 295.089333 975.068 295.332 976.468 295.574667 977.858667 295.929333 979.24 296.396 980.621333 296.862667 981.928 297.469333 983.16 298.216v0V288.864C981.442667 288.005333 979.52 287.333333 977.392 286.848 975.264 286.362667 973.098667 286.12 970.896 286.12 967.498667 286.12 964.549333 286.633333 962.048 287.66 959.546667 288.686667 957.624 290.152 956.28 292.056 954.936 293.96 954.264 296.256 954.264 298.944 954.264 300.698667 954.525333 302.229333 955.048 303.536 955.570667 304.842667 956.392 305.990667 957.512 306.98 958.632 307.969333 960.088 308.837333 961.88 309.584 963.672 310.330667 965.837333 311.002667 968.376 311.6 969.533333 311.861333 970.541333 312.16 971.4 312.496 972.258667 312.832 972.930667 313.233333 973.416 313.7 973.901333 314.166667 974.144 314.792 974.144 315.576 974.144 316.658667 973.602667 317.498667 972.52 318.096 971.437333 318.693333 969.832 318.992 967.704 318.992 965.538667 318.992 963.364 318.684 961.18 318.068 958.996 317.452 956.858667 316.546667 954.768 315.352v0V324.816C956.933333 325.861333 959.089333 326.626667 961.236 327.112 963.382667 327.597333 965.594667 327.84 967.872 327.84zM1023.312 327V296.368H1035.296V286.96H1000.408V296.368H1012.392V327H1023.312zM1050.696 327V310.816H1064.92V327H1075.84V286.96H1064.92V301.408H1050.696V286.96H1039.776V327H1050.696zM1112.968 327V318.264H1093.872V310.984H1109.664V302.248H1093.872V295.696H1111.904V286.96H1083.232V327H1112.968zM805.36 399V368.62C806.9 372.166667 808.475 375.713333 810.085 379.26 811.695 382.806667 813.316667 386.353333 814.95 389.9v0h10.5C827.036667 386.353333 828.611667 382.795 830.175 379.225 831.738333 375.655 833.29 372.05 834.83 368.41v0V399H847.57V348.95H831.33C829.556667 353.663333 827.76 358.318333 825.94 362.915 824.12 367.511667 822.276667 372.05 820.41 376.53 818.45 372.003333 816.525 367.43 814.635 362.81 812.745 358.19 810.89 353.57 809.07 348.95v0H792.62V399H805.36zM880.4 400.05C884.273333 400.05 887.773333 399.443333 890.9 398.23 894.026667 397.016667 896.698333 395.266667 898.915 392.98 901.131667 390.693333 902.835 387.94 904.025 384.72 905.215 381.5 905.81 377.906667 905.81 373.94 905.81 369.926667 905.215 366.321667 904.025 363.125 902.835 359.928333 901.131667 357.198333 898.915 354.935 896.698333 352.671667 894.026667 350.933333 890.9 349.72 887.773333 348.506667 884.273333 347.9 880.4 347.9 876.526667 347.9 873.026667 348.506667 869.9 349.72 866.773333 350.933333 864.101667 352.671667 861.885 354.935 859.668333 357.198333 857.965 359.928333 856.775 363.125 855.585 366.321667 854.99 369.926667 854.99 373.94 854.99 377.906667 855.585 381.5 856.775 384.72 857.965 387.94 859.668333 390.693333 861.885 392.98 864.101667 395.266667 866.773333 397.016667 869.9 398.23 873.026667 399.443333 876.526667 400.05 880.4 400.05zM880.4 388.29C876.76 388.29 873.971667 387.053333 872.035 384.58 870.098333 382.106667 869.13 378.56 869.13 373.94 869.13 369.366667 870.098333 365.843333 872.035 363.37 873.971667 360.896667 876.76 359.66 880.4 359.66 884.04 359.66 886.828333 360.896667 888.765 363.37 890.701667 365.843333 891.67 369.366667 891.67 373.94 891.67 378.56 890.701667 382.106667 888.765 384.58 886.828333 387.053333 884.04 388.29 880.4 388.29zM925.97 399V368.62C927.51 372.166667 929.085 375.713333 930.695 379.26 932.305 382.806667 933.926667 386.353333 935.56 389.9v0h10.5C947.646667 386.353333 949.221667 382.795 950.785 379.225 952.348333 375.655 953.9 372.05 955.44 368.41v0V399H968.18V348.95H951.94C950.166667 353.663333 948.37 358.318333 946.55 362.915 944.73 367.511667 942.886667 372.05 941.02 376.53 939.06 372.003333 937.135 367.43 935.245 362.81 933.355 358.19 931.5 353.57 929.68 348.95v0H913.23V399H925.97zm88.62.0V388.08H990.72V378.98H1010.46V368.06H990.72V359.87H1013.26V348.95H977.42V399H1014.59zM1034.19 399V368.62C1037.22333 373.473333 1040.315 378.478333 1043.465 383.635 1046.615 388.791667 1049.68333 393.913333 1052.67 399v0H1066.39V348.95H1053.37V378.77C1050.33667 373.683333 1047.28 368.643333 1044.2 363.65 1041.12 358.656667 1038.01667 353.756667 1034.89 348.95v0H1021.17V399H1034.19zM1100.62 399V360.71H1115.6V348.95H1071.99V360.71H1086.97V399H1100.62z" id="THISISTHEMOMENT"/></g></g></g></svg>