<svg width="1200" height="677" viewBox="0 0 1200 677" xmlns="http://www.w3.org/2000/svg" xmlns:xlink="http://www.w3.org/1999/xlink"><title>greg-text-04</title><desc>Created with Sketch.</desc><g id="Assets" stroke="none" stroke-width="1" fill="none" fill-rule="evenodd"><g id="Greg" fill="#fff" fill-rule="nonzero"><g id="greg-text-04"><path d="M801.888 328V303.696C803.12 306.533333 804.38 309.370667 805.668 312.208 806.956 315.045333 808.253333 317.882667 809.56 320.72v0H817.96C819.229333 317.882667 820.489333 315.036 821.74 312.18 822.990667 309.324 824.232 306.44 825.464 303.528v0V328H835.656V287.96H822.664C821.245333 291.730667 819.808 295.454667 818.352 299.132 816.896 302.809333 815.421333 306.44 813.928 310.024 812.36 306.402667 810.82 302.744 809.308 299.048 807.796 295.352 806.312 291.656 804.856 287.96v0H791.696V328H801.888zM872.784 328V319.264H853.688V311.984H869.48V303.248H853.688V296.696H871.72V287.96H843.048V328H872.784zM906.776 328V318.592H888.968V287.96H878.048V328H906.776zM939.984 328V318.592H922.176V287.96H911.256V328H939.984zM973.192 328V318.592H955.384V287.96H944.464V328H973.192zM1006.4 328V318.592H988.592V287.96H977.672V328H1006.4zM1039.608 328V318.592H1021.8V287.96H1010.88V328H1039.608zM1072.816 328V318.592H1055.008V287.96H1044.088V328H1072.816zM1106.024 328V318.592H1088.216V287.96H1077.296V328H1106.024z" id="MELLLLLLL"/></g></g></g></svg>