<svg width="1200" height="677" viewBox="0 0 1200 677" xmlns="http://www.w3.org/2000/svg" xmlns:xlink="http://www.w3.org/1999/xlink"><title>greg-text-03</title><desc>Created with Sketch.</desc><g id="Assets" stroke="none" stroke-width="1" fill="none" fill-rule="evenodd"><g id="Greg" fill="#fff" fill-rule="nonzero"><g id="greg-text-03"><path d="M799.984 265C800.768 262.461333 801.533333 259.96 802.28 257.496v0H816.896C817.269333 258.728 817.652 259.969333 818.044 261.22 818.436 262.470667 818.818667 263.730667 819.192 265v0H831.008C828.618667 258.317333 826.154667 251.634667 823.616 244.952 821.077333 238.269333 818.464 231.605333 815.776 224.96v0H803.736C801.122667 231.269333 798.546667 237.765333 796.008 244.448 793.469333 251.130667 790.968 257.981333 788.504 265v0H799.984zM814.208 248.984H804.968C805.714667 246.669333 806.48 244.364 807.264 242.068 808.048 239.772 808.832 237.466667 809.616 235.152 810.4 237.429333 811.174667 239.716 811.94 242.012 812.705333 244.308 813.461333 246.632 814.208 248.984v0zM845.624 265V240.696C848.050667 244.578667 850.524 248.582667 853.044 252.708 855.564 256.833333 858.018667 260.930667 860.408 265v0H871.384V224.96H860.968V248.816C858.541333 244.746667 856.096 240.714667 853.632 236.72 851.168 232.725333 848.685333 228.805333 846.184 224.96v0H835.208V265H845.624zM895.072 265C899.328 265 902.958667 264.206667 905.964 262.62 908.969333 261.033333 911.265333 258.746667 912.852 255.76 914.438667 252.773333 915.232 249.152 915.232 244.896 915.232 240.677333 914.438667 237.084 912.852 234.116 911.265333 231.148 908.969333 228.88 905.964 227.312 902.958667 225.744 899.346667 224.96 895.128 224.96v0H878.776V265H895.072zM894.568 255.704H889.696V234.256H894.624C897.685333 234.256 9e2 235.161333 901.568 236.972 903.136 238.782667 903.92 241.424 903.92 244.896 903.92 248.405333 903.126667 251.084 901.54 252.932 899.953333 254.78 897.629333 255.704 894.568 255.704v0zM956.448 265V250.16C959.024 245.978667 961.562667 241.788 964.064 237.588 966.565333 233.388 969.010667 229.178667 971.4 224.96v0H959.416C958.109333 227.610667 956.765333 230.270667 955.384 232.94 954.002667 235.609333 952.621333 238.269333 951.24 240.92 949.821333 238.269333 948.430667 235.618667 947.068 232.968 945.705333 230.317333 944.352 227.648 943.008 224.96v0H930.632C932.984 229.178667 935.410667 233.388 937.912 237.588 940.413333 241.788 942.952 245.978667 945.528 250.16v0V265H956.448zM994.64 265.84C997.738667 265.84 1000.53867 265.354667 1003.04 264.384 1005.54133 263.413333 1007.67867 262.013333 1009.452 260.184 1011.22533 258.354667 1012.588 256.152 1013.54 253.576 1014.492 251 1014.968 248.125333 1014.968 244.952 1014.968 241.741333 1014.492 238.857333 1013.54 236.3 1012.588 233.742667 1011.22533 231.558667 1009.452 229.748 1007.67867 227.937333 1005.54133 226.546667 1003.04 225.576 1000.53867 224.605333 997.738667 224.12 994.64 224.12 991.541333 224.12 988.741333 224.605333 986.24 225.576 983.738667 226.546667 981.601333 227.937333 979.828 229.748 978.054667 231.558667 976.692 233.742667 975.74 236.3 974.788 238.857333 974.312 241.741333 974.312 244.952 974.312 248.125333 974.788 251 975.74 253.576 976.692 256.152 978.054667 258.354667 979.828 260.184 981.601333 262.013333 983.738667 263.413333 986.24 264.384 988.741333 265.354667 991.541333 265.84 994.64 265.84zM994.64 256.432C991.728 256.432 989.497333 255.442667 987.948 253.464 986.398667 251.485333 985.624 248.648 985.624 244.952 985.624 241.293333 986.398667 238.474667 987.948 236.496 989.497333 234.517333 991.728 233.528 994.64 233.528 997.552 233.528 999.782667 234.517333 1001.332 236.496 1002.88133 238.474667 1003.656 241.293333 1003.656 244.952 1003.656 248.648 1002.88133 251.485333 1001.332 253.464 999.782667 255.442667 997.552 256.432 994.64 256.432zM1038.544 265.84C1042.24 265.84 1045.404 265.130667 1048.036 263.712 1050.668 262.293333 1052.684 260.249333 1054.084 257.58 1055.484 254.910667 1056.184 251.728 1056.184 248.032v0V224.96H1045.432V249.264C1045.432 251.541333 1044.83467 253.305333 1043.64 254.556 1042.44533 255.806667 1040.74667 256.432 1038.544 256.432 1036.37867 256.432 1034.68933 255.806667 1033.476 254.556 1032.26267 253.305333 1031.656 251.541333 1031.656 249.264v0V224.96H1020.736V248.032C1020.736 251.728 1021.44533 254.910667 1022.864 257.58 1024.28267 260.249333 1026.32667 262.293333 1028.996 263.712 1031.66533 265.130667 1034.848 265.84 1038.544 265.84zM810.176 327C811.258667 322.893333 812.304 318.777333 813.312 314.652 814.32 310.526667 815.328 306.392 816.336 302.248 817.306667 306.392 818.314667 310.526667 819.36 314.652 820.405333 318.777333 821.469333 322.893333 822.552 327v0H833.864C835.730667 320.466667 837.513333 313.858667 839.212 307.176 840.910667 300.493333 842.506667 293.754667 844 286.96v0H832.52C831.810667 291.626667 831.054667 296.293333 830.252 300.96 829.449333 305.626667 828.6 310.237333 827.704 314.792 826.696 310.461333 825.697333 306.121333 824.708 301.772 823.718667 297.422667 822.757333 293.045333 821.824 288.64v0H811.352C810.418667 293.12 809.448 297.609333 808.44 302.108 807.432 306.606667 806.386667 311.114667 805.304 315.632 804.408 310.965333 803.549333 306.224 802.728 301.408 801.906667 296.592 801.141333 291.776 800.432 286.96v0H788.728C790.258667 293.754667 791.873333 300.493333 793.572 307.176 795.270667 313.858667 797.034667 320.466667 798.864 327v0H810.176zM859.344 327V286.96H848.424V327H859.344zM895.464 327V317.592H877.656V286.96H866.736V327H895.464zM928.672 327V317.592H910.864V286.96H899.944V327H928.672zM956.224 327V314.288H960.704C964.325333 314.288 967.386667 313.756 969.888 312.692 972.389333 311.628 974.293333 310.078667 975.6 308.044 976.906667 306.009333 977.56 303.536 977.56 300.624 977.56 296.218667 976.113333 292.84 973.22 290.488 970.326667 288.136 966.154667 286.96 960.704 286.96v0H945.64V327H956.224zM960.2 305.888H956.224V295.36H960.2C964.418667 295.36 966.528 297.114667 966.528 300.624 966.528 304.133333 964.418667 305.888 960.2 305.888v0zM1011.832 327V317.592H994.024V286.96H983.104V327H1011.832zM1024.6 327C1025.384 324.461333 1026.14933 321.96 1026.896 319.496v0H1041.512C1041.88533 320.728 1042.268 321.969333 1042.66 323.22 1043.052 324.470667 1043.43467 325.730667 1043.808 327v0H1055.624C1053.23467 320.317333 1050.77067 313.634667 1048.232 306.952 1045.69333 300.269333 1043.08 293.605333 1040.392 286.96v0H1028.352C1025.73867 293.269333 1023.16267 299.765333 1020.624 306.448 1018.08533 313.130667 1015.584 319.981333 1013.12 327v0H1024.6zM1038.824 310.984H1029.584C1030.33067 308.669333 1031.096 306.364 1031.88 304.068 1032.664 301.772 1033.448 299.466667 1034.232 297.152 1035.016 299.429333 1035.79067 301.716 1036.556 304.012 1037.32133 306.308 1038.07733 308.632 1038.824 310.984v0zM1082.616 327V312.16C1085.192 307.978667 1087.73067 303.788 1090.232 299.588 1092.73333 295.388 1095.17867 291.178667 1097.568 286.96v0H1085.584C1084.27733 289.610667 1082.93333 292.270667 1081.552 294.94 1080.17067 297.609333 1078.78933 300.269333 1077.408 302.92 1075.98933 300.269333 1074.59867 297.618667 1073.236 294.968 1071.87333 292.317333 1070.52 289.648 1069.176 286.96v0H1056.8C1059.152 291.178667 1061.57867 295.388 1064.08 299.588 1066.58133 303.788 1069.12 307.978667 1071.696 312.16v0V327H1082.616zM810.176 389C811.258667 384.893333 812.304 380.777333 813.312 376.652 814.32 372.526667 815.328 368.392 816.336 364.248 817.306667 368.392 818.314667 372.526667 819.36 376.652 820.405333 380.777333 821.469333 384.893333 822.552 389v0H833.864C835.730667 382.466667 837.513333 375.858667 839.212 369.176 840.910667 362.493333 842.506667 355.754667 844 348.96v0H832.52C831.810667 353.626667 831.054667 358.293333 830.252 362.96 829.449333 367.626667 828.6 372.237333 827.704 376.792 826.696 372.461333 825.697333 368.121333 824.708 363.772 823.718667 359.422667 822.757333 355.045333 821.824 350.64v0H811.352C810.418667 355.12 809.448 359.609333 808.44 364.108 807.432 368.606667 806.386667 373.114667 805.304 377.632 804.408 372.965333 803.549333 368.224 802.728 363.408 801.906667 358.592 801.141333 353.776 800.432 348.96v0H788.728C790.258667 355.754667 791.873333 362.493333 793.572 369.176 795.270667 375.858667 797.034667 382.466667 798.864 389v0H810.176zM859.344 389V372.816H873.568V389H884.488V348.96H873.568V363.408H859.344V348.96H848.424V389H859.344zM900.168 389C900.952 386.461333 901.717333 383.96 902.464 381.496v0H917.08C917.453333 382.728 917.836 383.969333 918.228 385.22 918.62 386.470667 919.002667 387.730667 919.376 389v0H931.192C928.802667 382.317333 926.338667 375.634667 923.8 368.952 921.261333 362.269333 918.648 355.605333 915.96 348.96v0H903.92C901.306667 355.269333 898.730667 361.765333 896.192 368.448 893.653333 375.130667 891.152 381.981333 888.688 389v0H900.168zM914.392 372.984H905.152C905.898667 370.669333 906.664 368.364 907.448 366.068 908.232 363.772 909.016 361.466667 909.8 359.152 910.584 361.429333 911.358667 363.716 912.124 366.012 912.889333 368.308 913.645333 370.632 914.392 372.984v0zM955.384 389V358.368H967.368V348.96H932.48V358.368H944.464V389H955.384zM976.608 365.704C977.616 364.696 978.484 363.585333 979.212 362.372 979.94 361.158667 980.509333 359.889333 980.92 358.564 981.330667 357.238667 981.536 355.978667 981.536 354.784 981.536 352.768 981.088 351.228 980.192 350.164 979.296 349.1 977.933333 348.568 976.104 348.568 974.536 348.568 973.294667 349.025333 972.38 349.94 971.465333 350.854667 971.008 352.058667 971.008 353.552 971.008 354.709333 971.306667 355.68 971.904 356.464 972.501333 357.248 973.322667 357.789333 974.368 358.088 973.658667 360.626667 972.072 363.165333 969.608 365.704v0h7zM1000.184 389.84C1003.84267 389.84 1006.95067 389.336 1009.508 388.328 1012.06533 387.32 1014.02533 385.845333 1015.388 383.904 1016.75067 381.962667 1017.432 379.610667 1017.432 376.848 1017.432 374.757333 1017.096 373.012 1016.424 371.612 1015.752 370.212 1014.8 369.054667 1013.568 368.14 1012.336 367.225333 1010.88 366.450667 1009.2 365.816 1007.52 365.181333 1005.65333 364.621333 1003.6 364.136 1001.62133 363.650667 1000.1 363.137333 999.036 362.596 997.972 362.054667 997.44 361.242667 997.44 360.16 997.44 359.114667 997.953333 358.321333 998.98 357.78 1000.00667 357.238667 1001.45333 356.968 1003.32 356.968 1004.62667 356.968 1005.98 357.089333 1007.38 357.332 1008.78 357.574667 1010.17067 357.929333 1011.552 358.396 1012.93333 358.862667 1014.24 359.469333 1015.472 360.216v0V350.864C1013.75467 350.005333 1011.832 349.333333 1009.704 348.848 1007.576 348.362667 1005.41067 348.12 1003.208 348.12 999.810667 348.12 996.861333 348.633333 994.36 349.66 991.858667 350.686667 989.936 352.152 988.592 354.056 987.248 355.96 986.576 358.256 986.576 360.944 986.576 362.698667 986.837333 364.229333 987.36 365.536 987.882667 366.842667 988.704 367.990667 989.824 368.98 990.944 369.969333 992.4 370.837333 994.192 371.584 995.984 372.330667 998.149333 373.002667 1000.688 373.6 1001.84533 373.861333 1002.85333 374.16 1003.712 374.496 1004.57067 374.832 1005.24267 375.233333 1005.728 375.7 1006.21333 376.166667 1006.456 376.792 1006.456 377.576 1006.456 378.658667 1005.91467 379.498667 1004.832 380.096 1003.74933 380.693333 1002.144 380.992 1000.016 380.992 997.850667 380.992 995.676 380.684 993.492 380.068 991.308 379.452 989.170667 378.546667 987.08 377.352v0V386.816C989.245333 387.861333 991.401333 388.626667 993.548 389.112 995.694667 389.597333 997.906667 389.84 1000.184 389.84zM1045.824 389V364.696C1047.056 367.533333 1048.316 370.370667 1049.604 373.208 1050.892 376.045333 1052.18933 378.882667 1053.496 381.72v0H1061.896C1063.16533 378.882667 1064.42533 376.036 1065.676 373.18 1066.92667 370.324 1068.168 367.44 1069.4 364.528v0V389H1079.592V348.96H1066.6C1065.18133 352.730667 1063.744 356.454667 1062.288 360.132 1060.832 363.809333 1059.35733 367.44 1057.864 371.024 1056.296 367.402667 1054.756 363.744 1053.244 360.048 1051.732 356.352 1050.248 352.656 1048.792 348.96v0H1035.632V389H1045.824zm63.952.0V374.16C1112.352 369.978667 1114.89067 365.788 1117.392 361.588 1119.89333 357.388 1122.33867 353.178667 1124.728 348.96v0H1112.744C1111.43733 351.610667 1110.09333 354.270667 1108.712 356.94 1107.33067 359.609333 1105.94933 362.269333 1104.568 364.92 1103.14933 362.269333 1101.75867 359.618667 1100.396 356.968 1099.03333 354.317333 1097.68 351.648 1096.336 348.96v0H1083.96C1086.312 353.178667 1088.73867 357.388 1091.24 361.588 1093.74133 365.788 1096.28 369.978667 1098.856 374.16v0V389H1109.776zM799.984 451C800.768 448.461333 801.533333 445.96 802.28 443.496v0H816.896C817.269333 444.728 817.652 445.969333 818.044 447.22 818.436 448.470667 818.818667 449.730667 819.192 451v0H831.008C828.618667 444.317333 826.154667 437.634667 823.616 430.952 821.077333 424.269333 818.464 417.605333 815.776 410.96v0H803.736C801.122667 417.269333 798.546667 423.765333 796.008 430.448 793.469333 437.130667 790.968 443.981333 788.504 451v0H799.984zM814.208 434.984H804.968C805.714667 432.669333 806.48 430.364 807.264 428.068 808.048 425.772 808.832 423.466667 809.616 421.152 810.4 423.429333 811.174667 425.716 811.94 428.012 812.705333 430.308 813.461333 432.632 814.208 434.984v0zM854.92 451.84C856.712 451.84 858.513333 451.728 860.324 451.504 862.134667 451.28 863.88 450.934667 865.56 450.468 867.24 450.001333 868.733333 449.450667 870.04 448.816v0V427.928H854.416V435.992H860.24V441.984C859.530667 442.170667 858.793333 442.310667 858.028 442.404 857.262667 442.497333 856.506667 442.544 855.76 442.544 852.250667 442.544 849.590667 441.564 847.78 439.604 845.969333 437.644 845.064 434.76 845.064 430.952 845.064 427.293333 846.1 424.474667 848.172 422.496 850.244 420.517333 853.202667 419.528 857.048 419.528 859.4 419.528 861.556 419.78 863.516 420.284 865.476 420.788 867.296 421.506667 868.976 422.44v0V412.584C865.056 410.941333 860.613333 410.12 855.648 410.12 852.362667 410.12 849.376 410.614667 846.688 411.604 844 412.593333 841.685333 414.002667 839.744 415.832 837.802667 417.661333 836.318667 419.854667 835.292 422.412 834.265333 424.969333 833.752 427.816 833.752 430.952 833.752 434.2 834.237333 437.112 835.208 439.688 836.178667 442.264 837.578667 444.457333 839.408 446.268 841.237333 448.078667 843.458667 449.46 846.072 450.412 848.685333 451.364 851.634667 451.84 854.92 451.84zM906.384 451V442.264H887.288V434.984H903.08V426.248H887.288V419.696H905.32V410.96H876.648V451H906.384zM932.424 451C933.208 448.461333 933.973333 445.96 934.72 443.496v0H949.336C949.709333 444.728 950.092 445.969333 950.484 447.22 950.876 448.470667 951.258667 449.730667 951.632 451v0H963.448C961.058667 444.317333 958.594667 437.634667 956.056 430.952 953.517333 424.269333 950.904 417.605333 948.216 410.96v0H936.176C933.562667 417.269333 930.986667 423.765333 928.448 430.448 925.909333 437.130667 923.408 443.981333 920.944 451v0H932.424zM946.648 434.984H937.408C938.154667 432.669333 938.92 430.364 939.704 428.068 940.488 425.772 941.272 423.466667 942.056 421.152 942.84 423.429333 943.614667 425.716 944.38 428.012 945.145333 430.308 945.901333 432.632 946.648 434.984v0zM987.36 451.84C989.152 451.84 990.953333 451.728 992.764 451.504 994.574667 451.28 996.32 450.934667 998 450.468 999.68 450.001333 1001.17333 449.450667 1002.48 448.816v0V427.928H986.856V435.992H992.68V441.984C991.970667 442.170667 991.233333 442.310667 990.468 442.404 989.702667 442.497333 988.946667 442.544 988.2 442.544 984.690667 442.544 982.030667 441.564 980.22 439.604 978.409333 437.644 977.504 434.76 977.504 430.952 977.504 427.293333 978.54 424.474667 980.612 422.496 982.684 420.517333 985.642667 419.528 989.488 419.528 991.84 419.528 993.996 419.78 995.956 420.284 997.916 420.788 999.736 421.506667 1001.416 422.44v0V412.584C997.496 410.941333 993.053333 410.12 988.088 410.12 984.802667 410.12 981.816 410.614667 979.128 411.604 976.44 412.593333 974.125333 414.002667 972.184 415.832 970.242667 417.661333 968.758667 419.854667 967.732 422.412 966.705333 424.969333 966.192 427.816 966.192 430.952 966.192 434.2 966.677333 437.112 967.648 439.688 968.618667 442.264 970.018667 444.457333 971.848 446.268 973.677333 448.078667 975.898667 449.46 978.512 450.412 981.125333 451.364 984.074667 451.84 987.36 451.84zM1017.376 451C1018.16 448.461333 1018.92533 445.96 1019.672 443.496v0H1034.288C1034.66133 444.728 1035.044 445.969333 1035.436 447.22 1035.828 448.470667 1036.21067 449.730667 1036.584 451v0H1048.4C1046.01067 444.317333 1043.54667 437.634667 1041.008 430.952 1038.46933 424.269333 1035.856 417.605333 1033.168 410.96v0H1021.128C1018.51467 417.269333 1015.93867 423.765333 1013.4 430.448 1010.86133 437.130667 1008.36 443.981333 1005.896 451v0H1017.376zM1031.6 434.984H1022.36C1023.10667 432.669333 1023.872 430.364 1024.656 428.068 1025.44 425.772 1026.224 423.466667 1027.008 421.152 1027.792 423.429333 1028.56667 425.716 1029.332 428.012 1030.09733 430.308 1030.85333 432.632 1031.6 434.984v0zM1063.52 451V410.96H1052.6V451H1063.52zM1081.328 451V426.696C1083.75467 430.578667 1086.228 434.582667 1088.748 438.708 1091.268 442.833333 1093.72267 446.930667 1096.112 451v0H1107.088V410.96H1096.672V434.816C1094.24533 430.746667 1091.8 426.714667 1089.336 422.72 1086.872 418.725333 1084.38933 414.805333 1081.888 410.96v0H1070.912V451H1081.328z" id="ANDYOUWILLPLAYWHAT’SMYAGEAGAIN"/></g></g></g></svg>