<svg width="1200" height="677" viewBox="0 0 1200 677" xmlns="http://www.w3.org/2000/svg" xmlns:xlink="http://www.w3.org/1999/xlink"><title>greg-text-13</title><desc>Created with Sketch.</desc><g id="Assets" stroke="none" stroke-width="1" fill="none" fill-rule="evenodd"><g id="Greg" fill="#fff" fill-rule="nonzero"><g id="greg-text-13"><path d="M810.568 296.84C813.666667 296.84 816.466667 296.354667 818.968 295.384 821.469333 294.413333 823.606667 293.013333 825.38 291.184 827.153333 289.354667 828.516 287.152 829.468 284.576 830.42 282 830.896 279.125333 830.896 275.952 830.896 272.741333 830.42 269.857333 829.468 267.3 828.516 264.742667 827.153333 262.558667 825.38 260.748 823.606667 258.937333 821.469333 257.546667 818.968 256.576 816.466667 255.605333 813.666667 255.12 810.568 255.12 807.469333 255.12 804.669333 255.605333 802.168 256.576 799.666667 257.546667 797.529333 258.937333 795.756 260.748 793.982667 262.558667 792.62 264.742667 791.668 267.3 790.716 269.857333 790.24 272.741333 790.24 275.952 790.24 279.125333 790.716 282 791.668 284.576 792.62 287.152 793.982667 289.354667 795.756 291.184 797.529333 293.013333 799.666667 294.413333 802.168 295.384 804.669333 296.354667 807.469333 296.84 810.568 296.84zM810.568 287.432C807.656 287.432 805.425333 286.442667 803.876 284.464 802.326667 282.485333 801.552 279.648 801.552 275.952 801.552 272.293333 802.326667 269.474667 803.876 267.496 805.425333 265.517333 807.656 264.528 810.568 264.528 813.48 264.528 815.710667 265.517333 817.26 267.496 818.809333 269.474667 819.584 272.293333 819.584 275.952 819.584 279.648 818.809333 282.485333 817.26 284.464 815.710667 286.442667 813.48 287.432 810.568 287.432zM847.248 296V271.696C849.674667 275.578667 852.148 279.582667 854.668 283.708 857.188 287.833333 859.642667 291.930667 862.032 296v0H873.008V255.96H862.592V279.816C860.165333 275.746667 857.72 271.714667 855.256 267.72 852.792 263.725333 850.309333 259.805333 847.808 255.96v0H836.832V296H847.248zM910.136 296V287.264H891.04V279.984H906.832V271.248H891.04V264.696H909.072V255.96H880.4V296H910.136zm34.048.0C948.44 296 952.070667 295.206667 955.076 293.62 958.081333 292.033333 960.377333 289.746667 961.964 286.76 963.550667 283.773333 964.344 280.152 964.344 275.896 964.344 271.677333 963.550667 268.084 961.964 265.116 960.377333 262.148 958.081333 259.88 955.076 258.312 952.070667 256.744 948.458667 255.96 944.24 255.96v0H927.888V296H944.184zM943.68 286.704H938.808V265.256H943.736C946.797333 265.256 949.112 266.161333 950.68 267.972 952.248 269.782667 953.032 272.424 953.032 275.896 953.032 279.405333 952.238667 282.084 950.652 283.932 949.065333 285.78 946.741333 286.704 943.68 286.704v0zM978.568 296C979.352 293.461333 980.117333 290.96 980.864 288.496v0H995.48C995.853333 289.728 996.236 290.969333 996.628 292.22 997.02 293.470667 997.402667 294.730667 997.776 296v0H1009.592C1007.20267 289.317333 1004.73867 282.634667 1002.2 275.952 999.661333 269.269333 997.048 262.605333 994.36 255.96v0H982.32C979.706667 262.269333 977.130667 268.765333 974.592 275.448 972.053333 282.130667 969.552 288.981333 967.088 296v0H978.568zM992.792 279.984H983.552C984.298667 277.669333 985.064 275.364 985.848 273.068 986.632 270.772 987.416 268.466667 988.2 266.152 988.984 268.429333 989.758667 270.716 990.524 273.012 991.289333 275.308 992.045333 277.632 992.792 279.984v0zM1036.584 296V281.16C1039.16 276.978667 1041.69867 272.788 1044.2 268.588 1046.70133 264.388 1049.14667 260.178667 1051.536 255.96v0H1039.552C1038.24533 258.610667 1036.90133 261.270667 1035.52 263.94 1034.13867 266.609333 1032.75733 269.269333 1031.376 271.92 1029.95733 269.269333 1028.56667 266.618667 1027.204 263.968 1025.84133 261.317333 1024.488 258.648 1023.144 255.96v0H1010.768C1013.12 260.178667 1015.54667 264.388 1018.048 268.588 1020.54933 272.788 1023.088 276.978667 1025.664 281.16v0V296H1036.584zM821.432 358V349.264H802.336V341.984H818.128V333.248H802.336V326.696H820.368V317.96H791.696V358H821.432zM850.216 358C852.792 351.317333 855.330667 344.634667 857.832 337.952 860.333333 331.269333 862.76 324.605333 865.112 317.96v0H853.52C852.064 322.813333 850.58 327.648 849.068 332.464 847.556 337.28 846.016 342.096 844.448 346.912 842.917333 342.096 841.396 337.28 839.884 332.464 838.372 327.648 836.888 322.813333 835.432 317.96v0H823.504C825.856 324.605333 828.282667 331.269333 830.784 337.952 833.285333 344.634667 835.824 351.317333 838.4 358v0H850.216zM899.048 358V349.264H879.952V341.984H895.744V333.248H879.952V326.696H897.984V317.96H869.312V358H899.048zM914.728 358V333.696C917.154667 337.578667 919.628 341.582667 922.148 345.708 924.668 349.833333 927.122667 353.930667 929.512 358v0H940.488V317.96H930.072V341.816C927.645333 337.746667 925.2 333.714667 922.736 329.72 920.272 325.725333 917.789333 321.805333 915.288 317.96v0H904.312V358H914.728zM971.288 358V317.96H960.368V358H971.288zM983.44 334.704C984.448 333.696 985.316 332.585333 986.044 331.372 986.772 330.158667 987.341333 328.889333 987.752 327.564 988.162667 326.238667 988.368 324.978667 988.368 323.784 988.368 321.768 987.92 320.228 987.024 319.164 986.128 318.1 984.765333 317.568 982.936 317.568 981.368 317.568 980.126667 318.025333 979.212 318.94 978.297333 319.854667 977.84 321.058667 977.84 322.552 977.84 323.709333 978.138667 324.68 978.736 325.464 979.333333 326.248 980.154667 326.789333 981.2 327.088 980.490667 329.626667 978.904 332.165333 976.44 334.704v0h7zM1023.648 358V348.592H1005.84V317.96H994.92V358H1023.648zM1056.856 358V348.592H1039.048V317.96H1028.128V358H1056.856zM1091.184 358C1094.544 358 1097.428 357.533333 1099.836 356.6 1102.244 355.666667 1104.092 354.322667 1105.38 352.568 1106.668 350.813333 1107.312 348.722667 1107.312 346.296 1107.312 343.944 1106.71467 341.937333 1105.52 340.276 1104.32533 338.614667 1102.608 337.373333 1100.368 336.552 1103.54133 334.797333 1105.128 332.128 1105.128 328.544 1105.128 325.109333 1103.84 322.486667 1101.264 320.676 1098.688 318.865333 1095.01067 317.96 1090.232 317.96v0H1073.824V358H1091.184zM1089.168 333.864H1084.24V326.024H1089.168C1092.752 326.024 1094.544 327.274667 1094.544 329.776 1094.544 331.045333 1094.08667 332.044 1093.172 332.772 1092.25733 333.5 1090.92267 333.864 1089.168 333.864v0zM1090.176 349.936H1084.24V341.592H1090.232C1094.488 341.592 1096.616 343.010667 1096.616 345.848 1096.616 347.154667 1096.06533 348.162667 1094.964 348.872 1093.86267 349.581333 1092.26667 349.936 1090.176 349.936v0zM1142.704 358V349.264H1123.608V341.984H1139.4V333.248H1123.608V326.696H1141.64V317.96H1112.968V358H1142.704zM799.984 420C800.768 417.461333 801.533333 414.96 802.28 412.496v0H816.896C817.269333 413.728 817.652 414.969333 818.044 416.22 818.436 417.470667 818.818667 418.730667 819.192 420v0H831.008C828.618667 413.317333 826.154667 406.634667 823.616 399.952 821.077333 393.269333 818.464 386.605333 815.776 379.96v0H803.736C801.122667 386.269333 798.546667 392.765333 796.008 399.448 793.469333 406.130667 790.968 412.981333 788.504 420v0H799.984zM814.208 403.984H804.968C805.714667 401.669333 806.48 399.364 807.264 397.068 808.048 394.772 808.832 392.466667 809.616 390.152 810.4 392.429333 811.174667 394.716 811.94 397.012 812.705333 399.308 813.461333 401.632 814.208 403.984v0zM852.848 420.84C856.544 420.84 859.708 420.130667 862.34 418.712 864.972 417.293333 866.988 415.249333 868.388 412.58 869.788 409.910667 870.488 406.728 870.488 403.032v0V379.96H859.736V404.264C859.736 406.541333 859.138667 408.305333 857.944 409.556 856.749333 410.806667 855.050667 411.432 852.848 411.432 850.682667 411.432 848.993333 410.806667 847.78 409.556 846.566667 408.305333 845.96 406.541333 845.96 404.264v0V379.96H835.04V403.032C835.04 406.728 835.749333 409.910667 837.168 412.58 838.586667 415.249333 840.630667 417.293333 843.3 418.712 845.969333 420.130667 849.152 420.84 852.848 420.84zM897.704 420V389.368H909.688V379.96H874.8V389.368H886.784V420H897.704zM933.04 420.84C936.138667 420.84 938.938667 420.354667 941.44 419.384 943.941333 418.413333 946.078667 417.013333 947.852 415.184 949.625333 413.354667 950.988 411.152 951.94 408.576 952.892 406 953.368 403.125333 953.368 399.952 953.368 396.741333 952.892 393.857333 951.94 391.3 950.988 388.742667 949.625333 386.558667 947.852 384.748 946.078667 382.937333 943.941333 381.546667 941.44 380.576 938.938667 379.605333 936.138667 379.12 933.04 379.12 929.941333 379.12 927.141333 379.605333 924.64 380.576 922.138667 381.546667 920.001333 382.937333 918.228 384.748 916.454667 386.558667 915.092 388.742667 914.14 391.3 913.188 393.857333 912.712 396.741333 912.712 399.952 912.712 403.125333 913.188 406 914.14 408.576 915.092 411.152 916.454667 413.354667 918.228 415.184 920.001333 417.013333 922.138667 418.413333 924.64 419.384 927.141333 420.354667 929.941333 420.84 933.04 420.84zM933.04 411.432C930.128 411.432 927.897333 410.442667 926.348 408.464 924.798667 406.485333 924.024 403.648 924.024 399.952 924.024 396.293333 924.798667 393.474667 926.348 391.496 927.897333 389.517333 930.128 388.528 933.04 388.528 935.952 388.528 938.182667 389.517333 939.732 391.496 941.281333 393.474667 942.056 396.293333 942.056 399.952 942.056 403.648 941.281333 406.485333 939.732 408.464 938.182667 410.442667 935.952 411.432 933.04 411.432zM969.496 420V395.696C970.728 398.533333 971.988 401.370667 973.276 404.208 974.564 407.045333 975.861333 409.882667 977.168 412.72v0H985.568C986.837333 409.882667 988.097333 407.036 989.348 404.18 990.598667 401.324 991.84 398.44 993.072 395.528v0V420H1003.264V379.96H990.272C988.853333 383.730667 987.416 387.454667 985.96 391.132 984.504 394.809333 983.029333 398.44 981.536 402.024 979.968 398.402667 978.428 394.744 976.916 391.048 975.404 387.352 973.92 383.656 972.464 379.96v0H959.304V420H969.496zM1018.944 420C1019.728 417.461333 1020.49333 414.96 1021.24 412.496v0H1035.856C1036.22933 413.728 1036.612 414.969333 1037.004 416.22 1037.396 417.470667 1037.77867 418.730667 1038.152 420v0H1049.968C1047.57867 413.317333 1045.11467 406.634667 1042.576 399.952 1040.03733 393.269333 1037.424 386.605333 1034.736 379.96v0H1022.696C1020.08267 386.269333 1017.50667 392.765333 1014.968 399.448 1012.42933 406.130667 1009.928 412.981333 1007.464 420v0H1018.944zM1033.168 403.984H1023.928C1024.67467 401.669333 1025.44 399.364 1026.224 397.068 1027.008 394.772 1027.792 392.466667 1028.576 390.152 1029.36 392.429333 1030.13467 394.716 1030.9 397.012 1031.66533 399.308 1032.42133 401.632 1033.168 403.984v0zM1074.16 420V389.368H1086.144V379.96H1051.256V389.368H1063.24V420H1074.16zM1120.36 420V411.264H1101.264V403.984H1117.056V395.248H1101.264V388.696H1119.296V379.96H1090.624V420H1120.36zM1141.92 420C1146.176 420 1149.80667 419.206667 1152.812 417.62 1155.81733 416.033333 1158.11333 413.746667 1159.7 410.76 1161.28667 407.773333 1162.08 404.152 1162.08 399.896 1162.08 395.677333 1161.28667 392.084 1159.7 389.116 1158.11333 386.148 1155.81733 383.88 1152.812 382.312 1149.80667 380.744 1146.19467 379.96 1141.976 379.96v0H1125.624V420H1141.92zM1141.416 410.704H1136.544V389.256H1141.472C1144.53333 389.256 1146.848 390.161333 1148.416 391.972 1149.984 393.782667 1150.768 396.424 1150.768 399.896 1150.768 403.405333 1149.97467 406.084 1148.388 407.932 1146.80133 409.78 1144.47733 410.704 1141.416 410.704v0z" id="ONEDAYEVENI’LLBEAUTOMATED"/></g></g></g></svg>