<svg width="1200" height="677" viewBox="0 0 1200 677" xmlns="http://www.w3.org/2000/svg" xmlns:xlink="http://www.w3.org/1999/xlink"><title>greg-text-12</title><desc>Created with Sketch.</desc><g id="Assets" stroke="none" stroke-width="1" fill="none" fill-rule="evenodd"><g id="Greg" fill="#fff" fill-rule="nonzero"><g id="greg-text-12"><path d="M810.176 296C811.258667 291.893333 812.304 287.777333 813.312 283.652 814.32 279.526667 815.328 275.392 816.336 271.248 817.306667 275.392 818.314667 279.526667 819.36 283.652 820.405333 287.777333 821.469333 291.893333 822.552 296v0H833.864C835.730667 289.466667 837.513333 282.858667 839.212 276.176 840.910667 269.493333 842.506667 262.754667 844 255.96v0H832.52C831.810667 260.626667 831.054667 265.293333 830.252 269.96 829.449333 274.626667 828.6 279.237333 827.704 283.792 826.696 279.461333 825.697333 275.121333 824.708 270.772 823.718667 266.422667 822.757333 262.045333 821.824 257.64v0H811.352C810.418667 262.12 809.448 266.609333 808.44 271.108 807.432 275.606667 806.386667 280.114667 805.304 284.632 804.408 279.965333 803.549333 275.224 802.728 270.408 801.906667 265.592 801.141333 260.776 800.432 255.96v0H788.728C790.258667 262.754667 791.873333 269.493333 793.572 276.176 795.270667 282.858667 797.034667 289.466667 798.864 296v0H810.176zM878.16 296V287.264H859.064V279.984H874.856V271.248H859.064V264.696H877.096V255.96H848.424V296H878.16zM912.152 296V286.592H894.344V255.96H883.424V296H912.152zM945.36 296V286.592H927.552V255.96H916.632V296H945.36zM982.32 296V265.368H994.304V255.96H959.416V265.368H971.4V296H982.32zM1009.704 296V279.816H1023.928V296H1034.848V255.96H1023.928V270.408H1009.704V255.96H998.784V296H1009.704zM1050.528 296C1051.312 293.461333 1052.07733 290.96 1052.824 288.496v0H1067.44C1067.81333 289.728 1068.196 290.969333 1068.588 292.22 1068.98 293.470667 1069.36267 294.730667 1069.736 296v0H1081.552C1079.16267 289.317333 1076.69867 282.634667 1074.16 275.952 1071.62133 269.269333 1069.008 262.605333 1066.32 255.96v0H1054.28C1051.66667 262.269333 1049.09067 268.765333 1046.552 275.448 1044.01333 282.130667 1041.512 288.981333 1039.048 296v0H1050.528zM1064.752 279.984H1055.512C1056.25867 277.669333 1057.024 275.364 1057.808 273.068 1058.592 270.772 1059.376 268.466667 1060.16 266.152 1060.944 268.429333 1061.71867 270.716 1062.484 273.012 1063.24933 275.308 1064.00533 277.632 1064.752 279.984v0zM1105.744 296V265.368H1117.728V255.96H1082.84V265.368H1094.824V296H1105.744zM803.792 358.84C807.450667 358.84 810.558667 358.336 813.116 357.328 815.673333 356.32 817.633333 354.845333 818.996 352.904 820.358667 350.962667 821.04 348.610667 821.04 345.848 821.04 343.757333 820.704 342.012 820.032 340.612 819.36 339.212 818.408 338.054667 817.176 337.14 815.944 336.225333 814.488 335.450667 812.808 334.816 811.128 334.181333 809.261333 333.621333 807.208 333.136 805.229333 332.650667 803.708 332.137333 802.644 331.596 801.58 331.054667 801.048 330.242667 801.048 329.16 801.048 328.114667 801.561333 327.321333 802.588 326.78 803.614667 326.238667 805.061333 325.968 806.928 325.968 808.234667 325.968 809.588 326.089333 810.988 326.332 812.388 326.574667 813.778667 326.929333 815.16 327.396 816.541333 327.862667 817.848 328.469333 819.08 329.216v0V319.864C817.362667 319.005333 815.44 318.333333 813.312 317.848 811.184 317.362667 809.018667 317.12 806.816 317.12 803.418667 317.12 800.469333 317.633333 797.968 318.66 795.466667 319.686667 793.544 321.152 792.2 323.056 790.856 324.96 790.184 327.256 790.184 329.944 790.184 331.698667 790.445333 333.229333 790.968 334.536 791.490667 335.842667 792.312 336.990667 793.432 337.98 794.552 338.969333 796.008 339.837333 797.8 340.584 799.592 341.330667 801.757333 342.002667 804.296 342.6 805.453333 342.861333 806.461333 343.16 807.32 343.496 808.178667 343.832 808.850667 344.233333 809.336 344.7 809.821333 345.166667 810.064 345.792 810.064 346.576 810.064 347.658667 809.522667 348.498667 808.44 349.096 807.357333 349.693333 805.752 349.992 803.624 349.992 801.458667 349.992 799.284 349.684 797.1 349.068 794.916 348.452 792.778667 347.546667 790.688 346.352v0V355.816C792.853333 356.861333 795.009333 357.626667 797.156 358.112 799.302667 358.597333 801.514667 358.84 803.792 358.84zM856.488 358V349.264H837.392V341.984H853.184V333.248H837.392V326.696H855.424V317.96H826.752V358H856.488zm35 0V349.264H872.392V341.984H888.184V333.248H872.392V326.696H890.424V317.96H861.752V358H891.488zM906.944 358V333.696C908.176 336.533333 909.436 339.370667 910.724 342.208 912.012 345.045333 913.309333 347.882667 914.616 350.72v0H923.016C924.285333 347.882667 925.545333 345.036 926.796 342.18 928.046667 339.324 929.288 336.44 930.52 333.528v0V358H940.712V317.96H927.72C926.301333 321.730667 924.864 325.454667 923.408 329.132 921.952 332.809333 920.477333 336.44 918.984 340.024 917.416 336.402667 915.876 332.744 914.364 329.048 912.852 325.352 911.368 321.656 909.912 317.96v0H896.752V358H906.944zM977.84 358V349.264H958.744V341.984H974.536V333.248H958.744V326.696H976.776V317.96H948.104V358H977.84zM999.4 358C1003.656 358 1007.28667 357.206667 1010.292 355.62 1013.29733 354.033333 1015.59333 351.746667 1017.18 348.76 1018.76667 345.773333 1019.56 342.152 1019.56 337.896 1019.56 333.677333 1018.76667 330.084 1017.18 327.116 1015.59333 324.148 1013.29733 321.88 1010.292 320.312 1007.28667 318.744 1003.67467 317.96 999.456 317.96v0H983.104V358H999.4zM998.896 348.704H994.024V327.256H998.952C1002.01333 327.256 1004.328 328.161333 1005.896 329.972 1007.464 331.782667 1008.248 334.424 1008.248 337.896 1008.248 341.405333 1007.45467 344.084 1005.868 345.932 1004.28133 347.78 1001.95733 348.704 998.896 348.704v0zM1066.712 358V348.592H1048.904V317.96H1037.984V358H1066.712zM1082.112 358V317.96H1071.192V358H1082.112zM1100.424 358V341.48H1102.384C1104.47467 344.28 1106.5 347.042667 1108.46 349.768 1110.42 352.493333 1112.37067 355.237333 1114.312 358v0H1127.976C1125.21333 354.341333 1122.47867 350.748 1119.772 347.22 1117.06533 343.692 1114.33067 340.210667 1111.568 336.776 1114.144 333.64 1116.664 330.504 1119.128 327.368 1121.592 324.232 1124.01867 321.096 1126.408 317.96v0H1113.528C1111.81067 320.386667 1110.056 322.822667 1108.264 325.268 1106.472 327.713333 1104.58667 330.205333 1102.608 332.744v0H1100.424V317.96H1089.504V358H1100.424zM1161.744 358V349.264H1142.648V341.984H1158.44V333.248H1142.648V326.696H1160.68V317.96H1132.008V358H1161.744zM799.984 420C800.768 417.461333 801.533333 414.96 802.28 412.496v0H816.896C817.269333 413.728 817.652 414.969333 818.044 416.22 818.436 417.470667 818.818667 418.730667 819.192 420v0H831.008C828.618667 413.317333 826.154667 406.634667 823.616 399.952 821.077333 393.269333 818.464 386.605333 815.776 379.96v0H803.736C801.122667 386.269333 798.546667 392.765333 796.008 399.448 793.469333 406.130667 790.968 412.981333 788.504 420v0H799.984zM814.208 403.984H804.968C805.714667 401.669333 806.48 399.364 807.264 397.068 808.048 394.772 808.832 392.466667 809.616 390.152 810.4 392.429333 811.174667 394.716 811.94 397.012 812.705333 399.308 813.461333 401.632 814.208 403.984v0zM859.792 420.84C863.450667 420.84 866.558667 420.336 869.116 419.328 871.673333 418.32 873.633333 416.845333 874.996 414.904 876.358667 412.962667 877.04 410.610667 877.04 407.848 877.04 405.757333 876.704 404.012 876.032 402.612 875.36 401.212 874.408 400.054667 873.176 399.14 871.944 398.225333 870.488 397.450667 868.808 396.816 867.128 396.181333 865.261333 395.621333 863.208 395.136 861.229333 394.650667 859.708 394.137333 858.644 393.596 857.58 393.054667 857.048 392.242667 857.048 391.16 857.048 390.114667 857.561333 389.321333 858.588 388.78 859.614667 388.238667 861.061333 387.968 862.928 387.968 864.234667 387.968 865.588 388.089333 866.988 388.332 868.388 388.574667 869.778667 388.929333 871.16 389.396 872.541333 389.862667 873.848 390.469333 875.08 391.216v0V381.864C873.362667 381.005333 871.44 380.333333 869.312 379.848 867.184 379.362667 865.018667 379.12 862.816 379.12 859.418667 379.12 856.469333 379.633333 853.968 380.66 851.466667 381.686667 849.544 383.152 848.2 385.056 846.856 386.96 846.184 389.256 846.184 391.944 846.184 393.698667 846.445333 395.229333 846.968 396.536 847.490667 397.842667 848.312 398.990667 849.432 399.98 850.552 400.969333 852.008 401.837333 853.8 402.584 855.592 403.330667 857.757333 404.002667 860.296 404.6 861.453333 404.861333 862.461333 405.16 863.32 405.496 864.178667 405.832 864.850667 406.233333 865.336 406.7 865.821333 407.166667 866.064 407.792 866.064 408.576 866.064 409.658667 865.522667 410.498667 864.44 411.096 863.357333 411.693333 861.752 411.992 859.624 411.992 857.458667 411.992 855.284 411.684 853.1 411.068 850.916 410.452 848.778667 409.546667 846.688 408.352v0V417.816C848.853333 418.861333 851.009333 419.626667 853.156 420.112 855.302667 420.597333 857.514667 420.84 859.792 420.84zM900.392 420.84C904.088 420.84 907.252 420.130667 909.884 418.712 912.516 417.293333 914.532 415.249333 915.932 412.58 917.332 409.910667 918.032 406.728 918.032 403.032v0V379.96H907.28V404.264C907.28 406.541333 906.682667 408.305333 905.488 409.556 904.293333 410.806667 902.594667 411.432 900.392 411.432 898.226667 411.432 896.537333 410.806667 895.324 409.556 894.110667 408.305333 893.504 406.541333 893.504 404.264v0V379.96H882.584V403.032C882.584 406.728 883.293333 409.910667 884.712 412.58 886.130667 415.249333 888.174667 417.293333 890.844 418.712 893.513333 420.130667 896.696 420.84 900.392 420.84zM944.8 420.84C947.226667 420.84 949.494667 420.597333 951.604 420.112 953.713333 419.626667 955.608 418.954667 957.288 418.096v0V408.408C955.533333 409.453333 953.788 410.218667 952.052 410.704 950.316 411.189333 948.477333 411.432 946.536 411.432 942.914667 411.432 940.105333 410.433333 938.108 408.436 936.110667 406.438667 935.112 403.610667 935.112 399.952 935.112 396.293333 936.148 393.474667 938.22 391.496 940.292 389.517333 943.194667 388.528 946.928 388.528 948.757333 388.528 950.502667 388.770667 952.164 389.256 953.825333 389.741333 955.384 390.469333 956.84 391.44v0V381.584C953.48 379.941333 949.616 379.12 945.248 379.12 942 379.12 939.06 379.614667 936.428 380.604 933.796 381.593333 931.537333 383.002667 929.652 384.832 927.766667 386.661333 926.32 388.854667 925.312 391.412 924.304 393.969333 923.8 396.816 923.8 399.952 923.8 403.2 924.276 406.121333 925.228 408.716 926.18 411.310667 927.561333 413.504 929.372 415.296 931.182667 417.088 933.385333 418.46 935.98 419.412 938.574667 420.364 941.514667 420.84 944.8 420.84zM982.152 420.84C984.578667 420.84 986.846667 420.597333 988.956 420.112 991.065333 419.626667 992.96 418.954667 994.64 418.096v0V408.408C992.885333 409.453333 991.14 410.218667 989.404 410.704 987.668 411.189333 985.829333 411.432 983.888 411.432 980.266667 411.432 977.457333 410.433333 975.46 408.436 973.462667 406.438667 972.464 403.610667 972.464 399.952 972.464 396.293333 973.5 393.474667 975.572 391.496 977.644 389.517333 980.546667 388.528 984.28 388.528 986.109333 388.528 987.854667 388.770667 989.516 389.256 991.177333 389.741333 992.736 390.469333 994.192 391.44v0V381.584C990.832 379.941333 986.968 379.12 982.6 379.12 979.352 379.12 976.412 379.614667 973.78 380.604 971.148 381.593333 968.889333 383.002667 967.004 384.832 965.118667 386.661333 963.672 388.854667 962.664 391.412 961.656 393.969333 961.152 396.816 961.152 399.952 961.152 403.2 961.628 406.121333 962.58 408.716 963.532 411.310667 964.913333 413.504 966.724 415.296 968.534667 417.088 970.737333 418.46 973.332 419.412 975.926667 420.364 978.866667 420.84 982.152 420.84zM1029.696 420V411.264H1010.6V403.984H1026.392V395.248H1010.6V388.696H1028.632V379.96H999.96V420H1029.696zM1047.056 420.84C1050.71467 420.84 1053.82267 420.336 1056.38 419.328 1058.93733 418.32 1060.89733 416.845333 1062.26 414.904 1063.62267 412.962667 1064.304 410.610667 1064.304 407.848 1064.304 405.757333 1063.968 404.012 1063.296 402.612 1062.624 401.212 1061.672 400.054667 1060.44 399.14 1059.208 398.225333 1057.752 397.450667 1056.072 396.816 1054.392 396.181333 1052.52533 395.621333 1050.472 395.136 1048.49333 394.650667 1046.972 394.137333 1045.908 393.596 1044.844 393.054667 1044.312 392.242667 1044.312 391.16 1044.312 390.114667 1044.82533 389.321333 1045.852 388.78 1046.87867 388.238667 1048.32533 387.968 1050.192 387.968 1051.49867 387.968 1052.852 388.089333 1054.252 388.332 1055.652 388.574667 1057.04267 388.929333 1058.424 389.396 1059.80533 389.862667 1061.112 390.469333 1062.344 391.216v0V381.864C1060.62667 381.005333 1058.704 380.333333 1056.576 379.848 1054.448 379.362667 1052.28267 379.12 1050.08 379.12 1046.68267 379.12 1043.73333 379.633333 1041.232 380.66 1038.73067 381.686667 1036.808 383.152 1035.464 385.056 1034.12 386.96 1033.448 389.256 1033.448 391.944 1033.448 393.698667 1033.70933 395.229333 1034.232 396.536 1034.75467 397.842667 1035.576 398.990667 1036.696 399.98 1037.816 400.969333 1039.272 401.837333 1041.064 402.584 1042.856 403.330667 1045.02133 404.002667 1047.56 404.6 1048.71733 404.861333 1049.72533 405.16 1050.584 405.496 1051.44267 405.832 1052.11467 406.233333 1052.6 406.7 1053.08533 407.166667 1053.328 407.792 1053.328 408.576 1053.328 409.658667 1052.78667 410.498667 1051.704 411.096 1050.62133 411.693333 1049.016 411.992 1046.888 411.992 1044.72267 411.992 1042.548 411.684 1040.364 411.068 1038.18 410.452 1036.04267 409.546667 1033.952 408.352v0V417.816C1036.11733 418.861333 1038.27333 419.626667 1040.42 420.112 1042.56667 420.597333 1044.77867 420.84 1047.056 420.84zM1082.112 420.84C1085.77067 420.84 1088.87867 420.336 1091.436 419.328 1093.99333 418.32 1095.95333 416.845333 1097.316 414.904 1098.67867 412.962667 1099.36 410.610667 1099.36 407.848 1099.36 405.757333 1099.024 404.012 1098.352 402.612 1097.68 401.212 1096.728 400.054667 1095.496 399.14 1094.264 398.225333 1092.808 397.450667 1091.128 396.816 1089.448 396.181333 1087.58133 395.621333 1085.528 395.136 1083.54933 394.650667 1082.028 394.137333 1080.964 393.596 1079.9 393.054667 1079.368 392.242667 1079.368 391.16 1079.368 390.114667 1079.88133 389.321333 1080.908 388.78 1081.93467 388.238667 1083.38133 387.968 1085.248 387.968 1086.55467 387.968 1087.908 388.089333 1089.308 388.332 1090.708 388.574667 1092.09867 388.929333 1093.48 389.396 1094.86133 389.862667 1096.168 390.469333 1097.4 391.216v0V381.864C1095.68267 381.005333 1093.76 380.333333 1091.632 379.848 1089.504 379.362667 1087.33867 379.12 1085.136 379.12 1081.73867 379.12 1078.78933 379.633333 1076.288 380.66 1073.78667 381.686667 1071.864 383.152 1070.52 385.056 1069.176 386.96 1068.504 389.256 1068.504 391.944 1068.504 393.698667 1068.76533 395.229333 1069.288 396.536 1069.81067 397.842667 1070.632 398.990667 1071.752 399.98 1072.872 400.969333 1074.328 401.837333 1076.12 402.584 1077.912 403.330667 1080.07733 404.002667 1082.616 404.6 1083.77333 404.861333 1084.78133 405.16 1085.64 405.496 1086.49867 405.832 1087.17067 406.233333 1087.656 406.7 1088.14133 407.166667 1088.384 407.792 1088.384 408.576 1088.384 409.658667 1087.84267 410.498667 1086.76 411.096 1085.67733 411.693333 1084.072 411.992 1081.944 411.992 1079.77867 411.992 1077.604 411.684 1075.42 411.068 1073.236 410.452 1071.09867 409.546667 1069.008 408.352v0V417.816C1071.17333 418.861333 1073.32933 419.626667 1075.476 420.112 1077.62267 420.597333 1079.83467 420.84 1082.112 420.84z" id="WELLTHATSEEMEDLIKEASUCCESS"/></g></g></g></svg>