<?xml version="1.0" encoding="UTF-8"?>
<svg width="1200px" height="677px" viewBox="0 0 1200 677" version="1.1" xmlns="http://www.w3.org/2000/svg" xmlns:xlink="http://www.w3.org/1999/xlink">
    <!-- Generator: Sketch 61.2 (89653) - https://sketch.com -->
    <title>greg-text-01 copy 4</title>
    <desc>Created with Sketch.</desc>
    <g id="Assets" stroke="none" stroke-width="1" fill="none" fill-rule="evenodd">
        <g id="Greg" transform="translate(0.000000, 3.000000)" fill="#FFFFFF" fill-rule="nonzero">
            <g id="greg-text-02c" transform="translate(0.000000, -3.000000)">
                <path d="M810.176,296 C811.258667,291.893333 812.304,287.777333 813.312,283.652 C814.32,279.526667 815.328,275.392 816.336,271.248 C817.306667,275.392 818.314667,279.526667 819.36,283.652 C820.405333,287.777333 821.469333,291.893333 822.552,296 L822.552,296 L833.864,296 C835.730667,289.466667 837.513333,282.858667 839.212,276.176 C840.910667,269.493333 842.506667,262.754667 844,255.96 L844,255.96 L832.52,255.96 C831.810667,260.626667 831.054667,265.293333 830.252,269.96 C829.449333,274.626667 828.6,279.237333 827.704,283.792 C826.696,279.461333 825.697333,275.121333 824.708,270.772 C823.718667,266.422667 822.757333,262.045333 821.824,257.64 L821.824,257.64 L811.352,257.64 C810.418667,262.12 809.448,266.609333 808.44,271.108 C807.432,275.606667 806.386667,280.114667 805.304,284.632 C804.408,279.965333 803.549333,275.224 802.728,270.408 C801.906667,265.592 801.141333,260.776 800.432,255.96 L800.432,255.96 L788.728,255.96 C790.258667,262.754667 791.873333,269.493333 793.572,276.176 C795.270667,282.858667 797.034667,289.466667 798.864,296 L798.864,296 L810.176,296 Z M859.344,296 L859.344,255.96 L848.424,255.96 L848.424,296 L859.344,296 Z M886.728,296 L886.728,265.368 L898.712,265.368 L898.712,255.96 L863.824,255.96 L863.824,265.368 L875.808,265.368 L875.808,296 L886.728,296 Z M914.112,296 L914.112,279.816 L928.336,279.816 L928.336,296 L939.256,296 L939.256,255.96 L928.336,255.96 L928.336,270.408 L914.112,270.408 L914.112,255.96 L903.192,255.96 L903.192,296 L914.112,296 Z M809.056,358 C812.416,358 815.3,357.533333 817.708,356.6 C820.116,355.666667 821.964,354.322667 823.252,352.568 C824.54,350.813333 825.184,348.722667 825.184,346.296 C825.184,343.944 824.586667,341.937333 823.392,340.276 C822.197333,338.614667 820.48,337.373333 818.24,336.552 C821.413333,334.797333 823,332.128 823,328.544 C823,325.109333 821.712,322.486667 819.136,320.676 C816.56,318.865333 812.882667,317.96 808.104,317.96 L808.104,317.96 L791.696,317.96 L791.696,358 L809.056,358 Z M807.04,333.864 L802.112,333.864 L802.112,326.024 L807.04,326.024 C810.624,326.024 812.416,327.274667 812.416,329.776 C812.416,331.045333 811.958667,332.044 811.044,332.772 C810.129333,333.5 808.794667,333.864 807.04,333.864 L807.04,333.864 Z M808.048,349.936 L802.112,349.936 L802.112,341.592 L808.104,341.592 C812.36,341.592 814.488,343.010667 814.488,345.848 C814.488,347.154667 813.937333,348.162667 812.836,348.872 C811.734667,349.581333 810.138667,349.936 808.048,349.936 L808.048,349.936 Z M859.568,358 L859.568,348.592 L841.76,348.592 L841.76,317.96 L830.84,317.96 L830.84,358 L859.568,358 Z M874.968,358 L874.968,317.96 L864.048,317.96 L864.048,358 L874.968,358 Z M892.776,358 L892.776,333.696 C895.202667,337.578667 897.676,341.582667 900.196,345.708 C902.716,349.833333 905.170667,353.930667 907.56,358 L907.56,358 L918.536,358 L918.536,317.96 L908.12,317.96 L908.12,341.816 C905.693333,337.746667 903.248,333.714667 900.784,329.72 C898.32,325.725333 895.837333,321.805333 893.336,317.96 L893.336,317.96 L882.36,317.96 L882.36,358 L892.776,358 Z M936.848,358 L936.848,341.48 L938.808,341.48 C940.898667,344.28 942.924,347.042667 944.884,349.768 C946.844,352.493333 948.794667,355.237333 950.736,358 L950.736,358 L964.4,358 C961.637333,354.341333 958.902667,350.748 956.196,347.22 C953.489333,343.692 950.754667,340.210667 947.992,336.776 C950.568,333.64 953.088,330.504 955.552,327.368 C958.016,324.232 960.442667,321.096 962.832,317.96 L962.832,317.96 L949.952,317.96 C948.234667,320.386667 946.48,322.822667 944.688,325.268 C942.896,327.713333 941.010667,330.205333 939.032,332.744 L939.032,332.744 L936.848,332.744 L936.848,317.96 L925.928,317.96 L925.928,358 L936.848,358 Z M1001.472,358 L1001.472,318.856 L992.904,318.856 C990.850667,319.789333 988.928,320.694667 987.136,321.572 C985.344,322.449333 983.738667,323.261333 982.32,324.008 L982.32,324.008 L982.32,333.472 C983.589333,332.8 984.952,332.1 986.408,331.372 C987.864,330.644 989.338667,329.944 990.832,329.272 L990.832,329.272 L990.832,358 L1001.472,358 Z M1029.472,358.728 C1032.68267,358.728 1035.47333,358.261333 1037.844,357.328 C1040.21467,356.394667 1042.05333,355.06 1043.36,353.324 C1044.66667,351.588 1045.32,349.544 1045.32,347.192 C1045.32,344.914667 1044.788,342.964 1043.724,341.34 C1042.66,339.716 1041.064,338.362667 1038.936,337.28 C1040.65333,336.458667 1041.97867,335.366667 1042.912,334.004 C1043.84533,332.641333 1044.312,331.101333 1044.312,329.384 C1044.312,327.069333 1043.70533,325.072 1042.492,323.392 C1041.27867,321.712 1039.57067,320.414667 1037.368,319.5 C1035.16533,318.585333 1032.53333,318.128 1029.472,318.128 C1027.26933,318.128 1025.25333,318.398667 1023.424,318.94 C1021.59467,319.481333 1020.02667,320.246667 1018.72,321.236 C1017.41333,322.225333 1016.40533,323.410667 1015.696,324.792 C1014.98667,326.173333 1014.632,327.704 1014.632,329.384 C1014.632,333.490667 1016.48,336.552 1020.176,338.568 C1018.12267,339.426667 1016.51733,340.621333 1015.36,342.152 C1014.20267,343.682667 1013.624,345.456 1013.624,347.472 C1013.624,349.786667 1014.268,351.793333 1015.556,353.492 C1016.844,355.190667 1018.68267,356.488 1021.072,357.384 C1023.46133,358.28 1026.26133,358.728 1029.472,358.728 Z M1031.04,334.648 L1028.968,334.368 C1027.69867,334.181333 1026.672,333.733333 1025.888,333.024 C1025.104,332.314667 1024.712,331.4 1024.712,330.28 C1024.712,329.010667 1025.132,328.021333 1025.972,327.312 C1026.812,326.602667 1027.97867,326.248 1029.472,326.248 C1031.00267,326.248 1032.17867,326.602667 1033,327.312 C1033.82133,328.021333 1034.232,329.010667 1034.232,330.28 C1034.232,331.288 1033.94267,332.165333 1033.364,332.912 C1032.78533,333.658667 1032.01067,334.237333 1031.04,334.648 L1031.04,334.648 Z M1029.472,350.608 C1027.792,350.608 1026.45733,350.206667 1025.468,349.404 C1024.47867,348.601333 1023.984,347.490667 1023.984,346.072 C1023.984,344.877333 1024.376,343.86 1025.16,343.02 C1025.944,342.18 1027.02667,341.592 1028.408,341.256 L1028.408,341.256 L1030.032,341.48 C1031.6,341.704 1032.81333,342.208 1033.672,342.992 C1034.53067,343.776 1034.96,344.802667 1034.96,346.072 C1034.96,347.490667 1034.47467,348.601333 1033.504,349.404 C1032.53333,350.206667 1031.18933,350.608 1029.472,350.608 Z M1078.472,358 L1078.472,348.984 L1061.504,348.984 C1062.064,348.050667 1062.88533,347.136 1063.968,346.24 C1065.05067,345.344 1066.488,344.336 1068.28,343.216 C1070.10933,342.096 1071.62133,341.032 1072.816,340.024 C1074.01067,339.016 1074.95333,337.989333 1075.644,336.944 C1076.33467,335.898667 1076.82933,334.769333 1077.128,333.556 C1077.42667,332.342667 1077.576,330.970667 1077.576,329.44 C1077.576,327.125333 1076.988,325.128 1075.812,323.448 C1074.636,321.768 1072.97467,320.461333 1070.828,319.528 C1068.68133,318.594667 1066.152,318.128 1063.24,318.128 C1060.85067,318.128 1058.65733,318.38 1056.66,318.884 C1054.66267,319.388 1052.67467,320.181333 1050.696,321.264 L1050.696,321.264 L1050.696,330.504 C1052.33867,329.309333 1053.98133,328.441333 1055.624,327.9 C1057.26667,327.358667 1058.96533,327.088 1060.72,327.088 C1062.58667,327.088 1064.03333,327.424 1065.06,328.096 C1066.08667,328.768 1066.6,329.757333 1066.6,331.064 C1066.6,331.661333 1066.50667,332.202667 1066.32,332.688 C1066.13333,333.173333 1065.80667,333.658667 1065.34,334.144 C1064.87333,334.629333 1064.21067,335.189333 1063.352,335.824 C1062.49333,336.458667 1061.37333,337.205333 1059.992,338.064 C1057.56533,339.594667 1055.60533,341.190667 1054.112,342.852 C1052.61867,344.513333 1051.52667,346.314667 1050.836,348.256 C1050.14533,350.197333 1049.8,352.4 1049.8,354.864 L1049.8,354.864 L1049.8,358 L1078.472,358 Z M802.28,420 L802.28,406.504 L807.768,406.504 C809.074667,408.706667 810.334667,410.937333 811.548,413.196 C812.761333,415.454667 813.965333,417.722667 815.16,420 L815.16,420 L827.2,420 C825.669333,417.274667 824.110667,414.605333 822.524,411.992 C820.937333,409.378667 819.322667,406.784 817.68,404.208 C819.770667,403.088 821.385333,401.594667 822.524,399.728 C823.662667,397.861333 824.232,395.696 824.232,393.232 C824.232,388.938667 822.757333,385.653333 819.808,383.376 C816.858667,381.098667 812.602667,379.96 807.04,379.96 L807.04,379.96 L791.696,379.96 L791.696,420 L802.28,420 Z M806.536,398.104 L802.28,398.104 L802.28,388.36 L806.536,388.36 C808.813333,388.36 810.493333,388.761333 811.576,389.564 C812.658667,390.366667 813.2,391.589333 813.2,393.232 C813.2,394.837333 812.658667,396.050667 811.576,396.872 C810.493333,397.693333 808.813333,398.104 806.536,398.104 L806.536,398.104 Z M842.432,420 L842.432,379.96 L831.512,379.96 L831.512,420 L842.432,420 Z M869.536,420.84 C871.328,420.84 873.129333,420.728 874.94,420.504 C876.750667,420.28 878.496,419.934667 880.176,419.468 C881.856,419.001333 883.349333,418.450667 884.656,417.816 L884.656,417.816 L884.656,396.928 L869.032,396.928 L869.032,404.992 L874.856,404.992 L874.856,410.984 C874.146667,411.170667 873.409333,411.310667 872.644,411.404 C871.878667,411.497333 871.122667,411.544 870.376,411.544 C866.866667,411.544 864.206667,410.564 862.396,408.604 C860.585333,406.644 859.68,403.76 859.68,399.952 C859.68,396.293333 860.716,393.474667 862.788,391.496 C864.86,389.517333 867.818667,388.528 871.664,388.528 C874.016,388.528 876.172,388.78 878.132,389.284 C880.092,389.788 881.912,390.506667 883.592,391.44 L883.592,391.44 L883.592,381.584 C879.672,379.941333 875.229333,379.12 870.264,379.12 C866.978667,379.12 863.992,379.614667 861.304,380.604 C858.616,381.593333 856.301333,383.002667 854.36,384.832 C852.418667,386.661333 850.934667,388.854667 849.908,391.412 C848.881333,393.969333 848.368,396.816 848.368,399.952 C848.368,403.2 848.853333,406.112 849.824,408.688 C850.794667,411.264 852.194667,413.457333 854.024,415.268 C855.853333,417.078667 858.074667,418.46 860.688,419.412 C863.301333,420.364 866.250667,420.84 869.536,420.84 Z M902.184,420 L902.184,403.816 L916.408,403.816 L916.408,420 L927.328,420 L927.328,379.96 L916.408,379.96 L916.408,394.408 L902.184,394.408 L902.184,379.96 L891.264,379.96 L891.264,420 L902.184,420 Z M954.712,420 L954.712,389.368 L966.696,389.368 L966.696,379.96 L931.808,379.96 L931.808,389.368 L943.792,389.368 L943.792,420 L954.712,420 Z M994.08,420 L994.08,395.696 C996.506667,399.578667 998.98,403.582667 1001.5,407.708 C1004.02,411.833333 1006.47467,415.930667 1008.864,420 L1008.864,420 L1019.84,420 L1019.84,379.96 L1009.424,379.96 L1009.424,403.816 C1006.99733,399.746667 1004.552,395.714667 1002.088,391.72 C999.624,387.725333 997.141333,383.805333 994.64,379.96 L994.64,379.96 L983.664,379.96 L983.664,420 L994.08,420 Z M1046.104,420.84 C1049.20267,420.84 1052.00267,420.354667 1054.504,419.384 C1057.00533,418.413333 1059.14267,417.013333 1060.916,415.184 C1062.68933,413.354667 1064.052,411.152 1065.004,408.576 C1065.956,406 1066.432,403.125333 1066.432,399.952 C1066.432,396.741333 1065.956,393.857333 1065.004,391.3 C1064.052,388.742667 1062.68933,386.558667 1060.916,384.748 C1059.14267,382.937333 1057.00533,381.546667 1054.504,380.576 C1052.00267,379.605333 1049.20267,379.12 1046.104,379.12 C1043.00533,379.12 1040.20533,379.605333 1037.704,380.576 C1035.20267,381.546667 1033.06533,382.937333 1031.292,384.748 C1029.51867,386.558667 1028.156,388.742667 1027.204,391.3 C1026.252,393.857333 1025.776,396.741333 1025.776,399.952 C1025.776,403.125333 1026.252,406 1027.204,408.576 C1028.156,411.152 1029.51867,413.354667 1031.292,415.184 C1033.06533,417.013333 1035.20267,418.413333 1037.704,419.384 C1040.20533,420.354667 1043.00533,420.84 1046.104,420.84 Z M1046.104,411.432 C1043.192,411.432 1040.96133,410.442667 1039.412,408.464 C1037.86267,406.485333 1037.088,403.648 1037.088,399.952 C1037.088,396.293333 1037.86267,393.474667 1039.412,391.496 C1040.96133,389.517333 1043.192,388.528 1046.104,388.528 C1049.016,388.528 1051.24667,389.517333 1052.796,391.496 C1054.34533,393.474667 1055.12,396.293333 1055.12,399.952 C1055.12,403.648 1054.34533,406.485333 1052.796,408.464 C1051.24667,410.442667 1049.016,411.432 1046.104,411.432 Z M1090.848,420 C1091.93067,415.893333 1092.976,411.777333 1093.984,407.652 C1094.992,403.526667 1096,399.392 1097.008,395.248 C1097.97867,399.392 1098.98667,403.526667 1100.032,407.652 C1101.07733,411.777333 1102.14133,415.893333 1103.224,420 L1103.224,420 L1114.536,420 C1116.40267,413.466667 1118.18533,406.858667 1119.884,400.176 C1121.58267,393.493333 1123.17867,386.754667 1124.672,379.96 L1124.672,379.96 L1113.192,379.96 C1112.48267,384.626667 1111.72667,389.293333 1110.924,393.96 C1110.12133,398.626667 1109.272,403.237333 1108.376,407.792 C1107.368,403.461333 1106.36933,399.121333 1105.38,394.772 C1104.39067,390.422667 1103.42933,386.045333 1102.496,381.64 L1102.496,381.64 L1092.024,381.64 C1091.09067,386.12 1090.12,390.609333 1089.112,395.108 C1088.104,399.606667 1087.05867,404.114667 1085.976,408.632 C1085.08,403.965333 1084.22133,399.224 1083.4,394.408 C1082.57867,389.592 1081.81333,384.776 1081.104,379.96 L1081.104,379.96 L1069.4,379.96 C1070.93067,386.754667 1072.54533,393.493333 1074.244,400.176 C1075.94267,406.858667 1077.70667,413.466667 1079.536,420 L1079.536,420 L1090.848,420 Z" id="WITHBLINK182RIGHTNOW"></path>
            </g>
        </g>
    </g>
</svg>