<svg width="1200" height="677" viewBox="0 0 1200 677" xmlns="http://www.w3.org/2000/svg" xmlns:xlink="http://www.w3.org/1999/xlink"><title>greg-text-02</title><desc>Created with Sketch.</desc><g id="Assets" stroke="none" stroke-width="1" fill="none" fill-rule="evenodd"><g id="Greg" fill="#fff" fill-rule="nonzero"><g id="greg-text-02"><path d="M811.688 331V300.368H823.672V290.96H788.784V300.368H800.768V331H811.688zM839.072 331V314.816H853.296V331H864.216V290.96H853.296V305.408H839.072V290.96H828.152V331H839.072zM882.528 331V290.96H871.608V331H882.528zM902.016 331.84C905.674667 331.84 908.782667 331.336 911.34 330.328 913.897333 329.32 915.857333 327.845333 917.22 325.904 918.582667 323.962667 919.264 321.610667 919.264 318.848 919.264 316.757333 918.928 315.012 918.256 313.612 917.584 312.212 916.632 311.054667 915.4 310.14 914.168 309.225333 912.712 308.450667 911.032 307.816 909.352 307.181333 907.485333 306.621333 905.432 306.136 903.453333 305.650667 901.932 305.137333 900.868 304.596 899.804 304.054667 899.272 303.242667 899.272 302.16 899.272 301.114667 899.785333 300.321333 900.812 299.78 901.838667 299.238667 903.285333 298.968 905.152 298.968 906.458667 298.968 907.812 299.089333 909.212 299.332 910.612 299.574667 912.002667 299.929333 913.384 300.396 914.765333 300.862667 916.072 301.469333 917.304 302.216v0V292.864C915.586667 292.005333 913.664 291.333333 911.536 290.848 909.408 290.362667 907.242667 290.12 905.04 290.12 901.642667 290.12 898.693333 290.633333 896.192 291.66 893.690667 292.686667 891.768 294.152 890.424 296.056 889.08 297.96 888.408 300.256 888.408 302.944 888.408 304.698667 888.669333 306.229333 889.192 307.536 889.714667 308.842667 890.536 309.990667 891.656 310.98 892.776 311.969333 894.232 312.837333 896.024 313.584 897.816 314.330667 899.981333 315.002667 902.52 315.6 903.677333 315.861333 904.685333 316.16 905.544 316.496 906.402667 316.832 907.074667 317.233333 907.56 317.7 908.045333 318.166667 908.288 318.792 908.288 319.576 908.288 320.658667 907.746667 321.498667 906.664 322.096 905.581333 322.693333 903.976 322.992 901.848 322.992 899.682667 322.992 897.508 322.684 895.324 322.068 893.14 321.452 891.002667 320.546667 888.912 319.352v0V328.816C891.077333 329.861333 893.233333 330.626667 895.38 331.112 897.526667 331.597333 899.738667 331.84 902.016 331.84zM948.384 331V290.96H937.464V331H948.384zM967.872 331.84C971.530667 331.84 974.638667 331.336 977.196 330.328 979.753333 329.32 981.713333 327.845333 983.076 325.904 984.438667 323.962667 985.12 321.610667 985.12 318.848 985.12 316.757333 984.784 315.012 984.112 313.612 983.44 312.212 982.488 311.054667 981.256 310.14 980.024 309.225333 978.568 308.450667 976.888 307.816 975.208 307.181333 973.341333 306.621333 971.288 306.136 969.309333 305.650667 967.788 305.137333 966.724 304.596 965.66 304.054667 965.128 303.242667 965.128 302.16 965.128 301.114667 965.641333 300.321333 966.668 299.78 967.694667 299.238667 969.141333 298.968 971.008 298.968 972.314667 298.968 973.668 299.089333 975.068 299.332 976.468 299.574667 977.858667 299.929333 979.24 300.396 980.621333 300.862667 981.928 301.469333 983.16 302.216v0V292.864C981.442667 292.005333 979.52 291.333333 977.392 290.848 975.264 290.362667 973.098667 290.12 970.896 290.12 967.498667 290.12 964.549333 290.633333 962.048 291.66 959.546667 292.686667 957.624 294.152 956.28 296.056 954.936 297.96 954.264 300.256 954.264 302.944 954.264 304.698667 954.525333 306.229333 955.048 307.536 955.570667 308.842667 956.392 309.990667 957.512 310.98 958.632 311.969333 960.088 312.837333 961.88 313.584 963.672 314.330667 965.837333 315.002667 968.376 315.6 969.533333 315.861333 970.541333 316.16 971.4 316.496 972.258667 316.832 972.930667 317.233333 973.416 317.7 973.901333 318.166667 974.144 318.792 974.144 319.576 974.144 320.658667 973.602667 321.498667 972.52 322.096 971.437333 322.693333 969.832 322.992 967.704 322.992 965.538667 322.992 963.364 322.684 961.18 322.068 958.996 321.452 956.858667 320.546667 954.768 319.352v0V328.816C956.933333 329.861333 959.089333 330.626667 961.236 331.112 963.382667 331.597333 965.594667 331.84 967.872 331.84zM1023.312 331V300.368H1035.296V290.96H1000.408V300.368H1012.392V331H1023.312zM1050.696 331V314.816H1064.92V331H1075.84V290.96H1064.92V305.408H1050.696V290.96H1039.776V331H1050.696zM1112.968 331V322.264H1093.872V314.984H1109.664V306.248H1093.872V299.696H1111.904V290.96H1083.232V331H1112.968zM808.64 403V382.36H830V369.32H808.64V358.84H833.04V345.8H793.28V403H808.64zM865.44 404.2C870.72 404.2 875.24 403.186667 879 401.16 882.76 399.133333 885.64 396.213333 887.64 392.4 889.64 388.586667 890.64 384.04 890.64 378.76v0V345.8H875.28V380.52C875.28 383.773333 874.426667 386.293333 872.72 388.08 871.013333 389.866667 868.586667 390.76 865.44 390.76 862.346667 390.76 859.933333 389.866667 858.2 388.08 856.466667 386.293333 855.6 383.773333 855.6 380.52v0V345.8H840V378.76C840 384.04 841.013333 388.586667 843.04 392.4 845.066667 396.213333 847.986667 399.133333 851.8 401.16 855.613333 403.186667 860.16 404.2 865.44 404.2zM929.52 403V359.24H946.64V345.8H896.8V359.24H913.92V403H929.52zM978.24 404.2C983.52 404.2 988.04 403.186667 991.8 401.16 995.56 399.133333 998.44 396.213333 1000.44 392.4 1002.44 388.586667 1003.44 384.04 1003.44 378.76v0V345.8H988.08V380.52C988.08 383.773333 987.226667 386.293333 985.52 388.08 983.813333 389.866667 981.386667 390.76 978.24 390.76 975.146667 390.76 972.733333 389.866667 971 388.08 969.266667 386.293333 968.4 383.773333 968.4 380.52v0V345.8H952.8V378.76C952.8 384.04 953.813333 388.586667 955.84 392.4 957.866667 396.213333 960.786667 399.133333 964.6 401.16 968.413333 403.186667 972.96 404.2 978.24 404.2zM1028.88 403V383.72H1036.72C1038.58667 386.866667 1040.38667 390.053333 1042.12 393.28 1043.85333 396.506667 1045.57333 399.746667 1047.28 403v0H1064.48C1062.29333 399.106667 1060.06667 395.293333 1057.8 391.56 1055.53333 387.826667 1053.22667 384.12 1050.88 380.44 1053.86667 378.84 1056.17333 376.706667 1057.8 374.04 1059.42667 371.373333 1060.24 368.28 1060.24 364.76 1060.24 358.626667 1058.13333 353.933333 1053.92 350.68 1049.70667 347.426667 1043.62667 345.8 1035.68 345.8v0H1013.76V403H1028.88zM1034.96 371.72H1028.88V357.8H1034.96C1038.21333 357.8 1040.61333 358.373333 1042.16 359.52 1043.70667 360.666667 1044.48 362.413333 1044.48 364.76 1044.48 367.053333 1043.70667 368.786667 1042.16 369.96 1040.61333 371.133333 1038.21333 371.72 1034.96 371.72v0zM1113.12 403V390.52H1085.84V380.12H1108.4V367.64H1085.84V358.28H1111.6V345.8H1070.64V403H1113.12z" id="THISISTHEFUTURE"/></g></g></g></svg>