<svg width="1200" height="677" viewBox="0 0 1200 677" xmlns="http://www.w3.org/2000/svg" xmlns:xlink="http://www.w3.org/1999/xlink"><title>greg-text-07</title><desc>Created with Sketch.</desc><g id="Assets" stroke="none" stroke-width="1" fill="none" fill-rule="evenodd"><g id="Greg" fill="#fff" fill-rule="nonzero"><g id="greg-text-07"><path d="M802.616 234V193.96H791.696V234H802.616zM814.768 210.704C815.776 209.696 816.644 208.585333 817.372 207.372 818.1 206.158667 818.669333 204.889333 819.08 203.564 819.490667 202.238667 819.696 200.978667 819.696 199.784 819.696 197.768 819.248 196.228 818.352 195.164 817.456 194.1 816.093333 193.568 814.264 193.568 812.696 193.568 811.454667 194.025333 810.54 194.94 809.625333 195.854667 809.168 197.058667 809.168 198.552 809.168 199.709333 809.466667 200.68 810.064 201.464 810.661333 202.248 811.482667 202.789333 812.528 203.088 811.818667 205.626667 810.232 208.165333 807.768 210.704v0h7zM836.44 234V209.696C837.672 212.533333 838.932 215.370667 840.22 218.208 841.508 221.045333 842.805333 223.882667 844.112 226.72v0H852.512C853.781333 223.882667 855.041333 221.036 856.292 218.18 857.542667 215.324 858.784 212.44 860.016 209.528v0V234H870.208V193.96H857.216C855.797333 197.730667 854.36 201.454667 852.904 205.132 851.448 208.809333 849.973333 212.44 848.48 216.024 846.912 212.402667 845.372 208.744 843.86 205.048 842.348 201.352 840.864 197.656 839.408 193.96v0H826.248V234H836.44zM909.8 234.84C911.592 234.84 913.393333 234.728 915.204 234.504 917.014667 234.28 918.76 233.934667 920.44 233.468 922.12 233.001333 923.613333 232.450667 924.92 231.816v0V210.928H909.296V218.992H915.12V224.984C914.410667 225.170667 913.673333 225.310667 912.908 225.404 912.142667 225.497333 911.386667 225.544 910.64 225.544 907.130667 225.544 904.470667 224.564 902.66 222.604 900.849333 220.644 899.944 217.76 899.944 213.952 899.944 210.293333 900.98 207.474667 903.052 205.496 905.124 203.517333 908.082667 202.528 911.928 202.528 914.28 202.528 916.436 202.78 918.396 203.284 920.356 203.788 922.176 204.506667 923.856 205.44v0V195.584C919.936 193.941333 915.493333 193.12 910.528 193.12 907.242667 193.12 904.256 193.614667 901.568 194.604 898.88 195.593333 896.565333 197.002667 894.624 198.832 892.682667 200.661333 891.198667 202.854667 890.172 205.412 889.145333 207.969333 888.632 210.816 888.632 213.952 888.632 217.2 889.117333 220.112 890.088 222.688 891.058667 225.264 892.458667 227.457333 894.288 229.268 896.117333 231.078667 898.338667 232.46 900.952 233.412 903.565333 234.364 906.514667 234.84 909.8 234.84zM950.4 234.84C953.498667 234.84 956.298667 234.354667 958.8 233.384 961.301333 232.413333 963.438667 231.013333 965.212 229.184 966.985333 227.354667 968.348 225.152 969.3 222.576 970.252 220 970.728 217.125333 970.728 213.952 970.728 210.741333 970.252 207.857333 969.3 205.3 968.348 202.742667 966.985333 200.558667 965.212 198.748 963.438667 196.937333 961.301333 195.546667 958.8 194.576 956.298667 193.605333 953.498667 193.12 950.4 193.12 947.301333 193.12 944.501333 193.605333 942 194.576 939.498667 195.546667 937.361333 196.937333 935.588 198.748 933.814667 200.558667 932.452 202.742667 931.5 205.3 930.548 207.857333 930.072 210.741333 930.072 213.952 930.072 217.125333 930.548 220 931.5 222.576 932.452 225.152 933.814667 227.354667 935.588 229.184 937.361333 231.013333 939.498667 232.413333 942 233.384 944.501333 234.354667 947.301333 234.84 950.4 234.84zM950.4 225.432C947.488 225.432 945.257333 224.442667 943.708 222.464 942.158667 220.485333 941.384 217.648 941.384 213.952 941.384 210.293333 942.158667 207.474667 943.708 205.496 945.257333 203.517333 947.488 202.528 950.4 202.528 953.312 202.528 955.542667 203.517333 957.092 205.496 958.641333 207.474667 959.416 210.293333 959.416 213.952 959.416 217.648 958.641333 220.485333 957.092 222.464 955.542667 224.442667 953.312 225.432 950.4 225.432zM987.584 234V193.96H976.664V234H987.584zM1005.392 234V209.696C1007.81867 213.578667 1010.292 217.582667 1012.812 221.708 1015.332 225.833333 1017.78667 229.930667 1020.176 234v0H1031.152V193.96H1020.736V217.816C1018.30933 213.746667 1015.864 209.714667 1013.4 205.72 1010.936 201.725333 1008.45333 197.805333 1005.952 193.96v0H994.976V234H1005.392zM1058.256 234.84C1060.048 234.84 1061.84933 234.728 1063.66 234.504 1065.47067 234.28 1067.216 233.934667 1068.896 233.468 1070.576 233.001333 1072.06933 232.450667 1073.376 231.816v0V210.928H1057.752V218.992H1063.576V224.984C1062.86667 225.170667 1062.12933 225.310667 1061.364 225.404 1060.59867 225.497333 1059.84267 225.544 1059.096 225.544 1055.58667 225.544 1052.92667 224.564 1051.116 222.604 1049.30533 220.644 1048.4 217.76 1048.4 213.952 1048.4 210.293333 1049.436 207.474667 1051.508 205.496 1053.58 203.517333 1056.53867 202.528 1060.384 202.528 1062.736 202.528 1064.892 202.78 1066.852 203.284 1068.812 203.788 1070.632 204.506667 1072.312 205.44v0V195.584C1068.392 193.941333 1063.94933 193.12 1058.984 193.12 1055.69867 193.12 1052.712 193.614667 1050.024 194.604 1047.336 195.593333 1045.02133 197.002667 1043.08 198.832 1041.13867 200.661333 1039.65467 202.854667 1038.628 205.412 1037.60133 207.969333 1037.088 210.816 1037.088 213.952 1037.088 217.2 1037.57333 220.112 1038.544 222.688 1039.51467 225.264 1040.91467 227.457333 1042.744 229.268 1044.57333 231.078667 1046.79467 232.46 1049.408 233.412 1052.02133 234.364 1054.97067 234.84 1058.256 234.84zM811.688 296V265.368H823.672V255.96H788.784V265.368H800.768V296H811.688zM847.024 296.84C850.122667 296.84 852.922667 296.354667 855.424 295.384 857.925333 294.413333 860.062667 293.013333 861.836 291.184 863.609333 289.354667 864.972 287.152 865.924 284.576 866.876 282 867.352 279.125333 867.352 275.952 867.352 272.741333 866.876 269.857333 865.924 267.3 864.972 264.742667 863.609333 262.558667 861.836 260.748 860.062667 258.937333 857.925333 257.546667 855.424 256.576 852.922667 255.605333 850.122667 255.12 847.024 255.12 843.925333 255.12 841.125333 255.605333 838.624 256.576 836.122667 257.546667 833.985333 258.937333 832.212 260.748 830.438667 262.558667 829.076 264.742667 828.124 267.3 827.172 269.857333 826.696 272.741333 826.696 275.952 826.696 279.125333 827.172 282 828.124 284.576 829.076 287.152 830.438667 289.354667 832.212 291.184 833.985333 293.013333 836.122667 294.413333 838.624 295.384 841.125333 296.354667 843.925333 296.84 847.024 296.84zM847.024 287.432C844.112 287.432 841.881333 286.442667 840.332 284.464 838.782667 282.485333 838.008 279.648 838.008 275.952 838.008 272.293333 838.782667 269.474667 840.332 267.496 841.881333 265.517333 844.112 264.528 847.024 264.528 849.936 264.528 852.166667 265.517333 853.716 267.496 855.265333 269.474667 856.04 272.293333 856.04 275.952 856.04 279.648 855.265333 282.485333 853.716 284.464 852.166667 286.442667 849.936 287.432 847.024 287.432zM914.504 296V286.592H896.696V255.96H885.776V296H914.504zM948.72 296V287.264H929.624V279.984H945.416V271.248H929.624V264.696H947.656V255.96H918.984V296H948.72zM973.976 296V265.368H985.96V255.96H951.072V265.368H963.056V296H973.976zM1022.92 296V265.368H1034.904V255.96H1000.016V265.368H1012V296H1022.92zM1050.304 296V279.816H1064.528V296H1075.448V255.96H1064.528V270.408H1050.304V255.96H1039.384V296H1050.304zM1112.576 296V287.264H1093.48V279.984H1109.272V271.248H1093.48V264.696H1111.512V255.96H1082.84V296H1112.576zM802.28 358V345.288H806.76C810.381333 345.288 813.442667 344.756 815.944 343.692 818.445333 342.628 820.349333 341.078667 821.656 339.044 822.962667 337.009333 823.616 334.536 823.616 331.624 823.616 327.218667 822.169333 323.84 819.276 321.488 816.382667 319.136 812.210667 317.96 806.76 317.96v0H791.696V358H802.28zM806.256 336.888H802.28V326.36H806.256C810.474667 326.36 812.584 328.114667 812.584 331.624 812.584 335.133333 810.474667 336.888 806.256 336.888v0zM858.896 358V349.264H839.8V341.984H855.592V333.248H839.8V326.696H857.832V317.96H829.16V358H858.896zM874.744 358V344.504H880.232C881.538667 346.706667 882.798667 348.937333 884.012 351.196 885.225333 353.454667 886.429333 355.722667 887.624 358v0H899.664C898.133333 355.274667 896.574667 352.605333 894.988 349.992 893.401333 347.378667 891.786667 344.784 890.144 342.208 892.234667 341.088 893.849333 339.594667 894.988 337.728 896.126667 335.861333 896.696 333.696 896.696 331.232 896.696 326.938667 895.221333 323.653333 892.272 321.376 889.322667 319.098667 885.066667 317.96 879.504 317.96v0H864.16V358H874.744zM879 336.104H874.744V326.36H879C881.277333 326.36 882.957333 326.761333 884.04 327.564 885.122667 328.366667 885.664 329.589333 885.664 331.232 885.664 332.837333 885.122667 334.050667 884.04 334.872 882.957333 335.693333 881.277333 336.104 879 336.104v0zM916.072 358.84C919.730667 358.84 922.838667 358.336 925.396 357.328 927.953333 356.32 929.913333 354.845333 931.276 352.904 932.638667 350.962667 933.32 348.610667 933.32 345.848 933.32 343.757333 932.984 342.012 932.312 340.612 931.64 339.212 930.688 338.054667 929.456 337.14 928.224 336.225333 926.768 335.450667 925.088 334.816 923.408 334.181333 921.541333 333.621333 919.488 333.136 917.509333 332.650667 915.988 332.137333 914.924 331.596 913.86 331.054667 913.328 330.242667 913.328 329.16 913.328 328.114667 913.841333 327.321333 914.868 326.78 915.894667 326.238667 917.341333 325.968 919.208 325.968 920.514667 325.968 921.868 326.089333 923.268 326.332 924.668 326.574667 926.058667 326.929333 927.44 327.396 928.821333 327.862667 930.128 328.469333 931.36 329.216v0V319.864C929.642667 319.005333 927.72 318.333333 925.592 317.848 923.464 317.362667 921.298667 317.12 919.096 317.12 915.698667 317.12 912.749333 317.633333 910.248 318.66 907.746667 319.686667 905.824 321.152 904.48 323.056 903.136 324.96 902.464 327.256 902.464 329.944 902.464 331.698667 902.725333 333.229333 903.248 334.536 903.770667 335.842667 904.592 336.990667 905.712 337.98 906.832 338.969333 908.288 339.837333 910.08 340.584 911.872 341.330667 914.037333 342.002667 916.576 342.6 917.733333 342.861333 918.741333 343.16 919.6 343.496 920.458667 343.832 921.130667 344.233333 921.616 344.7 922.101333 345.166667 922.344 345.792 922.344 346.576 922.344 347.658667 921.802667 348.498667 920.72 349.096 919.637333 349.693333 918.032 349.992 915.904 349.992 913.738667 349.992 911.564 349.684 909.38 349.068 907.196 348.452 905.058667 347.546667 902.968 346.352v0V355.816C905.133333 356.861333 907.289333 357.626667 909.436 358.112 911.582667 358.597333 913.794667 358.84 916.072 358.84zM957.904 358.84C961.002667 358.84 963.802667 358.354667 966.304 357.384 968.805333 356.413333 970.942667 355.013333 972.716 353.184 974.489333 351.354667 975.852 349.152 976.804 346.576 977.756 344 978.232 341.125333 978.232 337.952 978.232 334.741333 977.756 331.857333 976.804 329.3 975.852 326.742667 974.489333 324.558667 972.716 322.748 970.942667 320.937333 968.805333 319.546667 966.304 318.576 963.802667 317.605333 961.002667 317.12 957.904 317.12 954.805333 317.12 952.005333 317.605333 949.504 318.576 947.002667 319.546667 944.865333 320.937333 943.092 322.748 941.318667 324.558667 939.956 326.742667 939.004 329.3 938.052 331.857333 937.576 334.741333 937.576 337.952 937.576 341.125333 938.052 344 939.004 346.576 939.956 349.152 941.318667 351.354667 943.092 353.184 944.865333 355.013333 947.002667 356.413333 949.504 357.384 952.005333 358.354667 954.805333 358.84 957.904 358.84zM957.904 349.432C954.992 349.432 952.761333 348.442667 951.212 346.464 949.662667 344.485333 948.888 341.648 948.888 337.952 948.888 334.293333 949.662667 331.474667 951.212 329.496 952.761333 327.517333 954.992 326.528 957.904 326.528 960.816 326.528 963.046667 327.517333 964.596 329.496 966.145333 331.474667 966.92 334.293333 966.92 337.952 966.92 341.648 966.145333 344.485333 964.596 346.464 963.046667 348.442667 960.816 349.432 957.904 349.432zM994.584 358V333.696C997.010667 337.578667 999.484 341.582667 1002.004 345.708 1004.524 349.833333 1006.97867 353.930667 1009.368 358v0H1020.344V317.96H1009.928V341.816C1007.50133 337.746667 1005.056 333.714667 1002.592 329.72 1000.128 325.725333 997.645333 321.805333 995.144 317.96v0H984.168V358H994.584zm53.928.0C1049.296 355.461333 1050.06133 352.96 1050.808 350.496v0H1065.424C1065.79733 351.728 1066.18 352.969333 1066.572 354.22 1066.964 355.470667 1067.34667 356.730667 1067.72 358v0H1079.536C1077.14667 351.317333 1074.68267 344.634667 1072.144 337.952 1069.60533 331.269333 1066.992 324.605333 1064.304 317.96v0H1052.264C1049.65067 324.269333 1047.07467 330.765333 1044.536 337.448 1041.99733 344.130667 1039.496 350.981333 1037.032 358v0H1048.512zM1062.736 341.984H1053.496C1054.24267 339.669333 1055.008 337.364 1055.792 335.068 1056.576 332.772 1057.36 330.466667 1058.144 328.152 1058.928 330.429333 1059.70267 332.716 1060.468 335.012 1061.23333 337.308 1061.98933 339.632 1062.736 341.984v0zM1103.728 358V327.368H1115.712V317.96H1080.824V327.368H1092.808V358H1103.728zM802.616 420V403.816H816.84V420H827.76V379.96H816.84V394.408H802.616V379.96H791.696V420H802.616zM854.024 420.84C857.122667 420.84 859.922667 420.354667 862.424 419.384 864.925333 418.413333 867.062667 417.013333 868.836 415.184 870.609333 413.354667 871.972 411.152 872.924 408.576 873.876 406 874.352 403.125333 874.352 399.952 874.352 396.741333 873.876 393.857333 872.924 391.3 871.972 388.742667 870.609333 386.558667 868.836 384.748 867.062667 382.937333 864.925333 381.546667 862.424 380.576 859.922667 379.605333 857.122667 379.12 854.024 379.12 850.925333 379.12 848.125333 379.605333 845.624 380.576 843.122667 381.546667 840.985333 382.937333 839.212 384.748 837.438667 386.558667 836.076 388.742667 835.124 391.3 834.172 393.857333 833.696 396.741333 833.696 399.952 833.696 403.125333 834.172 406 835.124 408.576 836.076 411.152 837.438667 413.354667 839.212 415.184 840.985333 417.013333 843.122667 418.413333 845.624 419.384 848.125333 420.354667 850.925333 420.84 854.024 420.84zM854.024 411.432C851.112 411.432 848.881333 410.442667 847.332 408.464 845.782667 406.485333 845.008 403.648 845.008 399.952 845.008 396.293333 845.782667 393.474667 847.332 391.496 848.881333 389.517333 851.112 388.528 854.024 388.528 856.936 388.528 859.166667 389.517333 860.716 391.496 862.265333 393.474667 863.04 396.293333 863.04 399.952 863.04 403.648 862.265333 406.485333 860.716 408.464 859.166667 410.442667 856.936 411.432 854.024 411.432zM890.48 420V395.696C891.712 398.533333 892.972 401.370667 894.26 404.208 895.548 407.045333 896.845333 409.882667 898.152 412.72v0H906.552C907.821333 409.882667 909.081333 407.036 910.332 404.18 911.582667 401.324 912.824 398.44 914.056 395.528v0V420H924.248V379.96H911.256C909.837333 383.730667 908.4 387.454667 906.944 391.132 905.488 394.809333 904.013333 398.44 902.52 402.024 900.952 398.402667 899.412 394.744 897.9 391.048 896.388 387.352 894.904 383.656 893.448 379.96v0H880.288V420H890.48zM961.376 420V411.264H942.28V403.984H958.072V395.248H942.28V388.696H960.312V379.96H931.64V420H961.376zM998.84 420.84C1000.632 420.84 1002.43333 420.728 1004.244 420.504 1006.05467 420.28 1007.8 419.934667 1009.48 419.468 1011.16 419.001333 1012.65333 418.450667 1013.96 417.816v0V396.928H998.336V404.992H1004.16V410.984C1003.45067 411.170667 1002.71333 411.310667 1001.948 411.404 1001.18267 411.497333 1000.42667 411.544 999.68 411.544 996.170667 411.544 993.510667 410.564 991.7 408.604 989.889333 406.644 988.984 403.76 988.984 399.952 988.984 396.293333 990.02 393.474667 992.092 391.496 994.164 389.517333 997.122667 388.528 1000.968 388.528 1003.32 388.528 1005.476 388.78 1007.436 389.284 1009.396 389.788 1011.216 390.506667 1012.896 391.44v0V381.584C1008.976 379.941333 1004.53333 379.12 999.568 379.12 996.282667 379.12 993.296 379.614667 990.608 380.604 987.92 381.593333 985.605333 383.002667 983.664 384.832 981.722667 386.661333 980.238667 388.854667 979.212 391.412 978.185333 393.969333 977.672 396.816 977.672 399.952 977.672 403.2 978.157333 406.112 979.128 408.688 980.098667 411.264 981.498667 413.457333 983.328 415.268 985.157333 417.078667 987.378667 418.46 989.992 419.412 992.605333 420.364 995.554667 420.84 998.84 420.84zM1038.208 420.84C1041.904 420.84 1045.068 420.130667 1047.7 418.712 1050.332 417.293333 1052.348 415.249333 1053.748 412.58 1055.148 409.910667 1055.848 406.728 1055.848 403.032v0V379.96H1045.096V404.264C1045.096 406.541333 1044.49867 408.305333 1043.304 409.556 1042.10933 410.806667 1040.41067 411.432 1038.208 411.432 1036.04267 411.432 1034.35333 410.806667 1033.14 409.556 1031.92667 408.305333 1031.32 406.541333 1031.32 404.264v0V379.96H1020.4V403.032C1020.4 406.728 1021.10933 409.910667 1022.528 412.58 1023.94667 415.249333 1025.99067 417.293333 1028.66 418.712 1031.32933 420.130667 1034.512 420.84 1038.208 420.84zM1092.808 420V411.264H1073.712V403.984H1089.504V395.248H1073.712V388.696H1091.744V379.96H1063.072V420H1092.808zM1110.168 420.84C1113.82667 420.84 1116.93467 420.336 1119.492 419.328 1122.04933 418.32 1124.00933 416.845333 1125.372 414.904 1126.73467 412.962667 1127.416 410.610667 1127.416 407.848 1127.416 405.757333 1127.08 404.012 1126.408 402.612 1125.736 401.212 1124.784 400.054667 1123.552 399.14 1122.32 398.225333 1120.864 397.450667 1119.184 396.816 1117.504 396.181333 1115.63733 395.621333 1113.584 395.136 1111.60533 394.650667 1110.084 394.137333 1109.02 393.596 1107.956 393.054667 1107.424 392.242667 1107.424 391.16 1107.424 390.114667 1107.93733 389.321333 1108.964 388.78 1109.99067 388.238667 1111.43733 387.968 1113.304 387.968 1114.61067 387.968 1115.964 388.089333 1117.364 388.332 1118.764 388.574667 1120.15467 388.929333 1121.536 389.396 1122.91733 389.862667 1124.224 390.469333 1125.456 391.216v0V381.864C1123.73867 381.005333 1121.816 380.333333 1119.688 379.848 1117.56 379.362667 1115.39467 379.12 1113.192 379.12 1109.79467 379.12 1106.84533 379.633333 1104.344 380.66 1101.84267 381.686667 1099.92 383.152 1098.576 385.056 1097.232 386.96 1096.56 389.256 1096.56 391.944 1096.56 393.698667 1096.82133 395.229333 1097.344 396.536 1097.86667 397.842667 1098.688 398.990667 1099.808 399.98 1100.928 400.969333 1102.384 401.837333 1104.176 402.584 1105.968 403.330667 1108.13333 404.002667 1110.672 404.6 1111.82933 404.861333 1112.83733 405.16 1113.696 405.496 1114.55467 405.832 1115.22667 406.233333 1115.712 406.7 1116.19733 407.166667 1116.44 407.792 1116.44 408.576 1116.44 409.658667 1115.89867 410.498667 1114.816 411.096 1113.73333 411.693333 1112.128 411.992 1110 411.992 1107.83467 411.992 1105.66 411.684 1103.476 411.068 1101.292 410.452 1099.15467 409.546667 1097.064 408.352v0V417.816C1099.22933 418.861333 1101.38533 419.626667 1103.532 420.112 1105.67867 420.597333 1107.89067 420.84 1110.168 420.84zM1145.224 420.84C1148.88267 420.84 1151.99067 420.336 1154.548 419.328 1157.10533 418.32 1159.06533 416.845333 1160.428 414.904 1161.79067 412.962667 1162.472 410.610667 1162.472 407.848 1162.472 405.757333 1162.136 404.012 1161.464 402.612 1160.792 401.212 1159.84 400.054667 1158.608 399.14 1157.376 398.225333 1155.92 397.450667 1154.24 396.816 1152.56 396.181333 1150.69333 395.621333 1148.64 395.136 1146.66133 394.650667 1145.14 394.137333 1144.076 393.596 1143.012 393.054667 1142.48 392.242667 1142.48 391.16 1142.48 390.114667 1142.99333 389.321333 1144.02 388.78 1145.04667 388.238667 1146.49333 387.968 1148.36 387.968 1149.66667 387.968 1151.02 388.089333 1152.42 388.332 1153.82 388.574667 1155.21067 388.929333 1156.592 389.396 1157.97333 389.862667 1159.28 390.469333 1160.512 391.216v0V381.864C1158.79467 381.005333 1156.872 380.333333 1154.744 379.848 1152.616 379.362667 1150.45067 379.12 1148.248 379.12 1144.85067 379.12 1141.90133 379.633333 1139.4 380.66 1136.89867 381.686667 1134.976 383.152 1133.632 385.056 1132.288 386.96 1131.616 389.256 1131.616 391.944 1131.616 393.698667 1131.87733 395.229333 1132.4 396.536 1132.92267 397.842667 1133.744 398.990667 1134.864 399.98 1135.984 400.969333 1137.44 401.837333 1139.232 402.584 1141.024 403.330667 1143.18933 404.002667 1145.728 404.6 1146.88533 404.861333 1147.89333 405.16 1148.752 405.496 1149.61067 405.832 1150.28267 406.233333 1150.768 406.7 1151.25333 407.166667 1151.496 407.792 1151.496 408.576 1151.496 409.658667 1150.95467 410.498667 1149.872 411.096 1148.78933 411.693333 1147.184 411.992 1145.056 411.992 1142.89067 411.992 1140.716 411.684 1138.532 411.068 1136.348 410.452 1134.21067 409.546667 1132.12 408.352v0V417.816C1134.28533 418.861333 1136.44133 419.626667 1138.588 420.112 1140.73467 420.597333 1142.94667 420.84 1145.224 420.84zM802.448 482V467.552H817.4V458.424H802.448V451.088H819.528V441.96H791.696V482H802.448zM835.488 482V441.96H824.568V482H835.488zm17.976.0V468.504H858.952C860.258667 470.706667 861.518667 472.937333 862.732 475.196 863.945333 477.454667 865.149333 479.722667 866.344 482v0H878.384C876.853333 479.274667 875.294667 476.605333 873.708 473.992 872.121333 471.378667 870.506667 468.784 868.864 466.208 870.954667 465.088 872.569333 463.594667 873.708 461.728 874.846667 459.861333 875.416 457.696 875.416 455.232 875.416 450.938667 873.941333 447.653333 870.992 445.376 868.042667 443.098667 863.786667 441.96 858.224 441.96v0H842.88V482H853.464zM857.72 460.104H853.464V450.36H857.72C859.997333 450.36 861.677333 450.761333 862.76 451.564 863.842667 452.366667 864.384 453.589333 864.384 455.232 864.384 456.837333 863.842667 458.050667 862.76 458.872 861.677333 459.693333 859.997333 460.104 857.72 460.104v0zM894.792 482.84C898.450667 482.84 901.558667 482.336 904.116 481.328 906.673333 480.32 908.633333 478.845333 909.996 476.904 911.358667 474.962667 912.04 472.610667 912.04 469.848 912.04 467.757333 911.704 466.012 911.032 464.612 910.36 463.212 909.408 462.054667 908.176 461.14 906.944 460.225333 905.488 459.450667 903.808 458.816 902.128 458.181333 900.261333 457.621333 898.208 457.136 896.229333 456.650667 894.708 456.137333 893.644 455.596 892.58 455.054667 892.048 454.242667 892.048 453.16 892.048 452.114667 892.561333 451.321333 893.588 450.78 894.614667 450.238667 896.061333 449.968 897.928 449.968 899.234667 449.968 900.588 450.089333 901.988 450.332 903.388 450.574667 904.778667 450.929333 906.16 451.396 907.541333 451.862667 908.848 452.469333 910.08 453.216v0V443.864C908.362667 443.005333 906.44 442.333333 904.312 441.848 902.184 441.362667 900.018667 441.12 897.816 441.12 894.418667 441.12 891.469333 441.633333 888.968 442.66 886.466667 443.686667 884.544 445.152 883.2 447.056 881.856 448.96 881.184 451.256 881.184 453.944 881.184 455.698667 881.445333 457.229333 881.968 458.536 882.490667 459.842667 883.312 460.990667 884.432 461.98 885.552 462.969333 887.008 463.837333 888.8 464.584 890.592 465.330667 892.757333 466.002667 895.296 466.6 896.453333 466.861333 897.461333 467.16 898.32 467.496 899.178667 467.832 899.850667 468.233333 900.336 468.7 900.821333 469.166667 901.064 469.792 901.064 470.576 901.064 471.658667 900.522667 472.498667 899.44 473.096 898.357333 473.693333 896.752 473.992 894.624 473.992 892.458667 473.992 890.284 473.684 888.1 473.068 885.916 472.452 883.778667 471.546667 881.688 470.352v0V479.816C883.853333 480.861333 886.009333 481.626667 888.156 482.112 890.302667 482.597333 892.514667 482.84 894.792 482.84zM937.744 482V451.368H949.728V441.96H914.84V451.368H926.824V482H937.744z" id="I’MGOINGTOLETTHEPERSONATHOMEGUESSFIRST"/></g></g></g></svg>