<svg width="1200" height="675" xmlns="http://www.w3.org/2000/svg"><g fill="none" fill-rule="evenodd"><path fill="#2967F7" d="M819 597h105v54H819z"/><path d="M850.844 637v-6.048h-11.448V611.26h-7.02V637h18.468zm9.9 0v-25.74h-7.02V637h7.02zm19.872 0c1.656-4.296 3.288-8.592 4.896-12.888a760.542 760.542 0 004.68-12.852h-7.452c-.936 3.12-1.89 6.228-2.862 9.324a924.367 924.367 0 01-2.97 9.288c-.984-3.096-1.962-6.192-2.934-9.288a764.867 764.867 0 01-2.862-9.324h-7.668a760.542 760.542 0 004.68 12.852c1.608 4.296 3.24 8.592 4.896 12.888h7.596zm31.392 0v-5.616h-12.276v-4.68h10.152v-5.616h-10.152v-4.212h11.592v-5.616h-18.432V637h19.116zM945.528 633.36c1.232 0 2.344-.212 3.336-.636a7.15 7.15 0 002.544-1.812c.704-.784 1.248-1.728 1.632-2.832.384-1.104.576-2.328.576-3.672 0-1.36-.188-2.588-.564-3.684-.376-1.096-.92-2.036-1.632-2.82a7.136 7.136 0 00-2.556-1.8c-.992-.416-2.104-.624-3.336-.624-1.232 0-2.344.208-3.336.624a7.136 7.136 0 00-2.556 1.8c-.712.784-1.256 1.724-1.632 2.82-.376 1.096-.564 2.324-.564 3.684 0 1.344.192 2.568.576 3.672.384 1.104.928 2.048 1.632 2.832a7.126 7.126 0 002.556 1.812c1 .424 2.108.636 3.324.636zm0-1.32c-1.008 0-1.912-.176-2.712-.528a5.674 5.674 0 01-2.052-1.524c-.568-.664-1.004-1.468-1.308-2.412-.304-.944-.456-2-.456-3.168 0-1.168.152-2.22.456-3.156.304-.936.74-1.736 1.308-2.4a5.65 5.65 0 012.064-1.524c.808-.352 1.708-.528 2.7-.528.992 0 1.892.176 2.7.528a5.65 5.65 0 012.064 1.524c.568.664 1.004 1.464 1.308 2.4.304.936.456 1.988.456 3.156 0 1.168-.152 2.224-.456 3.168-.304.944-.74 1.748-1.308 2.412a5.674 5.674 0 01-2.052 1.524c-.8.352-1.704.528-2.712.528zm13.368.96v-14.952a443.322 443.322 0 013.48 4.824 552.59 552.59 0 013.552 5.052 485.234 485.234 0 013.48 5.076h1.488v-17.16h-1.44v14.856a460.053 460.053 0 00-5.22-7.524 521.78 521.78 0 00-5.292-7.332h-1.488V633h1.44z" fill="#FFF" fill-rule="nonzero"/><g fill="#FFF"><path d="M1042.035 600h23.785v22.396h-23.785V600zm14.988 3.12c-.103-.021-.215-.036-.321-.057l-.127-.017a9.166 9.166 0 00-.554-.06 3.459 3.459 0 00-.377-.029 8.556 8.556 0 00-.66-.024c-.099 0-.159.003-.254.003-.183.004-.356.014-.529.025-.095.007-.194.014-.29.025-.14.01-.278.02-.419.045l-.116.011-.13.021-.156.028a2 2 0 00-.201.036c-.099.01-.19.035-.279.053-.564.12-1.086.275-1.566.462-.25.099-.49.205-.712.314-.194.095-.37.194-.55.293-.17.099-.329.198-.488.3-.088.064-.18.116-.268.184-.074.056-.144.105-.218.158-.148.117-.297.24-.434.357-.124.116-.247.23-.363.342a2.69 2.69 0 00-.29.31 4.273 4.273 0 00-.289.329c-.102.12-.187.24-.282.37-.078.096-.138.195-.205.293-.05.07-.088.134-.123.209-.254.398-.47.832-.653 1.295a8.553 8.553 0 00-.469 1.86c-.021.211-.042.423-.06.642a13.604 13.604 0 00-.01.882c.01.127.028.254.038.381l.011.092a5.672 5.672 0 00.106.621c.025.12.056.24.081.364a10.46 10.46 0 00.335.985c.12.271.247.532.377.783.082.145.163.286.247.427.07.102.138.208.205.31.092.138.19.265.286.389.098.13.208.247.314.367.12.144.247.278.37.402l.063.063c.11.1.216.209.346.322.085.067.176.148.275.222.088.07.187.148.282.219.127.088.244.173.378.26.152.082.3.18.455.27.314.176.66.345 1.044.5.138.057.29.11.44.16.153.056.308.101.466.147.28.074.568.149.865.209.243.049.504.084.762.112.26.036.529.06.8.075.141.01.282.01.416.017h.198c.5 0 .96-.021 1.39-.056l.084-.007c.173-.014.332-.032.494-.057.25-.024.476-.06.699-.102.14-.021.275-.053.409-.078.208-.05.402-.095.585-.144.138-.032.272-.071.402-.113.152-.043.293-.096.438-.145l.134-.042c.067-.025.162-.06.264-.1.145-.056.318-.126.515-.211.12-.05.247-.106.381-.166.106-.056.233-.116.364-.173.042-.024.098-.053.155-.074v-3.06c-.039.025-.081.053-.113.07l-.208.124c-.212.127-.413.247-.61.36-.219.117-.445.226-.66.336-.374.176-.74.324-1.086.448-.667.24-1.277.388-1.813.487-.067.01-.13.025-.19.032-.153.02-.294.042-.435.056-.208.021-.409.032-.578.042-.12.004-.222.011-.328.011-.215 0-.438-.007-.67-.025a13.82 13.82 0 01-.808-.091 7.816 7.816 0 01-1.312-.346c-.07-.021-.13-.05-.194-.078a.75.75 0 01-.13-.05 5.287 5.287 0 01-.653-.321c-.067-.042-.138-.088-.212-.126-.07-.05-.145-.096-.219-.152a3.866 3.866 0 01-.257-.184 5.038 5.038 0 00-.247-.197l-.095-.092-.053-.046-.028-.028-.04-.036a6.899 6.899 0 01-.38-.416 5.22 5.22 0 00-.184-.23 4.195 4.195 0 01-.148-.229 1.978 1.978 0 01-.134-.215 5.734 5.734 0 01-.18-.321c-.039-.088-.08-.184-.116-.272a3.445 3.445 0 01-.17-.459c-.038-.11-.07-.23-.102-.339a6.537 6.537 0 01-.14-.857c-.015-.095-.015-.184-.022-.268-.004-.117-.004-.223-.004-.307v-.194a6.51 6.51 0 01.057-.646c.021-.156.053-.318.095-.49a4.71 4.71 0 01.095-.35c.04-.11.074-.216.12-.335.022-.075.053-.149.092-.223.046-.102.095-.208.148-.307a5.467 5.467 0 01.473-.759c.046-.063.095-.123.14-.187.068-.074.135-.158.206-.233.042-.035.077-.077.112-.116a6.386 6.386 0 011.838-1.274c.106-.042.208-.088.31-.127a5.545 5.545 0 01.65-.219c.105-.032.218-.056.324-.085a10.523 10.523 0 01.674-.12c.116-.014.233-.028.352-.035a8.23 8.23 0 01.65-.032c.077 0 .144 0 .218.007.159 0 .307.007.459.011.11.014.208.014.314.025.183.02.377.042.546.07.16.025.314.05.452.074.219.05.42.096.603.149.113.024.219.056.318.088.144.046.275.085.373.116.166.06.265.092.265.092.148.053.296.117.44.17.198.084.382.162.558.243.148.07.286.141.42.198.11.056.212.113.303.158.17.089.31.166.427.23l.314.17v-3.004s-.194-.074-.511-.198a30.21 30.21 0 00-.508-.18l-.339-.123c-.095-.028-.19-.064-.293-.092-.116-.039-.229-.085-.349-.12-.095-.021-.18-.053-.279-.081l-.077-.025a4.78 4.78 0 01-.265-.07c-.116-.025-.229-.06-.335-.092a1.608 1.608 0 01-.219-.046c-.123-.028-.236-.057-.36-.078-.123-.024-.246-.053-.373-.07M1023.76 612.385v4.4h2.854s.06-.006.145-.006a5.068 5.068 0 001.52-.247c.356-.113.702-.297.97-.565.106-.106.19-.212.26-.321.22-.353.276-.71.29-.91.007-.096.007-.142.007-.142v-.11a1.837 1.837 0 00-.388-1.101c-.039-.038-.077-.08-.116-.12a2.679 2.679 0 00-.258-.225 2.724 2.724 0 00-.529-.293 3.593 3.593 0 00-.864-.254 3.643 3.643 0 00-.5-.07c-.114-.018-.216-.022-.332-.029a4.25 4.25 0 00-.304-.007h-2.755zM1023.76 605.689v4.171h1.595c.102-.004.208-.007.31-.018.282-.02.68-.06 1.069-.166.085-.024.162-.049.23-.077.31-.11.606-.265.842-.494.18-.18.3-.381.378-.579.098-.236.134-.462.151-.625.007-.148.007-.236.007-.236s0-.07-.003-.18a1.801 1.801 0 00-.187-.759 1.505 1.505 0 00-.296-.395 1.79 1.79 0 00-.544-.364c-.391-.173-.84-.24-1.21-.26a7.16 7.16 0 00-.44-.018h-1.902z"/><path d="M1014.632 600h23.784v22.396h-23.784V600zm6.236 3.137v16.136h6.07s2.963.074 4.597-1.557c1.326-1.33 1.234-2.873 1.234-2.873s.092-1.602-1.14-2.84c-1.05-1.045-2.387-1.331-2.387-1.331s.603-.275 1.072-.745c.215-.215.991-.917.991-2.615 0-1.711-1.139-2.696-1.139-2.696s-1.249-1.479-4.063-1.479h-5.235zM996.353 612.385v4.4h2.86s.053-.006.145-.006c.095-.004.236-.01.402-.021.31-.032.716-.089 1.111-.226a2.41 2.41 0 00.977-.565 1.932 1.932 0 00.543-1.232c.014-.095.014-.14.014-.14v-.11c-.014-.085-.02-.247-.063-.427a1.85 1.85 0 00-.44-.794c-.086-.078-.167-.155-.255-.226a2.98 2.98 0 00-.533-.293 3.691 3.691 0 00-.864-.254 3.696 3.696 0 00-.504-.07c-.106-.018-.219-.022-.328-.029-.099-.007-.201-.007-.303-.007h-2.762zM996.353 605.689v4.171h1.597c.096-.004.212-.007.31-.018.283-.02.685-.06 1.073-.166.078-.024.152-.049.233-.077.303-.11.603-.265.829-.494.183-.18.3-.381.388-.579.092-.236.13-.462.145-.625.014-.148.014-.236.014-.236v-.18c-.022-.18-.053-.477-.194-.759a1.741 1.741 0 00-.29-.395 1.93 1.93 0 00-.553-.364c-.392-.173-.833-.24-1.214-.26a6.848 6.848 0 00-.43-.018h-1.908z"/><path d="M987.225 600h23.784v22.396h-23.784V600zm6.24 3.137v16.136h6.07s2.96.074 4.589-1.557c1.33-1.33 1.238-2.873 1.238-2.873s.092-1.602-1.14-2.84c-1.05-1.045-2.387-1.331-2.387-1.331s.606-.275 1.068-.745c.22-.215.995-.917.995-2.615 0-1.711-1.14-2.696-1.14-2.696s-1.244-1.479-4.056-1.479h-5.238zM989.88 630.226h1.714c2.571 0 3.608 1.055 3.633 2.795.025 1.55-.787 3.014-3.633 3.014h-1.714v-5.81zm-2.656-2.283v18.513h2.656v-8.035h1.11c1.366 0 2.47.437 4.918 4.238l2.44 3.797h3.172c-1.274-1.757-1.736-2.385-2.526-3.663-1.407-2.304-2.44-4.016-4.123-5.124 1.982-.794 3.093-2.393 3.093-4.542 0-3.201-2.331-5.184-6.074-5.184h-4.666z"/><path d="M1010.214 631.911l2.988 6.702h-5.757l2.77-6.702zm.974-4.073h-1.87l-7.95 18.617h2.709l2.338-5.45h7.866l2.47 5.45h2.712l-8.275-18.617zM1024.332 630.334h4.088c5.189 0 7.548 3.148 7.548 6.868 0 2.28-1.382 6.868-7.403 6.868h-4.233v-13.736zm-2.66 16.121h7.214c6.109 0 9.82-4.503 9.82-9.253 0-4.37-3.013-9.26-9.845-9.26h-7.189v18.513zM1041.77 627.944h2.657v18.513h-2.656zM1050.235 637.203c0-4.076 3.068-7.054 7.188-7.054 4.155 0 7.22 2.978 7.22 7.054 0 4.045-3.065 7.059-7.22 7.059-4.12 0-7.188-3.014-7.188-7.059m-2.741 0c0 5.022 3.83 9.497 9.876 9.497 6.268 0 10.01-4.506 10.01-9.497 0-5.156-3.848-9.5-9.957-9.5-5.996 0-9.93 4.369-9.93 9.5"/><path d="M1108.96 642.137h-9.519V616.28h-4.069l5.618-10.42h7.97v36.277zm-4.973-45.145c-14.926 0-27.026 12.1-27.026 27.027 0 14.927 12.1 27.025 27.026 27.025 14.928 0 27.026-12.098 27.026-27.025 0-14.927-12.098-27.027-27.026-27.027" fill-rule="nonzero"/></g><path d="M702.584 265.36c4.096 0 8.213-.256 12.352-.768a82.504 82.504 0 0011.968-2.368c3.84-1.067 7.253-2.325 10.24-3.776v-47.744h-35.712v18.432h13.312v13.696a37.852 37.852 0 01-5.056.96c-1.75.213-3.477.32-5.184.32-8.021 0-14.101-2.24-18.24-6.72-4.139-4.48-6.208-11.072-6.208-19.776 0-8.363 2.368-14.805 7.104-19.328 4.736-4.523 11.499-6.784 20.288-6.784 5.376 0 10.304.576 14.784 1.728 4.48 1.152 8.64 2.795 12.48 4.928v-22.528c-8.96-3.755-19.115-5.632-30.464-5.632-7.51 0-14.336 1.13-20.48 3.392-6.144 2.261-11.435 5.483-15.872 9.664-4.437 4.181-7.83 9.195-10.176 15.04-2.347 5.845-3.52 12.352-3.52 19.52 0 7.424 1.11 14.08 3.328 19.968 2.219 5.888 5.419 10.901 9.6 15.04 4.181 4.139 9.259 7.296 15.232 9.472 5.973 2.176 12.715 3.264 20.224 3.264zm73.856-1.92v-30.848h12.544a413.684 413.684 0 018.64 15.296 1791.323 1791.323 0 018.256 15.552h27.52a624.994 624.994 0 00-10.688-18.304 952.035 952.035 0 00-11.072-17.792c4.779-2.56 8.47-5.973 11.072-10.24 2.603-4.267 3.904-9.216 3.904-14.848 0-9.813-3.37-17.323-10.112-22.528-6.741-5.205-16.47-7.808-29.184-7.808h-35.072v91.52h24.192zm9.728-50.048h-9.728V191.12h9.728c5.205 0 9.045.917 11.52 2.752 2.475 1.835 3.712 4.63 3.712 8.384 0 3.67-1.237 6.443-3.712 8.32-2.475 1.877-6.315 2.816-11.52 2.816zm125.056 50.048v-19.968h-43.648v-16.64h36.096v-19.968h-36.096v-14.976h41.216V171.92h-65.536v91.52h67.968zm57.088 1.92c4.096 0 8.213-.256 12.352-.768a82.504 82.504 0 0011.968-2.368c3.84-1.067 7.253-2.325 10.24-3.776v-47.744H967.16v18.432h13.312v13.696a37.852 37.852 0 01-5.056.96c-1.75.213-3.477.32-5.184.32-8.021 0-14.101-2.24-18.24-6.72-4.139-4.48-6.208-11.072-6.208-19.776 0-8.363 2.368-14.805 7.104-19.328 4.736-4.523 11.499-6.784 20.288-6.784 5.376 0 10.304.576 14.784 1.728 4.48 1.152 8.64 2.795 12.48 4.928v-22.528c-8.96-3.755-19.115-5.632-30.464-5.632-7.51 0-14.336 1.13-20.48 3.392-6.144 2.261-11.435 5.483-15.872 9.664-4.437 4.181-7.83 9.195-10.176 15.04-2.347 5.845-3.52 12.352-3.52 19.52 0 7.424 1.11 14.08 3.328 19.968 2.219 5.888 5.419 10.901 9.6 15.04 4.181 4.139 9.259 7.296 15.232 9.472 5.973 2.176 12.715 3.264 20.224 3.264zm-296.576 120c11.435 0 20.224-3.115 26.368-9.344 6.144-6.23 9.216-15.147 9.216-26.752V291.92h-24.96v56.704c0 10.155-5.035 15.232-15.104 15.232-3.157 0-6.101-.363-8.832-1.088-2.73-.725-5.205-1.77-7.424-3.136v21.248c2.645 1.365 5.76 2.453 9.344 3.264 3.584.81 7.381 1.216 11.392 1.216zm71.04-1.92a3386.64 3386.64 0 005.248-17.152h33.408a937.663 937.663 0 002.624 8.512c.896 2.859 1.77 5.739 2.624 8.64h27.008a2482.753 2482.753 0 00-16.896-45.824 2301.65 2301.65 0 00-17.92-45.696h-27.52a1617.337 1617.337 0 00-17.664 44.544 1967.326 1967.326 0 00-17.152 46.976h26.24zm32.512-36.608h-21.12a979.347 979.347 0 015.248-15.808 6764.75 6764.75 0 005.376-15.808 1688.691 1688.691 0 015.312 15.68 1167.64 1167.64 0 015.184 15.936zm71.296 36.608v-55.552c2.816 6.485 5.696 12.97 8.64 19.456 2.944 6.485 5.91 12.97 8.896 19.456h19.2a2698.687 2698.687 0 008.64-19.52c2.859-6.528 5.696-13.12 8.512-19.776v55.936h23.296v-91.52h-29.696a1596.555 1596.555 0 01-9.856 25.536 1510.523 1510.523 0 01-10.112 24.896 1340.92 1340.92 0 01-10.56-25.088 2093.108 2093.108 0 01-10.176-25.344h-30.08v91.52h23.296zm162.048 0v-19.968h-43.648v-16.64h36.096v-19.968h-36.096v-14.976h41.216V291.92h-65.536v91.52h67.968zm39.68 1.92c8.363 0 15.467-1.152 21.312-3.456 5.845-2.304 10.325-5.675 13.44-10.112s4.672-9.813 4.672-16.128c0-4.779-.768-8.768-2.304-11.968-1.536-3.2-3.712-5.845-6.528-7.936-2.816-2.09-6.144-3.861-9.984-5.312-3.84-1.45-8.107-2.73-12.8-3.84-4.523-1.11-8-2.283-10.432-3.52-2.432-1.237-3.648-3.093-3.648-5.568 0-2.39 1.173-4.203 3.52-5.44s5.653-1.856 9.92-1.856c2.987 0 6.08.277 9.28.832a63.81 63.81 0 019.536 2.432 45.051 45.051 0 018.96 4.16v-21.376c-3.925-1.963-8.32-3.499-13.184-4.608a66.563 66.563 0 00-14.848-1.664c-7.765 0-14.507 1.173-20.224 3.52-5.717 2.347-10.112 5.696-13.184 10.048-3.072 4.352-4.608 9.6-4.608 15.744 0 4.01.597 7.51 1.792 10.496 1.195 2.987 3.072 5.61 5.632 7.872 2.56 2.261 5.888 4.245 9.984 5.952 4.096 1.707 9.045 3.243 14.848 4.608 2.645.597 4.95 1.28 6.912 2.048 1.963.768 3.499 1.685 4.608 2.752 1.11 1.067 1.664 2.496 1.664 4.288 0 2.475-1.237 4.395-3.712 5.76-2.475 1.365-6.144 2.048-11.008 2.048-4.95 0-9.92-.704-14.912-2.112-4.992-1.408-9.877-3.477-14.656-6.208v21.632c4.95 2.39 9.877 4.139 14.784 5.248 4.907 1.11 9.963 1.664 15.168 1.664z" fill="#FFF" fill-rule="nonzero"/></g></svg>