<?xml version="1.0" encoding="UTF-8"?>
<svg width="1200px" height="675px" viewBox="0 0 1200 675" version="1.1" xmlns="http://www.w3.org/2000/svg" xmlns:xlink="http://www.w3.org/1999/xlink">
    <!-- Generator: Sketch 61.2 (89653) - https://sketch.com -->
    <title>Group</title>
    <desc>Created with Sketch.</desc>
    <g id="Assets" stroke="none" stroke-width="1" fill="none" fill-rule="evenodd">
        <g id="Greg">
            <g id="Group">
                <rect id="Rectangle" fill="#2967F7" x="819" y="597" width="105" height="54"></rect>
                <path d="M850.844,637 L850.844,630.952 L839.396,630.952 L839.396,611.26 L832.376,611.26 L832.376,637 L850.844,637 Z M860.744,637 L860.744,611.26 L853.724,611.26 L853.724,637 L860.744,637 Z M880.616,637 C882.272,632.704 883.904,628.408 885.512,624.112 C887.12,619.816 888.68,615.532 890.192,611.26 L890.192,611.26 L882.74,611.26 C881.804,614.38 880.85,617.488 879.878,620.584 C878.906,623.68 877.916,626.776 876.908,629.872 C875.924,626.776 874.946,623.68 873.974,620.584 C873.002,617.488 872.048,614.38 871.112,611.26 L871.112,611.26 L863.444,611.26 C864.956,615.532 866.516,619.816 868.124,624.112 C869.732,628.408 871.364,632.704 873.02,637 L873.02,637 L880.616,637 Z M912.008,637 L912.008,631.384 L899.732,631.384 L899.732,626.704 L909.884,626.704 L909.884,621.088 L899.732,621.088 L899.732,616.876 L911.324,616.876 L911.324,611.26 L892.892,611.26 L892.892,637 L912.008,637 Z" id="LIVE" fill="#FFFFFF" fill-rule="nonzero"></path>
                <path d="M945.528,633.36 C946.76,633.36 947.872,633.148 948.864,632.724 C949.856,632.3 950.704,631.696 951.408,630.912 C952.112,630.128 952.656,629.184 953.04,628.08 C953.424,626.976 953.616,625.752 953.616,624.408 C953.616,623.048 953.428,621.82 953.052,620.724 C952.676,619.628 952.132,618.688 951.42,617.904 C950.708,617.12 949.856,616.52 948.864,616.104 C947.872,615.688 946.76,615.48 945.528,615.48 C944.296,615.48 943.184,615.688 942.192,616.104 C941.2,616.52 940.348,617.12 939.636,617.904 C938.924,618.688 938.38,619.628 938.004,620.724 C937.628,621.82 937.44,623.048 937.44,624.408 C937.44,625.752 937.632,626.976 938.016,628.08 C938.4,629.184 938.944,630.128 939.648,630.912 C940.352,631.696 941.204,632.3 942.204,632.724 C943.204,633.148 944.312,633.36 945.528,633.36 Z M945.528,632.04 C944.52,632.04 943.616,631.864 942.816,631.512 C942.016,631.16 941.332,630.652 940.764,629.988 C940.196,629.324 939.76,628.52 939.456,627.576 C939.152,626.632 939,625.576 939,624.408 C939,623.24 939.152,622.188 939.456,621.252 C939.76,620.316 940.196,619.516 940.764,618.852 C941.332,618.188 942.02,617.68 942.828,617.328 C943.636,616.976 944.536,616.8 945.528,616.8 C946.52,616.8 947.42,616.976 948.228,617.328 C949.036,617.68 949.724,618.188 950.292,618.852 C950.86,619.516 951.296,620.316 951.6,621.252 C951.904,622.188 952.056,623.24 952.056,624.408 C952.056,625.576 951.904,626.632 951.6,627.576 C951.296,628.52 950.86,629.324 950.292,629.988 C949.724,630.652 949.04,631.16 948.24,631.512 C947.44,631.864 946.536,632.04 945.528,632.04 Z M958.896,633 L958.896,618.048 C960.032,619.6 961.192,621.208 962.376,622.872 C963.56,624.536 964.744,626.22 965.928,627.924 C967.112,629.628 968.272,631.32 969.408,633 L969.408,633 L970.896,633 L970.896,615.84 L969.456,615.84 L969.456,630.696 C967.728,628.152 965.988,625.644 964.236,623.172 C962.484,620.7 960.72,618.256 958.944,615.84 L958.944,615.84 L957.456,615.84 L957.456,633 L958.896,633 Z" id="ON" fill="#FFFFFF" fill-rule="nonzero"></path>
                <g id="R1-Logo" transform="translate(987.000000, 596.000000)" fill="#FFFFFF">
                    <g id="g3324" transform="translate(72.500000, 28.000000) scale(-1, 1) rotate(-180.000000) translate(-72.500000, -28.000000) translate(0.000000, 0.000000)">
                        <path d="M55.0353109,52.000061 L78.8198622,52.000061 L78.8198622,29.6041909 L55.0353109,29.6041909 L55.0353109,52.000061 Z M70.0227881,48.8803085 C69.9204965,48.9014833 69.8076231,48.9155999 69.7018042,48.9367747 L69.5748216,48.9544203 C69.3914022,48.9791242 69.2115102,49.000299 69.0210362,49.0144155 C68.8940536,49.0320612 68.767071,49.0391195 68.6436157,49.0426486 C68.4143415,49.0602943 68.1956492,49.0673525 67.9840115,49.0673525 C67.8852472,49.0673525 67.8252832,49.0638234 67.7300462,49.0638234 C67.5466269,49.0602943 67.3737894,49.0497069 67.2009519,49.0391195 C67.105715,49.0320612 67.0069507,49.0250029 66.9117137,49.0144155 C66.7706219,49.0038282 66.6330574,48.9932408 66.4919656,48.9685368 L66.3755649,48.9579494 L66.245055,48.9367747 L66.089854,48.9085416 C66.0228354,48.9014833 65.9558167,48.8873668 65.8887981,48.8732503 C65.7900339,48.8626629 65.6983242,48.837959 65.6101418,48.8203133 C65.0457746,48.7003228 64.5237349,48.545041 64.0440228,48.357997 C63.7935848,48.2591814 63.5537287,48.1533074 63.3315092,48.0439043 C63.1375079,47.9486178 62.9611432,47.8498021 62.7812511,47.7509864 C62.6119409,47.6521707 62.4532127,47.553355 62.2944844,47.4510102 C62.206302,47.3874858 62.1145923,47.3345488 62.0264099,47.2674953 C61.9523367,47.2110292 61.8817908,47.1616214 61.8077176,47.1086844 C61.6595712,46.9922231 61.5114249,46.8687034 61.3738603,46.7522421 C61.250405,46.6357807 61.1269497,46.5228485 61.0105489,46.4099163 C60.9117847,46.3146298 60.8059658,46.2122849 60.7213107,46.0993527 C60.6190192,45.9934788 60.5237822,45.8876048 60.4320725,45.7711435 C60.329781,45.651153 60.2451259,45.5311625 60.1498889,45.4005846 C60.0722884,45.3052981 60.0123244,45.2064824 59.9453058,45.1076667 C59.8959237,45.0370841 59.8571234,44.9735597 59.8218505,44.8994479 C59.5678852,44.500656 59.3527202,44.0665728 59.1693009,43.6042566 C58.9506086,43.0219498 58.788353,42.3972935 58.7001706,41.7444041 C58.6790068,41.5326562 58.6578431,41.3209083 58.6402066,41.1021022 C58.6296247,40.936233 58.6260974,40.7668346 58.6260974,40.6009655 C58.6260974,40.4703876 58.6260974,40.346868 58.6296247,40.2198192 C58.6402066,40.0927705 58.6578431,39.9657217 58.668425,39.838673 L58.6790068,39.7469156 C58.6966433,39.5916338 58.7213344,39.4434102 58.7495527,39.2987158 C58.7636619,39.2387206 58.7742438,39.1857836 58.7848257,39.1257884 C58.8095168,39.0057979 58.8412624,38.8858074 58.8659535,38.7622878 C58.908281,38.6105351 58.9541359,38.4623116 59.0070453,38.3105589 C59.0670093,38.1270441 59.1340279,37.9505875 59.2010465,37.77766 C59.3209746,37.5059169 59.4479572,37.2447612 59.5784671,36.9941928 C59.6595949,36.8494984 59.7407227,36.7083331 59.8253778,36.5671679 C59.8959237,36.464823 59.9629423,36.3589491 60.0299609,36.2566043 C60.1216706,36.1189681 60.2204348,35.9919194 60.3156718,35.8683998 C60.4144361,35.7378219 60.5237822,35.6213605 60.6296011,35.5013701 C60.7495291,35.3566757 60.8765117,35.2225687 60.9999671,35.099049 L61.0634584,35.0355247 C61.1728045,34.936709 61.2786234,34.8273059 61.4091333,34.7143737 C61.4937884,34.6473202 61.585498,34.5661502 61.6842623,34.4920384 C61.7724447,34.4214558 61.871209,34.3438149 61.9664459,34.2732322 C62.0934286,34.1850039 62.2098293,34.1003048 62.3438665,34.0120765 C62.4955402,33.9309064 62.6436866,33.8320908 62.7988876,33.7438625 C63.1128169,33.5674059 63.4584918,33.3980075 63.8429669,33.2427257 C63.9805315,33.1862596 64.1322052,33.1333227 64.2838788,33.0839148 C64.4355525,33.0274487 64.5907535,32.98157 64.7494818,32.9356913 C65.0281381,32.8615795 65.3173763,32.7874678 65.6136691,32.7274725 C65.8570525,32.6780647 66.1180723,32.6427733 66.3755649,32.6145403 C66.6365847,32.579249 66.9046591,32.5545451 67.1762609,32.5404285 C67.3173527,32.5298411 67.4584445,32.5298411 67.5924817,32.5227829 L67.7900102,32.5227829 C68.2908861,32.5227829 68.7494345,32.5439577 69.1797645,32.579249 L69.2644196,32.5863072 C69.4372571,32.6004238 69.5959853,32.6180694 69.7582409,32.6427733 C70.0086789,32.6674773 70.2344258,32.7027686 70.4566454,32.7451182 C70.5977372,32.766293 70.7317744,32.7980551 70.8658116,32.8227591 C71.073922,32.8721669 71.2679233,32.9180456 71.4513426,32.9674535 C71.5889071,32.9992157 71.7229443,33.0380361 71.8534542,33.0803857 C72.0051279,33.1227353 72.1462197,33.1756722 72.2908388,33.2250801 L72.4248761,33.2674297 C72.4918947,33.2921336 72.5871316,33.3274249 72.6894232,33.3662454 C72.8340423,33.4227115 73.0068798,33.4932941 73.2044083,33.5779933 C73.3243363,33.6274011 73.451319,33.6838672 73.5853562,33.7438625 C73.691175,33.8003286 73.8181577,33.8603238 73.9486676,33.9167899 C73.9909951,33.9414938 74.0474318,33.9697269 74.1038686,33.9909017 L74.1038686,37.0506589 C74.0650683,37.025955 74.0227408,36.9977219 73.9909951,36.9800763 L73.7828847,36.8565567 C73.571247,36.7295079 73.3701912,36.6095174 73.1726626,36.4965852 C72.9539703,36.3801239 72.7282234,36.2707208 72.5130584,36.1613177 C72.1391652,35.9848611 71.7723265,35.8366376 71.4266515,35.713118 C70.7599928,35.473137 70.1497707,35.3249135 69.6136218,35.2260978 C69.5466032,35.2155104 69.4831119,35.2013939 69.4231479,35.1943356 C69.2714742,35.1731608 69.1303824,35.151986 68.9892906,35.1378695 C68.7811802,35.1166947 68.5801243,35.1061073 68.4108142,35.0955199 C68.2908861,35.0919908 68.1885946,35.0849325 68.0827757,35.0849325 C67.8676107,35.0849325 67.6453911,35.0919908 67.4125896,35.1096364 C67.1480425,35.1308112 66.8834954,35.1625734 66.6048391,35.2013939 C66.1639272,35.2790348 65.719488,35.391967 65.2926853,35.5472488 C65.2221394,35.5684236 65.1621753,35.5966566 65.098684,35.6248897 C65.0563565,35.6354771 65.0140289,35.6531227 64.9681741,35.6742975 C64.9011555,35.7060597 64.8341369,35.7342928 64.7600637,35.766055 C64.60839,35.8366376 64.4602436,35.9107494 64.3156245,35.9954485 C64.2486059,36.0377981 64.17806,36.0836768 64.1039868,36.1224973 C64.0334409,36.1719051 63.9593677,36.2177838 63.8852945,36.2742499 C63.8041667,36.3271869 63.7089297,36.3942404 63.6278019,36.4577648 C63.5431469,36.5283474 63.4584918,36.59893 63.3808913,36.6553962 L63.2856543,36.7471536 L63.2327449,36.7930323 L63.2045265,36.8212653 L63.1657263,36.8565567 C63.0281618,36.9941928 62.9047064,37.1318289 62.7847784,37.2729942 C62.7283417,37.347106 62.6648504,37.428276 62.6013591,37.5023878 C62.5484496,37.5800287 62.4990675,37.6541404 62.4532127,37.7317813 C62.4038305,37.802364 62.3579757,37.8729466 62.3191754,37.9470584 C62.2556841,38.0529323 62.1957201,38.1588063 62.1392834,38.2682094 C62.1004831,38.3564377 62.0581556,38.4517242 62.0228826,38.5399525 C61.9523367,38.6917052 61.8994273,38.846987 61.8535725,38.9987396 C61.8147722,39.1081427 61.7830266,39.2281332 61.7512809,39.3375363 C61.6772077,39.651629 61.6348802,39.9445469 61.6101891,40.1951153 C61.5960799,40.2904019 61.5960799,40.3786302 61.5890253,40.4633293 C61.585498,40.5797907 61.585498,40.6856646 61.585498,40.7703638 L61.585498,40.964466 C61.5890253,41.1373935 61.6101891,41.3597288 61.6419348,41.6102971 C61.6630985,41.7655789 61.6948442,41.927919 61.7371717,42.1008464 C61.7653901,42.2173078 61.7936085,42.33024 61.8324087,42.4502305 C61.871209,42.5596336 61.9064819,42.6655075 61.9523367,42.785498 C61.9735005,42.8596098 62.0052462,42.9337215 62.0440464,43.0078333 C62.0899013,43.1101781 62.1392834,43.2160521 62.1921928,43.3148678 C62.2309931,43.3995669 62.2768479,43.480737 62.3227027,43.5548487 C62.421467,43.7277762 62.5378677,43.9007036 62.6648504,44.0736311 C62.7107052,44.1371555 62.7600873,44.1971507 62.8059422,44.2606751 C62.8729608,44.3347868 62.9399794,44.419486 63.0105253,44.4935978 C63.0528528,44.5288891 63.0881258,44.5712387 63.1233987,44.6100591 C63.6842387,45.1676619 64.3156245,45.5876286 64.9611195,45.8840757 C65.0669384,45.9264253 65.1692299,45.972304 65.2715215,46.0111244 C65.3773403,46.053474 65.4761046,46.0922945 65.5819235,46.1275858 C65.6912696,46.1664062 65.8041431,46.1981684 65.9205438,46.2299306 C66.0263627,46.2616928 66.1392361,46.2863967 66.245055,46.3146298 C66.3508738,46.3393337 66.4637473,46.3605085 66.5660388,46.3781541 C66.6824396,46.3993289 66.7988403,46.4169746 66.9187683,46.4346202 C67.0351691,46.4487368 67.1515698,46.4628533 67.2714978,46.4699116 C67.4937174,46.4875572 67.7088824,46.5016737 67.9205202,46.5016737 C67.9981206,46.5016737 68.0651393,46.5016737 68.1392124,46.4946155 C68.2979407,46.4946155 68.4460871,46.4875572 68.5977608,46.4840281 C68.707107,46.4699116 68.8058712,46.4699116 68.9116901,46.4593242 C69.0951094,46.4381494 69.2891107,46.4169746 69.4584208,46.3887415 C69.6171491,46.3640376 69.7723501,46.3393337 69.9099146,46.3146298 C70.1286069,46.2652219 70.3296627,46.2193432 70.5130821,46.1664062 C70.6259555,46.1417023 70.7317744,46.1099401 70.8305387,46.0781779 C70.9751578,46.0322992 71.1056677,45.9934788 71.2044319,45.9617166 C71.3702148,45.9017213 71.4689791,45.8699592 71.4689791,45.8699592 C71.6171255,45.8170222 71.7652719,45.7534978 71.909891,45.7005608 C72.1074195,45.6158617 72.2908388,45.5382208 72.4672036,45.4570507 C72.61535,45.3864681 72.7529145,45.3158855 72.8869517,45.2594194 C72.9962979,45.2029533 73.0985894,45.1464871 73.1902991,45.1006084 C73.3596093,45.0123801 73.5007011,44.9347392 73.6171018,44.8712149 L73.9310311,44.7018165 L73.9310311,47.7051077 C73.9310311,47.7051077 73.7370299,47.7792194 73.4195733,47.902739 C73.2749542,47.955676 73.105644,48.0156713 72.9116428,48.0827248 C72.8058239,48.1215452 72.6929505,48.1638948 72.5730225,48.2062444 C72.4777855,48.2344774 72.3825485,48.2697687 72.280257,48.2980018 C72.1638562,48.3368223 72.0509828,48.382701 71.9310547,48.4179923 C71.8358178,48.4391671 71.7511627,48.4709293 71.6523984,48.4991623 L71.5747979,48.5238662 C71.4866156,48.545041 71.3913786,48.5697449 71.3102508,48.5944489 C71.1938501,48.6191528 71.0809766,48.6544441 70.9751578,48.6862063 C70.9046119,48.6967937 70.8270114,48.7109102 70.7564655,48.732085 C70.6330101,48.7603181 70.5201367,48.7885511 70.3966814,48.8097259 C70.273226,48.8344298 70.1497707,48.8626629 70.0227881,48.8803085" id="path3326"></path>
                        <g id="g3328" transform="translate(36.760374, 35.146100)">
                            <path d="M0,4.46886145 L0,0.0680341555 L2.85358178,0.0680341555 C2.85358178,0.0680341555 2.9135458,0.075092419 2.99820088,0.075092419 C3.09696515,0.0786215507 3.23452966,0.0856798142 3.40383983,0.0962672095 C3.70718721,0.128029395 4.11988074,0.184495503 4.5184651,0.322131642 C4.87472191,0.435063858 5.22039683,0.618578709 5.48847126,0.886792722 C5.59429012,0.992666675 5.6789452,1.09854063 5.74949111,1.20794371 C5.9681834,1.56085689 6.02462013,1.91729919 6.03872931,2.1184597 C6.0457839,2.21374626 6.0457839,2.25962497 6.0457839,2.25962497 C6.0457839,2.25962497 6.0457839,2.30197455 6.0457839,2.36902806 C6.0457839,2.45372722 6.03167472,2.61606728 5.98934718,2.796053 C5.93291045,3.00427177 5.83767348,3.24425273 5.65778143,3.47011716 C5.61898118,3.50893761 5.58018094,3.5512872 5.54138069,3.59010764 C5.4637802,3.66774854 5.37559782,3.74538944 5.28388814,3.81597208 C5.12515986,3.92890429 4.9487951,4.02771998 4.75479387,4.10889001 C4.49730132,4.22535136 4.21159042,4.30652139 3.89060656,4.3629875 C3.73893287,4.39474968 3.55904081,4.42298274 3.38973065,4.43357013 C3.2768572,4.45121579 3.17456564,4.45474492 3.0581649,4.46180319 C2.95940064,4.46886145 2.86063637,4.46886145 2.75481752,4.46886145 L0,4.46886145 Z" id="path3330"></path>
                        </g>
                        <g id="g3332" transform="translate(36.760374, 42.110125)">
                            <path d="M-6.08321743e-14,4.20132896 L-6.08321743e-14,0.0298952296 L1.37917241,0.0298952296 C1.37917241,0.0298952296 1.47088208,0.0298952296 1.59433741,0.0298952296 C1.69662897,0.0334243614 1.80244783,0.0369534931 1.90473938,0.0475408884 C2.186923,0.0687156789 2.58550735,0.107536128 2.97350982,0.213410081 C3.0581649,0.238114003 3.13576539,0.262817925 3.202784,0.291050979 C3.51318598,0.400454064 3.80947877,0.555735861 4.04580754,0.785129425 C4.2256996,0.965115144 4.34562763,1.16627565 4.42322813,1.36390703 C4.52199239,1.60035886 4.55726534,1.82622329 4.57490182,1.98856335 C4.58195641,2.13678689 4.58195641,2.22501518 4.58195641,2.22501518 C4.58195641,2.22501518 4.58195641,2.29559781 4.57842911,2.4050009 C4.57490182,2.58498662 4.53610157,2.88143369 4.39148247,3.16376423 C4.32093657,3.30140036 4.2256996,3.43197824 4.09518968,3.55902698 C3.93998869,3.71077965 3.75656934,3.83429926 3.55198622,3.92252755 C3.16045646,4.09545501 2.71248998,4.16250851 2.34212398,4.1836833 C2.17634111,4.1942707 2.02819472,4.20132896 1.90121209,4.20132896 L-6.08321743e-14,4.20132896 Z" id="path3334"></path>
                        </g>
                        <path d="M27.6317549,52.000061 L51.4163061,52.000061 L51.4163061,29.6041909 L27.6317549,29.6041909 L27.6317549,52.000061 Z M33.8680127,48.8626629 L33.8680127,32.7274725 L39.9384877,32.7274725 C39.9384877,32.7274725 42.9014156,32.6533607 44.5345533,34.2838196 C45.8608162,35.6143023 45.7691066,37.1565329 45.7691066,37.1565329 C45.7691066,37.1565329 45.8608162,38.7587587 44.6297902,39.9974839 C43.5786563,41.0421069 42.2418114,41.3279666 42.2418114,41.3279666 C42.2418114,41.3279666 42.8449789,41.6032389 43.3141091,42.0726134 C43.5292741,42.2878904 44.3052791,42.9901876 44.3052791,44.6877 C44.3052791,46.3993289 43.1659627,47.3839567 43.1659627,47.3839567 C43.1659627,47.3839567 41.9173003,48.8626629 39.1025187,48.8626629 L33.8680127,48.8626629 Z" id="path3336"></path>
                        <g id="g3338" transform="translate(9.352631, 35.146100)">
                            <path d="M0,4.46886145 L0,0.0680341555 L2.86063637,0.0680341555 C2.86063637,0.0680341555 2.9135458,0.075092419 3.00525547,0.075092419 C3.10049244,0.0786215507 3.24158425,0.0856798142 3.40736712,0.0962672095 C3.7177691,0.128029395 4.12340804,0.184495503 4.5184651,0.322131642 C4.8782492,0.435063858 5.22392413,0.618578709 5.49552585,0.886792722 C5.59781741,0.992666675 5.6789452,1.09854063 5.74949111,1.20794371 C5.9717107,1.56085689 6.02814742,1.91729919 6.03872931,2.1184597 C6.05283849,2.21374626 6.05283849,2.25962497 6.05283849,2.25962497 L6.05283849,2.36902806 C6.03872931,2.45372722 6.03167472,2.61606728 5.98934718,2.796053 C5.93291045,3.00427177 5.83414619,3.24425273 5.65425414,3.47011716 C5.62603577,3.50893761 5.58723553,3.5512872 5.54843528,3.59010764 C5.4637802,3.66774854 5.38265241,3.74538944 5.29447003,3.81597208 C5.13221445,3.92890429 4.9523224,4.02771998 4.76184846,4.10889001 C4.50082862,4.22535136 4.21511771,4.30652139 3.89766115,4.3629875 C3.74246016,4.39474968 3.5660954,4.42298274 3.39325794,4.43357013 C3.28743909,4.45121579 3.17456564,4.45474492 3.06521949,4.46180319 C2.96645523,4.46886145 2.86416367,4.46886145 2.76187211,4.46886145 L0,4.46886145 Z" id="path3340"></path>
                        </g>
                        <g id="g3342" transform="translate(9.352631, 42.110125)">
                            <path d="M0,4.20132896 L0,0.0298952296 L1.386227,0.0298952296 C1.386227,0.0298952296 1.47793667,0.0298952296 1.59786471,0.0298952296 C1.69310168,0.0334243614 1.80950242,0.0369534931 1.90826668,0.0475408884 C2.19045029,0.0687156789 2.59256194,0.107536128 2.98056441,0.213410081 C3.0581649,0.238114003 3.1322381,0.262817925 3.21336589,0.291050979 C3.51671327,0.400454064 3.81653336,0.555735861 4.04228025,0.785129425 C4.2256996,0.965115144 4.34210034,1.16627565 4.43028272,1.36390703 C4.52199239,1.60035886 4.56079264,1.82622329 4.57490182,1.98856335 C4.589011,2.13678689 4.589011,2.22501518 4.589011,2.22501518 L4.589011,2.4050009 C4.56784723,2.58498662 4.53610157,2.88143369 4.39500977,3.16376423 C4.32446386,3.30140036 4.2256996,3.43197824 4.10577156,3.55902698 C3.94351599,3.71077965 3.75656934,3.83429926 3.55198622,3.92252755 C3.16045646,4.09545501 2.71954457,4.16250851 2.33859669,4.1836833 C2.17986841,4.1942707 2.02819472,4.20132896 1.90826668,4.20132896 L0,4.20132896 Z" id="path3344"></path>
                        </g>
                        <path d="M0.224671505,52.000061 L24.0092227,52.000061 L24.0092227,29.6041909 L0.224671505,29.6041909 L0.224671505,52.000061 Z M6.46445664,48.8626629 L6.46445664,32.7274725 L12.5349316,32.7274725 C12.5349316,32.7274725 15.4943322,32.6533607 17.1239426,34.2838196 C18.4537329,35.6143023 18.3620232,37.1565329 18.3620232,37.1565329 C18.3620232,37.1565329 18.4537329,38.7587587 17.2227069,39.9974839 C16.1715729,41.0421069 14.834728,41.3279666 14.834728,41.3279666 C14.834728,41.3279666 15.4414228,41.6032389 15.9034985,42.0726134 C16.1221908,42.2878904 16.8981957,42.9901876 16.8981957,44.6877 C16.8981957,46.3993289 15.7588794,47.3839567 15.7588794,47.3839567 C15.7588794,47.3839567 14.5137442,48.8626629 11.7024899,48.8626629 L6.46445664,48.8626629 Z" id="path3346"></path>
                        <g id="g3348" transform="translate(0.216050, 5.423184)">
                            <path d="M2.66359155,16.3509577 L4.377857,16.3509577 C6.94925516,16.3509577 7.98627994,15.2957473 8.01097101,13.5558854 C8.03566207,12.0065965 7.22438419,10.5420069 4.377857,10.5420069 L2.66359155,10.5420069 L2.66359155,16.3509577 Z M0.00753829607,18.634306 L0.00753829607,0.120480806 L2.66359155,0.120480806 L2.66359155,8.15631381 L3.77468952,8.15631381 C5.13975275,8.15631381 6.24379613,7.71870147 8.69173897,3.91782657 L11.1326272,0.120480806 L14.3036656,0.120480806 C13.030312,1.87798842 12.5682363,2.50617387 11.7781222,3.78371956 C10.3707315,6.0882426 9.33723399,7.7998715 7.6547142,8.90801887 C9.63705407,9.70207351 10.748152,11.3007702 10.748152,13.4500114 C10.748152,16.6509339 8.41660995,18.634306 4.67414979,18.634306 L0.00753829607,18.634306 Z" id="path3350"></path>
                        </g>
                        <g id="g3352" transform="translate(14.359696, 5.464256)">
                            <path d="M8.85447825,14.6246897 L11.8420973,7.9228685 L6.08555156,7.9228685 L8.85447825,14.6246897 Z M9.82801172,18.6973077 L7.95854528,18.6973077 L0.00802200183,0.0811377473 L2.71698468,0.0811377473 L5.05558137,5.53011717 L12.9214496,5.53011717 L15.3905562,0.0811377473 L18.1030462,0.0811377473 L9.82801172,18.6973077 Z" id="path3354"></path>
                        </g>
                        <g id="g3356" transform="translate(34.668214, 5.314840)">
                            <path d="M2.66359155,16.3509577 L6.75172664,16.3509577 C11.9403778,16.3509577 14.3001383,13.2029722 14.3001383,9.48326734 C14.3001383,7.20344823 12.9174386,2.61557695 6.89634574,2.61557695 L2.66359155,2.61557695 L2.66359155,16.3509577 Z M0.00401100091,0.22988389 L7.2173296,0.22988389 C13.3266048,0.22988389 17.0373193,4.73305601 17.0373193,9.48326734 C17.0373193,13.8523325 14.0250092,18.7437091 7.19263853,18.7437091 L0.00401100091,18.7437091 L0.00401100091,0.22988389 Z" id="path3358"></path>
                        </g>
                        <polygon id="path3360" points="54.7707638 24.0563958 57.4268171 24.0563958 57.4268171 5.54257062 54.7707638 5.54257062"></polygon>
                        <g id="g3362" transform="translate(60.406618, 5.072399)">
                            <path d="M2.82790062,9.72426124 C2.82790062,13.8004084 5.89664741,16.7789956 10.0165281,16.7789956 C14.1716818,16.7789956 17.2369013,13.8004084 17.2369013,9.72426124 C17.2369013,5.67987625 14.1716818,2.66599773 10.0165281,2.66599773 C5.89664741,2.66599773 2.82790062,5.67987625 2.82790062,9.72426124 M0.0871922841,9.72426124 C0.0871922841,4.70230676 3.91783482,0.227367693 9.96361872,0.227367693 C16.2316222,0.227367693 19.9740824,4.73406894 19.9740824,9.72426124 C19.9740824,14.8803227 16.1258034,19.2246839 10.0165281,19.2246839 C4.02012638,19.2246839 0.0871922841,14.8556188 0.0871922841,9.72426124" id="path3364"></path>
                        </g>
                        <g id="g3366" transform="translate(89.254728, 0.153221)" fill-rule="nonzero">
                            <path d="M32.7046805,9.71005197 L23.1864139,9.71005197 L23.1864139,35.5668812 L19.1173753,35.5668812 L24.7356724,45.9866277 L32.7046805,45.9866277 L32.7046805,9.71005197 Z M27.7317723,54.8547045 C12.8065451,54.8547045 0.706723084,42.7549302 0.706723084,27.82803 C0.706723084,12.9011298 12.8065451,0.802980341 27.7317723,0.802980341 C42.6602509,0.802980341 54.7584472,12.9011298 54.7584472,27.82803 C54.7584472,42.7549302 42.6602509,54.8547045 27.7317723,54.8547045" id="path3368"></path>
                        </g>
                    </g>
                </g>
            </g>
        </g>
    </g>
</svg>