<?xml version="1.0" encoding="UTF-8"?>
<svg width="1200px" height="677px" viewBox="0 0 1200 677" version="1.1" xmlns="http://www.w3.org/2000/svg" xmlns:xlink="http://www.w3.org/1999/xlink">
    <!-- Generator: Sketch 61.2 (89653) - https://sketch.com -->
    <title>greg-text-01 copy 4</title>
    <desc>Created with Sketch.</desc>
    <g id="Assets" stroke="none" stroke-width="1" fill="none" fill-rule="evenodd">
        <g id="Greg" fill="#FFFFFF" fill-rule="nonzero">
            <g id="greg-text-00C">
                <path d="M811.24,296.84 C813.666667,296.84 815.934667,296.597333 818.044,296.112 C820.153333,295.626667 822.048,294.954667 823.728,294.096 L823.728,294.096 L823.728,284.408 C821.973333,285.453333 820.228,286.218667 818.492,286.704 C816.756,287.189333 814.917333,287.432 812.976,287.432 C809.354667,287.432 806.545333,286.433333 804.548,284.436 C802.550667,282.438667 801.552,279.610667 801.552,275.952 C801.552,272.293333 802.588,269.474667 804.66,267.496 C806.732,265.517333 809.634667,264.528 813.368,264.528 C815.197333,264.528 816.942667,264.770667 818.604,265.256 C820.265333,265.741333 821.824,266.469333 823.28,267.44 L823.28,267.44 L823.28,257.584 C819.92,255.941333 816.056,255.12 811.688,255.12 C808.44,255.12 805.5,255.614667 802.868,256.604 C800.236,257.593333 797.977333,259.002667 796.092,260.832 C794.206667,262.661333 792.76,264.854667 791.752,267.412 C790.744,269.969333 790.24,272.816 790.24,275.952 C790.24,279.2 790.716,282.121333 791.668,284.716 C792.62,287.310667 794.001333,289.504 795.812,291.296 C797.622667,293.088 799.825333,294.46 802.42,295.412 C805.014667,296.364 807.954667,296.84 811.24,296.84 Z M837.336,296 C838.12,293.461333 838.885333,290.96 839.632,288.496 L839.632,288.496 L854.248,288.496 C854.621333,289.728 855.004,290.969333 855.396,292.22 C855.788,293.470667 856.170667,294.730667 856.544,296 L856.544,296 L868.36,296 C865.970667,289.317333 863.506667,282.634667 860.968,275.952 C858.429333,269.269333 855.816,262.605333 853.128,255.96 L853.128,255.96 L841.088,255.96 C838.474667,262.269333 835.898667,268.765333 833.36,275.448 C830.821333,282.130667 828.32,288.981333 825.856,296 L825.856,296 L837.336,296 Z M851.56,279.984 L842.32,279.984 C843.066667,277.669333 843.832,275.364 844.616,273.068 C845.4,270.772 846.184,268.466667 846.968,266.152 C847.752,268.429333 848.526667,270.716 849.292,273.012 C850.057333,275.308 850.813333,277.632 851.56,279.984 L851.56,279.984 Z M882.976,296 L882.976,271.696 C885.402667,275.578667 887.876,279.582667 890.396,283.708 C892.916,287.833333 895.370667,291.930667 897.76,296 L897.76,296 L908.736,296 L908.736,255.96 L898.32,255.96 L898.32,279.816 C895.893333,275.746667 893.448,271.714667 890.984,267.72 C888.52,263.725333 886.037333,259.805333 883.536,255.96 L883.536,255.96 L872.56,255.96 L872.56,296 L882.976,296 Z M951.408,296 L951.408,281.16 C953.984,276.978667 956.522667,272.788 959.024,268.588 C961.525333,264.388 963.970667,260.178667 966.36,255.96 L966.36,255.96 L954.376,255.96 C953.069333,258.610667 951.725333,261.270667 950.344,263.94 C948.962667,266.609333 947.581333,269.269333 946.2,271.92 C944.781333,269.269333 943.390667,266.618667 942.028,263.968 C940.665333,261.317333 939.312,258.648 937.968,255.96 L937.968,255.96 L925.592,255.96 C927.944,260.178667 930.370667,264.388 932.872,268.588 C935.373333,272.788 937.912,276.978667 940.488,281.16 L940.488,281.16 L940.488,296 L951.408,296 Z M989.6,296.84 C992.698667,296.84 995.498667,296.354667 998,295.384 C1000.50133,294.413333 1002.63867,293.013333 1004.412,291.184 C1006.18533,289.354667 1007.548,287.152 1008.5,284.576 C1009.452,282 1009.928,279.125333 1009.928,275.952 C1009.928,272.741333 1009.452,269.857333 1008.5,267.3 C1007.548,264.742667 1006.18533,262.558667 1004.412,260.748 C1002.63867,258.937333 1000.50133,257.546667 998,256.576 C995.498667,255.605333 992.698667,255.12 989.6,255.12 C986.501333,255.12 983.701333,255.605333 981.2,256.576 C978.698667,257.546667 976.561333,258.937333 974.788,260.748 C973.014667,262.558667 971.652,264.742667 970.7,267.3 C969.748,269.857333 969.272,272.741333 969.272,275.952 C969.272,279.125333 969.748,282 970.7,284.576 C971.652,287.152 973.014667,289.354667 974.788,291.184 C976.561333,293.013333 978.698667,294.413333 981.2,295.384 C983.701333,296.354667 986.501333,296.84 989.6,296.84 Z M989.6,287.432 C986.688,287.432 984.457333,286.442667 982.908,284.464 C981.358667,282.485333 980.584,279.648 980.584,275.952 C980.584,272.293333 981.358667,269.474667 982.908,267.496 C984.457333,265.517333 986.688,264.528 989.6,264.528 C992.512,264.528 994.742667,265.517333 996.292,267.496 C997.841333,269.474667 998.616,272.293333 998.616,275.952 C998.616,279.648 997.841333,282.485333 996.292,284.464 C994.742667,286.442667 992.512,287.432 989.6,287.432 Z M1033.504,296.84 C1037.2,296.84 1040.364,296.130667 1042.996,294.712 C1045.628,293.293333 1047.644,291.249333 1049.044,288.58 C1050.444,285.910667 1051.144,282.728 1051.144,279.032 L1051.144,279.032 L1051.144,255.96 L1040.392,255.96 L1040.392,280.264 C1040.392,282.541333 1039.79467,284.305333 1038.6,285.556 C1037.40533,286.806667 1035.70667,287.432 1033.504,287.432 C1031.33867,287.432 1029.64933,286.806667 1028.436,285.556 C1027.22267,284.305333 1026.616,282.541333 1026.616,280.264 L1026.616,280.264 L1026.616,255.96 L1015.696,255.96 L1015.696,279.032 C1015.696,282.728 1016.40533,285.910667 1017.824,288.58 C1019.24267,291.249333 1021.28667,293.293333 1023.956,294.712 C1026.62533,296.130667 1029.808,296.84 1033.504,296.84 Z M1087.152,296 C1091.408,296 1095.03867,295.206667 1098.044,293.62 C1101.04933,292.033333 1103.34533,289.746667 1104.932,286.76 C1106.51867,283.773333 1107.312,280.152 1107.312,275.896 C1107.312,271.677333 1106.51867,268.084 1104.932,265.116 C1103.34533,262.148 1101.04933,259.88 1098.044,258.312 C1095.03867,256.744 1091.42667,255.96 1087.208,255.96 L1087.208,255.96 L1070.856,255.96 L1070.856,296 L1087.152,296 Z M1086.648,286.704 L1081.776,286.704 L1081.776,265.256 L1086.704,265.256 C1089.76533,265.256 1092.08,266.161333 1093.648,267.972 C1095.216,269.782667 1096,272.424 1096,275.896 C1096,279.405333 1095.20667,282.084 1093.62,283.932 C1092.03333,285.78 1089.70933,286.704 1086.648,286.704 L1086.648,286.704 Z M1132.12,296.84 C1135.21867,296.84 1138.01867,296.354667 1140.52,295.384 C1143.02133,294.413333 1145.15867,293.013333 1146.932,291.184 C1148.70533,289.354667 1150.068,287.152 1151.02,284.576 C1151.972,282 1152.448,279.125333 1152.448,275.952 C1152.448,272.741333 1151.972,269.857333 1151.02,267.3 C1150.068,264.742667 1148.70533,262.558667 1146.932,260.748 C1145.15867,258.937333 1143.02133,257.546667 1140.52,256.576 C1138.01867,255.605333 1135.21867,255.12 1132.12,255.12 C1129.02133,255.12 1126.22133,255.605333 1123.72,256.576 C1121.21867,257.546667 1119.08133,258.937333 1117.308,260.748 C1115.53467,262.558667 1114.172,264.742667 1113.22,267.3 C1112.268,269.857333 1111.792,272.741333 1111.792,275.952 C1111.792,279.125333 1112.268,282 1113.22,284.576 C1114.172,287.152 1115.53467,289.354667 1117.308,291.184 C1119.08133,293.013333 1121.21867,294.413333 1123.72,295.384 C1126.22133,296.354667 1129.02133,296.84 1132.12,296.84 Z M1132.12,287.432 C1129.208,287.432 1126.97733,286.442667 1125.428,284.464 C1123.87867,282.485333 1123.104,279.648 1123.104,275.952 C1123.104,272.293333 1123.87867,269.474667 1125.428,267.496 C1126.97733,265.517333 1129.208,264.528 1132.12,264.528 C1135.032,264.528 1137.26267,265.517333 1138.812,267.496 C1140.36133,269.474667 1141.136,272.293333 1141.136,275.952 C1141.136,279.648 1140.36133,282.485333 1138.812,284.464 C1137.26267,286.442667 1135.032,287.432 1132.12,287.432 Z M811.688,358 L811.688,327.368 L823.672,327.368 L823.672,317.96 L788.784,317.96 L788.784,327.368 L800.768,327.368 L800.768,358 L811.688,358 Z M839.072,358 L839.072,341.816 L853.296,341.816 L853.296,358 L864.216,358 L864.216,317.96 L853.296,317.96 L853.296,332.408 L839.072,332.408 L839.072,317.96 L828.152,317.96 L828.152,358 L839.072,358 Z M901.344,358 L901.344,349.264 L882.248,349.264 L882.248,341.984 L898.04,341.984 L898.04,333.248 L882.248,333.248 L882.248,326.696 L900.28,326.696 L900.28,317.96 L871.608,317.96 L871.608,358 L901.344,358 Z M929.288,358 L929.288,333.696 C930.52,336.533333 931.78,339.370667 933.068,342.208 C934.356,345.045333 935.653333,347.882667 936.96,350.72 L936.96,350.72 L945.36,350.72 C946.629333,347.882667 947.889333,345.036 949.14,342.18 C950.390667,339.324 951.632,336.44 952.864,333.528 L952.864,333.528 L952.864,358 L963.056,358 L963.056,317.96 L950.064,317.96 C948.645333,321.730667 947.208,325.454667 945.752,329.132 C944.296,332.809333 942.821333,336.44 941.328,340.024 C939.76,336.402667 938.22,332.744 936.708,329.048 C935.196,325.352 933.712,321.656 932.256,317.96 L932.256,317.96 L919.096,317.96 L919.096,358 L929.288,358 Z M988.088,358.84 C991.784,358.84 994.948,358.130667 997.58,356.712 C1000.212,355.293333 1002.228,353.249333 1003.628,350.58 C1005.028,347.910667 1005.728,344.728 1005.728,341.032 L1005.728,341.032 L1005.728,317.96 L994.976,317.96 L994.976,342.264 C994.976,344.541333 994.378667,346.305333 993.184,347.556 C991.989333,348.806667 990.290667,349.432 988.088,349.432 C985.922667,349.432 984.233333,348.806667 983.02,347.556 C981.806667,346.305333 981.2,344.541333 981.2,342.264 L981.2,342.264 L981.2,317.96 L970.28,317.96 L970.28,341.032 C970.28,344.728 970.989333,347.910667 972.408,350.58 C973.826667,353.249333 975.870667,355.293333 978.54,356.712 C981.209333,358.130667 984.392,358.84 988.088,358.84 Z M1025.048,358.84 C1028.70667,358.84 1031.81467,358.336 1034.372,357.328 C1036.92933,356.32 1038.88933,354.845333 1040.252,352.904 C1041.61467,350.962667 1042.296,348.610667 1042.296,345.848 C1042.296,343.757333 1041.96,342.012 1041.288,340.612 C1040.616,339.212 1039.664,338.054667 1038.432,337.14 C1037.2,336.225333 1035.744,335.450667 1034.064,334.816 C1032.384,334.181333 1030.51733,333.621333 1028.464,333.136 C1026.48533,332.650667 1024.964,332.137333 1023.9,331.596 C1022.836,331.054667 1022.304,330.242667 1022.304,329.16 C1022.304,328.114667 1022.81733,327.321333 1023.844,326.78 C1024.87067,326.238667 1026.31733,325.968 1028.184,325.968 C1029.49067,325.968 1030.844,326.089333 1032.244,326.332 C1033.644,326.574667 1035.03467,326.929333 1036.416,327.396 C1037.79733,327.862667 1039.104,328.469333 1040.336,329.216 L1040.336,329.216 L1040.336,319.864 C1038.61867,319.005333 1036.696,318.333333 1034.568,317.848 C1032.44,317.362667 1030.27467,317.12 1028.072,317.12 C1024.67467,317.12 1021.72533,317.633333 1019.224,318.66 C1016.72267,319.686667 1014.8,321.152 1013.456,323.056 C1012.112,324.96 1011.44,327.256 1011.44,329.944 C1011.44,331.698667 1011.70133,333.229333 1012.224,334.536 C1012.74667,335.842667 1013.568,336.990667 1014.688,337.98 C1015.808,338.969333 1017.264,339.837333 1019.056,340.584 C1020.848,341.330667 1023.01333,342.002667 1025.552,342.6 C1026.70933,342.861333 1027.71733,343.16 1028.576,343.496 C1029.43467,343.832 1030.10667,344.233333 1030.592,344.7 C1031.07733,345.166667 1031.32,345.792 1031.32,346.576 C1031.32,347.658667 1030.77867,348.498667 1029.696,349.096 C1028.61333,349.693333 1027.008,349.992 1024.88,349.992 C1022.71467,349.992 1020.54,349.684 1018.356,349.068 C1016.172,348.452 1014.03467,347.546667 1011.944,346.352 L1011.944,346.352 L1011.944,355.816 C1014.10933,356.861333 1016.26533,357.626667 1018.412,358.112 C1020.55867,358.597333 1022.77067,358.84 1025.048,358.84 Z M1058.928,358 L1058.928,317.96 L1048.008,317.96 L1048.008,358 L1058.928,358 Z M1085.864,358.84 C1088.29067,358.84 1090.55867,358.597333 1092.668,358.112 C1094.77733,357.626667 1096.672,356.954667 1098.352,356.096 L1098.352,356.096 L1098.352,346.408 C1096.59733,347.453333 1094.852,348.218667 1093.116,348.704 C1091.38,349.189333 1089.54133,349.432 1087.6,349.432 C1083.97867,349.432 1081.16933,348.433333 1079.172,346.436 C1077.17467,344.438667 1076.176,341.610667 1076.176,337.952 C1076.176,334.293333 1077.212,331.474667 1079.284,329.496 C1081.356,327.517333 1084.25867,326.528 1087.992,326.528 C1089.82133,326.528 1091.56667,326.770667 1093.228,327.256 C1094.88933,327.741333 1096.448,328.469333 1097.904,329.44 L1097.904,329.44 L1097.904,319.584 C1094.544,317.941333 1090.68,317.12 1086.312,317.12 C1083.064,317.12 1080.124,317.614667 1077.492,318.604 C1074.86,319.593333 1072.60133,321.002667 1070.716,322.832 C1068.83067,324.661333 1067.384,326.854667 1066.376,329.412 C1065.368,331.969333 1064.864,334.816 1064.864,337.952 C1064.864,341.2 1065.34,344.121333 1066.292,346.716 C1067.244,349.310667 1068.62533,351.504 1070.436,353.296 C1072.24667,355.088 1074.44933,356.46 1077.044,357.412 C1079.63867,358.364 1082.57867,358.84 1085.864,358.84 Z M802.448,420 L802.448,405.552 L817.4,405.552 L817.4,396.424 L802.448,396.424 L802.448,389.088 L819.528,389.088 L819.528,379.96 L791.696,379.96 L791.696,420 L802.448,420 Z M843.44,420.84 C846.538667,420.84 849.338667,420.354667 851.84,419.384 C854.341333,418.413333 856.478667,417.013333 858.252,415.184 C860.025333,413.354667 861.388,411.152 862.34,408.576 C863.292,406 863.768,403.125333 863.768,399.952 C863.768,396.741333 863.292,393.857333 862.34,391.3 C861.388,388.742667 860.025333,386.558667 858.252,384.748 C856.478667,382.937333 854.341333,381.546667 851.84,380.576 C849.338667,379.605333 846.538667,379.12 843.44,379.12 C840.341333,379.12 837.541333,379.605333 835.04,380.576 C832.538667,381.546667 830.401333,382.937333 828.628,384.748 C826.854667,386.558667 825.492,388.742667 824.54,391.3 C823.588,393.857333 823.112,396.741333 823.112,399.952 C823.112,403.125333 823.588,406 824.54,408.576 C825.492,411.152 826.854667,413.354667 828.628,415.184 C830.401333,417.013333 832.538667,418.413333 835.04,419.384 C837.541333,420.354667 840.341333,420.84 843.44,420.84 Z M843.44,411.432 C840.528,411.432 838.297333,410.442667 836.748,408.464 C835.198667,406.485333 834.424,403.648 834.424,399.952 C834.424,396.293333 835.198667,393.474667 836.748,391.496 C838.297333,389.517333 840.528,388.528 843.44,388.528 C846.352,388.528 848.582667,389.517333 850.132,391.496 C851.681333,393.474667 852.456,396.293333 852.456,399.952 C852.456,403.648 851.681333,406.485333 850.132,408.464 C848.582667,410.442667 846.352,411.432 843.44,411.432 Z M880.288,420 L880.288,406.504 L885.776,406.504 C887.082667,408.706667 888.342667,410.937333 889.556,413.196 C890.769333,415.454667 891.973333,417.722667 893.168,420 L893.168,420 L905.208,420 C903.677333,417.274667 902.118667,414.605333 900.532,411.992 C898.945333,409.378667 897.330667,406.784 895.688,404.208 C897.778667,403.088 899.393333,401.594667 900.532,399.728 C901.670667,397.861333 902.24,395.696 902.24,393.232 C902.24,388.938667 900.765333,385.653333 897.816,383.376 C894.866667,381.098667 890.610667,379.96 885.048,379.96 L885.048,379.96 L869.704,379.96 L869.704,420 L880.288,420 Z M884.544,398.104 L880.288,398.104 L880.288,388.36 L884.544,388.36 C886.821333,388.36 888.501333,388.761333 889.584,389.564 C890.666667,390.366667 891.208,391.589333 891.208,393.232 C891.208,394.837333 890.666667,396.050667 889.584,396.872 C888.501333,397.693333 886.821333,398.104 884.544,398.104 L884.544,398.104 Z M939.648,420.84 C943.344,420.84 946.508,420.130667 949.14,418.712 C951.772,417.293333 953.788,415.249333 955.188,412.58 C956.588,409.910667 957.288,406.728 957.288,403.032 L957.288,403.032 L957.288,379.96 L946.536,379.96 L946.536,404.264 C946.536,406.541333 945.938667,408.305333 944.744,409.556 C943.549333,410.806667 941.850667,411.432 939.648,411.432 C937.482667,411.432 935.793333,410.806667 934.58,409.556 C933.366667,408.305333 932.76,406.541333 932.76,404.264 L932.76,404.264 L932.76,379.96 L921.84,379.96 L921.84,403.032 C921.84,406.728 922.549333,409.910667 923.968,412.58 C925.386667,415.249333 927.430667,417.293333 930.1,418.712 C932.769333,420.130667 935.952,420.84 939.648,420.84 Z M976.608,420.84 C980.266667,420.84 983.374667,420.336 985.932,419.328 C988.489333,418.32 990.449333,416.845333 991.812,414.904 C993.174667,412.962667 993.856,410.610667 993.856,407.848 C993.856,405.757333 993.52,404.012 992.848,402.612 C992.176,401.212 991.224,400.054667 989.992,399.14 C988.76,398.225333 987.304,397.450667 985.624,396.816 C983.944,396.181333 982.077333,395.621333 980.024,395.136 C978.045333,394.650667 976.524,394.137333 975.46,393.596 C974.396,393.054667 973.864,392.242667 973.864,391.16 C973.864,390.114667 974.377333,389.321333 975.404,388.78 C976.430667,388.238667 977.877333,387.968 979.744,387.968 C981.050667,387.968 982.404,388.089333 983.804,388.332 C985.204,388.574667 986.594667,388.929333 987.976,389.396 C989.357333,389.862667 990.664,390.469333 991.896,391.216 L991.896,391.216 L991.896,381.864 C990.178667,381.005333 988.256,380.333333 986.128,379.848 C984,379.362667 981.834667,379.12 979.632,379.12 C976.234667,379.12 973.285333,379.633333 970.784,380.66 C968.282667,381.686667 966.36,383.152 965.016,385.056 C963.672,386.96 963,389.256 963,391.944 C963,393.698667 963.261333,395.229333 963.784,396.536 C964.306667,397.842667 965.128,398.990667 966.248,399.98 C967.368,400.969333 968.824,401.837333 970.616,402.584 C972.408,403.330667 974.573333,404.002667 977.112,404.6 C978.269333,404.861333 979.277333,405.16 980.136,405.496 C980.994667,405.832 981.666667,406.233333 982.152,406.7 C982.637333,407.166667 982.88,407.792 982.88,408.576 C982.88,409.658667 982.338667,410.498667 981.256,411.096 C980.173333,411.693333 978.568,411.992 976.44,411.992 C974.274667,411.992 972.1,411.684 969.916,411.068 C967.732,410.452 965.594667,409.546667 963.504,408.352 L963.504,408.352 L963.504,417.816 C965.669333,418.861333 967.825333,419.626667 969.972,420.112 C972.118667,420.597333 974.330667,420.84 976.608,420.84 Z M1012.392,406.448 L1012.392,405.776 C1012.392,405.216 1012.51333,404.693333 1012.756,404.208 C1012.99867,403.722667 1013.41867,403.218667 1014.016,402.696 C1014.61333,402.173333 1015.39733,401.576 1016.368,400.904 C1018.57067,399.373333 1020.16667,397.777333 1021.156,396.116 C1022.14533,394.454667 1022.64,392.504 1022.64,390.264 C1022.64,387.949333 1022.07067,385.961333 1020.932,384.3 C1019.79333,382.638667 1018.17867,381.36 1016.088,380.464 C1013.99733,379.568 1011.47733,379.12 1008.528,379.12 C1006.58667,379.12 1004.70133,379.316 1002.872,379.708 C1001.04267,380.1 999.306667,380.688 997.664,381.472 L997.664,381.472 L997.664,389.928 C999.157333,389.069333 1000.61333,388.444 1002.032,388.052 C1003.45067,387.66 1004.944,387.464 1006.512,387.464 C1008.26667,387.464 1009.62,387.809333 1010.572,388.5 C1011.524,389.190667 1012,390.152 1012,391.384 C1012,392.093333 1011.888,392.737333 1011.664,393.316 C1011.44,393.894667 1011.02933,394.482667 1010.432,395.08 C1009.83467,395.677333 1008.976,396.405333 1007.856,397.264 C1006.4,398.346667 1005.35467,399.541333 1004.72,400.848 C1004.08533,402.154667 1003.768,403.797333 1003.768,405.776 L1003.768,405.776 L1003.768,406.448 L1012.392,406.448 Z M1008.08,420.504 C1009.27467,420.504 1010.30133,420.252 1011.16,419.748 C1012.01867,419.244 1012.68133,418.572 1013.148,417.732 C1013.61467,416.892 1013.848,415.968 1013.848,414.96 C1013.848,413.952 1013.61467,413.028 1013.148,412.188 C1012.68133,411.348 1012.01867,410.685333 1011.16,410.2 C1010.30133,409.714667 1009.27467,409.472 1008.08,409.472 C1006.88533,409.472 1005.85867,409.714667 1005,410.2 C1004.14133,410.685333 1003.47867,411.348 1003.012,412.188 C1002.54533,413.028 1002.312,413.952 1002.312,414.96 C1002.312,415.968 1002.54533,416.892 1003.012,417.732 C1003.47867,418.572 1004.14133,419.244 1005,419.748 C1005.85867,420.252 1006.88533,420.504 1008.08,420.504 Z" id="CANYOUDOTHEMUSICFORUS?"></path>
            </g>
        </g>
    </g>
</svg>