<svg width="1200" height="677" viewBox="0 0 1200 677" xmlns="http://www.w3.org/2000/svg" xmlns:xlink="http://www.w3.org/1999/xlink"><title>greg-text-14</title><desc>Created with Sketch.</desc><g id="Assets" stroke="none" stroke-width="1" fill="none" fill-rule="evenodd"><g id="Greg" fill="#fff" fill-rule="nonzero"><g id="greg-text-14"><path d="M820.424 234V224.592H802.616V193.96H791.696V234H820.424zM843.776 234.84C846.874667 234.84 849.674667 234.354667 852.176 233.384 854.677333 232.413333 856.814667 231.013333 858.588 229.184 860.361333 227.354667 861.724 225.152 862.676 222.576 863.628 220 864.104 217.125333 864.104 213.952 864.104 210.741333 863.628 207.857333 862.676 205.3 861.724 202.742667 860.361333 200.558667 858.588 198.748 856.814667 196.937333 854.677333 195.546667 852.176 194.576 849.674667 193.605333 846.874667 193.12 843.776 193.12 840.677333 193.12 837.877333 193.605333 835.376 194.576 832.874667 195.546667 830.737333 196.937333 828.964 198.748 827.190667 200.558667 825.828 202.742667 824.876 205.3 823.924 207.857333 823.448 210.741333 823.448 213.952 823.448 217.125333 823.924 220 824.876 222.576 825.828 225.152 827.190667 227.354667 828.964 229.184 830.737333 231.013333 832.874667 232.413333 835.376 233.384 837.877333 234.354667 840.677333 234.84 843.776 234.84zM843.776 225.432C840.864 225.432 838.633333 224.442667 837.084 222.464 835.534667 220.485333 834.76 217.648 834.76 213.952 834.76 210.293333 835.534667 207.474667 837.084 205.496 838.633333 203.517333 840.864 202.528 843.776 202.528 846.688 202.528 848.918667 203.517333 850.468 205.496 852.017333 207.474667 852.792 210.293333 852.792 213.952 852.792 217.648 852.017333 220.485333 850.468 222.464 848.918667 224.442667 846.688 225.432 843.776 225.432zM878.328 234C879.112 231.461333 879.877333 228.96 880.624 226.496v0H895.24C895.613333 227.728 895.996 228.969333 896.388 230.22 896.78 231.470667 897.162667 232.730667 897.536 234v0H909.352C906.962667 227.317333 904.498667 220.634667 901.96 213.952 899.421333 207.269333 896.808 200.605333 894.12 193.96v0H882.08C879.466667 200.269333 876.890667 206.765333 874.352 213.448 871.813333 220.130667 869.312 226.981333 866.848 234v0H878.328zM892.552 217.984H883.312C884.058667 215.669333 884.824 213.364 885.608 211.068 886.392 208.772 887.176 206.466667 887.96 204.152 888.744 206.429333 889.518667 208.716 890.284 211.012 891.049333 213.308 891.805333 215.632 892.552 217.984v0zM929.848 234C934.104 234 937.734667 233.206667 940.74 231.62 943.745333 230.033333 946.041333 227.746667 947.628 224.76 949.214667 221.773333 950.008 218.152 950.008 213.896 950.008 209.677333 949.214667 206.084 947.628 203.116 946.041333 200.148 943.745333 197.88 940.74 196.312 937.734667 194.744 934.122667 193.96 929.904 193.96v0H913.552V234H929.848zM929.344 224.704H924.472V203.256H929.4C932.461333 203.256 934.776 204.161333 936.344 205.972 937.912 207.782667 938.696 210.424 938.696 213.896 938.696 217.405333 937.902667 220.084 936.316 221.932 934.729333 223.78 932.405333 224.704 929.344 224.704v0zM968.04 234.84C971.698667 234.84 974.806667 234.336 977.364 233.328 979.921333 232.32 981.881333 230.845333 983.244 228.904 984.606667 226.962667 985.288 224.610667 985.288 221.848 985.288 219.757333 984.952 218.012 984.28 216.612 983.608 215.212 982.656 214.054667 981.424 213.14 980.192 212.225333 978.736 211.450667 977.056 210.816 975.376 210.181333 973.509333 209.621333 971.456 209.136 969.477333 208.650667 967.956 208.137333 966.892 207.596 965.828 207.054667 965.296 206.242667 965.296 205.16 965.296 204.114667 965.809333 203.321333 966.836 202.78 967.862667 202.238667 969.309333 201.968 971.176 201.968 972.482667 201.968 973.836 202.089333 975.236 202.332 976.636 202.574667 978.026667 202.929333 979.408 203.396 980.789333 203.862667 982.096 204.469333 983.328 205.216v0V195.864C981.610667 195.005333 979.688 194.333333 977.56 193.848 975.432 193.362667 973.266667 193.12 971.064 193.12 967.666667 193.12 964.717333 193.633333 962.216 194.66 959.714667 195.686667 957.792 197.152 956.448 199.056 955.104 200.96 954.432 203.256 954.432 205.944 954.432 207.698667 954.693333 209.229333 955.216 210.536 955.738667 211.842667 956.56 212.990667 957.68 213.98 958.8 214.969333 960.256 215.837333 962.048 216.584 963.84 217.330667 966.005333 218.002667 968.544 218.6 969.701333 218.861333 970.709333 219.16 971.568 219.496 972.426667 219.832 973.098667 220.233333 973.584 220.7 974.069333 221.166667 974.312 221.792 974.312 222.576 974.312 223.658667 973.770667 224.498667 972.688 225.096 971.605333 225.693333 970 225.992 967.872 225.992 965.706667 225.992 963.532 225.684 961.348 225.068 959.164 224.452 957.026667 223.546667 954.936 222.352v0V231.816C957.101333 232.861333 959.257333 233.626667 961.404 234.112 963.550667 234.597333 965.762667 234.84 968.04 234.84zM1022.36 234.84C1025.45867 234.84 1028.25867 234.354667 1030.76 233.384 1033.26133 232.413333 1035.39867 231.013333 1037.172 229.184 1038.94533 227.354667 1040.308 225.152 1041.26 222.576 1042.212 220 1042.688 217.125333 1042.688 213.952 1042.688 210.741333 1042.212 207.857333 1041.26 205.3 1040.308 202.742667 1038.94533 200.558667 1037.172 198.748 1035.39867 196.937333 1033.26133 195.546667 1030.76 194.576 1028.25867 193.605333 1025.45867 193.12 1022.36 193.12 1019.26133 193.12 1016.46133 193.605333 1013.96 194.576 1011.45867 195.546667 1009.32133 196.937333 1007.548 198.748 1005.77467 200.558667 1004.412 202.742667 1003.46 205.3 1002.508 207.857333 1002.032 210.741333 1002.032 213.952 1002.032 217.125333 1002.508 220 1003.46 222.576 1004.412 225.152 1005.77467 227.354667 1007.548 229.184 1009.32133 231.013333 1011.45867 232.413333 1013.96 233.384 1016.46133 234.354667 1019.26133 234.84 1022.36 234.84zM1022.36 225.432C1019.448 225.432 1017.21733 224.442667 1015.668 222.464 1014.11867 220.485333 1013.344 217.648 1013.344 213.952 1013.344 210.293333 1014.11867 207.474667 1015.668 205.496 1017.21733 203.517333 1019.448 202.528 1022.36 202.528 1025.272 202.528 1027.50267 203.517333 1029.052 205.496 1030.60133 207.474667 1031.376 210.293333 1031.376 213.952 1031.376 217.648 1030.60133 220.485333 1029.052 222.464 1027.50267 224.442667 1025.272 225.432 1022.36 225.432zM1059.376 234V219.552H1074.328V210.424H1059.376V203.088H1076.456V193.96H1048.624V234H1059.376zM802.28 296V283.288H806.76C810.381333 283.288 813.442667 282.756 815.944 281.692 818.445333 280.628 820.349333 279.078667 821.656 277.044 822.962667 275.009333 823.616 272.536 823.616 269.624 823.616 265.218667 822.169333 261.84 819.276 259.488 816.382667 257.136 812.210667 255.96 806.76 255.96v0H791.696V296H802.28zM806.256 274.888H802.28V264.36H806.256C810.474667 264.36 812.584 266.114667 812.584 269.624 812.584 273.133333 810.474667 274.888 806.256 274.888v0zM858.896 296V287.264H839.8V279.984H855.592V271.248H839.8V264.696H857.832V255.96H829.16V296H858.896zM883.032 296.84C886.130667 296.84 888.930667 296.354667 891.432 295.384 893.933333 294.413333 896.070667 293.013333 897.844 291.184 899.617333 289.354667 900.98 287.152 901.932 284.576 902.884 282 903.36 279.125333 903.36 275.952 903.36 272.741333 902.884 269.857333 901.932 267.3 900.98 264.742667 899.617333 262.558667 897.844 260.748 896.070667 258.937333 893.933333 257.546667 891.432 256.576 888.930667 255.605333 886.130667 255.12 883.032 255.12 879.933333 255.12 877.133333 255.605333 874.632 256.576 872.130667 257.546667 869.993333 258.937333 868.22 260.748 866.446667 262.558667 865.084 264.742667 864.132 267.3 863.18 269.857333 862.704 272.741333 862.704 275.952 862.704 279.125333 863.18 282 864.132 284.576 865.084 287.152 866.446667 289.354667 868.22 291.184 869.993333 293.013333 872.130667 294.413333 874.632 295.384 877.133333 296.354667 879.933333 296.84 883.032 296.84zM883.032 287.432C880.12 287.432 877.889333 286.442667 876.34 284.464 874.790667 282.485333 874.016 279.648 874.016 275.952 874.016 272.293333 874.790667 269.474667 876.34 267.496 877.889333 265.517333 880.12 264.528 883.032 264.528 885.944 264.528 888.174667 265.517333 889.724 267.496 891.273333 269.474667 892.048 272.293333 892.048 275.952 892.048 279.648 891.273333 282.485333 889.724 284.464 888.174667 286.442667 885.944 287.432 883.032 287.432zM919.88 296V283.288H924.36C927.981333 283.288 931.042667 282.756 933.544 281.692 936.045333 280.628 937.949333 279.078667 939.256 277.044 940.562667 275.009333 941.216 272.536 941.216 269.624 941.216 265.218667 939.769333 261.84 936.876 259.488 933.982667 257.136 929.810667 255.96 924.36 255.96v0H909.296V296H919.88zM923.856 274.888H919.88V264.36H923.856C928.074667 264.36 930.184 266.114667 930.184 269.624 930.184 273.133333 928.074667 274.888 923.856 274.888v0zM975.488 296V286.592H957.68V255.96H946.76V296H975.488zM1009.704 296V287.264H990.608V279.984H1006.4V271.248H990.608V264.696H1008.64V255.96H979.968V296H1009.704zM1035.744 296C1036.528 293.461333 1037.29333 290.96 1038.04 288.496v0H1052.656C1053.02933 289.728 1053.412 290.969333 1053.804 292.22 1054.196 293.470667 1054.57867 294.730667 1054.952 296v0H1066.768C1064.37867 289.317333 1061.91467 282.634667 1059.376 275.952 1056.83733 269.269333 1054.224 262.605333 1051.536 255.96v0H1039.496C1036.88267 262.269333 1034.30667 268.765333 1031.768 275.448 1029.22933 282.130667 1026.728 288.981333 1024.264 296v0H1035.744zM1049.968 279.984H1040.728C1041.47467 277.669333 1042.24 275.364 1043.024 273.068 1043.808 270.772 1044.592 268.466667 1045.376 266.152 1046.16 268.429333 1046.93467 270.716 1047.7 273.012 1048.46533 275.308 1049.22133 277.632 1049.968 279.984v0zM1081.552 296V282.504H1087.04C1088.34667 284.706667 1089.60667 286.937333 1090.82 289.196 1092.03333 291.454667 1093.23733 293.722667 1094.432 296v0H1106.472C1104.94133 293.274667 1103.38267 290.605333 1101.796 287.992 1100.20933 285.378667 1098.59467 282.784 1096.952 280.208 1099.04267 279.088 1100.65733 277.594667 1101.796 275.728 1102.93467 273.861333 1103.504 271.696 1103.504 269.232 1103.504 264.938667 1102.02933 261.653333 1099.08 259.376 1096.13067 257.098667 1091.87467 255.96 1086.312 255.96v0H1070.968V296H1081.552zM1085.808 274.104H1081.552V264.36H1085.808C1088.08533 264.36 1089.76533 264.761333 1090.848 265.564 1091.93067 266.366667 1092.472 267.589333 1092.472 269.232 1092.472 270.837333 1091.93067 272.050667 1090.848 272.872 1089.76533 273.693333 1088.08533 274.104 1085.808 274.104v0zM1140.52 296V287.264H1121.424V279.984H1137.216V271.248H1121.424V264.696H1139.456V255.96H1110.784V296H1140.52zM802.28 358V345.288H806.76C810.381333 345.288 813.442667 344.756 815.944 343.692 818.445333 342.628 820.349333 341.078667 821.656 339.044 822.962667 337.009333 823.616 334.536 823.616 331.624 823.616 327.218667 822.169333 323.84 819.276 321.488 816.382667 319.136 812.210667 317.96 806.76 317.96v0H791.696V358H802.28zM806.256 336.888H802.28V326.36H806.256C810.474667 326.36 812.584 328.114667 812.584 331.624 812.584 335.133333 810.474667 336.888 806.256 336.888v0zM857.888 358V348.592H840.08V317.96H829.16V358H857.888zM870.656 358C871.44 355.461333 872.205333 352.96 872.952 350.496v0H887.568C887.941333 351.728 888.324 352.969333 888.716 354.22 889.108 355.470667 889.490667 356.730667 889.864 358v0H901.68C899.290667 351.317333 896.826667 344.634667 894.288 337.952 891.749333 331.269333 889.136 324.605333 886.448 317.96v0H874.408C871.794667 324.269333 869.218667 330.765333 866.68 337.448 864.141333 344.130667 861.64 350.981333 859.176 358v0H870.656zM884.88 341.984H875.64C876.386667 339.669333 877.152 337.364 877.936 335.068 878.72 332.772 879.504 330.466667 880.288 328.152 881.072 330.429333 881.846667 332.716 882.612 335.012 883.377333 337.308 884.133333 339.632 884.88 341.984v0zM928.672 358V343.16C931.248 338.978667 933.786667 334.788 936.288 330.588 938.789333 326.388 941.234667 322.178667 943.624 317.96v0H931.64C930.333333 320.610667 928.989333 323.270667 927.608 325.94 926.226667 328.609333 924.845333 331.269333 923.464 333.92 922.045333 331.269333 920.654667 328.618667 919.292 325.968 917.929333 323.317333 916.576 320.648 915.232 317.96v0H902.856C905.208 322.178667 907.634667 326.388 910.136 330.588 912.637333 334.788 915.176 338.978667 917.752 343.16v0V358H928.672zM958.912 358V317.96H947.992V358H958.912zM976.72 358V333.696C979.146667 337.578667 981.62 341.582667 984.14 345.708 986.66 349.833333 989.114667 353.930667 991.504 358v0H1002.48V317.96H992.064V341.816C989.637333 337.746667 987.192 333.714667 984.728 329.72 982.264 325.725333 979.781333 321.805333 977.28 317.96v0H966.304V358H976.72zM1029.584 358.84C1031.376 358.84 1033.17733 358.728 1034.988 358.504 1036.79867 358.28 1038.544 357.934667 1040.224 357.468 1041.904 357.001333 1043.39733 356.450667 1044.704 355.816v0V334.928H1029.08V342.992H1034.904V348.984C1034.19467 349.170667 1033.45733 349.310667 1032.692 349.404 1031.92667 349.497333 1031.17067 349.544 1030.424 349.544 1026.91467 349.544 1024.25467 348.564 1022.444 346.604 1020.63333 344.644 1019.728 341.76 1019.728 337.952 1019.728 334.293333 1020.764 331.474667 1022.836 329.496 1024.908 327.517333 1027.86667 326.528 1031.712 326.528 1034.064 326.528 1036.22 326.78 1038.18 327.284 1040.14 327.788 1041.96 328.506667 1043.64 329.44v0V319.584C1039.72 317.941333 1035.27733 317.12 1030.312 317.12 1027.02667 317.12 1024.04 317.614667 1021.352 318.604 1018.664 319.593333 1016.34933 321.002667 1014.408 322.832 1012.46667 324.661333 1010.98267 326.854667 1009.956 329.412 1008.92933 331.969333 1008.416 334.816 1008.416 337.952 1008.416 341.2 1008.90133 344.112 1009.872 346.688 1010.84267 349.264 1012.24267 351.457333 1014.072 353.268 1015.90133 355.078667 1018.12267 356.46 1020.736 357.412 1023.34933 358.364 1026.29867 358.84 1029.584 358.84zM1082.672 358.84C1085.77067 358.84 1088.57067 358.354667 1091.072 357.384 1093.57333 356.413333 1095.71067 355.013333 1097.484 353.184 1099.25733 351.354667 1100.62 349.152 1101.572 346.576 1102.524 344 1103 341.125333 1103 337.952 1103 334.741333 1102.524 331.857333 1101.572 329.3 1100.62 326.742667 1099.25733 324.558667 1097.484 322.748 1095.71067 320.937333 1093.57333 319.546667 1091.072 318.576 1088.57067 317.605333 1085.77067 317.12 1082.672 317.12 1079.57333 317.12 1076.77333 317.605333 1074.272 318.576 1071.77067 319.546667 1069.63333 320.937333 1067.86 322.748 1066.08667 324.558667 1064.724 326.742667 1063.772 329.3 1062.82 331.857333 1062.344 334.741333 1062.344 337.952 1062.344 341.125333 1062.82 344 1063.772 346.576 1064.724 349.152 1066.08667 351.354667 1067.86 353.184 1069.63333 355.013333 1071.77067 356.413333 1074.272 357.384 1076.77333 358.354667 1079.57333 358.84 1082.672 358.84zM1082.672 349.432C1079.76 349.432 1077.52933 348.442667 1075.98 346.464 1074.43067 344.485333 1073.656 341.648 1073.656 337.952 1073.656 334.293333 1074.43067 331.474667 1075.98 329.496 1077.52933 327.517333 1079.76 326.528 1082.672 326.528 1085.584 326.528 1087.81467 327.517333 1089.364 329.496 1090.91333 331.474667 1091.688 334.293333 1091.688 337.952 1091.688 341.648 1090.91333 344.485333 1089.364 346.464 1087.81467 348.442667 1085.584 349.432 1082.672 349.432zM1119.352 358V333.696C1121.77867 337.578667 1124.252 341.582667 1126.772 345.708 1129.292 349.833333 1131.74667 353.930667 1134.136 358v0H1145.112V317.96H1134.696V341.816C1132.26933 337.746667 1129.824 333.714667 1127.36 329.72 1124.896 325.725333 1122.41333 321.805333 1119.912 317.96v0H1108.936V358H1119.352zM811.688 420V389.368H823.672V379.96H788.784V389.368H800.768V420H811.688zM839.072 420V403.816H853.296V420H864.216V379.96H853.296V394.408H839.072V379.96H828.152V420H839.072zM901.344 420V411.264H882.248V403.984H898.04V395.248H882.248V388.696H900.28V379.96H871.608V420H901.344zM917.528 420V379.96H906.608V420H917.528zm17.976.0V406.504H940.992C942.298667 408.706667 943.558667 410.937333 944.772 413.196 945.985333 415.454667 947.189333 417.722667 948.384 420v0H960.424C958.893333 417.274667 957.334667 414.605333 955.748 411.992 954.161333 409.378667 952.546667 406.784 950.904 404.208 952.994667 403.088 954.609333 401.594667 955.748 399.728 956.886667 397.861333 957.456 395.696 957.456 393.232 957.456 388.938667 955.981333 385.653333 953.032 383.376 950.082667 381.098667 945.826667 379.96 940.264 379.96v0H924.92V420H935.504zM939.76 398.104H935.504V388.36H939.76C942.037333 388.36 943.717333 388.761333 944.8 389.564 945.882667 390.366667 946.424 391.589333 946.424 393.232 946.424 394.837333 945.882667 396.050667 944.8 396.872 943.717333 397.693333 942.037333 398.104 939.76 398.104v0zM989.32 420.84C992.978667 420.84 996.086667 420.336 998.644 419.328 1001.20133 418.32 1003.16133 416.845333 1004.524 414.904 1005.88667 412.962667 1006.568 410.610667 1006.568 407.848 1006.568 405.757333 1006.232 404.012 1005.56 402.612 1004.888 401.212 1003.936 400.054667 1002.704 399.14 1001.472 398.225333 1000.016 397.450667 998.336 396.816 996.656 396.181333 994.789333 395.621333 992.736 395.136 990.757333 394.650667 989.236 394.137333 988.172 393.596 987.108 393.054667 986.576 392.242667 986.576 391.16 986.576 390.114667 987.089333 389.321333 988.116 388.78 989.142667 388.238667 990.589333 387.968 992.456 387.968 993.762667 387.968 995.116 388.089333 996.516 388.332 997.916 388.574667 999.306667 388.929333 1000.688 389.396 1002.06933 389.862667 1003.376 390.469333 1004.608 391.216v0V381.864C1002.89067 381.005333 1000.968 380.333333 998.84 379.848 996.712 379.362667 994.546667 379.12 992.344 379.12 988.946667 379.12 985.997333 379.633333 983.496 380.66 980.994667 381.686667 979.072 383.152 977.728 385.056 976.384 386.96 975.712 389.256 975.712 391.944 975.712 393.698667 975.973333 395.229333 976.496 396.536 977.018667 397.842667 977.84 398.990667 978.96 399.98 980.08 400.969333 981.536 401.837333 983.328 402.584 985.12 403.330667 987.285333 404.002667 989.824 404.6 990.981333 404.861333 991.989333 405.16 992.848 405.496 993.706667 405.832 994.378667 406.233333 994.864 406.7 995.349333 407.166667 995.592 407.792 995.592 408.576 995.592 409.658667 995.050667 410.498667 993.968 411.096 992.885333 411.693333 991.28 411.992 989.152 411.992 986.986667 411.992 984.812 411.684 982.628 411.068 980.444 410.452 978.306667 409.546667 976.216 408.352v0V417.816C978.381333 418.861333 980.537333 419.626667 982.684 420.112 984.830667 420.597333 987.042667 420.84 989.32 420.84zM1022.472 420V395.696C1023.704 398.533333 1024.964 401.370667 1026.252 404.208 1027.54 407.045333 1028.83733 409.882667 1030.144 412.72v0H1038.544C1039.81333 409.882667 1041.07333 407.036 1042.324 404.18 1043.57467 401.324 1044.816 398.44 1046.048 395.528v0V420H1056.24V379.96H1043.248C1041.82933 383.730667 1040.392 387.454667 1038.936 391.132 1037.48 394.809333 1036.00533 398.44 1034.512 402.024 1032.944 398.402667 1031.404 394.744 1029.892 391.048 1028.38 387.352 1026.896 383.656 1025.44 379.96v0H1012.28V420H1022.472zM1071.92 420C1072.704 417.461333 1073.46933 414.96 1074.216 412.496v0H1088.832C1089.20533 413.728 1089.588 414.969333 1089.98 416.22 1090.372 417.470667 1090.75467 418.730667 1091.128 420v0H1102.944C1100.55467 413.317333 1098.09067 406.634667 1095.552 399.952 1093.01333 393.269333 1090.4 386.605333 1087.712 379.96v0H1075.672C1073.05867 386.269333 1070.48267 392.765333 1067.944 399.448 1065.40533 406.130667 1062.904 412.981333 1060.44 420v0H1071.92zM1086.144 403.984H1076.904C1077.65067 401.669333 1078.416 399.364 1079.2 397.068 1079.984 394.772 1080.768 392.466667 1081.552 390.152 1082.336 392.429333 1083.11067 394.716 1083.876 397.012 1084.64133 399.308 1085.39733 401.632 1086.144 403.984v0zM1117.728 420V406.504H1123.216C1124.52267 408.706667 1125.78267 410.937333 1126.996 413.196 1128.20933 415.454667 1129.41333 417.722667 1130.608 420v0H1142.648C1141.11733 417.274667 1139.55867 414.605333 1137.972 411.992 1136.38533 409.378667 1134.77067 406.784 1133.128 404.208 1135.21867 403.088 1136.83333 401.594667 1137.972 399.728 1139.11067 397.861333 1139.68 395.696 1139.68 393.232 1139.68 388.938667 1138.20533 385.653333 1135.256 383.376 1132.30667 381.098667 1128.05067 379.96 1122.488 379.96v0H1107.144V420H1117.728zM1121.984 398.104H1117.728V388.36H1121.984C1124.26133 388.36 1125.94133 388.761333 1127.024 389.564 1128.10667 390.366667 1128.648 391.589333 1128.648 393.232 1128.648 394.837333 1128.10667 396.050667 1127.024 396.872 1125.94133 397.693333 1124.26133 398.104 1121.984 398.104v0zM1166.952 420V389.368H1178.936V379.96H1144.048V389.368H1156.032V420H1166.952zM803.792 482.84C807.450667 482.84 810.558667 482.336 813.116 481.328 815.673333 480.32 817.633333 478.845333 818.996 476.904 820.358667 474.962667 821.04 472.610667 821.04 469.848 821.04 467.757333 820.704 466.012 820.032 464.612 819.36 463.212 818.408 462.054667 817.176 461.14 815.944 460.225333 814.488 459.450667 812.808 458.816 811.128 458.181333 809.261333 457.621333 807.208 457.136 805.229333 456.650667 803.708 456.137333 802.644 455.596 801.58 455.054667 801.048 454.242667 801.048 453.16 801.048 452.114667 801.561333 451.321333 802.588 450.78 803.614667 450.238667 805.061333 449.968 806.928 449.968 808.234667 449.968 809.588 450.089333 810.988 450.332 812.388 450.574667 813.778667 450.929333 815.16 451.396 816.541333 451.862667 817.848 452.469333 819.08 453.216v0V443.864C817.362667 443.005333 815.44 442.333333 813.312 441.848 811.184 441.362667 809.018667 441.12 806.816 441.12 803.418667 441.12 800.469333 441.633333 797.968 442.66 795.466667 443.686667 793.544 445.152 792.2 447.056 790.856 448.96 790.184 451.256 790.184 453.944 790.184 455.698667 790.445333 457.229333 790.968 458.536 791.490667 459.842667 792.312 460.990667 793.432 461.98 794.552 462.969333 796.008 463.837333 797.8 464.584 799.592 465.330667 801.757333 466.002667 804.296 466.6 805.453333 466.861333 806.461333 467.16 807.32 467.496 808.178667 467.832 808.850667 468.233333 809.336 468.7 809.821333 469.166667 810.064 469.792 810.064 470.576 810.064 471.658667 809.522667 472.498667 808.44 473.096 807.357333 473.693333 805.752 473.992 803.624 473.992 801.458667 473.992 799.284 473.684 797.1 473.068 794.916 472.452 792.778667 471.546667 790.688 470.352v0V479.816C792.853333 480.861333 795.009333 481.626667 797.156 482.112 799.302667 482.597333 801.514667 482.84 803.792 482.84zM837.336 482V469.288H841.816C845.437333 469.288 848.498667 468.756 851 467.692 853.501333 466.628 855.405333 465.078667 856.712 463.044 858.018667 461.009333 858.672 458.536 858.672 455.624 858.672 451.218667 857.225333 447.84 854.332 445.488 851.438667 443.136 847.266667 441.96 841.816 441.96v0H826.752V482H837.336zM841.312 460.888H837.336V450.36H841.312C845.530667 450.36 847.64 452.114667 847.64 455.624 847.64 459.133333 845.530667 460.888 841.312 460.888v0zM893.952 482V473.264H874.856V465.984H890.648V457.248H874.856V450.696H892.888V441.96H864.216V482H893.952zM907.504 482C908.288 479.461333 909.053333 476.96 909.8 474.496v0H924.416C924.789333 475.728 925.172 476.969333 925.564 478.22 925.956 479.470667 926.338667 480.730667 926.712 482v0H938.528C936.138667 475.317333 933.674667 468.634667 931.136 461.952 928.597333 455.269333 925.984 448.605333 923.296 441.96v0H911.256C908.642667 448.269333 906.066667 454.765333 903.528 461.448 900.989333 468.130667 898.488 474.981333 896.024 482v0H907.504zM921.728 465.984H912.488C913.234667 463.669333 914 461.364 914.784 459.068 915.568 456.772 916.352 454.466667 917.136 452.152 917.92 454.429333 918.694667 456.716 919.46 459.012 920.225333 461.308 920.981333 463.632 921.728 465.984v0zM953.648 482V465.48H955.608C957.698667 468.28 959.724 471.042667 961.684 473.768 963.644 476.493333 965.594667 479.237333 967.536 482v0H981.2C978.437333 478.341333 975.702667 474.748 972.996 471.22 970.289333 467.692 967.554667 464.210667 964.792 460.776 967.368 457.64 969.888 454.504 972.352 451.368 974.816 448.232 977.242667 445.096 979.632 441.96v0H966.752C965.034667 444.386667 963.28 446.822667 961.488 449.268 959.696 451.713333 957.810667 454.205333 955.832 456.744v0H953.648V441.96H942.728V482H953.648zM1014.968 482V473.264H995.872V465.984H1011.664V457.248H995.872V450.696H1013.904V441.96H985.232V482H1014.968zM1030.816 482V468.504H1036.304C1037.61067 470.706667 1038.87067 472.937333 1040.084 475.196 1041.29733 477.454667 1042.50133 479.722667 1043.696 482v0H1055.736C1054.20533 479.274667 1052.64667 476.605333 1051.06 473.992 1049.47333 471.378667 1047.85867 468.784 1046.216 466.208 1048.30667 465.088 1049.92133 463.594667 1051.06 461.728 1052.19867 459.861333 1052.768 457.696 1052.768 455.232 1052.768 450.938667 1051.29333 447.653333 1048.344 445.376 1045.39467 443.098667 1041.13867 441.96 1035.576 441.96v0H1020.232V482H1030.816zM1035.072 460.104H1030.816V450.36H1035.072C1037.34933 450.36 1039.02933 450.761333 1040.112 451.564 1041.19467 452.366667 1041.736 453.589333 1041.736 455.232 1041.736 456.837333 1041.19467 458.050667 1040.112 458.872 1039.02933 459.693333 1037.34933 460.104 1035.072 460.104v0zM1072.144 482.84C1075.80267 482.84 1078.91067 482.336 1081.468 481.328 1084.02533 480.32 1085.98533 478.845333 1087.348 476.904 1088.71067 474.962667 1089.392 472.610667 1089.392 469.848 1089.392 467.757333 1089.056 466.012 1088.384 464.612 1087.712 463.212 1086.76 462.054667 1085.528 461.14 1084.296 460.225333 1082.84 459.450667 1081.16 458.816 1079.48 458.181333 1077.61333 457.621333 1075.56 457.136 1073.58133 456.650667 1072.06 456.137333 1070.996 455.596 1069.932 455.054667 1069.4 454.242667 1069.4 453.16 1069.4 452.114667 1069.91333 451.321333 1070.94 450.78 1071.96667 450.238667 1073.41333 449.968 1075.28 449.968 1076.58667 449.968 1077.94 450.089333 1079.34 450.332 1080.74 450.574667 1082.13067 450.929333 1083.512 451.396 1084.89333 451.862667 1086.2 452.469333 1087.432 453.216v0V443.864C1085.71467 443.005333 1083.792 442.333333 1081.664 441.848 1079.536 441.362667 1077.37067 441.12 1075.168 441.12 1071.77067 441.12 1068.82133 441.633333 1066.32 442.66 1063.81867 443.686667 1061.896 445.152 1060.552 447.056 1059.208 448.96 1058.536 451.256 1058.536 453.944 1058.536 455.698667 1058.79733 457.229333 1059.32 458.536 1059.84267 459.842667 1060.664 460.990667 1061.784 461.98 1062.904 462.969333 1064.36 463.837333 1066.152 464.584 1067.944 465.330667 1070.10933 466.002667 1072.648 466.6 1073.80533 466.861333 1074.81333 467.16 1075.672 467.496 1076.53067 467.832 1077.20267 468.233333 1077.688 468.7 1078.17333 469.166667 1078.416 469.792 1078.416 470.576 1078.416 471.658667 1077.87467 472.498667 1076.792 473.096 1075.70933 473.693333 1074.104 473.992 1071.976 473.992 1069.81067 473.992 1067.636 473.684 1065.452 473.068 1063.268 472.452 1061.13067 471.546667 1059.04 470.352v0V479.816C1061.20533 480.861333 1063.36133 481.626667 1065.508 482.112 1067.65467 482.597333 1069.86667 482.84 1072.144 482.84z" id="LOADSOFPEOPLEAREPLAYINGONTHEIRSMARTSPEAKERS"/></g></g></g></svg>