<?xml version="1.0" encoding="UTF-8"?>
<svg width="1200px" height="677px" viewBox="0 0 1200 677" version="1.1" xmlns="http://www.w3.org/2000/svg" xmlns:xlink="http://www.w3.org/1999/xlink">
    <!-- Generator: Sketch 61.2 (89653) - https://sketch.com -->
    <title>greg-text-01 copy 4</title>
    <desc>Created with Sketch.</desc>
    <g id="Assets" stroke="none" stroke-width="1" fill="none" fill-rule="evenodd">
        <g id="Greg" transform="translate(0.000000, 3.000000)" fill="#FFFFFF" fill-rule="nonzero">
            <g id="greg-text-02a" transform="translate(0.000000, -3.000000)">
                <path d="M814.488,265 L814.488,250.16 C817.064,245.978667 819.602667,241.788 822.104,237.588 C824.605333,233.388 827.050667,229.178667 829.44,224.96 L829.44,224.96 L817.456,224.96 C816.149333,227.610667 814.805333,230.270667 813.424,232.94 C812.042667,235.609333 810.661333,238.269333 809.28,240.92 C807.861333,238.269333 806.470667,235.618667 805.108,232.968 C803.745333,230.317333 802.392,227.648 801.048,224.96 L801.048,224.96 L788.672,224.96 C791.024,229.178667 793.450667,233.388 795.952,237.588 C798.453333,241.788 800.992,245.978667 803.568,250.16 L803.568,250.16 L803.568,265 L814.488,265 Z M852.68,265.84 C855.778667,265.84 858.578667,265.354667 861.08,264.384 C863.581333,263.413333 865.718667,262.013333 867.492,260.184 C869.265333,258.354667 870.628,256.152 871.58,253.576 C872.532,251 873.008,248.125333 873.008,244.952 C873.008,241.741333 872.532,238.857333 871.58,236.3 C870.628,233.742667 869.265333,231.558667 867.492,229.748 C865.718667,227.937333 863.581333,226.546667 861.08,225.576 C858.578667,224.605333 855.778667,224.12 852.68,224.12 C849.581333,224.12 846.781333,224.605333 844.28,225.576 C841.778667,226.546667 839.641333,227.937333 837.868,229.748 C836.094667,231.558667 834.732,233.742667 833.78,236.3 C832.828,238.857333 832.352,241.741333 832.352,244.952 C832.352,248.125333 832.828,251 833.78,253.576 C834.732,256.152 836.094667,258.354667 837.868,260.184 C839.641333,262.013333 841.778667,263.413333 844.28,264.384 C846.781333,265.354667 849.581333,265.84 852.68,265.84 Z M852.68,256.432 C849.768,256.432 847.537333,255.442667 845.988,253.464 C844.438667,251.485333 843.664,248.648 843.664,244.952 C843.664,241.293333 844.438667,238.474667 845.988,236.496 C847.537333,234.517333 849.768,233.528 852.68,233.528 C855.592,233.528 857.822667,234.517333 859.372,236.496 C860.921333,238.474667 861.696,241.293333 861.696,244.952 C861.696,248.648 860.921333,251.485333 859.372,253.464 C857.822667,255.442667 855.592,256.432 852.68,256.432 Z M896.584,265.84 C900.28,265.84 903.444,265.130667 906.076,263.712 C908.708,262.293333 910.724,260.249333 912.124,257.58 C913.524,254.910667 914.224,251.728 914.224,248.032 L914.224,248.032 L914.224,224.96 L903.472,224.96 L903.472,249.264 C903.472,251.541333 902.874667,253.305333 901.68,254.556 C900.485333,255.806667 898.786667,256.432 896.584,256.432 C894.418667,256.432 892.729333,255.806667 891.516,254.556 C890.302667,253.305333 889.696,251.541333 889.696,249.264 L889.696,249.264 L889.696,224.96 L878.776,224.96 L878.776,248.032 C878.776,251.728 879.485333,254.910667 880.904,257.58 C882.322667,260.249333 884.366667,262.293333 887.036,263.712 C889.705333,265.130667 892.888,265.84 896.584,265.84 Z M953.48,265.84 C955.906667,265.84 958.174667,265.597333 960.284,265.112 C962.393333,264.626667 964.288,263.954667 965.968,263.096 L965.968,263.096 L965.968,253.408 C964.213333,254.453333 962.468,255.218667 960.732,255.704 C958.996,256.189333 957.157333,256.432 955.216,256.432 C951.594667,256.432 948.785333,255.433333 946.788,253.436 C944.790667,251.438667 943.792,248.610667 943.792,244.952 C943.792,241.293333 944.828,238.474667 946.9,236.496 C948.972,234.517333 951.874667,233.528 955.608,233.528 C957.437333,233.528 959.182667,233.770667 960.844,234.256 C962.505333,234.741333 964.064,235.469333 965.52,236.44 L965.52,236.44 L965.52,226.584 C962.16,224.941333 958.296,224.12 953.928,224.12 C950.68,224.12 947.74,224.614667 945.108,225.604 C942.476,226.593333 940.217333,228.002667 938.332,229.832 C936.446667,231.661333 935,233.854667 933.992,236.412 C932.984,238.969333 932.48,241.816 932.48,244.952 C932.48,248.2 932.956,251.121333 933.908,253.716 C934.86,256.310667 936.241333,258.504 938.052,260.296 C939.862667,262.088 942.065333,263.46 944.66,264.412 C947.254667,265.364 950.194667,265.84 953.48,265.84 Z M979.576,265 C980.36,262.461333 981.125333,259.96 981.872,257.496 L981.872,257.496 L996.488,257.496 C996.861333,258.728 997.244,259.969333 997.636,261.22 C998.028,262.470667 998.410667,263.730667 998.784,265 L998.784,265 L1010.6,265 C1008.21067,258.317333 1005.74667,251.634667 1003.208,244.952 C1000.66933,238.269333 998.056,231.605333 995.368,224.96 L995.368,224.96 L983.328,224.96 C980.714667,231.269333 978.138667,237.765333 975.6,244.448 C973.061333,251.130667 970.56,257.981333 968.096,265 L968.096,265 L979.576,265 Z M993.8,248.984 L984.56,248.984 C985.306667,246.669333 986.072,244.364 986.856,242.068 C987.64,239.772 988.424,237.466667 989.208,235.152 C989.992,237.429333 990.766667,239.716 991.532,242.012 C992.297333,244.308 993.053333,246.632 993.8,248.984 L993.8,248.984 Z M1025.216,265 L1025.216,240.696 C1027.64267,244.578667 1030.116,248.582667 1032.636,252.708 C1035.156,256.833333 1037.61067,260.930667 1040,265 L1040,265 L1050.976,265 L1050.976,224.96 L1040.56,224.96 L1040.56,248.816 C1038.13333,244.746667 1035.688,240.714667 1033.224,236.72 C1030.76,232.725333 1028.27733,228.805333 1025.776,224.96 L1025.776,224.96 L1014.8,224.96 L1014.8,265 L1025.216,265 Z M802.28,327 L802.28,314.288 L806.76,314.288 C810.381333,314.288 813.442667,313.756 815.944,312.692 C818.445333,311.628 820.349333,310.078667 821.656,308.044 C822.962667,306.009333 823.616,303.536 823.616,300.624 C823.616,296.218667 822.169333,292.84 819.276,290.488 C816.382667,288.136 812.210667,286.96 806.76,286.96 L806.76,286.96 L791.696,286.96 L791.696,327 L802.28,327 Z M806.256,305.888 L802.28,305.888 L802.28,295.36 L806.256,295.36 C810.474667,295.36 812.584,297.114667 812.584,300.624 C812.584,304.133333 810.474667,305.888 806.256,305.888 L806.256,305.888 Z M857.888,327 L857.888,317.592 L840.08,317.592 L840.08,286.96 L829.16,286.96 L829.16,327 L857.888,327 Z M870.656,327 C871.44,324.461333 872.205333,321.96 872.952,319.496 L872.952,319.496 L887.568,319.496 C887.941333,320.728 888.324,321.969333 888.716,323.22 C889.108,324.470667 889.490667,325.730667 889.864,327 L889.864,327 L901.68,327 C899.290667,320.317333 896.826667,313.634667 894.288,306.952 C891.749333,300.269333 889.136,293.605333 886.448,286.96 L886.448,286.96 L874.408,286.96 C871.794667,293.269333 869.218667,299.765333 866.68,306.448 C864.141333,313.130667 861.64,319.981333 859.176,327 L859.176,327 L870.656,327 Z M884.88,310.984 L875.64,310.984 C876.386667,308.669333 877.152,306.364 877.936,304.068 C878.72,301.772 879.504,299.466667 880.288,297.152 C881.072,299.429333 881.846667,301.716 882.612,304.012 C883.377333,306.308 884.133333,308.632 884.88,310.984 L884.88,310.984 Z M928.672,327 L928.672,312.16 C931.248,307.978667 933.786667,303.788 936.288,299.588 C938.789333,295.388 941.234667,291.178667 943.624,286.96 L943.624,286.96 L931.64,286.96 C930.333333,289.610667 928.989333,292.270667 927.608,294.94 C926.226667,297.609333 924.845333,300.269333 923.464,302.92 C922.045333,300.269333 920.654667,297.618667 919.292,294.968 C917.929333,292.317333 916.576,289.648 915.232,286.96 L915.232,286.96 L902.856,286.96 C905.208,291.178667 907.634667,295.388 910.136,299.588 C912.637333,303.788 915.176,307.978667 917.752,312.16 L917.752,312.16 L917.752,327 L928.672,327 Z M968.768,327 C969.552,324.461333 970.317333,321.96 971.064,319.496 L971.064,319.496 L985.68,319.496 C986.053333,320.728 986.436,321.969333 986.828,323.22 C987.22,324.470667 987.602667,325.730667 987.976,327 L987.976,327 L999.792,327 C997.402667,320.317333 994.938667,313.634667 992.4,306.952 C989.861333,300.269333 987.248,293.605333 984.56,286.96 L984.56,286.96 L972.52,286.96 C969.906667,293.269333 967.330667,299.765333 964.792,306.448 C962.253333,313.130667 959.752,319.981333 957.288,327 L957.288,327 L968.768,327 Z M982.992,310.984 L973.752,310.984 C974.498667,308.669333 975.264,306.364 976.048,304.068 C976.832,301.772 977.616,299.466667 978.4,297.152 C979.184,299.429333 979.958667,301.716 980.724,304.012 C981.489333,306.308 982.245333,308.632 982.992,310.984 L982.992,310.984 Z M1032.72,327 L1032.72,317.592 L1014.912,317.592 L1014.912,286.96 L1003.992,286.96 L1003.992,327 L1032.72,327 Z M1056.072,327.84 C1059.17067,327.84 1061.97067,327.354667 1064.472,326.384 C1066.97333,325.413333 1069.11067,324.013333 1070.884,322.184 C1072.65733,320.354667 1074.02,318.152 1074.972,315.576 C1075.924,313 1076.4,310.125333 1076.4,306.952 C1076.4,303.741333 1075.924,300.857333 1074.972,298.3 C1074.02,295.742667 1072.65733,293.558667 1070.884,291.748 C1069.11067,289.937333 1066.97333,288.546667 1064.472,287.576 C1061.97067,286.605333 1059.17067,286.12 1056.072,286.12 C1052.97333,286.12 1050.17333,286.605333 1047.672,287.576 C1045.17067,288.546667 1043.03333,289.937333 1041.26,291.748 C1039.48667,293.558667 1038.124,295.742667 1037.172,298.3 C1036.22,300.857333 1035.744,303.741333 1035.744,306.952 C1035.744,310.125333 1036.22,313 1037.172,315.576 C1038.124,318.152 1039.48667,320.354667 1041.26,322.184 C1043.03333,324.013333 1045.17067,325.413333 1047.672,326.384 C1050.17333,327.354667 1052.97333,327.84 1056.072,327.84 Z M1056.072,318.432 C1053.16,318.432 1050.92933,317.442667 1049.38,315.464 C1047.83067,313.485333 1047.056,310.648 1047.056,306.952 C1047.056,303.293333 1047.83067,300.474667 1049.38,298.496 C1050.92933,296.517333 1053.16,295.528 1056.072,295.528 C1058.984,295.528 1061.21467,296.517333 1062.764,298.496 C1064.31333,300.474667 1065.088,303.293333 1065.088,306.952 C1065.088,310.648 1064.31333,313.485333 1062.764,315.464 C1061.21467,317.442667 1058.984,318.432 1056.072,318.432 Z M1092.752,327 L1092.752,302.696 C1095.17867,306.578667 1097.652,310.582667 1100.172,314.708 C1102.692,318.833333 1105.14667,322.930667 1107.536,327 L1107.536,327 L1118.512,327 L1118.512,286.96 L1108.096,286.96 L1108.096,310.816 C1105.66933,306.746667 1103.224,302.714667 1100.76,298.72 C1098.296,294.725333 1095.81333,290.805333 1093.312,286.96 L1093.312,286.96 L1082.336,286.96 L1082.336,327 L1092.752,327 Z M1145.616,327.84 C1147.408,327.84 1149.20933,327.728 1151.02,327.504 C1152.83067,327.28 1154.576,326.934667 1156.256,326.468 C1157.936,326.001333 1159.42933,325.450667 1160.736,324.816 L1160.736,324.816 L1160.736,303.928 L1145.112,303.928 L1145.112,311.992 L1150.936,311.992 L1150.936,317.984 C1150.22667,318.170667 1149.48933,318.310667 1148.724,318.404 C1147.95867,318.497333 1147.20267,318.544 1146.456,318.544 C1142.94667,318.544 1140.28667,317.564 1138.476,315.604 C1136.66533,313.644 1135.76,310.76 1135.76,306.952 C1135.76,303.293333 1136.796,300.474667 1138.868,298.496 C1140.94,296.517333 1143.89867,295.528 1147.744,295.528 C1150.096,295.528 1152.252,295.78 1154.212,296.284 C1156.172,296.788 1157.992,297.506667 1159.672,298.44 L1159.672,298.44 L1159.672,288.584 C1155.752,286.941333 1151.30933,286.12 1146.344,286.12 C1143.05867,286.12 1140.072,286.614667 1137.384,287.604 C1134.696,288.593333 1132.38133,290.002667 1130.44,291.832 C1128.49867,293.661333 1127.01467,295.854667 1125.988,298.412 C1124.96133,300.969333 1124.448,303.816 1124.448,306.952 C1124.448,310.2 1124.93333,313.112 1125.904,315.688 C1126.87467,318.264 1128.27467,320.457333 1130.104,322.268 C1131.93333,324.078667 1134.15467,325.46 1136.768,326.412 C1139.38133,327.364 1142.33067,327.84 1145.616,327.84 Z M802.616,389 L802.616,348.96 L791.696,348.96 L791.696,389 L802.616,389 Z M820.76,389 L820.76,374.552 L835.712,374.552 L835.712,365.424 L820.76,365.424 L820.76,358.088 L837.84,358.088 L837.84,348.96 L810.008,348.96 L810.008,389 L820.76,389 Z M878.16,389 L878.16,374.16 C880.736,369.978667 883.274667,365.788 885.776,361.588 C888.277333,357.388 890.722667,353.178667 893.112,348.96 L893.112,348.96 L881.128,348.96 C879.821333,351.610667 878.477333,354.270667 877.096,356.94 C875.714667,359.609333 874.333333,362.269333 872.952,364.92 C871.533333,362.269333 870.142667,359.618667 868.78,356.968 C867.417333,354.317333 866.064,351.648 864.72,348.96 L864.72,348.96 L852.344,348.96 C854.696,353.178667 857.122667,357.388 859.624,361.588 C862.125333,365.788 864.664,369.978667 867.24,374.16 L867.24,374.16 L867.24,389 L878.16,389 Z M916.352,389.84 C919.450667,389.84 922.250667,389.354667 924.752,388.384 C927.253333,387.413333 929.390667,386.013333 931.164,384.184 C932.937333,382.354667 934.3,380.152 935.252,377.576 C936.204,375 936.68,372.125333 936.68,368.952 C936.68,365.741333 936.204,362.857333 935.252,360.3 C934.3,357.742667 932.937333,355.558667 931.164,353.748 C929.390667,351.937333 927.253333,350.546667 924.752,349.576 C922.250667,348.605333 919.450667,348.12 916.352,348.12 C913.253333,348.12 910.453333,348.605333 907.952,349.576 C905.450667,350.546667 903.313333,351.937333 901.54,353.748 C899.766667,355.558667 898.404,357.742667 897.452,360.3 C896.5,362.857333 896.024,365.741333 896.024,368.952 C896.024,372.125333 896.5,375 897.452,377.576 C898.404,380.152 899.766667,382.354667 901.54,384.184 C903.313333,386.013333 905.450667,387.413333 907.952,388.384 C910.453333,389.354667 913.253333,389.84 916.352,389.84 Z M916.352,380.432 C913.44,380.432 911.209333,379.442667 909.66,377.464 C908.110667,375.485333 907.336,372.648 907.336,368.952 C907.336,365.293333 908.110667,362.474667 909.66,360.496 C911.209333,358.517333 913.44,357.528 916.352,357.528 C919.264,357.528 921.494667,358.517333 923.044,360.496 C924.593333,362.474667 925.368,365.293333 925.368,368.952 C925.368,372.648 924.593333,375.485333 923.044,377.464 C921.494667,379.442667 919.264,380.432 916.352,380.432 Z M960.256,389.84 C963.952,389.84 967.116,389.130667 969.748,387.712 C972.38,386.293333 974.396,384.249333 975.796,381.58 C977.196,378.910667 977.896,375.728 977.896,372.032 L977.896,372.032 L977.896,348.96 L967.144,348.96 L967.144,373.264 C967.144,375.541333 966.546667,377.305333 965.352,378.556 C964.157333,379.806667 962.458667,380.432 960.256,380.432 C958.090667,380.432 956.401333,379.806667 955.188,378.556 C953.974667,377.305333 953.368,375.541333 953.368,373.264 L953.368,373.264 L953.368,348.96 L942.448,348.96 L942.448,372.032 C942.448,375.728 943.157333,378.910667 944.576,381.58 C945.994667,384.249333 948.038667,386.293333 950.708,387.712 C953.377333,389.130667 956.56,389.84 960.256,389.84 Z M989.88,365.704 C990.888,364.696 991.756,363.585333 992.484,362.372 C993.212,361.158667 993.781333,359.889333 994.192,358.564 C994.602667,357.238667 994.808,355.978667 994.808,354.784 C994.808,352.768 994.36,351.228 993.464,350.164 C992.568,349.1 991.205333,348.568 989.376,348.568 C987.808,348.568 986.566667,349.025333 985.652,349.94 C984.737333,350.854667 984.28,352.058667 984.28,353.552 C984.28,354.709333 984.578667,355.68 985.176,356.464 C985.773333,357.248 986.594667,357.789333 987.64,358.088 C986.930667,360.626667 985.344,363.165333 982.88,365.704 L982.88,365.704 L989.88,365.704 Z M1024.88,389 C1027.456,382.317333 1029.99467,375.634667 1032.496,368.952 C1034.99733,362.269333 1037.424,355.605333 1039.776,348.96 L1039.776,348.96 L1028.184,348.96 C1026.728,353.813333 1025.244,358.648 1023.732,363.464 C1022.22,368.28 1020.68,373.096 1019.112,377.912 C1017.58133,373.096 1016.06,368.28 1014.548,363.464 C1013.036,358.648 1011.552,353.813333 1010.096,348.96 L1010.096,348.96 L998.168,348.96 C1000.52,355.605333 1002.94667,362.269333 1005.448,368.952 C1007.94933,375.634667 1010.488,382.317333 1013.064,389 L1013.064,389 L1024.88,389 Z M1073.712,389 L1073.712,380.264 L1054.616,380.264 L1054.616,372.984 L1070.408,372.984 L1070.408,364.248 L1054.616,364.248 L1054.616,357.696 L1072.648,357.696 L1072.648,348.96 L1043.976,348.96 L1043.976,389 L1073.712,389 Z M811.408,451.84 C813.2,451.84 815.001333,451.728 816.812,451.504 C818.622667,451.28 820.368,450.934667 822.048,450.468 C823.728,450.001333 825.221333,449.450667 826.528,448.816 L826.528,448.816 L826.528,427.928 L810.904,427.928 L810.904,435.992 L816.728,435.992 L816.728,441.984 C816.018667,442.170667 815.281333,442.310667 814.516,442.404 C813.750667,442.497333 812.994667,442.544 812.248,442.544 C808.738667,442.544 806.078667,441.564 804.268,439.604 C802.457333,437.644 801.552,434.76 801.552,430.952 C801.552,427.293333 802.588,424.474667 804.66,422.496 C806.732,420.517333 809.690667,419.528 813.536,419.528 C815.888,419.528 818.044,419.78 820.004,420.284 C821.964,420.788 823.784,421.506667 825.464,422.44 L825.464,422.44 L825.464,412.584 C821.544,410.941333 817.101333,410.12 812.136,410.12 C808.850667,410.12 805.864,410.614667 803.176,411.604 C800.488,412.593333 798.173333,414.002667 796.232,415.832 C794.290667,417.661333 792.806667,419.854667 791.78,422.412 C790.753333,424.969333 790.24,427.816 790.24,430.952 C790.24,434.2 790.725333,437.112 791.696,439.688 C792.666667,442.264 794.066667,444.457333 795.896,446.268 C797.725333,448.078667 799.946667,449.46 802.56,450.412 C805.173333,451.364 808.122667,451.84 811.408,451.84 Z M852.008,451.84 C855.106667,451.84 857.906667,451.354667 860.408,450.384 C862.909333,449.413333 865.046667,448.013333 866.82,446.184 C868.593333,444.354667 869.956,442.152 870.908,439.576 C871.86,437 872.336,434.125333 872.336,430.952 C872.336,427.741333 871.86,424.857333 870.908,422.3 C869.956,419.742667 868.593333,417.558667 866.82,415.748 C865.046667,413.937333 862.909333,412.546667 860.408,411.576 C857.906667,410.605333 855.106667,410.12 852.008,410.12 C848.909333,410.12 846.109333,410.605333 843.608,411.576 C841.106667,412.546667 838.969333,413.937333 837.196,415.748 C835.422667,417.558667 834.06,419.742667 833.108,422.3 C832.156,424.857333 831.68,427.741333 831.68,430.952 C831.68,434.125333 832.156,437 833.108,439.576 C834.06,442.152 835.422667,444.354667 837.196,446.184 C838.969333,448.013333 841.106667,449.413333 843.608,450.384 C846.109333,451.354667 848.909333,451.84 852.008,451.84 Z M852.008,442.432 C849.096,442.432 846.865333,441.442667 845.316,439.464 C843.766667,437.485333 842.992,434.648 842.992,430.952 C842.992,427.293333 843.766667,424.474667 845.316,422.496 C846.865333,420.517333 849.096,419.528 852.008,419.528 C854.92,419.528 857.150667,420.517333 858.7,422.496 C860.249333,424.474667 861.024,427.293333 861.024,430.952 C861.024,434.648 860.249333,437.485333 858.7,439.464 C857.150667,441.442667 854.92,442.432 852.008,442.432 Z M898.264,451 L898.264,420.368 L910.248,420.368 L910.248,410.96 L875.36,410.96 L875.36,420.368 L887.344,420.368 L887.344,451 L898.264,451 Z M920.328,451.504 C921.522667,451.504 922.549333,451.252 923.408,450.748 C924.266667,450.244 924.929333,449.572 925.396,448.732 C925.862667,447.892 926.096,446.968 926.096,445.96 C926.096,444.952 925.862667,444.028 925.396,443.188 C924.929333,442.348 924.266667,441.685333 923.408,441.2 C922.549333,440.714667 921.522667,440.472 920.328,440.472 C919.133333,440.472 918.106667,440.714667 917.248,441.2 C916.389333,441.685333 915.726667,442.348 915.26,443.188 C914.793333,444.028 914.56,444.952 914.56,445.96 C914.56,446.968 914.793333,447.892 915.26,448.732 C915.726667,449.572 916.389333,450.244 917.248,450.748 C918.106667,451.252 919.133333,451.504 920.328,451.504 Z M939.032,451.504 C940.226667,451.504 941.253333,451.252 942.112,450.748 C942.970667,450.244 943.633333,449.572 944.1,448.732 C944.566667,447.892 944.8,446.968 944.8,445.96 C944.8,444.952 944.566667,444.028 944.1,443.188 C943.633333,442.348 942.970667,441.685333 942.112,441.2 C941.253333,440.714667 940.226667,440.472 939.032,440.472 C937.837333,440.472 936.810667,440.714667 935.952,441.2 C935.093333,441.685333 934.430667,442.348 933.964,443.188 C933.497333,444.028 933.264,444.952 933.264,445.96 C933.264,446.968 933.497333,447.892 933.964,448.732 C934.430667,449.572 935.093333,450.244 935.952,450.748 C936.810667,451.252 937.837333,451.504 939.032,451.504 Z M957.736,451.504 C958.930667,451.504 959.957333,451.252 960.816,450.748 C961.674667,450.244 962.337333,449.572 962.804,448.732 C963.270667,447.892 963.504,446.968 963.504,445.96 C963.504,444.952 963.270667,444.028 962.804,443.188 C962.337333,442.348 961.674667,441.685333 960.816,441.2 C959.957333,440.714667 958.930667,440.472 957.736,440.472 C956.541333,440.472 955.514667,440.714667 954.656,441.2 C953.797333,441.685333 953.134667,442.348 952.668,443.188 C952.201333,444.028 951.968,444.952 951.968,445.96 C951.968,446.968 952.201333,447.892 952.668,448.732 C953.134667,449.572 953.797333,450.244 954.656,450.748 C955.514667,451.252 956.541333,451.504 957.736,451.504 Z" id="YOUCANPLAYALONGIFYOU’VEGOT…"></path>
            </g>
        </g>
    </g>
</svg>