<svg width="1200" height="677" viewBox="0 0 1200 677" xmlns="http://www.w3.org/2000/svg" xmlns:xlink="http://www.w3.org/1999/xlink"><title>greg-text-05</title><desc>Created with Sketch.</desc><g id="Assets" stroke="none" stroke-width="1" fill="none" fill-rule="evenodd"><g id="Greg" fill="#fff" fill-rule="nonzero"><g id="greg-text-05"><path d="M802.616 388V371.816H816.84V388H827.76V347.96H816.84V362.408H802.616V347.96H791.696V388H802.616zM864.888 388V379.264H845.792V371.984H861.584V363.248H845.792V356.696H863.824V347.96H835.152V388H864.888zM898.88 388V378.592H881.072V347.96H870.152V388H898.88zM932.088 388V378.592H914.28V347.96H903.36V388H932.088zM955.44 388.84C958.538667 388.84 961.338667 388.354667 963.84 387.384 966.341333 386.413333 968.478667 385.013333 970.252 383.184 972.025333 381.354667 973.388 379.152 974.34 376.576 975.292 374 975.768 371.125333 975.768 367.952 975.768 364.741333 975.292 361.857333 974.34 359.3 973.388 356.742667 972.025333 354.558667 970.252 352.748 968.478667 350.937333 966.341333 349.546667 963.84 348.576 961.338667 347.605333 958.538667 347.12 955.44 347.12 952.341333 347.12 949.541333 347.605333 947.04 348.576 944.538667 349.546667 942.401333 350.937333 940.628 352.748 938.854667 354.558667 937.492 356.742667 936.54 359.3 935.588 361.857333 935.112 364.741333 935.112 367.952 935.112 371.125333 935.588 374 936.54 376.576 937.492 379.152 938.854667 381.354667 940.628 383.184 942.401333 385.013333 944.538667 386.413333 947.04 387.384 949.541333 388.354667 952.341333 388.84 955.44 388.84zM955.44 379.432C952.528 379.432 950.297333 378.442667 948.748 376.464 947.198667 374.485333 946.424 371.648 946.424 367.952 946.424 364.293333 947.198667 361.474667 948.748 359.496 950.297333 357.517333 952.528 356.528 955.44 356.528 958.352 356.528 960.582667 357.517333 962.132 359.496 963.681333 361.474667 964.456 364.293333 964.456 367.952 964.456 371.648 963.681333 374.485333 962.132 376.464 960.582667 378.442667 958.352 379.432 955.44 379.432zM1004.384 388V363.696C1005.616 366.533333 1006.876 369.370667 1008.164 372.208 1009.452 375.045333 1010.74933 377.882667 1012.056 380.72v0H1020.456C1021.72533 377.882667 1022.98533 375.036 1024.236 372.18 1025.48667 369.324 1026.728 366.44 1027.96 363.528v0V388H1038.152V347.96H1025.16C1023.74133 351.730667 1022.304 355.454667 1020.848 359.132 1019.392 362.809333 1017.91733 366.44 1016.424 370.024 1014.856 366.402667 1013.316 362.744 1011.804 359.048 1010.292 355.352 1008.808 351.656 1007.352 347.96v0H994.192V388H1004.384zM1075.28 388V379.264H1056.184V371.984H1071.976V363.248H1056.184V356.696H1074.216V347.96H1045.544V388H1075.28zM1109.272 388V378.592H1091.464V347.96H1080.544V388H1109.272z" id="HELLOMEL"/></g></g></g></svg>