<svg width="1200" height="677" viewBox="0 0 1200 677" xmlns="http://www.w3.org/2000/svg" xmlns:xlink="http://www.w3.org/1999/xlink"><title>greg-text-08</title><desc>Created with Sketch.</desc><g id="Assets" stroke="none" stroke-width="1" fill="none" fill-rule="evenodd"><g id="Greg" fill="#fff" fill-rule="nonzero"><g id="greg-text-08"><path d="M802.28 296V282.504H807.768C809.074667 284.706667 810.334667 286.937333 811.548 289.196 812.761333 291.454667 813.965333 293.722667 815.16 296v0H827.2C825.669333 293.274667 824.110667 290.605333 822.524 287.992 820.937333 285.378667 819.322667 282.784 817.68 280.208 819.770667 279.088 821.385333 277.594667 822.524 275.728 823.662667 273.861333 824.232 271.696 824.232 269.232 824.232 264.938667 822.757333 261.653333 819.808 259.376 816.858667 257.098667 812.602667 255.96 807.04 255.96v0H791.696V296H802.28zM806.536 274.104H802.28V264.36H806.536C808.813333 264.36 810.493333 264.761333 811.576 265.564 812.658667 266.366667 813.2 267.589333 813.2 269.232 813.2 270.837333 812.658667 272.050667 811.576 272.872 810.493333 273.693333 808.813333 274.104 806.536 274.104v0zM842.432 296V255.96H831.512V296H842.432zM869.536 296.84C871.328 296.84 873.129333 296.728 874.94 296.504 876.750667 296.28 878.496 295.934667 880.176 295.468 881.856 295.001333 883.349333 294.450667 884.656 293.816v0V272.928H869.032V280.992H874.856V286.984C874.146667 287.170667 873.409333 287.310667 872.644 287.404 871.878667 287.497333 871.122667 287.544 870.376 287.544 866.866667 287.544 864.206667 286.564 862.396 284.604 860.585333 282.644 859.68 279.76 859.68 275.952 859.68 272.293333 860.716 269.474667 862.788 267.496 864.86 265.517333 867.818667 264.528 871.664 264.528 874.016 264.528 876.172 264.78 878.132 265.284 880.092 265.788 881.912 266.506667 883.592 267.44v0V257.584C879.672 255.941333 875.229333 255.12 870.264 255.12 866.978667 255.12 863.992 255.614667 861.304 256.604 858.616 257.593333 856.301333 259.002667 854.36 260.832 852.418667 262.661333 850.934667 264.854667 849.908 267.412 848.881333 269.969333 848.368 272.816 848.368 275.952 848.368 279.2 848.853333 282.112 849.824 284.688 850.794667 287.264 852.194667 289.457333 854.024 291.268 855.853333 293.078667 858.074667 294.46 860.688 295.412 863.301333 296.364 866.250667 296.84 869.536 296.84zM902.184 296V279.816H916.408V296H927.328V255.96H916.408V270.408H902.184V255.96H891.264V296H902.184zM954.712 296V265.368H966.696V255.96H931.808V265.368H943.792V296H954.712zM811.688 358V327.368H823.672V317.96H788.784V327.368H800.768V358H811.688zM839.072 358V341.816H853.296V358H864.216V317.96H853.296V332.408H839.072V317.96H828.152V358H839.072zM879.896 358C880.68 355.461333 881.445333 352.96 882.192 350.496v0H896.808C897.181333 351.728 897.564 352.969333 897.956 354.22 898.348 355.470667 898.730667 356.730667 899.104 358v0H910.92C908.530667 351.317333 906.066667 344.634667 903.528 337.952 900.989333 331.269333 898.376 324.605333 895.688 317.96v0H883.648C881.034667 324.269333 878.458667 330.765333 875.92 337.448 873.381333 344.130667 870.88 350.981333 868.416 358v0H879.896zM894.12 341.984H884.88C885.626667 339.669333 886.392 337.364 887.176 335.068 887.96 332.772 888.744 330.466667 889.528 328.152 890.312 330.429333 891.086667 332.716 891.852 335.012 892.617333 337.308 893.373333 339.632 894.12 341.984v0zM935.112 358V327.368H947.096V317.96H912.208V327.368H924.192V358H935.112zM956.336 334.704C957.344 333.696 958.212 332.585333 958.94 331.372 959.668 330.158667 960.237333 328.889333 960.648 327.564 961.058667 326.238667 961.264 324.978667 961.264 323.784 961.264 321.768 960.816 320.228 959.92 319.164 959.024 318.1 957.661333 317.568 955.832 317.568 954.264 317.568 953.022667 318.025333 952.108 318.94 951.193333 319.854667 950.736 321.058667 950.736 322.552 950.736 323.709333 951.034667 324.68 951.632 325.464 952.229333 326.248 953.050667 326.789333 954.096 327.088 953.386667 329.626667 951.8 332.165333 949.336 334.704v0h7zM979.912 358.84C983.570667 358.84 986.678667 358.336 989.236 357.328 991.793333 356.32 993.753333 354.845333 995.116 352.904 996.478667 350.962667 997.16 348.610667 997.16 345.848 997.16 343.757333 996.824 342.012 996.152 340.612 995.48 339.212 994.528 338.054667 993.296 337.14 992.064 336.225333 990.608 335.450667 988.928 334.816 987.248 334.181333 985.381333 333.621333 983.328 333.136 981.349333 332.650667 979.828 332.137333 978.764 331.596 977.7 331.054667 977.168 330.242667 977.168 329.16 977.168 328.114667 977.681333 327.321333 978.708 326.78 979.734667 326.238667 981.181333 325.968 983.048 325.968 984.354667 325.968 985.708 326.089333 987.108 326.332 988.508 326.574667 989.898667 326.929333 991.28 327.396 992.661333 327.862667 993.968 328.469333 995.2 329.216v0V319.864C993.482667 319.005333 991.56 318.333333 989.432 317.848 987.304 317.362667 985.138667 317.12 982.936 317.12 979.538667 317.12 976.589333 317.633333 974.088 318.66 971.586667 319.686667 969.664 321.152 968.32 323.056 966.976 324.96 966.304 327.256 966.304 329.944 966.304 331.698667 966.565333 333.229333 967.088 334.536 967.610667 335.842667 968.432 336.990667 969.552 337.98 970.672 338.969333 972.128 339.837333 973.92 340.584 975.712 341.330667 977.877333 342.002667 980.416 342.6 981.573333 342.861333 982.581333 343.16 983.44 343.496 984.298667 343.832 984.970667 344.233333 985.456 344.7 985.941333 345.166667 986.184 345.792 986.184 346.576 986.184 347.658667 985.642667 348.498667 984.56 349.096 983.477333 349.693333 981.872 349.992 979.744 349.992 977.578667 349.992 975.404 349.684 973.22 349.068 971.036 348.452 968.898667 347.546667 966.808 346.352v0V355.816C968.973333 356.861333 971.129333 357.626667 973.276 358.112 975.422667 358.597333 977.634667 358.84 979.912 358.84zM820.424 420V410.592H802.616V379.96H791.696V420H820.424zM843.776 420.84C846.874667 420.84 849.674667 420.354667 852.176 419.384 854.677333 418.413333 856.814667 417.013333 858.588 415.184 860.361333 413.354667 861.724 411.152 862.676 408.576 863.628 406 864.104 403.125333 864.104 399.952 864.104 396.741333 863.628 393.857333 862.676 391.3 861.724 388.742667 860.361333 386.558667 858.588 384.748 856.814667 382.937333 854.677333 381.546667 852.176 380.576 849.674667 379.605333 846.874667 379.12 843.776 379.12 840.677333 379.12 837.877333 379.605333 835.376 380.576 832.874667 381.546667 830.737333 382.937333 828.964 384.748 827.190667 386.558667 825.828 388.742667 824.876 391.3 823.924 393.857333 823.448 396.741333 823.448 399.952 823.448 403.125333 823.924 406 824.876 408.576 825.828 411.152 827.190667 413.354667 828.964 415.184 830.737333 417.013333 832.874667 418.413333 835.376 419.384 837.877333 420.354667 840.677333 420.84 843.776 420.84zM843.776 411.432C840.864 411.432 838.633333 410.442667 837.084 408.464 835.534667 406.485333 834.76 403.648 834.76 399.952 834.76 396.293333 835.534667 393.474667 837.084 391.496 838.633333 389.517333 840.864 388.528 843.776 388.528 846.688 388.528 848.918667 389.517333 850.468 391.496 852.017333 393.474667 852.792 396.293333 852.792 399.952 852.792 403.648 852.017333 406.485333 850.468 408.464 848.918667 410.442667 846.688 411.432 843.776 411.432zM889.584 420.84C892.010667 420.84 894.278667 420.597333 896.388 420.112 898.497333 419.626667 900.392 418.954667 902.072 418.096v0V408.408C900.317333 409.453333 898.572 410.218667 896.836 410.704 895.1 411.189333 893.261333 411.432 891.32 411.432 887.698667 411.432 884.889333 410.433333 882.892 408.436 880.894667 406.438667 879.896 403.610667 879.896 399.952 879.896 396.293333 880.932 393.474667 883.004 391.496 885.076 389.517333 887.978667 388.528 891.712 388.528 893.541333 388.528 895.286667 388.770667 896.948 389.256 898.609333 389.741333 900.168 390.469333 901.624 391.44v0V381.584C898.264 379.941333 894.4 379.12 890.032 379.12 886.784 379.12 883.844 379.614667 881.212 380.604 878.58 381.593333 876.321333 383.002667 874.436 384.832 872.550667 386.661333 871.104 388.854667 870.096 391.412 869.088 393.969333 868.584 396.816 868.584 399.952 868.584 403.2 869.06 406.121333 870.012 408.716 870.964 411.310667 872.345333 413.504 874.156 415.296 875.966667 417.088 878.169333 418.46 880.764 419.412 883.358667 420.364 886.298667 420.84 889.584 420.84zM918.312 420V403.48H920.272C922.362667 406.28 924.388 409.042667 926.348 411.768 928.308 414.493333 930.258667 417.237333 932.2 420v0H945.864C943.101333 416.341333 940.366667 412.748 937.66 409.22 934.953333 405.692 932.218667 402.210667 929.456 398.776 932.032 395.64 934.552 392.504 937.016 389.368 939.48 386.232 941.906667 383.096 944.296 379.96v0H931.416C929.698667 382.386667 927.944 384.822667 926.152 387.268 924.36 389.713333 922.474667 392.205333 920.496 394.744v0H918.312V379.96H907.392V420H918.312zM979.632 420V411.264H960.536V403.984H976.328V395.248H960.536V388.696H978.568V379.96H949.896V420H979.632zM1001.192 420C1005.448 420 1009.07867 419.206667 1012.084 417.62 1015.08933 416.033333 1017.38533 413.746667 1018.972 410.76 1020.55867 407.773333 1021.352 404.152 1021.352 399.896 1021.352 395.677333 1020.55867 392.084 1018.972 389.116 1017.38533 386.148 1015.08933 383.88 1012.084 382.312 1009.07867 380.744 1005.46667 379.96 1001.248 379.96v0H984.896V420H1001.192zM1000.688 410.704H995.816V389.256H1000.744C1003.80533 389.256 1006.12 390.161333 1007.688 391.972 1009.256 393.782667 1010.04 396.424 1010.04 399.896 1010.04 403.405333 1009.24667 406.084 1007.66 407.932 1006.07333 409.78 1003.74933 410.704 1000.688 410.704v0zM1050.696 420V379.96H1039.776V420H1050.696zM1068.504 420V395.696C1070.93067 399.578667 1073.404 403.582667 1075.924 407.708 1078.444 411.833333 1080.89867 415.930667 1083.288 420v0H1094.264V379.96H1083.848V403.816C1081.42133 399.746667 1078.976 395.714667 1076.512 391.72 1074.048 387.725333 1071.56533 383.805333 1069.064 379.96v0H1058.088V420H1068.504z" id="RIGHTTHAT’SLOCKEDIN"/></g></g></g></svg>