<?xml version="1.0" encoding="UTF-8"?>
<svg width="1200px" height="675px" viewBox="0 0 1200 675" version="1.1" xmlns="http://www.w3.org/2000/svg" xmlns:xlink="http://www.w3.org/1999/xlink">
    <!-- Generator: Sketch 61.2 (89653) - https://sketch.com -->
    <title>Greg</title>
    <desc>Created with Sketch.</desc>
    <g id="Greg" stroke="none" stroke-width="1" fill="none" fill-rule="evenodd">
        <path d="M702.584,265.36 C706.68,265.36 710.797333,265.104 714.936,264.592 C719.074667,264.08 723.064,263.290667 726.904,262.224 C730.744,261.157333 734.157333,259.898667 737.144,258.448 L737.144,258.448 L737.144,210.704 L701.432,210.704 L701.432,229.136 L714.744,229.136 L714.744,242.832 C713.122667,243.258667 711.437333,243.578667 709.688,243.792 C707.938667,244.005333 706.210667,244.112 704.504,244.112 C696.482667,244.112 690.402667,241.872 686.264,237.392 C682.125333,232.912 680.056,226.32 680.056,217.616 C680.056,209.253333 682.424,202.810667 687.16,198.288 C691.896,193.765333 698.658667,191.504 707.448,191.504 C712.824,191.504 717.752,192.08 722.232,193.232 C726.712,194.384 730.872,196.026667 734.712,198.16 L734.712,198.16 L734.712,175.632 C725.752,171.877333 715.597333,170 704.248,170 C696.738667,170 689.912,171.130667 683.768,173.392 C677.624,175.653333 672.333333,178.874667 667.896,183.056 C663.458667,187.237333 660.066667,192.250667 657.72,198.096 C655.373333,203.941333 654.2,210.448 654.2,217.616 C654.2,225.04 655.309333,231.696 657.528,237.584 C659.746667,243.472 662.946667,248.485333 667.128,252.624 C671.309333,256.762667 676.386667,259.92 682.36,262.096 C688.333333,264.272 695.074667,265.36 702.584,265.36 Z M776.44,263.44 L776.44,232.592 L788.984,232.592 C791.970667,237.626667 794.850667,242.725333 797.624,247.888 C800.397333,253.050667 803.149333,258.234667 805.88,263.44 L805.88,263.44 L833.4,263.44 C829.901333,257.210667 826.338667,251.109333 822.712,245.136 C819.085333,239.162667 815.394667,233.232 811.64,227.344 C816.418667,224.784 820.109333,221.370667 822.712,217.104 C825.314667,212.837333 826.616,207.888 826.616,202.256 C826.616,192.442667 823.245333,184.933333 816.504,179.728 C809.762667,174.522667 800.034667,171.92 787.32,171.92 L787.32,171.92 L752.248,171.92 L752.248,263.44 L776.44,263.44 Z M786.168,213.392 L776.44,213.392 L776.44,191.12 L786.168,191.12 C791.373333,191.12 795.213333,192.037333 797.688,193.872 C800.162667,195.706667 801.4,198.501333 801.4,202.256 C801.4,205.925333 800.162667,208.698667 797.688,210.576 C795.213333,212.453333 791.373333,213.392 786.168,213.392 L786.168,213.392 Z M911.224,263.44 L911.224,243.472 L867.576,243.472 L867.576,226.832 L903.672,226.832 L903.672,206.864 L867.576,206.864 L867.576,191.888 L908.792,191.888 L908.792,171.92 L843.256,171.92 L843.256,263.44 L911.224,263.44 Z M968.312,265.36 C972.408,265.36 976.525333,265.104 980.664,264.592 C984.802667,264.08 988.792,263.290667 992.632,262.224 C996.472,261.157333 999.885333,259.898667 1002.872,258.448 L1002.872,258.448 L1002.872,210.704 L967.16,210.704 L967.16,229.136 L980.472,229.136 L980.472,242.832 C978.850667,243.258667 977.165333,243.578667 975.416,243.792 C973.666667,244.005333 971.938667,244.112 970.232,244.112 C962.210667,244.112 956.130667,241.872 951.992,237.392 C947.853333,232.912 945.784,226.32 945.784,217.616 C945.784,209.253333 948.152,202.810667 952.888,198.288 C957.624,193.765333 964.386667,191.504 973.176,191.504 C978.552,191.504 983.48,192.08 987.96,193.232 C992.44,194.384 996.6,196.026667 1000.44,198.16 L1000.44,198.16 L1000.44,175.632 C991.48,171.877333 981.325333,170 969.976,170 C962.466667,170 955.64,171.130667 949.496,173.392 C943.352,175.653333 938.061333,178.874667 933.624,183.056 C929.186667,187.237333 925.794667,192.250667 923.448,198.096 C921.101333,203.941333 919.928,210.448 919.928,217.616 C919.928,225.04 921.037333,231.696 923.256,237.584 C925.474667,243.472 928.674667,248.485333 932.856,252.624 C937.037333,256.762667 942.114667,259.92 948.088,262.096 C954.061333,264.272 960.802667,265.36 968.312,265.36 Z M671.736,385.36 C683.170667,385.36 691.96,382.245333 698.104,376.016 C704.248,369.786667 707.32,360.869333 707.32,349.264 L707.32,349.264 L707.32,291.92 L682.36,291.92 L682.36,348.624 C682.36,358.778667 677.325333,363.856 667.256,363.856 C664.098667,363.856 661.154667,363.493333 658.424,362.768 C655.693333,362.042667 653.218667,360.997333 651,359.632 L651,359.632 L651,380.88 C653.645333,382.245333 656.76,383.333333 660.344,384.144 C663.928,384.954667 667.725333,385.36 671.736,385.36 Z M742.776,383.44 C744.568,377.637333 746.317333,371.92 748.024,366.288 L748.024,366.288 L781.432,366.288 C782.285333,369.104 783.16,371.941333 784.056,374.8 C784.952,377.658667 785.826667,380.538667 786.68,383.44 L786.68,383.44 L813.688,383.44 C808.226667,368.165333 802.594667,352.890667 796.792,337.616 C790.989333,322.341333 785.016,307.109333 778.872,291.92 L778.872,291.92 L751.352,291.92 C745.378667,306.341333 739.490667,321.189333 733.688,336.464 C727.885333,351.738667 722.168,367.397333 716.536,383.44 L716.536,383.44 L742.776,383.44 Z M775.288,346.832 L754.168,346.832 C755.874667,341.541333 757.624,336.272 759.416,331.024 C761.208,325.776 763,320.506667 764.792,315.216 C766.584,320.421333 768.354667,325.648 770.104,330.896 C771.853333,336.144 773.581333,341.456 775.288,346.832 L775.288,346.832 Z M846.584,383.44 L846.584,327.888 C849.4,334.373333 852.28,340.858667 855.224,347.344 C858.168,353.829333 861.133333,360.314667 864.12,366.8 L864.12,366.8 L883.32,366.8 C886.221333,360.314667 889.101333,353.808 891.96,347.28 C894.818667,340.752 897.656,334.16 900.472,327.504 L900.472,327.504 L900.472,383.44 L923.768,383.44 L923.768,291.92 L894.072,291.92 C890.829333,300.538667 887.544,309.050667 884.216,317.456 C880.888,325.861333 877.517333,334.16 874.104,342.352 C870.52,334.074667 867,325.712 863.544,317.264 C860.088,308.816 856.696,300.368 853.368,291.92 L853.368,291.92 L823.288,291.92 L823.288,383.44 L846.584,383.44 Z M1008.632,383.44 L1008.632,363.472 L964.984,363.472 L964.984,346.832 L1001.08,346.832 L1001.08,326.864 L964.984,326.864 L964.984,311.888 L1006.2,311.888 L1006.2,291.92 L940.664,291.92 L940.664,383.44 L1008.632,383.44 Z M1048.312,385.36 C1056.67467,385.36 1063.77867,384.208 1069.624,381.904 C1075.46933,379.6 1079.94933,376.229333 1083.064,371.792 C1086.17867,367.354667 1087.736,361.978667 1087.736,355.664 C1087.736,350.885333 1086.968,346.896 1085.432,343.696 C1083.896,340.496 1081.72,337.850667 1078.904,335.76 C1076.088,333.669333 1072.76,331.898667 1068.92,330.448 C1065.08,328.997333 1060.81333,327.717333 1056.12,326.608 C1051.59733,325.498667 1048.12,324.325333 1045.688,323.088 C1043.256,321.850667 1042.04,319.994667 1042.04,317.52 C1042.04,315.130667 1043.21333,313.317333 1045.56,312.08 C1047.90667,310.842667 1051.21333,310.224 1055.48,310.224 C1058.46667,310.224 1061.56,310.501333 1064.76,311.056 C1067.96,311.610667 1071.13867,312.421333 1074.296,313.488 C1077.45333,314.554667 1080.44,315.941333 1083.256,317.648 L1083.256,317.648 L1083.256,296.272 C1079.33067,294.309333 1074.936,292.773333 1070.072,291.664 C1065.208,290.554667 1060.25867,290 1055.224,290 C1047.45867,290 1040.71733,291.173333 1035,293.52 C1029.28267,295.866667 1024.888,299.216 1021.816,303.568 C1018.744,307.92 1017.208,313.168 1017.208,319.312 C1017.208,323.322667 1017.80533,326.821333 1019,329.808 C1020.19467,332.794667 1022.072,335.418667 1024.632,337.68 C1027.192,339.941333 1030.52,341.925333 1034.616,343.632 C1038.712,345.338667 1043.66133,346.874667 1049.464,348.24 C1052.10933,348.837333 1054.41333,349.52 1056.376,350.288 C1058.33867,351.056 1059.87467,351.973333 1060.984,353.04 C1062.09333,354.106667 1062.648,355.536 1062.648,357.328 C1062.648,359.802667 1061.41067,361.722667 1058.936,363.088 C1056.46133,364.453333 1052.792,365.136 1047.928,365.136 C1042.97867,365.136 1038.008,364.432 1033.016,363.024 C1028.024,361.616 1023.13867,359.546667 1018.36,356.816 L1018.36,356.816 L1018.36,378.448 C1023.30933,380.837333 1028.23733,382.586667 1033.144,383.696 C1038.05067,384.805333 1043.10667,385.36 1048.312,385.36 Z" id="GREGJAMES" fill="#FFFFFF" fill-rule="nonzero"></path>
    </g>
</svg>