<?xml version="1.0" encoding="UTF-8"?>
<svg width="1200px" height="677px" viewBox="0 0 1200 677" version="1.1" xmlns="http://www.w3.org/2000/svg" xmlns:xlink="http://www.w3.org/1999/xlink">
    <!-- Generator: Sketch 61.2 (89653) - https://sketch.com -->
    <title>greg-text-01 copy 6</title>
    <desc>Created with Sketch.</desc>
    <g id="Assets" stroke="none" stroke-width="1" fill="none" fill-rule="evenodd">
        <g id="Greg" transform="translate(0.000000, 3.000000)" fill="#FFFFFF" fill-rule="nonzero">
            <g id="greg-text-02d" transform="translate(0.000000, -3.000000)">
                <path d="M802.616,296 L802.616,279.816 L816.84,279.816 L816.84,296 L827.76,296 L827.76,255.96 L816.84,255.96 L816.84,270.408 L802.616,270.408 L802.616,255.96 L791.696,255.96 L791.696,296 L802.616,296 Z M864.888,296 L864.888,287.264 L845.792,287.264 L845.792,279.984 L861.584,279.984 L861.584,271.248 L845.792,271.248 L845.792,264.696 L863.824,264.696 L863.824,255.96 L835.152,255.96 L835.152,296 L864.888,296 Z M880.736,296 L880.736,282.504 L886.224,282.504 C887.530667,284.706667 888.790667,286.937333 890.004,289.196 C891.217333,291.454667 892.421333,293.722667 893.616,296 L893.616,296 L905.656,296 C904.125333,293.274667 902.566667,290.605333 900.98,287.992 C899.393333,285.378667 897.778667,282.784 896.136,280.208 C898.226667,279.088 899.841333,277.594667 900.98,275.728 C902.118667,273.861333 902.688,271.696 902.688,269.232 C902.688,264.938667 901.213333,261.653333 898.264,259.376 C895.314667,257.098667 891.058667,255.96 885.496,255.96 L885.496,255.96 L870.152,255.96 L870.152,296 L880.736,296 Z M884.992,274.104 L880.736,274.104 L880.736,264.36 L884.992,264.36 C887.269333,264.36 888.949333,264.761333 890.032,265.564 C891.114667,266.366667 891.656,267.589333 891.656,269.232 C891.656,270.837333 891.114667,272.050667 890.032,272.872 C888.949333,273.693333 887.269333,274.104 884.992,274.104 L884.992,274.104 Z M939.704,296 L939.704,287.264 L920.608,287.264 L920.608,279.984 L936.4,279.984 L936.4,271.248 L920.608,271.248 L920.608,264.696 L938.64,264.696 L938.64,255.96 L909.968,255.96 L909.968,296 L939.704,296 Z M949.728,272.704 C950.736,271.696 951.604,270.585333 952.332,269.372 C953.06,268.158667 953.629333,266.889333 954.04,265.564 C954.450667,264.238667 954.656,262.978667 954.656,261.784 C954.656,259.768 954.208,258.228 953.312,257.164 C952.416,256.1 951.053333,255.568 949.224,255.568 C947.656,255.568 946.414667,256.025333 945.5,256.94 C944.585333,257.854667 944.128,259.058667 944.128,260.552 C944.128,261.709333 944.426667,262.68 945.024,263.464 C945.621333,264.248 946.442667,264.789333 947.488,265.088 C946.778667,267.626667 945.192,270.165333 942.728,272.704 L942.728,272.704 L949.728,272.704 Z M973.304,296.84 C976.962667,296.84 980.070667,296.336 982.628,295.328 C985.185333,294.32 987.145333,292.845333 988.508,290.904 C989.870667,288.962667 990.552,286.610667 990.552,283.848 C990.552,281.757333 990.216,280.012 989.544,278.612 C988.872,277.212 987.92,276.054667 986.688,275.14 C985.456,274.225333 984,273.450667 982.32,272.816 C980.64,272.181333 978.773333,271.621333 976.72,271.136 C974.741333,270.650667 973.22,270.137333 972.156,269.596 C971.092,269.054667 970.56,268.242667 970.56,267.16 C970.56,266.114667 971.073333,265.321333 972.1,264.78 C973.126667,264.238667 974.573333,263.968 976.44,263.968 C977.746667,263.968 979.1,264.089333 980.5,264.332 C981.9,264.574667 983.290667,264.929333 984.672,265.396 C986.053333,265.862667 987.36,266.469333 988.592,267.216 L988.592,267.216 L988.592,257.864 C986.874667,257.005333 984.952,256.333333 982.824,255.848 C980.696,255.362667 978.530667,255.12 976.328,255.12 C972.930667,255.12 969.981333,255.633333 967.48,256.66 C964.978667,257.686667 963.056,259.152 961.712,261.056 C960.368,262.96 959.696,265.256 959.696,267.944 C959.696,269.698667 959.957333,271.229333 960.48,272.536 C961.002667,273.842667 961.824,274.990667 962.944,275.98 C964.064,276.969333 965.52,277.837333 967.312,278.584 C969.104,279.330667 971.269333,280.002667 973.808,280.6 C974.965333,280.861333 975.973333,281.16 976.832,281.496 C977.690667,281.832 978.362667,282.233333 978.848,282.7 C979.333333,283.166667 979.576,283.792 979.576,284.576 C979.576,285.658667 979.034667,286.498667 977.952,287.096 C976.869333,287.693333 975.264,287.992 973.136,287.992 C970.970667,287.992 968.796,287.684 966.612,287.068 C964.428,286.452 962.290667,285.546667 960.2,284.352 L960.2,284.352 L960.2,293.816 C962.365333,294.861333 964.521333,295.626667 966.668,296.112 C968.814667,296.597333 971.026667,296.84 973.304,296.84 Z M810.176,358 C811.258667,353.893333 812.304,349.777333 813.312,345.652 C814.32,341.526667 815.328,337.392 816.336,333.248 C817.306667,337.392 818.314667,341.526667 819.36,345.652 C820.405333,349.777333 821.469333,353.893333 822.552,358 L822.552,358 L833.864,358 C835.730667,351.466667 837.513333,344.858667 839.212,338.176 C840.910667,331.493333 842.506667,324.754667 844,317.96 L844,317.96 L832.52,317.96 C831.810667,322.626667 831.054667,327.293333 830.252,331.96 C829.449333,336.626667 828.6,341.237333 827.704,345.792 C826.696,341.461333 825.697333,337.121333 824.708,332.772 C823.718667,328.422667 822.757333,324.045333 821.824,319.64 L821.824,319.64 L811.352,319.64 C810.418667,324.12 809.448,328.609333 808.44,333.108 C807.432,337.606667 806.386667,342.114667 805.304,346.632 C804.408,341.965333 803.549333,337.224 802.728,332.408 C801.906667,327.592 801.141333,322.776 800.432,317.96 L800.432,317.96 L788.728,317.96 C790.258667,324.754667 791.873333,331.493333 793.572,338.176 C795.270667,344.858667 797.034667,351.466667 798.864,358 L798.864,358 L810.176,358 Z M859.344,358 L859.344,341.816 L873.568,341.816 L873.568,358 L884.488,358 L884.488,317.96 L873.568,317.96 L873.568,332.408 L859.344,332.408 L859.344,317.96 L848.424,317.96 L848.424,358 L859.344,358 Z M900.168,358 C900.952,355.461333 901.717333,352.96 902.464,350.496 L902.464,350.496 L917.08,350.496 C917.453333,351.728 917.836,352.969333 918.228,354.22 C918.62,355.470667 919.002667,356.730667 919.376,358 L919.376,358 L931.192,358 C928.802667,351.317333 926.338667,344.634667 923.8,337.952 C921.261333,331.269333 918.648,324.605333 915.96,317.96 L915.96,317.96 L903.92,317.96 C901.306667,324.269333 898.730667,330.765333 896.192,337.448 C893.653333,344.130667 891.152,350.981333 888.688,358 L888.688,358 L900.168,358 Z M914.392,341.984 L905.152,341.984 C905.898667,339.669333 906.664,337.364 907.448,335.068 C908.232,332.772 909.016,330.466667 909.8,328.152 C910.584,330.429333 911.358667,332.716 912.124,335.012 C912.889333,337.308 913.645333,339.632 914.392,341.984 L914.392,341.984 Z M955.384,358 L955.384,327.368 L967.368,327.368 L967.368,317.96 L932.48,317.96 L932.48,327.368 L944.464,327.368 L944.464,358 L955.384,358 Z M1007.128,358 L1007.128,343.16 C1009.704,338.978667 1012.24267,334.788 1014.744,330.588 C1017.24533,326.388 1019.69067,322.178667 1022.08,317.96 L1022.08,317.96 L1010.096,317.96 C1008.78933,320.610667 1007.44533,323.270667 1006.064,325.94 C1004.68267,328.609333 1003.30133,331.269333 1001.92,333.92 C1000.50133,331.269333 999.110667,328.618667 997.748,325.968 C996.385333,323.317333 995.032,320.648 993.688,317.96 L993.688,317.96 L981.312,317.96 C983.664,322.178667 986.090667,326.388 988.592,330.588 C991.093333,334.788 993.632,338.978667 996.208,343.16 L996.208,343.16 L996.208,358 L1007.128,358 Z M1045.32,358.84 C1048.41867,358.84 1051.21867,358.354667 1053.72,357.384 C1056.22133,356.413333 1058.35867,355.013333 1060.132,353.184 C1061.90533,351.354667 1063.268,349.152 1064.22,346.576 C1065.172,344 1065.648,341.125333 1065.648,337.952 C1065.648,334.741333 1065.172,331.857333 1064.22,329.3 C1063.268,326.742667 1061.90533,324.558667 1060.132,322.748 C1058.35867,320.937333 1056.22133,319.546667 1053.72,318.576 C1051.21867,317.605333 1048.41867,317.12 1045.32,317.12 C1042.22133,317.12 1039.42133,317.605333 1036.92,318.576 C1034.41867,319.546667 1032.28133,320.937333 1030.508,322.748 C1028.73467,324.558667 1027.372,326.742667 1026.42,329.3 C1025.468,331.857333 1024.992,334.741333 1024.992,337.952 C1024.992,341.125333 1025.468,344 1026.42,346.576 C1027.372,349.152 1028.73467,351.354667 1030.508,353.184 C1032.28133,355.013333 1034.41867,356.413333 1036.92,357.384 C1039.42133,358.354667 1042.22133,358.84 1045.32,358.84 Z M1045.32,349.432 C1042.408,349.432 1040.17733,348.442667 1038.628,346.464 C1037.07867,344.485333 1036.304,341.648 1036.304,337.952 C1036.304,334.293333 1037.07867,331.474667 1038.628,329.496 C1040.17733,327.517333 1042.408,326.528 1045.32,326.528 C1048.232,326.528 1050.46267,327.517333 1052.012,329.496 C1053.56133,331.474667 1054.336,334.293333 1054.336,337.952 C1054.336,341.648 1053.56133,344.485333 1052.012,346.464 C1050.46267,348.442667 1048.232,349.432 1045.32,349.432 Z M1089.224,358.84 C1092.92,358.84 1096.084,358.130667 1098.716,356.712 C1101.348,355.293333 1103.364,353.249333 1104.764,350.58 C1106.164,347.910667 1106.864,344.728 1106.864,341.032 L1106.864,341.032 L1106.864,317.96 L1096.112,317.96 L1096.112,342.264 C1096.112,344.541333 1095.51467,346.305333 1094.32,347.556 C1093.12533,348.806667 1091.42667,349.432 1089.224,349.432 C1087.05867,349.432 1085.36933,348.806667 1084.156,347.556 C1082.94267,346.305333 1082.336,344.541333 1082.336,342.264 L1082.336,342.264 L1082.336,317.96 L1071.416,317.96 L1071.416,341.032 C1071.416,344.728 1072.12533,347.910667 1073.544,350.58 C1074.96267,353.249333 1077.00667,355.293333 1079.676,356.712 C1082.34533,358.130667 1085.528,358.84 1089.224,358.84 Z M802.112,420 L802.112,395.696 C804.538667,399.578667 807.012,403.582667 809.532,407.708 C812.052,411.833333 814.506667,415.930667 816.896,420 L816.896,420 L827.872,420 L827.872,379.96 L817.456,379.96 L817.456,403.816 C815.029333,399.746667 812.584,395.714667 810.12,391.72 C807.656,387.725333 805.173333,383.805333 802.672,379.96 L802.672,379.96 L791.696,379.96 L791.696,420 L802.112,420 Z M865,420 L865,411.264 L845.904,411.264 L845.904,403.984 L861.696,403.984 L861.696,395.248 L845.904,395.248 L845.904,388.696 L863.936,388.696 L863.936,379.96 L835.264,379.96 L835.264,420 L865,420 Z M900,420 L900,411.264 L880.904,411.264 L880.904,403.984 L896.696,403.984 L896.696,395.248 L880.904,395.248 L880.904,388.696 L898.936,388.696 L898.936,379.96 L870.264,379.96 L870.264,420 L900,420 Z M921.56,420 C925.816,420 929.446667,419.206667 932.452,417.62 C935.457333,416.033333 937.753333,413.746667 939.34,410.76 C940.926667,407.773333 941.72,404.152 941.72,399.896 C941.72,395.677333 940.926667,392.084 939.34,389.116 C937.753333,386.148 935.457333,383.88 932.452,382.312 C929.446667,380.744 925.834667,379.96 921.616,379.96 L921.616,379.96 L905.264,379.96 L905.264,420 L921.56,420 Z M921.056,410.704 L916.184,410.704 L916.184,389.256 L921.112,389.256 C924.173333,389.256 926.488,390.161333 928.056,391.972 C929.624,393.782667 930.408,396.424 930.408,399.896 C930.408,403.405333 929.614667,406.084 928.028,407.932 C926.441333,409.78 924.117333,410.704 921.056,410.704 L921.056,410.704 Z M980.136,420 L980.136,389.368 L992.12,389.368 L992.12,379.96 L957.232,379.96 L957.232,389.368 L969.216,389.368 L969.216,420 L980.136,420 Z M1015.472,420.84 C1018.57067,420.84 1021.37067,420.354667 1023.872,419.384 C1026.37333,418.413333 1028.51067,417.013333 1030.284,415.184 C1032.05733,413.354667 1033.42,411.152 1034.372,408.576 C1035.324,406 1035.8,403.125333 1035.8,399.952 C1035.8,396.741333 1035.324,393.857333 1034.372,391.3 C1033.42,388.742667 1032.05733,386.558667 1030.284,384.748 C1028.51067,382.937333 1026.37333,381.546667 1023.872,380.576 C1021.37067,379.605333 1018.57067,379.12 1015.472,379.12 C1012.37333,379.12 1009.57333,379.605333 1007.072,380.576 C1004.57067,381.546667 1002.43333,382.937333 1000.66,384.748 C998.886667,386.558667 997.524,388.742667 996.572,391.3 C995.62,393.857333 995.144,396.741333 995.144,399.952 C995.144,403.125333 995.62,406 996.572,408.576 C997.524,411.152 998.886667,413.354667 1000.66,415.184 C1002.43333,417.013333 1004.57067,418.413333 1007.072,419.384 C1009.57333,420.354667 1012.37333,420.84 1015.472,420.84 Z M1015.472,411.432 C1012.56,411.432 1010.32933,410.442667 1008.78,408.464 C1007.23067,406.485333 1006.456,403.648 1006.456,399.952 C1006.456,396.293333 1007.23067,393.474667 1008.78,391.496 C1010.32933,389.517333 1012.56,388.528 1015.472,388.528 C1018.384,388.528 1020.61467,389.517333 1022.164,391.496 C1023.71333,393.474667 1024.488,396.293333 1024.488,399.952 C1024.488,403.648 1023.71333,406.485333 1022.164,408.464 C1020.61467,410.442667 1018.384,411.432 1015.472,411.432 Z M1066.32,420.84 C1069.97867,420.84 1073.08667,420.336 1075.644,419.328 C1078.20133,418.32 1080.16133,416.845333 1081.524,414.904 C1082.88667,412.962667 1083.568,410.610667 1083.568,407.848 C1083.568,405.757333 1083.232,404.012 1082.56,402.612 C1081.888,401.212 1080.936,400.054667 1079.704,399.14 C1078.472,398.225333 1077.016,397.450667 1075.336,396.816 C1073.656,396.181333 1071.78933,395.621333 1069.736,395.136 C1067.75733,394.650667 1066.236,394.137333 1065.172,393.596 C1064.108,393.054667 1063.576,392.242667 1063.576,391.16 C1063.576,390.114667 1064.08933,389.321333 1065.116,388.78 C1066.14267,388.238667 1067.58933,387.968 1069.456,387.968 C1070.76267,387.968 1072.116,388.089333 1073.516,388.332 C1074.916,388.574667 1076.30667,388.929333 1077.688,389.396 C1079.06933,389.862667 1080.376,390.469333 1081.608,391.216 L1081.608,391.216 L1081.608,381.864 C1079.89067,381.005333 1077.968,380.333333 1075.84,379.848 C1073.712,379.362667 1071.54667,379.12 1069.344,379.12 C1065.94667,379.12 1062.99733,379.633333 1060.496,380.66 C1057.99467,381.686667 1056.072,383.152 1054.728,385.056 C1053.384,386.96 1052.712,389.256 1052.712,391.944 C1052.712,393.698667 1052.97333,395.229333 1053.496,396.536 C1054.01867,397.842667 1054.84,398.990667 1055.96,399.98 C1057.08,400.969333 1058.536,401.837333 1060.328,402.584 C1062.12,403.330667 1064.28533,404.002667 1066.824,404.6 C1067.98133,404.861333 1068.98933,405.16 1069.848,405.496 C1070.70667,405.832 1071.37867,406.233333 1071.864,406.7 C1072.34933,407.166667 1072.592,407.792 1072.592,408.576 C1072.592,409.658667 1072.05067,410.498667 1070.968,411.096 C1069.88533,411.693333 1068.28,411.992 1066.152,411.992 C1063.98667,411.992 1061.812,411.684 1059.628,411.068 C1057.444,410.452 1055.30667,409.546667 1053.216,408.352 L1053.216,408.352 L1053.216,417.816 C1055.38133,418.861333 1057.53733,419.626667 1059.684,420.112 C1061.83067,420.597333 1064.04267,420.84 1066.32,420.84 Z M1097.568,420 C1098.352,417.461333 1099.11733,414.96 1099.864,412.496 L1099.864,412.496 L1114.48,412.496 C1114.85333,413.728 1115.236,414.969333 1115.628,416.22 C1116.02,417.470667 1116.40267,418.730667 1116.776,420 L1116.776,420 L1128.592,420 C1126.20267,413.317333 1123.73867,406.634667 1121.2,399.952 C1118.66133,393.269333 1116.048,386.605333 1113.36,379.96 L1113.36,379.96 L1101.32,379.96 C1098.70667,386.269333 1096.13067,392.765333 1093.592,399.448 C1091.05333,406.130667 1088.552,412.981333 1086.088,420 L1086.088,420 L1097.568,420 Z M1111.792,403.984 L1102.552,403.984 C1103.29867,401.669333 1104.064,399.364 1104.848,397.068 C1105.632,394.772 1106.416,392.466667 1107.2,390.152 C1107.984,392.429333 1108.75867,394.716 1109.524,397.012 C1110.28933,399.308 1111.04533,401.632 1111.792,403.984 L1111.792,403.984 Z M1155.584,420 L1155.584,405.16 C1158.16,400.978667 1160.69867,396.788 1163.2,392.588 C1165.70133,388.388 1168.14667,384.178667 1170.536,379.96 L1170.536,379.96 L1158.552,379.96 C1157.24533,382.610667 1155.90133,385.270667 1154.52,387.94 C1153.13867,390.609333 1151.75733,393.269333 1150.376,395.92 C1148.95733,393.269333 1147.56667,390.618667 1146.204,387.968 C1144.84133,385.317333 1143.488,382.648 1142.144,379.96 L1142.144,379.96 L1129.768,379.96 C1132.12,384.178667 1134.54667,388.388 1137.048,392.588 C1139.54933,396.788 1142.088,400.978667 1144.664,405.16 L1144.664,405.16 L1144.664,420 L1155.584,420 Z" id="HERE’SWHATYOUNEEDTOSAY"></path>
            </g>
        </g>
    </g>
</svg>