<svg width="1200" height="677" viewBox="0 0 1200 677" xmlns="http://www.w3.org/2000/svg" xmlns:xlink="http://www.w3.org/1999/xlink"><title>greg-text-09</title><desc>Created with Sketch.</desc><g id="Assets" stroke="none" stroke-width="1" fill="none" fill-rule="evenodd"><g id="Greg" fill="#fff" fill-rule="nonzero"><g id="greg-text-09"><path d="M809.056 296C812.416 296 815.3 295.533333 817.708 294.6 820.116 293.666667 821.964 292.322667 823.252 290.568 824.54 288.813333 825.184 286.722667 825.184 284.296 825.184 281.944 824.586667 279.937333 823.392 278.276 822.197333 276.614667 820.48 275.373333 818.24 274.552 821.413333 272.797333 823 270.128 823 266.544 823 263.109333 821.712 260.486667 819.136 258.676 816.56 256.865333 812.882667 255.96 808.104 255.96v0H791.696V296H809.056zM807.04 271.864H802.112V264.024H807.04C810.624 264.024 812.416 265.274667 812.416 267.776 812.416 269.045333 811.958667 270.044 811.044 270.772 810.129333 271.5 808.794667 271.864 807.04 271.864v0zM808.048 287.936H802.112V279.592H808.104C812.36 279.592 814.488 281.010667 814.488 283.848 814.488 285.154667 813.937333 286.162667 812.836 286.872 811.734667 287.581333 810.138667 287.936 808.048 287.936v0zM859.568 296V286.592H841.76V255.96H830.84V296H859.568zM874.968 296V255.96H864.048V296H874.968zM892.776 296V271.696C895.202667 275.578667 897.676 279.582667 900.196 283.708 902.716 287.833333 905.170667 291.930667 907.56 296v0H918.536V255.96H908.12V279.816C905.693333 275.746667 903.248 271.714667 900.784 267.72 898.32 263.725333 895.837333 259.805333 893.336 255.96v0H882.36V296H892.776zm44.072.0V279.48H938.808C940.898667 282.28 942.924 285.042667 944.884 287.768 946.844 290.493333 948.794667 293.237333 950.736 296v0H964.4C961.637333 292.341333 958.902667 288.748 956.196 285.22 953.489333 281.692 950.754667 278.210667 947.992 274.776 950.568 271.64 953.088 268.504 955.552 265.368 958.016 262.232 960.442667 259.096 962.832 255.96v0H949.952C948.234667 258.386667 946.48 260.822667 944.688 263.268 942.896 265.713333 941.010667 268.205333 939.032 270.744v0H936.848V255.96H925.928V296H936.848zM984.336 284.352V276.176H966.64V284.352H984.336zM1010.488 296V256.856H1001.92C999.866667 257.789333 997.944 258.694667 996.152 259.572 994.36 260.449333 992.754667 261.261333 991.336 262.008v0V271.472C992.605333 270.8 993.968 270.1 995.424 269.372 996.88 268.644 998.354667 267.944 999.848 267.272v0V296H1010.488zM1038.488 296.728C1041.69867 296.728 1044.48933 296.261333 1046.86 295.328 1049.23067 294.394667 1051.06933 293.06 1052.376 291.324 1053.68267 289.588 1054.336 287.544 1054.336 285.192 1054.336 282.914667 1053.804 280.964 1052.74 279.34 1051.676 277.716 1050.08 276.362667 1047.952 275.28 1049.66933 274.458667 1050.99467 273.366667 1051.928 272.004 1052.86133 270.641333 1053.328 269.101333 1053.328 267.384 1053.328 265.069333 1052.72133 263.072 1051.508 261.392 1050.29467 259.712 1048.58667 258.414667 1046.384 257.5 1044.18133 256.585333 1041.54933 256.128 1038.488 256.128 1036.28533 256.128 1034.26933 256.398667 1032.44 256.94 1030.61067 257.481333 1029.04267 258.246667 1027.736 259.236 1026.42933 260.225333 1025.42133 261.410667 1024.712 262.792 1024.00267 264.173333 1023.648 265.704 1023.648 267.384 1023.648 271.490667 1025.496 274.552 1029.192 276.568 1027.13867 277.426667 1025.53333 278.621333 1024.376 280.152 1023.21867 281.682667 1022.64 283.456 1022.64 285.472 1022.64 287.786667 1023.284 289.793333 1024.572 291.492 1025.86 293.190667 1027.69867 294.488 1030.088 295.384 1032.47733 296.28 1035.27733 296.728 1038.488 296.728zM1040.056 272.648 1037.984 272.368C1036.71467 272.181333 1035.688 271.733333 1034.904 271.024 1034.12 270.314667 1033.728 269.4 1033.728 268.28 1033.728 267.010667 1034.148 266.021333 1034.988 265.312 1035.828 264.602667 1036.99467 264.248 1038.488 264.248 1040.01867 264.248 1041.19467 264.602667 1042.016 265.312 1042.83733 266.021333 1043.248 267.010667 1043.248 268.28 1043.248 269.288 1042.95867 270.165333 1042.38 270.912 1041.80133 271.658667 1041.02667 272.237333 1040.056 272.648v0zM1038.488 288.608C1036.808 288.608 1035.47333 288.206667 1034.484 287.404 1033.49467 286.601333 1033 285.490667 1033 284.072 1033 282.877333 1033.392 281.86 1034.176 281.02 1034.96 280.18 1036.04267 279.592 1037.424 279.256v0L1039.048 279.48C1040.616 279.704 1041.82933 280.208 1042.688 280.992 1043.54667 281.776 1043.976 282.802667 1043.976 284.072 1043.976 285.490667 1043.49067 286.601333 1042.52 287.404 1041.54933 288.206667 1040.20533 288.608 1038.488 288.608zM1087.488 296V286.984H1070.52C1071.08 286.050667 1071.90133 285.136 1072.984 284.24 1074.06667 283.344 1075.504 282.336 1077.296 281.216 1079.12533 280.096 1080.63733 279.032 1081.832 278.024 1083.02667 277.016 1083.96933 275.989333 1084.66 274.944 1085.35067 273.898667 1085.84533 272.769333 1086.144 271.556 1086.44267 270.342667 1086.592 268.970667 1086.592 267.44 1086.592 265.125333 1086.004 263.128 1084.828 261.448 1083.652 259.768 1081.99067 258.461333 1079.844 257.528 1077.69733 256.594667 1075.168 256.128 1072.256 256.128 1069.86667 256.128 1067.67333 256.38 1065.676 256.884 1063.67867 257.388 1061.69067 258.181333 1059.712 259.264v0V268.504C1061.35467 267.309333 1062.99733 266.441333 1064.64 265.9 1066.28267 265.358667 1067.98133 265.088 1069.736 265.088 1071.60267 265.088 1073.04933 265.424 1074.076 266.096 1075.10267 266.768 1075.616 267.757333 1075.616 269.064 1075.616 269.661333 1075.52267 270.202667 1075.336 270.688 1075.14933 271.173333 1074.82267 271.658667 1074.356 272.144 1073.88933 272.629333 1073.22667 273.189333 1072.368 273.824 1071.50933 274.458667 1070.38933 275.205333 1069.008 276.064 1066.58133 277.594667 1064.62133 279.190667 1063.128 280.852 1061.63467 282.513333 1060.54267 284.314667 1059.852 286.256 1059.16133 288.197333 1058.816 290.4 1058.816 292.864v0V296H1087.488zM1099.36 304.4C1100.44267 303.28 1101.38533 302.038667 1102.188 300.676 1102.99067 299.313333 1103.60667 297.913333 1104.036 296.476 1104.46533 295.038667 1104.68 293.666667 1104.68 292.36 1104.68 290.12 1104.19467 288.412 1103.224 287.236 1102.25333 286.06 1100.77867 285.472 1098.8 285.472 1097.04533 285.472 1095.64533 285.976 1094.6 286.984 1093.55467 287.992 1093.032 289.317333 1093.032 290.96 1093.032 292.229333 1093.35867 293.302667 1094.012 294.18 1094.66533 295.057333 1095.552 295.664 1096.672 296 1095.92533 298.8 1094.24533 301.6 1091.632 304.4v0H1099.36zM810.176 358C811.258667 353.893333 812.304 349.777333 813.312 345.652 814.32 341.526667 815.328 337.392 816.336 333.248 817.306667 337.392 818.314667 341.526667 819.36 345.652 820.405333 349.777333 821.469333 353.893333 822.552 358v0H833.864C835.730667 351.466667 837.513333 344.858667 839.212 338.176 840.910667 331.493333 842.506667 324.754667 844 317.96v0H832.52C831.810667 322.626667 831.054667 327.293333 830.252 331.96 829.449333 336.626667 828.6 341.237333 827.704 345.792 826.696 341.461333 825.697333 337.121333 824.708 332.772 823.718667 328.422667 822.757333 324.045333 821.824 319.64v0H811.352C810.418667 324.12 809.448 328.609333 808.44 333.108 807.432 337.606667 806.386667 342.114667 805.304 346.632 804.408 341.965333 803.549333 337.224 802.728 332.408 801.906667 327.592 801.141333 322.776 800.432 317.96v0H788.728C790.258667 324.754667 791.873333 331.493333 793.572 338.176 795.270667 344.858667 797.034667 351.466667 798.864 358v0H810.176zM859.344 358V341.816H873.568V358H884.488V317.96H873.568V332.408H859.344V317.96H848.424V358H859.344zM900.168 358C900.952 355.461333 901.717333 352.96 902.464 350.496v0H917.08C917.453333 351.728 917.836 352.969333 918.228 354.22 918.62 355.470667 919.002667 356.730667 919.376 358v0H931.192C928.802667 351.317333 926.338667 344.634667 923.8 337.952 921.261333 331.269333 918.648 324.605333 915.96 317.96v0H903.92C901.306667 324.269333 898.730667 330.765333 896.192 337.448 893.653333 344.130667 891.152 350.981333 888.688 358v0H900.168zM914.392 341.984H905.152C905.898667 339.669333 906.664 337.364 907.448 335.068 908.232 332.772 909.016 330.466667 909.8 328.152 910.584 330.429333 911.358667 332.716 912.124 335.012 912.889333 337.308 913.645333 339.632 914.392 341.984v0zM955.384 358V327.368H967.368V317.96H932.48V327.368H944.464V358H955.384zM976.608 334.704C977.616 333.696 978.484 332.585333 979.212 331.372 979.94 330.158667 980.509333 328.889333 980.92 327.564 981.330667 326.238667 981.536 324.978667 981.536 323.784 981.536 321.768 981.088 320.228 980.192 319.164 979.296 318.1 977.933333 317.568 976.104 317.568 974.536 317.568 973.294667 318.025333 972.38 318.94 971.465333 319.854667 971.008 321.058667 971.008 322.552 971.008 323.709333 971.306667 324.68 971.904 325.464 972.501333 326.248 973.322667 326.789333 974.368 327.088 973.658667 329.626667 972.072 332.165333 969.608 334.704v0h7zM1000.184 358.84C1003.84267 358.84 1006.95067 358.336 1009.508 357.328 1012.06533 356.32 1014.02533 354.845333 1015.388 352.904 1016.75067 350.962667 1017.432 348.610667 1017.432 345.848 1017.432 343.757333 1017.096 342.012 1016.424 340.612 1015.752 339.212 1014.8 338.054667 1013.568 337.14 1012.336 336.225333 1010.88 335.450667 1009.2 334.816 1007.52 334.181333 1005.65333 333.621333 1003.6 333.136 1001.62133 332.650667 1000.1 332.137333 999.036 331.596 997.972 331.054667 997.44 330.242667 997.44 329.16 997.44 328.114667 997.953333 327.321333 998.98 326.78 1000.00667 326.238667 1001.45333 325.968 1003.32 325.968 1004.62667 325.968 1005.98 326.089333 1007.38 326.332 1008.78 326.574667 1010.17067 326.929333 1011.552 327.396 1012.93333 327.862667 1014.24 328.469333 1015.472 329.216v0V319.864C1013.75467 319.005333 1011.832 318.333333 1009.704 317.848 1007.576 317.362667 1005.41067 317.12 1003.208 317.12 999.810667 317.12 996.861333 317.633333 994.36 318.66 991.858667 319.686667 989.936 321.152 988.592 323.056 987.248 324.96 986.576 327.256 986.576 329.944 986.576 331.698667 986.837333 333.229333 987.36 334.536 987.882667 335.842667 988.704 336.990667 989.824 337.98 990.944 338.969333 992.4 339.837333 994.192 340.584 995.984 341.330667 998.149333 342.002667 1000.688 342.6 1001.84533 342.861333 1002.85333 343.16 1003.712 343.496 1004.57067 343.832 1005.24267 344.233333 1005.728 344.7 1006.21333 345.166667 1006.456 345.792 1006.456 346.576 1006.456 347.658667 1005.91467 348.498667 1004.832 349.096 1003.74933 349.693333 1002.144 349.992 1000.016 349.992 997.850667 349.992 995.676 349.684 993.492 349.068 991.308 348.452 989.170667 347.546667 987.08 346.352v0V355.816C989.245333 356.861333 991.401333 357.626667 993.548 358.112 995.694667 358.597333 997.906667 358.84 1000.184 358.84zM814.488 420V405.16C817.064 400.978667 819.602667 396.788 822.104 392.588 824.605333 388.388 827.050667 384.178667 829.44 379.96v0H817.456C816.149333 382.610667 814.805333 385.270667 813.424 387.94 812.042667 390.609333 810.661333 393.269333 809.28 395.92 807.861333 393.269333 806.470667 390.618667 805.108 387.968 803.745333 385.317333 802.392 382.648 801.048 379.96v0H788.672C791.024 384.178667 793.450667 388.388 795.952 392.588 798.453333 396.788 800.992 400.978667 803.568 405.16v0V420H814.488zM852.68 420.84C855.778667 420.84 858.578667 420.354667 861.08 419.384 863.581333 418.413333 865.718667 417.013333 867.492 415.184 869.265333 413.354667 870.628 411.152 871.58 408.576 872.532 406 873.008 403.125333 873.008 399.952 873.008 396.741333 872.532 393.857333 871.58 391.3 870.628 388.742667 869.265333 386.558667 867.492 384.748 865.718667 382.937333 863.581333 381.546667 861.08 380.576 858.578667 379.605333 855.778667 379.12 852.68 379.12 849.581333 379.12 846.781333 379.605333 844.28 380.576 841.778667 381.546667 839.641333 382.937333 837.868 384.748 836.094667 386.558667 834.732 388.742667 833.78 391.3 832.828 393.857333 832.352 396.741333 832.352 399.952 832.352 403.125333 832.828 406 833.78 408.576 834.732 411.152 836.094667 413.354667 837.868 415.184 839.641333 417.013333 841.778667 418.413333 844.28 419.384 846.781333 420.354667 849.581333 420.84 852.68 420.84zM852.68 411.432C849.768 411.432 847.537333 410.442667 845.988 408.464 844.438667 406.485333 843.664 403.648 843.664 399.952 843.664 396.293333 844.438667 393.474667 845.988 391.496 847.537333 389.517333 849.768 388.528 852.68 388.528 855.592 388.528 857.822667 389.517333 859.372 391.496 860.921333 393.474667 861.696 396.293333 861.696 399.952 861.696 403.648 860.921333 406.485333 859.372 408.464 857.822667 410.442667 855.592 411.432 852.68 411.432zM896.584 420.84C900.28 420.84 903.444 420.130667 906.076 418.712 908.708 417.293333 910.724 415.249333 912.124 412.58 913.524 409.910667 914.224 406.728 914.224 403.032v0V379.96H903.472V404.264C903.472 406.541333 902.874667 408.305333 901.68 409.556 900.485333 410.806667 898.786667 411.432 896.584 411.432 894.418667 411.432 892.729333 410.806667 891.516 409.556 890.302667 408.305333 889.696 406.541333 889.696 404.264v0V379.96H878.776V403.032C878.776 406.728 879.485333 409.910667 880.904 412.58 882.322667 415.249333 884.366667 417.293333 887.036 418.712 889.705333 420.130667 892.888 420.84 896.584 420.84zM932.032 420V406.504H937.52C938.826667 408.706667 940.086667 410.937333 941.3 413.196 942.513333 415.454667 943.717333 417.722667 944.912 420v0H956.952C955.421333 417.274667 953.862667 414.605333 952.276 411.992 950.689333 409.378667 949.074667 406.784 947.432 404.208 949.522667 403.088 951.137333 401.594667 952.276 399.728 953.414667 397.861333 953.984 395.696 953.984 393.232 953.984 388.938667 952.509333 385.653333 949.56 383.376 946.610667 381.098667 942.354667 379.96 936.792 379.96v0H921.448V420H932.032zM936.288 398.104H932.032V388.36H936.288C938.565333 388.36 940.245333 388.761333 941.328 389.564 942.410667 390.366667 942.952 391.589333 942.952 393.232 942.952 394.837333 942.410667 396.050667 941.328 396.872 940.245333 397.693333 938.565333 398.104 936.288 398.104v0zM993.464 420.84C995.256 420.84 997.057333 420.728 998.868 420.504 1000.67867 420.28 1002.424 419.934667 1004.104 419.468 1005.784 419.001333 1007.27733 418.450667 1008.584 417.816v0V396.928H992.96V404.992H998.784V410.984C998.074667 411.170667 997.337333 411.310667 996.572 411.404 995.806667 411.497333 995.050667 411.544 994.304 411.544 990.794667 411.544 988.134667 410.564 986.324 408.604 984.513333 406.644 983.608 403.76 983.608 399.952 983.608 396.293333 984.644 393.474667 986.716 391.496 988.788 389.517333 991.746667 388.528 995.592 388.528 997.944 388.528 1000.1 388.78 1002.06 389.284 1004.02 389.788 1005.84 390.506667 1007.52 391.44v0V381.584C1003.6 379.941333 999.157333 379.12 994.192 379.12 990.906667 379.12 987.92 379.614667 985.232 380.604 982.544 381.593333 980.229333 383.002667 978.288 384.832 976.346667 386.661333 974.862667 388.854667 973.836 391.412 972.809333 393.969333 972.296 396.816 972.296 399.952 972.296 403.2 972.781333 406.112 973.752 408.688 974.722667 411.264 976.122667 413.457333 977.952 415.268 979.781333 417.078667 982.002667 418.46 984.616 419.412 987.229333 420.364 990.178667 420.84 993.464 420.84zM1032.832 420.84C1036.528 420.84 1039.692 420.130667 1042.324 418.712 1044.956 417.293333 1046.972 415.249333 1048.372 412.58 1049.772 409.910667 1050.472 406.728 1050.472 403.032v0V379.96H1039.72V404.264C1039.72 406.541333 1039.12267 408.305333 1037.928 409.556 1036.73333 410.806667 1035.03467 411.432 1032.832 411.432 1030.66667 411.432 1028.97733 410.806667 1027.764 409.556 1026.55067 408.305333 1025.944 406.541333 1025.944 404.264v0V379.96H1015.024V403.032C1015.024 406.728 1015.73333 409.910667 1017.152 412.58 1018.57067 415.249333 1020.61467 417.293333 1023.284 418.712 1025.95333 420.130667 1029.136 420.84 1032.832 420.84zM1087.432 420V411.264H1068.336V403.984H1084.128V395.248H1068.336V388.696H1086.368V379.96H1057.696V420H1087.432zM1104.792 420.84C1108.45067 420.84 1111.55867 420.336 1114.116 419.328 1116.67333 418.32 1118.63333 416.845333 1119.996 414.904 1121.35867 412.962667 1122.04 410.610667 1122.04 407.848 1122.04 405.757333 1121.704 404.012 1121.032 402.612 1120.36 401.212 1119.408 400.054667 1118.176 399.14 1116.944 398.225333 1115.488 397.450667 1113.808 396.816 1112.128 396.181333 1110.26133 395.621333 1108.208 395.136 1106.22933 394.650667 1104.708 394.137333 1103.644 393.596 1102.58 393.054667 1102.048 392.242667 1102.048 391.16 1102.048 390.114667 1102.56133 389.321333 1103.588 388.78 1104.61467 388.238667 1106.06133 387.968 1107.928 387.968 1109.23467 387.968 1110.588 388.089333 1111.988 388.332 1113.388 388.574667 1114.77867 388.929333 1116.16 389.396 1117.54133 389.862667 1118.848 390.469333 1120.08 391.216v0V381.864C1118.36267 381.005333 1116.44 380.333333 1114.312 379.848 1112.184 379.362667 1110.01867 379.12 1107.816 379.12 1104.41867 379.12 1101.46933 379.633333 1098.968 380.66 1096.46667 381.686667 1094.544 383.152 1093.2 385.056 1091.856 386.96 1091.184 389.256 1091.184 391.944 1091.184 393.698667 1091.44533 395.229333 1091.968 396.536 1092.49067 397.842667 1093.312 398.990667 1094.432 399.98 1095.552 400.969333 1097.008 401.837333 1098.8 402.584 1100.592 403.330667 1102.75733 404.002667 1105.296 404.6 1106.45333 404.861333 1107.46133 405.16 1108.32 405.496 1109.17867 405.832 1109.85067 406.233333 1110.336 406.7 1110.82133 407.166667 1111.064 407.792 1111.064 408.576 1111.064 409.658667 1110.52267 410.498667 1109.44 411.096 1108.35733 411.693333 1106.752 411.992 1104.624 411.992 1102.45867 411.992 1100.284 411.684 1098.1 411.068 1095.916 410.452 1093.77867 409.546667 1091.688 408.352v0V417.816C1093.85333 418.861333 1096.00933 419.626667 1098.156 420.112 1100.30267 420.597333 1102.51467 420.84 1104.792 420.84zM1139.848 420.84C1143.50667 420.84 1146.61467 420.336 1149.172 419.328 1151.72933 418.32 1153.68933 416.845333 1155.052 414.904 1156.41467 412.962667 1157.096 410.610667 1157.096 407.848 1157.096 405.757333 1156.76 404.012 1156.088 402.612 1155.416 401.212 1154.464 400.054667 1153.232 399.14 1152 398.225333 1150.544 397.450667 1148.864 396.816 1147.184 396.181333 1145.31733 395.621333 1143.264 395.136 1141.28533 394.650667 1139.764 394.137333 1138.7 393.596 1137.636 393.054667 1137.104 392.242667 1137.104 391.16 1137.104 390.114667 1137.61733 389.321333 1138.644 388.78 1139.67067 388.238667 1141.11733 387.968 1142.984 387.968 1144.29067 387.968 1145.644 388.089333 1147.044 388.332 1148.444 388.574667 1149.83467 388.929333 1151.216 389.396 1152.59733 389.862667 1153.904 390.469333 1155.136 391.216v0V381.864C1153.41867 381.005333 1151.496 380.333333 1149.368 379.848 1147.24 379.362667 1145.07467 379.12 1142.872 379.12 1139.47467 379.12 1136.52533 379.633333 1134.024 380.66 1131.52267 381.686667 1129.6 383.152 1128.256 385.056 1126.912 386.96 1126.24 389.256 1126.24 391.944 1126.24 393.698667 1126.50133 395.229333 1127.024 396.536 1127.54667 397.842667 1128.368 398.990667 1129.488 399.98 1130.608 400.969333 1132.064 401.837333 1133.856 402.584 1135.648 403.330667 1137.81333 404.002667 1140.352 404.6 1141.50933 404.861333 1142.51733 405.16 1143.376 405.496 1144.23467 405.832 1144.90667 406.233333 1145.392 406.7 1145.87733 407.166667 1146.12 407.792 1146.12 408.576 1146.12 409.658667 1145.57867 410.498667 1144.496 411.096 1143.41333 411.693333 1141.808 411.992 1139.68 411.992 1137.51467 411.992 1135.34 411.684 1133.156 411.068 1130.972 410.452 1128.83467 409.546667 1126.744 408.352v0V417.816C1128.90933 418.861333 1131.06533 419.626667 1133.212 420.112 1135.35867 420.597333 1137.57067 420.84 1139.848 420.84zM1175.632 406.448V405.776C1175.632 405.216 1175.75333 404.693333 1175.996 404.208 1176.23867 403.722667 1176.65867 403.218667 1177.256 402.696 1177.85333 402.173333 1178.63733 401.576 1179.608 400.904 1181.81067 399.373333 1183.40667 397.777333 1184.396 396.116 1185.38533 394.454667 1185.88 392.504 1185.88 390.264 1185.88 387.949333 1185.31067 385.961333 1184.172 384.3 1183.03333 382.638667 1181.41867 381.36 1179.328 380.464 1177.23733 379.568 1174.71733 379.12 1171.768 379.12 1169.82667 379.12 1167.94133 379.316 1166.112 379.708 1164.28267 380.1 1162.54667 380.688 1160.904 381.472v0V389.928C1162.39733 389.069333 1163.85333 388.444 1165.272 388.052 1166.69067 387.66 1168.184 387.464 1169.752 387.464 1171.50667 387.464 1172.86 387.809333 1173.812 388.5 1174.764 389.190667 1175.24 390.152 1175.24 391.384 1175.24 392.093333 1175.128 392.737333 1174.904 393.316 1174.68 393.894667 1174.26933 394.482667 1173.672 395.08 1173.07467 395.677333 1172.216 396.405333 1171.096 397.264 1169.64 398.346667 1168.59467 399.541333 1167.96 400.848 1167.32533 402.154667 1167.008 403.797333 1167.008 405.776v0V406.448H1175.632zM1171.32 420.504C1172.51467 420.504 1173.54133 420.252 1174.4 419.748 1175.25867 419.244 1175.92133 418.572 1176.388 417.732 1176.85467 416.892 1177.088 415.968 1177.088 414.96 1177.088 413.952 1176.85467 413.028 1176.388 412.188 1175.92133 411.348 1175.25867 410.685333 1174.4 410.2 1173.54133 409.714667 1172.51467 409.472 1171.32 409.472 1170.12533 409.472 1169.09867 409.714667 1168.24 410.2 1167.38133 410.685333 1166.71867 411.348 1166.252 412.188 1165.78533 413.028 1165.552 413.952 1165.552 414.96 1165.552 415.968 1165.78533 416.892 1166.252 417.732 1166.71867 418.572 1167.38133 419.244 1168.24 419.748 1169.09867 420.252 1170.12533 420.504 1171.32 420.504z" id="BLINK-182,WHAT’SYOURGUESS?"/></g></g></g></svg>