<svg width="1200" height="677" viewBox="0 0 1200 677" xmlns="http://www.w3.org/2000/svg" xmlns:xlink="http://www.w3.org/1999/xlink"><title>greg-text-06</title><desc>Created with Sketch.</desc><g id="Assets" stroke="none" stroke-width="1" fill="none" fill-rule="evenodd"><g id="Greg" fill="#fff" fill-rule="nonzero"><g id="greg-text-06"><path d="M810.176 234C811.258667 229.893333 812.304 225.777333 813.312 221.652 814.32 217.526667 815.328 213.392 816.336 209.248 817.306667 213.392 818.314667 217.526667 819.36 221.652 820.405333 225.777333 821.469333 229.893333 822.552 234v0H833.864C835.730667 227.466667 837.513333 220.858667 839.212 214.176 840.910667 207.493333 842.506667 200.754667 844 193.96v0H832.52C831.810667 198.626667 831.054667 203.293333 830.252 207.96 829.449333 212.626667 828.6 217.237333 827.704 221.792 826.696 217.461333 825.697333 213.121333 824.708 208.772 823.718667 204.422667 822.757333 200.045333 821.824 195.64v0H811.352C810.418667 200.12 809.448 204.609333 808.44 209.108 807.432 213.606667 806.386667 218.114667 805.304 222.632 804.408 217.965333 803.549333 213.224 802.728 208.408 801.906667 203.592 801.141333 198.776 800.432 193.96v0H788.728C790.258667 200.754667 791.873333 207.493333 793.572 214.176 795.270667 220.858667 797.034667 227.466667 798.864 234v0H810.176zM859.344 234V217.816H873.568V234H884.488V193.96H873.568V208.408H859.344V193.96H848.424V234H859.344zM900.168 234C900.952 231.461333 901.717333 228.96 902.464 226.496v0H917.08C917.453333 227.728 917.836 228.969333 918.228 230.22 918.62 231.470667 919.002667 232.730667 919.376 234v0H931.192C928.802667 227.317333 926.338667 220.634667 923.8 213.952 921.261333 207.269333 918.648 200.605333 915.96 193.96v0H903.92C901.306667 200.269333 898.730667 206.765333 896.192 213.448 893.653333 220.130667 891.152 226.981333 888.688 234v0H900.168zM914.392 217.984H905.152C905.898667 215.669333 906.664 213.364 907.448 211.068 908.232 208.772 909.016 206.466667 909.8 204.152 910.584 206.429333 911.358667 208.716 912.124 211.012 912.889333 213.308 913.645333 215.632 914.392 217.984v0zM955.384 234V203.368H967.368V193.96H932.48V203.368H944.464V234H955.384zM976.608 210.704C977.616 209.696 978.484 208.585333 979.212 207.372 979.94 206.158667 980.509333 204.889333 980.92 203.564 981.330667 202.238667 981.536 200.978667 981.536 199.784 981.536 197.768 981.088 196.228 980.192 195.164 979.296 194.1 977.933333 193.568 976.104 193.568 974.536 193.568 973.294667 194.025333 972.38 194.94 971.465333 195.854667 971.008 197.058667 971.008 198.552 971.008 199.709333 971.306667 200.68 971.904 201.464 972.501333 202.248 973.322667 202.789333 974.368 203.088 973.658667 205.626667 972.072 208.165333 969.608 210.704v0h7zM1000.184 234.84C1003.84267 234.84 1006.95067 234.336 1009.508 233.328 1012.06533 232.32 1014.02533 230.845333 1015.388 228.904 1016.75067 226.962667 1017.432 224.610667 1017.432 221.848 1017.432 219.757333 1017.096 218.012 1016.424 216.612 1015.752 215.212 1014.8 214.054667 1013.568 213.14 1012.336 212.225333 1010.88 211.450667 1009.2 210.816 1007.52 210.181333 1005.65333 209.621333 1003.6 209.136 1001.62133 208.650667 1000.1 208.137333 999.036 207.596 997.972 207.054667 997.44 206.242667 997.44 205.16 997.44 204.114667 997.953333 203.321333 998.98 202.78 1000.00667 202.238667 1001.45333 201.968 1003.32 201.968 1004.62667 201.968 1005.98 202.089333 1007.38 202.332 1008.78 202.574667 1010.17067 202.929333 1011.552 203.396 1012.93333 203.862667 1014.24 204.469333 1015.472 205.216v0V195.864C1013.75467 195.005333 1011.832 194.333333 1009.704 193.848 1007.576 193.362667 1005.41067 193.12 1003.208 193.12 999.810667 193.12 996.861333 193.633333 994.36 194.66 991.858667 195.686667 989.936 197.152 988.592 199.056 987.248 200.96 986.576 203.256 986.576 205.944 986.576 207.698667 986.837333 209.229333 987.36 210.536 987.882667 211.842667 988.704 212.990667 989.824 213.98 990.944 214.969333 992.4 215.837333 994.192 216.584 995.984 217.330667 998.149333 218.002667 1000.688 218.6 1001.84533 218.861333 1002.85333 219.16 1003.712 219.496 1004.57067 219.832 1005.24267 220.233333 1005.728 220.7 1006.21333 221.166667 1006.456 221.792 1006.456 222.576 1006.456 223.658667 1005.91467 224.498667 1004.832 225.096 1003.74933 225.693333 1002.144 225.992 1000.016 225.992 997.850667 225.992 995.676 225.684 993.492 225.068 991.308 224.452 989.170667 223.546667 987.08 222.352v0V231.816C989.245333 232.861333 991.401333 233.626667 993.548 234.112 995.694667 234.597333 997.906667 234.84 1000.184 234.84zM814.488 296V281.16C817.064 276.978667 819.602667 272.788 822.104 268.588 824.605333 264.388 827.050667 260.178667 829.44 255.96v0H817.456C816.149333 258.610667 814.805333 261.270667 813.424 263.94 812.042667 266.609333 810.661333 269.269333 809.28 271.92 807.861333 269.269333 806.470667 266.618667 805.108 263.968 803.745333 261.317333 802.392 258.648 801.048 255.96v0H788.672C791.024 260.178667 793.450667 264.388 795.952 268.588 798.453333 272.788 800.992 276.978667 803.568 281.16v0V296H814.488zM852.68 296.84C855.778667 296.84 858.578667 296.354667 861.08 295.384 863.581333 294.413333 865.718667 293.013333 867.492 291.184 869.265333 289.354667 870.628 287.152 871.58 284.576 872.532 282 873.008 279.125333 873.008 275.952 873.008 272.741333 872.532 269.857333 871.58 267.3 870.628 264.742667 869.265333 262.558667 867.492 260.748 865.718667 258.937333 863.581333 257.546667 861.08 256.576 858.578667 255.605333 855.778667 255.12 852.68 255.12 849.581333 255.12 846.781333 255.605333 844.28 256.576 841.778667 257.546667 839.641333 258.937333 837.868 260.748 836.094667 262.558667 834.732 264.742667 833.78 267.3 832.828 269.857333 832.352 272.741333 832.352 275.952 832.352 279.125333 832.828 282 833.78 284.576 834.732 287.152 836.094667 289.354667 837.868 291.184 839.641333 293.013333 841.778667 294.413333 844.28 295.384 846.781333 296.354667 849.581333 296.84 852.68 296.84zM852.68 287.432C849.768 287.432 847.537333 286.442667 845.988 284.464 844.438667 282.485333 843.664 279.648 843.664 275.952 843.664 272.293333 844.438667 269.474667 845.988 267.496 847.537333 265.517333 849.768 264.528 852.68 264.528 855.592 264.528 857.822667 265.517333 859.372 267.496 860.921333 269.474667 861.696 272.293333 861.696 275.952 861.696 279.648 860.921333 282.485333 859.372 284.464 857.822667 286.442667 855.592 287.432 852.68 287.432zM896.584 296.84C900.28 296.84 903.444 296.130667 906.076 294.712 908.708 293.293333 910.724 291.249333 912.124 288.58 913.524 285.910667 914.224 282.728 914.224 279.032v0V255.96H903.472V280.264C903.472 282.541333 902.874667 284.305333 901.68 285.556 900.485333 286.806667 898.786667 287.432 896.584 287.432 894.418667 287.432 892.729333 286.806667 891.516 285.556 890.302667 284.305333 889.696 282.541333 889.696 280.264v0V255.96H878.776V279.032C878.776 282.728 879.485333 285.910667 880.904 288.58 882.322667 291.249333 884.366667 293.293333 887.036 294.712 889.705333 296.130667 892.888 296.84 896.584 296.84zM932.032 296V282.504H937.52C938.826667 284.706667 940.086667 286.937333 941.3 289.196 942.513333 291.454667 943.717333 293.722667 944.912 296v0H956.952C955.421333 293.274667 953.862667 290.605333 952.276 287.992 950.689333 285.378667 949.074667 282.784 947.432 280.208 949.522667 279.088 951.137333 277.594667 952.276 275.728 953.414667 273.861333 953.984 271.696 953.984 269.232 953.984 264.938667 952.509333 261.653333 949.56 259.376 946.610667 257.098667 942.354667 255.96 936.792 255.96v0H921.448V296H932.032zM936.288 274.104H932.032V264.36H936.288C938.565333 264.36 940.245333 264.761333 941.328 265.564 942.410667 266.366667 942.952 267.589333 942.952 269.232 942.952 270.837333 942.410667 272.050667 941.328 272.872 940.245333 273.693333 938.565333 274.104 936.288 274.104v0zM802.448 358V343.552H817.4V334.424H802.448V327.088H819.528V317.96H791.696V358H802.448zM832.856 358C833.64 355.461333 834.405333 352.96 835.152 350.496v0H849.768C850.141333 351.728 850.524 352.969333 850.916 354.22 851.308 355.470667 851.690667 356.730667 852.064 358v0H863.88C861.490667 351.317333 859.026667 344.634667 856.488 337.952 853.949333 331.269333 851.336 324.605333 848.648 317.96v0H836.608C833.994667 324.269333 831.418667 330.765333 828.88 337.448 826.341333 344.130667 823.84 350.981333 821.376 358v0H832.856zM847.08 341.984H837.84C838.586667 339.669333 839.352 337.364 840.136 335.068 840.92 332.772 841.704 330.466667 842.488 328.152 843.272 330.429333 844.046667 332.716 844.812 335.012 845.577333 337.308 846.333333 339.632 847.08 341.984v0zM891.6 358C894.176 351.317333 896.714667 344.634667 899.216 337.952 901.717333 331.269333 904.144 324.605333 906.496 317.96v0H894.904C893.448 322.813333 891.964 327.648 890.452 332.464 888.94 337.28 887.4 342.096 885.832 346.912 884.301333 342.096 882.78 337.28 881.268 332.464 879.756 327.648 878.272 322.813333 876.816 317.96v0H864.888C867.24 324.605333 869.666667 331.269333 872.168 337.952 874.669333 344.634667 877.208 351.317333 879.784 358v0H891.6zM929.568 358.84C932.666667 358.84 935.466667 358.354667 937.968 357.384 940.469333 356.413333 942.606667 355.013333 944.38 353.184 946.153333 351.354667 947.516 349.152 948.468 346.576 949.42 344 949.896 341.125333 949.896 337.952 949.896 334.741333 949.42 331.857333 948.468 329.3 947.516 326.742667 946.153333 324.558667 944.38 322.748 942.606667 320.937333 940.469333 319.546667 937.968 318.576 935.466667 317.605333 932.666667 317.12 929.568 317.12 926.469333 317.12 923.669333 317.605333 921.168 318.576 918.666667 319.546667 916.529333 320.937333 914.756 322.748 912.982667 324.558667 911.62 326.742667 910.668 329.3 909.716 331.857333 909.24 334.741333 909.24 337.952 909.24 341.125333 909.716 344 910.668 346.576 911.62 349.152 912.982667 351.354667 914.756 353.184 916.529333 355.013333 918.666667 356.413333 921.168 357.384 923.669333 358.354667 926.469333 358.84 929.568 358.84zM929.568 349.432C926.656 349.432 924.425333 348.442667 922.876 346.464 921.326667 344.485333 920.552 341.648 920.552 337.952 920.552 334.293333 921.326667 331.474667 922.876 329.496 924.425333 327.517333 926.656 326.528 929.568 326.528 932.48 326.528 934.710667 327.517333 936.26 329.496 937.809333 331.474667 938.584 334.293333 938.584 337.952 938.584 341.648 937.809333 344.485333 936.26 346.464 934.710667 348.442667 932.48 349.432 929.568 349.432zM973.472 358.84C977.168 358.84 980.332 358.130667 982.964 356.712 985.596 355.293333 987.612 353.249333 989.012 350.58 990.412 347.910667 991.112 344.728 991.112 341.032v0V317.96H980.36V342.264C980.36 344.541333 979.762667 346.305333 978.568 347.556 977.373333 348.806667 975.674667 349.432 973.472 349.432 971.306667 349.432 969.617333 348.806667 968.404 347.556 967.190667 346.305333 966.584 344.541333 966.584 342.264v0V317.96H955.664V341.032C955.664 344.728 956.373333 347.910667 957.792 350.58 959.210667 353.249333 961.254667 355.293333 963.924 356.712 966.593333 358.130667 969.776 358.84 973.472 358.84zM1008.92 358V344.504H1014.408C1015.71467 346.706667 1016.97467 348.937333 1018.188 351.196 1019.40133 353.454667 1020.60533 355.722667 1021.8 358v0H1033.84C1032.30933 355.274667 1030.75067 352.605333 1029.164 349.992 1027.57733 347.378667 1025.96267 344.784 1024.32 342.208 1026.41067 341.088 1028.02533 339.594667 1029.164 337.728 1030.30267 335.861333 1030.872 333.696 1030.872 331.232 1030.872 326.938667 1029.39733 323.653333 1026.448 321.376 1023.49867 319.098667 1019.24267 317.96 1013.68 317.96v0H998.336V358H1008.92zM1013.176 336.104H1008.92V326.36H1013.176C1015.45333 326.36 1017.13333 326.761333 1018.216 327.564 1019.29867 328.366667 1019.84 329.589333 1019.84 331.232 1019.84 332.837333 1019.29867 334.050667 1018.216 334.872 1017.13333 335.693333 1015.45333 336.104 1013.176 336.104v0zM1049.072 358V317.96H1038.152V358H1049.072zM1076.456 358V327.368H1088.44V317.96H1053.552V327.368H1065.536V358H1076.456zM1122.656 358V349.264H1103.56V341.984H1119.352V333.248H1103.56V326.696H1121.592V317.96H1092.92V358H1122.656zM821.432 420V411.264H802.336V403.984H818.128V395.248H802.336V388.696H820.368V379.96H791.696V420H821.432zM837.28 420V406.504H842.768C844.074667 408.706667 845.334667 410.937333 846.548 413.196 847.761333 415.454667 848.965333 417.722667 850.16 420v0H862.2C860.669333 417.274667 859.110667 414.605333 857.524 411.992 855.937333 409.378667 854.322667 406.784 852.68 404.208 854.770667 403.088 856.385333 401.594667 857.524 399.728 858.662667 397.861333 859.232 395.696 859.232 393.232 859.232 388.938667 857.757333 385.653333 854.808 383.376 851.858667 381.098667 847.602667 379.96 842.04 379.96v0H826.696V420H837.28zM841.536 398.104H837.28V388.36H841.536C843.813333 388.36 845.493333 388.761333 846.576 389.564 847.658667 390.366667 848.2 391.589333 848.2 393.232 848.2 394.837333 847.658667 396.050667 846.576 396.872 845.493333 397.693333 843.813333 398.104 841.536 398.104v0zM874.8 420C875.584 417.461333 876.349333 414.96 877.096 412.496v0H891.712C892.085333 413.728 892.468 414.969333 892.86 416.22 893.252 417.470667 893.634667 418.730667 894.008 420v0H905.824C903.434667 413.317333 900.970667 406.634667 898.432 399.952 895.893333 393.269333 893.28 386.605333 890.592 379.96v0H878.552C875.938667 386.269333 873.362667 392.765333 870.824 399.448 868.285333 406.130667 865.784 412.981333 863.32 420v0H874.8zM889.024 403.984H879.784C880.530667 401.669333 881.296 399.364 882.08 397.068 882.864 394.772 883.648 392.466667 884.432 390.152 885.216 392.429333 885.990667 394.716 886.756 397.012 887.521333 399.308 888.277333 401.632 889.024 403.984v0zM941.384 420.84C944.482667 420.84 947.282667 420.354667 949.784 419.384 952.285333 418.413333 954.422667 417.013333 956.196 415.184 957.969333 413.354667 959.332 411.152 960.284 408.576 961.236 406 961.712 403.125333 961.712 399.952 961.712 396.741333 961.236 393.857333 960.284 391.3 959.332 388.742667 957.969333 386.558667 956.196 384.748 954.422667 382.937333 952.285333 381.546667 949.784 380.576 947.282667 379.605333 944.482667 379.12 941.384 379.12 938.285333 379.12 935.485333 379.605333 932.984 380.576 930.482667 381.546667 928.345333 382.937333 926.572 384.748 924.798667 386.558667 923.436 388.742667 922.484 391.3 921.532 393.857333 921.056 396.741333 921.056 399.952 921.056 403.125333 921.532 406 922.484 408.576 923.436 411.152 924.798667 413.354667 926.572 415.184 928.345333 417.013333 930.482667 418.413333 932.984 419.384 935.485333 420.354667 938.285333 420.84 941.384 420.84zM941.384 411.432C938.472 411.432 936.241333 410.442667 934.692 408.464 933.142667 406.485333 932.368 403.648 932.368 399.952 932.368 396.293333 933.142667 393.474667 934.692 391.496 936.241333 389.517333 938.472 388.528 941.384 388.528 944.296 388.528 946.526667 389.517333 948.076 391.496 949.625333 393.474667 950.4 396.293333 950.4 399.952 950.4 403.648 949.625333 406.485333 948.076 408.464 946.526667 410.442667 944.296 411.432 941.384 411.432zM978.4 420V405.552H993.352V396.424H978.4V389.088H995.48V379.96H967.648V420H978.4zM810.176 482C811.258667 477.893333 812.304 473.777333 813.312 469.652 814.32 465.526667 815.328 461.392 816.336 457.248 817.306667 461.392 818.314667 465.526667 819.36 469.652 820.405333 473.777333 821.469333 477.893333 822.552 482v0H833.864C835.730667 475.466667 837.513333 468.858667 839.212 462.176 840.910667 455.493333 842.506667 448.754667 844 441.96v0H832.52C831.810667 446.626667 831.054667 451.293333 830.252 455.96 829.449333 460.626667 828.6 465.237333 827.704 469.792 826.696 465.461333 825.697333 461.121333 824.708 456.772 823.718667 452.422667 822.757333 448.045333 821.824 443.64v0H811.352C810.418667 448.12 809.448 452.609333 808.44 457.108 807.432 461.606667 806.386667 466.114667 805.304 470.632 804.408 465.965333 803.549333 461.224 802.728 456.408 801.906667 451.592 801.141333 446.776 800.432 441.96v0H788.728C790.258667 448.754667 791.873333 455.493333 793.572 462.176 795.270667 468.858667 797.034667 475.466667 798.864 482v0H810.176zM859.344 482V441.96H848.424V482H859.344zM895.464 482V472.592H877.656V441.96H866.736V482H895.464zM928.672 482V472.592H910.864V441.96H899.944V482H928.672zM957.736 482.84C961.394667 482.84 964.502667 482.336 967.06 481.328 969.617333 480.32 971.577333 478.845333 972.94 476.904 974.302667 474.962667 974.984 472.610667 974.984 469.848 974.984 467.757333 974.648 466.012 973.976 464.612 973.304 463.212 972.352 462.054667 971.12 461.14 969.888 460.225333 968.432 459.450667 966.752 458.816 965.072 458.181333 963.205333 457.621333 961.152 457.136 959.173333 456.650667 957.652 456.137333 956.588 455.596 955.524 455.054667 954.992 454.242667 954.992 453.16 954.992 452.114667 955.505333 451.321333 956.532 450.78 957.558667 450.238667 959.005333 449.968 960.872 449.968 962.178667 449.968 963.532 450.089333 964.932 450.332 966.332 450.574667 967.722667 450.929333 969.104 451.396 970.485333 451.862667 971.792 452.469333 973.024 453.216v0V443.864C971.306667 443.005333 969.384 442.333333 967.256 441.848 965.128 441.362667 962.962667 441.12 960.76 441.12 957.362667 441.12 954.413333 441.633333 951.912 442.66 949.410667 443.686667 947.488 445.152 946.144 447.056 944.8 448.96 944.128 451.256 944.128 453.944 944.128 455.698667 944.389333 457.229333 944.912 458.536 945.434667 459.842667 946.256 460.990667 947.376 461.98 948.496 462.969333 949.952 463.837333 951.744 464.584 953.536 465.330667 955.701333 466.002667 958.24 466.6 959.397333 466.861333 960.405333 467.16 961.264 467.496 962.122667 467.832 962.794667 468.233333 963.28 468.7 963.765333 469.166667 964.008 469.792 964.008 470.576 964.008 471.658667 963.466667 472.498667 962.384 473.096 961.301333 473.693333 959.696 473.992 957.568 473.992 955.402667 473.992 953.228 473.684 951.044 473.068 948.86 472.452 946.722667 471.546667 944.632 470.352v0V479.816C946.797333 480.861333 948.953333 481.626667 951.1 482.112 953.246667 482.597333 955.458667 482.84 957.736 482.84zM990.888 482V457.696C992.12 460.533333 993.38 463.370667 994.668 466.208 995.956 469.045333 997.253333 471.882667 998.56 474.72v0H1006.96C1008.22933 471.882667 1009.48933 469.036 1010.74 466.18 1011.99067 463.324 1013.232 460.44 1014.464 457.528v0V482H1024.656V441.96H1011.664C1010.24533 445.730667 1008.808 449.454667 1007.352 453.132 1005.896 456.809333 1004.42133 460.44 1002.928 464.024 1001.36 460.402667 999.82 456.744 998.308 453.048 996.796 449.352 995.312 445.656 993.856 441.96v0H980.696V482H990.888zM1042.968 482V441.96H1032.048V482H1042.968zM1070.352 482V451.368H1082.336V441.96H1047.448V451.368H1059.432V482H1070.352zM1097.736 482V465.816H1111.96V482H1122.88V441.96H1111.96V456.408H1097.736V441.96H1086.816V482H1097.736zM1143.096 468.448V467.776C1143.096 467.216 1143.21733 466.693333 1143.46 466.208 1143.70267 465.722667 1144.12267 465.218667 1144.72 464.696 1145.31733 464.173333 1146.10133 463.576 1147.072 462.904 1149.27467 461.373333 1150.87067 459.777333 1151.86 458.116 1152.84933 456.454667 1153.344 454.504 1153.344 452.264 1153.344 449.949333 1152.77467 447.961333 1151.636 446.3 1150.49733 444.638667 1148.88267 443.36 1146.792 442.464 1144.70133 441.568 1142.18133 441.12 1139.232 441.12 1137.29067 441.12 1135.40533 441.316 1133.576 441.708 1131.74667 442.1 1130.01067 442.688 1128.368 443.472v0V451.928C1129.86133 451.069333 1131.31733 450.444 1132.736 450.052 1134.15467 449.66 1135.648 449.464 1137.216 449.464 1138.97067 449.464 1140.324 449.809333 1141.276 450.5 1142.228 451.190667 1142.704 452.152 1142.704 453.384 1142.704 454.093333 1142.592 454.737333 1142.368 455.316 1142.144 455.894667 1141.73333 456.482667 1141.136 457.08 1140.53867 457.677333 1139.68 458.405333 1138.56 459.264 1137.104 460.346667 1136.05867 461.541333 1135.424 462.848 1134.78933 464.154667 1134.472 465.797333 1134.472 467.776v0V468.448H1143.096zM1138.784 482.504C1139.97867 482.504 1141.00533 482.252 1141.864 481.748 1142.72267 481.244 1143.38533 480.572 1143.852 479.732 1144.31867 478.892 1144.552 477.968 1144.552 476.96 1144.552 475.952 1144.31867 475.028 1143.852 474.188 1143.38533 473.348 1142.72267 472.685333 1141.864 472.2 1141.00533 471.714667 1139.97867 471.472 1138.784 471.472 1137.58933 471.472 1136.56267 471.714667 1135.704 472.2 1134.84533 472.685333 1134.18267 473.348 1133.716 474.188 1133.24933 475.028 1133.016 475.952 1133.016 476.96 1133.016 477.968 1133.24933 478.892 1133.716 479.732 1134.18267 480.572 1134.84533 481.244 1135.704 481.748 1136.56267 482.252 1137.58933 482.504 1138.784 482.504z" id="WHAT’SYOURFAVOURITEERAOFWILLSMITH?"/></g></g></g></svg>