<?xml version="1.0" encoding="UTF-8"?>
<svg width="1200px" height="677px" viewBox="0 0 1200 677" version="1.1" xmlns="http://www.w3.org/2000/svg" xmlns:xlink="http://www.w3.org/1999/xlink">
    <!-- Generator: Sketch 61.2 (89653) - https://sketch.com -->
    <title>greg-text-01 copy 3</title>
    <desc>Created with Sketch.</desc>
    <g id="Assets" stroke="none" stroke-width="1" fill="none" fill-rule="evenodd">
        <g id="Greg" fill="#FFFFFF" fill-rule="nonzero">
            <g id="greg-text-00b">
                <path d="M802.616,296 L802.616,255.96 L791.696,255.96 L791.696,296 L802.616,296 Z M832.912,296 L832.912,271.696 C835.338667,275.578667 837.812,279.582667 840.332,283.708 C842.852,287.833333 845.306667,291.930667 847.696,296 L847.696,296 L858.672,296 L858.672,255.96 L848.256,255.96 L848.256,279.816 C845.829333,275.746667 843.384,271.714667 840.92,267.72 C838.456,263.725333 835.973333,259.805333 833.472,255.96 L833.472,255.96 L822.496,255.96 L822.496,296 L832.912,296 Z M884.936,296.84 C888.034667,296.84 890.834667,296.354667 893.336,295.384 C895.837333,294.413333 897.974667,293.013333 899.748,291.184 C901.521333,289.354667 902.884,287.152 903.836,284.576 C904.788,282 905.264,279.125333 905.264,275.952 C905.264,272.741333 904.788,269.857333 903.836,267.3 C902.884,264.742667 901.521333,262.558667 899.748,260.748 C897.974667,258.937333 895.837333,257.546667 893.336,256.576 C890.834667,255.605333 888.034667,255.12 884.936,255.12 C881.837333,255.12 879.037333,255.605333 876.536,256.576 C874.034667,257.546667 871.897333,258.937333 870.124,260.748 C868.350667,262.558667 866.988,264.742667 866.036,267.3 C865.084,269.857333 864.608,272.741333 864.608,275.952 C864.608,279.125333 865.084,282 866.036,284.576 C866.988,287.152 868.350667,289.354667 870.124,291.184 C871.897333,293.013333 874.034667,294.413333 876.536,295.384 C879.037333,296.354667 881.837333,296.84 884.936,296.84 Z M884.936,287.432 C882.024,287.432 879.793333,286.442667 878.244,284.464 C876.694667,282.485333 875.92,279.648 875.92,275.952 C875.92,272.293333 876.694667,269.474667 878.244,267.496 C879.793333,265.517333 882.024,264.528 884.936,264.528 C887.848,264.528 890.078667,265.517333 891.628,267.496 C893.177333,269.474667 893.952,272.293333 893.952,275.952 C893.952,279.648 893.177333,282.485333 891.628,284.464 C890.078667,286.442667 887.848,287.432 884.936,287.432 Z M921.784,296 L921.784,282.504 L927.272,282.504 C928.578667,284.706667 929.838667,286.937333 931.052,289.196 C932.265333,291.454667 933.469333,293.722667 934.664,296 L934.664,296 L946.704,296 C945.173333,293.274667 943.614667,290.605333 942.028,287.992 C940.441333,285.378667 938.826667,282.784 937.184,280.208 C939.274667,279.088 940.889333,277.594667 942.028,275.728 C943.166667,273.861333 943.736,271.696 943.736,269.232 C943.736,264.938667 942.261333,261.653333 939.312,259.376 C936.362667,257.098667 932.106667,255.96 926.544,255.96 L926.544,255.96 L911.2,255.96 L911.2,296 L921.784,296 Z M926.04,274.104 L921.784,274.104 L921.784,264.36 L926.04,264.36 C928.317333,264.36 929.997333,264.761333 931.08,265.564 C932.162667,266.366667 932.704,267.589333 932.704,269.232 C932.704,270.837333 932.162667,272.050667 931.08,272.872 C929.997333,273.693333 928.317333,274.104 926.04,274.104 L926.04,274.104 Z M961.208,296 L961.208,271.696 C962.44,274.533333 963.7,277.370667 964.988,280.208 C966.276,283.045333 967.573333,285.882667 968.88,288.72 L968.88,288.72 L977.28,288.72 C978.549333,285.882667 979.809333,283.036 981.06,280.18 C982.310667,277.324 983.552,274.44 984.784,271.528 L984.784,271.528 L984.784,296 L994.976,296 L994.976,255.96 L981.984,255.96 C980.565333,259.730667 979.128,263.454667 977.672,267.132 C976.216,270.809333 974.741333,274.44 973.248,278.024 C971.68,274.402667 970.14,270.744 968.628,267.048 C967.116,263.352 965.632,259.656 964.176,255.96 L964.176,255.96 L951.016,255.96 L951.016,296 L961.208,296 Z M1010.656,296 C1011.44,293.461333 1012.20533,290.96 1012.952,288.496 L1012.952,288.496 L1027.568,288.496 C1027.94133,289.728 1028.324,290.969333 1028.716,292.22 C1029.108,293.470667 1029.49067,294.730667 1029.864,296 L1029.864,296 L1041.68,296 C1039.29067,289.317333 1036.82667,282.634667 1034.288,275.952 C1031.74933,269.269333 1029.136,262.605333 1026.448,255.96 L1026.448,255.96 L1014.408,255.96 C1011.79467,262.269333 1009.21867,268.765333 1006.68,275.448 C1004.14133,282.130667 1001.64,288.981333 999.176,296 L999.176,296 L1010.656,296 Z M1024.88,279.984 L1015.64,279.984 C1016.38667,277.669333 1017.152,275.364 1017.936,273.068 C1018.72,270.772 1019.504,268.466667 1020.288,266.152 C1021.072,268.429333 1021.84667,270.716 1022.612,273.012 C1023.37733,275.308 1024.13333,277.632 1024.88,279.984 L1024.88,279.984 Z M1074.608,296 L1074.608,286.592 L1056.8,286.592 L1056.8,255.96 L1045.88,255.96 L1045.88,296 L1074.608,296 Z M1107.816,296 L1107.816,286.592 L1090.008,286.592 L1090.008,255.96 L1079.088,255.96 L1079.088,296 L1107.816,296 Z M1135.088,296 L1135.088,281.16 C1137.664,276.978667 1140.20267,272.788 1142.704,268.588 C1145.20533,264.388 1147.65067,260.178667 1150.04,255.96 L1150.04,255.96 L1138.056,255.96 C1136.74933,258.610667 1135.40533,261.270667 1134.024,263.94 C1132.64267,266.609333 1131.26133,269.269333 1129.88,271.92 C1128.46133,269.269333 1127.07067,266.618667 1125.708,263.968 C1124.34533,261.317333 1122.992,258.648 1121.648,255.96 L1121.648,255.96 L1109.272,255.96 C1111.624,260.178667 1114.05067,264.388 1116.552,268.588 C1119.05333,272.788 1121.592,276.978667 1124.168,281.16 L1124.168,281.16 L1124.168,296 L1135.088,296 Z M802.28,358 L802.28,345.288 L806.76,345.288 C810.381333,345.288 813.442667,344.756 815.944,343.692 C818.445333,342.628 820.349333,341.078667 821.656,339.044 C822.962667,337.009333 823.616,334.536 823.616,331.624 C823.616,327.218667 822.169333,323.84 819.276,321.488 C816.382667,319.136 812.210667,317.96 806.76,317.96 L806.76,317.96 L791.696,317.96 L791.696,358 L802.28,358 Z M806.256,336.888 L802.28,336.888 L802.28,326.36 L806.256,326.36 C810.474667,326.36 812.584,328.114667 812.584,331.624 C812.584,335.133333 810.474667,336.888 806.256,336.888 L806.256,336.888 Z M857.888,358 L857.888,348.592 L840.08,348.592 L840.08,317.96 L829.16,317.96 L829.16,358 L857.888,358 Z M870.656,358 C871.44,355.461333 872.205333,352.96 872.952,350.496 L872.952,350.496 L887.568,350.496 C887.941333,351.728 888.324,352.969333 888.716,354.22 C889.108,355.470667 889.490667,356.730667 889.864,358 L889.864,358 L901.68,358 C899.290667,351.317333 896.826667,344.634667 894.288,337.952 C891.749333,331.269333 889.136,324.605333 886.448,317.96 L886.448,317.96 L874.408,317.96 C871.794667,324.269333 869.218667,330.765333 866.68,337.448 C864.141333,344.130667 861.64,350.981333 859.176,358 L859.176,358 L870.656,358 Z M884.88,341.984 L875.64,341.984 C876.386667,339.669333 877.152,337.364 877.936,335.068 C878.72,332.772 879.504,330.466667 880.288,328.152 C881.072,330.429333 881.846667,332.716 882.612,335.012 C883.377333,337.308 884.133333,339.632 884.88,341.984 L884.88,341.984 Z M928.672,358 L928.672,343.16 C931.248,338.978667 933.786667,334.788 936.288,330.588 C938.789333,326.388 941.234667,322.178667 943.624,317.96 L943.624,317.96 L931.64,317.96 C930.333333,320.610667 928.989333,323.270667 927.608,325.94 C926.226667,328.609333 924.845333,331.269333 923.464,333.92 C922.045333,331.269333 920.654667,328.618667 919.292,325.968 C917.929333,323.317333 916.576,320.648 915.232,317.96 L915.232,317.96 L902.856,317.96 C905.208,322.178667 907.634667,326.388 910.136,330.588 C912.637333,334.788 915.176,338.978667 917.752,343.16 L917.752,343.16 L917.752,358 L928.672,358 Z M980.472,358 L980.472,327.368 L992.456,327.368 L992.456,317.96 L957.568,317.96 L957.568,327.368 L969.552,327.368 L969.552,358 L980.472,358 Z M1007.856,358 L1007.856,341.816 L1022.08,341.816 L1022.08,358 L1033,358 L1033,317.96 L1022.08,317.96 L1022.08,332.408 L1007.856,332.408 L1007.856,317.96 L996.936,317.96 L996.936,358 L1007.856,358 Z M1070.128,358 L1070.128,349.264 L1051.032,349.264 L1051.032,341.984 L1066.824,341.984 L1066.824,333.248 L1051.032,333.248 L1051.032,326.696 L1069.064,326.696 L1069.064,317.96 L1040.392,317.96 L1040.392,358 L1070.128,358 Z M811.688,420 L811.688,389.368 L823.672,389.368 L823.672,379.96 L788.784,379.96 L788.784,389.368 L800.768,389.368 L800.768,420 L811.688,420 Z M839.072,420 L839.072,403.816 L853.296,403.816 L853.296,420 L864.216,420 L864.216,379.96 L853.296,379.96 L853.296,394.408 L839.072,394.408 L839.072,379.96 L828.152,379.96 L828.152,420 L839.072,420 Z M901.344,420 L901.344,411.264 L882.248,411.264 L882.248,403.984 L898.04,403.984 L898.04,395.248 L882.248,395.248 L882.248,388.696 L900.28,388.696 L900.28,379.96 L871.608,379.96 L871.608,420 L901.344,420 Z M916.8,420 L916.8,395.696 C918.032,398.533333 919.292,401.370667 920.58,404.208 C921.868,407.045333 923.165333,409.882667 924.472,412.72 L924.472,412.72 L932.872,412.72 C934.141333,409.882667 935.401333,407.036 936.652,404.18 C937.902667,401.324 939.144,398.44 940.376,395.528 L940.376,395.528 L940.376,420 L950.568,420 L950.568,379.96 L937.576,379.96 C936.157333,383.730667 934.72,387.454667 933.264,391.132 C931.808,394.809333 930.333333,398.44 928.84,402.024 C927.272,398.402667 925.732,394.744 924.22,391.048 C922.708,387.352 921.224,383.656 919.768,379.96 L919.768,379.96 L906.608,379.96 L906.608,420 L916.8,420 Z M987.696,420 L987.696,411.264 L968.6,411.264 L968.6,403.984 L984.392,403.984 L984.392,395.248 L968.6,395.248 L968.6,388.696 L986.632,388.696 L986.632,379.96 L957.96,379.96 L957.96,420 L987.696,420 Z M1025.44,420 L1025.44,389.368 L1037.424,389.368 L1037.424,379.96 L1002.536,379.96 L1002.536,389.368 L1014.52,389.368 L1014.52,420 L1025.44,420 Z M1059.544,420.84 C1063.24,420.84 1066.404,420.130667 1069.036,418.712 C1071.668,417.293333 1073.684,415.249333 1075.084,412.58 C1076.484,409.910667 1077.184,406.728 1077.184,403.032 L1077.184,403.032 L1077.184,379.96 L1066.432,379.96 L1066.432,404.264 C1066.432,406.541333 1065.83467,408.305333 1064.64,409.556 C1063.44533,410.806667 1061.74667,411.432 1059.544,411.432 C1057.37867,411.432 1055.68933,410.806667 1054.476,409.556 C1053.26267,408.305333 1052.656,406.541333 1052.656,404.264 L1052.656,404.264 L1052.656,379.96 L1041.736,379.96 L1041.736,403.032 C1041.736,406.728 1042.44533,409.910667 1043.864,412.58 C1045.28267,415.249333 1047.32667,417.293333 1049.996,418.712 C1052.66533,420.130667 1055.848,420.84 1059.544,420.84 Z M1094.824,420 L1094.824,395.696 C1097.25067,399.578667 1099.724,403.582667 1102.244,407.708 C1104.764,411.833333 1107.21867,415.930667 1109.608,420 L1109.608,420 L1120.584,420 L1120.584,379.96 L1110.168,379.96 L1110.168,403.816 C1107.74133,399.746667 1105.296,395.714667 1102.832,391.72 C1100.368,387.725333 1097.88533,383.805333 1095.384,379.96 L1095.384,379.96 L1084.408,379.96 L1084.408,420 L1094.824,420 Z M1157.712,420 L1157.712,411.264 L1138.616,411.264 L1138.616,403.984 L1154.408,403.984 L1154.408,395.248 L1138.616,395.248 L1138.616,388.696 L1156.648,388.696 L1156.648,379.96 L1127.976,379.96 L1127.976,420 L1157.712,420 Z" id="INORMALLYPLAYTHETHEMETUNE"></path>
            </g>
        </g>
    </g>
</svg>