<?xml version="1.0" encoding="UTF-8"?>
<svg width="1200px" height="677px" viewBox="0 0 1200 677" version="1.1" xmlns="http://www.w3.org/2000/svg" xmlns:xlink="http://www.w3.org/1999/xlink">
    <!-- Generator: Sketch 61.2 (89653) - https://sketch.com -->
    <title>greg-text-01 copy 2</title>
    <desc>Created with Sketch.</desc>
    <g id="Assets" stroke="none" stroke-width="1" fill="none" fill-rule="evenodd">
        <g id="Greg" fill="#FFFFFF" fill-rule="nonzero">
            <g id="greg-text-00a">
                <path d="M810.176,265 C811.258667,260.893333 812.304,256.777333 813.312,252.652 C814.32,248.526667 815.328,244.392 816.336,240.248 C817.306667,244.392 818.314667,248.526667 819.36,252.652 C820.405333,256.777333 821.469333,260.893333 822.552,265 L822.552,265 L833.864,265 C835.730667,258.466667 837.513333,251.858667 839.212,245.176 C840.910667,238.493333 842.506667,231.754667 844,224.96 L844,224.96 L832.52,224.96 C831.810667,229.626667 831.054667,234.293333 830.252,238.96 C829.449333,243.626667 828.6,248.237333 827.704,252.792 C826.696,248.461333 825.697333,244.121333 824.708,239.772 C823.718667,235.422667 822.757333,231.045333 821.824,226.64 L821.824,226.64 L811.352,226.64 C810.418667,231.12 809.448,235.609333 808.44,240.108 C807.432,244.606667 806.386667,249.114667 805.304,253.632 C804.408,248.965333 803.549333,244.224 802.728,239.408 C801.906667,234.592 801.141333,229.776 800.432,224.96 L800.432,224.96 L788.728,224.96 C790.258667,231.754667 791.873333,238.493333 793.572,245.176 C795.270667,251.858667 797.034667,258.466667 798.864,265 L798.864,265 L810.176,265 Z M878.16,265 L878.16,256.264 L859.064,256.264 L859.064,248.984 L874.856,248.984 L874.856,240.248 L859.064,240.248 L859.064,233.696 L877.096,233.696 L877.096,224.96 L848.424,224.96 L848.424,265 L878.16,265 Z M906.832,265 L906.832,248.816 L921.056,248.816 L921.056,265 L931.976,265 L931.976,224.96 L921.056,224.96 L921.056,239.408 L906.832,239.408 L906.832,224.96 L895.912,224.96 L895.912,265 L906.832,265 Z M947.656,265 C948.44,262.461333 949.205333,259.96 949.952,257.496 L949.952,257.496 L964.568,257.496 C964.941333,258.728 965.324,259.969333 965.716,261.22 C966.108,262.470667 966.490667,263.730667 966.864,265 L966.864,265 L978.68,265 C976.290667,258.317333 973.826667,251.634667 971.288,244.952 C968.749333,238.269333 966.136,231.605333 963.448,224.96 L963.448,224.96 L951.408,224.96 C948.794667,231.269333 946.218667,237.765333 943.68,244.448 C941.141333,251.130667 938.64,257.981333 936.176,265 L936.176,265 L947.656,265 Z M961.88,248.984 L952.64,248.984 C953.386667,246.669333 954.152,244.364 954.936,242.068 C955.72,239.772 956.504,237.466667 957.288,235.152 C958.072,237.429333 958.846667,239.716 959.612,242.012 C960.377333,244.308 961.133333,246.632 961.88,248.984 L961.88,248.984 Z M1006.4,265 C1008.976,258.317333 1011.51467,251.634667 1014.016,244.952 C1016.51733,238.269333 1018.944,231.605333 1021.296,224.96 L1021.296,224.96 L1009.704,224.96 C1008.248,229.813333 1006.764,234.648 1005.252,239.464 C1003.74,244.28 1002.2,249.096 1000.632,253.912 C999.101333,249.096 997.58,244.28 996.068,239.464 C994.556,234.648 993.072,229.813333 991.616,224.96 L991.616,224.96 L979.688,224.96 C982.04,231.605333 984.466667,238.269333 986.968,244.952 C989.469333,251.634667 992.008,258.317333 994.584,265 L994.584,265 L1006.4,265 Z M1055.232,265 L1055.232,256.264 L1036.136,256.264 L1036.136,248.984 L1051.928,248.984 L1051.928,240.248 L1036.136,240.248 L1036.136,233.696 L1054.168,233.696 L1054.168,224.96 L1025.496,224.96 L1025.496,265 L1055.232,265 Z M811.688,327 L811.688,296.368 L823.672,296.368 L823.672,286.96 L788.784,286.96 L788.784,296.368 L800.768,296.368 L800.768,327 L811.688,327 Z M846.632,327 C847.714667,322.893333 848.76,318.777333 849.768,314.652 C850.776,310.526667 851.784,306.392 852.792,302.248 C853.762667,306.392 854.770667,310.526667 855.816,314.652 C856.861333,318.777333 857.925333,322.893333 859.008,327 L859.008,327 L870.32,327 C872.186667,320.466667 873.969333,313.858667 875.668,307.176 C877.366667,300.493333 878.962667,293.754667 880.456,286.96 L880.456,286.96 L868.976,286.96 C868.266667,291.626667 867.510667,296.293333 866.708,300.96 C865.905333,305.626667 865.056,310.237333 864.16,314.792 C863.152,310.461333 862.153333,306.121333 861.164,301.772 C860.174667,297.422667 859.213333,293.045333 858.28,288.64 L858.28,288.64 L847.808,288.64 C846.874667,293.12 845.904,297.609333 844.896,302.108 C843.888,306.606667 842.842667,311.114667 841.76,315.632 C840.864,310.965333 840.005333,306.224 839.184,301.408 C838.362667,296.592 837.597333,291.776 836.888,286.96 L836.888,286.96 L825.184,286.96 C826.714667,293.754667 828.329333,300.493333 830.028,307.176 C831.726667,313.858667 833.490667,320.466667 835.32,327 L835.32,327 L846.632,327 Z M903.752,327.84 C906.850667,327.84 909.650667,327.354667 912.152,326.384 C914.653333,325.413333 916.790667,324.013333 918.564,322.184 C920.337333,320.354667 921.7,318.152 922.652,315.576 C923.604,313 924.08,310.125333 924.08,306.952 C924.08,303.741333 923.604,300.857333 922.652,298.3 C921.7,295.742667 920.337333,293.558667 918.564,291.748 C916.790667,289.937333 914.653333,288.546667 912.152,287.576 C909.650667,286.605333 906.850667,286.12 903.752,286.12 C900.653333,286.12 897.853333,286.605333 895.352,287.576 C892.850667,288.546667 890.713333,289.937333 888.94,291.748 C887.166667,293.558667 885.804,295.742667 884.852,298.3 C883.9,300.857333 883.424,303.741333 883.424,306.952 C883.424,310.125333 883.9,313 884.852,315.576 C885.804,318.152 887.166667,320.354667 888.94,322.184 C890.713333,324.013333 892.850667,325.413333 895.352,326.384 C897.853333,327.354667 900.653333,327.84 903.752,327.84 Z M903.752,318.432 C900.84,318.432 898.609333,317.442667 897.06,315.464 C895.510667,313.485333 894.736,310.648 894.736,306.952 C894.736,303.293333 895.510667,300.474667 897.06,298.496 C898.609333,296.517333 900.84,295.528 903.752,295.528 C906.664,295.528 908.894667,296.517333 910.444,298.496 C911.993333,300.474667 912.768,303.293333 912.768,306.952 C912.768,310.648 911.993333,313.485333 910.444,315.464 C908.894667,317.442667 906.664,318.432 903.752,318.432 Z M966.024,327 C968.6,320.317333 971.138667,313.634667 973.64,306.952 C976.141333,300.269333 978.568,293.605333 980.92,286.96 L980.92,286.96 L969.328,286.96 C967.872,291.813333 966.388,296.648 964.876,301.464 C963.364,306.28 961.824,311.096 960.256,315.912 C958.725333,311.096 957.204,306.28 955.692,301.464 C954.18,296.648 952.696,291.813333 951.24,286.96 L951.24,286.96 L939.312,286.96 C941.664,293.605333 944.090667,300.269333 946.592,306.952 C949.093333,313.634667 951.632,320.317333 954.208,327 L954.208,327 L966.024,327 Z M1014.856,327 L1014.856,318.264 L995.76,318.264 L995.76,310.984 L1011.552,310.984 L1011.552,302.248 L995.76,302.248 L995.76,295.696 L1013.792,295.696 L1013.792,286.96 L985.12,286.96 L985.12,327 L1014.856,327 Z M1030.704,327 L1030.704,313.504 L1036.192,313.504 C1037.49867,315.706667 1038.75867,317.937333 1039.972,320.196 C1041.18533,322.454667 1042.38933,324.722667 1043.584,327 L1043.584,327 L1055.624,327 C1054.09333,324.274667 1052.53467,321.605333 1050.948,318.992 C1049.36133,316.378667 1047.74667,313.784 1046.104,311.208 C1048.19467,310.088 1049.80933,308.594667 1050.948,306.728 C1052.08667,304.861333 1052.656,302.696 1052.656,300.232 C1052.656,295.938667 1051.18133,292.653333 1048.232,290.376 C1045.28267,288.098667 1041.02667,286.96 1035.464,286.96 L1035.464,286.96 L1020.12,286.96 L1020.12,327 L1030.704,327 Z M1034.96,305.104 L1030.704,305.104 L1030.704,295.36 L1034.96,295.36 C1037.23733,295.36 1038.91733,295.761333 1040,296.564 C1041.08267,297.366667 1041.624,298.589333 1041.624,300.232 C1041.624,301.837333 1041.08267,303.050667 1040,303.872 C1038.91733,304.693333 1037.23733,305.104 1034.96,305.104 L1034.96,305.104 Z M1082.728,327 L1082.728,312.16 C1085.304,307.978667 1087.84267,303.788 1090.344,299.588 C1092.84533,295.388 1095.29067,291.178667 1097.68,286.96 L1097.68,286.96 L1085.696,286.96 C1084.38933,289.610667 1083.04533,292.270667 1081.664,294.94 C1080.28267,297.609333 1078.90133,300.269333 1077.52,302.92 C1076.10133,300.269333 1074.71067,297.618667 1073.348,294.968 C1071.98533,292.317333 1070.632,289.648 1069.288,286.96 L1069.288,286.96 L1056.912,286.96 C1059.264,291.178667 1061.69067,295.388 1064.192,299.588 C1066.69333,303.788 1069.232,307.978667 1071.808,312.16 L1071.808,312.16 L1071.808,327 L1082.728,327 Z M803.792,389.84 C807.450667,389.84 810.558667,389.336 813.116,388.328 C815.673333,387.32 817.633333,385.845333 818.996,383.904 C820.358667,381.962667 821.04,379.610667 821.04,376.848 C821.04,374.757333 820.704,373.012 820.032,371.612 C819.36,370.212 818.408,369.054667 817.176,368.14 C815.944,367.225333 814.488,366.450667 812.808,365.816 C811.128,365.181333 809.261333,364.621333 807.208,364.136 C805.229333,363.650667 803.708,363.137333 802.644,362.596 C801.58,362.054667 801.048,361.242667 801.048,360.16 C801.048,359.114667 801.561333,358.321333 802.588,357.78 C803.614667,357.238667 805.061333,356.968 806.928,356.968 C808.234667,356.968 809.588,357.089333 810.988,357.332 C812.388,357.574667 813.778667,357.929333 815.16,358.396 C816.541333,358.862667 817.848,359.469333 819.08,360.216 L819.08,360.216 L819.08,350.864 C817.362667,350.005333 815.44,349.333333 813.312,348.848 C811.184,348.362667 809.018667,348.12 806.816,348.12 C803.418667,348.12 800.469333,348.633333 797.968,349.66 C795.466667,350.686667 793.544,352.152 792.2,354.056 C790.856,355.96 790.184,358.256 790.184,360.944 C790.184,362.698667 790.445333,364.229333 790.968,365.536 C791.490667,366.842667 792.312,367.990667 793.432,368.98 C794.552,369.969333 796.008,370.837333 797.8,371.584 C799.592,372.330667 801.757333,373.002667 804.296,373.6 C805.453333,373.861333 806.461333,374.16 807.32,374.496 C808.178667,374.832 808.850667,375.233333 809.336,375.7 C809.821333,376.166667 810.064,376.792 810.064,377.576 C810.064,378.658667 809.522667,379.498667 808.44,380.096 C807.357333,380.693333 805.752,380.992 803.624,380.992 C801.458667,380.992 799.284,380.684 797.1,380.068 C794.916,379.452 792.778667,378.546667 790.688,377.352 L790.688,377.352 L790.688,386.816 C792.853333,387.861333 795.009333,388.626667 797.156,389.112 C799.302667,389.597333 801.514667,389.84 803.792,389.84 Z M837.336,389 L837.336,376.288 L841.816,376.288 C845.437333,376.288 848.498667,375.756 851,374.692 C853.501333,373.628 855.405333,372.078667 856.712,370.044 C858.018667,368.009333 858.672,365.536 858.672,362.624 C858.672,358.218667 857.225333,354.84 854.332,352.488 C851.438667,350.136 847.266667,348.96 841.816,348.96 L841.816,348.96 L826.752,348.96 L826.752,389 L837.336,389 Z M841.312,367.888 L837.336,367.888 L837.336,357.36 L841.312,357.36 C845.530667,357.36 847.64,359.114667 847.64,362.624 C847.64,366.133333 845.530667,367.888 841.312,367.888 L841.312,367.888 Z M893.952,389 L893.952,380.264 L874.856,380.264 L874.856,372.984 L890.648,372.984 L890.648,364.248 L874.856,364.248 L874.856,357.696 L892.888,357.696 L892.888,348.96 L864.216,348.96 L864.216,389 L893.952,389 Z M918.76,389.84 C921.186667,389.84 923.454667,389.597333 925.564,389.112 C927.673333,388.626667 929.568,387.954667 931.248,387.096 L931.248,387.096 L931.248,377.408 C929.493333,378.453333 927.748,379.218667 926.012,379.704 C924.276,380.189333 922.437333,380.432 920.496,380.432 C916.874667,380.432 914.065333,379.433333 912.068,377.436 C910.070667,375.438667 909.072,372.610667 909.072,368.952 C909.072,365.293333 910.108,362.474667 912.18,360.496 C914.252,358.517333 917.154667,357.528 920.888,357.528 C922.717333,357.528 924.462667,357.770667 926.124,358.256 C927.785333,358.741333 929.344,359.469333 930.8,360.44 L930.8,360.44 L930.8,350.584 C927.44,348.941333 923.576,348.12 919.208,348.12 C915.96,348.12 913.02,348.614667 910.388,349.604 C907.756,350.593333 905.497333,352.002667 903.612,353.832 C901.726667,355.661333 900.28,357.854667 899.272,360.412 C898.264,362.969333 897.76,365.816 897.76,368.952 C897.76,372.2 898.236,375.121333 899.188,377.716 C900.14,380.310667 901.521333,382.504 903.332,384.296 C905.142667,386.088 907.345333,387.46 909.94,388.412 C912.534667,389.364 915.474667,389.84 918.76,389.84 Z M947.488,389 L947.488,348.96 L936.568,348.96 L936.568,389 L947.488,389 Z M963.168,389 C963.952,386.461333 964.717333,383.96 965.464,381.496 L965.464,381.496 L980.08,381.496 C980.453333,382.728 980.836,383.969333 981.228,385.22 C981.62,386.470667 982.002667,387.730667 982.376,389 L982.376,389 L994.192,389 C991.802667,382.317333 989.338667,375.634667 986.8,368.952 C984.261333,362.269333 981.648,355.605333 978.96,348.96 L978.96,348.96 L966.92,348.96 C964.306667,355.269333 961.730667,361.765333 959.192,368.448 C956.653333,375.130667 954.152,381.981333 951.688,389 L951.688,389 L963.168,389 Z M977.392,372.984 L968.152,372.984 C968.898667,370.669333 969.664,368.364 970.448,366.068 C971.232,363.772 972.016,361.466667 972.8,359.152 C973.584,361.429333 974.358667,363.716 975.124,366.012 C975.889333,368.308 976.645333,370.632 977.392,372.984 L977.392,372.984 Z M1027.12,389 L1027.12,379.592 L1009.312,379.592 L1009.312,348.96 L998.392,348.96 L998.392,389 L1027.12,389 Z M811.408,451.84 C813.2,451.84 815.001333,451.728 816.812,451.504 C818.622667,451.28 820.368,450.934667 822.048,450.468 C823.728,450.001333 825.221333,449.450667 826.528,448.816 L826.528,448.816 L826.528,427.928 L810.904,427.928 L810.904,435.992 L816.728,435.992 L816.728,441.984 C816.018667,442.170667 815.281333,442.310667 814.516,442.404 C813.750667,442.497333 812.994667,442.544 812.248,442.544 C808.738667,442.544 806.078667,441.564 804.268,439.604 C802.457333,437.644 801.552,434.76 801.552,430.952 C801.552,427.293333 802.588,424.474667 804.66,422.496 C806.732,420.517333 809.690667,419.528 813.536,419.528 C815.888,419.528 818.044,419.78 820.004,420.284 C821.964,420.788 823.784,421.506667 825.464,422.44 L825.464,422.44 L825.464,412.584 C821.544,410.941333 817.101333,410.12 812.136,410.12 C808.850667,410.12 805.864,410.614667 803.176,411.604 C800.488,412.593333 798.173333,414.002667 796.232,415.832 C794.290667,417.661333 792.806667,419.854667 791.78,422.412 C790.753333,424.969333 790.24,427.816 790.24,430.952 C790.24,434.2 790.725333,437.112 791.696,439.688 C792.666667,442.264 794.066667,444.457333 795.896,446.268 C797.725333,448.078667 799.946667,449.46 802.56,450.412 C805.173333,451.364 808.122667,451.84 811.408,451.84 Z M850.776,451.84 C854.472,451.84 857.636,451.130667 860.268,449.712 C862.9,448.293333 864.916,446.249333 866.316,443.58 C867.716,440.910667 868.416,437.728 868.416,434.032 L868.416,434.032 L868.416,410.96 L857.664,410.96 L857.664,435.264 C857.664,437.541333 857.066667,439.305333 855.872,440.556 C854.677333,441.806667 852.978667,442.432 850.776,442.432 C848.610667,442.432 846.921333,441.806667 845.708,440.556 C844.494667,439.305333 843.888,437.541333 843.888,435.264 L843.888,435.264 L843.888,410.96 L832.968,410.96 L832.968,434.032 C832.968,437.728 833.677333,440.910667 835.096,443.58 C836.514667,446.249333 838.558667,448.293333 841.228,449.712 C843.897333,451.130667 847.08,451.84 850.776,451.84 Z M905.376,451 L905.376,442.264 L886.28,442.264 L886.28,434.984 L902.072,434.984 L902.072,426.248 L886.28,426.248 L886.28,419.696 L904.312,419.696 L904.312,410.96 L875.64,410.96 L875.64,451 L905.376,451 Z M922.736,451.84 C926.394667,451.84 929.502667,451.336 932.06,450.328 C934.617333,449.32 936.577333,447.845333 937.94,445.904 C939.302667,443.962667 939.984,441.610667 939.984,438.848 C939.984,436.757333 939.648,435.012 938.976,433.612 C938.304,432.212 937.352,431.054667 936.12,430.14 C934.888,429.225333 933.432,428.450667 931.752,427.816 C930.072,427.181333 928.205333,426.621333 926.152,426.136 C924.173333,425.650667 922.652,425.137333 921.588,424.596 C920.524,424.054667 919.992,423.242667 919.992,422.16 C919.992,421.114667 920.505333,420.321333 921.532,419.78 C922.558667,419.238667 924.005333,418.968 925.872,418.968 C927.178667,418.968 928.532,419.089333 929.932,419.332 C931.332,419.574667 932.722667,419.929333 934.104,420.396 C935.485333,420.862667 936.792,421.469333 938.024,422.216 L938.024,422.216 L938.024,412.864 C936.306667,412.005333 934.384,411.333333 932.256,410.848 C930.128,410.362667 927.962667,410.12 925.76,410.12 C922.362667,410.12 919.413333,410.633333 916.912,411.66 C914.410667,412.686667 912.488,414.152 911.144,416.056 C909.8,417.96 909.128,420.256 909.128,422.944 C909.128,424.698667 909.389333,426.229333 909.912,427.536 C910.434667,428.842667 911.256,429.990667 912.376,430.98 C913.496,431.969333 914.952,432.837333 916.744,433.584 C918.536,434.330667 920.701333,435.002667 923.24,435.6 C924.397333,435.861333 925.405333,436.16 926.264,436.496 C927.122667,436.832 927.794667,437.233333 928.28,437.7 C928.765333,438.166667 929.008,438.792 929.008,439.576 C929.008,440.658667 928.466667,441.498667 927.384,442.096 C926.301333,442.693333 924.696,442.992 922.568,442.992 C920.402667,442.992 918.228,442.684 916.044,442.068 C913.86,441.452 911.722667,440.546667 909.632,439.352 L909.632,439.352 L909.632,448.816 C911.797333,449.861333 913.953333,450.626667 916.1,451.112 C918.246667,451.597333 920.458667,451.84 922.736,451.84 Z M965.688,451 L965.688,420.368 L977.672,420.368 L977.672,410.96 L942.784,410.96 L942.784,420.368 L954.768,420.368 L954.768,451 L965.688,451 Z M994.248,451.84 C997.906667,451.84 1001.01467,451.336 1003.572,450.328 C1006.12933,449.32 1008.08933,447.845333 1009.452,445.904 C1010.81467,443.962667 1011.496,441.610667 1011.496,438.848 C1011.496,436.757333 1011.16,435.012 1010.488,433.612 C1009.816,432.212 1008.864,431.054667 1007.632,430.14 C1006.4,429.225333 1004.944,428.450667 1003.264,427.816 C1001.584,427.181333 999.717333,426.621333 997.664,426.136 C995.685333,425.650667 994.164,425.137333 993.1,424.596 C992.036,424.054667 991.504,423.242667 991.504,422.16 C991.504,421.114667 992.017333,420.321333 993.044,419.78 C994.070667,419.238667 995.517333,418.968 997.384,418.968 C998.690667,418.968 1000.044,419.089333 1001.444,419.332 C1002.844,419.574667 1004.23467,419.929333 1005.616,420.396 C1006.99733,420.862667 1008.304,421.469333 1009.536,422.216 L1009.536,422.216 L1009.536,412.864 C1007.81867,412.005333 1005.896,411.333333 1003.768,410.848 C1001.64,410.362667 999.474667,410.12 997.272,410.12 C993.874667,410.12 990.925333,410.633333 988.424,411.66 C985.922667,412.686667 984,414.152 982.656,416.056 C981.312,417.96 980.64,420.256 980.64,422.944 C980.64,424.698667 980.901333,426.229333 981.424,427.536 C981.946667,428.842667 982.768,429.990667 983.888,430.98 C985.008,431.969333 986.464,432.837333 988.256,433.584 C990.048,434.330667 992.213333,435.002667 994.752,435.6 C995.909333,435.861333 996.917333,436.16 997.776,436.496 C998.634667,436.832 999.306667,437.233333 999.792,437.7 C1000.27733,438.166667 1000.52,438.792 1000.52,439.576 C1000.52,440.658667 999.978667,441.498667 998.896,442.096 C997.813333,442.693333 996.208,442.992 994.08,442.992 C991.914667,442.992 989.74,442.684 987.556,442.068 C985.372,441.452 983.234667,440.546667 981.144,439.352 L981.144,439.352 L981.144,448.816 C983.309333,449.861333 985.465333,450.626667 987.612,451.112 C989.758667,451.597333 991.970667,451.84 994.248,451.84 Z" id="WEHAVETWOVERYSPECIALGUESTS"></path>
            </g>
        </g>
    </g>
</svg>