<svg width="1200" height="677" viewBox="0 0 1200 677" xmlns="http://www.w3.org/2000/svg" xmlns:xlink="http://www.w3.org/1999/xlink"><title>Player Copy 11</title><desc>Created with Sketch.</desc><g id="Assets" stroke="none" stroke-width="1" fill="none" fill-rule="evenodd"><g id="Mel" fill="#fff" fill-rule="nonzero"><g id="mel-text-09"><path d="M1012.192 383V362.392H973.408C974.688 360.258667 976.565333 358.168 979.04 356.12 981.514667 354.072 984.8 351.768 988.896 349.208 993.077333 346.648 996.533333 344.216 999.264 341.912 1001.99467 339.608 1004.14933 337.261333 1005.728 334.872 1007.30667 332.482667 1008.43733 329.901333 1009.12 327.128 1009.80267 324.354667 1010.144 321.218667 1010.144 317.72 1010.144 312.429333 1008.8 307.864 1006.112 304.024 1003.424 300.184 999.626667 297.197333 994.72 295.064 989.813333 292.930667 984.032 291.864 977.376 291.864 971.914667 291.864 966.901333 292.44 962.336 293.592 957.770667 294.744 953.226667 296.557333 948.704 299.032v0V320.152C952.458667 317.421333 956.213333 315.437333 959.968 314.2 963.722667 312.962667 967.605333 312.344 971.616 312.344 975.882667 312.344 979.189333 313.112 981.536 314.648 983.882667 316.184 985.056 318.445333 985.056 321.432 985.056 322.797333 984.842667 324.034667 984.416 325.144 983.989333 326.253333 983.242667 327.362667 982.176 328.472 981.109333 329.581333 979.594667 330.861333 977.632 332.312 975.669333 333.762667 973.109333 335.469333 969.952 337.432 964.405333 340.930667 959.925333 344.578667 956.512 348.376 953.098667 352.173333 950.602667 356.290667 949.024 360.728 947.445333 365.165333 946.656 370.2 946.656 375.832v0V383H1012.192zM1049.056 384.664C1056.13867 384.664 1062.496 383.512 1068.128 381.208 1073.76 378.904 1078.56 375.597333 1082.528 371.288 1086.496 366.978667 1089.52533 361.709333 1091.616 355.48 1093.70667 349.250667 1094.752 342.253333 1094.752 334.488 1094.752 325.357333 1093.28 317.613333 1090.336 311.256 1087.392 304.898667 1083.104 300.077333 1077.472 296.792 1071.84 293.506667 1064.97067 291.864 1056.864 291.864 1051.91467 291.864 1047.392 292.589333 1043.296 294.04 1039.2 295.490667 1035.68 297.538667 1032.736 300.184 1029.792 302.829333 1027.53067 306.008 1025.952 309.72 1024.37333 313.432 1023.584 317.549333 1023.584 322.072 1023.584 327.96 1024.736 333.08 1027.04 337.432 1029.344 341.784 1032.65067 345.133333 1036.96 347.48 1041.26933 349.826667 1046.32533 351 1052.128 351 1055.54133 351 1058.76267 350.509333 1061.792 349.528 1064.82133 348.546667 1067.70133 347.074667 1070.432 345.112 1069.32267 351.938667 1066.89067 356.930667 1063.136 360.088 1059.38133 363.245333 1054.048 364.824 1047.136 364.824 1040.992 364.824 1034.72 363.501333 1028.32 360.856v0V380.312C1031.904 381.848 1035.33867 382.957333 1038.624 383.64 1041.90933 384.322667 1045.38667 384.664 1049.056 384.664zM1058.528 333.464C1055.02933 333.464 1052.27733 332.461333 1050.272 330.456 1048.26667 328.450667 1047.264 325.741333 1047.264 322.328 1047.264 318.573333 1048.18133 315.650667 1050.016 313.56 1051.85067 311.469333 1054.432 310.424 1057.76 310.424 1061.94133 310.424 1065.07733 311.917333 1067.168 314.904 1069.25867 317.890667 1070.51733 322.712 1070.944 329.368 1069.152 330.733333 1067.232 331.757333 1065.184 332.44 1063.136 333.122667 1060.91733 333.464 1058.528 333.464z" id="29"/></g></g></g></svg>