<svg width="1200" height="677" viewBox="0 0 1200 677" xmlns="http://www.w3.org/2000/svg" xmlns:xlink="http://www.w3.org/1999/xlink"><title>Player Copy 9</title><desc>Created with Sketch.</desc><g id="Assets" stroke="none" stroke-width="1" fill="none" fill-rule="evenodd"><g id="Mel" fill="#fff" fill-rule="nonzero"><g id="mel-text-07"><path d="M812.616 296V255.96H801.696V296H812.616zM840 296V265.368H851.984V255.96H817.096V265.368H829.08V296H840zM861.224 272.704C862.232 271.696 863.1 270.585333 863.828 269.372 864.556 268.158667 865.125333 266.889333 865.536 265.564 865.946667 264.238667 866.152 262.978667 866.152 261.784 866.152 259.768 865.704 258.228 864.808 257.164 863.912 256.1 862.549333 255.568 860.72 255.568 859.152 255.568 857.910667 256.025333 856.996 256.94 856.081333 257.854667 855.624 259.058667 855.624 260.552 855.624 261.709333 855.922667 262.68 856.52 263.464 857.117333 264.248 857.938667 264.789333 858.984 265.088 858.274667 267.626667 856.688 270.165333 854.224 272.704v0h7zM884.8 296.84C888.458667 296.84 891.566667 296.336 894.124 295.328 896.681333 294.32 898.641333 292.845333 900.004 290.904 901.366667 288.962667 902.048 286.610667 902.048 283.848 902.048 281.757333 901.712 280.012 901.04 278.612 900.368 277.212 899.416 276.054667 898.184 275.14 896.952 274.225333 895.496 273.450667 893.816 272.816 892.136 272.181333 890.269333 271.621333 888.216 271.136 886.237333 270.650667 884.716 270.137333 883.652 269.596 882.588 269.054667 882.056 268.242667 882.056 267.16 882.056 266.114667 882.569333 265.321333 883.596 264.78 884.622667 264.238667 886.069333 263.968 887.936 263.968 889.242667 263.968 890.596 264.089333 891.996 264.332 893.396 264.574667 894.786667 264.929333 896.168 265.396 897.549333 265.862667 898.856 266.469333 900.088 267.216v0V257.864C898.370667 257.005333 896.448 256.333333 894.32 255.848 892.192 255.362667 890.026667 255.12 887.824 255.12 884.426667 255.12 881.477333 255.633333 878.976 256.66 876.474667 257.686667 874.552 259.152 873.208 261.056 871.864 262.96 871.192 265.256 871.192 267.944 871.192 269.698667 871.453333 271.229333 871.976 272.536 872.498667 273.842667 873.32 274.990667 874.44 275.98 875.56 276.969333 877.016 277.837333 878.808 278.584 880.6 279.330667 882.765333 280.002667 885.304 280.6 886.461333 280.861333 887.469333 281.16 888.328 281.496 889.186667 281.832 889.858667 282.233333 890.344 282.7 890.829333 283.166667 891.072 283.792 891.072 284.576 891.072 285.658667 890.530667 286.498667 889.448 287.096 888.365333 287.693333 886.76 287.992 884.632 287.992 882.466667 287.992 880.292 287.684 878.108 287.068 875.924 286.452 873.786667 285.546667 871.696 284.352v0V293.816C873.861333 294.861333 876.017333 295.626667 878.164 296.112 880.310667 296.597333 882.522667 296.84 884.8 296.84zM939.96 296.84C941.752 296.84 943.553333 296.728 945.364 296.504 947.174667 296.28 948.92 295.934667 950.6 295.468 952.28 295.001333 953.773333 294.450667 955.08 293.816v0V272.928H939.456V280.992H945.28V286.984C944.570667 287.170667 943.833333 287.310667 943.068 287.404 942.302667 287.497333 941.546667 287.544 940.8 287.544 937.290667 287.544 934.630667 286.564 932.82 284.604 931.009333 282.644 930.104 279.76 930.104 275.952 930.104 272.293333 931.14 269.474667 933.212 267.496 935.284 265.517333 938.242667 264.528 942.088 264.528 944.44 264.528 946.596 264.78 948.556 265.284 950.516 265.788 952.336 266.506667 954.016 267.44v0V257.584C950.096 255.941333 945.653333 255.12 940.688 255.12 937.402667 255.12 934.416 255.614667 931.728 256.604 929.04 257.593333 926.725333 259.002667 924.784 260.832 922.842667 262.661333 921.358667 264.854667 920.332 267.412 919.305333 269.969333 918.792 272.816 918.792 275.952 918.792 279.2 919.277333 282.112 920.248 284.688 921.218667 287.264 922.618667 289.457333 924.448 291.268 926.277333 293.078667 928.498667 294.46 931.112 295.412 933.725333 296.364 936.674667 296.84 939.96 296.84zM980.56 296.84C983.658667 296.84 986.458667 296.354667 988.96 295.384 991.461333 294.413333 993.598667 293.013333 995.372 291.184 997.145333 289.354667 998.508 287.152 999.46 284.576 1000.412 282 1000.888 279.125333 1000.888 275.952 1000.888 272.741333 1000.412 269.857333 999.46 267.3 998.508 264.742667 997.145333 262.558667 995.372 260.748 993.598667 258.937333 991.461333 257.546667 988.96 256.576 986.458667 255.605333 983.658667 255.12 980.56 255.12 977.461333 255.12 974.661333 255.605333 972.16 256.576 969.658667 257.546667 967.521333 258.937333 965.748 260.748 963.974667 262.558667 962.612 264.742667 961.66 267.3 960.708 269.857333 960.232 272.741333 960.232 275.952 960.232 279.125333 960.708 282 961.66 284.576 962.612 287.152 963.974667 289.354667 965.748 291.184 967.521333 293.013333 969.658667 294.413333 972.16 295.384 974.661333 296.354667 977.461333 296.84 980.56 296.84zM980.56 287.432C977.648 287.432 975.417333 286.442667 973.868 284.464 972.318667 282.485333 971.544 279.648 971.544 275.952 971.544 272.293333 972.318667 269.474667 973.868 267.496 975.417333 265.517333 977.648 264.528 980.56 264.528 983.472 264.528 985.702667 265.517333 987.252 267.496 988.801333 269.474667 989.576 272.293333 989.576 275.952 989.576 279.648 988.801333 282.485333 987.252 284.464 985.702667 286.442667 983.472 287.432 980.56 287.432zM1026.816 296V265.368H1038.8V255.96H1003.912V265.368H1015.896V296H1026.816zM821.688 358V327.368H833.672V317.96H798.784V327.368H810.768V358H821.688zM857.024 358.84C860.122667 358.84 862.922667 358.354667 865.424 357.384 867.925333 356.413333 870.062667 355.013333 871.836 353.184 873.609333 351.354667 874.972 349.152 875.924 346.576 876.876 344 877.352 341.125333 877.352 337.952 877.352 334.741333 876.876 331.857333 875.924 329.3 874.972 326.742667 873.609333 324.558667 871.836 322.748 870.062667 320.937333 867.925333 319.546667 865.424 318.576 862.922667 317.605333 860.122667 317.12 857.024 317.12 853.925333 317.12 851.125333 317.605333 848.624 318.576 846.122667 319.546667 843.985333 320.937333 842.212 322.748 840.438667 324.558667 839.076 326.742667 838.124 329.3 837.172 331.857333 836.696 334.741333 836.696 337.952 836.696 341.125333 837.172 344 838.124 346.576 839.076 349.152 840.438667 351.354667 842.212 353.184 843.985333 355.013333 846.122667 356.413333 848.624 357.384 851.125333 358.354667 853.925333 358.84 857.024 358.84zM857.024 349.432C854.112 349.432 851.881333 348.442667 850.332 346.464 848.782667 344.485333 848.008 341.648 848.008 337.952 848.008 334.293333 848.782667 331.474667 850.332 329.496 851.881333 327.517333 854.112 326.528 857.024 326.528 859.936 326.528 862.166667 327.517333 863.716 329.496 865.265333 331.474667 866.04 334.293333 866.04 337.952 866.04 341.648 865.265333 344.485333 863.716 346.464 862.166667 348.442667 859.936 349.432 857.024 349.432zM913.136 358C916.496 358 919.38 357.533333 921.788 356.6 924.196 355.666667 926.044 354.322667 927.332 352.568 928.62 350.813333 929.264 348.722667 929.264 346.296 929.264 343.944 928.666667 341.937333 927.472 340.276 926.277333 338.614667 924.56 337.373333 922.32 336.552 925.493333 334.797333 927.08 332.128 927.08 328.544 927.08 325.109333 925.792 322.486667 923.216 320.676 920.64 318.865333 916.962667 317.96 912.184 317.96v0H895.776V358H913.136zM911.12 333.864H906.192V326.024H911.12C914.704 326.024 916.496 327.274667 916.496 329.776 916.496 331.045333 916.038667 332.044 915.124 332.772 914.209333 333.5 912.874667 333.864 911.12 333.864v0zM912.128 349.936H906.192V341.592H912.184C916.44 341.592 918.568 343.010667 918.568 345.848 918.568 347.154667 918.017333 348.162667 916.916 348.872 915.814667 349.581333 914.218667 349.936 912.128 349.936v0zM964.656 358V349.264H945.56V341.984H961.352V333.248H945.56V326.696H963.592V317.96H934.92V358H964.656zM992.6 358V333.696C993.832 336.533333 995.092 339.370667 996.38 342.208 997.668 345.045333 998.965333 347.882667 1000.272 350.72v0H1008.672C1009.94133 347.882667 1011.20133 345.036 1012.452 342.18 1013.70267 339.324 1014.944 336.44 1016.176 333.528v0V358H1026.368V317.96H1013.376C1011.95733 321.730667 1010.52 325.454667 1009.064 329.132 1007.608 332.809333 1006.13333 336.44 1004.64 340.024 1003.072 336.402667 1001.532 332.744 1000.02 329.048 998.508 325.352 997.024 321.656 995.568 317.96v0H982.408V358H992.6zM1063.496 358V349.264H1044.4V341.984H1060.192V333.248H1044.4V326.696H1062.432V317.96H1033.76V358H1063.496zM1079.176 358V333.696C1081.60267 337.578667 1084.076 341.582667 1086.596 345.708 1089.116 349.833333 1091.57067 353.930667 1093.96 358v0H1104.936V317.96H1094.52V341.816C1092.09333 337.746667 1089.648 333.714667 1087.184 329.72 1084.72 325.725333 1082.23733 321.805333 1079.736 317.96v0H1068.76V358H1079.176zM812.616 420V379.96H801.696V420H812.616zM830.424 420V395.696C832.850667 399.578667 835.324 403.582667 837.844 407.708 840.364 411.833333 842.818667 415.930667 845.208 420v0H856.184V379.96H845.768V403.816C843.341333 399.746667 840.896 395.714667 838.432 391.72 835.968 387.725333 833.485333 383.805333 830.984 379.96v0H820.008V420H830.424zm63 0C896.784 420 899.668 419.533333 902.076 418.6 904.484 417.666667 906.332 416.322667 907.62 414.568 908.908 412.813333 909.552 410.722667 909.552 408.296 909.552 405.944 908.954667 403.937333 907.76 402.276 906.565333 400.614667 904.848 399.373333 902.608 398.552 905.781333 396.797333 907.368 394.128 907.368 390.544 907.368 387.109333 906.08 384.486667 903.504 382.676 900.928 380.865333 897.250667 379.96 892.472 379.96v0H876.064V420H893.424zM891.408 395.864H886.48V388.024H891.408C894.992 388.024 896.784 389.274667 896.784 391.776 896.784 393.045333 896.326667 394.044 895.412 394.772 894.497333 395.5 893.162667 395.864 891.408 395.864v0zM892.416 411.936H886.48V403.592H892.472C896.728 403.592 898.856 405.010667 898.856 407.848 898.856 409.154667 898.305333 410.162667 897.204 410.872 896.102667 411.581333 894.506667 411.936 892.416 411.936v0zM943.936 420V410.592H926.128V379.96H915.208V420H943.936zM956.704 420C957.488 417.461333 958.253333 414.96 959 412.496v0H973.616C973.989333 413.728 974.372 414.969333 974.764 416.22 975.156 417.470667 975.538667 418.730667 975.912 420v0H987.728C985.338667 413.317333 982.874667 406.634667 980.336 399.952 977.797333 393.269333 975.184 386.605333 972.496 379.96v0H960.456C957.842667 386.269333 955.266667 392.765333 952.728 399.448 950.189333 406.130667 947.688 412.981333 945.224 420v0H956.704zM970.928 403.984H961.688C962.434667 401.669333 963.2 399.364 963.984 397.068 964.768 394.772 965.552 392.466667 966.336 390.152 967.12 392.429333 967.894667 394.716 968.66 397.012 969.425333 399.308 970.181333 401.632 970.928 403.984v0zM1011.472 420.84C1013.89867 420.84 1016.16667 420.597333 1018.276 420.112 1020.38533 419.626667 1022.28 418.954667 1023.96 418.096v0V408.408C1022.20533 409.453333 1020.46 410.218667 1018.724 410.704 1016.988 411.189333 1015.14933 411.432 1013.208 411.432 1009.58667 411.432 1006.77733 410.433333 1004.78 408.436 1002.78267 406.438667 1001.784 403.610667 1001.784 399.952 1001.784 396.293333 1002.82 393.474667 1004.892 391.496 1006.964 389.517333 1009.86667 388.528 1013.6 388.528 1015.42933 388.528 1017.17467 388.770667 1018.836 389.256 1020.49733 389.741333 1022.056 390.469333 1023.512 391.44v0V381.584C1020.152 379.941333 1016.288 379.12 1011.92 379.12 1008.672 379.12 1005.732 379.614667 1003.1 380.604 1000.468 381.593333 998.209333 383.002667 996.324 384.832 994.438667 386.661333 992.992 388.854667 991.984 391.412 990.976 393.969333 990.472 396.816 990.472 399.952 990.472 403.2 990.948 406.121333 991.9 408.716 992.852 411.310667 994.233333 413.504 996.044 415.296 997.854667 417.088 1000.05733 418.46 1002.652 419.412 1005.24667 420.364 1008.18667 420.84 1011.472 420.84zM1040.2 420V403.48H1042.16C1044.25067 406.28 1046.276 409.042667 1048.236 411.768 1050.196 414.493333 1052.14667 417.237333 1054.088 420v0H1067.752C1064.98933 416.341333 1062.25467 412.748 1059.548 409.22 1056.84133 405.692 1054.10667 402.210667 1051.344 398.776 1053.92 395.64 1056.44 392.504 1058.904 389.368 1061.368 386.232 1063.79467 383.096 1066.184 379.96v0H1053.304C1051.58667 382.386667 1049.832 384.822667 1048.04 387.268 1046.248 389.713333 1044.36267 392.205333 1042.384 394.744v0H1040.2V379.96H1029.28V420H1040.2z" id="IT’SGOTTOBEMENINBLACK"/></g></g></g></svg>