<svg width="1200" height="677" viewBox="0 0 1200 677" xmlns="http://www.w3.org/2000/svg" xmlns:xlink="http://www.w3.org/1999/xlink"><title>Player Copy 7</title><desc>Created with Sketch.</desc><g id="Assets" stroke="none" stroke-width="1" fill="none" fill-rule="evenodd"><g id="Mel" fill="#fff" fill-rule="nonzero"><g id="mel-text-05"><path d="M820.176 327C821.258667 322.893333 822.304 318.777333 823.312 314.652 824.32 310.526667 825.328 306.392 826.336 302.248 827.306667 306.392 828.314667 310.526667 829.36 314.652 830.405333 318.777333 831.469333 322.893333 832.552 327v0H843.864C845.730667 320.466667 847.513333 313.858667 849.212 307.176 850.910667 300.493333 852.506667 293.754667 854 286.96v0H842.52C841.810667 291.626667 841.054667 296.293333 840.252 300.96 839.449333 305.626667 838.6 310.237333 837.704 314.792 836.696 310.461333 835.697333 306.121333 834.708 301.772 833.718667 297.422667 832.757333 293.045333 831.824 288.64v0H821.352C820.418667 293.12 819.448 297.609333 818.44 302.108 817.432 306.606667 816.386667 311.114667 815.304 315.632 814.408 310.965333 813.549333 306.224 812.728 301.408 811.906667 296.592 811.141333 291.776 810.432 286.96v0H798.728C800.258667 293.754667 801.873333 300.493333 803.572 307.176 805.270667 313.858667 807.034667 320.466667 808.864 327v0H820.176zM869.344 327V286.96H858.424V327H869.344zM896.728 327V296.368H908.712V286.96H873.824V296.368H885.808V327H896.728zM924.112 327V310.816H938.336V327H949.256V286.96H938.336V301.408H924.112V286.96H913.192V327H924.112zM811.888 389V364.696C813.12 367.533333 814.38 370.370667 815.668 373.208 816.956 376.045333 818.253333 378.882667 819.56 381.72v0H827.96C829.229333 378.882667 830.489333 376.036 831.74 373.18 832.990667 370.324 834.232 367.44 835.464 364.528v0V389H845.656V348.96H832.664C831.245333 352.730667 829.808 356.454667 828.352 360.132 826.896 363.809333 825.421333 367.44 823.928 371.024 822.36 367.402667 820.82 363.744 819.308 360.048 817.796 356.352 816.312 352.656 814.856 348.96v0H801.696V389H811.888zM871.92 389.84C875.018667 389.84 877.818667 389.354667 880.32 388.384 882.821333 387.413333 884.958667 386.013333 886.732 384.184 888.505333 382.354667 889.868 380.152 890.82 377.576 891.772 375 892.248 372.125333 892.248 368.952 892.248 365.741333 891.772 362.857333 890.82 360.3 889.868 357.742667 888.505333 355.558667 886.732 353.748 884.958667 351.937333 882.821333 350.546667 880.32 349.576 877.818667 348.605333 875.018667 348.12 871.92 348.12 868.821333 348.12 866.021333 348.605333 863.52 349.576 861.018667 350.546667 858.881333 351.937333 857.108 353.748 855.334667 355.558667 853.972 357.742667 853.02 360.3 852.068 362.857333 851.592 365.741333 851.592 368.952 851.592 372.125333 852.068 375 853.02 377.576 853.972 380.152 855.334667 382.354667 857.108 384.184 858.881333 386.013333 861.018667 387.413333 863.52 388.384 866.021333 389.354667 868.821333 389.84 871.92 389.84zM871.92 380.432C869.008 380.432 866.777333 379.442667 865.228 377.464 863.678667 375.485333 862.904 372.648 862.904 368.952 862.904 365.293333 863.678667 362.474667 865.228 360.496 866.777333 358.517333 869.008 357.528 871.92 357.528 874.832 357.528 877.062667 358.517333 878.612 360.496 880.161333 362.474667 880.936 365.293333 880.936 368.952 880.936 372.648 880.161333 375.485333 878.612 377.464 877.062667 379.442667 874.832 380.432 871.92 380.432zM908.6 389V364.696C911.026667 368.578667 913.5 372.582667 916.02 376.708 918.54 380.833333 920.994667 384.930667 923.384 389v0H934.36V348.96H923.944V372.816C921.517333 368.746667 919.072 364.714667 916.608 360.72 914.144 356.725333 911.661333 352.805333 909.16 348.96v0H898.184V389H908.6zM971.488 389V380.264H952.392V372.984H968.184V364.248H952.392V357.696H970.424V348.96H941.752V389H971.488zM999.544 389V374.16C1002.12 369.978667 1004.65867 365.788 1007.16 361.588 1009.66133 357.388 1012.10667 353.178667 1014.496 348.96v0H1002.512C1001.20533 351.610667 999.861333 354.270667 998.48 356.94 997.098667 359.609333 995.717333 362.269333 994.336 364.92 992.917333 362.269333 991.526667 359.618667 990.164 356.968 988.801333 354.317333 987.448 351.648 986.104 348.96v0H973.728C976.08 353.178667 978.506667 357.388 981.008 361.588 983.509333 365.788 986.048 369.978667 988.624 374.16v0V389H999.544z" id="WITHMONEY"/></g></g></g></svg>