<svg width="1200" height="677" viewBox="0 0 1200 677" xmlns="http://www.w3.org/2000/svg" xmlns:xlink="http://www.w3.org/1999/xlink"><title>Player</title><desc>Created with Sketch.</desc><g id="Assets" stroke="none" stroke-width="1" fill="none" fill-rule="evenodd"><g id="Mel" fill="#fff" fill-rule="nonzero"><g id="mel-text-01"><path d="M812.616 355V338.816H826.84V355H837.76V314.96H826.84V329.408H812.616V314.96H801.696V355H812.616zM856.072 355V314.96H845.152V355H856.072zM895.664 355.84C897.456 355.84 899.257333 355.728 901.068 355.504 902.878667 355.28 904.624 354.934667 906.304 354.468 907.984 354.001333 909.477333 353.450667 910.784 352.816v0V331.928H895.16V339.992H900.984V345.984C900.274667 346.170667 899.537333 346.310667 898.772 346.404 898.006667 346.497333 897.250667 346.544 896.504 346.544 892.994667 346.544 890.334667 345.564 888.524 343.604 886.713333 341.644 885.808 338.76 885.808 334.952 885.808 331.293333 886.844 328.474667 888.916 326.496 890.988 324.517333 893.946667 323.528 897.792 323.528 900.144 323.528 902.3 323.78 904.26 324.284 906.22 324.788 908.04 325.506667 909.72 326.44v0V316.584C905.8 314.941333 901.357333 314.12 896.392 314.12 893.106667 314.12 890.12 314.614667 887.432 315.604 884.744 316.593333 882.429333 318.002667 880.488 319.832 878.546667 321.661333 877.062667 323.854667 876.036 326.412 875.009333 328.969333 874.496 331.816 874.496 334.952 874.496 338.2 874.981333 341.112 875.952 343.688 876.922667 346.264 878.322667 348.457333 880.152 350.268 881.981333 352.078667 884.202667 353.46 886.816 354.412 889.429333 355.364 892.378667 355.84 895.664 355.84zM927.976 355V341.504H933.464C934.770667 343.706667 936.030667 345.937333 937.244 348.196 938.457333 350.454667 939.661333 352.722667 940.856 355v0H952.896C951.365333 352.274667 949.806667 349.605333 948.22 346.992 946.633333 344.378667 945.018667 341.784 943.376 339.208 945.466667 338.088 947.081333 336.594667 948.22 334.728 949.358667 332.861333 949.928 330.696 949.928 328.232 949.928 323.938667 948.453333 320.653333 945.504 318.376 942.554667 316.098667 938.298667 314.96 932.736 314.96v0H917.392V355H927.976zM932.232 333.104H927.976V323.36H932.232C934.509333 323.36 936.189333 323.761333 937.272 324.564 938.354667 325.366667 938.896 326.589333 938.896 328.232 938.896 329.837333 938.354667 331.050667 937.272 331.872 936.189333 332.693333 934.509333 333.104 932.232 333.104v0zM986.944 355V346.264H967.848V338.984H983.64V330.248H967.848V323.696H985.88V314.96H957.208V355H986.944zM1011.92 355.84C1013.712 355.84 1015.51333 355.728 1017.324 355.504 1019.13467 355.28 1020.88 354.934667 1022.56 354.468 1024.24 354.001333 1025.73333 353.450667 1027.04 352.816v0V331.928H1011.416V339.992H1017.24V345.984C1016.53067 346.170667 1015.79333 346.310667 1015.028 346.404 1014.26267 346.497333 1013.50667 346.544 1012.76 346.544 1009.25067 346.544 1006.59067 345.564 1004.78 343.604 1002.96933 341.644 1002.064 338.76 1002.064 334.952 1002.064 331.293333 1003.1 328.474667 1005.172 326.496 1007.244 324.517333 1010.20267 323.528 1014.048 323.528 1016.4 323.528 1018.556 323.78 1020.516 324.284 1022.476 324.788 1024.296 325.506667 1025.976 326.44v0V316.584C1022.056 314.941333 1017.61333 314.12 1012.648 314.12 1009.36267 314.12 1006.376 314.614667 1003.688 315.604 1001 316.593333 998.685333 318.002667 996.744 319.832 994.802667 321.661333 993.318667 323.854667 992.292 326.412 991.265333 328.969333 990.752 331.816 990.752 334.952 990.752 338.2 991.237333 341.112 992.208 343.688 993.178667 346.264 994.578667 348.457333 996.408 350.268 998.237333 352.078667 1000.45867 353.46 1003.072 354.412 1005.68533 355.364 1008.63467 355.84 1011.92 355.84z" id="HIGREG"/></g></g></g></svg>