<svg width="1200" height="677" viewBox="0 0 1200 677" xmlns="http://www.w3.org/2000/svg" xmlns:xlink="http://www.w3.org/1999/xlink"><title>Player Copy 4</title><desc>Created with Sketch.</desc><g id="Assets" stroke="none" stroke-width="1" fill="none" fill-rule="evenodd"><g id="Mel" fill="#fff" fill-rule="nonzero"><g id="mel-text-02"><path d="M812.616 331V314.816H826.84V331H837.76V290.96H826.84V305.408H812.616V290.96H801.696V331H812.616zM856.072 331V290.96H845.152V331H856.072zM886.144 331V306.696C887.376 309.533333 888.636 312.370667 889.924 315.208 891.212 318.045333 892.509333 320.882667 893.816 323.72v0H902.216C903.485333 320.882667 904.745333 318.036 905.996 315.18 907.246667 312.324 908.488 309.44 909.72 306.528v0V331H919.912V290.96H906.92C905.501333 294.730667 904.064 298.454667 902.608 302.132 901.152 305.809333 899.677333 309.44 898.184 313.024 896.616 309.402667 895.076 305.744 893.564 302.048 892.052 298.352 890.568 294.656 889.112 290.96v0H875.952V331H886.144zM935.592 331C936.376 328.461333 937.141333 325.96 937.888 323.496v0H952.504C952.877333 324.728 953.26 325.969333 953.652 327.22 954.044 328.470667 954.426667 329.730667 954.8 331v0H966.616C964.226667 324.317333 961.762667 317.634667 959.224 310.952 956.685333 304.269333 954.072 297.605333 951.384 290.96v0H939.344C936.730667 297.269333 934.154667 303.765333 931.616 310.448 929.077333 317.130667 926.576 323.981333 924.112 331v0H935.592zM949.816 314.984H940.576C941.322667 312.669333 942.088 310.364 942.872 308.068 943.656 305.772 944.44 303.466667 945.224 301.152 946.008 303.429333 946.782667 305.716 947.548 308.012 948.313333 310.308 949.069333 312.632 949.816 314.984v0zM981.4 331V317.504H986.888C988.194667 319.706667 989.454667 321.937333 990.668 324.196 991.881333 326.454667 993.085333 328.722667 994.28 331v0H1006.32C1004.78933 328.274667 1003.23067 325.605333 1001.644 322.992 1000.05733 320.378667 998.442667 317.784 996.8 315.208 998.890667 314.088 1000.50533 312.594667 1001.644 310.728 1002.78267 308.861333 1003.352 306.696 1003.352 304.232 1003.352 299.938667 1001.87733 296.653333 998.928 294.376 995.978667 292.098667 991.722667 290.96 986.16 290.96v0H970.816V331H981.4zM985.656 309.104H981.4V299.36H985.656C987.933333 299.36 989.613333 299.761333 990.696 300.564 991.778667 301.366667 992.32 302.589333 992.32 304.232 992.32 305.837333 991.778667 307.050667 990.696 307.872 989.613333 308.693333 987.933333 309.104 985.656 309.104v0zM1021.552 331V314.48H1023.512C1025.60267 317.28 1027.628 320.042667 1029.588 322.768 1031.548 325.493333 1033.49867 328.237333 1035.44 331v0H1049.104C1046.34133 327.341333 1043.60667 323.748 1040.9 320.22 1038.19333 316.692 1035.45867 313.210667 1032.696 309.776 1035.272 306.64 1037.792 303.504 1040.256 300.368 1042.72 297.232 1045.14667 294.096 1047.536 290.96v0H1034.656C1032.93867 293.386667 1031.184 295.822667 1029.392 298.268 1027.6 300.713333 1025.71467 303.205333 1023.736 305.744v0H1021.552V290.96H1010.632V331H1021.552z" id="HIMARK"/></g></g></g></svg>