<svg width="1200" height="677" viewBox="0 0 1200 677" xmlns="http://www.w3.org/2000/svg" xmlns:xlink="http://www.w3.org/1999/xlink"><title>Player Copy 5</title><desc>Created with Sketch.</desc><g id="Assets" stroke="none" stroke-width="1" fill="none" fill-rule="evenodd"><g id="Mel" fill="#fff" fill-rule="nonzero"><g id="mel-text-03"><path d="M812.616 391V374.816H826.84V391H837.76V350.96H826.84V365.408H812.616V350.96H801.696V391H812.616zM856.072 391V350.96H845.152V391H856.072zM886.144 391V366.696C887.376 369.533333 888.636 372.370667 889.924 375.208 891.212 378.045333 892.509333 380.882667 893.816 383.72v0H902.216C903.485333 380.882667 904.745333 378.036 905.996 375.18 907.246667 372.324 908.488 369.44 909.72 366.528v0V391H919.912V350.96H906.92C905.501333 354.730667 904.064 358.454667 902.608 362.132 901.152 365.809333 899.677333 369.44 898.184 373.024 896.616 369.402667 895.076 365.744 893.564 362.048 892.052 358.352 890.568 354.656 889.112 350.96v0H875.952V391H886.144zM935.592 391C936.376 388.461333 937.141333 385.96 937.888 383.496v0H952.504C952.877333 384.728 953.26 385.969333 953.652 387.22 954.044 388.470667 954.426667 389.730667 954.8 391v0H966.616C964.226667 384.317333 961.762667 377.634667 959.224 370.952 956.685333 364.269333 954.072 357.605333 951.384 350.96v0H939.344C936.730667 357.269333 934.154667 363.765333 931.616 370.448 929.077333 377.130667 926.576 383.981333 924.112 391v0H935.592zM949.816 374.984H940.576C941.322667 372.669333 942.088 370.364 942.872 368.068 943.656 365.772 944.44 363.466667 945.224 361.152 946.008 363.429333 946.782667 365.716 947.548 368.012 948.313333 370.308 949.069333 372.632 949.816 374.984v0zM990.808 391V360.368H1002.792V350.96H967.904V360.368H979.888V391H990.808zM1027.264 391V360.368H1039.248V350.96H1004.36V360.368H1016.344V391H1027.264z" id="HIMATT"/></g></g></g></svg>