<svg width="1200" height="677" viewBox="0 0 1200 677" xmlns="http://www.w3.org/2000/svg" xmlns:xlink="http://www.w3.org/1999/xlink"><title>Player Copy 10</title><desc>Created with Sketch.</desc><g id="Assets" stroke="none" stroke-width="1" fill="none" fill-rule="evenodd"><g id="Mel" fill="#fff" fill-rule="nonzero"><g id="mel-text-08"><path d="M812.616 358V317.96H801.696V358H812.616zM840.784 358C841.568 355.461333 842.333333 352.96 843.08 350.496v0H857.696C858.069333 351.728 858.452 352.969333 858.844 354.22 859.236 355.470667 859.618667 356.730667 859.992 358v0H871.808C869.418667 351.317333 866.954667 344.634667 864.416 337.952 861.877333 331.269333 859.264 324.605333 856.576 317.96v0H844.536C841.922667 324.269333 839.346667 330.765333 836.808 337.448 834.269333 344.130667 831.768 350.981333 829.304 358v0H840.784zM855.008 341.984H845.768C846.514667 339.669333 847.28 337.364 848.064 335.068 848.848 332.772 849.632 330.466667 850.416 328.152 851.2 330.429333 851.974667 332.716 852.74 335.012 853.505333 337.308 854.261333 339.632 855.008 341.984v0zM886.2 358V333.696C887.432 336.533333 888.692 339.370667 889.98 342.208 891.268 345.045333 892.565333 347.882667 893.872 350.72v0H902.272C903.541333 347.882667 904.801333 345.036 906.052 342.18 907.302667 339.324 908.544 336.44 909.776 333.528v0V358H919.968V317.96H906.976C905.557333 321.730667 904.12 325.454667 902.664 329.132 901.208 332.809333 899.733333 336.44 898.24 340.024 896.672 336.402667 895.132 332.744 893.62 329.048 892.108 325.352 890.624 321.656 889.168 317.96v0H876.008V358H886.2z" id="IAM"/></g></g></g></svg>