<svg width="1200" height="677" viewBox="0 0 1200 677" xmlns="http://www.w3.org/2000/svg" xmlns:xlink="http://www.w3.org/1999/xlink"><title>Player Copy 6</title><desc>Created with Sketch.</desc><g id="Assets" stroke="none" stroke-width="1" fill="none" fill-rule="evenodd"><g id="Mel" fill="#fff" fill-rule="nonzero"><g id="mel-text-04"><path d="M812.448 296V281.552H827.4V272.424H812.448V265.088H829.528V255.96H801.696V296H812.448zM852.208 296.84C855.904 296.84 859.068 296.130667 861.7 294.712 864.332 293.293333 866.348 291.249333 867.748 288.58 869.148 285.910667 869.848 282.728 869.848 279.032v0V255.96H859.096V280.264C859.096 282.541333 858.498667 284.305333 857.304 285.556 856.109333 286.806667 854.410667 287.432 852.208 287.432 850.042667 287.432 848.353333 286.806667 847.14 285.556 845.926667 284.305333 845.32 282.541333 845.32 280.264v0V255.96H834.4V279.032C834.4 282.728 835.109333 285.910667 836.528 288.58 837.946667 291.249333 839.990667 293.293333 842.66 294.712 845.329333 296.130667 848.512 296.84 852.208 296.84zM887.488 296V271.696C889.914667 275.578667 892.388 279.582667 894.908 283.708 897.428 287.833333 899.882667 291.930667 902.272 296v0H913.248V255.96H902.832V279.816C900.405333 275.746667 897.96 271.714667 895.496 267.72 893.032 263.725333 890.549333 259.805333 888.048 255.96v0H877.072V296H887.488zM950.376 296V287.264H931.28V279.984H947.072V271.248H931.28V264.696H949.312V255.96H920.64V296H950.376zM966.224 296V282.504H971.712C973.018667 284.706667 974.278667 286.937333 975.492 289.196 976.705333 291.454667 977.909333 293.722667 979.104 296v0H991.144C989.613333 293.274667 988.054667 290.605333 986.468 287.992 984.881333 285.378667 983.266667 282.784 981.624 280.208 983.714667 279.088 985.329333 277.594667 986.468 275.728 987.606667 273.861333 988.176 271.696 988.176 269.232 988.176 264.938667 986.701333 261.653333 983.752 259.376 980.802667 257.098667 976.546667 255.96 970.984 255.96v0H955.64V296H966.224zM970.48 274.104H966.224V264.36H970.48C972.757333 264.36 974.437333 264.761333 975.52 265.564 976.602667 266.366667 977.144 267.589333 977.144 269.232 977.144 270.837333 976.602667 272.050667 975.52 272.872 974.437333 273.693333 972.757333 274.104 970.48 274.104v0zM1003.744 296C1004.528 293.461333 1005.29333 290.96 1006.04 288.496v0H1020.656C1021.02933 289.728 1021.412 290.969333 1021.804 292.22 1022.196 293.470667 1022.57867 294.730667 1022.952 296v0H1034.768C1032.37867 289.317333 1029.91467 282.634667 1027.376 275.952 1024.83733 269.269333 1022.224 262.605333 1019.536 255.96v0H1007.496C1004.88267 262.269333 1002.30667 268.765333 999.768 275.448 997.229333 282.130667 994.728 288.981333 992.264 296v0H1003.744zM1017.968 279.984H1008.728C1009.47467 277.669333 1010.24 275.364 1011.024 273.068 1011.808 270.772 1012.592 268.466667 1013.376 266.152 1014.16 268.429333 1014.93467 270.716 1015.7 273.012 1016.46533 275.308 1017.22133 277.632 1017.968 279.984v0zM1067.696 296V286.592H1049.888V255.96H1038.968V296H1067.696zM812.448 358V343.552H827.4V334.424H812.448V327.088H829.528V317.96H801.696V358H812.448zM853.44 358.84C856.538667 358.84 859.338667 358.354667 861.84 357.384 864.341333 356.413333 866.478667 355.013333 868.252 353.184 870.025333 351.354667 871.388 349.152 872.34 346.576 873.292 344 873.768 341.125333 873.768 337.952 873.768 334.741333 873.292 331.857333 872.34 329.3 871.388 326.742667 870.025333 324.558667 868.252 322.748 866.478667 320.937333 864.341333 319.546667 861.84 318.576 859.338667 317.605333 856.538667 317.12 853.44 317.12 850.341333 317.12 847.541333 317.605333 845.04 318.576 842.538667 319.546667 840.401333 320.937333 838.628 322.748 836.854667 324.558667 835.492 326.742667 834.54 329.3 833.588 331.857333 833.112 334.741333 833.112 337.952 833.112 341.125333 833.588 344 834.54 346.576 835.492 349.152 836.854667 351.354667 838.628 353.184 840.401333 355.013333 842.538667 356.413333 845.04 357.384 847.541333 358.354667 850.341333 358.84 853.44 358.84zM853.44 349.432C850.528 349.432 848.297333 348.442667 846.748 346.464 845.198667 344.485333 844.424 341.648 844.424 337.952 844.424 334.293333 845.198667 331.474667 846.748 329.496 848.297333 327.517333 850.528 326.528 853.44 326.528 856.352 326.528 858.582667 327.517333 860.132 329.496 861.681333 331.474667 862.456 334.293333 862.456 337.952 862.456 341.648 861.681333 344.485333 860.132 346.464 858.582667 348.442667 856.352 349.432 853.44 349.432zM890.288 358V344.504H895.776C897.082667 346.706667 898.342667 348.937333 899.556 351.196 900.769333 353.454667 901.973333 355.722667 903.168 358v0H915.208C913.677333 355.274667 912.118667 352.605333 910.532 349.992 908.945333 347.378667 907.330667 344.784 905.688 342.208 907.778667 341.088 909.393333 339.594667 910.532 337.728 911.670667 335.861333 912.24 333.696 912.24 331.232 912.24 326.938667 910.765333 323.653333 907.816 321.376 904.866667 319.098667 900.610667 317.96 895.048 317.96v0H879.704V358H890.288zM894.544 336.104H890.288V326.36H894.544C896.821333 326.36 898.501333 326.761333 899.584 327.564 900.666667 328.366667 901.208 329.589333 901.208 331.232 901.208 332.837333 900.666667 334.050667 899.584 334.872 898.501333 335.693333 896.821333 336.104 894.544 336.104v0zM940.296 358C941.08 355.461333 941.845333 352.96 942.592 350.496v0H957.208C957.581333 351.728 957.964 352.969333 958.356 354.22 958.748 355.470667 959.130667 356.730667 959.504 358v0H971.32C968.930667 351.317333 966.466667 344.634667 963.928 337.952 961.389333 331.269333 958.776 324.605333 956.088 317.96v0H944.048C941.434667 324.269333 938.858667 330.765333 936.32 337.448 933.781333 344.130667 931.28 350.981333 928.816 358v0H940.296zM954.52 341.984H945.28C946.026667 339.669333 946.792 337.364 947.576 335.068 948.36 332.772 949.144 330.466667 949.928 328.152 950.712 330.429333 951.486667 332.716 952.252 335.012 953.017333 337.308 953.773333 339.632 954.52 341.984v0zM812.448 420V405.552H827.4V396.424H812.448V389.088H829.528V379.96H801.696V420H812.448zM845.152 420V406.504H850.64C851.946667 408.706667 853.206667 410.937333 854.42 413.196 855.633333 415.454667 856.837333 417.722667 858.032 420v0H870.072C868.541333 417.274667 866.982667 414.605333 865.396 411.992 863.809333 409.378667 862.194667 406.784 860.552 404.208 862.642667 403.088 864.257333 401.594667 865.396 399.728 866.534667 397.861333 867.104 395.696 867.104 393.232 867.104 388.938667 865.629333 385.653333 862.68 383.376 859.730667 381.098667 855.474667 379.96 849.912 379.96v0H834.568V420H845.152zM849.408 398.104H845.152V388.36H849.408C851.685333 388.36 853.365333 388.761333 854.448 389.564 855.530667 390.366667 856.072 391.589333 856.072 393.232 856.072 394.837333 855.530667 396.050667 854.448 396.872 853.365333 397.693333 851.685333 398.104 849.408 398.104v0zM885.304 420V379.96H874.384V420H885.304zM922.432 420V411.264H903.336V403.984H919.128V395.248H903.336V388.696H921.368V379.96H892.696V420H922.432zM938.112 420V395.696C940.538667 399.578667 943.012 403.582667 945.532 407.708 948.052 411.833333 950.506667 415.930667 952.896 420v0H963.872V379.96H953.456V403.816C951.029333 399.746667 948.584 395.714667 946.12 391.72 943.656 387.725333 941.173333 383.805333 938.672 379.96v0H927.696V420H938.112zM987.56 420C991.816 420 995.446667 419.206667 998.452 417.62 1001.45733 416.033333 1003.75333 413.746667 1005.34 410.76 1006.92667 407.773333 1007.72 404.152 1007.72 399.896 1007.72 395.677333 1006.92667 392.084 1005.34 389.116 1003.75333 386.148 1001.45733 383.88 998.452 382.312 995.446667 380.744 991.834667 379.96 987.616 379.96v0H971.264V420H987.56zM987.056 410.704H982.184V389.256H987.112C990.173333 389.256 992.488 390.161333 994.056 391.972 995.624 393.782667 996.408 396.424 996.408 399.896 996.408 403.405333 995.614667 406.084 994.028 407.932 992.441333 409.78 990.117333 410.704 987.056 410.704v0z" id="FUNERALFORAFRIEND"/></g></g></g></svg>