<svg width="1200" height="677" viewBox="0 0 1200 677" xmlns="http://www.w3.org/2000/svg" xmlns:xlink="http://www.w3.org/1999/xlink"><title>Player Copy 3</title><desc>Created with Sketch.</desc><g id="Assets" stroke="none" stroke-width="1" fill="none" fill-rule="evenodd"><g id="Player" fill="#fff" fill-rule="nonzero"><g id="paul-text-04"><path d="M515.584 311V301.984H498.616C499.176 301.050667 499.997333 300.136 501.08 299.24 502.162667 298.344 503.6 297.336 505.392 296.216 507.221333 295.096 508.733333 294.032 509.928 293.024 511.122667 292.016 512.065333 290.989333 512.756 289.944 513.446667 288.898667 513.941333 287.769333 514.24 286.556 514.538667 285.342667 514.688 283.970667 514.688 282.44 514.688 280.125333 514.1 278.128 512.924 276.448 511.748 274.768 510.086667 273.461333 507.94 272.528 505.793333 271.594667 503.264 271.128 500.352 271.128 497.962667 271.128 495.769333 271.38 493.772 271.884 491.774667 272.388 489.786667 273.181333 487.808 274.264v0V283.504C489.450667 282.309333 491.093333 281.441333 492.736 280.9 494.378667 280.358667 496.077333 280.088 497.832 280.088 499.698667 280.088 501.145333 280.424 502.172 281.096 503.198667 281.768 503.712 282.757333 503.712 284.064 503.712 284.661333 503.618667 285.202667 503.432 285.688 503.245333 286.173333 502.918667 286.658667 502.452 287.144 501.985333 287.629333 501.322667 288.189333 500.464 288.824 499.605333 289.458667 498.485333 290.205333 497.104 291.064 494.677333 292.594667 492.717333 294.190667 491.224 295.852 489.730667 297.513333 488.638667 299.314667 487.948 301.256 487.257333 303.197333 486.912 305.4 486.912 307.864v0V311H515.584zM537.312 311C539.738667 305.848 542.081333 300.649333 544.34 295.404 546.598667 290.158667 548.773333 284.866667 550.864 279.528v0V271.856H521.464V280.984H540C537.797333 286.061333 535.52 291.101333 533.168 296.104 530.816 301.106667 528.389333 306.072 525.888 311v0H537.312zM566.488 297.448 567.328 270.96H556.576L557.416 297.448H566.488zM561.952 311.504C563.146667 311.504 564.173333 311.252 565.032 310.748 565.890667 310.244 566.553333 309.572 567.02 308.732 567.486667 307.892 567.72 306.968 567.72 305.96 567.72 304.952 567.486667 304.028 567.02 303.188 566.553333 302.348 565.890667 301.685333 565.032 301.2 564.173333 300.714667 563.146667 300.472 561.952 300.472 560.757333 300.472 559.730667 300.714667 558.872 301.2 558.013333 301.685333 557.350667 302.348 556.884 303.188 556.417333 304.028 556.184 304.952 556.184 305.96 556.184 306.968 556.417333 307.892 556.884 308.732 557.350667 309.572 558.013333 310.244 558.872 310.748 559.730667 311.252 560.757333 311.504 561.952 311.504z" id="27!"/></g></g></g></svg>