<svg width="1200" height="677" viewBox="0 0 1200 677" xmlns="http://www.w3.org/2000/svg" xmlns:xlink="http://www.w3.org/1999/xlink"><title>Player Copy 2</title><desc>Created with Sketch.</desc><g id="Assets" stroke="none" stroke-width="1" fill="none" fill-rule="evenodd"><g id="Player" fill="#fff" fill-rule="nonzero"><g id="paul-text-03"><path d="M494.16 309.384V308.808C494.16 308.328 494.264 307.88 494.472 307.464 494.68 307.048 495.04 306.616 495.552 306.168 496.064 305.72 496.736 305.208 497.568 304.632 499.456 303.32 500.824 301.952 501.672 300.528 502.52 299.104 502.944 297.432 502.944 295.512 502.944 293.528 502.456 291.824 501.48 290.4 500.504 288.976 499.12 287.88 497.328 287.112 495.536 286.344 493.376 285.96 490.848 285.96 489.184 285.96 487.568 286.128 486 286.464 484.432 286.8 482.944 287.304 481.536 287.976v0V295.224C482.816 294.488 484.064 293.952 485.28 293.616 486.496 293.28 487.776 293.112 489.12 293.112 490.624 293.112 491.784 293.408 492.6 294 493.416 294.592 493.824 295.416 493.824 296.472 493.824 297.08 493.728 297.632 493.536 298.128 493.344 298.624 492.992 299.128 492.48 299.64 491.968 300.152 491.232 300.776 490.272 301.512 489.024 302.44 488.128 303.464 487.584 304.584 487.04 305.704 486.768 307.112 486.768 308.808v0V309.384H494.16zM490.464 321.432C491.488 321.432 492.368 321.216 493.104 320.784 493.84 320.352 494.408 319.776 494.808 319.056 495.208 318.336 495.408 317.544 495.408 316.68 495.408 315.816 495.208 315.024 494.808 314.304 494.408 313.584 493.84 313.016 493.104 312.6 492.368 312.184 491.488 311.976 490.464 311.976 489.44 311.976 488.56 312.184 487.824 312.6 487.088 313.016 486.52 313.584 486.12 314.304 485.72 315.024 485.52 315.816 485.52 316.68 485.52 317.544 485.72 318.336 486.12 319.056 486.52 319.776 487.088 320.352 487.824 320.784 488.56 321.216 489.44 321.432 490.464 321.432zM518.784 309.384V308.808C518.784 308.328 518.888 307.88 519.096 307.464 519.304 307.048 519.664 306.616 520.176 306.168 520.688 305.72 521.36 305.208 522.192 304.632 524.08 303.32 525.448 301.952 526.296 300.528 527.144 299.104 527.568 297.432 527.568 295.512 527.568 293.528 527.08 291.824 526.104 290.4 525.128 288.976 523.744 287.88 521.952 287.112 520.16 286.344 518 285.96 515.472 285.96 513.808 285.96 512.192 286.128 510.624 286.464 509.056 286.8 507.568 287.304 506.16 287.976v0V295.224C507.44 294.488 508.688 293.952 509.904 293.616 511.12 293.28 512.4 293.112 513.744 293.112 515.248 293.112 516.408 293.408 517.224 294 518.04 294.592 518.448 295.416 518.448 296.472 518.448 297.08 518.352 297.632 518.16 298.128 517.968 298.624 517.616 299.128 517.104 299.64 516.592 300.152 515.856 300.776 514.896 301.512 513.648 302.44 512.752 303.464 512.208 304.584 511.664 305.704 511.392 307.112 511.392 308.808v0V309.384H518.784zM515.088 321.432C516.112 321.432 516.992 321.216 517.728 320.784 518.464 320.352 519.032 319.776 519.432 319.056 519.832 318.336 520.032 317.544 520.032 316.68 520.032 315.816 519.832 315.024 519.432 314.304 519.032 313.584 518.464 313.016 517.728 312.6 516.992 312.184 516.112 311.976 515.088 311.976 514.064 311.976 513.184 312.184 512.448 312.6 511.712 313.016 511.144 313.584 510.744 314.304 510.344 315.024 510.144 315.816 510.144 316.68 510.144 317.544 510.344 318.336 510.744 319.056 511.144 319.776 511.712 320.352 512.448 320.784 513.184 321.216 514.064 321.432 515.088 321.432zM543.408 309.384V308.808C543.408 308.328 543.512 307.88 543.72 307.464 543.928 307.048 544.288 306.616 544.8 306.168 545.312 305.72 545.984 305.208 546.816 304.632 548.704 303.32 550.072 301.952 550.92 300.528 551.768 299.104 552.192 297.432 552.192 295.512 552.192 293.528 551.704 291.824 550.728 290.4 549.752 288.976 548.368 287.88 546.576 287.112 544.784 286.344 542.624 285.96 540.096 285.96 538.432 285.96 536.816 286.128 535.248 286.464 533.68 286.8 532.192 287.304 530.784 287.976v0V295.224C532.064 294.488 533.312 293.952 534.528 293.616 535.744 293.28 537.024 293.112 538.368 293.112 539.872 293.112 541.032 293.408 541.848 294 542.664 294.592 543.072 295.416 543.072 296.472 543.072 297.08 542.976 297.632 542.784 298.128 542.592 298.624 542.24 299.128 541.728 299.64 541.216 300.152 540.48 300.776 539.52 301.512 538.272 302.44 537.376 303.464 536.832 304.584 536.288 305.704 536.016 307.112 536.016 308.808v0V309.384H543.408zM539.712 321.432C540.736 321.432 541.616 321.216 542.352 320.784 543.088 320.352 543.656 319.776 544.056 319.056 544.456 318.336 544.656 317.544 544.656 316.68 544.656 315.816 544.456 315.024 544.056 314.304 543.656 313.584 543.088 313.016 542.352 312.6 541.616 312.184 540.736 311.976 539.712 311.976 538.688 311.976 537.808 312.184 537.072 312.6 536.336 313.016 535.768 313.584 535.368 314.304 534.968 315.024 534.768 315.816 534.768 316.68 534.768 317.544 534.968 318.336 535.368 319.056 535.768 319.776 536.336 320.352 537.072 320.784 537.808 321.216 538.688 321.432 539.712 321.432z" id="???"/></g></g></g></svg>