<svg width="816" height="493" xmlns="http://www.w3.org/2000/svg"><g fill="none" fill-rule="evenodd" opacity=".25"><g opacity=".346"><path d="M205.82 247.05c8.859-92.346 484.13-270.581 572.362-183.114 88.232 87.467 3.408 251.621-181.495 293.657-184.902 42.035-399.725-18.198-390.866-110.544z" fill="#F2F2F2"/><path d="M569.05 307.051c-8.093-78.45-442.3-229.869-522.908-155.562-80.61 74.307-60.206 230.604 108.72 266.314 168.928 35.711 422.28-32.3 414.188-110.752z" fill="#DDE3E9"/></g><g transform="matrix(-1 0 0 1 219.908 -10.18)"><path d="M60 41.844l28.871-25.24a8 8 0 0110.531 0l73.495 64.253a16 16 0 015.47 12.045V497.18h0" stroke="#CBCBCB" stroke-width="8"/><rect fill="#AFB9C5" x="148.366" y="496.18" width="59" height="7" rx="3"/><g transform="rotate(45 23.188 59.395)"><path d="M33.03 1.384c18.226 0 33 14.775 33 33v28h-66v-28c0-18.225 14.775-33 33-33z" fill="#C5CFD6"/><ellipse fill="#F2F2F2" cx="33.209" cy="61.445" rx="33" ry="6.5"/></g></g><path d="M768.056 255.173c-2.865-.35-5.922-.226-8.586.904-5.665 2.405-7.275 9.097-7.198 14.537.084 5.854 1.327 12.249-3.124 16.966-2.046 2.168-4.59 3.828-6.6 6.037-2.147 2.36-3.831 5.06-5.078 7.96-2.29 5.326-3.414 11.59-1.32 17.177 1.844 4.92 6.482 9.36 5.48 14.954-1.045 5.835-6.929 10.296-10.607 14.643-4.163 4.918-7.995 11.205-8.625 17.655-.604 6.182 2.087 12.434 6.217 17.107 8.25 9.338 20.653 13.915 33.159 13.887 5.31-.012 11.321-.252 15.903-3.105 1.416-.882 2.163-1.872 3.005-3.247.755-1.234 1.752-2.036 2.906-2.909 2.536-1.917 4.367-4.5 5.535-7.392 4.538-11.233.911-25.13-5.44-35.104-1.506-2.363-2.738-4.638-2.007-7.454.763-2.94 2.638-5.593 4.297-8.12 1.64-2.499 3.51-4.882 4.792-7.582 1.342-2.83 1.72-5.793 1.482-8.89-.445-5.816-2.956-11.184-6.511-15.861-3.424-4.506-7.445-8.818-7.454-14.721-.01-6.258 4.174-11.824 2.392-18.186-.738-2.634-2.22-5.337-4.609-6.916-2.29-1.515-5.315-2.01-8.01-2.34z" fill="#DDE3E9"/><path d="M769.927 265.176c-.053-.84-1.05-1.344-1.835-1.125-1.033.29-1.013 1.254-.986 2.114.084 2.643-.299 5.212-.934 7.777-1.32 5.332-3.761 10.244-5.695 15.366-1.931 5.117-2.838 10.401-1.705 15.816 1.068 5.106 2.747 10.08 3.84 15.191.964 4.506 1.99 9.258.522 13.752-1.413 4.326-4.535 7.849-6.783 11.758-4.654 8.093-6.719 17.071-6.995 26.31-.128 4.29-.013 8.62.983 12.828.573 2.423 1.342 5.697 3.419 7.37.957.772 2.594 1.038 3.4-.104.757-1.071.093-2.73-.147-3.872-1.04-4.944-1.25-9.996-1-15.015.24-4.862.815-9.716 2.345-14.36 1.42-4.31 3.578-8.18 6.118-11.95 2.587-3.841 5.277-7.69 6.347-12.243 1.086-4.623.203-9.327-.977-13.862-1.248-4.796-2.882-9.455-4.572-14.122-1.647-4.547-2.23-8.85-1.322-13.609 1.796-9.402 6.604-18.228 5.977-28.02z" fill="#C5CFD6"/><path d="M692.421 266.582c-3.545 1.077-7.065 2.813-9.592 5.536-5.373 5.791-3.725 14.543-.759 20.935 3.193 6.88 8.031 13.796 5.304 21.69-1.254 3.63-3.362 6.916-4.55 10.573-1.271 3.908-1.82 7.978-1.75 12.056.13 7.49 2.122 15.483 7.531 21.001 4.763 4.859 12.551 7.697 14.332 14.833 1.858 7.445-2.684 15.782-4.701 22.835-2.283 7.983-3.455 17.412-.784 25.368 2.559 7.625 9.02 13.619 16.333 16.997 14.613 6.75 31.58 5.711 46.233-.828 6.22-2.777 13.145-6.187 17.011-11.945 1.195-1.78 1.548-3.339 1.809-5.403.233-1.852.978-3.32 1.87-4.952 1.962-3.586 2.744-7.594 2.586-11.622-.615-15.645-12.214-30.192-24.937-38.684-3.014-2.012-5.662-4.06-6.293-7.772-.66-3.875.139-7.987.748-11.839.602-3.807 1.538-7.598 1.613-11.459.078-4.044-1.045-7.745-2.96-11.283-3.597-6.647-9.379-11.69-16.021-15.372-6.398-3.547-13.392-6.555-16.523-13.532-3.32-7.395-1.355-16.154-6.808-22.75-2.258-2.732-5.425-5.158-9.061-5.783-3.487-.6-7.297.388-10.63 1.4z" fill="#DDE3E9"/><path d="M699.662 278.81c-.503-.966-1.932-1.04-2.735-.37-1.057.884-.528 2.016-.046 3.02 1.482 3.087 2.38 6.33 2.98 9.7 1.249 7.006.968 14.102 1.39 21.181.42 7.073 2.128 13.806 6.289 19.624 3.923 5.487 8.49 10.497 12.446 15.978 3.487 4.83 7.174 9.92 7.812 16.011.614 5.863-1.191 11.672-1.773 17.48-1.203 12.023 1.084 23.737 5.6 34.823 2.097 5.148 4.5 10.215 7.867 14.676 1.94 2.57 4.554 6.044 7.858 6.936 1.524.412 3.578-.13 3.922-1.905.323-1.666-1.321-3.282-2.2-4.509-3.805-5.309-6.696-11.182-9.034-17.257-2.264-5.884-4.135-11.933-4.777-18.235-.597-5.847-.1-11.562.894-17.357 1.014-5.905 2.144-11.875 1.01-17.825-1.151-6.045-4.647-11.153-8.402-15.905-3.971-5.026-8.322-9.686-12.742-14.327-4.308-4.522-7.244-9.31-8.673-15.423-2.824-12.077-1.825-25.048-7.686-36.315z" fill="#C5CFD6"/><g><path d="M802.008 311c-5.895 0-11.077 3.124-14.648 7.558-4.18 5.19-5.024 11.528-6.721 17.714-.845 3.078-2.297 6.134-4.843 8.226-2.315 1.902-5.255 2.282-8.026 3.212-5.539 1.857-10.011 6.33-11.777 11.79-2.155 6.658.127 13.373-.266 20.122-.36 6.197-6.471 10.063-11.387 13.034-4.848 2.93-9.215 5.672-10.675 11.379-1.548 6.053-2.068 12.809.077 18.788 3.57 9.956 14.019 14.34 24.115 15.02 9.163.616 20.685-.352 27.566-7.003 4.117-3.98 5.609-9.547 5.424-15.085-.115-3.444-.797-6.856-1.68-10.184-.625-2.358-1.47-4.707-1.71-7.144-.64-6.485 5.354-7.73 10.456-9.51 6.482-2.263 11.02-6.537 14.177-12.492 2.939-5.544 4.172-11.767 2.41-17.87-.9-3.118-2.532-5.945-4.746-8.35-.974-1.059-2.347-1.942-3.227-3.054-.82-1.039-.642-2.385-.359-3.601 1.308-5.62 5.384-10.272 6.841-15.882 1.316-5.063.538-11.364-4.09-14.63-2-1.411-4.467-2.022-6.911-2.038z" fill="#C5CFD6"/><path d="M793.976 325.641c-6.247 6.655-7.946 15.684-8.444 24.435-.28 4.907.011 10.083-1.43 14.843-1.234 4.074-4.126 7.188-7.107 10.132-6 5.924-12.692 11.948-14.447 20.523-1.03 5.032-.335 10.23-1.758 15.206-1.294 4.524-3.572 8.968-6.343 12.788-2.231 3.077-5.138 5.432-7.577 8.3-.744.875-1.81 2.163-1.502 3.399.359 1.447 2.202 1.905 3.51 1.678 3.05-.53 5.616-3.442 7.61-5.559 2.916-3.095 5.393-6.424 7.407-10.159 2.235-4.147 4.035-8.548 4.804-13.201.798-4.827.401-9.858 2.224-14.49 3.066-7.796 10.504-12.396 15.882-18.472 6.7-7.57 5.701-16.992 5.015-26.305-.377-5.118-.752-10.897 1.834-15.57.988-1.783 3.188-3.446 3.613-5.474.389-1.857-1.733-3.734-3.291-2.074z" fill="#AFB9C5"/></g><path d="M787.314 435c0 38.058-6.212 58-39 58-32.79 0-39-19.942-39-58h78z" fill="#89C5CC"/><g fill="#F2F2F2"><path d="M548.767 493h21v-82h83v82h21V389h-125v104z"/></g><g><path d="M176.92 211.208c-8.833 20.99-23.849 35.573-31.801 57.397-4.716 12.942-6.682 27.015-6.801 41.427-.065 7.828.071 15.662.108 23.49.036 7.634.243 15.22.891 22.805.651 7.625 1.38 15.16 1.702 22.832.25 5.978.365 12.932 2.391 18.385 1.611 4.337 5.707 4.972 6.794-.288.604-2.923.528-6.188.461-9.193-.085-3.855-.31-7.704-.424-11.559-.46-15.468.136-30.938-.175-46.412-.304-15.119-2.248-30.22-.097-45.239 1.775-12.401 6.286-23.05 11.47-33.26 4.988-9.822 10.416-19.406 13.787-30.579.968-3.208 1.716-6.533 2.075-9.984-.157-.073-.284-.014-.381.178z" fill="#C1DEE2"/><path d="M179.327 252.617c-1.749 1.263-2.726 3.11-3.909 4.934-1.47 2.266-3.198 4.312-4.668 6.58-3.065 4.729-5.757 9.748-8.55 14.668-5.305 9.338-9.332 19.292-11.327 30.096-2.067 11.197-2.624 22.753-3.492 34.117-.92 12.044-1.846 24.176-1.967 36.267-.055 5.417-.348 11.167.302 16.546.405 3.348 1.916 6.202 5.323 6.175 7.237-.058 10.634-8.073 12.054-14.646 2.089-9.68 2.506-19.961 2.175-29.86-.4-11.936-2.471-23.692-3.368-35.582-.95-12.587-.413-24.952 3.915-36.803 2.186-5.99 4.723-11.835 7.001-17.784.97-2.533 1.765-5.135 3.076-7.494 1.457-2.623 3.267-5.005 4.409-7.831l-.974.617z" fill="#89C5CC"/><path d="M95.967 227.518L95.3 227c.639 2.693 1.793 4.88 2.676 7.341.793 2.213 1.195 4.717 1.729 7.136 1.255 5.68 2.704 11.234 3.89 16.963 2.345 11.337 1.901 23.55.363 36.128-1.453 11.882-3.75 23.745-4.846 35.624-.907 9.851-1.297 20.01-.432 29.409.589 6.383 2.517 14.005 7.772 13.36 2.473-.302 3.764-3.28 4.283-6.64.836-5.4 1.01-11.075 1.336-16.443.726-11.982.871-23.927 1.014-35.786.136-11.188.51-22.598-.237-33.505-.722-10.524-2.977-20.007-6.201-28.757-1.699-4.61-3.317-9.328-5.225-13.722-.915-2.107-2.033-3.97-2.949-6.075-.736-1.694-1.322-3.432-2.507-4.515zM177.092 287.302c-.957-1.607-3.063 3.691-3.384 4.358.136-.332.272-.663.41-.993-1.9 3.158-3.638 6.446-4.718 10.067-1.07 3.585-1.988 7.243-2.99 10.853-1.883 6.774-4.311 13.356-6.016 20.19-1.662 6.661-2.08 13.209-1.679 20.098.418 7.16.674 14.43.186 21.587-.232 3.418-1.343 6.602-2.104 9.892-.762 3.294-1.363 6.632-2.264 9.885-.206-.424-.233.993-.232 1.1a6.83 6.83 0 00.38 2.265c.672 1.982 1.93 3.665 3.842 4.212 3.456.987 6.665-2.157 7.78-5.477 1.6-4.764 2.48-10.028 3.242-15.035.699-4.591.864-9.21.657-13.864-.41-9.18-2.07-18.238-2.52-27.414-.489-9.99 1.49-19.377 3.148-29.101.798-4.686 1.56-9.327 3.114-13.791.63-1.808 1.45-3.403 2.31-5.073.488-.95 1.478-2.643.838-3.76z" fill="#C1DEE2"/><path d="M149.049 271.697c.396 11.445 1.08 22.803 2.605 34.127 1.558 11.556 3.346 23.073 4.845 34.64 1.458 11.258 2.987 22.704 2.783 34.12-.15 8.41 1.245 22.635-8.095 26.785-9.458 4.203-11.487-13.746-12.108-19.67-1.19-11.366-.805-22.852-.228-34.28.593-11.73 1.583-23.4 2.81-35.085 1.363-12.981 2.432-26.02 3.29-39.038.425-6.439.53-12.867.412-19.308-.11-6.077.12-12.218 2.281-17.988l.34.246" fill="#69A1AC"/><path d="M100.218 307.955c1.701 2.478 3.416 4.932 5.022 7.557 2.875 4.697 5.474 9.92 6.256 16.635 1.636 14.053.323 29.232.006 43.716-.064 2.96.31 5.83-.857 8.647-1.057 2.554-3.035 4.5-4.92 4.49-4.035-.023-3.42-9.905-3.426-14.254-.012-7.623.843-15.324.769-22.94-.073-7.546-.532-15.112-1.626-22.278-1.108-7.253-2.73-14.219-4.87-20.718-.298-.902-2.43-7.873-.415-6.671" fill="#89C5CC"/><path d="M118.038 233c2.654 0 2.637 13.226 2.717 14.925.288 6.13.22 12.263.403 18.394.399 13.382.89 26.88 2.9 40.107 1.081 7.12 2.336 14.21 3.686 21.276 1.353 7.087 3.17 14.165 4.06 21.342.855 6.899.372 13.933.255 20.866-.118 6.975-.328 13.964-1.242 20.878-.226 1.706-.49 3.407-.773 5.103-.236 1.414-.098 3.167-.497 4.51-.64 2.151-3.38 2.855-5.224 2.52-4.993-.912-8.182-7.181-9.887-11.761-2.178-5.849-3.334-12.193-4.474-18.356-1.292-6.983-2.05-14.072-2.405-21.18-.722-14.449.205-28.912 1.24-43.314.575-8.01 1.24-15.983 2.258-23.943 1.013-7.926 2.313-15.817 3.16-23.766.615-5.776 1.22-11.56 1.619-17.36.095-1.382.176-10.241 2.204-10.241" fill="#69A1AC"/><path d="M121.36 329.139c.432-13.886 6.014-74.88 7.284-91.672.318-4.203 3.375-21.702 3.772-26.467 1.075 1.347.983 22.31.971 27.126-.012 4.765.579 9.45.883 14.19.31 4.835 7.458 67.285 8.386 71.931 1.846 9.244 3.08 18.73 4.034 28.18.928 9.212 2.37 18.931 1.129 28.191-.286 2.132-.738 4.23-1.473 6.188-.795 2.116-1.34 4.073-1.977 6.287-1.026 3.566-2.883 6.696-5.736 8.169-5.85 3.019-8.99-3.815-10.583-9.765-2.543-9.502-4.175-19.16-4.94-29.138-.847-11.04-2.096-22.104-1.75-33.22" fill="#89C5CC"/><g transform="matrix(-1 0 0 1 193.3 370)"><rect fill="#FFF" x="10" width="91" height="91" rx="2"/><rect fill="#C5CFD6" y="10" width="10" height="113" rx="2"/><rect fill="#C5CFD6" x="50" y="10" width="10" height="113" rx="2"/><rect fill="#C5CFD6" x="101" y="10" width="10" height="113" rx="2"/></g></g></g></svg>