<svg width="1200" height="677" viewBox="0 0 1200 677" xmlns="http://www.w3.org/2000/svg" xmlns:xlink="http://www.w3.org/1999/xlink"><title>Player Copy</title><desc>Created with Sketch.</desc><g id="Assets" stroke="none" stroke-width="1" fill="none" fill-rule="evenodd"><g id="Player" fill="#fff" fill-rule="nonzero"><g id="paul-text-02"><path d="M585.984 283C586.768 280.461333 587.533333 277.96 588.28 275.496v0H602.896C603.269333 276.728 603.652 277.969333 604.044 279.22 604.436 280.470667 604.818667 281.730667 605.192 283v0H617.008C614.618667 276.317333 612.154667 269.634667 609.616 262.952 607.077333 256.269333 604.464 249.605333 601.776 242.96v0H589.736C587.122667 249.269333 584.546667 255.765333 582.008 262.448 579.469333 269.130667 576.968 275.981333 574.504 283v0H585.984zM600.208 266.984H590.968C591.714667 264.669333 592.48 262.364 593.264 260.068 594.048 257.772 594.832 255.466667 595.616 253.152 596.4 255.429333 597.174667 257.716 597.94 260.012 598.705333 262.308 599.461333 264.632 600.208 266.984v0zM633.304 283.84C636.962667 283.84 640.070667 283.336 642.628 282.328 645.185333 281.32 647.145333 279.845333 648.508 277.904 649.870667 275.962667 650.552 273.610667 650.552 270.848 650.552 268.757333 650.216 267.012 649.544 265.612 648.872 264.212 647.92 263.054667 646.688 262.14 645.456 261.225333 644 260.450667 642.32 259.816 640.64 259.181333 638.773333 258.621333 636.72 258.136 634.741333 257.650667 633.22 257.137333 632.156 256.596 631.092 256.054667 630.56 255.242667 630.56 254.16 630.56 253.114667 631.073333 252.321333 632.1 251.78 633.126667 251.238667 634.573333 250.968 636.44 250.968 637.746667 250.968 639.1 251.089333 640.5 251.332 641.9 251.574667 643.290667 251.929333 644.672 252.396 646.053333 252.862667 647.36 253.469333 648.592 254.216v0V244.864C646.874667 244.005333 644.952 243.333333 642.824 242.848 640.696 242.362667 638.530667 242.12 636.328 242.12 632.930667 242.12 629.981333 242.633333 627.48 243.66 624.978667 244.686667 623.056 246.152 621.712 248.056 620.368 249.96 619.696 252.256 619.696 254.944 619.696 256.698667 619.957333 258.229333 620.48 259.536 621.002667 260.842667 621.824 261.990667 622.944 262.98 624.064 263.969333 625.52 264.837333 627.312 265.584 629.104 266.330667 631.269333 267.002667 633.808 267.6 634.965333 267.861333 635.973333 268.16 636.832 268.496 637.690667 268.832 638.362667 269.233333 638.848 269.7 639.333333 270.166667 639.576 270.792 639.576 271.576 639.576 272.658667 639.034667 273.498667 637.952 274.096 636.869333 274.693333 635.264 274.992 633.136 274.992 630.970667 274.992 628.796 274.684 626.612 274.068 624.428 273.452 622.290667 272.546667 620.2 271.352v0V280.816C622.365333 281.861333 624.521333 282.626667 626.668 283.112 628.814667 283.597333 631.026667 283.84 633.304 283.84zM667.184 283V266.48H669.144C671.234667 269.28 673.26 272.042667 675.22 274.768 677.18 277.493333 679.130667 280.237333 681.072 283v0H694.736C691.973333 279.341333 689.238667 275.748 686.532 272.22 683.825333 268.692 681.090667 265.210667 678.328 261.776 680.904 258.64 683.424 255.504 685.888 252.368 688.352 249.232 690.778667 246.096 693.168 242.96v0H680.288C678.570667 245.386667 676.816 247.822667 675.024 250.268 673.232 252.713333 671.346667 255.205333 669.368 257.744v0H667.184V242.96H656.264V283H667.184zM731.248 283V252.368H743.232V242.96H708.344V252.368H720.328V283H731.248zM758.632 283V266.816H772.856V283H783.776V242.96H772.856V257.408H758.632V242.96H747.712V283H758.632zM820.904 283V274.264H801.808V266.984H817.6V258.248H801.808V251.696H819.84V242.96H791.168V283H820.904zM856.016 283C859.376 283 862.26 282.533333 864.668 281.6 867.076 280.666667 868.924 279.322667 870.212 277.568 871.5 275.813333 872.144 273.722667 872.144 271.296 872.144 268.944 871.546667 266.937333 870.352 265.276 869.157333 263.614667 867.44 262.373333 865.2 261.552 868.373333 259.797333 869.96 257.128 869.96 253.544 869.96 250.109333 868.672 247.486667 866.096 245.676 863.52 243.865333 859.842667 242.96 855.064 242.96v0H838.656V283H856.016zM854 258.864H849.072V251.024H854C857.584 251.024 859.376 252.274667 859.376 254.776 859.376 256.045333 858.918667 257.044 858.004 257.772 857.089333 258.5 855.754667 258.864 854 258.864v0zM855.008 274.936H849.072V266.592H855.064C859.32 266.592 861.448 268.010667 861.448 270.848 861.448 272.154667 860.897333 273.162667 859.796 273.872 858.694667 274.581333 857.098667 274.936 855.008 274.936v0zM895.16 283C898.52 283 901.404 282.533333 903.812 281.6 906.22 280.666667 908.068 279.322667 909.356 277.568 910.644 275.813333 911.288 273.722667 911.288 271.296 911.288 268.944 910.690667 266.937333 909.496 265.276 908.301333 263.614667 906.584 262.373333 904.344 261.552 907.517333 259.797333 909.104 257.128 909.104 253.544 909.104 250.109333 907.816 247.486667 905.24 245.676 902.664 243.865333 898.986667 242.96 894.208 242.96v0H877.8V283H895.16zM893.144 258.864H888.216V251.024H893.144C896.728 251.024 898.52 252.274667 898.52 254.776 898.52 256.045333 898.062667 257.044 897.148 257.772 896.233333 258.5 894.898667 258.864 893.144 258.864v0zM894.152 274.936H888.216V266.592H894.208C898.464 266.592 900.592 268.010667 900.592 270.848 900.592 272.154667 900.041333 273.162667 898.94 273.872 897.838667 274.581333 896.242667 274.936 894.152 274.936v0zM936.488 283.84C938.914667 283.84 941.182667 283.597333 943.292 283.112 945.401333 282.626667 947.296 281.954667 948.976 281.096v0V271.408C947.221333 272.453333 945.476 273.218667 943.74 273.704 942.004 274.189333 940.165333 274.432 938.224 274.432 934.602667 274.432 931.793333 273.433333 929.796 271.436 927.798667 269.438667 926.8 266.610667 926.8 262.952 926.8 259.293333 927.836 256.474667 929.908 254.496 931.98 252.517333 934.882667 251.528 938.616 251.528 940.445333 251.528 942.190667 251.770667 943.852 252.256 945.513333 252.741333 947.072 253.469333 948.528 254.44v0V244.584C945.168 242.941333 941.304 242.12 936.936 242.12 933.688 242.12 930.748 242.614667 928.116 243.604 925.484 244.593333 923.225333 246.002667 921.34 247.832 919.454667 249.661333 918.008 251.854667 917 254.412 915.992 256.969333 915.488 259.816 915.488 262.952 915.488 266.2 915.964 269.121333 916.916 271.716 917.868 274.310667 919.249333 276.504 921.06 278.296 922.870667 280.088 925.073333 281.46 927.668 282.412 930.262667 283.364 933.202667 283.84 936.488 283.84zM986.776 283V252.368H998.76V242.96H963.872V252.368H975.856V283H986.776zM1022.112 283.84C1025.21067 283.84 1028.01067 283.354667 1030.512 282.384 1033.01333 281.413333 1035.15067 280.013333 1036.924 278.184 1038.69733 276.354667 1040.06 274.152 1041.012 271.576 1041.964 269 1042.44 266.125333 1042.44 262.952 1042.44 259.741333 1041.964 256.857333 1041.012 254.3 1040.06 251.742667 1038.69733 249.558667 1036.924 247.748 1035.15067 245.937333 1033.01333 244.546667 1030.512 243.576 1028.01067 242.605333 1025.21067 242.12 1022.112 242.12 1019.01333 242.12 1016.21333 242.605333 1013.712 243.576 1011.21067 244.546667 1009.07333 245.937333 1007.3 247.748 1005.52667 249.558667 1004.164 251.742667 1003.212 254.3 1002.26 256.857333 1001.784 259.741333 1001.784 262.952 1001.784 266.125333 1002.26 269 1003.212 271.576 1004.164 274.152 1005.52667 276.354667 1007.3 278.184 1009.07333 280.013333 1011.21067 281.413333 1013.712 282.384 1016.21333 283.354667 1019.01333 283.84 1022.112 283.84zM1022.112 274.432C1019.2 274.432 1016.96933 273.442667 1015.42 271.464 1013.87067 269.485333 1013.096 266.648 1013.096 262.952 1013.096 259.293333 1013.87067 256.474667 1015.42 254.496 1016.96933 252.517333 1019.2 251.528 1022.112 251.528 1025.024 251.528 1027.25467 252.517333 1028.804 254.496 1030.35333 256.474667 1031.128 259.293333 1031.128 262.952 1031.128 266.648 1030.35333 269.485333 1028.804 271.464 1027.25467 273.442667 1025.024 274.432 1022.112 274.432zM588.28 339V326.288H592.76C596.381333 326.288 599.442667 325.756 601.944 324.692 604.445333 323.628 606.349333 322.078667 607.656 320.044 608.962667 318.009333 609.616 315.536 609.616 312.624 609.616 308.218667 608.169333 304.84 605.276 302.488 602.382667 300.136 598.210667 298.96 592.76 298.96v0H577.696V339H588.28zM592.256 317.888H588.28V307.36H592.256C596.474667 307.36 598.584 309.114667 598.584 312.624 598.584 316.133333 596.474667 317.888 592.256 317.888v0zM643.888 339V329.592H626.08V298.96H615.16V339H643.888zM656.656 339C657.44 336.461333 658.205333 333.96 658.952 331.496v0H673.568C673.941333 332.728 674.324 333.969333 674.716 335.22 675.108 336.470667 675.490667 337.730667 675.864 339v0H687.68C685.290667 332.317333 682.826667 325.634667 680.288 318.952 677.749333 312.269333 675.136 305.605333 672.448 298.96v0H660.408C657.794667 305.269333 655.218667 311.765333 652.68 318.448 650.141333 325.130667 647.64 331.981333 645.176 339v0H656.656zM670.88 322.984H661.64C662.386667 320.669333 663.152 318.364 663.936 316.068 664.72 313.772 665.504 311.466667 666.288 309.152 667.072 311.429333 667.846667 313.716 668.612 316.012 669.377333 318.308 670.133333 320.632 670.88 322.984v0zM714.672 339V324.16C717.248 319.978667 719.786667 315.788 722.288 311.588 724.789333 307.388 727.234667 303.178667 729.624 298.96v0H717.64C716.333333 301.610667 714.989333 304.270667 713.608 306.94 712.226667 309.609333 710.845333 312.269333 709.464 314.92 708.045333 312.269333 706.654667 309.618667 705.292 306.968 703.929333 304.317333 702.576 301.648 701.232 298.96v0H688.856C691.208 303.178667 693.634667 307.388 696.136 311.588 698.637333 315.788 701.176 319.978667 703.752 324.16v0V339H714.672zM764.96 339C766.042667 334.893333 767.088 330.777333 768.096 326.652 769.104 322.526667 770.112 318.392 771.12 314.248 772.090667 318.392 773.098667 322.526667 774.144 326.652 775.189333 330.777333 776.253333 334.893333 777.336 339v0H788.648C790.514667 332.466667 792.297333 325.858667 793.996 319.176 795.694667 312.493333 797.290667 305.754667 798.784 298.96v0H787.304C786.594667 303.626667 785.838667 308.293333 785.036 312.96 784.233333 317.626667 783.384 322.237333 782.488 326.792 781.48 322.461333 780.481333 318.121333 779.492 313.772 778.502667 309.422667 777.541333 305.045333 776.608 300.64v0H766.136C765.202667 305.12 764.232 309.609333 763.224 314.108 762.216 318.606667 761.170667 323.114667 760.088 327.632 759.192 322.965333 758.333333 318.224 757.512 313.408 756.690667 308.592 755.925333 303.776 755.216 298.96v0H743.512C745.042667 305.754667 746.657333 312.493333 748.356 319.176 750.054667 325.858667 751.818667 332.466667 753.648 339v0H764.96zM814.128 339V298.96H803.208V339H814.128zM841.512 339V308.368H853.496V298.96H818.608V308.368H830.592V339H841.512zM868.896 339V322.816H883.12V339H894.04V298.96H883.12V313.408H868.896V298.96H857.976V339H868.896zM933.632 339.84C935.424 339.84 937.225333 339.728 939.036 339.504 940.846667 339.28 942.592 338.934667 944.272 338.468 945.952 338.001333 947.445333 337.450667 948.752 336.816v0V315.928H933.128V323.992H938.952V329.984C938.242667 330.170667 937.505333 330.310667 936.74 330.404 935.974667 330.497333 935.218667 330.544 934.472 330.544 930.962667 330.544 928.302667 329.564 926.492 327.604 924.681333 325.644 923.776 322.76 923.776 318.952 923.776 315.293333 924.812 312.474667 926.884 310.496 928.956 308.517333 931.914667 307.528 935.76 307.528 938.112 307.528 940.268 307.78 942.228 308.284 944.188 308.788 946.008 309.506667 947.688 310.44v0V300.584C943.768 298.941333 939.325333 298.12 934.36 298.12 931.074667 298.12 928.088 298.614667 925.4 299.604 922.712 300.593333 920.397333 302.002667 918.456 303.832 916.514667 305.661333 915.030667 307.854667 914.004 310.412 912.977333 312.969333 912.464 315.816 912.464 318.952 912.464 322.2 912.949333 325.112 913.92 327.688 914.890667 330.264 916.290667 332.457333 918.12 334.268 919.949333 336.078667 922.170667 337.46 924.784 338.412 927.397333 339.364 930.346667 339.84 933.632 339.84zM965.944 339V325.504H971.432C972.738667 327.706667 973.998667 329.937333 975.212 332.196 976.425333 334.454667 977.629333 336.722667 978.824 339v0H990.864C989.333333 336.274667 987.774667 333.605333 986.188 330.992 984.601333 328.378667 982.986667 325.784 981.344 323.208 983.434667 322.088 985.049333 320.594667 986.188 318.728 987.326667 316.861333 987.896 314.696 987.896 312.232 987.896 307.938667 986.421333 304.653333 983.472 302.376 980.522667 300.098667 976.266667 298.96 970.704 298.96v0H955.36V339H965.944zM970.2 317.104H965.944V307.36H970.2C972.477333 307.36 974.157333 307.761333 975.24 308.564 976.322667 309.366667 976.864 310.589333 976.864 312.232 976.864 313.837333 976.322667 315.050667 975.24 315.872 974.157333 316.693333 972.477333 317.104 970.2 317.104v0zM1024.912 339V330.264H1005.816V322.984H1021.608V314.248H1005.816V307.696H1023.848V298.96H995.176V339H1024.912zM1049.888 339.84C1051.68 339.84 1053.48133 339.728 1055.292 339.504 1057.10267 339.28 1058.848 338.934667 1060.528 338.468 1062.208 338.001333 1063.70133 337.450667 1065.008 336.816v0V315.928H1049.384V323.992H1055.208V329.984C1054.49867 330.170667 1053.76133 330.310667 1052.996 330.404 1052.23067 330.497333 1051.47467 330.544 1050.728 330.544 1047.21867 330.544 1044.55867 329.564 1042.748 327.604 1040.93733 325.644 1040.032 322.76 1040.032 318.952 1040.032 315.293333 1041.068 312.474667 1043.14 310.496 1045.212 308.517333 1048.17067 307.528 1052.016 307.528 1054.368 307.528 1056.524 307.78 1058.484 308.284 1060.444 308.788 1062.264 309.506667 1063.944 310.44v0V300.584C1060.024 298.941333 1055.58133 298.12 1050.616 298.12 1047.33067 298.12 1044.344 298.614667 1041.656 299.604 1038.968 300.593333 1036.65333 302.002667 1034.712 303.832 1032.77067 305.661333 1031.28667 307.854667 1030.26 310.412 1029.23333 312.969333 1028.72 315.816 1028.72 318.952 1028.72 322.2 1029.20533 325.112 1030.176 327.688 1031.14667 330.264 1032.54667 332.457333 1034.376 334.268 1036.20533 336.078667 1038.42667 337.46 1041.04 338.412 1043.65333 339.364 1046.60267 339.84 1049.888 339.84z" id="ASKTHEBBCTOPLAYWITHGREG"/></g></g></g></svg>