<?xml version="1.0" encoding="UTF-8"?>
<svg width="236px" height="328px" viewBox="0 0 236 328" version="1.1" xmlns="http://www.w3.org/2000/svg" xmlns:xlink="http://www.w3.org/1999/xlink">
    <!-- Generator: Sketch 61.2 (89653) - https://sketch.com -->
    <title>A HumanSitting</title>
    <desc>Created with Sketch.</desc>
    <g id="Assets" stroke="none" stroke-width="1" fill="none" fill-rule="evenodd">
        <g id="Player" transform="translate(-421.000000, -346.000000)">
            <g id="A-HumanSitting" transform="translate(356.000000, 346.000000)">
                <g id="Head/Front" transform="translate(133.000000, 0.000000)">
                    <g id="Head" transform="translate(3.000000, 6.000000)" fill="#D4A181">
                        <path d="M38.1433414,9.13393292 C43.9381521,19.9350547 43.249578,47.3329958 35.7603014,49.2634576 C32.773664,50.0333035 26.4113241,48.1475566 19.935865,44.2446031 L24,73 L0,73 L8.26160177,34.4893378 C3.65406109,29.0807313 0.535660132,22.452516 1.05677633,15.0254539 C2.55833022,-6.37502057 32.3485306,-1.66718886 38.1433414,9.13393292 Z"></path>
                    </g>
                    <path d="M3.38617832,14.3883927 C9.44090445,-10.1839421 43.2442766,5.11225904 49.755517,0.948156991 C51.1693844,9.84884409 46.6570594,17.0395283 30.8080367,15.7893456 C27.1368159,17.7509402 24.5450701,21.4811626 21.4188184,26.3890298 C20.7439799,26.1638848 20.0216794,26.0416667 19.2708333,26.0416667 C15.5314053,26.0416667 12.5,29.073072 12.5,32.8125 C12.5,34.5321959 13.1411166,36.1021511 14.1973747,37.2963905 C12.6923605,39.3654486 11.0092539,41.5243567 9.08876697,43.75 C1.71393772,39.4219857 -3.77314815,26.8160387 3.24365478,14.6378805 Z" id="Hair" fill="#713F07"></path>
                </g>
                <g id="Bottom/Sitting/Skinny-Jeans-1" transform="translate(0.000000, 162.000000)">
                    <g id="Objects/Seat/Cube" transform="translate(10.000000, 42.000000)" stroke-width="1">
                        <g id="Seat" transform="translate(55.000000, 0.000000)">
                            <polygon id="Seat-Stuff" fill="#C5CFD6" points="27.6226415 0 104.877193 0 115 124 0 124"></polygon>
                            <polygon id="Seat-Stuff" fill-opacity="0.1" fill="#000000" points="27.6226415 0 51.3828011 0 65.6037736 124 0 124"></polygon>
                        </g>
                    </g>
                    <path d="M257.954028,20.756908 L258.24189,20.5887017 C266.50855,15.9575335 280.00938,22.2466943 280.000005,29.2384154 C279.971611,50.4029106 260.656682,150.1511 259.648224,156.456711 C258.639766,162.762321 247.83665,164.42787 247.20755,156.477375 C246.206544,143.826795 244.3468,100.033121 246.20755,79.7626522 C246.975689,71.3947628 247.802939,63.4254961 248.617343,56.3158982 C238.483775,74.6174738 222.808496,100.823961 201.593128,134.933778 L190.076573,129.672175 C199.120166,99.8760987 206.535776,78.8408618 212.323403,66.5664641 C222.233227,45.5497154 231.525307,27.551672 235.436043,21.2120072 C241.587899,11.2392801 252.296386,14.7194928 257.954028,20.756908 Z" id="Skin" fill="#B28B67"></path>
                    <path d="M208.819223,123.340112 L213.936922,21.8299349 C217.625361,4.27739957 248.84365,12.4235349 248.830816,21.8299349 C248.801666,43.1853748 235.973522,116.956762 235.964839,123.319261 L208.819223,123.340112 Z" id="LegLower" fill="#1F28CF" transform="translate(228.825019, 67.419630) rotate(20.000000) translate(-228.825019, -67.419630) "></path>
                    <g id="Accessories/Shoe/Flat-Sneaker" transform="translate(215.500000, 133.000000) rotate(30.000000) translate(-215.500000, -133.000000) translate(185.000000, 113.000000)" fill="#E4E4E4">
                        <path d="M2.67813181,25.4019242 C1.55937727,28.3884109 1,30.6229931 1,32.1056708 C1,33.908957 1.3004142,36.5404001 1.90124261,40 C3.99318117,40 22.7937852,40 58.3030548,40 C59.768738,35.1545073 58.9226607,32.5385816 55.7648228,32.1522232 C52.606985,31.7658647 49.9837155,31.4170139 47.8950143,31.1056708 L21.6799926,19.4188835 C21.1755635,19.1940064 20.584344,19.4206282 20.359467,19.9250573 C20.35562,19.9336867 20.3518954,19.9423702 20.3482945,19.9511052 L18.6632131,24.038695 L18.6632131,24.038695 C15.7398812,25.4026522 13.3643706,26.0846307 11.5366811,26.0846307 C10.0517269,26.0846307 8.00099246,25.4849054 5.38447792,24.2854549 L5.38448339,24.285443 C4.38038273,23.8251478 3.19325534,24.2659892 2.73296014,25.2700899 C2.71312074,25.3133681 2.69483298,25.3573409 2.67813181,25.4019242 Z" id="shoe"></path>
                    </g>
                    <g id="Accessories/Shoe/Flat-Sneaker" transform="translate(242.000000, 126.000000)" fill="#E4E4E4">
                        <path d="M2.67813181,25.4019242 C1.55937727,28.3884109 1,30.6229931 1,32.1056708 C1,33.908957 1.3004142,36.5404001 1.90124261,40 C3.99318117,40 22.7937852,40 58.3030548,40 C59.768738,35.1545073 58.9226607,32.5385816 55.7648228,32.1522232 C52.606985,31.7658647 49.9837155,31.4170139 47.8950143,31.1056708 L21.6799926,19.4188835 C21.1755635,19.1940064 20.584344,19.4206282 20.359467,19.9250573 C20.35562,19.9336867 20.3518954,19.9423702 20.3482945,19.9511052 L18.6632131,24.038695 L18.6632131,24.038695 C15.7398812,25.4026522 13.3643706,26.0846307 11.5366811,26.0846307 C10.0517269,26.0846307 8.00099246,25.4849054 5.38447792,24.2854549 L5.38448339,24.285443 C4.38038273,23.8251478 3.19325534,24.2659892 2.73296014,25.2700899 C2.71312074,25.3133681 2.69483298,25.3573409 2.67813181,25.4019242 Z" id="shoe"></path>
                    </g>
                    <path d="M282.770373,36.4330278 C282.770373,63 270.1536,124.970293 270.145616,130.820112 L243,130.840963 C246.973277,75.5454811 248.382172,47.5998928 247.226683,47.0041979 C245.49345,46.1106556 176.175838,53.9250306 155.386358,53.9250306 C125.407825,53.9250306 113.006307,35.0203971 112,-4.40536496e-13 L171.386358,-4.40536496e-13 C183.477954,1.29386693 246.548825,14.0152568 269.972097,18.3884129 C280,20.2606358 282.770373,29.1145109 282.770373,36.4330278 Z" id="Leg-and-Butt" fill="#2B44FF"></path>
                </g>
                <g id="Body/Long-Sleeve-1" transform="translate(101.000000, 35.000000)">
                    <path d="M109.106855,91.1681252 L141.005126,114.591724 C149.656594,116.926202 156.884616,119.830687 162.689192,123.305179 C164.060333,124.554584 165.717486,127.084837 160.031031,126.647546 C154.344575,126.210255 148.34361,126.006032 147.55899,127.945594 C146.774369,129.885156 150.215504,132.204659 148.629445,134.821636 C147.572072,136.566288 142.576617,132.191639 133.64308,121.69769 L102.055424,108.599087 L109.106855,91.1681252 Z M171.438302,5.0230163 C167.666871,9.3012535 163.892301,13.9709322 164.969107,15.7648155 C166.045914,17.5586988 169.969279,16.2063984 171.104775,19.048018 C171.861773,20.942431 165.361683,22.2992493 151.604506,23.1184729 L122.133571,40.4625605 L112.456243,24.3408227 L150.360019,12.9624043 C157.431,7.45795893 164.100557,3.43336686 170.36869,0.888628109 C172.191683,0.545496619 175.209733,0.74477909 171.438302,5.0230163 Z" id="Skin" fill="#B28B67"></path>
                    <path d="M47.9849359,37.649923 C73.1467962,64.4399518 103.83581,81.9216266 145.690767,97.4277614 L136.396057,116.01362 C93.2113633,111.941921 70.124049,108.690012 52.0248695,81.8586619 C47.4823424,75.1245369 39.3600345,51.953677 34.4941746,39.9210142 L47.9849359,37.649923 Z" id="Coat-Back" fill="#0B9147" transform="translate(90.092471, 76.831772) rotate(15.000000) translate(-90.092471, -76.831772) "></path>
                    <path d="M11,136 L88,136 C70.5582108,82.8053811 61.6482826,46.2959016 61.2702156,26.4715615 C61.2509414,25.4608975 59.3843785,23.6799647 58.5585703,23.9131937 C52.5195234,25.6187722 46.0572667,24.981041 39.1718001,22 C20.917485,51.3584068 14.6048263,87.5045499 11,136 Z" id="Shirt" fill="#F2F2F2"></path>
                    <path d="M144.922675,13 L149,33.3734803 C117.786296,53.4485846 86.1797992,68.9996172 58.4847771,66.7906365 C70.512447,118.376906 69.9580394,160.605966 43.4074723,160.605966 L43.4074723,160.605966 L2.35112683,160.605966 C-4.16956856,116.783947 12.9680949,56.0236152 28.8559551,25.3765943 C29.4626646,24.2062769 30.7544101,22 33.7970006,22 L33.7970006,22 L45.7267633,22 C45.7320772,22.0159997 45.7373902,22.0319994 45.7427025,22.0479991 C67.8143412,22.2281419 103.62406,26.2586371 144.922675,13 Z" id="Coat-Front" fill="#0B9F4D"></path>
                </g>
            </g>
        </g>
    </g>
</svg>