<svg width="1200" height="677" viewBox="0 0 1200 677" xmlns="http://www.w3.org/2000/svg" xmlns:xlink="http://www.w3.org/1999/xlink"><title>Player</title><desc>Created with Sketch.</desc><g id="Assets" stroke="none" stroke-width="1" fill="none" fill-rule="evenodd"><g id="Player" fill="#fff" fill-rule="nonzero"><g id="paul-text-01"><path d="M585.984 351C586.768 348.461333 587.533333 345.96 588.28 343.496v0H602.896C603.269333 344.728 603.652 345.969333 604.044 347.22 604.436 348.470667 604.818667 349.730667 605.192 351v0H617.008C614.618667 344.317333 612.154667 337.634667 609.616 330.952 607.077333 324.269333 604.464 317.605333 601.776 310.96v0H589.736C587.122667 317.269333 584.546667 323.765333 582.008 330.448 579.469333 337.130667 576.968 343.981333 574.504 351v0H585.984zM600.208 334.984H590.968C591.714667 332.669333 592.48 330.364 593.264 328.068 594.048 325.772 594.832 323.466667 595.616 321.152 596.4 323.429333 597.174667 325.716 597.94 328.012 598.705333 330.308 599.461333 332.632 600.208 334.984v0zM649.936 351V341.592H632.128V310.96H621.208V351H649.936zM684.152 351V342.264H665.056V334.984H680.848V326.248H665.056V319.696H683.088V310.96H654.416V351H684.152zM698.768 351C699.850667 348.834667 700.989333 346.678667 702.184 344.532 703.378667 342.385333 704.592 340.229333 705.824 338.064 707.093333 340.192 708.334667 342.338667 709.548 344.504 710.761333 346.669333 711.909333 348.834667 712.992 351v0H725.928C723.762667 347.453333 721.569333 343.944 719.348 340.472 717.126667 337 714.84 333.528 712.488 330.056 714.653333 326.882667 716.753333 323.709333 718.788 320.536 720.822667 317.362667 722.848 314.170667 724.864 310.96v0H712.32C711.349333 312.901333 710.350667 314.814667 709.324 316.7 708.297333 318.585333 707.261333 320.442667 706.216 322.272 705.133333 320.405333 704.088 318.529333 703.08 316.644 702.072 314.758667 701.082667 312.864 700.112 310.96v0H687.232C689.210667 314.170667 691.226667 317.390667 693.28 320.62 695.333333 323.849333 697.424 327.050667 699.552 330.224 697.2 333.696 694.922667 337.158667 692.72 340.612 690.517333 344.065333 688.333333 347.528 686.168 351v0H698.768zM738.36 351C739.144 348.461333 739.909333 345.96 740.656 343.496v0H755.272C755.645333 344.728 756.028 345.969333 756.42 347.22 756.812 348.470667 757.194667 349.730667 757.568 351v0H769.384C766.994667 344.317333 764.530667 337.634667 761.992 330.952 759.453333 324.269333 756.84 317.605333 754.152 310.96v0H742.112C739.498667 317.269333 736.922667 323.765333 734.384 330.448 731.845333 337.130667 729.344 343.981333 726.88 351v0H738.36zM752.584 334.984H743.344C744.090667 332.669333 744.856 330.364 745.64 328.068 746.424 325.772 747.208 323.466667 747.992 321.152 748.776 323.429333 749.550667 325.716 750.316 328.012 751.081333 330.308 751.837333 332.632 752.584 334.984v0zM782.712 337.448 783.552 310.96H772.8L773.64 337.448H782.712zM778.176 351.504C779.370667 351.504 780.397333 351.252 781.256 350.748 782.114667 350.244 782.777333 349.572 783.244 348.732 783.710667 347.892 783.944 346.968 783.944 345.96 783.944 344.952 783.710667 344.028 783.244 343.188 782.777333 342.348 782.114667 341.685333 781.256 341.2 780.397333 340.714667 779.370667 340.472 778.176 340.472 776.981333 340.472 775.954667 340.714667 775.096 341.2 774.237333 341.685333 773.574667 342.348 773.108 343.188 772.641333 344.028 772.408 344.952 772.408 345.96 772.408 346.968 772.641333 347.892 773.108 348.732 773.574667 349.572 774.237333 350.244 775.096 350.748 775.954667 351.252 776.981333 351.504 778.176 351.504z" id="ALEXA!"/></g></g></g></svg>