<?xml version="1.0" encoding="UTF-8"?>
<svg width="660px" height="887px" viewBox="0 0 660 887" version="1.1" xmlns="http://www.w3.org/2000/svg" xmlns:xlink="http://www.w3.org/1999/xlink">
    <!-- Generator: Sketch 61.2 (89653) - https://sketch.com -->
    <title>Phone Copy</title>
    <desc>Created with Sketch.</desc>
    <defs>
        <filter x="-38.0%" y="-25.3%" width="175.9%" height="150.6%" filterUnits="objectBoundingBox" id="filter-1">
            <feOffset dx="0" dy="0" in="SourceAlpha" result="shadowOffsetOuter1"></feOffset>
            <feGaussianBlur stdDeviation="47" in="shadowOffsetOuter1" result="shadowBlurOuter1"></feGaussianBlur>
            <feColorMatrix values="0 0 0 0 0   0 0 0 0 0   0 0 0 0 0  0 0 0 1 0" type="matrix" in="shadowBlurOuter1" result="shadowMatrixOuter1"></feColorMatrix>
            <feMerge>
                <feMergeNode in="shadowMatrixOuter1"></feMergeNode>
                <feMergeNode in="SourceGraphic"></feMergeNode>
            </feMerge>
        </filter>
        <polygon id="path-2" points="0.2229 0.074 8 0.074 8 31 0.2229 31"></polygon>
    </defs>
    <g id="Assets" stroke="none" stroke-width="1" fill="none" fill-rule="evenodd">
        <g id="Phone-Copy" filter="url(#filter-1)" transform="translate(93.000000, 93.000000)">
            <path d="M77,0 L397,0 C439.525926,-7.81188583e-15 474,34.4740743 474,77 L474,691 L474,691 L0,691 L0,77 C-5.20792388e-15,34.4740743 34.4740743,7.81188583e-15 77,0 Z" id="Rectangle" fill="#151515"></path>
            <path d="M398,20 C429.480231,20 455,45.5197693 455,77 L455,712 L20,712 L20,77 C20,45.5197693 45.5197693,20 77,20 L130,19.9999208 L130,47.9999208 C130,56.1793279 136.546786,62.829651 144.686172,62.996703 L145,62.9999208 L330,62.9999208 C338.284271,62.9999208 345,56.284192 345,47.9999208 L345,47.9999208 L345,19.9999208 L398,20 Z M195,38.9999208 L281,38.9999208 C283.209139,38.9999208 285,40.7907818 285,42.9999208 C285,45.2090598 283.209139,46.9999208 281,46.9999208 L195,46.9999208 C192.790861,46.9999208 191,45.2090598 191,42.9999208 C191,40.7907818 192.790861,38.9999208 195,38.9999208 Z" id="Combined-Shape" fill="#FFFFFF" opacity="0.1"></path>
            <path d="M130,20 L130,41 C130,29.4020203 120.59798,20 109,20 L130,20 Z" id="Combined-Shape" fill="#151515"></path>
            <path d="M366,20 L366,41 C366,29.4020203 356.59798,20 345,20 L366,20 Z" id="Combined-Shape" fill="#151515" transform="translate(355.500000, 30.500000) scale(-1, 1) translate(-355.500000, -30.500000) "></path>
            <path d="M205.322375,176 L205.322375,158.206 C206.224375,160.283333 207.146875,162.360667 208.089875,164.438 C209.032875,166.515333 209.982708,168.592667 210.939375,170.67 L210.939375,170.67 L217.089375,170.67 C218.018708,168.592667 218.941208,166.5085 219.856875,164.4175 C220.772542,162.3265 221.681375,160.215 222.583375,158.083 L222.583375,158.083 L222.583375,176 L230.045375,176 L230.045375,146.685 L220.533375,146.685 C219.494708,149.445667 218.442375,152.172167 217.376375,154.8645 C216.310375,157.556833 215.230708,160.215 214.137375,162.839 C212.989375,160.187667 211.861875,157.509 210.754875,154.803 C209.647875,152.097 208.561375,149.391 207.495375,146.685 L207.495375,146.685 L197.860375,146.685 L197.860375,176 L205.322375,176 Z M255.947125,176 L255.947125,169.604 L241.966125,169.604 L241.966125,164.274 L253.528125,164.274 L253.528125,157.878 L241.966125,157.878 L241.966125,153.081 L255.168125,153.081 L255.168125,146.685 L234.176125,146.685 L234.176125,176 L255.947125,176 Z M279.552875,176 L279.552875,169.112 L266.514875,169.112 L266.514875,146.685 L258.519875,146.685 L258.519875,176 L279.552875,176 Z" id="MEL" fill="#FFFFFF" fill-rule="nonzero"></path>
            <path d="M104.342,462 L104.342,454.98 C104.702,454.5 105.116,454.137 105.584,453.891 C106.052,453.645 106.55,453.522 107.078,453.522 C107.75,453.522 108.269,453.75 108.635,454.206 C109.001,454.662 109.184,455.316 109.184,456.168 L109.184,456.168 L109.184,462 L110.246,462 L110.246,456.078 C110.246,455.73 110.216,455.4 110.156,455.088 C110.516,454.584 110.939,454.197 111.425,453.927 C111.911,453.657 112.43,453.522 112.982,453.522 C113.654,453.522 114.173,453.75 114.539,454.206 C114.905,454.662 115.088,455.316 115.088,456.168 L115.088,456.168 L115.088,462 L116.15,462 L116.15,456.078 C116.15,455.358 116.03,454.74 115.79,454.224 C115.55,453.708 115.205,453.312 114.755,453.036 C114.305,452.76 113.762,452.622 113.126,452.622 C112.478,452.622 111.887,452.766 111.353,453.054 C110.819,453.342 110.348,453.774 109.94,454.35 C109.7,453.798 109.349,453.372 108.887,453.072 C108.425,452.772 107.87,452.622 107.222,452.622 C106.022,452.622 105.038,453.114 104.27,454.098 L104.27,454.098 L104.162,452.856 L103.28,452.856 L103.28,462 L104.342,462 Z M121.7975,462.234 C123.0695,462.234 124.1135,461.742 124.9295,460.758 L124.9295,460.758 L125.0375,462 L125.9195,462 L125.9195,452.856 L124.8575,452.856 L124.8575,459.858 C124.4615,460.338 124.0205,460.704 123.5345,460.956 C123.0485,461.208 122.5175,461.334 121.9415,461.334 C121.2095,461.334 120.6485,461.115 120.2585,460.677 C119.8685,460.239 119.6735,459.612 119.6735,458.796 L119.6735,458.796 L119.6735,452.856 L118.6115,452.856 L118.6115,458.886 C118.6115,459.582 118.7375,460.179 118.9895,460.677 C119.2415,461.175 119.6075,461.559 120.0875,461.829 C120.5675,462.099 121.1375,462.234 121.7975,462.234 Z M131.693,462.234 C132.353,462.234 132.965,462.078 133.529,461.766 L133.529,461.766 L133.529,460.83 C133.229,460.986 132.944,461.109 132.674,461.199 C132.404,461.289 132.131,461.334 131.855,461.334 C130.775,461.334 130.235,460.776 130.235,459.66 L130.235,459.66 L130.235,453.72 L133.259,453.72 L133.259,452.856 L130.235,452.856 L130.235,449.832 L129.173,450.102 L129.173,452.856 L127.229,452.856 L127.229,453.72 L129.173,453.72 L129.173,459.588 C129.173,460.452 129.386,461.109 129.812,461.559 C130.238,462.009 130.865,462.234 131.693,462.234 Z M138.5285,462.234 C139.7525,462.234 140.8085,461.94 141.6965,461.352 L141.6965,461.352 L141.6965,460.362 C141.2045,460.698 140.7125,460.944 140.2205,461.1 C139.7285,461.256 139.1945,461.334 138.6185,461.334 C137.5505,461.334 136.7195,461.001 136.1255,460.335 C135.5315,459.669 135.2225,458.73 135.1985,457.518 L135.1985,457.518 L141.9665,457.518 L141.9665,456.87 C141.9665,455.526 141.6545,454.482 141.0305,453.738 C140.4065,452.994 139.4885,452.622 138.2765,452.622 C137.5925,452.622 136.9925,452.745 136.4765,452.991 C135.9605,453.237 135.5285,453.582 135.1805,454.026 C134.8325,454.47 134.5715,454.989 134.3975,455.583 C134.2235,456.177 134.1365,456.822 134.1365,457.518 C134.1365,458.478 134.3165,459.312 134.6765,460.02 C135.0365,460.728 135.5435,461.274 136.1975,461.658 C136.8515,462.042 137.6285,462.234 138.5285,462.234 Z M140.9225,456.672 L135.2345,456.672 C135.3065,456.012 135.4745,455.445 135.7385,454.971 C136.0025,454.497 136.3505,454.131 136.7825,453.873 C137.2145,453.615 137.7125,453.486 138.2765,453.486 C139.9685,453.486 140.8505,454.548 140.9225,456.672 L140.9225,456.672 Z" id="mute" fill="#FFFFFF" fill-rule="nonzero"></path>
            <path d="M96.17,599.234 C96.794,599.234 97.361,599.12 97.871,598.892 C98.381,598.664 98.834,598.328 99.23,597.884 C99.29,598.748 99.77,599.18 100.67,599.18 C101.054,599.18 101.366,599.114 101.606,598.982 L101.606,598.982 L101.606,598.172 C101.39,598.28 101.156,598.334 100.904,598.334 C100.676,598.334 100.511,598.271 100.409,598.145 C100.307,598.019 100.256,597.824 100.256,597.56 L100.256,597.56 L100.256,592.718 C100.256,592.07 100.121,591.515 99.851,591.053 C99.581,590.591 99.197,590.237 98.699,589.991 C98.201,589.745 97.604,589.622 96.908,589.622 C95.828,589.622 94.802,589.898 93.83,590.45 L93.83,590.45 L93.83,591.458 C94.322,591.134 94.811,590.897 95.297,590.747 C95.783,590.597 96.302,590.522 96.854,590.522 C97.61,590.522 98.189,590.72 98.591,591.116 C98.993,591.512 99.194,592.082 99.194,592.826 L99.194,592.826 L99.194,594.032 C98.906,593.996 98.582,593.966 98.222,593.942 C97.862,593.918 97.532,593.906 97.232,593.906 C95.924,593.906 94.922,594.146 94.226,594.626 C93.53,595.106 93.182,595.79 93.182,596.678 C93.182,597.482 93.446,598.109 93.974,598.559 C94.502,599.009 95.234,599.234 96.17,599.234 Z M96.278,598.37 C94.934,598.37 94.262,597.8 94.262,596.66 C94.262,595.988 94.508,595.499 95,595.193 C95.492,594.887 96.26,594.734 97.304,594.734 C97.616,594.734 97.937,594.746 98.267,594.77 C98.597,594.794 98.906,594.824 99.194,594.86 L99.194,594.86 L99.194,596.966 C98.414,597.902 97.442,598.37 96.278,598.37 Z M106.2995,599.234 C107.4995,599.234 108.5075,598.766 109.3235,597.83 L109.3235,597.83 L109.4315,599 L110.3135,599 L110.3135,585.59 L109.2515,585.59 L109.2515,590.306 C108.4475,589.85 107.6375,589.622 106.8215,589.622 C106.1255,589.622 105.4985,589.739 104.9405,589.973 C104.3825,590.207 103.9055,590.543 103.5095,590.981 C103.1135,591.419 102.8075,591.944 102.5915,592.556 C102.3755,593.168 102.2675,593.852 102.2675,594.608 C102.2675,595.556 102.4295,596.375 102.7535,597.065 C103.0775,597.755 103.5425,598.289 104.1485,598.667 C104.7545,599.045 105.4715,599.234 106.2995,599.234 Z M106.4075,598.334 C105.4235,598.334 104.6705,598.004 104.1485,597.344 C103.6265,596.684 103.3655,595.742 103.3655,594.518 C103.3655,593.678 103.5065,592.961 103.7885,592.367 C104.0705,591.773 104.4755,591.317 105.0035,590.999 C105.5315,590.681 106.1735,590.522 106.9295,590.522 C107.3375,590.522 107.7275,590.576 108.0995,590.684 C108.4715,590.792 108.8555,590.966 109.2515,591.206 L109.2515,591.206 L109.2515,596.948 C108.4475,597.872 107.4995,598.334 106.4075,598.334 Z M116.339,599.234 C117.539,599.234 118.547,598.766 119.363,597.83 L119.363,597.83 L119.471,599 L120.353,599 L120.353,585.59 L119.291,585.59 L119.291,590.306 C118.487,589.85 117.677,589.622 116.861,589.622 C116.165,589.622 115.538,589.739 114.98,589.973 C114.422,590.207 113.945,590.543 113.549,590.981 C113.153,591.419 112.847,591.944 112.631,592.556 C112.415,593.168 112.307,593.852 112.307,594.608 C112.307,595.556 112.469,596.375 112.793,597.065 C113.117,597.755 113.582,598.289 114.188,598.667 C114.794,599.045 115.511,599.234 116.339,599.234 Z M116.447,598.334 C115.463,598.334 114.71,598.004 114.188,597.344 C113.666,596.684 113.405,595.742 113.405,594.518 C113.405,593.678 113.546,592.961 113.828,592.367 C114.11,591.773 114.515,591.317 115.043,590.999 C115.571,590.681 116.213,590.522 116.969,590.522 C117.377,590.522 117.767,590.576 118.139,590.684 C118.511,590.792 118.895,590.966 119.291,591.206 L119.291,591.206 L119.291,596.948 C118.487,597.872 117.539,598.334 116.447,598.334 Z M130.748,599.234 C131.732,599.234 132.644,598.958 133.484,598.406 L133.484,598.406 L133.484,597.398 C133.04,597.722 132.59,597.959 132.134,598.109 C131.678,598.259 131.198,598.334 130.694,598.334 C130.01,598.334 129.419,598.178 128.921,597.866 C128.423,597.554 128.042,597.101 127.778,596.507 C127.514,595.913 127.382,595.208 127.382,594.392 C127.382,593.576 127.517,592.88 127.787,592.304 C128.057,591.728 128.441,591.287 128.939,590.981 C129.437,590.675 130.034,590.522 130.73,590.522 C131.198,590.522 131.651,590.594 132.089,590.738 C132.527,590.882 132.95,591.11 133.358,591.422 L133.358,591.422 L133.358,590.396 C133.01,590.144 132.62,589.952 132.188,589.82 C131.756,589.688 131.288,589.622 130.784,589.622 C129.86,589.622 129.059,589.814 128.381,590.198 C127.703,590.582 127.184,591.131 126.824,591.845 C126.464,592.559 126.284,593.408 126.284,594.392 C126.284,595.4 126.461,596.267 126.815,596.993 C127.169,597.719 127.682,598.274 128.354,598.658 C129.026,599.042 129.824,599.234 130.748,599.234 Z M137.4755,599.234 C138.0995,599.234 138.6665,599.12 139.1765,598.892 C139.6865,598.664 140.1395,598.328 140.5355,597.884 C140.5955,598.748 141.0755,599.18 141.9755,599.18 C142.3595,599.18 142.6715,599.114 142.9115,598.982 L142.9115,598.982 L142.9115,598.172 C142.6955,598.28 142.4615,598.334 142.2095,598.334 C141.9815,598.334 141.8165,598.271 141.7145,598.145 C141.6125,598.019 141.5615,597.824 141.5615,597.56 L141.5615,597.56 L141.5615,592.718 C141.5615,592.07 141.4265,591.515 141.1565,591.053 C140.8865,590.591 140.5025,590.237 140.0045,589.991 C139.5065,589.745 138.9095,589.622 138.2135,589.622 C137.1335,589.622 136.1075,589.898 135.1355,590.45 L135.1355,590.45 L135.1355,591.458 C135.6275,591.134 136.1165,590.897 136.6025,590.747 C137.0885,590.597 137.6075,590.522 138.1595,590.522 C138.9155,590.522 139.4945,590.72 139.8965,591.116 C140.2985,591.512 140.4995,592.082 140.4995,592.826 L140.4995,592.826 L140.4995,594.032 C140.2115,593.996 139.8875,593.966 139.5275,593.942 C139.1675,593.918 138.8375,593.906 138.5375,593.906 C137.2295,593.906 136.2275,594.146 135.5315,594.626 C134.8355,595.106 134.4875,595.79 134.4875,596.678 C134.4875,597.482 134.7515,598.109 135.2795,598.559 C135.8075,599.009 136.5395,599.234 137.4755,599.234 Z M137.5835,598.37 C136.2395,598.37 135.5675,597.8 135.5675,596.66 C135.5675,595.988 135.8135,595.499 136.3055,595.193 C136.7975,594.887 137.5655,594.734 138.6095,594.734 C138.9215,594.734 139.2425,594.746 139.5725,594.77 C139.9025,594.794 140.2115,594.824 140.4995,594.86 L140.4995,594.86 L140.4995,596.966 C139.7195,597.902 138.7475,598.37 137.5835,598.37 Z M145.895,599.162 C146.123,599.162 146.339,599.138 146.543,599.09 C146.747,599.042 146.921,598.976 147.065,598.892 L147.065,598.892 L147.065,598.046 C146.897,598.13 146.735,598.193 146.579,598.235 C146.423,598.277 146.267,598.298 146.111,598.298 C145.787,598.298 145.553,598.217 145.409,598.055 C145.265,597.893 145.193,597.632 145.193,597.272 L145.193,597.272 L145.193,585.59 L144.131,585.59 L144.131,597.218 C144.131,597.878 144.275,598.367 144.563,598.685 C144.851,599.003 145.295,599.162 145.895,599.162 Z M150.4265,599.162 C150.6545,599.162 150.8705,599.138 151.0745,599.09 C151.2785,599.042 151.4525,598.976 151.5965,598.892 L151.5965,598.892 L151.5965,598.046 C151.4285,598.13 151.2665,598.193 151.1105,598.235 C150.9545,598.277 150.7985,598.298 150.6425,598.298 C150.3185,598.298 150.0845,598.217 149.9405,598.055 C149.7965,597.893 149.7245,597.632 149.7245,597.272 L149.7245,597.272 L149.7245,585.59 L148.6625,585.59 L148.6625,597.218 C148.6625,597.878 148.8065,598.367 149.0945,598.685 C149.3825,599.003 149.8265,599.162 150.4265,599.162 Z" id="addcall" fill="#FFFFFF" fill-rule="nonzero"></path>
            <path d="M213.3265,462 L213.3265,457.5 L213.9565,457.5 C214.6765,458.196 215.3935,458.916 216.1075,459.66 C216.8215,460.404 217.5565,461.184 218.3125,462 L218.3125,462 L219.7705,462 C218.9425,461.148 218.1235,460.311 217.3135,459.489 C216.5035,458.667 215.6785,457.848 214.8385,457.032 C215.6065,456.348 216.3655,455.661 217.1155,454.971 C217.8655,454.281 218.6185,453.576 219.3745,452.856 L219.3745,452.856 L218.0065,452.856 C217.3825,453.48 216.7375,454.107 216.0715,454.737 C215.4055,455.367 214.7125,456 213.9925,456.636 L213.9925,456.636 L213.3265,456.636 L213.3265,448.59 L212.2645,448.59 L212.2645,462 L213.3265,462 Z M224.302,462.234 C225.526,462.234 226.582,461.94 227.47,461.352 L227.47,461.352 L227.47,460.362 C226.978,460.698 226.486,460.944 225.994,461.1 C225.502,461.256 224.968,461.334 224.392,461.334 C223.324,461.334 222.493,461.001 221.899,460.335 C221.305,459.669 220.996,458.73 220.972,457.518 L220.972,457.518 L227.74,457.518 L227.74,456.87 C227.74,455.526 227.428,454.482 226.804,453.738 C226.18,452.994 225.262,452.622 224.05,452.622 C223.366,452.622 222.766,452.745 222.25,452.991 C221.734,453.237 221.302,453.582 220.954,454.026 C220.606,454.47 220.345,454.989 220.171,455.583 C219.997,456.177 219.91,456.822 219.91,457.518 C219.91,458.478 220.09,459.312 220.45,460.02 C220.81,460.728 221.317,461.274 221.971,461.658 C222.625,462.042 223.402,462.234 224.302,462.234 Z M226.696,456.672 L221.008,456.672 C221.08,456.012 221.248,455.445 221.512,454.971 C221.776,454.497 222.124,454.131 222.556,453.873 C222.988,453.615 223.486,453.486 224.05,453.486 C225.742,453.486 226.624,454.548 226.696,456.672 L226.696,456.672 Z M229.3915,466.302 C230.4115,466.302 231.2155,465.672 231.8035,464.412 C231.8995,464.208 232.0315,463.914 232.1995,463.53 C232.3675,463.146 232.5625,462.696 232.7845,462.18 C233.0065,461.664 233.2465,461.1 233.5045,460.488 C233.7625,459.876 234.0295,459.24 234.3055,458.58 C234.5815,457.92 234.8575,457.257 235.1335,456.591 C235.4095,455.925 235.6795,455.274 235.9435,454.638 C236.2075,454.002 236.4475,453.408 236.6635,452.856 L236.6635,452.856 L235.5655,452.856 C235.0735,454.164 234.5755,455.475 234.0715,456.789 C233.5675,458.103 233.0275,459.414 232.4515,460.722 C231.9115,459.414 231.3865,458.106 230.8765,456.798 C230.3665,455.49 229.8715,454.176 229.3915,452.856 L229.3915,452.856 L228.2575,452.856 C228.8215,454.356 229.4095,455.859 230.0215,457.365 C230.6335,458.871 231.2695,460.38 231.9295,461.892 C231.7615,462.288 231.5845,462.687 231.3985,463.089 C231.2125,463.491 231.0175,463.884 230.8135,464.268 C230.5975,464.676 230.3725,464.967 230.1385,465.141 C229.9045,465.315 229.6135,465.402 229.2655,465.402 C229.0735,465.402 228.8905,465.384 228.7165,465.348 C228.5425,465.312 228.3895,465.258 228.2575,465.186 L228.2575,465.186 L228.2575,466.086 C228.6055,466.23 228.9835,466.302 229.3915,466.302 Z M238.927,466.068 L238.927,461.55 C239.719,462.006 240.559,462.234 241.447,462.234 C242.119,462.234 242.731,462.117 243.283,461.883 C243.835,461.649 244.306,461.313 244.696,460.875 C245.086,460.437 245.386,459.912 245.596,459.3 C245.806,458.688 245.911,458.004 245.911,457.248 C245.911,456.3 245.746,455.481 245.416,454.791 C245.086,454.101 244.621,453.567 244.021,453.189 C243.421,452.811 242.707,452.622 241.879,452.622 C240.679,452.622 239.671,453.09 238.855,454.026 L238.855,454.026 L238.747,452.856 L237.865,452.856 L237.865,466.068 L238.927,466.068 Z M241.339,461.334 C240.895,461.334 240.487,461.283 240.115,461.181 C239.743,461.079 239.347,460.902 238.927,460.65 L238.927,460.65 L238.927,454.908 C239.731,453.984 240.679,453.522 241.771,453.522 C242.755,453.522 243.508,453.852 244.03,454.512 C244.552,455.172 244.813,456.114 244.813,457.338 C244.813,458.166 244.675,458.88 244.399,459.48 C244.123,460.08 243.727,460.539 243.211,460.857 C242.695,461.175 242.071,461.334 241.339,461.334 Z M250.1545,462.234 C250.7785,462.234 251.3455,462.12 251.8555,461.892 C252.3655,461.664 252.8185,461.328 253.2145,460.884 C253.2745,461.748 253.7545,462.18 254.6545,462.18 C255.0385,462.18 255.3505,462.114 255.5905,461.982 L255.5905,461.982 L255.5905,461.172 C255.3745,461.28 255.1405,461.334 254.8885,461.334 C254.6605,461.334 254.4955,461.271 254.3935,461.145 C254.2915,461.019 254.2405,460.824 254.2405,460.56 L254.2405,460.56 L254.2405,455.718 C254.2405,455.07 254.1055,454.515 253.8355,454.053 C253.5655,453.591 253.1815,453.237 252.6835,452.991 C252.1855,452.745 251.5885,452.622 250.8925,452.622 C249.8125,452.622 248.7865,452.898 247.8145,453.45 L247.8145,453.45 L247.8145,454.458 C248.3065,454.134 248.7955,453.897 249.2815,453.747 C249.7675,453.597 250.2865,453.522 250.8385,453.522 C251.5945,453.522 252.1735,453.72 252.5755,454.116 C252.9775,454.512 253.1785,455.082 253.1785,455.826 L253.1785,455.826 L253.1785,457.032 C252.8905,456.996 252.5665,456.966 252.2065,456.942 C251.8465,456.918 251.5165,456.906 251.2165,456.906 C249.9085,456.906 248.9065,457.146 248.2105,457.626 C247.5145,458.106 247.1665,458.79 247.1665,459.678 C247.1665,460.482 247.4305,461.109 247.9585,461.559 C248.4865,462.009 249.2185,462.234 250.1545,462.234 Z M250.2625,461.37 C248.9185,461.37 248.2465,460.8 248.2465,459.66 C248.2465,458.988 248.4925,458.499 248.9845,458.193 C249.4765,457.887 250.2445,457.734 251.2885,457.734 C251.6005,457.734 251.9215,457.746 252.2515,457.77 C252.5815,457.794 252.8905,457.824 253.1785,457.86 L253.1785,457.86 L253.1785,459.966 C252.3985,460.902 251.4265,461.37 250.2625,461.37 Z M260.284,462.234 C261.484,462.234 262.492,461.766 263.308,460.83 L263.308,460.83 L263.416,462 L264.298,462 L264.298,448.59 L263.236,448.59 L263.236,453.306 C262.432,452.85 261.622,452.622 260.806,452.622 C260.11,452.622 259.483,452.739 258.925,452.973 C258.367,453.207 257.89,453.543 257.494,453.981 C257.098,454.419 256.792,454.944 256.576,455.556 C256.36,456.168 256.252,456.852 256.252,457.608 C256.252,458.556 256.414,459.375 256.738,460.065 C257.062,460.755 257.527,461.289 258.133,461.667 C258.739,462.045 259.456,462.234 260.284,462.234 Z M260.392,461.334 C259.408,461.334 258.655,461.004 258.133,460.344 C257.611,459.684 257.35,458.742 257.35,457.518 C257.35,456.678 257.491,455.961 257.773,455.367 C258.055,454.773 258.46,454.317 258.988,453.999 C259.516,453.681 260.158,453.522 260.914,453.522 C261.322,453.522 261.712,453.576 262.084,453.684 C262.456,453.792 262.84,453.966 263.236,454.206 L263.236,454.206 L263.236,459.948 C262.432,460.872 261.484,461.334 260.392,461.334 Z" id="keypad" fill="#FFFFFF" fill-rule="nonzero"></path>
            <path d="M207.2695,599 C207.9175,597.524 208.5475,596.03 209.1595,594.518 C209.7715,593.006 210.3655,591.452 210.9415,589.856 L210.9415,589.856 L209.8435,589.856 C209.3635,591.236 208.8655,592.595 208.3495,593.933 C207.8335,595.271 207.2995,596.594 206.7475,597.902 C206.1955,596.606 205.6645,595.286 205.1545,593.942 C204.6445,592.598 204.1495,591.236 203.6695,589.856 L203.6695,589.856 L202.5355,589.856 C203.6875,593.072 204.8995,596.12 206.1715,599 L206.1715,599 L207.2695,599 Z M212.665,587.552 C212.905,587.552 213.097,587.48 213.241,587.336 C213.385,587.192 213.457,587.006 213.457,586.778 C213.457,586.55 213.385,586.367 213.241,586.229 C213.097,586.091 212.905,586.022 212.665,586.022 C212.437,586.022 212.251,586.091 212.107,586.229 C211.963,586.367 211.891,586.55 211.891,586.778 C211.891,587.006 211.963,587.192 212.107,587.336 C212.251,587.48 212.437,587.552 212.665,587.552 Z M213.205,599 L213.205,589.856 L212.143,589.856 L212.143,599 L213.205,599 Z M219.2305,599.234 C220.4305,599.234 221.4385,598.766 222.2545,597.83 L222.2545,597.83 L222.3625,599 L223.2445,599 L223.2445,585.59 L222.1825,585.59 L222.1825,590.306 C221.3785,589.85 220.5685,589.622 219.7525,589.622 C219.0565,589.622 218.4295,589.739 217.8715,589.973 C217.3135,590.207 216.8365,590.543 216.4405,590.981 C216.0445,591.419 215.7385,591.944 215.5225,592.556 C215.3065,593.168 215.1985,593.852 215.1985,594.608 C215.1985,595.556 215.3605,596.375 215.6845,597.065 C216.0085,597.755 216.4735,598.289 217.0795,598.667 C217.6855,599.045 218.4025,599.234 219.2305,599.234 Z M219.3385,598.334 C218.3545,598.334 217.6015,598.004 217.0795,597.344 C216.5575,596.684 216.2965,595.742 216.2965,594.518 C216.2965,593.678 216.4375,592.961 216.7195,592.367 C217.0015,591.773 217.4065,591.317 217.9345,590.999 C218.4625,590.681 219.1045,590.522 219.8605,590.522 C220.2685,590.522 220.6585,590.576 221.0305,590.684 C221.4025,590.792 221.7865,590.966 222.1825,591.206 L222.1825,591.206 L222.1825,596.948 C221.3785,597.872 220.4305,598.334 219.3385,598.334 Z M229.63,599.234 C230.854,599.234 231.91,598.94 232.798,598.352 L232.798,598.352 L232.798,597.362 C232.306,597.698 231.814,597.944 231.322,598.1 C230.83,598.256 230.296,598.334 229.72,598.334 C228.652,598.334 227.821,598.001 227.227,597.335 C226.633,596.669 226.324,595.73 226.3,594.518 L226.3,594.518 L233.068,594.518 L233.068,593.87 C233.068,592.526 232.756,591.482 232.132,590.738 C231.508,589.994 230.59,589.622 229.378,589.622 C228.694,589.622 228.094,589.745 227.578,589.991 C227.062,590.237 226.63,590.582 226.282,591.026 C225.934,591.47 225.673,591.989 225.499,592.583 C225.325,593.177 225.238,593.822 225.238,594.518 C225.238,595.478 225.418,596.312 225.778,597.02 C226.138,597.728 226.645,598.274 227.299,598.658 C227.953,599.042 228.73,599.234 229.63,599.234 Z M232.024,593.672 L226.336,593.672 C226.408,593.012 226.576,592.445 226.84,591.971 C227.104,591.497 227.452,591.131 227.884,590.873 C228.316,590.615 228.814,590.486 229.378,590.486 C231.07,590.486 231.952,591.548 232.024,593.672 L232.024,593.672 Z M238.6615,599.234 C239.3095,599.234 239.8975,599.12 240.4255,598.892 C240.9535,598.664 241.4035,598.337 241.7755,597.911 C242.1475,597.485 242.4355,596.975 242.6395,596.381 C242.8435,595.787 242.9455,595.124 242.9455,594.392 C242.9455,593.42 242.7685,592.577 242.4145,591.863 C242.0605,591.149 241.5655,590.597 240.9295,590.207 C240.2935,589.817 239.5375,589.622 238.6615,589.622 C237.7975,589.622 237.0445,589.817 236.4025,590.207 C235.7605,590.597 235.2625,591.149 234.9085,591.863 C234.5545,592.577 234.3775,593.42 234.3775,594.392 C234.3775,595.124 234.4795,595.787 234.6835,596.381 C234.8875,596.975 235.1755,597.485 235.5475,597.911 C235.9195,598.337 236.3695,598.664 236.8975,598.892 C237.4255,599.12 238.0135,599.234 238.6615,599.234 Z M238.6615,598.334 C238.0015,598.334 237.4345,598.172 236.9605,597.848 C236.4865,597.524 236.1205,597.065 235.8625,596.471 C235.6045,595.877 235.4755,595.184 235.4755,594.392 C235.4755,593.6 235.6045,592.913 235.8625,592.331 C236.1205,591.749 236.4895,591.302 236.9695,590.99 C237.4495,590.678 238.0135,590.522 238.6615,590.522 C239.3215,590.522 239.8885,590.678 240.3625,590.99 C240.8365,591.302 241.2025,591.749 241.4605,592.331 C241.7185,592.913 241.8475,593.6 241.8475,594.392 C241.8475,595.184 241.7185,595.877 241.4605,596.471 C241.2025,597.065 240.8365,597.524 240.3625,597.848 C239.8885,598.172 239.3215,598.334 238.6615,598.334 Z M252.7285,599.234 C253.7125,599.234 254.6245,598.958 255.4645,598.406 L255.4645,598.406 L255.4645,597.398 C255.0205,597.722 254.5705,597.959 254.1145,598.109 C253.6585,598.259 253.1785,598.334 252.6745,598.334 C251.9905,598.334 251.3995,598.178 250.9015,597.866 C250.4035,597.554 250.0225,597.101 249.7585,596.507 C249.4945,595.913 249.3625,595.208 249.3625,594.392 C249.3625,593.576 249.4975,592.88 249.7675,592.304 C250.0375,591.728 250.4215,591.287 250.9195,590.981 C251.4175,590.675 252.0145,590.522 252.7105,590.522 C253.1785,590.522 253.6315,590.594 254.0695,590.738 C254.5075,590.882 254.9305,591.11 255.3385,591.422 L255.3385,591.422 L255.3385,590.396 C254.9905,590.144 254.6005,589.952 254.1685,589.82 C253.7365,589.688 253.2685,589.622 252.7645,589.622 C251.8405,589.622 251.0395,589.814 250.3615,590.198 C249.6835,590.582 249.1645,591.131 248.8045,591.845 C248.4445,592.559 248.2645,593.408 248.2645,594.392 C248.2645,595.4 248.4415,596.267 248.7955,596.993 C249.1495,597.719 249.6625,598.274 250.3345,598.658 C251.0065,599.042 251.8045,599.234 252.7285,599.234 Z M259.456,599.234 C260.08,599.234 260.647,599.12 261.157,598.892 C261.667,598.664 262.12,598.328 262.516,597.884 C262.576,598.748 263.056,599.18 263.956,599.18 C264.34,599.18 264.652,599.114 264.892,598.982 L264.892,598.982 L264.892,598.172 C264.676,598.28 264.442,598.334 264.19,598.334 C263.962,598.334 263.797,598.271 263.695,598.145 C263.593,598.019 263.542,597.824 263.542,597.56 L263.542,597.56 L263.542,592.718 C263.542,592.07 263.407,591.515 263.137,591.053 C262.867,590.591 262.483,590.237 261.985,589.991 C261.487,589.745 260.89,589.622 260.194,589.622 C259.114,589.622 258.088,589.898 257.116,590.45 L257.116,590.45 L257.116,591.458 C257.608,591.134 258.097,590.897 258.583,590.747 C259.069,590.597 259.588,590.522 260.14,590.522 C260.896,590.522 261.475,590.72 261.877,591.116 C262.279,591.512 262.48,592.082 262.48,592.826 L262.48,592.826 L262.48,594.032 C262.192,593.996 261.868,593.966 261.508,593.942 C261.148,593.918 260.818,593.906 260.518,593.906 C259.21,593.906 258.208,594.146 257.512,594.626 C256.816,595.106 256.468,595.79 256.468,596.678 C256.468,597.482 256.732,598.109 257.26,598.559 C257.788,599.009 258.52,599.234 259.456,599.234 Z M259.564,598.37 C258.22,598.37 257.548,597.8 257.548,596.66 C257.548,595.988 257.794,595.499 258.286,595.193 C258.778,594.887 259.546,594.734 260.59,594.734 C260.902,594.734 261.223,594.746 261.553,594.77 C261.883,594.794 262.192,594.824 262.48,594.86 L262.48,594.86 L262.48,596.966 C261.7,597.902 260.728,598.37 259.564,598.37 Z M267.8755,599.162 C268.1035,599.162 268.3195,599.138 268.5235,599.09 C268.7275,599.042 268.9015,598.976 269.0455,598.892 L269.0455,598.892 L269.0455,598.046 C268.8775,598.13 268.7155,598.193 268.5595,598.235 C268.4035,598.277 268.2475,598.298 268.0915,598.298 C267.7675,598.298 267.5335,598.217 267.3895,598.055 C267.2455,597.893 267.1735,597.632 267.1735,597.272 L267.1735,597.272 L267.1735,585.59 L266.1115,585.59 L266.1115,597.218 C266.1115,597.878 266.2555,598.367 266.5435,598.685 C266.8315,599.003 267.2755,599.162 267.8755,599.162 Z M272.407,599.162 C272.635,599.162 272.851,599.138 273.055,599.09 C273.259,599.042 273.433,598.976 273.577,598.892 L273.577,598.892 L273.577,598.046 C273.409,598.13 273.247,598.193 273.091,598.235 C272.935,598.277 272.779,598.298 272.623,598.298 C272.299,598.298 272.065,598.217 271.921,598.055 C271.777,597.893 271.705,597.632 271.705,597.272 L271.705,597.272 L271.705,585.59 L270.643,585.59 L270.643,597.218 C270.643,597.878 270.787,598.367 271.075,598.685 C271.363,599.003 271.807,599.162 272.407,599.162 Z" id="videocall" fill="#FFFFFF" fill-rule="nonzero"></path>
            <path d="M336.10525,462.234 C336.72925,462.234 337.29625,462.12 337.80625,461.892 C338.31625,461.664 338.76925,461.328 339.16525,460.884 C339.22525,461.748 339.70525,462.18 340.60525,462.18 C340.98925,462.18 341.30125,462.114 341.54125,461.982 L341.54125,461.982 L341.54125,461.172 C341.32525,461.28 341.09125,461.334 340.83925,461.334 C340.61125,461.334 340.44625,461.271 340.34425,461.145 C340.24225,461.019 340.19125,460.824 340.19125,460.56 L340.19125,460.56 L340.19125,455.718 C340.19125,455.07 340.05625,454.515 339.78625,454.053 C339.51625,453.591 339.13225,453.237 338.63425,452.991 C338.13625,452.745 337.53925,452.622 336.84325,452.622 C335.76325,452.622 334.73725,452.898 333.76525,453.45 L333.76525,453.45 L333.76525,454.458 C334.25725,454.134 334.74625,453.897 335.23225,453.747 C335.71825,453.597 336.23725,453.522 336.78925,453.522 C337.54525,453.522 338.12425,453.72 338.52625,454.116 C338.92825,454.512 339.12925,455.082 339.12925,455.826 L339.12925,455.826 L339.12925,457.032 C338.84125,456.996 338.51725,456.966 338.15725,456.942 C337.79725,456.918 337.46725,456.906 337.16725,456.906 C335.85925,456.906 334.85725,457.146 334.16125,457.626 C333.46525,458.106 333.11725,458.79 333.11725,459.678 C333.11725,460.482 333.38125,461.109 333.90925,461.559 C334.43725,462.009 335.16925,462.234 336.10525,462.234 Z M336.21325,461.37 C334.86925,461.37 334.19725,460.8 334.19725,459.66 C334.19725,458.988 334.44325,458.499 334.93525,458.193 C335.42725,457.887 336.19525,457.734 337.23925,457.734 C337.55125,457.734 337.87225,457.746 338.20225,457.77 C338.53225,457.794 338.84125,457.824 339.12925,457.86 L339.12925,457.86 L339.12925,459.966 C338.34925,460.902 337.37725,461.37 336.21325,461.37 Z M345.92875,462.234 C347.20075,462.234 348.24475,461.742 349.06075,460.758 L349.06075,460.758 L349.16875,462 L350.05075,462 L350.05075,452.856 L348.98875,452.856 L348.98875,459.858 C348.59275,460.338 348.15175,460.704 347.66575,460.956 C347.17975,461.208 346.64875,461.334 346.07275,461.334 C345.34075,461.334 344.77975,461.115 344.38975,460.677 C343.99975,460.239 343.80475,459.612 343.80475,458.796 L343.80475,458.796 L343.80475,452.856 L342.74275,452.856 L342.74275,458.886 C342.74275,459.582 342.86875,460.179 343.12075,460.677 C343.37275,461.175 343.73875,461.559 344.21875,461.829 C344.69875,462.099 345.26875,462.234 345.92875,462.234 Z M356.07625,462.234 C357.27625,462.234 358.28425,461.766 359.10025,460.83 L359.10025,460.83 L359.20825,462 L360.09025,462 L360.09025,448.59 L359.02825,448.59 L359.02825,453.306 C358.22425,452.85 357.41425,452.622 356.59825,452.622 C355.90225,452.622 355.27525,452.739 354.71725,452.973 C354.15925,453.207 353.68225,453.543 353.28625,453.981 C352.89025,454.419 352.58425,454.944 352.36825,455.556 C352.15225,456.168 352.04425,456.852 352.04425,457.608 C352.04425,458.556 352.20625,459.375 352.53025,460.065 C352.85425,460.755 353.31925,461.289 353.92525,461.667 C354.53125,462.045 355.24825,462.234 356.07625,462.234 Z M356.18425,461.334 C355.20025,461.334 354.44725,461.004 353.92525,460.344 C353.40325,459.684 353.14225,458.742 353.14225,457.518 C353.14225,456.678 353.28325,455.961 353.56525,455.367 C353.84725,454.773 354.25225,454.317 354.78025,453.999 C355.30825,453.681 355.95025,453.522 356.70625,453.522 C357.11425,453.522 357.50425,453.576 357.87625,453.684 C358.24825,453.792 358.63225,453.966 359.02825,454.206 L359.02825,454.206 L359.02825,459.948 C358.22425,460.872 357.27625,461.334 356.18425,461.334 Z M363.21775,450.552 C363.45775,450.552 363.64975,450.48 363.79375,450.336 C363.93775,450.192 364.00975,450.006 364.00975,449.778 C364.00975,449.55 363.93775,449.367 363.79375,449.229 C363.64975,449.091 363.45775,449.022 363.21775,449.022 C362.98975,449.022 362.80375,449.091 362.65975,449.229 C362.51575,449.367 362.44375,449.55 362.44375,449.778 C362.44375,450.006 362.51575,450.192 362.65975,450.336 C362.80375,450.48 362.98975,450.552 363.21775,450.552 Z M363.75775,462 L363.75775,452.856 L362.69575,452.856 L362.69575,462 L363.75775,462 Z M370.03525,462.234 C370.68325,462.234 371.27125,462.12 371.79925,461.892 C372.32725,461.664 372.77725,461.337 373.14925,460.911 C373.52125,460.485 373.80925,459.975 374.01325,459.381 C374.21725,458.787 374.31925,458.124 374.31925,457.392 C374.31925,456.42 374.14225,455.577 373.78825,454.863 C373.43425,454.149 372.93925,453.597 372.30325,453.207 C371.66725,452.817 370.91125,452.622 370.03525,452.622 C369.17125,452.622 368.41825,452.817 367.77625,453.207 C367.13425,453.597 366.63625,454.149 366.28225,454.863 C365.92825,455.577 365.75125,456.42 365.75125,457.392 C365.75125,458.124 365.85325,458.787 366.05725,459.381 C366.26125,459.975 366.54925,460.485 366.92125,460.911 C367.29325,461.337 367.74325,461.664 368.27125,461.892 C368.79925,462.12 369.38725,462.234 370.03525,462.234 Z M370.03525,461.334 C369.37525,461.334 368.80825,461.172 368.33425,460.848 C367.86025,460.524 367.49425,460.065 367.23625,459.471 C366.97825,458.877 366.84925,458.184 366.84925,457.392 C366.84925,456.6 366.97825,455.913 367.23625,455.331 C367.49425,454.749 367.86325,454.302 368.34325,453.99 C368.82325,453.678 369.38725,453.522 370.03525,453.522 C370.69525,453.522 371.26225,453.678 371.73625,453.99 C372.21025,454.302 372.57625,454.749 372.83425,455.331 C373.09225,455.913 373.22125,456.6 373.22125,457.392 C373.22125,458.184 373.09225,458.877 372.83425,459.471 C372.57625,460.065 372.21025,460.524 371.73625,460.848 C371.26225,461.172 370.69525,461.334 370.03525,461.334 Z" id="audio" fill="#FFFFFF" fill-rule="nonzero"></path>
            <path d="M325.933,599.234 C326.917,599.234 327.829,598.958 328.669,598.406 L328.669,598.406 L328.669,597.398 C328.225,597.722 327.775,597.959 327.319,598.109 C326.863,598.259 326.383,598.334 325.879,598.334 C325.195,598.334 324.604,598.178 324.106,597.866 C323.608,597.554 323.227,597.101 322.963,596.507 C322.699,595.913 322.567,595.208 322.567,594.392 C322.567,593.576 322.702,592.88 322.972,592.304 C323.242,591.728 323.626,591.287 324.124,590.981 C324.622,590.675 325.219,590.522 325.915,590.522 C326.383,590.522 326.836,590.594 327.274,590.738 C327.712,590.882 328.135,591.11 328.543,591.422 L328.543,591.422 L328.543,590.396 C328.195,590.144 327.805,589.952 327.373,589.82 C326.941,589.688 326.473,589.622 325.969,589.622 C325.045,589.622 324.244,589.814 323.566,590.198 C322.888,590.582 322.369,591.131 322.009,591.845 C321.649,592.559 321.469,593.408 321.469,594.392 C321.469,595.4 321.646,596.267 322,596.993 C322.354,597.719 322.867,598.274 323.539,598.658 C324.211,599.042 325.009,599.234 325.933,599.234 Z M334.0825,599.234 C334.7305,599.234 335.3185,599.12 335.8465,598.892 C336.3745,598.664 336.8245,598.337 337.1965,597.911 C337.5685,597.485 337.8565,596.975 338.0605,596.381 C338.2645,595.787 338.3665,595.124 338.3665,594.392 C338.3665,593.42 338.1895,592.577 337.8355,591.863 C337.4815,591.149 336.9865,590.597 336.3505,590.207 C335.7145,589.817 334.9585,589.622 334.0825,589.622 C333.2185,589.622 332.4655,589.817 331.8235,590.207 C331.1815,590.597 330.6835,591.149 330.3295,591.863 C329.9755,592.577 329.7985,593.42 329.7985,594.392 C329.7985,595.124 329.9005,595.787 330.1045,596.381 C330.3085,596.975 330.5965,597.485 330.9685,597.911 C331.3405,598.337 331.7905,598.664 332.3185,598.892 C332.8465,599.12 333.4345,599.234 334.0825,599.234 Z M334.0825,598.334 C333.4225,598.334 332.8555,598.172 332.3815,597.848 C331.9075,597.524 331.5415,597.065 331.2835,596.471 C331.0255,595.877 330.8965,595.184 330.8965,594.392 C330.8965,593.6 331.0255,592.913 331.2835,592.331 C331.5415,591.749 331.9105,591.302 332.3905,590.99 C332.8705,590.678 333.4345,590.522 334.0825,590.522 C334.7425,590.522 335.3095,590.678 335.7835,590.99 C336.2575,591.302 336.6235,591.749 336.8815,592.331 C337.1395,592.913 337.2685,593.6 337.2685,594.392 C337.2685,595.184 337.1395,595.877 336.8815,596.471 C336.6235,597.065 336.2575,597.524 335.7835,597.848 C335.3095,598.172 334.7425,598.334 334.0825,598.334 Z M341.422,599 L341.422,591.998 C341.818,591.518 342.265,591.152 342.763,590.9 C343.261,590.648 343.804,590.522 344.392,590.522 C345.136,590.522 345.709,590.75 346.111,591.206 C346.513,591.662 346.714,592.316 346.714,593.168 L346.714,593.168 L346.714,599 L347.776,599 L347.776,593.078 C347.776,592.358 347.647,591.74 347.389,591.224 C347.131,590.708 346.759,590.312 346.273,590.036 C345.787,589.76 345.208,589.622 344.536,589.622 C343.9,589.622 343.315,589.745 342.781,589.991 C342.247,590.237 341.77,590.606 341.35,591.098 L341.35,591.098 L341.242,589.856 L340.36,589.856 L340.36,599 L341.422,599 Z M353.3875,599.234 C354.0475,599.234 354.6595,599.078 355.2235,598.766 L355.2235,598.766 L355.2235,597.83 C354.9235,597.986 354.6385,598.109 354.3685,598.199 C354.0985,598.289 353.8255,598.334 353.5495,598.334 C352.4695,598.334 351.9295,597.776 351.9295,596.66 L351.9295,596.66 L351.9295,590.72 L354.9535,590.72 L354.9535,589.856 L351.9295,589.856 L351.9295,586.832 L350.8675,587.102 L350.8675,589.856 L348.9235,589.856 L348.9235,590.72 L350.8675,590.72 L350.8675,596.588 C350.8675,597.452 351.0805,598.109 351.5065,598.559 C351.9325,599.009 352.5595,599.234 353.3875,599.234 Z M358.963,599.234 C359.587,599.234 360.154,599.12 360.664,598.892 C361.174,598.664 361.627,598.328 362.023,597.884 C362.083,598.748 362.563,599.18 363.463,599.18 C363.847,599.18 364.159,599.114 364.399,598.982 L364.399,598.982 L364.399,598.172 C364.183,598.28 363.949,598.334 363.697,598.334 C363.469,598.334 363.304,598.271 363.202,598.145 C363.1,598.019 363.049,597.824 363.049,597.56 L363.049,597.56 L363.049,592.718 C363.049,592.07 362.914,591.515 362.644,591.053 C362.374,590.591 361.99,590.237 361.492,589.991 C360.994,589.745 360.397,589.622 359.701,589.622 C358.621,589.622 357.595,589.898 356.623,590.45 L356.623,590.45 L356.623,591.458 C357.115,591.134 357.604,590.897 358.09,590.747 C358.576,590.597 359.095,590.522 359.647,590.522 C360.403,590.522 360.982,590.72 361.384,591.116 C361.786,591.512 361.987,592.082 361.987,592.826 L361.987,592.826 L361.987,594.032 C361.699,593.996 361.375,593.966 361.015,593.942 C360.655,593.918 360.325,593.906 360.025,593.906 C358.717,593.906 357.715,594.146 357.019,594.626 C356.323,595.106 355.975,595.79 355.975,596.678 C355.975,597.482 356.239,598.109 356.767,598.559 C357.295,599.009 358.027,599.234 358.963,599.234 Z M359.071,598.37 C357.727,598.37 357.055,597.8 357.055,596.66 C357.055,595.988 357.301,595.499 357.793,595.193 C358.285,594.887 359.053,594.734 360.097,594.734 C360.409,594.734 360.73,594.746 361.06,594.77 C361.39,594.794 361.699,594.824 361.987,594.86 L361.987,594.86 L361.987,596.966 C361.207,597.902 360.235,598.37 359.071,598.37 Z M369.5245,599.234 C370.5085,599.234 371.4205,598.958 372.2605,598.406 L372.2605,598.406 L372.2605,597.398 C371.8165,597.722 371.3665,597.959 370.9105,598.109 C370.4545,598.259 369.9745,598.334 369.4705,598.334 C368.7865,598.334 368.1955,598.178 367.6975,597.866 C367.1995,597.554 366.8185,597.101 366.5545,596.507 C366.2905,595.913 366.1585,595.208 366.1585,594.392 C366.1585,593.576 366.2935,592.88 366.5635,592.304 C366.8335,591.728 367.2175,591.287 367.7155,590.981 C368.2135,590.675 368.8105,590.522 369.5065,590.522 C369.9745,590.522 370.4275,590.594 370.8655,590.738 C371.3035,590.882 371.7265,591.11 372.1345,591.422 L372.1345,591.422 L372.1345,590.396 C371.7865,590.144 371.3965,589.952 370.9645,589.82 C370.5325,589.688 370.0645,589.622 369.5605,589.622 C368.6365,589.622 367.8355,589.814 367.1575,590.198 C366.4795,590.582 365.9605,591.131 365.6005,591.845 C365.2405,592.559 365.0605,593.408 365.0605,594.392 C365.0605,595.4 365.2375,596.267 365.5915,596.993 C365.9455,597.719 366.4585,598.274 367.1305,598.658 C367.8025,599.042 368.6005,599.234 369.5245,599.234 Z M377.17,599.234 C377.83,599.234 378.442,599.078 379.006,598.766 L379.006,598.766 L379.006,597.83 C378.706,597.986 378.421,598.109 378.151,598.199 C377.881,598.289 377.608,598.334 377.332,598.334 C376.252,598.334 375.712,597.776 375.712,596.66 L375.712,596.66 L375.712,590.72 L378.736,590.72 L378.736,589.856 L375.712,589.856 L375.712,586.832 L374.65,587.102 L374.65,589.856 L372.706,589.856 L372.706,590.72 L374.65,590.72 L374.65,596.588 C374.65,597.452 374.863,598.109 375.289,598.559 C375.715,599.009 376.342,599.234 377.17,599.234 Z M382.7095,599.234 C383.4295,599.234 384.0535,599.123 384.5815,598.901 C385.1095,598.679 385.5145,598.364 385.7965,597.956 C386.0785,597.548 386.2195,597.068 386.2195,596.516 C386.2195,596.048 386.1205,595.655 385.9225,595.337 C385.7245,595.019 385.4035,594.743 384.9595,594.509 C384.5155,594.275 383.9095,594.062 383.1415,593.87 C382.6735,593.75 382.2925,593.633 381.9985,593.519 C381.7045,593.405 381.4735,593.285 381.3055,593.159 C381.1375,593.033 381.0205,592.883 380.9545,592.709 C380.8885,592.535 380.8555,592.334 380.8555,592.106 C380.8555,591.602 381.0625,591.209 381.4765,590.927 C381.8905,590.645 382.4515,590.504 383.1595,590.504 C384.2635,590.504 385.1635,590.798 385.8595,591.386 L385.8595,591.386 L385.8595,590.324 C385.5115,590.084 385.1095,589.907 384.6535,589.793 C384.1975,589.679 383.7055,589.622 383.1775,589.622 C382.4935,589.622 381.8995,589.724 381.3955,589.928 C380.8915,590.132 380.5015,590.426 380.2255,590.81 C379.9495,591.194 379.8115,591.656 379.8115,592.196 C379.8115,592.652 379.9045,593.039 380.0905,593.357 C380.2765,593.675 380.5945,593.945 381.0445,594.167 C381.4945,594.389 382.1035,594.602 382.8715,594.806 C383.4835,594.95 383.9545,595.1 384.2845,595.256 C384.6145,595.412 384.8425,595.598 384.9685,595.814 C385.0945,596.03 385.1575,596.3 385.1575,596.624 C385.1575,597.176 384.9505,597.602 384.5365,597.902 C384.1225,598.202 383.5375,598.352 382.7815,598.352 C382.2175,598.352 381.6775,598.271 381.1615,598.109 C380.6455,597.947 380.1955,597.71 379.8115,597.398 L379.8115,597.398 L379.8115,598.478 C380.2555,598.742 380.7235,598.934 381.2155,599.054 C381.7075,599.174 382.2055,599.234 382.7095,599.234 Z" id="contacts" fill="#FFFFFF" fill-rule="nonzero"></path>
            <circle id="Oval" fill="#000000" opacity="0.24" cx="121.5" cy="395.5" r="41.5"></circle>
            <g id="Group-4" transform="translate(105.000000, 384.000000)" fill="#FFFFFF">
                <path d="M16.0002,-0.0003 L16.0002,23.9997 L10.0002,17.9997 L0.0002,17.9997 L0.0002,5.9997 L10.0002,5.9997 L16.0002,-0.0003 Z M30.3787,6.0016 L31.8657,7.4886 L27.3522,12.0017 L31.8657,16.5156 L30.3787,18.0026 L25.8652,13.4877 L21.3517,18.0026 L19.8657,16.5156 L24.3782,12.0007 L19.8657,7.4886 L21.3517,6.0016 L25.8652,10.5147 L30.3787,6.0016 Z" id="fill"></path>
            </g>
            <circle id="Oval" fill="#000000" opacity="0.24" cx="121.5" cy="532.5" r="41.5"></circle>
            <polygon id="+" fill="#FFFFFF" fill-rule="nonzero" points="123.493333 545 123.493333 534.350649 134 534.350649 134 531.649351 123.493333 531.649351 123.493333 521 120.506667 521 120.506667 531.649351 110 531.649351 110 534.350649 120.506667 534.350649 120.506667 545"></polygon>
            <circle id="Oval" fill="#000000" opacity="0.24" cx="237.5" cy="395.5" r="41.5"></circle>
            <g id="Group-10" transform="translate(221.000000, 381.000000)" fill="#FFFFFF">
                <path d="M23.0004,21.0004 L32.0004,21.9994 L32.0004,30.0004 L23.0004,26.9994 L23.0004,21.0004 Z M9.0009,20.9999 L9.0009,26.9999 L0.0009,29.9999 L0.0009,21.9999 L9.0009,20.9999 Z M20,21.025 L20,27.025 L12,27.025 L12,21.025 L20,21.025 Z M32.0004,11 L32.0004,19 L23.0004,17.999 L23.0004,12 L32.0004,11 Z M0.0009,11.0002 L9.0009,12.0002 L9.0009,17.9992 L0.0009,19.0002 L0.0009,11.0002 Z M20,12.025 L20,18.025 L12,18.025 L12,12.025 L20,12.025 Z M20,3.025 L20,9.025 L12,9.025 L12,3.025 L20,3.025 Z M32.0007,0.0003 L32.0007,7.9993 L23.0007,8.9993 L23.0007,3.0003 L31.9977,0.0003 L32.0007,0.0003 Z M0.0039,0.0003 L9.0009,3.0003 L9.0009,8.9993 L0.0009,7.9993 L0.0009,0.0003 L0.0039,0.0003 Z" id="fill"></path>
            </g>
            <circle id="Oval" fill="#000000" opacity="0.24" cx="237.5" cy="532.5" r="41.5"></circle>
            <g id="noun_Video_966159" transform="translate(220.000000, 523.000000)" fill="#FFFFFF" fill-rule="nonzero">
                <g id="Group" transform="translate(0.545455, 0.000000)">
                    <path d="M21.8641148,19.4025974 L2.93971292,19.4025974 C1.42392344,19.4025974 0.229665072,18.1402597 0.229665072,16.6441558 L0.229665072,2.99220779 C0.229665072,1.44935065 1.46985646,0.233766234 2.93971292,0.233766234 L21.8181818,0.233766234 C23.3339713,0.233766234 24.5282297,1.4961039 24.5282297,2.99220779 L24.5282297,16.5974026 C24.5741627,18.1402597 23.3339713,19.4025974 21.8641148,19.4025974 Z" id="Path"></path>
                    <path d="M26.4114833,5.65714286 L26.4114833,13.9792208 L33.9904306,18.3272727 C34.3119617,18.5142857 34.6794258,18.2805195 34.6794258,17.9064935 L34.6794258,1.72987013 C34.6794258,1.35584416 34.3119617,1.16883117 33.9904306,1.30909091 L26.4114833,5.65714286 Z" id="Path"></path>
                </g>
            </g>
            <circle id="Oval" fill="#0B9F4D" cx="353.5" cy="395.5" r="41.5"></circle>
            <g id="Group-8" transform="translate(337.000000, 379.000000)">
                <path d="M25.6499,0.9998 C29.5759,4.9728 32.0009,10.4318 32.0009,16.4628 C32.0009,22.4938 29.5749,27.9528 25.6479,31.9258 L25.6479,31.9258 L24.2229,30.4998 C27.7919,26.8868 30.0009,21.9298 30.0009,16.4628 C30.0009,10.9958 27.7919,6.0398 24.2249,2.4258 L24.2249,2.4258 Z M16.0005,4.4627 L16.0005,28.4627 L10.0005,22.9627 L0.0005,22.9627 L0.0005,10.9627 L10.0005,10.9627 L16.0005,4.4627 Z M21.4048,5.2459 C24.2438,8.1329 26.0008,12.0909 26.0008,16.4629 C26.0008,20.8359 24.2438,24.7929 21.4028,27.6799 L21.4028,27.6799 L19.9838,26.2599 C22.4638,23.7319 24.0008,20.2749 24.0008,16.4629 C24.0008,12.6499 22.4648,9.1939 19.9838,6.6659 L19.9838,6.6659 Z" id="fill" fill="#FFFFFF"></path>
                <g id="Group-5" transform="translate(24.000000, 0.925800)">
                    <mask id="mask-3" fill="white">
                        <use xlink:href="#path-2"></use>
                    </mask>
                    <g id="Clip-4"></g>
                </g>
            </g>
            <circle id="Oval" fill="#000000" opacity="0.24" cx="353.5" cy="532.5" r="41.5"></circle>
            <path d="M354,512 C365.599,512 375,521.406 375,533.004 C375,539.133 372.358,544.635 368.171,548.474 L368.171,548.474 L366.946,546.022 C370.293,542.695 372.375,538.113 372.375,533.031 C372.375,522.899 364.132,514.687 354,514.687 C343.868,514.687 335.625,522.992 335.625,533.124 C335.625,539.531 338.925,545.298 343.909,548.589 L343.909,548.589 L346,544.498 L362,544.498 L365.271,550.948 C362.013,553.028 358.152,554 354,554 C342.401,554 333,544.599 333,533 C333,521.402 342.401,512 354,512 Z M354,524.9995 C358.42,524.9995 362.001,528.5825 362.001,532.9995 C362.001,537.4195 358.42,540.9995 354,540.9995 C349.58,540.9995 345.999,537.4195 345.999,532.9995 C345.999,528.5825 349.58,524.9995 354,524.9995 Z" id="fill" fill="#FFFFFF"></path>
            <g id="noun_low-battery_1601222" transform="translate(391.000000, 42.000000)" fill="#FFFFFF" fill-rule="nonzero">
                <g id="Group">
                    <path d="M28,3.4067086 L25.4063158,3.4067086 L25.4063158,0 L0,0 L0,13 L25.4063158,13 L25.4063158,9.56603774 L28,9.56603774 L28,3.4067086 Z M24.0505263,11.7463312 L1.35578947,11.7463312 L1.35578947,1.22641509 L24.08,1.22641509 L24.08,11.7463312 L24.0505263,11.7463312 Z" id="Shape"></path>
                    <rect id="Rectangle" x="2.625" y="2.4375" width="4.375" height="8.125"></rect>
                </g>
            </g>
            <g id="noun_wifi_1029623" transform="translate(365.000000, 41.000000)" fill="#FFFFFF" fill-rule="nonzero">
                <path d="M18.9873418,3.79289902 L16.5436709,6.09796231 C11.8708861,2.49036738 7.03860759,2.45619016 2.26708861,6.00872181 L0,3.64859523 C4.63101266,-0.710898445 12.5487342,-1.74950604 18.9873418,3.79289902 Z" id="Path"></path>
                <path d="M12.8924051,9.64669649 C10.5018987,8.26821548 8.13417722,8.28530409 5.79683544,9.66188637 L3.44810127,7.30555725 C6.31898734,4.56568383 11.8367089,4.54289902 15.2943038,7.25619016 L12.8924051,9.64669649 Z" id="Path"></path>
                <path d="M11.5120253,12.6846712 C11.5026538,13.8646246 10.5445458,14.8168027 9.36455696,14.8188485 C8.18287974,14.8191531 7.21733914,13.8755374 7.190501,12.6941648 C7.18788472,11.5008103 8.15316447,10.5312801 9.34651899,10.5286532 C10.5398735,10.5260369 11.5094037,11.4913167 11.5120253,12.6846712 Z" id="Path"></path>
            </g>
        </g>
    </g>
</svg>