<svg width="236" height="130" xmlns="http://www.w3.org/2000/svg"><g fill="#FFF" fill-rule="evenodd"><path d="M60.693 4.387h26.23V29.06h-26.23V4.387zm16.528 3.437c-.112-.024-.237-.04-.354-.063l-.14-.019c-.202-.027-.4-.05-.61-.066-.14-.02-.28-.027-.417-.031a9.445 9.445 0 00-.727-.027c-.109 0-.175.004-.28.004-.202.003-.393.015-.584.027-.105.008-.213.015-.319.027a4.678 4.678 0 00-.462.05l-.129.012-.144.023-.17.032c-.075.007-.149.023-.223.038-.109.012-.21.04-.307.059-.622.132-1.198.303-1.727.51-.276.108-.54.225-.786.345-.214.105-.408.214-.607.323a14.05 14.05 0 00-.536.33c-.098.07-.199.129-.296.203-.082.062-.16.116-.241.174a17.25 17.25 0 00-.479.393c-.136.128-.272.253-.4.377a2.965 2.965 0 00-.32.342 4.71 4.71 0 00-.318.362c-.113.132-.206.264-.311.408-.086.105-.152.214-.226.323a1.546 1.546 0 00-.136.23c-.28.439-.518.917-.72 1.426a9.415 9.415 0 00-.517 2.05c-.024.233-.047.466-.066.707a8.72 8.72 0 00-.016.552c0 .144 0 .28.004.42.012.14.031.28.043.42l.011.1a6.243 6.243 0 00.117.685c.027.132.062.265.09.4a11.515 11.515 0 00.37 1.085c.131.3.271.588.415.864.09.159.18.315.273.47.077.113.151.23.225.342.101.152.21.292.315.428.11.144.23.272.347.404.132.16.272.307.408.443l.07.07c.12.11.237.23.381.354.094.074.195.164.304.245.097.078.206.163.31.241.14.097.27.19.417.288.167.09.33.198.502.295a9.94 9.94 0 001.151.553c.152.062.32.12.487.175.167.062.338.112.513.163.307.081.626.163.953.23.268.054.556.093.84.124.288.039.584.066.883.081.156.012.311.012.46.02h.217c.552 0 1.058-.024 1.533-.062l.093-.008c.19-.016.366-.035.545-.062.276-.028.525-.067.77-.113.155-.024.303-.059.451-.086.23-.054.444-.105.646-.16.152-.034.3-.077.443-.124.168-.046.323-.105.483-.159l.147-.047a18.912 18.912 0 00.86-.342c.132-.054.272-.116.42-.183.117-.062.257-.128.4-.19.048-.027.11-.058.172-.082v-3.37c-.043.027-.09.058-.124.077l-.23.136c-.233.14-.455.272-.673.397-.241.128-.49.249-.727.37-.413.194-.817.357-1.198.493a12.62 12.62 0 01-2 .536c-.074.012-.144.028-.21.035-.167.024-.323.047-.478.063-.23.023-.452.035-.638.046-.133.004-.245.012-.362.012-.237 0-.482-.008-.74-.027a15.255 15.255 0 01-.89-.101 8.627 8.627 0 01-1.447-.381c-.078-.024-.144-.055-.214-.086a.828.828 0 01-.144-.054c-.074-.035-.148-.066-.23-.101a5.833 5.833 0 01-.49-.253c-.073-.047-.151-.097-.233-.14-.078-.055-.16-.105-.241-.167a4.264 4.264 0 01-.284-.202c-.093-.078-.187-.156-.272-.218l-.105-.101-.059-.05-.03-.032-.044-.039a7.603 7.603 0 01-.42-.459 5.752 5.752 0 00-.202-.252 4.621 4.621 0 01-.163-.253 2.179 2.179 0 01-.148-.237 6.315 6.315 0 01-.199-.354c-.042-.097-.089-.202-.128-.3a3.793 3.793 0 01-.187-.505c-.042-.12-.077-.253-.112-.373a7.195 7.195 0 01-.156-.945c-.016-.105-.016-.202-.023-.295-.004-.129-.004-.245-.004-.339v-.213c.004-.191.027-.436.062-.712a5.26 5.26 0 01.105-.54c.031-.129.062-.253.105-.385.043-.12.082-.237.132-.37.024-.081.059-.163.101-.245.051-.112.105-.229.164-.338.043-.093.093-.183.144-.264.109-.19.237-.381.377-.572.05-.07.105-.136.156-.206.074-.082.147-.175.225-.256.047-.04.086-.086.125-.129a7.043 7.043 0 012.026-1.403c.117-.047.23-.098.343-.14a6.12 6.12 0 01.715-.241c.117-.035.242-.063.358-.094a11.616 11.616 0 01.743-.132c.129-.015.257-.031.39-.039.244-.02.482-.035.715-.035.086 0 .16 0 .241.008.175 0 .339.008.506.012.12.015.23.015.346.027.202.023.416.047.603.078.175.027.346.054.498.081.241.055.463.105.665.164.125.027.241.062.35.097.16.05.304.093.413.128.182.066.291.101.291.101.164.059.327.128.486.187.218.093.42.179.615.268.163.078.315.156.463.218.12.062.233.124.335.175.186.097.342.183.47.253l.346.186V9.118s-.214-.081-.564-.217c-.16-.059-.346-.125-.56-.199-.116-.042-.24-.089-.373-.136-.105-.03-.21-.07-.323-.1-.128-.044-.253-.094-.385-.133-.105-.023-.199-.058-.307-.09l-.086-.027a5.276 5.276 0 01-.292-.077c-.128-.028-.253-.066-.37-.101a1.775 1.775 0 01-.24-.051c-.137-.031-.261-.062-.397-.086-.136-.027-.273-.058-.413-.077M40.54 18.031v4.849h3.146s.067-.008.16-.008a5.594 5.594 0 001.677-.272 2.63 2.63 0 001.07-.622c.116-.117.21-.234.287-.354a2.22 2.22 0 00.319-1.003c.008-.105.008-.156.008-.156v-.12a2.023 2.023 0 00-.428-1.213c-.043-.043-.086-.09-.128-.133a2.953 2.953 0 00-.284-.248 3.005 3.005 0 00-.584-.323 3.966 3.966 0 00-.953-.28 4.021 4.021 0 00-.552-.078c-.125-.02-.238-.023-.366-.03-.109-.009-.218-.009-.334-.009h-3.039zM40.54 10.654v4.595h1.758c.113-.003.23-.007.342-.019.311-.023.75-.066 1.179-.183.093-.027.179-.054.253-.085.342-.12.669-.292.93-.545.198-.198.33-.42.415-.637.11-.26.148-.51.168-.688.007-.164.007-.26.007-.26s0-.079-.003-.2a1.983 1.983 0 00-.207-.835 1.658 1.658 0 00-.326-.436 1.973 1.973 0 00-.6-.4c-.431-.19-.925-.264-1.334-.288a7.904 7.904 0 00-.486-.02H40.54z"/><path d="M30.472 4.387h26.23V29.06h-26.23V4.387zm6.878 3.456V25.62h6.694s3.268.082 5.069-1.714c1.462-1.466 1.361-3.165 1.361-3.165s.101-1.765-1.256-3.13c-1.16-1.151-2.634-1.466-2.634-1.466s.666-.303 1.183-.82c.237-.237 1.093-1.011 1.093-2.881 0-1.886-1.256-2.97-1.256-2.97s-1.377-1.63-4.482-1.63H37.35zM10.314 18.031v4.849h3.155s.058-.008.16-.008c.104-.004.26-.012.443-.023.342-.035.79-.098 1.225-.25a2.66 2.66 0 001.078-.621c.112-.117.202-.234.28-.354.245-.389.307-.782.319-1.003.015-.105.015-.156.015-.156v-.12c-.015-.094-.023-.272-.07-.47a2.037 2.037 0 00-.486-.876c-.093-.085-.183-.17-.28-.248a3.288 3.288 0 00-.587-.323 4.074 4.074 0 00-.954-.28 4.08 4.08 0 00-.556-.078c-.116-.02-.241-.023-.362-.03-.108-.009-.221-.009-.334-.009h-3.046zM10.314 10.654v4.595h1.762c.105-.003.234-.007.343-.019a6.387 6.387 0 001.182-.183c.086-.027.167-.054.257-.085.334-.12.665-.292.914-.545.202-.198.33-.42.428-.637.101-.26.144-.51.16-.688.015-.164.015-.26.015-.26v-.2c-.023-.197-.058-.524-.214-.835a1.919 1.919 0 00-.319-.436 2.13 2.13 0 00-.61-.4c-.433-.19-.919-.264-1.339-.288a7.56 7.56 0 00-.474-.02h-2.105z"/><path d="M.248 4.387h26.23V29.06H.247V4.387zm6.881 3.456V25.62h6.695s3.263.082 5.06-1.714c1.467-1.466 1.366-3.165 1.366-3.165s.1-1.765-1.257-3.13c-1.159-1.151-2.633-1.466-2.633-1.466s.669-.303 1.178-.82c.242-.237 1.097-1.011 1.097-2.881 0-1.886-1.256-2.97-1.256-2.97s-1.373-1.63-4.473-1.63H7.129zM3.176 37.686h1.89c2.836 0 3.98 1.163 4.007 3.08.027 1.707-.868 3.32-4.007 3.32h-1.89v-6.4zm-2.93-2.515v20.396h2.93v-8.853H4.4c1.505 0 2.723.483 5.423 4.67l2.691 4.183h3.497c-1.404-1.936-1.913-2.628-2.785-4.035-1.552-2.54-2.692-4.425-4.547-5.646 2.186-.875 3.411-2.636 3.411-5.004 0-3.526-2.57-5.711-6.698-5.711H.247z"/><path d="M25.6 39.543l3.295 7.383h-6.348l3.054-7.383zm1.074-4.487h-2.061l-8.768 20.51h2.987l2.58-6.004h8.674l2.723 6.004H35.8l-9.126-20.51zM41.17 37.806h4.508c5.722 0 8.324 3.468 8.324 7.566 0 2.512-1.524 7.566-8.164 7.566H41.17V37.806zm-2.933 17.76h7.955c6.737 0 10.83-4.96 10.83-10.194 0-4.813-3.323-10.202-10.858-10.202h-7.927v20.396zM60.401 35.172h2.93V55.57H60.4zM69.735 45.373c0-4.49 3.384-7.772 7.928-7.772 4.582 0 7.963 3.282 7.963 7.772 0 4.456-3.38 7.777-7.963 7.777-4.544 0-7.928-3.32-7.928-7.777m-3.022 0c0 5.533 4.224 10.463 10.892 10.463 6.912 0 11.04-4.965 11.04-10.463 0-5.68-4.245-10.466-10.982-10.466-6.613 0-10.95 4.813-10.95 10.466"/><path d="M182.772 108.43h-22.776V46.554h-9.736l13.444-24.934h19.068v86.808zM170.872.4c-35.713 0-64.665 28.954-64.665 64.674 0 35.719 28.952 64.67 64.666 64.67 35.72 0 64.67-28.951 64.67-64.67 0-35.72-28.95-64.674-64.67-64.674" fill-rule="nonzero"/></g></svg>