<svg width="695" height="448" xmlns="http://www.w3.org/2000/svg"><defs><filter x="-23.1%" y="-9.8%" width="146.2%" height="119.7%" filterUnits="objectBoundingBox" id="a"><feOffset dy="3" in="SourceAlpha" result="shadowOffsetOuter1"/><feGaussianBlur stdDeviation="1.5" in="shadowOffsetOuter1" result="shadowBlurOuter1"/><feColorMatrix values="0 0 0 0 0 0 0 0 0 0 0 0 0 0 0 0 0 0 0.274393575 0" in="shadowBlurOuter1" result="shadowMatrixOuter1"/><feMerge><feMergeNode in="shadowMatrixOuter1"/><feMergeNode in="SourceGraphic"/></feMerge></filter><filter x="-23.1%" y="-9.8%" width="146.2%" height="119.7%" filterUnits="objectBoundingBox" id="b"><feOffset dy="3" in="SourceAlpha" result="shadowOffsetOuter1"/><feGaussianBlur stdDeviation="1.5" in="shadowOffsetOuter1" result="shadowBlurOuter1"/><feColorMatrix values="0 0 0 0 0 0 0 0 0 0 0 0 0 0 0 0 0 0 0.274393575 0" in="shadowBlurOuter1" result="shadowMatrixOuter1"/><feMerge><feMergeNode in="shadowMatrixOuter1"/><feMergeNode in="SourceGraphic"/></feMerge></filter><filter x="-23.1%" y="-9.8%" width="146.2%" height="119.7%" filterUnits="objectBoundingBox" id="c"><feOffset dy="3" in="SourceAlpha" result="shadowOffsetOuter1"/><feGaussianBlur stdDeviation="1.5" in="shadowOffsetOuter1" result="shadowBlurOuter1"/><feColorMatrix values="0 0 0 0 0 0 0 0 0 0 0 0 0 0 0 0 0 0 0.274393575 0" in="shadowBlurOuter1" result="shadowMatrixOuter1"/><feMerge><feMergeNode in="shadowMatrixOuter1"/><feMergeNode in="SourceGraphic"/></feMerge></filter><filter x="-23.1%" y="-9.8%" width="146.2%" height="119.7%" filterUnits="objectBoundingBox" id="d"><feOffset dy="3" in="SourceAlpha" result="shadowOffsetOuter1"/><feGaussianBlur stdDeviation="1.5" in="shadowOffsetOuter1" result="shadowBlurOuter1"/><feColorMatrix values="0 0 0 0 0 0 0 0 0 0 0 0 0 0 0 0 0 0 0.274393575 0" in="shadowBlurOuter1" result="shadowMatrixOuter1"/><feMerge><feMergeNode in="shadowMatrixOuter1"/><feMergeNode in="SourceGraphic"/></feMerge></filter><filter x="-23.1%" y="-9.8%" width="146.2%" height="119.7%" filterUnits="objectBoundingBox" id="e"><feOffset dy="3" in="SourceAlpha" result="shadowOffsetOuter1"/><feGaussianBlur stdDeviation="1.5" in="shadowOffsetOuter1" result="shadowBlurOuter1"/><feColorMatrix values="0 0 0 0 0 0 0 0 0 0 0 0 0 0 0 0 0 0 0.274393575 0" in="shadowBlurOuter1" result="shadowMatrixOuter1"/><feMerge><feMergeNode in="shadowMatrixOuter1"/><feMergeNode in="SourceGraphic"/></feMerge></filter><filter x="-23.1%" y="-9.8%" width="146.2%" height="119.7%" filterUnits="objectBoundingBox" id="f"><feOffset dy="3" in="SourceAlpha" result="shadowOffsetOuter1"/><feGaussianBlur stdDeviation="1.5" in="shadowOffsetOuter1" result="shadowBlurOuter1"/><feColorMatrix values="0 0 0 0 0 0 0 0 0 0 0 0 0 0 0 0 0 0 0.274393575 0" in="shadowBlurOuter1" result="shadowMatrixOuter1"/><feMerge><feMergeNode in="shadowMatrixOuter1"/><feMergeNode in="SourceGraphic"/></feMerge></filter></defs><g fill="none" fill-rule="evenodd"><g><rect fill="#3D3D3D" x="28" width="15" height="448" rx="6"/><path d="M50.483 30.707h19.862m-19.862 65.89h19.862m-19.862 65.891h19.862m-19.862 65.89h19.862m-19.862 64.244h19.862m-19.862 65.89h19.862m-19.862 65.89h19.862M.828 30.707H20.69M.828 96.597H20.69M.828 162.489H20.69M.828 228.378H20.69M.828 292.622H20.69M.828 358.512H20.69M.828 424.402H20.69m29.793-360.75h19.862m-19.862 65.89h19.862m-19.862 65.891h19.862m-19.862 65.89h19.862m-19.862 64.244h19.862m-19.862 65.89h19.862M.828 63.652H20.69M.828 129.542H20.69M.828 195.434H20.69M.828 261.323H20.69M.828 325.568H20.69M.828 391.457H20.69" stroke="#525353"/><g filter="url(#a)" transform="translate(10 126)"><rect fill="#747474" width="52" height="122" rx="4"/><path fill="#9E9E9E" d="M0 59.351h52v6.595H0z"/></g></g><g transform="translate(104)"><rect fill="#3D3D3D" x="28" width="15" height="448" rx="6"/><path d="M50.483 30.707h19.862m-19.862 65.89h19.862m-19.862 65.891h19.862m-19.862 65.89h19.862m-19.862 64.244h19.862m-19.862 65.89h19.862m-19.862 65.89h19.862M.828 30.707H20.69M.828 96.597H20.69M.828 162.489H20.69M.828 228.378H20.69M.828 292.622H20.69M.828 358.512H20.69M.828 424.402H20.69m29.793-360.75h19.862m-19.862 65.89h19.862m-19.862 65.891h19.862m-19.862 65.89h19.862m-19.862 64.244h19.862m-19.862 65.89h19.862M.828 63.652H20.69M.828 129.542H20.69M.828 195.434H20.69M.828 261.323H20.69M.828 325.568H20.69M.828 391.457H20.69" stroke="#525353"/><g filter="url(#b)" transform="translate(10 162)"><rect fill="#747474" width="52" height="122" rx="4"/><path fill="#9E9E9E" d="M0 59.351h52v6.595H0z"/></g></g><g transform="translate(208)"><rect fill="#3D3D3D" x="28" width="15" height="448" rx="6"/><path d="M50.483 30.707h19.862m-19.862 65.89h19.862m-19.862 65.891h19.862m-19.862 65.89h19.862m-19.862 64.244h19.862m-19.862 65.89h19.862m-19.862 65.89h19.862M.828 30.707H20.69M.828 96.597H20.69M.828 162.489H20.69M.828 228.378H20.69M.828 292.622H20.69M.828 358.512H20.69M.828 424.402H20.69m29.793-360.75h19.862m-19.862 65.89h19.862m-19.862 65.891h19.862m-19.862 65.89h19.862m-19.862 64.244h19.862m-19.862 65.89h19.862M.828 63.652H20.69M.828 129.542H20.69M.828 195.434H20.69M.828 261.323H20.69M.828 325.568H20.69M.828 391.457H20.69" stroke="#525353"/><g filter="url(#c)" transform="translate(10 37)"><rect fill="#747474" width="52" height="122" rx="4"/><path fill="#9E9E9E" d="M0 59.351h52v6.595H0z"/></g></g><g transform="translate(416)"><rect fill="#3D3D3D" x="28" width="15" height="448" rx="6"/><path d="M50.483 30.707h19.862m-19.862 65.89h19.862m-19.862 65.891h19.862m-19.862 65.89h19.862m-19.862 64.244h19.862m-19.862 65.89h19.862m-19.862 65.89h19.862M.828 30.707H20.69M.828 96.597H20.69M.828 162.489H20.69M.828 228.378H20.69M.828 292.622H20.69M.828 358.512H20.69M.828 424.402H20.69m29.793-360.75h19.862m-19.862 65.89h19.862m-19.862 65.891h19.862m-19.862 65.89h19.862m-19.862 64.244h19.862m-19.862 65.89h19.862M.828 63.652H20.69M.828 129.542H20.69M.828 195.434H20.69M.828 261.323H20.69M.828 325.568H20.69M.828 391.457H20.69" stroke="#525353"/><g filter="url(#d)" transform="translate(10 106)"><rect fill="#747474" width="52" height="122" rx="4"/><path fill="#9E9E9E" d="M0 59.351h52v6.595H0z"/></g></g><g transform="translate(520)"><rect fill="#3D3D3D" x="28" width="15" height="448" rx="6"/><path d="M50.483 30.707h19.862m-19.862 65.89h19.862m-19.862 65.891h19.862m-19.862 65.89h19.862m-19.862 64.244h19.862m-19.862 65.89h19.862m-19.862 65.89h19.862M.828 30.707H20.69M.828 96.597H20.69M.828 162.489H20.69M.828 228.378H20.69M.828 292.622H20.69M.828 358.512H20.69M.828 424.402H20.69m29.793-360.75h19.862m-19.862 65.89h19.862m-19.862 65.891h19.862m-19.862 65.89h19.862m-19.862 64.244h19.862m-19.862 65.89h19.862M.828 63.652H20.69M.828 129.542H20.69M.828 195.434H20.69M.828 261.323H20.69M.828 325.568H20.69M.828 391.457H20.69" stroke="#525353"/><g filter="url(#e)" transform="translate(10 78)"><rect fill="#747474" width="52" height="122" rx="4"/><path fill="#9E9E9E" d="M0 59.351h52v6.595H0z"/></g></g><g transform="translate(624)"><rect fill="#3D3D3D" x="28" width="15" height="448" rx="6"/><path d="M50.483 30.707h19.862m-19.862 65.89h19.862m-19.862 65.891h19.862m-19.862 65.89h19.862m-19.862 64.244h19.862m-19.862 65.89h19.862m-19.862 65.89h19.862M.828 30.707H20.69M.828 96.597H20.69M.828 162.489H20.69M.828 228.378H20.69M.828 292.622H20.69M.828 358.512H20.69M.828 424.402H20.69m29.793-360.75h19.862m-19.862 65.89h19.862m-19.862 65.891h19.862m-19.862 65.89h19.862m-19.862 64.244h19.862m-19.862 65.89h19.862M.828 63.652H20.69M.828 129.542H20.69M.828 195.434H20.69M.828 261.323H20.69M.828 325.568H20.69M.828 391.457H20.69" stroke="#525353"/><g filter="url(#f)" transform="translate(10 148)"><rect fill="#747474" width="52" height="122" rx="4"/><path fill="#9E9E9E" d="M0 59.351h52v6.595H0z"/></g></g><path d="M346 0h3a6 6 0 016 6v436a6 6 0 01-6 6h-3a6 6 0 01-6-6V6a6 6 0 016-6z" fill="#0B9F4D"/><path d="M362.483 30.707h19.862m-19.862 65.89h19.862m-19.862 65.891h19.862m-19.862 65.89h19.862m-19.862 64.244h19.862m-19.862 65.89h19.862m-19.862 65.89h19.862M312.828 30.707h19.862m-19.862 65.89h19.862m-19.862 65.891h19.862m-19.862 65.89h19.862m-19.862 64.244h19.862m-19.862 65.89h19.862m-19.862 65.89h19.862m29.793-360.75h19.862m-19.862 65.89h19.862m-19.862 65.891h19.862m-19.862 65.89h19.862m-19.862 64.244h19.862m-19.862 65.89h19.862M312.828 63.652h19.862m-19.862 65.89h19.862m-19.862 65.891h19.862m-19.862 65.89h19.862m-19.862 64.244h19.862m-19.862 65.89h19.862" stroke="#0B9F4D"/></g></svg>