<?xml version="1.0" encoding="UTF-8"?>
<svg width="1200px" height="675px" viewBox="0 0 1200 675" version="1.1" xmlns="http://www.w3.org/2000/svg" xmlns:xlink="http://www.w3.org/1999/xlink">
    <!-- Generator: Sketch 61.2 (89653) - https://sketch.com -->
    <title>Player Copy 12</title>
    <desc>Created with Sketch.</desc>
    <g id="Player-Copy-12" stroke="none" stroke-width="1" fill="none" fill-rule="evenodd">
        <path d="M194.392,191 C196.184,185.197333 197.933333,179.48 199.64,173.848 L199.64,173.848 L233.048,173.848 C233.901333,176.664 234.776,179.501333 235.672,182.36 C236.568,185.218667 237.442667,188.098667 238.296,191 L238.296,191 L265.304,191 C259.842667,175.725333 254.210667,160.450667 248.408,145.176 C242.605333,129.901333 236.632,114.669333 230.488,99.48 L230.488,99.48 L202.968,99.48 C196.994667,113.901333 191.106667,128.749333 185.304,144.024 C179.501333,159.298667 173.784,174.957333 168.152,191 L168.152,191 L194.392,191 Z M226.904,154.392 L205.784,154.392 C207.490667,149.101333 209.24,143.832 211.032,138.584 C212.824,133.336 214.616,128.066667 216.408,122.776 C218.2,127.981333 219.970667,133.208 221.72,138.456 C223.469333,143.704 225.197333,149.016 226.904,154.392 L226.904,154.392 Z M340.568,191 L340.568,169.496 L299.864,169.496 L299.864,99.48 L274.904,99.48 L274.904,191 L340.568,191 Z M418.776,191 L418.776,171.032 L375.128,171.032 L375.128,154.392 L411.224,154.392 L411.224,134.424 L375.128,134.424 L375.128,119.448 L416.344,119.448 L416.344,99.48 L350.808,99.48 L350.808,191 L418.776,191 Z M452.184,191 C454.658667,186.050667 457.261333,181.122667 459.992,176.216 C462.722667,171.309333 465.496,166.381333 468.312,161.432 C471.213333,166.296 474.050667,171.202667 476.824,176.152 C479.597333,181.101333 482.221333,186.050667 484.696,191 L484.696,191 L514.264,191 C509.314667,182.893333 504.301333,174.872 499.224,166.936 C494.146667,159 488.92,151.064 483.544,143.128 C488.493333,135.874667 493.293333,128.621333 497.944,121.368 C502.594667,114.114667 507.224,106.818667 511.832,99.48 L511.832,99.48 L483.16,99.48 C480.941333,103.917333 478.658667,108.290667 476.312,112.6 C473.965333,116.909333 471.597333,121.154667 469.208,125.336 C466.733333,121.069333 464.344,116.781333 462.04,112.472 C459.736,108.162667 457.474667,103.832 455.256,99.48 L455.256,99.48 L425.816,99.48 C430.338667,106.818667 434.946667,114.178667 439.64,121.56 C444.333333,128.941333 449.112,136.258667 453.976,143.512 C448.6,151.448 443.394667,159.362667 438.36,167.256 C433.325333,175.149333 428.333333,183.064 423.384,191 L423.384,191 L452.184,191 Z M542.68,191 C544.472,185.197333 546.221333,179.48 547.928,173.848 L547.928,173.848 L581.336,173.848 C582.189333,176.664 583.064,179.501333 583.96,182.36 C584.856,185.218667 585.730667,188.098667 586.584,191 L586.584,191 L613.592,191 C608.130667,175.725333 602.498667,160.450667 596.696,145.176 C590.893333,129.901333 584.92,114.669333 578.776,99.48 L578.776,99.48 L551.256,99.48 C545.282667,113.901333 539.394667,128.749333 533.592,144.024 C527.789333,159.298667 522.072,174.957333 516.44,191 L516.44,191 L542.68,191 Z M575.192,154.392 L554.072,154.392 C555.778667,149.101333 557.528,143.832 559.32,138.584 C561.112,133.336 562.904,128.066667 564.696,122.776 C566.488,127.981333 568.258667,133.208 570.008,138.456 C571.757333,143.704 573.485333,149.016 575.192,154.392 L575.192,154.392 Z M194.392,321 C196.184,315.197333 197.933333,309.48 199.64,303.848 L199.64,303.848 L233.048,303.848 C233.901333,306.664 234.776,309.501333 235.672,312.36 C236.568,315.218667 237.442667,318.098667 238.296,321 L238.296,321 L265.304,321 C259.842667,305.725333 254.210667,290.450667 248.408,275.176 C242.605333,259.901333 236.632,244.669333 230.488,229.48 L230.488,229.48 L202.968,229.48 C196.994667,243.901333 191.106667,258.749333 185.304,274.024 C179.501333,289.298667 173.784,304.957333 168.152,321 L168.152,321 L194.392,321 Z M226.904,284.392 L205.784,284.392 C207.490667,279.101333 209.24,273.832 211.032,268.584 C212.824,263.336 214.616,258.066667 216.408,252.776 C218.2,257.981333 219.970667,263.208 221.72,268.456 C223.469333,273.704 225.197333,279.016 226.904,284.392 L226.904,284.392 Z M302.552,322.92 C310.914667,322.92 318.018667,321.768 323.864,319.464 C329.709333,317.16 334.189333,313.789333 337.304,309.352 C340.418667,304.914667 341.976,299.538667 341.976,293.224 C341.976,288.445333 341.208,284.456 339.672,281.256 C338.136,278.056 335.96,275.410667 333.144,273.32 C330.328,271.229333 327,269.458667 323.16,268.008 C319.32,266.557333 315.053333,265.277333 310.36,264.168 C305.837333,263.058667 302.36,261.885333 299.928,260.648 C297.496,259.410667 296.28,257.554667 296.28,255.08 C296.28,252.690667 297.453333,250.877333 299.8,249.64 C302.146667,248.402667 305.453333,247.784 309.72,247.784 C312.706667,247.784 315.8,248.061333 319,248.616 C322.2,249.170667 325.378667,249.981333 328.536,251.048 C331.693333,252.114667 334.68,253.501333 337.496,255.208 L337.496,255.208 L337.496,233.832 C333.570667,231.869333 329.176,230.333333 324.312,229.224 C319.448,228.114667 314.498667,227.56 309.464,227.56 C301.698667,227.56 294.957333,228.733333 289.24,231.08 C283.522667,233.426667 279.128,236.776 276.056,241.128 C272.984,245.48 271.448,250.728 271.448,256.872 C271.448,260.882667 272.045333,264.381333 273.24,267.368 C274.434667,270.354667 276.312,272.978667 278.872,275.24 C281.432,277.501333 284.76,279.485333 288.856,281.192 C292.952,282.898667 297.901333,284.434667 303.704,285.8 C306.349333,286.397333 308.653333,287.08 310.616,287.848 C312.578667,288.616 314.114667,289.533333 315.224,290.6 C316.333333,291.666667 316.888,293.096 316.888,294.888 C316.888,297.362667 315.650667,299.282667 313.176,300.648 C310.701333,302.013333 307.032,302.696 302.168,302.696 C297.218667,302.696 292.248,301.992 287.256,300.584 C282.264,299.176 277.378667,297.106667 272.6,294.376 L272.6,294.376 L272.6,316.008 C277.549333,318.397333 282.477333,320.146667 287.384,321.256 C292.290667,322.365333 297.346667,322.92 302.552,322.92 Z M379.992,321 L379.992,283.24 L384.472,283.24 C389.250667,289.64 393.88,295.954667 398.36,302.184 C402.84,308.413333 407.298667,314.685333 411.736,321 L411.736,321 L442.968,321 C436.653333,312.637333 430.402667,304.424 424.216,296.36 C418.029333,288.296 411.778667,280.338667 405.464,272.488 C411.352,265.32 417.112,258.152 422.744,250.984 C428.376,243.816 433.922667,236.648 439.384,229.48 L439.384,229.48 L409.944,229.48 C406.018667,235.026667 402.008,240.594667 397.912,246.184 C393.816,251.773333 389.506667,257.469333 384.984,263.272 L384.984,263.272 L379.992,263.272 L379.992,229.48 L355.032,229.48 L355.032,321 L379.992,321 Z M526.424,321 L526.424,250.984 L553.816,250.984 L553.816,229.48 L474.072,229.48 L474.072,250.984 L501.464,250.984 L501.464,321 L526.424,321 Z M589.016,321 L589.016,284.008 L621.528,284.008 L621.528,321 L646.488,321 L646.488,229.48 L621.528,229.48 L621.528,262.504 L589.016,262.504 L589.016,229.48 L564.056,229.48 L564.056,321 L589.016,321 Z M731.352,321 L731.352,301.032 L687.704,301.032 L687.704,284.392 L723.8,284.392 L723.8,264.424 L687.704,264.424 L687.704,249.448 L728.92,249.448 L728.92,229.48 L663.384,229.48 L663.384,321 L731.352,321 Z M811.608,321 C819.288,321 825.88,319.933333 831.384,317.8 C836.888,315.666667 841.112,312.594667 844.056,308.584 C847,304.573333 848.472,299.794667 848.472,294.248 C848.472,288.872 847.106667,284.285333 844.376,280.488 C841.645333,276.690667 837.72,273.853333 832.6,271.976 C839.853333,267.965333 843.48,261.864 843.48,253.672 C843.48,245.821333 840.536,239.826667 834.648,235.688 C828.76,231.549333 820.354667,229.48 809.432,229.48 L809.432,229.48 L771.928,229.48 L771.928,321 L811.608,321 Z M807,265.832 L795.736,265.832 L795.736,247.912 L807,247.912 C815.192,247.912 819.288,250.770667 819.288,256.488 C819.288,259.389333 818.242667,261.672 816.152,263.336 C814.061333,265 811.010667,265.832 807,265.832 L807,265.832 Z M809.304,302.568 L795.736,302.568 L795.736,283.496 L809.432,283.496 C819.16,283.496 824.024,286.738667 824.024,293.224 C824.024,296.210667 822.765333,298.514667 820.248,300.136 C817.730667,301.757333 814.082667,302.568 809.304,302.568 L809.304,302.568 Z M901.08,321 C908.76,321 915.352,319.933333 920.856,317.8 C926.36,315.666667 930.584,312.594667 933.528,308.584 C936.472,304.573333 937.944,299.794667 937.944,294.248 C937.944,288.872 936.578667,284.285333 933.848,280.488 C931.117333,276.690667 927.192,273.853333 922.072,271.976 C929.325333,267.965333 932.952,261.864 932.952,253.672 C932.952,245.821333 930.008,239.826667 924.12,235.688 C918.232,231.549333 909.826667,229.48 898.904,229.48 L898.904,229.48 L861.4,229.48 L861.4,321 L901.08,321 Z M896.472,265.832 L885.208,265.832 L885.208,247.912 L896.472,247.912 C904.664,247.912 908.76,250.770667 908.76,256.488 C908.76,259.389333 907.714667,261.672 905.624,263.336 C903.533333,265 900.482667,265.832 896.472,265.832 L896.472,265.832 Z M898.776,302.568 L885.208,302.568 L885.208,283.496 L898.904,283.496 C908.632,283.496 913.496,286.738667 913.496,293.224 C913.496,296.210667 912.237333,298.514667 909.72,300.136 C907.202667,301.757333 903.554667,302.568 898.776,302.568 L898.776,302.568 Z M995.544,322.92 C1001.09067,322.92 1006.27467,322.365333 1011.096,321.256 C1015.91733,320.146667 1020.248,318.610667 1024.088,316.648 L1024.088,316.648 L1024.088,294.504 C1020.07733,296.893333 1016.088,298.642667 1012.12,299.752 C1008.152,300.861333 1003.94933,301.416 999.512,301.416 C991.234667,301.416 984.813333,299.133333 980.248,294.568 C975.682667,290.002667 973.4,283.538667 973.4,275.176 C973.4,266.813333 975.768,260.370667 980.504,255.848 C985.24,251.325333 991.874667,249.064 1000.408,249.064 C1004.58933,249.064 1008.57867,249.618667 1012.376,250.728 C1016.17333,251.837333 1019.736,253.501333 1023.064,255.72 L1023.064,255.72 L1023.064,233.192 C1015.384,229.437333 1006.552,227.56 996.568,227.56 C989.144,227.56 982.424,228.690667 976.408,230.952 C970.392,233.213333 965.229333,236.434667 960.92,240.616 C956.610667,244.797333 953.304,249.810667 951,255.656 C948.696,261.501333 947.544,268.008 947.544,275.176 C947.544,282.6 948.632,289.277333 950.808,295.208 C952.984,301.138667 956.141333,306.152 960.28,310.248 C964.418667,314.344 969.453333,317.48 975.384,319.656 C981.314667,321.832 988.034667,322.92 995.544,322.92 Z M221.144,451 L221.144,380.984 L248.536,380.984 L248.536,359.48 L168.792,359.48 L168.792,380.984 L196.184,380.984 L196.184,451 L221.144,451 Z M301.912,452.92 C308.994667,452.92 315.394667,451.810667 321.112,449.592 C326.829333,447.373333 331.714667,444.173333 335.768,439.992 C339.821333,435.810667 342.936,430.776 345.112,424.888 C347.288,419 348.376,412.429333 348.376,405.176 C348.376,397.837333 347.288,391.245333 345.112,385.4 C342.936,379.554667 339.821333,374.562667 335.768,370.424 C331.714667,366.285333 326.829333,363.106667 321.112,360.888 C315.394667,358.669333 308.994667,357.56 301.912,357.56 C294.829333,357.56 288.429333,358.669333 282.712,360.888 C276.994667,363.106667 272.109333,366.285333 268.056,370.424 C264.002667,374.562667 260.888,379.554667 258.712,385.4 C256.536,391.245333 255.448,397.837333 255.448,405.176 C255.448,412.429333 256.536,419 258.712,424.888 C260.888,430.776 264.002667,435.810667 268.056,439.992 C272.109333,444.173333 276.994667,447.373333 282.712,449.592 C288.429333,451.810667 294.829333,452.92 301.912,452.92 Z M301.912,431.416 C295.256,431.416 290.157333,429.154667 286.616,424.632 C283.074667,420.109333 281.304,413.624 281.304,405.176 C281.304,396.813333 283.074667,390.370667 286.616,385.848 C290.157333,381.325333 295.256,379.064 301.912,379.064 C308.568,379.064 313.666667,381.325333 317.208,385.848 C320.749333,390.370667 322.52,396.813333 322.52,405.176 C322.52,413.624 320.749333,420.109333 317.208,424.632 C313.666667,429.154667 308.568,431.416 301.912,431.416 Z M414.68,451 L414.68,421.944 L424.92,421.944 C433.197333,421.944 440.194667,420.728 445.912,418.296 C451.629333,415.864 455.981333,412.322667 458.968,407.672 C461.954667,403.021333 463.448,397.368 463.448,390.712 C463.448,380.642667 460.141333,372.92 453.528,367.544 C446.914667,362.168 437.378667,359.48 424.92,359.48 L424.92,359.48 L390.488,359.48 L390.488,451 L414.68,451 Z M423.768,402.744 L414.68,402.744 L414.68,378.68 L423.768,378.68 C433.410667,378.68 438.232,382.690667 438.232,390.712 C438.232,398.733333 433.410667,402.744 423.768,402.744 L423.768,402.744 Z M541.784,451 L541.784,429.496 L501.08,429.496 L501.08,359.48 L476.12,359.48 L476.12,451 L541.784,451 Z M570.968,451 C572.76,445.197333 574.509333,439.48 576.216,433.848 L576.216,433.848 L609.624,433.848 C610.477333,436.664 611.352,439.501333 612.248,442.36 C613.144,445.218667 614.018667,448.098667 614.872,451 L614.872,451 L641.88,451 C636.418667,435.725333 630.786667,420.450667 624.984,405.176 C619.181333,389.901333 613.208,374.669333 607.064,359.48 L607.064,359.48 L579.544,359.48 C573.570667,373.901333 567.682667,388.749333 561.88,404.024 C556.077333,419.298667 550.36,434.957333 544.728,451 L544.728,451 L570.968,451 Z M603.48,414.392 L582.36,414.392 C584.066667,409.101333 585.816,403.832 587.608,398.584 C589.4,393.336 591.192,388.066667 592.984,382.776 C594.776,387.981333 596.546667,393.208 598.296,398.456 C600.045333,403.704 601.773333,409.016 603.48,414.392 L603.48,414.392 Z M703.576,451 L703.576,417.08 C709.464,407.522667 715.266667,397.944 720.984,388.344 C726.701333,378.744 732.290667,369.122667 737.752,359.48 L737.752,359.48 L710.36,359.48 C707.373333,365.538667 704.301333,371.618667 701.144,377.72 C697.986667,383.821333 694.829333,389.901333 691.672,395.96 C688.429333,389.901333 685.250667,383.842667 682.136,377.784 C679.021333,371.725333 675.928,365.624 672.856,359.48 L672.856,359.48 L644.568,359.48 C649.944,369.122667 655.490667,378.744 661.208,388.344 C666.925333,397.944 672.728,407.522667 678.616,417.08 L678.616,417.08 L678.616,451 L703.576,451 Z M217.688,581 C220.162667,571.613333 222.552,562.205333 224.856,552.776 C227.16,543.346667 229.464,533.896 231.768,524.424 C233.986667,533.896 236.290667,543.346667 238.68,552.776 C241.069333,562.205333 243.501333,571.613333 245.976,581 L245.976,581 L271.832,581 C276.098667,566.066667 280.173333,550.962667 284.056,535.688 C287.938667,520.413333 291.586667,505.010667 295,489.48 L295,489.48 L268.76,489.48 C267.138667,500.146667 265.410667,510.813333 263.576,521.48 C261.741333,532.146667 259.8,542.685333 257.752,553.096 C255.448,543.197333 253.165333,533.277333 250.904,523.336 C248.642667,513.394667 246.445333,503.389333 244.312,493.32 L244.312,493.32 L220.376,493.32 C218.242667,503.56 216.024,513.821333 213.72,524.104 C211.416,534.386667 209.026667,544.690667 206.552,555.016 C204.504,544.349333 202.541333,533.512 200.664,522.504 C198.786667,511.496 197.037333,500.488 195.416,489.48 L195.416,489.48 L168.664,489.48 C172.162667,505.010667 175.853333,520.413333 179.736,535.688 C183.618667,550.962667 187.650667,566.066667 191.832,581 L191.832,581 L217.688,581 Z M330.072,581 L330.072,489.48 L305.112,489.48 L305.112,581 L330.072,581 Z M392.664,581 L392.664,510.984 L420.056,510.984 L420.056,489.48 L340.312,489.48 L340.312,510.984 L367.704,510.984 L367.704,581 L392.664,581 Z M455.256,581 L455.256,544.008 L487.768,544.008 L487.768,581 L512.728,581 L512.728,489.48 L487.768,489.48 L487.768,522.504 L455.256,522.504 L455.256,489.48 L430.296,489.48 L430.296,581 L455.256,581 Z M603.224,582.92 C607.32,582.92 611.437333,582.664 615.576,582.152 C619.714667,581.64 623.704,580.850667 627.544,579.784 C631.384,578.717333 634.797333,577.458667 637.784,576.008 L637.784,576.008 L637.784,528.264 L602.072,528.264 L602.072,546.696 L615.384,546.696 L615.384,560.392 C613.762667,560.818667 612.077333,561.138667 610.328,561.352 C608.578667,561.565333 606.850667,561.672 605.144,561.672 C597.122667,561.672 591.042667,559.432 586.904,554.952 C582.765333,550.472 580.696,543.88 580.696,535.176 C580.696,526.813333 583.064,520.370667 587.8,515.848 C592.536,511.325333 599.298667,509.064 608.088,509.064 C613.464,509.064 618.392,509.64 622.872,510.792 C627.352,511.944 631.512,513.586667 635.352,515.72 L635.352,515.72 L635.352,493.192 C626.392,489.437333 616.237333,487.56 604.888,487.56 C597.378667,487.56 590.552,488.690667 584.408,490.952 C578.264,493.213333 572.973333,496.434667 568.536,500.616 C564.098667,504.797333 560.706667,509.810667 558.36,515.656 C556.013333,521.501333 554.84,528.008 554.84,535.176 C554.84,542.6 555.949333,549.256 558.168,555.144 C560.386667,561.032 563.586667,566.045333 567.768,570.184 C571.949333,574.322667 577.026667,577.48 583,579.656 C588.973333,581.832 595.714667,582.92 603.224,582.92 Z M677.08,581 L677.08,550.152 L689.624,550.152 C692.610667,555.186667 695.490667,560.285333 698.264,565.448 C701.037333,570.610667 703.789333,575.794667 706.52,581 L706.52,581 L734.04,581 C730.541333,574.770667 726.978667,568.669333 723.352,562.696 C719.725333,556.722667 716.034667,550.792 712.28,544.904 C717.058667,542.344 720.749333,538.930667 723.352,534.664 C725.954667,530.397333 727.256,525.448 727.256,519.816 C727.256,510.002667 723.885333,502.493333 717.144,497.288 C710.402667,492.082667 700.674667,489.48 687.96,489.48 L687.96,489.48 L652.888,489.48 L652.888,581 L677.08,581 Z M686.808,530.952 L677.08,530.952 L677.08,508.68 L686.808,508.68 C692.013333,508.68 695.853333,509.597333 698.328,511.432 C700.802667,513.266667 702.04,516.061333 702.04,519.816 C702.04,523.485333 700.802667,526.258667 698.328,528.136 C695.853333,530.013333 692.013333,530.952 686.808,530.952 L686.808,530.952 Z M811.864,581 L811.864,561.032 L768.216,561.032 L768.216,544.392 L804.312,544.392 L804.312,524.424 L768.216,524.424 L768.216,509.448 L809.432,509.448 L809.432,489.48 L743.896,489.48 L743.896,581 L811.864,581 Z M868.952,582.92 C873.048,582.92 877.165333,582.664 881.304,582.152 C885.442667,581.64 889.432,580.850667 893.272,579.784 C897.112,578.717333 900.525333,577.458667 903.512,576.008 L903.512,576.008 L903.512,528.264 L867.8,528.264 L867.8,546.696 L881.112,546.696 L881.112,560.392 C879.490667,560.818667 877.805333,561.138667 876.056,561.352 C874.306667,561.565333 872.578667,561.672 870.872,561.672 C862.850667,561.672 856.770667,559.432 852.632,554.952 C848.493333,550.472 846.424,543.88 846.424,535.176 C846.424,526.813333 848.792,520.370667 853.528,515.848 C858.264,511.325333 865.026667,509.064 873.816,509.064 C879.192,509.064 884.12,509.64 888.6,510.792 C893.08,511.944 897.24,513.586667 901.08,515.72 L901.08,515.72 L901.08,493.192 C892.12,489.437333 881.965333,487.56 870.616,487.56 C863.106667,487.56 856.28,488.690667 850.136,490.952 C843.992,493.213333 838.701333,496.434667 834.264,500.616 C829.826667,504.797333 826.434667,509.810667 824.088,515.656 C821.741333,521.501333 820.568,528.008 820.568,535.176 C820.568,542.6 821.677333,549.256 823.896,555.144 C826.114667,561.032 829.314667,566.045333 833.496,570.184 C837.677333,574.322667 842.754667,577.48 848.728,579.656 C854.701333,581.832 861.442667,582.92 868.952,582.92 Z" id="ALEXAASKTHEBBCTOPLAYWITHGREG" fill="#FFFFFF" fill-rule="nonzero"></path>
    </g>
</svg>