<?xml version="1.0" encoding="UTF-8"?>
<svg width="1200px" height="675px" viewBox="0 0 1200 675" version="1.1" xmlns="http://www.w3.org/2000/svg" xmlns:xlink="http://www.w3.org/1999/xlink">
    <!-- Generator: Sketch 61.2 (89653) - https://sketch.com -->
    <title>Player Copy 12</title>
    <desc>Created with Sketch.</desc>
    <g id="Player-Copy-12" stroke="none" stroke-width="1" fill="none" fill-rule="evenodd">
        <path d="M164.744,253 L164.744,197.448 C167.56,203.933333 170.44,210.418667 173.384,216.904 C176.328,223.389333 179.293333,229.874667 182.28,236.36 L182.28,236.36 L201.48,236.36 C204.381333,229.874667 207.261333,223.368 210.12,216.84 C212.978667,210.312 215.816,203.72 218.632,197.064 L218.632,197.064 L218.632,253 L241.928,253 L241.928,161.48 L212.232,161.48 C208.989333,170.098667 205.704,178.610667 202.376,187.016 C199.048,195.421333 195.677333,203.72 192.264,211.912 C188.68,203.634667 185.16,195.272 181.704,186.824 C178.248,178.376 174.856,169.928 171.528,161.48 L171.528,161.48 L141.448,161.48 L141.448,253 L164.744,253 Z M326.792,253 L326.792,233.032 L283.144,233.032 L283.144,216.392 L319.24,216.392 L319.24,196.424 L283.144,196.424 L283.144,181.448 L324.36,181.448 L324.36,161.48 L258.824,161.48 L258.824,253 L326.792,253 Z M404.488,253 L404.488,231.496 L363.784,231.496 L363.784,161.48 L338.824,161.48 L338.824,253 L404.488,253 Z M425.992,272.2 C428.466667,269.64 430.621333,266.802667 432.456,263.688 C434.290667,260.573333 435.698667,257.373333 436.68,254.088 C437.661333,250.802667 438.152,247.666667 438.152,244.68 C438.152,239.56 437.042667,235.656 434.824,232.968 C432.605333,230.28 429.234667,228.936 424.712,228.936 C420.701333,228.936 417.501333,230.088 415.112,232.392 C412.722667,234.696 411.528,237.725333 411.528,241.48 C411.528,244.381333 412.274667,246.834667 413.768,248.84 C415.261333,250.845333 417.288,252.232 419.848,253 C418.141333,259.4 414.301333,265.8 408.328,272.2 L408.328,272.2 L425.992,272.2 Z M522.632,253 C525.106667,243.613333 527.496,234.205333 529.8,224.776 C532.104,215.346667 534.408,205.896 536.712,196.424 C538.930667,205.896 541.234667,215.346667 543.624,224.776 C546.013333,234.205333 548.445333,243.613333 550.92,253 L550.92,253 L576.776,253 C581.042667,238.066667 585.117333,222.962667 589,207.688 C592.882667,192.413333 596.530667,177.010667 599.944,161.48 L599.944,161.48 L573.704,161.48 C572.082667,172.146667 570.354667,182.813333 568.52,193.48 C566.685333,204.146667 564.744,214.685333 562.696,225.096 C560.392,215.197333 558.109333,205.277333 555.848,195.336 C553.586667,185.394667 551.389333,175.389333 549.256,165.32 L549.256,165.32 L525.32,165.32 C523.186667,175.56 520.968,185.821333 518.664,196.104 C516.36,206.386667 513.970667,216.690667 511.496,227.016 C509.448,216.349333 507.485333,205.512 505.608,194.504 C503.730667,183.496 501.981333,172.488 500.36,161.48 L500.36,161.48 L473.608,161.48 C477.106667,177.010667 480.797333,192.413333 484.68,207.688 C488.562667,222.962667 492.594667,238.066667 496.776,253 L496.776,253 L522.632,253 Z M635.016,253 L635.016,216.008 L667.528,216.008 L667.528,253 L692.488,253 L692.488,161.48 L667.528,161.48 L667.528,194.504 L635.016,194.504 L635.016,161.48 L610.056,161.48 L610.056,253 L635.016,253 Z M728.328,253 C730.12,247.197333 731.869333,241.48 733.576,235.848 L733.576,235.848 L766.984,235.848 C767.837333,238.664 768.712,241.501333 769.608,244.36 C770.504,247.218667 771.378667,250.098667 772.232,253 L772.232,253 L799.24,253 C793.778667,237.725333 788.146667,222.450667 782.344,207.176 C776.541333,191.901333 770.568,176.669333 764.424,161.48 L764.424,161.48 L736.904,161.48 C730.930667,175.901333 725.042667,190.749333 719.24,206.024 C713.437333,221.298667 707.72,236.957333 702.088,253 L702.088,253 L728.328,253 Z M760.84,216.392 L739.72,216.392 C741.426667,211.101333 743.176,205.832 744.968,200.584 C746.76,195.336 748.552,190.066667 750.344,184.776 C752.136,189.981333 753.906667,195.208 755.656,200.456 C757.405333,205.704 759.133333,211.016 760.84,216.392 L760.84,216.392 Z M854.536,253 L854.536,182.984 L881.928,182.984 L881.928,161.48 L802.184,161.48 L802.184,182.984 L829.576,182.984 L829.576,253 L854.536,253 Z M945.672,253 L945.672,161.48 L920.712,161.48 L920.712,253 L945.672,253 Z M990.216,254.92 C998.578667,254.92 1005.68267,253.768 1011.528,251.464 C1017.37333,249.16 1021.85333,245.789333 1024.968,241.352 C1028.08267,236.914667 1029.64,231.538667 1029.64,225.224 C1029.64,220.445333 1028.872,216.456 1027.336,213.256 C1025.8,210.056 1023.624,207.410667 1020.808,205.32 C1017.992,203.229333 1014.664,201.458667 1010.824,200.008 C1006.984,198.557333 1002.71733,197.277333 998.024,196.168 C993.501333,195.058667 990.024,193.885333 987.592,192.648 C985.16,191.410667 983.944,189.554667 983.944,187.08 C983.944,184.690667 985.117333,182.877333 987.464,181.64 C989.810667,180.402667 993.117333,179.784 997.384,179.784 C1000.37067,179.784 1003.464,180.061333 1006.664,180.616 C1009.864,181.170667 1013.04267,181.981333 1016.2,183.048 C1019.35733,184.114667 1022.344,185.501333 1025.16,187.208 L1025.16,187.208 L1025.16,165.832 C1021.23467,163.869333 1016.84,162.333333 1011.976,161.224 C1007.112,160.114667 1002.16267,159.56 997.128,159.56 C989.362667,159.56 982.621333,160.733333 976.904,163.08 C971.186667,165.426667 966.792,168.776 963.72,173.128 C960.648,177.48 959.112,182.728 959.112,188.872 C959.112,192.882667 959.709333,196.381333 960.904,199.368 C962.098667,202.354667 963.976,204.978667 966.536,207.24 C969.096,209.501333 972.424,211.485333 976.52,213.192 C980.616,214.898667 985.565333,216.434667 991.368,217.8 C994.013333,218.397333 996.317333,219.08 998.28,219.848 C1000.24267,220.616 1001.77867,221.533333 1002.888,222.6 C1003.99733,223.666667 1004.552,225.096 1004.552,226.888 C1004.552,229.362667 1003.31467,231.282667 1000.84,232.648 C998.365333,234.013333 994.696,234.696 989.832,234.696 C984.882667,234.696 979.912,233.992 974.92,232.584 C969.928,231.176 965.042667,229.106667 960.264,226.376 L960.264,226.376 L960.264,248.008 C965.213333,250.397333 970.141333,252.146667 975.048,253.256 C979.954667,254.365333 985.010667,254.92 990.216,254.92 Z M193.544,383 L193.544,349.08 C199.432,339.522667 205.234667,329.944 210.952,320.344 C216.669333,310.744 222.258667,301.122667 227.72,291.48 L227.72,291.48 L200.328,291.48 C197.341333,297.538667 194.269333,303.618667 191.112,309.72 C187.954667,315.821333 184.797333,321.901333 181.64,327.96 C178.397333,321.901333 175.218667,315.842667 172.104,309.784 C168.989333,303.725333 165.896,297.624 162.824,291.48 L162.824,291.48 L134.536,291.48 C139.912,301.122667 145.458667,310.744 151.176,320.344 C156.893333,329.944 162.696,339.522667 168.584,349.08 L168.584,349.08 L168.584,383 L193.544,383 Z M280.84,384.92 C287.922667,384.92 294.322667,383.810667 300.04,381.592 C305.757333,379.373333 310.642667,376.173333 314.696,371.992 C318.749333,367.810667 321.864,362.776 324.04,356.888 C326.216,351 327.304,344.429333 327.304,337.176 C327.304,329.837333 326.216,323.245333 324.04,317.4 C321.864,311.554667 318.749333,306.562667 314.696,302.424 C310.642667,298.285333 305.757333,295.106667 300.04,292.888 C294.322667,290.669333 287.922667,289.56 280.84,289.56 C273.757333,289.56 267.357333,290.669333 261.64,292.888 C255.922667,295.106667 251.037333,298.285333 246.984,302.424 C242.930667,306.562667 239.816,311.554667 237.64,317.4 C235.464,323.245333 234.376,329.837333 234.376,337.176 C234.376,344.429333 235.464,351 237.64,356.888 C239.816,362.776 242.930667,367.810667 246.984,371.992 C251.037333,376.173333 255.922667,379.373333 261.64,381.592 C267.357333,383.810667 273.757333,384.92 280.84,384.92 Z M280.84,363.416 C274.184,363.416 269.085333,361.154667 265.544,356.632 C262.002667,352.109333 260.232,345.624 260.232,337.176 C260.232,328.813333 262.002667,322.370667 265.544,317.848 C269.085333,313.325333 274.184,311.064 280.84,311.064 C287.496,311.064 292.594667,313.325333 296.136,317.848 C299.677333,322.370667 301.448,328.813333 301.448,337.176 C301.448,345.624 299.677333,352.109333 296.136,356.632 C292.594667,361.154667 287.496,363.416 280.84,363.416 Z M381.192,384.92 C389.64,384.92 396.872,383.298667 402.888,380.056 C408.904,376.813333 413.512,372.141333 416.712,366.04 C419.912,359.938667 421.512,352.664 421.512,344.216 L421.512,344.216 L421.512,291.48 L396.936,291.48 L396.936,347.032 C396.936,352.237333 395.570667,356.269333 392.84,359.128 C390.109333,361.986667 386.226667,363.416 381.192,363.416 C376.242667,363.416 372.381333,361.986667 369.608,359.128 C366.834667,356.269333 365.448,352.237333 365.448,347.032 L365.448,347.032 L365.448,291.48 L340.488,291.48 L340.488,344.216 C340.488,352.664 342.109333,359.938667 345.352,366.04 C348.594667,372.141333 353.266667,376.813333 359.368,380.056 C365.469333,383.298667 372.744,384.92 381.192,384.92 Z M462.216,383 L462.216,352.152 L474.76,352.152 C477.746667,357.186667 480.626667,362.285333 483.4,367.448 C486.173333,372.610667 488.925333,377.794667 491.656,383 L491.656,383 L519.176,383 C515.677333,376.770667 512.114667,370.669333 508.488,364.696 C504.861333,358.722667 501.170667,352.792 497.416,346.904 C502.194667,344.344 505.885333,340.930667 508.488,336.664 C511.090667,332.397333 512.392,327.448 512.392,321.816 C512.392,312.002667 509.021333,304.493333 502.28,299.288 C495.538667,294.082667 485.810667,291.48 473.096,291.48 L473.096,291.48 L438.024,291.48 L438.024,383 L462.216,383 Z M471.944,332.952 L462.216,332.952 L462.216,310.68 L471.944,310.68 C477.149333,310.68 480.989333,311.597333 483.464,313.432 C485.938667,315.266667 487.176,318.061333 487.176,321.816 C487.176,325.485333 485.938667,328.258667 483.464,330.136 C480.989333,332.013333 477.149333,332.952 471.944,332.952 L471.944,332.952 Z M576.52,383 C578.312,377.197333 580.061333,371.48 581.768,365.848 L581.768,365.848 L615.176,365.848 C616.029333,368.664 616.904,371.501333 617.8,374.36 C618.696,377.218667 619.570667,380.098667 620.424,383 L620.424,383 L647.432,383 C641.970667,367.725333 636.338667,352.450667 630.536,337.176 C624.733333,321.901333 618.76,306.669333 612.616,291.48 L612.616,291.48 L585.096,291.48 C579.122667,305.901333 573.234667,320.749333 567.432,336.024 C561.629333,351.298667 555.912,366.957333 550.28,383 L550.28,383 L576.52,383 Z M609.032,346.392 L587.912,346.392 C589.618667,341.101333 591.368,335.832 593.16,330.584 C594.952,325.336 596.744,320.066667 598.536,314.776 C600.328,319.981333 602.098667,325.208 603.848,330.456 C605.597333,335.704 607.325333,341.016 609.032,346.392 L609.032,346.392 Z M702.088,384.92 C706.184,384.92 710.301333,384.664 714.44,384.152 C718.578667,383.64 722.568,382.850667 726.408,381.784 C730.248,380.717333 733.661333,379.458667 736.648,378.008 L736.648,378.008 L736.648,330.264 L700.936,330.264 L700.936,348.696 L714.248,348.696 L714.248,362.392 C712.626667,362.818667 710.941333,363.138667 709.192,363.352 C707.442667,363.565333 705.714667,363.672 704.008,363.672 C695.986667,363.672 689.906667,361.432 685.768,356.952 C681.629333,352.472 679.56,345.88 679.56,337.176 C679.56,328.813333 681.928,322.370667 686.664,317.848 C691.4,313.325333 698.162667,311.064 706.952,311.064 C712.328,311.064 717.256,311.64 721.736,312.792 C726.216,313.944 730.376,315.586667 734.216,317.72 L734.216,317.72 L734.216,295.192 C725.256,291.437333 715.101333,289.56 703.752,289.56 C696.242667,289.56 689.416,290.690667 683.272,292.952 C677.128,295.213333 671.837333,298.434667 667.4,302.616 C662.962667,306.797333 659.570667,311.810667 657.224,317.656 C654.877333,323.501333 653.704,330.008 653.704,337.176 C653.704,344.6 654.813333,351.256 657.032,357.144 C659.250667,363.032 662.450667,368.045333 666.632,372.184 C670.813333,376.322667 675.890667,379.48 681.864,381.656 C687.837333,383.832 694.578667,384.92 702.088,384.92 Z M819.72,383 L819.72,363.032 L776.072,363.032 L776.072,346.392 L812.168,346.392 L812.168,326.424 L776.072,326.424 L776.072,311.448 L817.288,311.448 L817.288,291.48 L751.752,291.48 L751.752,383 L819.72,383 Z M160.392,513 C162.184,507.197333 163.933333,501.48 165.64,495.848 L165.64,495.848 L199.048,495.848 C199.901333,498.664 200.776,501.501333 201.672,504.36 C202.568,507.218667 203.442667,510.098667 204.296,513 L204.296,513 L231.304,513 C225.842667,497.725333 220.210667,482.450667 214.408,467.176 C208.605333,451.901333 202.632,436.669333 196.488,421.48 L196.488,421.48 L168.968,421.48 C162.994667,435.901333 157.106667,450.749333 151.304,466.024 C145.501333,481.298667 139.784,496.957333 134.152,513 L134.152,513 L160.392,513 Z M192.904,476.392 L171.784,476.392 C173.490667,471.101333 175.24,465.832 177.032,460.584 C178.824,455.336 180.616,450.066667 182.408,444.776 C184.2,449.981333 185.970667,455.208 187.72,460.456 C189.469333,465.704 191.197333,471.016 192.904,476.392 L192.904,476.392 Z M285.96,514.92 C290.056,514.92 294.173333,514.664 298.312,514.152 C302.450667,513.64 306.44,512.850667 310.28,511.784 C314.12,510.717333 317.533333,509.458667 320.52,508.008 L320.52,508.008 L320.52,460.264 L284.808,460.264 L284.808,478.696 L298.12,478.696 L298.12,492.392 C296.498667,492.818667 294.813333,493.138667 293.064,493.352 C291.314667,493.565333 289.586667,493.672 287.88,493.672 C279.858667,493.672 273.778667,491.432 269.64,486.952 C265.501333,482.472 263.432,475.88 263.432,467.176 C263.432,458.813333 265.8,452.370667 270.536,447.848 C275.272,443.325333 282.034667,441.064 290.824,441.064 C296.2,441.064 301.128,441.64 305.608,442.792 C310.088,443.944 314.248,445.586667 318.088,447.72 L318.088,447.72 L318.088,425.192 C309.128,421.437333 298.973333,419.56 287.624,419.56 C280.114667,419.56 273.288,420.690667 267.144,422.952 C261,425.213333 255.709333,428.434667 251.272,432.616 C246.834667,436.797333 243.442667,441.810667 241.096,447.656 C238.749333,453.501333 237.576,460.008 237.576,467.176 C237.576,474.6 238.685333,481.256 240.904,487.144 C243.122667,493.032 246.322667,498.045333 250.504,502.184 C254.685333,506.322667 259.762667,509.48 265.736,511.656 C271.709333,513.832 278.450667,514.92 285.96,514.92 Z M354.568,513 C356.36,507.197333 358.109333,501.48 359.816,495.848 L359.816,495.848 L393.224,495.848 C394.077333,498.664 394.952,501.501333 395.848,504.36 C396.744,507.218667 397.618667,510.098667 398.472,513 L398.472,513 L425.48,513 C420.018667,497.725333 414.386667,482.450667 408.584,467.176 C402.781333,451.901333 396.808,436.669333 390.664,421.48 L390.664,421.48 L363.144,421.48 C357.170667,435.901333 351.282667,450.749333 345.48,466.024 C339.677333,481.298667 333.96,496.957333 328.328,513 L328.328,513 L354.568,513 Z M387.08,476.392 L365.96,476.392 C367.666667,471.101333 369.416,465.832 371.208,460.584 C373,455.336 374.792,450.066667 376.584,444.776 C378.376,449.981333 380.146667,455.208 381.896,460.456 C383.645333,465.704 385.373333,471.016 387.08,476.392 L387.08,476.392 Z M460.04,513 L460.04,421.48 L435.08,421.48 L435.08,513 L460.04,513 Z M500.744,513 L500.744,457.448 C506.290667,466.322667 511.944,475.474667 517.704,484.904 C523.464,494.333333 529.074667,503.698667 534.536,513 L534.536,513 L559.624,513 L559.624,421.48 L535.816,421.48 L535.816,476.008 C530.269333,466.706667 524.68,457.490667 519.048,448.36 C513.416,439.229333 507.741333,430.269333 502.024,421.48 L502.024,421.48 L476.936,421.48 L476.936,513 L500.744,513 Z M605.832,482.024 L605.832,480.488 C605.832,479.208 606.109333,478.013333 606.664,476.904 C607.218667,475.794667 608.178667,474.642667 609.544,473.448 C610.909333,472.253333 612.701333,470.888 614.92,469.352 C619.954667,465.853333 623.602667,462.205333 625.864,458.408 C628.125333,454.610667 629.256,450.152 629.256,445.032 C629.256,439.741333 627.954667,435.197333 625.352,431.4 C622.749333,427.602667 619.058667,424.68 614.28,422.632 C609.501333,420.584 603.741333,419.56 597,419.56 C592.562667,419.56 588.253333,420.008 584.072,420.904 C579.890667,421.8 575.922667,423.144 572.168,424.936 L572.168,424.936 L572.168,444.264 C575.581333,442.301333 578.909333,440.872 582.152,439.976 C585.394667,439.08 588.808,438.632 592.392,438.632 C596.402667,438.632 599.496,439.421333 601.672,441 C603.848,442.578667 604.936,444.776 604.936,447.592 C604.936,449.213333 604.68,450.685333 604.168,452.008 C603.656,453.330667 602.717333,454.674667 601.352,456.04 C599.986667,457.405333 598.024,459.069333 595.464,461.032 C592.136,463.506667 589.746667,466.237333 588.296,469.224 C586.845333,472.210667 586.12,475.965333 586.12,480.488 L586.12,480.488 L586.12,482.024 L605.832,482.024 Z M595.976,514.152 C598.706667,514.152 601.053333,513.576 603.016,512.424 C604.978667,511.272 606.493333,509.736 607.56,507.816 C608.626667,505.896 609.16,503.784 609.16,501.48 C609.16,499.176 608.626667,497.064 607.56,495.144 C606.493333,493.224 604.978667,491.709333 603.016,490.6 C601.053333,489.490667 598.706667,488.936 595.976,488.936 C593.245333,488.936 590.898667,489.490667 588.936,490.6 C586.973333,491.709333 585.458667,493.224 584.392,495.144 C583.325333,497.064 582.792,499.176 582.792,501.48 C582.792,503.784 583.325333,505.896 584.392,507.816 C585.458667,509.736 586.973333,511.272 588.936,512.424 C590.898667,513.576 593.245333,514.152 595.976,514.152 Z" id="MEL,WHATISYOURAGEAGAIN?" fill="#FFFFFF" fill-rule="nonzero"></path>
    </g>
</svg>