<?xml version="1.0" encoding="UTF-8"?>
<svg width="1200px" height="675px" viewBox="0 0 1200 675" version="1.1" xmlns="http://www.w3.org/2000/svg" xmlns:xlink="http://www.w3.org/1999/xlink">
    <!-- Generator: Sketch 61.2 (89653) - https://sketch.com -->
    <title>Player Copy 12</title>
    <desc>Created with Sketch.</desc>
    <g id="Player-Copy-12" stroke="none" stroke-width="1" fill="none" fill-rule="evenodd">
        <path d="M105.728,386 L105.728,294.48 L80.768,294.48 L80.768,386 L105.728,386 Z M146.432,386 L146.432,330.448 C151.978667,339.322667 157.632,348.474667 163.392,357.904 C169.152,367.333333 174.762667,376.698667 180.224,386 L180.224,386 L205.312,386 L205.312,294.48 L181.504,294.48 L181.504,349.008 C175.957333,339.706667 170.368,330.490667 164.736,321.36 C159.104,312.229333 153.429333,303.269333 147.712,294.48 L147.712,294.48 L122.624,294.48 L122.624,386 L146.432,386 Z M267.904,386 L267.904,315.984 L295.296,315.984 L295.296,294.48 L215.552,294.48 L215.552,315.984 L242.944,315.984 L242.944,386 L267.904,386 Z M373.504,386 L373.504,366.032 L329.856,366.032 L329.856,349.392 L365.952,349.392 L365.952,329.424 L329.856,329.424 L329.856,314.448 L371.072,314.448 L371.072,294.48 L305.536,294.48 L305.536,386 L373.504,386 Z M409.728,386 L409.728,355.152 L422.272,355.152 C425.258667,360.186667 428.138667,365.285333 430.912,370.448 C433.685333,375.610667 436.437333,380.794667 439.168,386 L439.168,386 L466.688,386 C463.189333,379.770667 459.626667,373.669333 456,367.696 C452.373333,361.722667 448.682667,355.792 444.928,349.904 C449.706667,347.344 453.397333,343.930667 456,339.664 C458.602667,335.397333 459.904,330.448 459.904,324.816 C459.904,315.002667 456.533333,307.493333 449.792,302.288 C443.050667,297.082667 433.322667,294.48 420.608,294.48 L420.608,294.48 L385.536,294.48 L385.536,386 L409.728,386 Z M419.456,335.952 L409.728,335.952 L409.728,313.68 L419.456,313.68 C424.661333,313.68 428.501333,314.597333 430.976,316.432 C433.450667,318.266667 434.688,321.061333 434.688,324.816 C434.688,328.485333 433.450667,331.258667 430.976,333.136 C428.501333,335.013333 424.661333,335.952 419.456,335.952 L419.456,335.952 Z M495.488,386 C497.28,380.197333 499.029333,374.48 500.736,368.848 L500.736,368.848 L534.144,368.848 C534.997333,371.664 535.872,374.501333 536.768,377.36 C537.664,380.218667 538.538667,383.098667 539.392,386 L539.392,386 L566.4,386 C560.938667,370.725333 555.306667,355.450667 549.504,340.176 C543.701333,324.901333 537.728,309.669333 531.584,294.48 L531.584,294.48 L504.064,294.48 C498.090667,308.901333 492.202667,323.749333 486.4,339.024 C480.597333,354.298667 474.88,369.957333 469.248,386 L469.248,386 L495.488,386 Z M528,349.392 L506.88,349.392 C508.586667,344.101333 510.336,338.832 512.128,333.584 C513.92,328.336 515.712,323.066667 517.504,317.776 C519.296,322.981333 521.066667,328.208 522.816,333.456 C524.565333,338.704 526.293333,344.016 528,349.392 L528,349.392 Z M620.672,387.92 C626.218667,387.92 631.402667,387.365333 636.224,386.256 C641.045333,385.146667 645.376,383.610667 649.216,381.648 L649.216,381.648 L649.216,359.504 C645.205333,361.893333 641.216,363.642667 637.248,364.752 C633.28,365.861333 629.077333,366.416 624.64,366.416 C616.362667,366.416 609.941333,364.133333 605.376,359.568 C600.810667,355.002667 598.528,348.538667 598.528,340.176 C598.528,331.813333 600.896,325.370667 605.632,320.848 C610.368,316.325333 617.002667,314.064 625.536,314.064 C629.717333,314.064 633.706667,314.618667 637.504,315.728 C641.301333,316.837333 644.864,318.501333 648.192,320.72 L648.192,320.72 L648.192,298.192 C640.512,294.437333 631.68,292.56 621.696,292.56 C614.272,292.56 607.552,293.690667 601.536,295.952 C595.52,298.213333 590.357333,301.434667 586.048,305.616 C581.738667,309.797333 578.432,314.810667 576.128,320.656 C573.824,326.501333 572.672,333.008 572.672,340.176 C572.672,347.6 573.76,354.277333 575.936,360.208 C578.112,366.138667 581.269333,371.152 585.408,375.248 C589.546667,379.344 594.581333,382.48 600.512,384.656 C606.442667,386.832 613.162667,387.92 620.672,387.92 Z M707.072,386 L707.072,315.984 L734.464,315.984 L734.464,294.48 L654.72,294.48 L654.72,315.984 L682.112,315.984 L682.112,386 L707.072,386 Z M769.664,386 L769.664,294.48 L744.704,294.48 L744.704,386 L769.664,386 Z M840.32,386 C846.208,370.725333 852.010667,355.450667 857.728,340.176 C863.445333,324.901333 868.992,309.669333 874.368,294.48 L874.368,294.48 L847.872,294.48 C844.544,305.573333 841.152,316.624 837.696,327.632 C834.24,338.64 830.72,349.648 827.136,360.656 C823.637333,349.648 820.16,338.64 816.704,327.632 C813.248,316.624 809.856,305.573333 806.528,294.48 L806.528,294.48 L779.264,294.48 C784.64,309.669333 790.186667,324.901333 795.904,340.176 C801.621333,355.450667 807.424,370.725333 813.312,386 L813.312,386 L840.32,386 Z M951.936,386 L951.936,366.032 L908.288,366.032 L908.288,349.392 L944.384,349.392 L944.384,329.424 L908.288,329.424 L908.288,314.448 L949.504,314.448 L949.504,294.48 L883.968,294.48 L883.968,386 L951.936,386 Z M1029.632,386 L1029.632,364.496 L988.928,364.496 L988.928,294.48 L963.968,294.48 L963.968,386 L1029.632,386 Z M1091.968,386 L1091.968,352.08 C1097.856,342.522667 1103.65867,332.944 1109.376,323.344 C1115.09333,313.744 1120.68267,304.122667 1126.144,294.48 L1126.144,294.48 L1098.752,294.48 C1095.76533,300.538667 1092.69333,306.618667 1089.536,312.72 C1086.37867,318.821333 1083.22133,324.901333 1080.064,330.96 C1076.82133,324.901333 1073.64267,318.842667 1070.528,312.784 C1067.41333,306.725333 1064.32,300.624 1061.248,294.48 L1061.248,294.48 L1032.96,294.48 C1038.336,304.122667 1043.88267,313.744 1049.6,323.344 C1055.31733,332.944 1061.12,342.522667 1067.008,352.08 L1067.008,352.08 L1067.008,386 L1091.968,386 Z" id="INTERACTIVELY" fill="#FFFFFF" fill-rule="nonzero"></path>
    </g>
</svg>