<?xml version="1.0" encoding="UTF-8"?>
<svg width="1200px" height="675px" viewBox="0 0 1200 675" version="1.1" xmlns="http://www.w3.org/2000/svg" xmlns:xlink="http://www.w3.org/1999/xlink">
    <!-- Generator: Sketch 61.2 (89653) - https://sketch.com -->
    <title>Player Copy 12</title>
    <desc>Created with Sketch.</desc>
    <g id="Player-Copy-12" stroke="none" stroke-width="1" fill="none" fill-rule="evenodd">
        <path d="M188.096,189.92 C196.458667,189.92 203.562667,188.768 209.408,186.464 C215.253333,184.16 219.733333,180.789333 222.848,176.352 C225.962667,171.914667 227.52,166.538667 227.52,160.224 C227.52,155.445333 226.752,151.456 225.216,148.256 C223.68,145.056 221.504,142.410667 218.688,140.32 C215.872,138.229333 212.544,136.458667 208.704,135.008 C204.864,133.557333 200.597333,132.277333 195.904,131.168 C191.381333,130.058667 187.904,128.885333 185.472,127.648 C183.04,126.410667 181.824,124.554667 181.824,122.08 C181.824,119.690667 182.997333,117.877333 185.344,116.64 C187.690667,115.402667 190.997333,114.784 195.264,114.784 C198.250667,114.784 201.344,115.061333 204.544,115.616 C207.744,116.170667 210.922667,116.981333 214.08,118.048 C217.237333,119.114667 220.224,120.501333 223.04,122.208 L223.04,122.208 L223.04,100.832 C219.114667,98.8693333 214.72,97.3333333 209.856,96.224 C204.992,95.1146667 200.042667,94.56 195.008,94.56 C187.242667,94.56 180.501333,95.7333333 174.784,98.08 C169.066667,100.426667 164.672,103.776 161.6,108.128 C158.528,112.48 156.992,117.728 156.992,123.872 C156.992,127.882667 157.589333,131.381333 158.784,134.368 C159.978667,137.354667 161.856,139.978667 164.416,142.24 C166.976,144.501333 170.304,146.485333 174.4,148.192 C178.496,149.898667 183.445333,151.434667 189.248,152.8 C191.893333,153.397333 194.197333,154.08 196.16,154.848 C198.122667,155.616 199.658667,156.533333 200.768,157.6 C201.877333,158.666667 202.432,160.096 202.432,161.888 C202.432,164.362667 201.194667,166.282667 198.72,167.648 C196.245333,169.013333 192.576,169.696 187.712,169.696 C182.762667,169.696 177.792,168.992 172.8,167.584 C167.808,166.176 162.922667,164.106667 158.144,161.376 L158.144,161.376 L158.144,183.008 C163.093333,185.397333 168.021333,187.146667 172.928,188.256 C177.834667,189.365333 182.890667,189.92 188.096,189.92 Z M283.712,189.92 C290.794667,189.92 297.194667,188.810667 302.912,186.592 C308.629333,184.373333 313.514667,181.173333 317.568,176.992 C321.621333,172.810667 324.736,167.776 326.912,161.888 C329.088,156 330.176,149.429333 330.176,142.176 C330.176,134.837333 329.088,128.245333 326.912,122.4 C324.736,116.554667 321.621333,111.562667 317.568,107.424 C313.514667,103.285333 308.629333,100.106667 302.912,97.888 C297.194667,95.6693333 290.794667,94.56 283.712,94.56 C276.629333,94.56 270.229333,95.6693333 264.512,97.888 C258.794667,100.106667 253.909333,103.285333 249.856,107.424 C245.802667,111.562667 242.688,116.554667 240.512,122.4 C238.336,128.245333 237.248,134.837333 237.248,142.176 C237.248,149.429333 238.336,156 240.512,161.888 C242.688,167.776 245.802667,172.810667 249.856,176.992 C253.909333,181.173333 258.794667,184.373333 264.512,186.592 C270.229333,188.810667 276.629333,189.92 283.712,189.92 Z M283.712,168.416 C277.056,168.416 271.957333,166.154667 268.416,161.632 C264.874667,157.109333 263.104,150.624 263.104,142.176 C263.104,133.813333 264.874667,127.370667 268.416,122.848 C271.957333,118.325333 277.056,116.064 283.712,116.064 C290.368,116.064 295.466667,118.325333 299.008,122.848 C302.549333,127.370667 304.32,133.813333 304.32,142.176 C304.32,150.624 302.549333,157.109333 299.008,161.632 C295.466667,166.154667 290.368,168.416 283.712,168.416 Z M417.344,189.92 C421.44,189.92 425.557333,189.664 429.696,189.152 C433.834667,188.64 437.824,187.850667 441.664,186.784 C445.504,185.717333 448.917333,184.458667 451.904,183.008 L451.904,183.008 L451.904,135.264 L416.192,135.264 L416.192,153.696 L429.504,153.696 L429.504,167.392 C427.882667,167.818667 426.197333,168.138667 424.448,168.352 C422.698667,168.565333 420.970667,168.672 419.264,168.672 C411.242667,168.672 405.162667,166.432 401.024,161.952 C396.885333,157.472 394.816,150.88 394.816,142.176 C394.816,133.813333 397.184,127.370667 401.92,122.848 C406.656,118.325333 413.418667,116.064 422.208,116.064 C427.584,116.064 432.512,116.64 436.992,117.792 C441.472,118.944 445.632,120.586667 449.472,122.72 L449.472,122.72 L449.472,100.192 C440.512,96.4373333 430.357333,94.56 419.008,94.56 C411.498667,94.56 404.672,95.6906667 398.528,97.952 C392.384,100.213333 387.093333,103.434667 382.656,107.616 C378.218667,111.797333 374.826667,116.810667 372.48,122.656 C370.133333,128.501333 368.96,135.008 368.96,142.176 C368.96,149.6 370.069333,156.256 372.288,162.144 C374.506667,168.032 377.706667,173.045333 381.888,177.184 C386.069333,181.322667 391.146667,184.48 397.12,186.656 C403.093333,188.832 409.834667,189.92 417.344,189.92 Z M491.968,188 L491.968,96.48 L467.008,96.48 L467.008,188 L491.968,188 Z M532.16,188 L532.16,132.448 C534.976,138.933333 537.856,145.418667 540.8,151.904 C543.744,158.389333 546.709333,164.874667 549.696,171.36 L549.696,171.36 L568.896,171.36 C571.797333,164.874667 574.677333,158.368 577.536,151.84 C580.394667,145.312 583.232,138.72 586.048,132.064 L586.048,132.064 L586.048,188 L609.344,188 L609.344,96.48 L579.648,96.48 C576.405333,105.098667 573.12,113.610667 569.792,122.016 C566.464,130.421333 563.093333,138.72 559.68,146.912 C556.096,138.634667 552.576,130.272 549.12,121.824 C545.664,113.376 542.272,104.928 538.944,96.48 L538.944,96.48 L508.864,96.48 L508.864,188 L532.16,188 Z M649.536,188 L649.536,132.448 C652.352,138.933333 655.232,145.418667 658.176,151.904 C661.12,158.389333 664.085333,164.874667 667.072,171.36 L667.072,171.36 L686.272,171.36 C689.173333,164.874667 692.053333,158.368 694.912,151.84 C697.770667,145.312 700.608,138.72 703.424,132.064 L703.424,132.064 L703.424,188 L726.72,188 L726.72,96.48 L697.024,96.48 C693.781333,105.098667 690.496,113.610667 687.168,122.016 C683.84,130.421333 680.469333,138.72 677.056,146.912 C673.472,138.634667 669.952,130.272 666.496,121.824 C663.04,113.376 659.648,104.928 656.32,96.48 L656.32,96.48 L626.24,96.48 L626.24,188 L649.536,188 Z M811.584,188 L811.584,168.032 L767.936,168.032 L767.936,151.392 L804.032,151.392 L804.032,131.424 L767.936,131.424 L767.936,116.448 L809.152,116.448 L809.152,96.48 L743.616,96.48 L743.616,188 L811.584,188 Z M212.544,318 L212.544,284.08 C218.432,274.522667 224.234667,264.944 229.952,255.344 C235.669333,245.744 241.258667,236.122667 246.72,226.48 L246.72,226.48 L219.328,226.48 C216.341333,232.538667 213.269333,238.618667 210.112,244.72 C206.954667,250.821333 203.797333,256.901333 200.64,262.96 C197.397333,256.901333 194.218667,250.842667 191.104,244.784 C187.989333,238.725333 184.896,232.624 181.824,226.48 L181.824,226.48 L153.536,226.48 C158.912,236.122667 164.458667,245.744 170.176,255.344 C175.893333,264.944 181.696,274.522667 187.584,284.08 L187.584,284.08 L187.584,318 L212.544,318 Z M299.84,319.92 C306.922667,319.92 313.322667,318.810667 319.04,316.592 C324.757333,314.373333 329.642667,311.173333 333.696,306.992 C337.749333,302.810667 340.864,297.776 343.04,291.888 C345.216,286 346.304,279.429333 346.304,272.176 C346.304,264.837333 345.216,258.245333 343.04,252.4 C340.864,246.554667 337.749333,241.562667 333.696,237.424 C329.642667,233.285333 324.757333,230.106667 319.04,227.888 C313.322667,225.669333 306.922667,224.56 299.84,224.56 C292.757333,224.56 286.357333,225.669333 280.64,227.888 C274.922667,230.106667 270.037333,233.285333 265.984,237.424 C261.930667,241.562667 258.816,246.554667 256.64,252.4 C254.464,258.245333 253.376,264.837333 253.376,272.176 C253.376,279.429333 254.464,286 256.64,291.888 C258.816,297.776 261.930667,302.810667 265.984,306.992 C270.037333,311.173333 274.922667,314.373333 280.64,316.592 C286.357333,318.810667 292.757333,319.92 299.84,319.92 Z M299.84,298.416 C293.184,298.416 288.085333,296.154667 284.544,291.632 C281.002667,287.109333 279.232,280.624 279.232,272.176 C279.232,263.813333 281.002667,257.370667 284.544,252.848 C288.085333,248.325333 293.184,246.064 299.84,246.064 C306.496,246.064 311.594667,248.325333 315.136,252.848 C318.677333,257.370667 320.448,263.813333 320.448,272.176 C320.448,280.624 318.677333,287.109333 315.136,291.632 C311.594667,296.154667 306.496,298.416 299.84,298.416 Z M400.192,319.92 C408.64,319.92 415.872,318.298667 421.888,315.056 C427.904,311.813333 432.512,307.141333 435.712,301.04 C438.912,294.938667 440.512,287.664 440.512,279.216 L440.512,279.216 L440.512,226.48 L415.936,226.48 L415.936,282.032 C415.936,287.237333 414.570667,291.269333 411.84,294.128 C409.109333,296.986667 405.226667,298.416 400.192,298.416 C395.242667,298.416 391.381333,296.986667 388.608,294.128 C385.834667,291.269333 384.448,287.237333 384.448,282.032 L384.448,282.032 L384.448,226.48 L359.488,226.48 L359.488,279.216 C359.488,287.664 361.109333,294.938667 364.352,301.04 C367.594667,307.141333 372.266667,311.813333 378.368,315.056 C384.469333,318.298667 391.744,319.92 400.192,319.92 Z M481.216,318 L481.216,287.152 L493.76,287.152 C496.746667,292.186667 499.626667,297.285333 502.4,302.448 C505.173333,307.610667 507.925333,312.794667 510.656,318 L510.656,318 L538.176,318 C534.677333,311.770667 531.114667,305.669333 527.488,299.696 C523.861333,293.722667 520.170667,287.792 516.416,281.904 C521.194667,279.344 524.885333,275.930667 527.488,271.664 C530.090667,267.397333 531.392,262.448 531.392,256.816 C531.392,247.002667 528.021333,239.493333 521.28,234.288 C514.538667,229.082667 504.810667,226.48 492.096,226.48 L492.096,226.48 L457.024,226.48 L457.024,318 L481.216,318 Z M490.944,267.952 L481.216,267.952 L481.216,245.68 L490.944,245.68 C496.149333,245.68 499.989333,246.597333 502.464,248.432 C504.938667,250.266667 506.176,253.061333 506.176,256.816 C506.176,260.485333 504.938667,263.258667 502.464,265.136 C499.989333,267.013333 496.149333,267.952 490.944,267.952 L490.944,267.952 Z M621.632,319.92 C625.728,319.92 629.845333,319.664 633.984,319.152 C638.122667,318.64 642.112,317.850667 645.952,316.784 C649.792,315.717333 653.205333,314.458667 656.192,313.008 L656.192,313.008 L656.192,265.264 L620.48,265.264 L620.48,283.696 L633.792,283.696 L633.792,297.392 C632.170667,297.818667 630.485333,298.138667 628.736,298.352 C626.986667,298.565333 625.258667,298.672 623.552,298.672 C615.530667,298.672 609.450667,296.432 605.312,291.952 C601.173333,287.472 599.104,280.88 599.104,272.176 C599.104,263.813333 601.472,257.370667 606.208,252.848 C610.944,248.325333 617.706667,246.064 626.496,246.064 C631.872,246.064 636.8,246.64 641.28,247.792 C645.76,248.944 649.92,250.586667 653.76,252.72 L653.76,252.72 L653.76,230.192 C644.8,226.437333 634.645333,224.56 623.296,224.56 C615.786667,224.56 608.96,225.690667 602.816,227.952 C596.672,230.213333 591.381333,233.434667 586.944,237.616 C582.506667,241.797333 579.114667,246.810667 576.768,252.656 C574.421333,258.501333 573.248,265.008 573.248,272.176 C573.248,279.6 574.357333,286.256 576.576,292.144 C578.794667,298.032 581.994667,303.045333 586.176,307.184 C590.357333,311.322667 595.434667,314.48 601.408,316.656 C607.381333,318.832 614.122667,319.92 621.632,319.92 Z M711.616,319.92 C720.064,319.92 727.296,318.298667 733.312,315.056 C739.328,311.813333 743.936,307.141333 747.136,301.04 C750.336,294.938667 751.936,287.664 751.936,279.216 L751.936,279.216 L751.936,226.48 L727.36,226.48 L727.36,282.032 C727.36,287.237333 725.994667,291.269333 723.264,294.128 C720.533333,296.986667 716.650667,298.416 711.616,298.416 C706.666667,298.416 702.805333,296.986667 700.032,294.128 C697.258667,291.269333 695.872,287.237333 695.872,282.032 L695.872,282.032 L695.872,226.48 L670.912,226.48 L670.912,279.216 C670.912,287.664 672.533333,294.938667 675.776,301.04 C679.018667,307.141333 683.690667,311.813333 689.792,315.056 C695.893333,318.298667 703.168,319.92 711.616,319.92 Z M836.416,318 L836.416,298.032 L792.768,298.032 L792.768,281.392 L828.864,281.392 L828.864,261.424 L792.768,261.424 L792.768,246.448 L833.984,246.448 L833.984,226.48 L768.448,226.48 L768.448,318 L836.416,318 Z M876.096,319.92 C884.458667,319.92 891.562667,318.768 897.408,316.464 C903.253333,314.16 907.733333,310.789333 910.848,306.352 C913.962667,301.914667 915.52,296.538667 915.52,290.224 C915.52,285.445333 914.752,281.456 913.216,278.256 C911.68,275.056 909.504,272.410667 906.688,270.32 C903.872,268.229333 900.544,266.458667 896.704,265.008 C892.864,263.557333 888.597333,262.277333 883.904,261.168 C879.381333,260.058667 875.904,258.885333 873.472,257.648 C871.04,256.410667 869.824,254.554667 869.824,252.08 C869.824,249.690667 870.997333,247.877333 873.344,246.64 C875.690667,245.402667 878.997333,244.784 883.264,244.784 C886.250667,244.784 889.344,245.061333 892.544,245.616 C895.744,246.170667 898.922667,246.981333 902.08,248.048 C905.237333,249.114667 908.224,250.501333 911.04,252.208 L911.04,252.208 L911.04,230.832 C907.114667,228.869333 902.72,227.333333 897.856,226.224 C892.992,225.114667 888.042667,224.56 883.008,224.56 C875.242667,224.56 868.501333,225.733333 862.784,228.08 C857.066667,230.426667 852.672,233.776 849.6,238.128 C846.528,242.48 844.992,247.728 844.992,253.872 C844.992,257.882667 845.589333,261.381333 846.784,264.368 C847.978667,267.354667 849.856,269.978667 852.416,272.24 C854.976,274.501333 858.304,276.485333 862.4,278.192 C866.496,279.898667 871.445333,281.434667 877.248,282.8 C879.893333,283.397333 882.197333,284.08 884.16,284.848 C886.122667,285.616 887.658667,286.533333 888.768,287.6 C889.877333,288.666667 890.432,290.096 890.432,291.888 C890.432,294.362667 889.194667,296.282667 886.72,297.648 C884.245333,299.013333 880.576,299.696 875.712,299.696 C870.762667,299.696 865.792,298.992 860.8,297.584 C855.808,296.176 850.922667,294.106667 846.144,291.376 L846.144,291.376 L846.144,313.008 C851.093333,315.397333 856.021333,317.146667 860.928,318.256 C865.834667,319.365333 870.890667,319.92 876.096,319.92 Z M956.224,319.92 C964.586667,319.92 971.690667,318.768 977.536,316.464 C983.381333,314.16 987.861333,310.789333 990.976,306.352 C994.090667,301.914667 995.648,296.538667 995.648,290.224 C995.648,285.445333 994.88,281.456 993.344,278.256 C991.808,275.056 989.632,272.410667 986.816,270.32 C984,268.229333 980.672,266.458667 976.832,265.008 C972.992,263.557333 968.725333,262.277333 964.032,261.168 C959.509333,260.058667 956.032,258.885333 953.6,257.648 C951.168,256.410667 949.952,254.554667 949.952,252.08 C949.952,249.690667 951.125333,247.877333 953.472,246.64 C955.818667,245.402667 959.125333,244.784 963.392,244.784 C966.378667,244.784 969.472,245.061333 972.672,245.616 C975.872,246.170667 979.050667,246.981333 982.208,248.048 C985.365333,249.114667 988.352,250.501333 991.168,252.208 L991.168,252.208 L991.168,230.832 C987.242667,228.869333 982.848,227.333333 977.984,226.224 C973.12,225.114667 968.170667,224.56 963.136,224.56 C955.370667,224.56 948.629333,225.733333 942.912,228.08 C937.194667,230.426667 932.8,233.776 929.728,238.128 C926.656,242.48 925.12,247.728 925.12,253.872 C925.12,257.882667 925.717333,261.381333 926.912,264.368 C928.106667,267.354667 929.984,269.978667 932.544,272.24 C935.104,274.501333 938.432,276.485333 942.528,278.192 C946.624,279.898667 951.573333,281.434667 957.376,282.8 C960.021333,283.397333 962.325333,284.08 964.288,284.848 C966.250667,285.616 967.786667,286.533333 968.896,287.6 C970.005333,288.666667 970.56,290.096 970.56,291.888 C970.56,294.362667 969.322667,296.282667 966.848,297.648 C964.373333,299.013333 960.704,299.696 955.84,299.696 C950.890667,299.696 945.92,298.992 940.928,297.584 C935.936,296.176 931.050667,294.106667 926.272,291.376 L926.272,291.376 L926.272,313.008 C931.221333,315.397333 936.149333,317.146667 941.056,318.256 C945.962667,319.365333 951.018667,319.92 956.224,319.92 Z M184.256,448 L184.256,392.448 C189.802667,401.322667 195.456,410.474667 201.216,419.904 C206.976,429.333333 212.586667,438.698667 218.048,448 L218.048,448 L243.136,448 L243.136,356.48 L219.328,356.48 L219.328,411.008 C213.781333,401.706667 208.192,392.490667 202.56,383.36 C196.928,374.229333 191.253333,365.269333 185.536,356.48 L185.536,356.48 L160.448,356.48 L160.448,448 L184.256,448 Z M303.168,449.92 C310.250667,449.92 316.650667,448.810667 322.368,446.592 C328.085333,444.373333 332.970667,441.173333 337.024,436.992 C341.077333,432.810667 344.192,427.776 346.368,421.888 C348.544,416 349.632,409.429333 349.632,402.176 C349.632,394.837333 348.544,388.245333 346.368,382.4 C344.192,376.554667 341.077333,371.562667 337.024,367.424 C332.970667,363.285333 328.085333,360.106667 322.368,357.888 C316.650667,355.669333 310.250667,354.56 303.168,354.56 C296.085333,354.56 289.685333,355.669333 283.968,357.888 C278.250667,360.106667 273.365333,363.285333 269.312,367.424 C265.258667,371.562667 262.144,376.554667 259.968,382.4 C257.792,388.245333 256.704,394.837333 256.704,402.176 C256.704,409.429333 257.792,416 259.968,421.888 C262.144,427.776 265.258667,432.810667 269.312,436.992 C273.365333,441.173333 278.250667,444.373333 283.968,446.592 C289.685333,448.810667 296.085333,449.92 303.168,449.92 Z M303.168,428.416 C296.512,428.416 291.413333,426.154667 287.872,421.632 C284.330667,417.109333 282.56,410.624 282.56,402.176 C282.56,393.813333 284.330667,387.370667 287.872,382.848 C291.413333,378.325333 296.512,376.064 303.168,376.064 C309.824,376.064 314.922667,378.325333 318.464,382.848 C322.005333,387.370667 323.776,393.813333 323.776,402.176 C323.776,410.624 322.005333,417.109333 318.464,421.632 C314.922667,426.154667 309.824,428.416 303.168,428.416 Z M405.44,448 C407.914667,438.613333 410.304,429.205333 412.608,419.776 C414.912,410.346667 417.216,400.896 419.52,391.424 C421.738667,400.896 424.042667,410.346667 426.432,419.776 C428.821333,429.205333 431.253333,438.613333 433.728,448 L433.728,448 L459.584,448 C463.850667,433.066667 467.925333,417.962667 471.808,402.688 C475.690667,387.413333 479.338667,372.010667 482.752,356.48 L482.752,356.48 L456.512,356.48 C454.890667,367.146667 453.162667,377.813333 451.328,388.48 C449.493333,399.146667 447.552,409.685333 445.504,420.096 C443.2,410.197333 440.917333,400.277333 438.656,390.336 C436.394667,380.394667 434.197333,370.389333 432.064,360.32 L432.064,360.32 L408.128,360.32 C405.994667,370.56 403.776,380.821333 401.472,391.104 C399.168,401.386667 396.778667,411.690667 394.304,422.016 C392.256,411.349333 390.293333,400.512 388.416,389.504 C386.538667,378.496 384.789333,367.488 383.168,356.48 L383.168,356.48 L356.416,356.48 C359.914667,372.010667 363.605333,387.413333 367.488,402.688 C371.370667,417.962667 375.402667,433.066667 379.584,448 L379.584,448 L405.44,448 Z M545.6,448 L545.6,418.944 L555.84,418.944 C564.117333,418.944 571.114667,417.728 576.832,415.296 C582.549333,412.864 586.901333,409.322667 589.888,404.672 C592.874667,400.021333 594.368,394.368 594.368,387.712 C594.368,377.642667 591.061333,369.92 584.448,364.544 C577.834667,359.168 568.298667,356.48 555.84,356.48 L555.84,356.48 L521.408,356.48 L521.408,448 L545.6,448 Z M554.688,399.744 L545.6,399.744 L545.6,375.68 L554.688,375.68 C564.330667,375.68 569.152,379.690667 569.152,387.712 C569.152,395.733333 564.330667,399.744 554.688,399.744 L554.688,399.744 Z M672.704,448 L672.704,426.496 L632,426.496 L632,356.48 L607.04,356.48 L607.04,448 L672.704,448 Z M750.912,448 L750.912,428.032 L707.264,428.032 L707.264,411.392 L743.36,411.392 L743.36,391.424 L707.264,391.424 L707.264,376.448 L748.48,376.448 L748.48,356.48 L682.944,356.48 L682.944,448 L750.912,448 Z M781.888,448 C783.68,442.197333 785.429333,436.48 787.136,430.848 L787.136,430.848 L820.544,430.848 C821.397333,433.664 822.272,436.501333 823.168,439.36 C824.064,442.218667 824.938667,445.098667 825.792,448 L825.792,448 L852.8,448 C847.338667,432.725333 841.706667,417.450667 835.904,402.176 C830.101333,386.901333 824.128,371.669333 817.984,356.48 L817.984,356.48 L790.464,356.48 C784.490667,370.901333 778.602667,385.749333 772.8,401.024 C766.997333,416.298667 761.28,431.957333 755.648,448 L755.648,448 L781.888,448 Z M814.4,411.392 L793.28,411.392 C794.986667,406.101333 796.736,400.832 798.528,395.584 C800.32,390.336 802.112,385.066667 803.904,379.776 C805.696,384.981333 807.466667,390.208 809.216,395.456 C810.965333,400.704 812.693333,406.016 814.4,411.392 L814.4,411.392 Z M890.048,449.92 C898.410667,449.92 905.514667,448.768 911.36,446.464 C917.205333,444.16 921.685333,440.789333 924.8,436.352 C927.914667,431.914667 929.472,426.538667 929.472,420.224 C929.472,415.445333 928.704,411.456 927.168,408.256 C925.632,405.056 923.456,402.410667 920.64,400.32 C917.824,398.229333 914.496,396.458667 910.656,395.008 C906.816,393.557333 902.549333,392.277333 897.856,391.168 C893.333333,390.058667 889.856,388.885333 887.424,387.648 C884.992,386.410667 883.776,384.554667 883.776,382.08 C883.776,379.690667 884.949333,377.877333 887.296,376.64 C889.642667,375.402667 892.949333,374.784 897.216,374.784 C900.202667,374.784 903.296,375.061333 906.496,375.616 C909.696,376.170667 912.874667,376.981333 916.032,378.048 C919.189333,379.114667 922.176,380.501333 924.992,382.208 L924.992,382.208 L924.992,360.832 C921.066667,358.869333 916.672,357.333333 911.808,356.224 C906.944,355.114667 901.994667,354.56 896.96,354.56 C889.194667,354.56 882.453333,355.733333 876.736,358.08 C871.018667,360.426667 866.624,363.776 863.552,368.128 C860.48,372.48 858.944,377.728 858.944,383.872 C858.944,387.882667 859.541333,391.381333 860.736,394.368 C861.930667,397.354667 863.808,399.978667 866.368,402.24 C868.928,404.501333 872.256,406.485333 876.352,408.192 C880.448,409.898667 885.397333,411.434667 891.2,412.8 C893.845333,413.397333 896.149333,414.08 898.112,414.848 C900.074667,415.616 901.610667,416.533333 902.72,417.6 C903.829333,418.666667 904.384,420.096 904.384,421.888 C904.384,424.362667 903.146667,426.282667 900.672,427.648 C898.197333,429.013333 894.528,429.696 889.664,429.696 C884.714667,429.696 879.744,428.992 874.752,427.584 C869.76,426.176 864.874667,424.106667 860.096,421.376 L860.096,421.376 L860.096,443.008 C865.045333,445.397333 869.973333,447.146667 874.88,448.256 C879.786667,449.365333 884.842667,449.92 890.048,449.92 Z M1010.496,448 L1010.496,428.032 L966.848,428.032 L966.848,411.392 L1002.944,411.392 L1002.944,391.424 L966.848,391.424 L966.848,376.448 L1008.064,376.448 L1008.064,356.48 L942.528,356.48 L942.528,448 L1010.496,448 Z M179.392,578 C181.184,572.197333 182.933333,566.48 184.64,560.848 L184.64,560.848 L218.048,560.848 C218.901333,563.664 219.776,566.501333 220.672,569.36 C221.568,572.218667 222.442667,575.098667 223.296,578 L223.296,578 L250.304,578 C244.842667,562.725333 239.210667,547.450667 233.408,532.176 C227.605333,516.901333 221.632,501.669333 215.488,486.48 L215.488,486.48 L187.968,486.48 C181.994667,500.901333 176.106667,515.749333 170.304,531.024 C164.501333,546.298667 158.784,561.957333 153.152,578 L153.152,578 L179.392,578 Z M211.904,541.392 L190.784,541.392 C192.490667,536.101333 194.24,530.832 196.032,525.584 C197.824,520.336 199.616,515.066667 201.408,509.776 C203.2,514.981333 204.970667,520.208 206.72,525.456 C208.469333,530.704 210.197333,536.016 211.904,541.392 L211.904,541.392 Z M305.6,578 L305.6,507.984 L332.992,507.984 L332.992,486.48 L253.248,486.48 L253.248,507.984 L280.64,507.984 L280.64,578 L305.6,578 Z M396.736,578 L396.736,541.008 L429.248,541.008 L429.248,578 L454.208,578 L454.208,486.48 L429.248,486.48 L429.248,519.504 L396.736,519.504 L396.736,486.48 L371.776,486.48 L371.776,578 L396.736,578 Z M514.24,579.92 C521.322667,579.92 527.722667,578.810667 533.44,576.592 C539.157333,574.373333 544.042667,571.173333 548.096,566.992 C552.149333,562.810667 555.264,557.776 557.44,551.888 C559.616,546 560.704,539.429333 560.704,532.176 C560.704,524.837333 559.616,518.245333 557.44,512.4 C555.264,506.554667 552.149333,501.562667 548.096,497.424 C544.042667,493.285333 539.157333,490.106667 533.44,487.888 C527.722667,485.669333 521.322667,484.56 514.24,484.56 C507.157333,484.56 500.757333,485.669333 495.04,487.888 C489.322667,490.106667 484.437333,493.285333 480.384,497.424 C476.330667,501.562667 473.216,506.554667 471.04,512.4 C468.864,518.245333 467.776,524.837333 467.776,532.176 C467.776,539.429333 468.864,546 471.04,551.888 C473.216,557.776 476.330667,562.810667 480.384,566.992 C484.437333,571.173333 489.322667,574.373333 495.04,576.592 C500.757333,578.810667 507.157333,579.92 514.24,579.92 Z M514.24,558.416 C507.584,558.416 502.485333,556.154667 498.944,551.632 C495.402667,547.109333 493.632,540.624 493.632,532.176 C493.632,523.813333 495.402667,517.370667 498.944,512.848 C502.485333,508.325333 507.584,506.064 514.24,506.064 C520.896,506.064 525.994667,508.325333 529.536,512.848 C533.077333,517.370667 534.848,523.813333 534.848,532.176 C534.848,540.624 533.077333,547.109333 529.536,551.632 C525.994667,556.154667 520.896,558.416 514.24,558.416 Z M597.568,578 L597.568,522.448 C600.384,528.933333 603.264,535.418667 606.208,541.904 C609.152,548.389333 612.117333,554.874667 615.104,561.36 L615.104,561.36 L634.304,561.36 C637.205333,554.874667 640.085333,548.368 642.944,541.84 C645.802667,535.312 648.64,528.72 651.456,522.064 L651.456,522.064 L651.456,578 L674.752,578 L674.752,486.48 L645.056,486.48 C641.813333,495.098667 638.528,503.610667 635.2,512.016 C631.872,520.421333 628.501333,528.72 625.088,536.912 C621.504,528.634667 617.984,520.272 614.528,511.824 C611.072,503.376 607.68,494.928 604.352,486.48 L604.352,486.48 L574.272,486.48 L574.272,578 L597.568,578 Z M759.616,578 L759.616,558.032 L715.968,558.032 L715.968,541.392 L752.064,541.392 L752.064,521.424 L715.968,521.424 L715.968,506.448 L757.184,506.448 L757.184,486.48 L691.648,486.48 L691.648,578 L759.616,578 Z" id="SOGIMMEYOURGUESSNOWPLEASEATHOME" fill="#FFFFFF" fill-rule="nonzero"></path>
    </g>
</svg>