<?xml version="1.0" encoding="UTF-8"?>
<svg width="1200px" height="675px" viewBox="0 0 1200 675" version="1.1" xmlns="http://www.w3.org/2000/svg" xmlns:xlink="http://www.w3.org/1999/xlink">
    <!-- Generator: Sketch 61.2 (89653) - https://sketch.com -->
    <title>Player Copy 12</title>
    <desc>Created with Sketch.</desc>
    <g id="Player-Copy-12" stroke="none" stroke-width="1" fill="none" fill-rule="evenodd">
        <path d="M225.428,323 L225.428,185.72 L187.988,185.72 L187.988,323 L225.428,323 Z M319.316,323 L319.316,217.976 L360.404,217.976 L360.404,185.72 L240.788,185.72 L240.788,217.976 L281.876,217.976 L281.876,323 L319.316,323 Z M456.02,323 L456.02,185.72 L418.58,185.72 L418.58,323 L456.02,323 Z M522.836,325.88 C535.38,325.88 546.036,324.152 554.804,320.696 C563.572,317.24 570.292,312.184 574.964,305.528 C579.636,298.872 581.972,290.808 581.972,281.336 C581.972,274.168 580.82,268.184 578.516,263.384 C576.212,258.584 572.948,254.616 568.724,251.48 C564.5,248.344 559.508,245.688 553.748,243.512 C547.988,241.336 541.588,239.416 534.548,237.752 C527.764,236.088 522.548,234.328 518.9,232.472 C515.252,230.616 513.428,227.832 513.428,224.12 C513.428,220.536 515.188,217.816 518.708,215.96 C522.228,214.104 527.188,213.176 533.588,213.176 C538.068,213.176 542.708,213.592 547.508,214.424 C552.308,215.256 557.076,216.472 561.812,218.072 C566.548,219.672 571.028,221.752 575.252,224.312 L575.252,224.312 L575.252,192.248 C569.364,189.304 562.772,187 555.476,185.336 C548.18,183.672 540.756,182.84 533.204,182.84 C521.556,182.84 511.444,184.6 502.868,188.12 C494.292,191.64 487.7,196.664 483.092,203.192 C478.484,209.72 476.18,217.592 476.18,226.808 C476.18,232.824 477.076,238.072 478.868,242.552 C480.66,247.032 483.476,250.968 487.316,254.36 C491.156,257.752 496.148,260.728 502.292,263.288 C508.436,265.848 515.86,268.152 524.564,270.2 C528.532,271.096 531.988,272.12 534.932,273.272 C537.876,274.424 540.18,275.8 541.844,277.4 C543.508,279 544.34,281.144 544.34,283.832 C544.34,287.544 542.484,290.424 538.772,292.472 C535.06,294.52 529.556,295.544 522.26,295.544 C514.836,295.544 507.38,294.488 499.892,292.376 C492.404,290.264 485.076,287.16 477.908,283.064 L477.908,283.064 L477.908,315.512 C485.332,319.096 492.724,321.72 500.084,323.384 C507.444,325.048 515.028,325.88 522.836,325.88 Z M712.916,323 L712.916,217.976 L754.004,217.976 L754.004,185.72 L634.388,185.72 L634.388,217.976 L675.476,217.976 L675.476,323 L712.916,323 Z M806.804,323 L806.804,267.512 L855.572,267.512 L855.572,323 L893.012,323 L893.012,185.72 L855.572,185.72 L855.572,235.256 L806.804,235.256 L806.804,185.72 L769.364,185.72 L769.364,323 L806.804,323 Z M1020.308,323 L1020.308,293.048 L954.836,293.048 L954.836,268.088 L1008.98,268.088 L1008.98,238.136 L954.836,238.136 L954.836,215.672 L1016.66,215.672 L1016.66,185.72 L918.356,185.72 L918.356,323 L1020.308,323 Z M225.02,503 L225.02,448.82 L281.09,448.82 L281.09,414.59 L225.02,414.59 L225.02,387.08 L289.07,387.08 L289.07,352.85 L184.7,352.85 L184.7,503 L225.02,503 Z M374.12,506.15 C387.98,506.15 399.845,503.49 409.715,498.17 C419.585,492.85 427.145,485.185 432.395,475.175 C437.645,465.165 440.27,453.23 440.27,439.37 L440.27,439.37 L440.27,352.85 L399.95,352.85 L399.95,443.99 C399.95,452.53 397.71,459.145 393.23,463.835 C388.75,468.525 382.38,470.87 374.12,470.87 C366,470.87 359.665,468.525 355.115,463.835 C350.565,459.145 348.29,452.53 348.29,443.99 L348.29,443.99 L348.29,352.85 L307.34,352.85 L307.34,439.37 C307.34,453.23 310,465.165 315.32,475.175 C320.64,485.185 328.305,492.85 338.315,498.17 C348.325,503.49 360.26,506.15 374.12,506.15 Z M542.33,503 L542.33,388.13 L587.27,388.13 L587.27,352.85 L456.44,352.85 L456.44,388.13 L501.38,388.13 L501.38,503 L542.33,503 Z M670.22,506.15 C684.08,506.15 695.945,503.49 705.815,498.17 C715.685,492.85 723.245,485.185 728.495,475.175 C733.745,465.165 736.37,453.23 736.37,439.37 L736.37,439.37 L736.37,352.85 L696.05,352.85 L696.05,443.99 C696.05,452.53 693.81,459.145 689.33,463.835 C684.85,468.525 678.48,470.87 670.22,470.87 C662.1,470.87 655.765,468.525 651.215,463.835 C646.665,459.145 644.39,452.53 644.39,443.99 L644.39,443.99 L644.39,352.85 L603.44,352.85 L603.44,439.37 C603.44,453.23 606.1,465.165 611.42,475.175 C616.74,485.185 624.405,492.85 634.415,498.17 C644.425,503.49 656.36,506.15 670.22,506.15 Z M803.15,503 L803.15,452.39 L823.73,452.39 C828.63,460.65 833.355,469.015 837.905,477.485 C842.455,485.955 846.97,494.46 851.45,503 L851.45,503 L896.6,503 C890.86,492.78 885.015,482.77 879.065,472.97 C873.115,463.17 867.06,453.44 860.9,443.78 C868.74,439.58 874.795,433.98 879.065,426.98 C883.335,419.98 885.47,411.86 885.47,402.62 C885.47,386.52 879.94,374.2 868.88,365.66 C857.82,357.12 841.86,352.85 821,352.85 L821,352.85 L763.46,352.85 L763.46,503 L803.15,503 Z M819.11,420.89 L803.15,420.89 L803.15,384.35 L819.11,384.35 C827.65,384.35 833.95,385.855 838.01,388.865 C842.07,391.875 844.1,396.46 844.1,402.62 C844.1,408.64 842.07,413.19 838.01,416.27 C833.95,419.35 827.65,420.89 819.11,420.89 L819.11,420.89 Z M1024.28,503 L1024.28,470.24 L952.67,470.24 L952.67,442.94 L1011.89,442.94 L1011.89,410.18 L952.67,410.18 L952.67,385.61 L1020.29,385.61 L1020.29,352.85 L912.77,352.85 L912.77,503 L1024.28,503 Z" id="ITISTHEFUTURE" fill="#FFFFFF" fill-rule="nonzero"></path>
    </g>
</svg>