<?xml version="1.0" encoding="UTF-8"?>
<svg width="1200px" height="675px" viewBox="0 0 1200 675" version="1.1" xmlns="http://www.w3.org/2000/svg" xmlns:xlink="http://www.w3.org/1999/xlink">
    <!-- Generator: Sketch 61.2 (89653) - https://sketch.com -->
    <title>Player Copy 12</title>
    <desc>Created with Sketch.</desc>
    <g id="Player-Copy-12" stroke="none" stroke-width="1" fill="none" fill-rule="evenodd">
        <path d="M184.696,253 C194.424,253 202.722667,251.186667 209.592,247.56 C216.461333,243.933333 221.709333,238.706667 225.336,231.88 C228.962667,225.053333 230.776,216.776 230.776,207.048 C230.776,197.405333 228.962667,189.192 225.336,182.408 C221.709333,175.624 216.461333,170.44 209.592,166.856 C202.722667,163.272 194.466667,161.48 184.824,161.48 L184.824,161.48 L147.448,161.48 L147.448,253 L184.696,253 Z M183.544,231.752 L172.408,231.752 L172.408,182.728 L183.672,182.728 C190.669333,182.728 195.96,184.797333 199.544,188.936 C203.128,193.074667 204.92,199.112 204.92,207.048 C204.92,215.069333 203.106667,221.192 199.48,225.416 C195.853333,229.64 190.541333,231.752 183.544,231.752 L183.544,231.752 Z M269.304,253 L269.304,161.48 L244.344,161.48 L244.344,253 L269.304,253 Z M323.448,253 C333.176,253 341.474667,251.186667 348.344,247.56 C355.213333,243.933333 360.461333,238.706667 364.088,231.88 C367.714667,225.053333 369.528,216.776 369.528,207.048 C369.528,197.405333 367.714667,189.192 364.088,182.408 C360.461333,175.624 355.213333,170.44 348.344,166.856 C341.474667,163.272 333.218667,161.48 323.576,161.48 L323.576,161.48 L286.2,161.48 L286.2,253 L323.448,253 Z M322.296,231.752 L311.16,231.752 L311.16,182.728 L322.424,182.728 C329.421333,182.728 334.712,184.797333 338.296,188.936 C341.88,193.074667 343.672,199.112 343.672,207.048 C343.672,215.069333 341.858667,221.192 338.232,225.416 C334.605333,229.64 329.293333,231.752 322.296,231.752 L322.296,231.752 Z M406.904,253 L406.904,197.448 C412.450667,206.322667 418.104,215.474667 423.864,224.904 C429.624,234.333333 435.234667,243.698667 440.696,253 L440.696,253 L465.784,253 L465.784,161.48 L441.976,161.48 L441.976,216.008 C436.429333,206.706667 430.84,197.490667 425.208,188.36 C419.576,179.229333 413.901333,170.269333 408.184,161.48 L408.184,161.48 L383.096,161.48 L383.096,253 L406.904,253 Z M493.56,199.752 C495.864,197.448 497.848,194.909333 499.512,192.136 C501.176,189.362667 502.477333,186.461333 503.416,183.432 C504.354667,180.402667 504.824,177.522667 504.824,174.792 C504.824,170.184 503.8,166.664 501.752,164.232 C499.704,161.8 496.589333,160.584 492.408,160.584 C488.824,160.584 485.986667,161.629333 483.896,163.72 C481.805333,165.810667 480.76,168.562667 480.76,171.976 C480.76,174.621333 481.442667,176.84 482.808,178.632 C484.173333,180.424 486.050667,181.661333 488.44,182.344 C486.818667,188.146667 483.192,193.949333 477.56,199.752 L477.56,199.752 L493.56,199.752 Z M565.496,253 L565.496,182.984 L592.888,182.984 L592.888,161.48 L513.144,161.48 L513.144,182.984 L540.536,182.984 L540.536,253 L565.496,253 Z M656.632,253 L656.632,161.48 L631.672,161.48 L631.672,253 L656.632,253 Z M719.224,253 L719.224,182.984 L746.616,182.984 L746.616,161.48 L666.872,161.48 L666.872,182.984 L694.264,182.984 L694.264,253 L719.224,253 Z M172.024,383 L172.024,349.976 L206.2,349.976 L206.2,329.112 L172.024,329.112 L172.024,312.344 L211.064,312.344 L211.064,291.48 L147.448,291.48 L147.448,383 L172.024,383 Z M290.552,383 L290.552,363.032 L246.904,363.032 L246.904,346.392 L283,346.392 L283,326.424 L246.904,326.424 L246.904,311.448 L288.12,311.448 L288.12,291.48 L222.584,291.48 L222.584,383 L290.552,383 Z M370.552,383 L370.552,363.032 L326.904,363.032 L326.904,346.392 L363,346.392 L363,326.424 L326.904,326.424 L326.904,311.448 L368.12,311.448 L368.12,291.48 L302.584,291.48 L302.584,383 L370.552,383 Z M448.248,383 L448.248,361.496 L407.544,361.496 L407.544,291.48 L382.584,291.48 L382.584,383 L448.248,383 Z M552.696,383 L552.696,361.496 L511.992,361.496 L511.992,291.48 L487.032,291.48 L487.032,383 L552.696,383 Z M587.896,383 L587.896,291.48 L562.936,291.48 L562.936,383 L587.896,383 Z M629.752,383 L629.752,345.24 L634.232,345.24 C639.010667,351.64 643.64,357.954667 648.12,364.184 C652.6,370.413333 657.058667,376.685333 661.496,383 L661.496,383 L692.728,383 C686.413333,374.637333 680.162667,366.424 673.976,358.36 C667.789333,350.296 661.538667,342.338667 655.224,334.488 C661.112,327.32 666.872,320.152 672.504,312.984 C678.136,305.816 683.682667,298.648 689.144,291.48 L689.144,291.48 L659.704,291.48 C655.778667,297.026667 651.768,302.594667 647.672,308.184 C643.576,313.773333 639.266667,319.469333 634.744,325.272 L634.744,325.272 L629.752,325.272 L629.752,291.48 L604.792,291.48 L604.792,383 L629.752,383 Z M769.912,383 L769.912,363.032 L726.264,363.032 L726.264,346.392 L762.36,346.392 L762.36,326.424 L726.264,326.424 L726.264,311.448 L767.48,311.448 L767.48,291.48 L701.944,291.48 L701.944,383 L769.912,383 Z M193.144,513 L193.144,442.984 L220.536,442.984 L220.536,421.48 L140.792,421.48 L140.792,442.984 L168.184,442.984 L168.184,513 L193.144,513 Z M255.736,513 L255.736,476.008 L288.248,476.008 L288.248,513 L313.208,513 L313.208,421.48 L288.248,421.48 L288.248,454.504 L255.736,454.504 L255.736,421.48 L230.776,421.48 L230.776,513 L255.736,513 Z M398.072,513 L398.072,493.032 L354.424,493.032 L354.424,476.392 L390.52,476.392 L390.52,456.424 L354.424,456.424 L354.424,441.448 L395.64,441.448 L395.64,421.48 L330.104,421.48 L330.104,513 L398.072,513 Z M463.224,513 L463.224,479.976 L497.4,479.976 L497.4,459.112 L463.224,459.112 L463.224,442.344 L502.264,442.344 L502.264,421.48 L438.648,421.48 L438.648,513 L463.224,513 Z M554.104,514.92 C562.552,514.92 569.784,513.298667 575.8,510.056 C581.816,506.813333 586.424,502.141333 589.624,496.04 C592.824,489.938667 594.424,482.664 594.424,474.216 L594.424,474.216 L594.424,421.48 L569.848,421.48 L569.848,477.032 C569.848,482.237333 568.482667,486.269333 565.752,489.128 C563.021333,491.986667 559.138667,493.416 554.104,493.416 C549.154667,493.416 545.293333,491.986667 542.52,489.128 C539.746667,486.269333 538.36,482.237333 538.36,477.032 L538.36,477.032 L538.36,421.48 L513.4,421.48 L513.4,474.216 C513.4,482.664 515.021333,489.938667 518.264,496.04 C521.506667,502.141333 526.178667,506.813333 532.28,510.056 C538.381333,513.298667 545.656,514.92 554.104,514.92 Z M656.632,513 L656.632,442.984 L684.024,442.984 L684.024,421.48 L604.28,421.48 L604.28,442.984 L631.672,442.984 L631.672,513 L656.632,513 Z M734.584,514.92 C743.032,514.92 750.264,513.298667 756.28,510.056 C762.296,506.813333 766.904,502.141333 770.104,496.04 C773.304,489.938667 774.904,482.664 774.904,474.216 L774.904,474.216 L774.904,421.48 L750.328,421.48 L750.328,477.032 C750.328,482.237333 748.962667,486.269333 746.232,489.128 C743.501333,491.986667 739.618667,493.416 734.584,493.416 C729.634667,493.416 725.773333,491.986667 723,489.128 C720.226667,486.269333 718.84,482.237333 718.84,477.032 L718.84,477.032 L718.84,421.48 L693.88,421.48 L693.88,474.216 C693.88,482.664 695.501333,489.938667 698.744,496.04 C701.986667,502.141333 706.658667,506.813333 712.76,510.056 C718.861333,513.298667 726.136,514.92 734.584,514.92 Z M815.608,513 L815.608,482.152 L828.152,482.152 C831.138667,487.186667 834.018667,492.285333 836.792,497.448 C839.565333,502.610667 842.317333,507.794667 845.048,513 L845.048,513 L872.568,513 C869.069333,506.770667 865.506667,500.669333 861.88,494.696 C858.253333,488.722667 854.562667,482.792 850.808,476.904 C855.586667,474.344 859.277333,470.930667 861.88,466.664 C864.482667,462.397333 865.784,457.448 865.784,451.816 C865.784,442.002667 862.413333,434.493333 855.672,429.288 C848.930667,424.082667 839.202667,421.48 826.488,421.48 L826.488,421.48 L791.416,421.48 L791.416,513 L815.608,513 Z M825.336,462.952 L815.608,462.952 L815.608,440.68 L825.336,440.68 C830.541333,440.68 834.381333,441.597333 836.856,443.432 C839.330667,445.266667 840.568,448.061333 840.568,451.816 C840.568,455.485333 839.330667,458.258667 836.856,460.136 C834.381333,462.013333 830.541333,462.952 825.336,462.952 L825.336,462.952 Z M950.392,513 L950.392,493.032 L906.744,493.032 L906.744,476.392 L942.84,476.392 L942.84,456.424 L906.744,456.424 L906.744,441.448 L947.96,441.448 L947.96,421.48 L882.424,421.48 L882.424,513 L950.392,513 Z M991.736,482.024 L991.736,480.488 C991.736,479.208 992.013333,478.013333 992.568,476.904 C993.122667,475.794667 994.082667,474.642667 995.448,473.448 C996.813333,472.253333 998.605333,470.888 1000.824,469.352 C1005.85867,465.853333 1009.50667,462.205333 1011.768,458.408 C1014.02933,454.610667 1015.16,450.152 1015.16,445.032 C1015.16,439.741333 1013.85867,435.197333 1011.256,431.4 C1008.65333,427.602667 1004.96267,424.68 1000.184,422.632 C995.405333,420.584 989.645333,419.56 982.904,419.56 C978.466667,419.56 974.157333,420.008 969.976,420.904 C965.794667,421.8 961.826667,423.144 958.072,424.936 L958.072,424.936 L958.072,444.264 C961.485333,442.301333 964.813333,440.872 968.056,439.976 C971.298667,439.08 974.712,438.632 978.296,438.632 C982.306667,438.632 985.4,439.421333 987.576,441 C989.752,442.578667 990.84,444.776 990.84,447.592 C990.84,449.213333 990.584,450.685333 990.072,452.008 C989.56,453.330667 988.621333,454.674667 987.256,456.04 C985.890667,457.405333 983.928,459.069333 981.368,461.032 C978.04,463.506667 975.650667,466.237333 974.2,469.224 C972.749333,472.210667 972.024,475.965333 972.024,480.488 L972.024,480.488 L972.024,482.024 L991.736,482.024 Z M981.88,514.152 C984.610667,514.152 986.957333,513.576 988.92,512.424 C990.882667,511.272 992.397333,509.736 993.464,507.816 C994.530667,505.896 995.064,503.784 995.064,501.48 C995.064,499.176 994.530667,497.064 993.464,495.144 C992.397333,493.224 990.882667,491.709333 988.92,490.6 C986.957333,489.490667 984.610667,488.936 981.88,488.936 C979.149333,488.936 976.802667,489.490667 974.84,490.6 C972.877333,491.709333 971.362667,493.224 970.296,495.144 C969.229333,497.064 968.696,499.176 968.696,501.48 C968.696,503.784 969.229333,505.896 970.296,507.816 C971.362667,509.736 972.877333,511.272 974.84,512.424 C976.802667,513.576 979.149333,514.152 981.88,514.152 Z" id="DIDN’TITFEELLIKETHEFUTURE?" fill="#FFFFFF" fill-rule="nonzero"></path>
    </g>
</svg>