<?xml version="1.0" encoding="UTF-8"?>
<svg width="1200px" height="675px" viewBox="0 0 1200 675" version="1.1" xmlns="http://www.w3.org/2000/svg" xmlns:xlink="http://www.w3.org/1999/xlink">
    <!-- Generator: Sketch 61.2 (89653) - https://sketch.com -->
    <title>Player Copy 12</title>
    <desc>Created with Sketch.</desc>
    <g id="Player-Copy-12" stroke="none" stroke-width="1" fill="none" fill-rule="evenodd">
        <path d="M98.838,155 L98.838,97.018 L121.522,97.018 L121.522,79.21 L55.484,79.21 L55.484,97.018 L78.168,97.018 L78.168,155 L98.838,155 Z M150.672,155 L150.672,124.366 L177.596,124.366 L177.596,155 L198.266,155 L198.266,79.21 L177.596,79.21 L177.596,106.558 L150.672,106.558 L150.672,79.21 L130.002,79.21 L130.002,155 L150.672,155 Z M268.544,155 L268.544,138.464 L232.398,138.464 L232.398,124.684 L262.29,124.684 L262.29,108.148 L232.398,108.148 L232.398,95.746 L266.53,95.746 L266.53,79.21 L212.258,79.21 L212.258,155 L268.544,155 Z M298.224,155 L298.224,108.996 C302.817333,116.345333 307.499,123.924333 312.269,131.733 C317.039,139.541667 321.685333,147.297333 326.208,155 L326.208,155 L346.984,155 L346.984,79.21 L327.268,79.21 L327.268,124.366 C322.674667,116.663333 318.046,109.031333 313.382,101.47 C308.718,93.9086667 304.018667,86.4886667 299.284,79.21 L299.284,79.21 L278.508,79.21 L278.508,155 L298.224,155 Z M405.284,155 L405.284,79.21 L384.614,79.21 L384.614,155 L405.284,155 Z M457.118,155 L457.118,97.018 L479.802,97.018 L479.802,79.21 L413.764,79.21 L413.764,97.018 L436.448,97.018 L436.448,155 L457.118,155 Z M497.292,110.904 C499.2,108.996 500.843,106.893667 502.221,104.597 C503.599,102.300333 504.676667,99.8976667 505.454,97.389 C506.231333,94.8803333 506.62,92.4953333 506.62,90.234 C506.62,86.418 505.772,83.503 504.076,81.489 C502.38,79.475 499.800667,78.468 496.338,78.468 C493.37,78.468 491.020333,79.3336667 489.289,81.065 C487.557667,82.7963333 486.692,85.0753333 486.692,87.902 C486.692,90.0926667 487.257333,91.93 488.388,93.414 C489.518667,94.898 491.073333,95.9226667 493.052,96.488 C491.709333,101.293333 488.706,106.098667 484.042,110.904 L484.042,110.904 L497.292,110.904 Z M541.918,156.59 C548.843333,156.59 554.726333,155.636 559.567,153.728 C564.407667,151.82 568.117667,149.028667 570.697,145.354 C573.276333,141.679333 574.566,137.227333 574.566,131.998 C574.566,128.040667 573.93,124.737 572.658,122.087 C571.386,119.437 569.584,117.246333 567.252,115.515 C564.92,113.783667 562.164,112.317333 558.984,111.116 C555.804,109.914667 552.270667,108.854667 548.384,107.936 C544.638667,107.017333 541.759,106.045667 539.745,105.021 C537.731,103.996333 536.724,102.459333 536.724,100.41 C536.724,98.4313333 537.695667,96.9296667 539.639,95.905 C541.582333,94.8803333 544.320667,94.368 547.854,94.368 C550.327333,94.368 552.889,94.5976667 555.539,95.057 C558.189,95.5163333 560.821333,96.1876667 563.436,97.071 C566.050667,97.9543333 568.524,99.1026667 570.856,100.516 L570.856,100.516 L570.856,82.814 C567.605333,81.1886667 563.966,79.9166667 559.938,78.998 C555.91,78.0793333 551.811333,77.62 547.642,77.62 C541.211333,77.62 535.628667,78.5916667 530.894,80.535 C526.159333,82.4783333 522.52,85.252 519.976,88.856 C517.432,92.46 516.16,96.806 516.16,101.894 C516.16,105.215333 516.654667,108.112667 517.644,110.586 C518.633333,113.059333 520.188,115.232333 522.308,117.105 C524.428,118.977667 527.184,120.620667 530.576,122.034 C533.968,123.447333 538.066667,124.719333 542.872,125.85 C545.062667,126.344667 546.970667,126.91 548.596,127.546 C550.221333,128.182 551.493333,128.941667 552.412,129.825 C553.330667,130.708333 553.79,131.892 553.79,133.376 C553.79,135.425333 552.765333,137.015333 550.716,138.146 C548.666667,139.276667 545.628,139.842 541.6,139.842 C537.501333,139.842 533.385,139.259 529.251,138.093 C525.117,136.927 521.071333,135.213333 517.114,132.952 L517.114,132.952 L517.114,150.866 C521.212667,152.844667 525.293667,154.293333 529.357,155.212 C533.420333,156.130667 537.607333,156.59 541.918,156.59 Z M642.406,156.59 C649.402,156.59 655.391,155.247333 660.373,152.562 C665.355,149.876667 669.171,146.007667 671.821,140.955 C674.471,135.902333 675.796,129.878 675.796,122.882 L675.796,122.882 L675.796,79.21 L655.444,79.21 L655.444,125.214 C655.444,129.524667 654.313333,132.863667 652.052,135.231 C649.790667,137.598333 646.575333,138.782 642.406,138.782 C638.307333,138.782 635.109667,137.598333 632.813,135.231 C630.516333,132.863667 629.368,129.524667 629.368,125.214 L629.368,125.214 L629.368,79.21 L608.698,79.21 L608.698,122.882 C608.698,129.878 610.040667,135.902333 612.726,140.955 C615.411333,146.007667 619.280333,149.876667 624.333,152.562 C629.385667,155.247333 635.41,156.59 642.406,156.59 Z M709.504,155 L709.504,130.938 L717.984,130.938 C724.838667,130.938 730.633333,129.931 735.368,127.917 C740.102667,125.903 743.706667,122.970333 746.18,119.119 C748.653333,115.267667 749.89,110.586 749.89,105.074 C749.89,96.7353333 747.151667,90.34 741.675,85.888 C736.198333,81.436 728.301333,79.21 717.984,79.21 L717.984,79.21 L689.47,79.21 L689.47,155 L709.504,155 Z M717.03,115.038 L709.504,115.038 L709.504,95.11 L717.03,95.11 C725.015333,95.11 729.008,98.4313333 729.008,105.074 C729.008,111.716667 725.015333,115.038 717.03,115.038 L717.03,115.038 Z M821.864,155 L821.864,97.018 L844.548,97.018 L844.548,79.21 L778.51,79.21 L778.51,97.018 L801.194,97.018 L801.194,155 L821.864,155 Z M888.75,156.59 C894.615333,156.59 899.915333,155.671333 904.65,153.834 C909.384667,151.996667 913.430333,149.346667 916.787,145.884 C920.143667,142.421333 922.723,138.252 924.525,133.376 C926.327,128.5 927.228,123.058667 927.228,117.052 C927.228,110.974667 926.327,105.515667 924.525,100.675 C922.723,95.8343333 920.143667,91.7003333 916.787,88.273 C913.430333,84.8456667 909.384667,82.2133333 904.65,80.376 C899.915333,78.5386667 894.615333,77.62 888.75,77.62 C882.884667,77.62 877.584667,78.5386667 872.85,80.376 C868.115333,82.2133333 864.069667,84.8456667 860.713,88.273 C857.356333,91.7003333 854.777,95.8343333 852.975,100.675 C851.173,105.515667 850.272,110.974667 850.272,117.052 C850.272,123.058667 851.173,128.5 852.975,133.376 C854.777,138.252 857.356333,142.421333 860.713,145.884 C864.069667,149.346667 868.115333,151.996667 872.85,153.834 C877.584667,155.671333 882.884667,156.59 888.75,156.59 Z M888.75,138.782 C883.238,138.782 879.015667,136.909333 876.083,133.164 C873.150333,129.418667 871.684,124.048 871.684,117.052 C871.684,110.126667 873.150333,104.791333 876.083,101.046 C879.015667,97.3006667 883.238,95.428 888.75,95.428 C894.262,95.428 898.484333,97.3006667 901.417,101.046 C904.349667,104.791333 905.816,110.126667 905.816,117.052 C905.816,124.048 904.349667,129.418667 901.417,133.164 C898.484333,136.909333 894.262,138.782 888.75,138.782 Z M104.138,265 L104.138,236.91 C109.014,228.995333 113.819333,221.063 118.554,213.113 C123.288667,205.163 127.917333,197.195333 132.44,189.21 L132.44,189.21 L109.756,189.21 C107.282667,194.227333 104.738667,199.262333 102.124,204.315 C99.5093333,209.367667 96.8946667,214.402667 94.28,219.42 C91.5946667,214.402667 88.9623333,209.385333 86.383,204.368 C83.8036667,199.350667 81.242,194.298 78.698,189.21 L78.698,189.21 L55.272,189.21 C59.724,197.195333 64.3173333,205.163 69.052,213.113 C73.7866667,221.063 78.592,228.995333 83.468,236.91 L83.468,236.91 L83.468,265 L104.138,265 Z M176.43,266.59 C182.295333,266.59 187.595333,265.671333 192.33,263.834 C197.064667,261.996667 201.110333,259.346667 204.467,255.884 C207.823667,252.421333 210.403,248.252 212.205,243.376 C214.007,238.5 214.908,233.058667 214.908,227.052 C214.908,220.974667 214.007,215.515667 212.205,210.675 C210.403,205.834333 207.823667,201.700333 204.467,198.273 C201.110333,194.845667 197.064667,192.213333 192.33,190.376 C187.595333,188.538667 182.295333,187.62 176.43,187.62 C170.564667,187.62 165.264667,188.538667 160.53,190.376 C155.795333,192.213333 151.749667,194.845667 148.393,198.273 C145.036333,201.700333 142.457,205.834333 140.655,210.675 C138.853,215.515667 137.952,220.974667 137.952,227.052 C137.952,233.058667 138.853,238.5 140.655,243.376 C142.457,248.252 145.036333,252.421333 148.393,255.884 C151.749667,259.346667 155.795333,261.996667 160.53,263.834 C165.264667,265.671333 170.564667,266.59 176.43,266.59 Z M176.43,248.782 C170.918,248.782 166.695667,246.909333 163.763,243.164 C160.830333,239.418667 159.364,234.048 159.364,227.052 C159.364,220.126667 160.830333,214.791333 163.763,211.046 C166.695667,207.300667 170.918,205.428 176.43,205.428 C181.942,205.428 186.164333,207.300667 189.097,211.046 C192.029667,214.791333 193.496,220.126667 193.496,227.052 C193.496,234.048 192.029667,239.418667 189.097,243.164 C186.164333,246.909333 181.942,248.782 176.43,248.782 Z M259.534,266.59 C266.53,266.59 272.519,265.247333 277.501,262.562 C282.483,259.876667 286.299,256.007667 288.949,250.955 C291.599,245.902333 292.924,239.878 292.924,232.882 L292.924,232.882 L292.924,189.21 L272.572,189.21 L272.572,235.214 C272.572,239.524667 271.441333,242.863667 269.18,245.231 C266.918667,247.598333 263.703333,248.782 259.534,248.782 C255.435333,248.782 252.237667,247.598333 249.941,245.231 C247.644333,242.863667 246.496,239.524667 246.496,235.214 L246.496,235.214 L246.496,189.21 L225.826,189.21 L225.826,232.882 C225.826,239.878 227.168667,245.902333 229.854,250.955 C232.539333,256.007667 236.408333,259.876667 241.461,262.562 C246.513667,265.247333 252.538,266.59 259.534,266.59 Z M345.924,265 C347.408,260.194667 348.856667,255.46 350.27,250.796 L350.27,250.796 L377.936,250.796 C378.642667,253.128 379.367,255.477667 380.109,257.845 C380.851,260.212333 381.575333,262.597333 382.282,265 L382.282,265 L404.648,265 C400.125333,252.350667 395.461333,239.701333 390.656,227.052 C385.850667,214.402667 380.904,201.788667 375.816,189.21 L375.816,189.21 L353.026,189.21 C348.079333,201.152667 343.203333,213.448667 338.398,226.098 C333.592667,238.747333 328.858,251.714667 324.194,265 L324.194,265 L345.924,265 Z M372.848,234.684 L355.358,234.684 C356.771333,230.302667 358.22,225.939 359.704,221.593 C361.188,217.247 362.672,212.883333 364.156,208.502 C365.64,212.812667 367.106333,217.141 368.555,221.487 C370.003667,225.833 371.434667,230.232 372.848,234.684 L372.848,234.684 Z M432.314,265 L432.314,218.996 C436.907333,226.345333 441.589,233.924333 446.359,241.733 C451.129,249.541667 455.775333,257.297333 460.298,265 L460.298,265 L481.074,265 L481.074,189.21 L461.358,189.21 L461.358,234.366 C456.764667,226.663333 452.136,219.031333 447.472,211.47 C442.808,203.908667 438.108667,196.488667 433.374,189.21 L433.374,189.21 L412.598,189.21 L412.598,265 L432.314,265 Z M525.912,265 C533.968,265 540.840333,263.498333 546.529,260.495 C552.217667,257.491667 556.563667,253.163333 559.567,247.51 C562.570333,241.856667 564.072,235.002 564.072,226.946 C564.072,218.960667 562.570333,212.159 559.567,206.541 C556.563667,200.923 552.217667,196.63 546.529,193.662 C540.840333,190.694 534.003333,189.21 526.018,189.21 L526.018,189.21 L495.066,189.21 L495.066,265 L525.912,265 Z M524.958,247.404 L515.736,247.404 L515.736,206.806 L525.064,206.806 C530.858667,206.806 535.24,208.519667 538.208,211.947 C541.176,215.374333 542.66,220.374 542.66,226.946 C542.66,233.588667 541.158333,238.659 538.155,242.157 C535.151667,245.655 530.752667,247.404 524.958,247.404 L524.958,247.404 Z M634.668,266.59 C640.533333,266.59 645.833333,265.671333 650.568,263.834 C655.302667,261.996667 659.348333,259.346667 662.705,255.884 C666.061667,252.421333 668.641,248.252 670.443,243.376 C672.245,238.5 673.146,233.058667 673.146,227.052 C673.146,220.974667 672.245,215.515667 670.443,210.675 C668.641,205.834333 666.061667,201.700333 662.705,198.273 C659.348333,194.845667 655.302667,192.213333 650.568,190.376 C645.833333,188.538667 640.533333,187.62 634.668,187.62 C628.802667,187.62 623.502667,188.538667 618.768,190.376 C614.033333,192.213333 609.987667,194.845667 606.631,198.273 C603.274333,201.700333 600.695,205.834333 598.893,210.675 C597.091,215.515667 596.19,220.974667 596.19,227.052 C596.19,233.058667 597.091,238.5 598.893,243.376 C600.695,248.252 603.274333,252.421333 606.631,255.884 C609.987667,259.346667 614.033333,261.996667 618.768,263.834 C623.502667,265.671333 628.802667,266.59 634.668,266.59 Z M634.668,248.782 C629.156,248.782 624.933667,246.909333 622.001,243.164 C619.068333,239.418667 617.602,234.048 617.602,227.052 C617.602,220.126667 619.068333,214.791333 622.001,211.046 C624.933667,207.300667 629.156,205.428 634.668,205.428 C640.18,205.428 644.402333,207.300667 647.335,211.046 C650.267667,214.791333 651.734,220.126667 651.734,227.052 C651.734,234.048 650.267667,239.418667 647.335,243.164 C644.402333,246.909333 640.18,248.782 634.668,248.782 Z M717.772,266.59 C724.768,266.59 730.757,265.247333 735.739,262.562 C740.721,259.876667 744.537,256.007667 747.187,250.955 C749.837,245.902333 751.162,239.878 751.162,232.882 L751.162,232.882 L751.162,189.21 L730.81,189.21 L730.81,235.214 C730.81,239.524667 729.679333,242.863667 727.418,245.231 C725.156667,247.598333 721.941333,248.782 717.772,248.782 C713.673333,248.782 710.475667,247.598333 708.179,245.231 C705.882333,242.863667 704.734,239.524667 704.734,235.214 L704.734,235.214 L704.734,189.21 L684.064,189.21 L684.064,232.882 C684.064,239.878 685.406667,245.902333 688.092,250.955 C690.777333,256.007667 694.646333,259.876667 699.699,262.562 C704.751667,265.247333 710.776,266.59 717.772,266.59 Z M784.87,265 L784.87,239.454 L795.258,239.454 C797.731333,243.623333 800.116333,247.845667 802.413,252.121 C804.709667,256.396333 806.988667,260.689333 809.25,265 L809.25,265 L832.04,265 C829.142667,259.841333 826.192333,254.788667 823.189,249.842 C820.185667,244.895333 817.129333,239.984 814.02,235.108 C817.977333,232.988 821.033667,230.161333 823.189,226.628 C825.344333,223.094667 826.422,218.996 826.422,214.332 C826.422,206.205333 823.630667,199.986667 818.048,195.676 C812.465333,191.365333 804.409333,189.21 793.88,189.21 L793.88,189.21 L764.836,189.21 L764.836,265 L784.87,265 Z M792.926,223.554 L784.87,223.554 L784.87,205.11 L792.926,205.11 C797.236667,205.11 800.416667,205.869667 802.466,207.389 C804.515333,208.908333 805.54,211.222667 805.54,214.332 C805.54,217.370667 804.515333,219.667333 802.466,221.222 C800.416667,222.776667 797.236667,223.554 792.926,223.554 L792.926,223.554 Z M81.03,375 L81.03,350.938 L89.51,350.938 C96.3646667,350.938 102.159333,349.931 106.894,347.917 C111.628667,345.903 115.232667,342.970333 117.706,339.119 C120.179333,335.267667 121.416,330.586 121.416,325.074 C121.416,316.735333 118.677667,310.34 113.201,305.888 C107.724333,301.436 99.8273333,299.21 89.51,299.21 L89.51,299.21 L60.996,299.21 L60.996,375 L81.03,375 Z M88.556,335.038 L81.03,335.038 L81.03,315.11 L88.556,315.11 C96.5413333,315.11 100.534,318.431333 100.534,325.074 C100.534,331.716667 96.5413333,335.038 88.556,335.038 L88.556,335.038 Z M186.288,375 L186.288,357.192 L152.58,357.192 L152.58,299.21 L131.91,299.21 L131.91,375 L186.288,375 Z M210.456,375 C211.94,370.194667 213.388667,365.46 214.802,360.796 L214.802,360.796 L242.468,360.796 C243.174667,363.128 243.899,365.477667 244.641,367.845 C245.383,370.212333 246.107333,372.597333 246.814,375 L246.814,375 L269.18,375 C264.657333,362.350667 259.993333,349.701333 255.188,337.052 C250.382667,324.402667 245.436,311.788667 240.348,299.21 L240.348,299.21 L217.558,299.21 C212.611333,311.152667 207.735333,323.448667 202.93,336.098 C198.124667,348.747333 193.39,361.714667 188.726,375 L188.726,375 L210.456,375 Z M237.38,344.684 L219.89,344.684 C221.303333,340.302667 222.752,335.939 224.236,331.593 C225.72,327.247 227.204,322.883333 228.688,318.502 C230.172,322.812667 231.638333,327.141 233.087,331.487 C234.535667,335.833 235.966667,340.232 237.38,344.684 L237.38,344.684 Z M320.272,375 L320.272,346.91 C325.148,338.995333 329.953333,331.063 334.688,323.113 C339.422667,315.163 344.051333,307.195333 348.574,299.21 L348.574,299.21 L325.89,299.21 C323.416667,304.227333 320.872667,309.262333 318.258,314.315 C315.643333,319.367667 313.028667,324.402667 310.414,329.42 C307.728667,324.402667 305.096333,319.385333 302.517,314.368 C299.937667,309.350667 297.376,304.298 294.832,299.21 L294.832,299.21 L271.406,299.21 C275.858,307.195333 280.451333,315.163 285.186,323.113 C289.920667,331.063 294.726,338.995333 299.602,346.91 L299.602,346.91 L299.602,375 L320.272,375 Z M413.128,375 L413.128,358.464 L376.982,358.464 L376.982,344.684 L406.874,344.684 L406.874,328.148 L376.982,328.148 L376.982,315.746 L411.114,315.746 L411.114,299.21 L356.842,299.21 L356.842,375 L413.128,375 Z M443.126,375 L443.126,349.454 L453.514,349.454 C455.987333,353.623333 458.372333,357.845667 460.669,362.121 C462.965667,366.396333 465.244667,370.689333 467.506,375 L467.506,375 L490.296,375 C487.398667,369.841333 484.448333,364.788667 481.445,359.842 C478.441667,354.895333 475.385333,349.984 472.276,345.108 C476.233333,342.988 479.289667,340.161333 481.445,336.628 C483.600333,333.094667 484.678,328.996 484.678,324.332 C484.678,316.205333 481.886667,309.986667 476.304,305.676 C470.721333,301.365333 462.665333,299.21 452.136,299.21 L452.136,299.21 L423.092,299.21 L423.092,375 L443.126,375 Z M451.182,333.554 L443.126,333.554 L443.126,315.11 L451.182,315.11 C455.492667,315.11 458.672667,315.869667 460.722,317.389 C462.771333,318.908333 463.796,321.222667 463.796,324.332 C463.796,327.370667 462.771333,329.667333 460.722,331.222 C458.672667,332.776667 455.492667,333.554 451.182,333.554 L451.182,333.554 Z M537.784,375 C539.268,370.194667 540.716667,365.46 542.13,360.796 L542.13,360.796 L569.796,360.796 C570.502667,363.128 571.227,365.477667 571.969,367.845 C572.711,370.212333 573.435333,372.597333 574.142,375 L574.142,375 L596.508,375 C591.985333,362.350667 587.321333,349.701333 582.516,337.052 C577.710667,324.402667 572.764,311.788667 567.676,299.21 L567.676,299.21 L544.886,299.21 C539.939333,311.152667 535.063333,323.448667 530.258,336.098 C525.452667,348.747333 520.718,361.714667 516.054,375 L516.054,375 L537.784,375 Z M564.708,344.684 L547.218,344.684 C548.631333,340.302667 550.08,335.939 551.564,331.593 C553.048,327.247 554.532,322.883333 556.016,318.502 C557.5,322.812667 558.966333,327.141 560.415,331.487 C561.863667,335.833 563.294667,340.232 564.708,344.684 L564.708,344.684 Z M642.3,375 L642.3,317.018 L664.984,317.018 L664.984,299.21 L598.946,299.21 L598.946,317.018 L621.63,317.018 L621.63,375 L642.3,375 Z M717.772,375 L717.772,344.366 L744.696,344.366 L744.696,375 L765.366,375 L765.366,299.21 L744.696,299.21 L744.696,326.558 L717.772,326.558 L717.772,299.21 L697.102,299.21 L697.102,375 L717.772,375 Z M815.08,376.59 C820.945333,376.59 826.245333,375.671333 830.98,373.834 C835.714667,371.996667 839.760333,369.346667 843.117,365.884 C846.473667,362.421333 849.053,358.252 850.855,353.376 C852.657,348.5 853.558,343.058667 853.558,337.052 C853.558,330.974667 852.657,325.515667 850.855,320.675 C849.053,315.834333 846.473667,311.700333 843.117,308.273 C839.760333,304.845667 835.714667,302.213333 830.98,300.376 C826.245333,298.538667 820.945333,297.62 815.08,297.62 C809.214667,297.62 803.914667,298.538667 799.18,300.376 C794.445333,302.213333 790.399667,304.845667 787.043,308.273 C783.686333,311.700333 781.107,315.834333 779.305,320.675 C777.503,325.515667 776.602,330.974667 776.602,337.052 C776.602,343.058667 777.503,348.5 779.305,353.376 C781.107,358.252 783.686333,362.421333 787.043,365.884 C790.399667,369.346667 794.445333,371.996667 799.18,373.834 C803.914667,375.671333 809.214667,376.59 815.08,376.59 Z M815.08,358.782 C809.568,358.782 805.345667,356.909333 802.413,353.164 C799.480333,349.418667 798.014,344.048 798.014,337.052 C798.014,330.126667 799.480333,324.791333 802.413,321.046 C805.345667,317.300667 809.568,315.428 815.08,315.428 C820.592,315.428 824.814333,317.300667 827.747,321.046 C830.679667,324.791333 832.146,330.126667 832.146,337.052 C832.146,344.048 830.679667,349.418667 827.747,353.164 C824.814333,356.909333 820.592,358.782 815.08,358.782 Z M884.086,375 L884.086,328.996 C886.418,334.366667 888.803,339.737333 891.241,345.108 C893.679,350.478667 896.134667,355.849333 898.608,361.22 L898.608,361.22 L914.508,361.22 C916.910667,355.849333 919.295667,350.461 921.663,345.055 C924.030333,339.649 926.38,334.19 928.712,328.678 L928.712,328.678 L928.712,375 L948.004,375 L948.004,299.21 L923.412,299.21 C920.726667,306.347333 918.006,313.396333 915.25,320.357 C912.494,327.317667 909.702667,334.19 906.876,340.974 C903.908,334.119333 900.993,327.194 898.131,320.198 C895.269,313.202 892.46,306.206 889.704,299.21 L889.704,299.21 L864.794,299.21 L864.794,375 L884.086,375 Z M1018.282,375 L1018.282,358.464 L982.136,358.464 L982.136,344.684 L1012.028,344.684 L1012.028,328.148 L982.136,328.148 L982.136,315.746 L1016.268,315.746 L1016.268,299.21 L961.996,299.21 L961.996,375 L1018.282,375 Z M98.838,485 L98.838,427.018 L121.522,427.018 L121.522,409.21 L55.484,409.21 L55.484,427.018 L78.168,427.018 L78.168,485 L98.838,485 Z M165.724,486.59 C171.589333,486.59 176.889333,485.671333 181.624,483.834 C186.358667,481.996667 190.404333,479.346667 193.761,475.884 C197.117667,472.421333 199.697,468.252 201.499,463.376 C203.301,458.5 204.202,453.058667 204.202,447.052 C204.202,440.974667 203.301,435.515667 201.499,430.675 C199.697,425.834333 197.117667,421.700333 193.761,418.273 C190.404333,414.845667 186.358667,412.213333 181.624,410.376 C176.889333,408.538667 171.589333,407.62 165.724,407.62 C159.858667,407.62 154.558667,408.538667 149.824,410.376 C145.089333,412.213333 141.043667,414.845667 137.687,418.273 C134.330333,421.700333 131.751,425.834333 129.949,430.675 C128.147,435.515667 127.246,440.974667 127.246,447.052 C127.246,453.058667 128.147,458.5 129.949,463.376 C131.751,468.252 134.330333,472.421333 137.687,475.884 C141.043667,479.346667 145.089333,481.996667 149.824,483.834 C154.558667,485.671333 159.858667,486.59 165.724,486.59 Z M165.724,468.782 C160.212,468.782 155.989667,466.909333 153.057,463.164 C150.124333,459.418667 148.658,454.048 148.658,447.052 C148.658,440.126667 150.124333,434.791333 153.057,431.046 C155.989667,427.300667 160.212,425.428 165.724,425.428 C171.236,425.428 175.458333,427.300667 178.391,431.046 C181.323667,434.791333 182.79,440.126667 182.79,447.052 C182.79,454.048 181.323667,459.418667 178.391,463.164 C175.458333,466.909333 171.236,468.782 165.724,468.782 Z M276.388,486.59 C279.78,486.59 283.189667,486.378 286.617,485.954 C290.044333,485.53 293.348,484.876333 296.528,483.993 C299.708,483.109667 302.534667,482.067333 305.008,480.866 L305.008,480.866 L305.008,441.328 L275.434,441.328 L275.434,456.592 L286.458,456.592 L286.458,467.934 C285.115333,468.287333 283.719667,468.552333 282.271,468.729 C280.822333,468.905667 279.391333,468.994 277.978,468.994 C271.335333,468.994 266.300333,467.139 262.873,463.429 C259.445667,459.719 257.732,454.26 257.732,447.052 C257.732,440.126667 259.693,434.791333 263.615,431.046 C267.537,427.300667 273.137333,425.428 280.416,425.428 C284.868,425.428 288.949,425.905 292.659,426.859 C296.369,427.813 299.814,429.173333 302.994,430.94 L302.994,430.94 L302.994,412.284 C295.574,409.174667 287.164667,407.62 277.766,407.62 C271.547333,407.62 265.894,408.556333 260.806,410.429 C255.718,412.301667 251.336667,414.969333 247.662,418.432 C243.987333,421.894667 241.178333,426.046333 239.235,430.887 C237.291667,435.727667 236.32,441.116 236.32,447.052 C236.32,453.2 237.238667,458.712 239.076,463.588 C240.913333,468.464 243.563333,472.615667 247.026,476.043 C250.488667,479.470333 254.693333,482.085 259.64,483.887 C264.586667,485.689 270.169333,486.59 276.388,486.59 Z M350.906,486.59 C357.902,486.59 363.891,485.247333 368.873,482.562 C373.855,479.876667 377.671,476.007667 380.321,470.955 C382.971,465.902333 384.296,459.878 384.296,452.882 L384.296,452.882 L384.296,409.21 L363.944,409.21 L363.944,455.214 C363.944,459.524667 362.813333,462.863667 360.552,465.231 C358.290667,467.598333 355.075333,468.782 350.906,468.782 C346.807333,468.782 343.609667,467.598333 341.313,465.231 C339.016333,462.863667 337.868,459.524667 337.868,455.214 L337.868,455.214 L337.868,409.21 L317.198,409.21 L317.198,452.882 C317.198,459.878 318.540667,465.902333 321.226,470.955 C323.911333,476.007667 327.780333,479.876667 332.833,482.562 C337.885667,485.247333 343.91,486.59 350.906,486.59 Z M454.256,485 L454.256,468.464 L418.11,468.464 L418.11,454.684 L448.002,454.684 L448.002,438.148 L418.11,438.148 L418.11,425.746 L452.242,425.746 L452.242,409.21 L397.97,409.21 L397.97,485 L454.256,485 Z M487.116,486.59 C494.041333,486.59 499.924333,485.636 504.765,483.728 C509.605667,481.82 513.315667,479.028667 515.895,475.354 C518.474333,471.679333 519.764,467.227333 519.764,461.998 C519.764,458.040667 519.128,454.737 517.856,452.087 C516.584,449.437 514.782,447.246333 512.45,445.515 C510.118,443.783667 507.362,442.317333 504.182,441.116 C501.002,439.914667 497.468667,438.854667 493.582,437.936 C489.836667,437.017333 486.957,436.045667 484.943,435.021 C482.929,433.996333 481.922,432.459333 481.922,430.41 C481.922,428.431333 482.893667,426.929667 484.837,425.905 C486.780333,424.880333 489.518667,424.368 493.052,424.368 C495.525333,424.368 498.087,424.597667 500.737,425.057 C503.387,425.516333 506.019333,426.187667 508.634,427.071 C511.248667,427.954333 513.722,429.102667 516.054,430.516 L516.054,430.516 L516.054,412.814 C512.803333,411.188667 509.164,409.916667 505.136,408.998 C501.108,408.079333 497.009333,407.62 492.84,407.62 C486.409333,407.62 480.826667,408.591667 476.092,410.535 C471.357333,412.478333 467.718,415.252 465.174,418.856 C462.63,422.46 461.358,426.806 461.358,431.894 C461.358,435.215333 461.852667,438.112667 462.842,440.586 C463.831333,443.059333 465.386,445.232333 467.506,447.105 C469.626,448.977667 472.382,450.620667 475.774,452.034 C479.166,453.447333 483.264667,454.719333 488.07,455.85 C490.260667,456.344667 492.168667,456.91 493.794,457.546 C495.419333,458.182 496.691333,458.941667 497.61,459.825 C498.528667,460.708333 498.988,461.892 498.988,463.376 C498.988,465.425333 497.963333,467.015333 495.914,468.146 C493.864667,469.276667 490.826,469.842 486.798,469.842 C482.699333,469.842 478.583,469.259 474.449,468.093 C470.315,466.927 466.269333,465.213333 462.312,462.952 L462.312,462.952 L462.312,480.866 C466.410667,482.844667 470.491667,484.293333 474.555,485.212 C478.618333,486.130667 482.805333,486.59 487.116,486.59 Z M553.472,486.59 C560.397333,486.59 566.280333,485.636 571.121,483.728 C575.961667,481.82 579.671667,479.028667 582.251,475.354 C584.830333,471.679333 586.12,467.227333 586.12,461.998 C586.12,458.040667 585.484,454.737 584.212,452.087 C582.94,449.437 581.138,447.246333 578.806,445.515 C576.474,443.783667 573.718,442.317333 570.538,441.116 C567.358,439.914667 563.824667,438.854667 559.938,437.936 C556.192667,437.017333 553.313,436.045667 551.299,435.021 C549.285,433.996333 548.278,432.459333 548.278,430.41 C548.278,428.431333 549.249667,426.929667 551.193,425.905 C553.136333,424.880333 555.874667,424.368 559.408,424.368 C561.881333,424.368 564.443,424.597667 567.093,425.057 C569.743,425.516333 572.375333,426.187667 574.99,427.071 C577.604667,427.954333 580.078,429.102667 582.41,430.516 L582.41,430.516 L582.41,412.814 C579.159333,411.188667 575.52,409.916667 571.492,408.998 C567.464,408.079333 563.365333,407.62 559.196,407.62 C552.765333,407.62 547.182667,408.591667 542.448,410.535 C537.713333,412.478333 534.074,415.252 531.53,418.856 C528.986,422.46 527.714,426.806 527.714,431.894 C527.714,435.215333 528.208667,438.112667 529.198,440.586 C530.187333,443.059333 531.742,445.232333 533.862,447.105 C535.982,448.977667 538.738,450.620667 542.13,452.034 C545.522,453.447333 549.620667,454.719333 554.426,455.85 C556.616667,456.344667 558.524667,456.91 560.15,457.546 C561.775333,458.182 563.047333,458.941667 563.966,459.825 C564.884667,460.708333 565.344,461.892 565.344,463.376 C565.344,465.425333 564.319333,467.015333 562.27,468.146 C560.220667,469.276667 557.182,469.842 553.154,469.842 C549.055333,469.842 544.939,469.259 540.805,468.093 C536.671,466.927 532.625333,465.213333 528.668,462.952 L528.668,462.952 L528.668,480.866 C532.766667,482.844667 536.847667,484.293333 540.911,485.212 C544.974333,486.130667 549.161333,486.59 553.472,486.59 Z M641.24,485 L641.24,454.366 L668.164,454.366 L668.164,485 L688.834,485 L688.834,409.21 L668.164,409.21 L668.164,436.558 L641.24,436.558 L641.24,409.21 L620.57,409.21 L620.57,485 L641.24,485 Z M738.548,486.59 C744.413333,486.59 749.713333,485.671333 754.448,483.834 C759.182667,481.996667 763.228333,479.346667 766.585,475.884 C769.941667,472.421333 772.521,468.252 774.323,463.376 C776.125,458.5 777.026,453.058667 777.026,447.052 C777.026,440.974667 776.125,435.515667 774.323,430.675 C772.521,425.834333 769.941667,421.700333 766.585,418.273 C763.228333,414.845667 759.182667,412.213333 754.448,410.376 C749.713333,408.538667 744.413333,407.62 738.548,407.62 C732.682667,407.62 727.382667,408.538667 722.648,410.376 C717.913333,412.213333 713.867667,414.845667 710.511,418.273 C707.154333,421.700333 704.575,425.834333 702.773,430.675 C700.971,435.515667 700.07,440.974667 700.07,447.052 C700.07,453.058667 700.971,458.5 702.773,463.376 C704.575,468.252 707.154333,472.421333 710.511,475.884 C713.867667,479.346667 717.913333,481.996667 722.648,483.834 C727.382667,485.671333 732.682667,486.59 738.548,486.59 Z M738.548,468.782 C733.036,468.782 728.813667,466.909333 725.881,463.164 C722.948333,459.418667 721.482,454.048 721.482,447.052 C721.482,440.126667 722.948333,434.791333 725.881,431.046 C728.813667,427.300667 733.036,425.428 738.548,425.428 C744.06,425.428 748.282333,427.300667 751.215,431.046 C754.147667,434.791333 755.614,440.126667 755.614,447.052 C755.614,454.048 754.147667,459.418667 751.215,463.164 C748.282333,466.909333 744.06,468.782 738.548,468.782 Z M823.242,485 C825.291333,477.226667 827.27,469.435667 829.178,461.627 C831.086,453.818333 832.994,445.992 834.902,438.148 C836.739333,445.992 838.647333,453.818333 840.626,461.627 C842.604667,469.435667 844.618667,477.226667 846.668,485 L846.668,485 L868.08,485 C871.613333,472.633333 874.987667,460.125333 878.203,447.476 C881.418333,434.826667 884.439333,422.071333 887.266,409.21 L887.266,409.21 L865.536,409.21 C864.193333,418.043333 862.762333,426.876667 861.243,435.71 C859.723667,444.543333 858.116,453.270667 856.42,461.892 C854.512,453.694667 852.621667,445.479667 850.749,437.247 C848.876333,429.014333 847.056667,420.728667 845.29,412.39 L845.29,412.39 L825.468,412.39 C823.701333,420.87 821.864,429.367667 819.956,437.883 C818.048,446.398333 816.069333,454.931333 814.02,463.482 C812.324,454.648667 810.698667,445.674 809.144,436.558 C807.589333,427.442 806.140667,418.326 804.798,409.21 L804.798,409.21 L782.644,409.21 C785.541333,422.071333 788.597667,434.826667 791.813,447.476 C795.028333,460.125333 798.367333,472.633333 801.83,485 L801.83,485 L823.242,485 Z M96.718,596.59 C102.583333,596.59 107.883333,595.671333 112.618,593.834 C117.352667,591.996667 121.398333,589.346667 124.755,585.884 C128.111667,582.421333 130.691,578.252 132.493,573.376 C134.295,568.5 135.196,563.058667 135.196,557.052 C135.196,550.974667 134.295,545.515667 132.493,540.675 C130.691,535.834333 128.111667,531.700333 124.755,528.273 C121.398333,524.845667 117.352667,522.213333 112.618,520.376 C107.883333,518.538667 102.583333,517.62 96.718,517.62 C90.8526667,517.62 85.5526667,518.538667 80.818,520.376 C76.0833333,522.213333 72.0376667,524.845667 68.681,528.273 C65.3243333,531.700333 62.745,535.834333 60.943,540.675 C59.141,545.515667 58.24,550.974667 58.24,557.052 C58.24,563.058667 59.141,568.5 60.943,573.376 C62.745,578.252 65.3243333,582.421333 68.681,585.884 C72.0376667,589.346667 76.0833333,591.996667 80.818,593.834 C85.5526667,595.671333 90.8526667,596.59 96.718,596.59 Z M96.718,578.782 C91.206,578.782 86.9836667,576.909333 84.051,573.164 C81.1183333,569.418667 79.652,564.048 79.652,557.052 C79.652,550.126667 81.1183333,544.791333 84.051,541.046 C86.9836667,537.300667 91.206,535.428 96.718,535.428 C102.23,535.428 106.452333,537.300667 109.385,541.046 C112.317667,544.791333 113.784,550.126667 113.784,557.052 C113.784,564.048 112.317667,569.418667 109.385,573.164 C106.452333,576.909333 102.23,578.782 96.718,578.782 Z M200.81,595 L200.81,577.192 L167.102,577.192 L167.102,519.21 L146.432,519.21 L146.432,595 L200.81,595 Z M240.136,595 C248.192,595 255.064333,593.498333 260.753,590.495 C266.441667,587.491667 270.787667,583.163333 273.791,577.51 C276.794333,571.856667 278.296,565.002 278.296,556.946 C278.296,548.960667 276.794333,542.159 273.791,536.541 C270.787667,530.923 266.441667,526.63 260.753,523.662 C255.064333,520.694 248.227333,519.21 240.242,519.21 L240.242,519.21 L209.29,519.21 L209.29,595 L240.136,595 Z M239.182,577.404 L229.96,577.404 L229.96,536.806 L239.288,536.806 C245.082667,536.806 249.464,538.519667 252.432,541.947 C255.4,545.374333 256.884,550.374 256.884,556.946 C256.884,563.588667 255.382333,568.659 252.379,572.157 C249.375667,575.655 244.976667,577.404 239.182,577.404 L239.182,577.404 Z M336.066,596.59 C342.991333,596.59 348.874333,595.636 353.715,593.728 C358.555667,591.82 362.265667,589.028667 364.845,585.354 C367.424333,581.679333 368.714,577.227333 368.714,571.998 C368.714,568.040667 368.078,564.737 366.806,562.087 C365.534,559.437 363.732,557.246333 361.4,555.515 C359.068,553.783667 356.312,552.317333 353.132,551.116 C349.952,549.914667 346.418667,548.854667 342.532,547.936 C338.786667,547.017333 335.907,546.045667 333.893,545.021 C331.879,543.996333 330.872,542.459333 330.872,540.41 C330.872,538.431333 331.843667,536.929667 333.787,535.905 C335.730333,534.880333 338.468667,534.368 342.002,534.368 C344.475333,534.368 347.037,534.597667 349.687,535.057 C352.337,535.516333 354.969333,536.187667 357.584,537.071 C360.198667,537.954333 362.672,539.102667 365.004,540.516 L365.004,540.516 L365.004,522.814 C361.753333,521.188667 358.114,519.916667 354.086,518.998 C350.058,518.079333 345.959333,517.62 341.79,517.62 C335.359333,517.62 329.776667,518.591667 325.042,520.535 C320.307333,522.478333 316.668,525.252 314.124,528.856 C311.58,532.46 310.308,536.806 310.308,541.894 C310.308,545.215333 310.802667,548.112667 311.792,550.586 C312.781333,553.059333 314.336,555.232333 316.456,557.105 C318.576,558.977667 321.332,560.620667 324.724,562.034 C328.116,563.447333 332.214667,564.719333 337.02,565.85 C339.210667,566.344667 341.118667,566.91 342.744,567.546 C344.369333,568.182 345.641333,568.941667 346.56,569.825 C347.478667,570.708333 347.938,571.892 347.938,573.376 C347.938,575.425333 346.913333,577.015333 344.864,578.146 C342.814667,579.276667 339.776,579.842 335.748,579.842 C331.649333,579.842 327.533,579.259 323.399,578.093 C319.265,576.927 315.219333,575.213333 311.262,572.952 L311.262,572.952 L311.262,590.866 C315.360667,592.844667 319.441667,594.293333 323.505,595.212 C327.568333,596.130667 331.755333,596.59 336.066,596.59 Z M400.196,595 L400.196,564.366 L427.12,564.366 L427.12,595 L447.79,595 L447.79,519.21 L427.12,519.21 L427.12,546.558 L400.196,546.558 L400.196,519.21 L379.526,519.21 L379.526,595 L400.196,595 Z M518.068,595 L518.068,578.464 L481.922,578.464 L481.922,564.684 L511.814,564.684 L511.814,548.148 L481.922,548.148 L481.922,535.746 L516.054,535.746 L516.054,519.21 L461.782,519.21 L461.782,595 L518.068,595 Z M572.34,595 L572.34,519.21 L551.67,519.21 L551.67,595 L572.34,595 Z M609.228,596.59 C616.153333,596.59 622.036333,595.636 626.877,593.728 C631.717667,591.82 635.427667,589.028667 638.007,585.354 C640.586333,581.679333 641.876,577.227333 641.876,571.998 C641.876,568.040667 641.24,564.737 639.968,562.087 C638.696,559.437 636.894,557.246333 634.562,555.515 C632.23,553.783667 629.474,552.317333 626.294,551.116 C623.114,549.914667 619.580667,548.854667 615.694,547.936 C611.948667,547.017333 609.069,546.045667 607.055,545.021 C605.041,543.996333 604.034,542.459333 604.034,540.41 C604.034,538.431333 605.005667,536.929667 606.949,535.905 C608.892333,534.880333 611.630667,534.368 615.164,534.368 C617.637333,534.368 620.199,534.597667 622.849,535.057 C625.499,535.516333 628.131333,536.187667 630.746,537.071 C633.360667,537.954333 635.834,539.102667 638.166,540.516 L638.166,540.516 L638.166,522.814 C634.915333,521.188667 631.276,519.916667 627.248,518.998 C623.22,518.079333 619.121333,517.62 614.952,517.62 C608.521333,517.62 602.938667,518.591667 598.204,520.535 C593.469333,522.478333 589.83,525.252 587.286,528.856 C584.742,532.46 583.47,536.806 583.47,541.894 C583.47,545.215333 583.964667,548.112667 584.954,550.586 C585.943333,553.059333 587.498,555.232333 589.618,557.105 C591.738,558.977667 594.494,560.620667 597.886,562.034 C601.278,563.447333 605.376667,564.719333 610.182,565.85 C612.372667,566.344667 614.280667,566.91 615.906,567.546 C617.531333,568.182 618.803333,568.941667 619.722,569.825 C620.640667,570.708333 621.1,571.892 621.1,573.376 C621.1,575.425333 620.075333,577.015333 618.026,578.146 C615.976667,579.276667 612.938,579.842 608.91,579.842 C604.811333,579.842 600.695,579.259 596.561,578.093 C592.427,576.927 588.381333,575.213333 584.424,572.952 L584.424,572.952 L584.424,590.866 C588.522667,592.844667 592.603667,594.293333 596.667,595.212 C600.730333,596.130667 604.917333,596.59 609.228,596.59 Z M661.062,595.954 C663.323333,595.954 665.266667,595.477 666.892,594.523 C668.517333,593.569 669.771667,592.297 670.655,590.707 C671.538333,589.117 671.98,587.368 671.98,585.46 C671.98,583.552 671.538333,581.803 670.655,580.213 C669.771667,578.623 668.517333,577.368667 666.892,576.45 C665.266667,575.531333 663.323333,575.072 661.062,575.072 C658.800667,575.072 656.857333,575.531333 655.232,576.45 C653.606667,577.368667 652.352333,578.623 651.469,580.213 C650.585667,581.803 650.144,583.552 650.144,585.46 C650.144,587.368 650.585667,589.117 651.469,590.707 C652.352333,592.297 653.606667,593.569 655.232,594.523 C656.857333,595.477 658.800667,595.954 661.062,595.954 Z" id="THENIT’SUPTOYOUANDOURPLAYERATHOMETOGUESSHOWOLDSHEIS." fill="#FFFFFF" fill-rule="nonzero"></path>
    </g>
</svg>