<?xml version="1.0" encoding="UTF-8"?>
<svg width="1200px" height="675px" viewBox="0 0 1200 675" version="1.1" xmlns="http://www.w3.org/2000/svg" xmlns:xlink="http://www.w3.org/1999/xlink">
    <!-- Generator: Sketch 61.2 (89653) - https://sketch.com -->
    <title>Player Copy 12</title>
    <desc>Created with Sketch.</desc>
    <g id="Player-Copy-12" stroke="none" stroke-width="1" fill="none" fill-rule="evenodd">
        <path d="M95.976,155 C98.0253333,147.226667 100.004,139.435667 101.912,131.627 C103.82,123.818333 105.728,115.992 107.636,108.148 C109.473333,115.992 111.381333,123.818333 113.36,131.627 C115.338667,139.435667 117.352667,147.226667 119.402,155 L119.402,155 L140.814,155 C144.347333,142.633333 147.721667,130.125333 150.937,117.476 C154.152333,104.826667 157.173333,92.0713333 160,79.21 L160,79.21 L138.27,79.21 C136.927333,88.0433333 135.496333,96.8766667 133.977,105.71 C132.457667,114.543333 130.85,123.270667 129.154,131.892 C127.246,123.694667 125.355667,115.479667 123.483,107.247 C121.610333,99.0143333 119.790667,90.7286667 118.024,82.39 L118.024,82.39 L98.202,82.39 C96.4353333,90.87 94.598,99.3676667 92.69,107.883 C90.782,116.398333 88.8033333,124.931333 86.754,133.482 C85.058,124.648667 83.4326667,115.674 81.878,106.558 C80.3233333,97.442 78.8746667,88.326 77.532,79.21 L77.532,79.21 L55.378,79.21 C58.2753333,92.0713333 61.3316667,104.826667 64.547,117.476 C67.7623333,130.125333 71.1013333,142.633333 74.564,155 L74.564,155 L95.976,155 Z M224.66,155 L224.66,138.464 L188.514,138.464 L188.514,124.684 L218.406,124.684 L218.406,108.148 L188.514,108.148 L188.514,95.746 L222.646,95.746 L222.646,79.21 L168.374,79.21 L168.374,155 L224.66,155 Z M273.95,155 C275.434,150.194667 276.882667,145.46 278.296,140.796 L278.296,140.796 L305.962,140.796 C306.668667,143.128 307.393,145.477667 308.135,147.845 C308.877,150.212333 309.601333,152.597333 310.308,155 L310.308,155 L332.674,155 C328.151333,142.350667 323.487333,129.701333 318.682,117.052 C313.876667,104.402667 308.93,91.7886667 303.842,79.21 L303.842,79.21 L281.052,79.21 C276.105333,91.1526667 271.229333,103.448667 266.424,116.098 C261.618667,128.747333 256.884,141.714667 252.22,155 L252.22,155 L273.95,155 Z M300.874,124.684 L283.384,124.684 C284.797333,120.302667 286.246,115.939 287.73,111.593 C289.214,107.247 290.698,102.883333 292.182,98.502 C293.666,102.812667 295.132333,107.141 296.581,111.487 C298.029667,115.833 299.460667,120.232 300.874,124.684 L300.874,124.684 Z M360.658,155 L360.658,129.454 L371.046,129.454 C373.519333,133.623333 375.904333,137.845667 378.201,142.121 C380.497667,146.396333 382.776667,150.689333 385.038,155 L385.038,155 L407.828,155 C404.930667,149.841333 401.980333,144.788667 398.977,139.842 C395.973667,134.895333 392.917333,129.984 389.808,125.108 C393.765333,122.988 396.821667,120.161333 398.977,116.628 C401.132333,113.094667 402.21,108.996 402.21,104.332 C402.21,96.2053333 399.418667,89.9866667 393.836,85.676 C388.253333,81.3653333 380.197333,79.21 369.668,79.21 L369.668,79.21 L340.624,79.21 L340.624,155 L360.658,155 Z M368.714,113.554 L360.658,113.554 L360.658,95.11 L368.714,95.11 C373.024667,95.11 376.204667,95.8696667 378.254,97.389 C380.303333,98.9083333 381.328,101.222667 381.328,104.332 C381.328,107.370667 380.303333,109.667333 378.254,111.222 C376.204667,112.776667 373.024667,113.554 368.714,113.554 L368.714,113.554 Z M472.276,155 L472.276,138.464 L436.13,138.464 L436.13,124.684 L466.022,124.684 L466.022,108.148 L436.13,108.148 L436.13,95.746 L470.262,95.746 L470.262,79.21 L415.99,79.21 L415.99,155 L472.276,155 Z M543.19,156.59 C546.582,156.59 549.991667,156.378 553.419,155.954 C556.846333,155.53 560.15,154.876333 563.33,153.993 C566.51,153.109667 569.336667,152.067333 571.81,150.866 L571.81,150.866 L571.81,111.328 L542.236,111.328 L542.236,126.592 L553.26,126.592 L553.26,137.934 C551.917333,138.287333 550.521667,138.552333 549.073,138.729 C547.624333,138.905667 546.193333,138.994 544.78,138.994 C538.137333,138.994 533.102333,137.139 529.675,133.429 C526.247667,129.719 524.534,124.26 524.534,117.052 C524.534,110.126667 526.495,104.791333 530.417,101.046 C534.339,97.3006667 539.939333,95.428 547.218,95.428 C551.67,95.428 555.751,95.905 559.461,96.859 C563.171,97.813 566.616,99.1733333 569.796,100.94 L569.796,100.94 L569.796,82.284 C562.376,79.1746667 553.966667,77.62 544.568,77.62 C538.349333,77.62 532.696,78.5563333 527.608,80.429 C522.52,82.3016667 518.138667,84.9693333 514.464,88.432 C510.789333,91.8946667 507.980333,96.0463333 506.037,100.887 C504.093667,105.727667 503.122,111.116 503.122,117.052 C503.122,123.2 504.040667,128.712 505.878,133.588 C507.715333,138.464 510.365333,142.615667 513.828,146.043 C517.290667,149.470333 521.495333,152.085 526.442,153.887 C531.388667,155.689 536.971333,156.59 543.19,156.59 Z M620.04,156.59 C625.905333,156.59 631.205333,155.671333 635.94,153.834 C640.674667,151.996667 644.720333,149.346667 648.077,145.884 C651.433667,142.421333 654.013,138.252 655.815,133.376 C657.617,128.5 658.518,123.058667 658.518,117.052 C658.518,110.974667 657.617,105.515667 655.815,100.675 C654.013,95.8343333 651.433667,91.7003333 648.077,88.273 C644.720333,84.8456667 640.674667,82.2133333 635.94,80.376 C631.205333,78.5386667 625.905333,77.62 620.04,77.62 C614.174667,77.62 608.874667,78.5386667 604.14,80.376 C599.405333,82.2133333 595.359667,84.8456667 592.003,88.273 C588.646333,91.7003333 586.067,95.8343333 584.265,100.675 C582.463,105.515667 581.562,110.974667 581.562,117.052 C581.562,123.058667 582.463,128.5 584.265,133.376 C586.067,138.252 588.646333,142.421333 592.003,145.884 C595.359667,149.346667 599.405333,151.996667 604.14,153.834 C608.874667,155.671333 614.174667,156.59 620.04,156.59 Z M620.04,138.782 C614.528,138.782 610.305667,136.909333 607.373,133.164 C604.440333,129.418667 602.974,124.048 602.974,117.052 C602.974,110.126667 604.440333,104.791333 607.373,101.046 C610.305667,97.3006667 614.528,95.428 620.04,95.428 C625.552,95.428 629.774333,97.3006667 632.707,101.046 C635.639667,104.791333 637.106,110.126667 637.106,117.052 C637.106,124.048 635.639667,129.418667 632.707,133.164 C629.774333,136.909333 625.552,138.782 620.04,138.782 Z M690.424,155 L690.424,79.21 L669.754,79.21 L669.754,155 L690.424,155 Z M724.132,155 L724.132,108.996 C728.725333,116.345333 733.407,123.924333 738.177,131.733 C742.947,139.541667 747.593333,147.297333 752.116,155 L752.116,155 L772.892,155 L772.892,79.21 L753.176,79.21 L753.176,124.366 C748.582667,116.663333 743.954,109.031333 739.29,101.47 C734.626,93.9086667 729.926667,86.4886667 725.192,79.21 L725.192,79.21 L704.416,79.21 L704.416,155 L724.132,155 Z M824.196,156.59 C827.588,156.59 830.997667,156.378 834.425,155.954 C837.852333,155.53 841.156,154.876333 844.336,153.993 C847.516,153.109667 850.342667,152.067333 852.816,150.866 L852.816,150.866 L852.816,111.328 L823.242,111.328 L823.242,126.592 L834.266,126.592 L834.266,137.934 C832.923333,138.287333 831.527667,138.552333 830.079,138.729 C828.630333,138.905667 827.199333,138.994 825.786,138.994 C819.143333,138.994 814.108333,137.139 810.681,133.429 C807.253667,129.719 805.54,124.26 805.54,117.052 C805.54,110.126667 807.501,104.791333 811.423,101.046 C815.345,97.3006667 820.945333,95.428 828.224,95.428 C832.676,95.428 836.757,95.905 840.467,96.859 C844.177,97.813 847.622,99.1733333 850.802,100.94 L850.802,100.94 L850.802,82.284 C843.382,79.1746667 834.972667,77.62 825.574,77.62 C819.355333,77.62 813.702,78.5563333 808.614,80.429 C803.526,82.3016667 799.144667,84.9693333 795.47,88.432 C791.795333,91.8946667 788.986333,96.0463333 787.043,100.887 C785.099667,105.727667 784.128,111.116 784.128,117.052 C784.128,123.2 785.046667,128.712 786.884,133.588 C788.721333,138.464 791.371333,142.615667 794.834,146.043 C798.296667,149.470333 802.501333,152.085 807.448,153.887 C812.394667,155.689 817.977333,156.59 824.196,156.59 Z M926.804,155 L926.804,97.018 L949.488,97.018 L949.488,79.21 L883.45,79.21 L883.45,97.018 L906.134,97.018 L906.134,155 L926.804,155 Z M993.69,156.59 C999.555333,156.59 1004.85533,155.671333 1009.59,153.834 C1014.32467,151.996667 1018.37033,149.346667 1021.727,145.884 C1025.08367,142.421333 1027.663,138.252 1029.465,133.376 C1031.267,128.5 1032.168,123.058667 1032.168,117.052 C1032.168,110.974667 1031.267,105.515667 1029.465,100.675 C1027.663,95.8343333 1025.08367,91.7003333 1021.727,88.273 C1018.37033,84.8456667 1014.32467,82.2133333 1009.59,80.376 C1004.85533,78.5386667 999.555333,77.62 993.69,77.62 C987.824667,77.62 982.524667,78.5386667 977.79,80.376 C973.055333,82.2133333 969.009667,84.8456667 965.653,88.273 C962.296333,91.7003333 959.717,95.8343333 957.915,100.675 C956.113,105.515667 955.212,110.974667 955.212,117.052 C955.212,123.058667 956.113,128.5 957.915,133.376 C959.717,138.252 962.296333,142.421333 965.653,145.884 C969.009667,149.346667 973.055333,151.996667 977.79,153.834 C982.524667,155.671333 987.824667,156.59 993.69,156.59 Z M993.69,138.782 C988.178,138.782 983.955667,136.909333 981.023,133.164 C978.090333,129.418667 976.624,124.048 976.624,117.052 C976.624,110.126667 978.090333,104.791333 981.023,101.046 C983.955667,97.3006667 988.178,95.428 993.69,95.428 C999.202,95.428 1003.42433,97.3006667 1006.357,101.046 C1009.28967,104.791333 1010.756,110.126667 1010.756,117.052 C1010.756,124.048 1009.28967,129.418667 1006.357,133.164 C1003.42433,136.909333 999.202,138.782 993.69,138.782 Z M76.684,265 C78.168,260.194667 79.6166667,255.46 81.03,250.796 L81.03,250.796 L108.696,250.796 C109.402667,253.128 110.127,255.477667 110.869,257.845 C111.611,260.212333 112.335333,262.597333 113.042,265 L113.042,265 L135.408,265 C130.885333,252.350667 126.221333,239.701333 121.416,227.052 C116.610667,214.402667 111.664,201.788667 106.576,189.21 L106.576,189.21 L83.786,189.21 C78.8393333,201.152667 73.9633333,213.448667 69.158,226.098 C64.3526667,238.747333 59.618,251.714667 54.954,265 L54.954,265 L76.684,265 Z M103.608,234.684 L86.118,234.684 C87.5313333,230.302667 88.98,225.939 90.464,221.593 C91.948,217.247 93.432,212.883333 94.916,208.502 C96.4,212.812667 97.8663333,217.141 99.315,221.487 C100.763667,225.833 102.194667,230.232 103.608,234.684 L103.608,234.684 Z M166.254,266.59 C173.179333,266.59 179.062333,265.636 183.903,263.728 C188.743667,261.82 192.453667,259.028667 195.033,255.354 C197.612333,251.679333 198.902,247.227333 198.902,241.998 C198.902,238.040667 198.266,234.737 196.994,232.087 C195.722,229.437 193.92,227.246333 191.588,225.515 C189.256,223.783667 186.5,222.317333 183.32,221.116 C180.14,219.914667 176.606667,218.854667 172.72,217.936 C168.974667,217.017333 166.095,216.045667 164.081,215.021 C162.067,213.996333 161.06,212.459333 161.06,210.41 C161.06,208.431333 162.031667,206.929667 163.975,205.905 C165.918333,204.880333 168.656667,204.368 172.19,204.368 C174.663333,204.368 177.225,204.597667 179.875,205.057 C182.525,205.516333 185.157333,206.187667 187.772,207.071 C190.386667,207.954333 192.86,209.102667 195.192,210.516 L195.192,210.516 L195.192,192.814 C191.941333,191.188667 188.302,189.916667 184.274,188.998 C180.246,188.079333 176.147333,187.62 171.978,187.62 C165.547333,187.62 159.964667,188.591667 155.23,190.535 C150.495333,192.478333 146.856,195.252 144.312,198.856 C141.768,202.46 140.496,206.806 140.496,211.894 C140.496,215.215333 140.990667,218.112667 141.98,220.586 C142.969333,223.059333 144.524,225.232333 146.644,227.105 C148.764,228.977667 151.52,230.620667 154.912,232.034 C158.304,233.447333 162.402667,234.719333 167.208,235.85 C169.398667,236.344667 171.306667,236.91 172.932,237.546 C174.557333,238.182 175.829333,238.941667 176.748,239.825 C177.666667,240.708333 178.126,241.892 178.126,243.376 C178.126,245.425333 177.101333,247.015333 175.052,248.146 C173.002667,249.276667 169.964,249.842 165.936,249.842 C161.837333,249.842 157.721,249.259 153.587,248.093 C149.453,246.927 145.407333,245.213333 141.45,242.952 L141.45,242.952 L141.45,260.866 C145.548667,262.844667 149.629667,264.293333 153.693,265.212 C157.756333,266.130667 161.943333,266.59 166.254,266.59 Z M230.384,265 L230.384,233.73 L234.094,233.73 C238.051333,239.03 241.885,244.259333 245.595,249.418 C249.305,254.576667 252.997333,259.770667 256.672,265 L256.672,265 L282.536,265 C277.306667,258.074667 272.130333,251.273 267.007,244.595 C261.883667,237.917 256.707333,231.327333 251.478,224.826 C256.354,218.89 261.124,212.954 265.788,207.018 C270.452,201.082 275.045333,195.146 279.568,189.21 L279.568,189.21 L255.188,189.21 C251.937333,193.803333 248.616,198.414333 245.224,203.043 C241.832,207.671667 238.263333,212.388667 234.518,217.194 L234.518,217.194 L230.384,217.194 L230.384,189.21 L209.714,189.21 L209.714,265 L230.384,265 Z M333.098,265 L333.098,218.996 C335.43,224.366667 337.815,229.737333 340.253,235.108 C342.691,240.478667 345.146667,245.849333 347.62,251.22 L347.62,251.22 L363.52,251.22 C365.922667,245.849333 368.307667,240.461 370.675,235.055 C373.042333,229.649 375.392,224.19 377.724,218.678 L377.724,218.678 L377.724,265 L397.016,265 L397.016,189.21 L372.424,189.21 C369.738667,196.347333 367.018,203.396333 364.262,210.357 C361.506,217.317667 358.714667,224.19 355.888,230.974 C352.92,224.119333 350.005,217.194 347.143,210.198 C344.281,203.202 341.472,196.206 338.716,189.21 L338.716,189.21 L313.806,189.21 L313.806,265 L333.098,265 Z M467.294,265 L467.294,248.464 L431.148,248.464 L431.148,234.684 L461.04,234.684 L461.04,218.148 L431.148,218.148 L431.148,205.746 L465.28,205.746 L465.28,189.21 L411.008,189.21 L411.008,265 L467.294,265 Z M531.636,265 L531.636,247.192 L497.928,247.192 L497.928,189.21 L477.258,189.21 L477.258,265 L531.636,265 Z M579.442,265 C580.926,260.194667 582.374667,255.46 583.788,250.796 L583.788,250.796 L611.454,250.796 C612.160667,253.128 612.885,255.477667 613.627,257.845 C614.369,260.212333 615.093333,262.597333 615.8,265 L615.8,265 L638.166,265 C633.643333,252.350667 628.979333,239.701333 624.174,227.052 C619.368667,214.402667 614.422,201.788667 609.334,189.21 L609.334,189.21 L586.544,189.21 C581.597333,201.152667 576.721333,213.448667 571.916,226.098 C567.110667,238.747333 562.376,251.714667 557.712,265 L557.712,265 L579.442,265 Z M606.366,234.684 L588.876,234.684 C590.289333,230.302667 591.738,225.939 593.222,221.593 C594.706,217.247 596.19,212.883333 597.674,208.502 C599.158,212.812667 600.624333,217.141 602.073,221.487 C603.521667,225.833 604.952667,230.232 606.366,234.684 L606.366,234.684 Z M724.132,265 L724.132,247.192 L690.424,247.192 L690.424,189.21 L669.754,189.21 L669.754,265 L724.132,265 Z M768.334,266.59 C774.199333,266.59 779.499333,265.671333 784.234,263.834 C788.968667,261.996667 793.014333,259.346667 796.371,255.884 C799.727667,252.421333 802.307,248.252 804.109,243.376 C805.911,238.5 806.812,233.058667 806.812,227.052 C806.812,220.974667 805.911,215.515667 804.109,210.675 C802.307,205.834333 799.727667,201.700333 796.371,198.273 C793.014333,194.845667 788.968667,192.213333 784.234,190.376 C779.499333,188.538667 774.199333,187.62 768.334,187.62 C762.468667,187.62 757.168667,188.538667 752.434,190.376 C747.699333,192.213333 743.653667,194.845667 740.297,198.273 C736.940333,201.700333 734.361,205.834333 732.559,210.675 C730.757,215.515667 729.856,220.974667 729.856,227.052 C729.856,233.058667 730.757,238.5 732.559,243.376 C734.361,248.252 736.940333,252.421333 740.297,255.884 C743.653667,259.346667 747.699333,261.996667 752.434,263.834 C757.168667,265.671333 762.468667,266.59 768.334,266.59 Z M768.334,248.782 C762.822,248.782 758.599667,246.909333 755.667,243.164 C752.734333,239.418667 751.268,234.048 751.268,227.052 C751.268,220.126667 752.734333,214.791333 755.667,211.046 C758.599667,207.300667 762.822,205.428 768.334,205.428 C773.846,205.428 778.068333,207.300667 781.001,211.046 C783.933667,214.791333 785.4,220.126667 785.4,227.052 C785.4,234.048 783.933667,239.418667 781.001,243.164 C778.068333,246.909333 773.846,248.782 768.334,248.782 Z M833.736,265 C835.22,260.194667 836.668667,255.46 838.082,250.796 L838.082,250.796 L865.748,250.796 C866.454667,253.128 867.179,255.477667 867.921,257.845 C868.663,260.212333 869.387333,262.597333 870.094,265 L870.094,265 L892.46,265 C887.937333,252.350667 883.273333,239.701333 878.468,227.052 C873.662667,214.402667 868.716,201.788667 863.628,189.21 L863.628,189.21 L840.838,189.21 C835.891333,201.152667 831.015333,213.448667 826.21,226.098 C821.404667,238.747333 816.67,251.714667 812.006,265 L812.006,265 L833.736,265 Z M860.66,234.684 L843.17,234.684 C844.583333,230.302667 846.032,225.939 847.516,221.593 C849,217.247 850.484,212.883333 851.968,208.502 C853.452,212.812667 854.918333,217.141 856.367,221.487 C857.815667,225.833 859.246667,230.232 860.66,234.684 L860.66,234.684 Z M931.256,265 C939.312,265 946.184333,263.498333 951.873,260.495 C957.561667,257.491667 961.907667,253.163333 964.911,247.51 C967.914333,241.856667 969.416,235.002 969.416,226.946 C969.416,218.960667 967.914333,212.159 964.911,206.541 C961.907667,200.923 957.561667,196.63 951.873,193.662 C946.184333,190.694 939.347333,189.21 931.362,189.21 L931.362,189.21 L900.41,189.21 L900.41,265 L931.256,265 Z M930.302,247.404 L921.08,247.404 L921.08,206.806 L930.408,206.806 C936.202667,206.806 940.584,208.519667 943.552,211.947 C946.52,215.374333 948.004,220.374 948.004,226.946 C948.004,233.588667 946.502333,238.659 943.499,242.157 C940.495667,245.655 936.096667,247.404 930.302,247.404 L930.302,247.404 Z M1040.012,266.59 C1045.87733,266.59 1051.17733,265.671333 1055.912,263.834 C1060.64667,261.996667 1064.69233,259.346667 1068.049,255.884 C1071.40567,252.421333 1073.985,248.252 1075.787,243.376 C1077.589,238.5 1078.49,233.058667 1078.49,227.052 C1078.49,220.974667 1077.589,215.515667 1075.787,210.675 C1073.985,205.834333 1071.40567,201.700333 1068.049,198.273 C1064.69233,194.845667 1060.64667,192.213333 1055.912,190.376 C1051.17733,188.538667 1045.87733,187.62 1040.012,187.62 C1034.14667,187.62 1028.84667,188.538667 1024.112,190.376 C1019.37733,192.213333 1015.33167,194.845667 1011.975,198.273 C1008.61833,201.700333 1006.039,205.834333 1004.237,210.675 C1002.435,215.515667 1001.534,220.974667 1001.534,227.052 C1001.534,233.058667 1002.435,238.5 1004.237,243.376 C1006.039,248.252 1008.61833,252.421333 1011.975,255.884 C1015.33167,259.346667 1019.37733,261.996667 1024.112,263.834 C1028.84667,265.671333 1034.14667,266.59 1040.012,266.59 Z M1040.012,248.782 C1034.5,248.782 1030.27767,246.909333 1027.345,243.164 C1024.41233,239.418667 1022.946,234.048 1022.946,227.052 C1022.946,220.126667 1024.41233,214.791333 1027.345,211.046 C1030.27767,207.300667 1034.5,205.428 1040.012,205.428 C1045.524,205.428 1049.74633,207.300667 1052.679,211.046 C1055.61167,214.791333 1057.078,220.126667 1057.078,227.052 C1057.078,234.048 1055.61167,239.418667 1052.679,243.164 C1049.74633,246.909333 1045.524,248.782 1040.012,248.782 Z M1110.078,265 L1110.078,237.652 L1138.38,237.652 L1138.38,220.374 L1110.078,220.374 L1110.078,206.488 L1142.408,206.488 L1142.408,189.21 L1089.726,189.21 L1089.726,265 L1110.078,265 Z M96.718,376.59 C99.05,376.59 101.311333,376.448667 103.502,376.166 C105.692667,375.883333 107.830333,375.618333 109.915,375.371 C111.999667,375.123667 114.031333,375 116.01,375 L116.01,375 L140.92,375 L140.92,357.828 L124.596,361.114 C127.988,358.57 130.602667,355.248667 132.44,351.15 C134.277333,347.051333 135.196,342.352 135.196,337.052 C135.196,330.974667 134.295,325.515667 132.493,320.675 C130.691,315.834333 128.111667,311.700333 124.755,308.273 C121.398333,304.845667 117.352667,302.213333 112.618,300.376 C107.883333,298.538667 102.583333,297.62 96.718,297.62 C90.8526667,297.62 85.5526667,298.538667 80.818,300.376 C76.0833333,302.213333 72.0376667,304.845667 68.681,308.273 C65.3243333,311.700333 62.745,315.834333 60.943,320.675 C59.141,325.515667 58.24,330.974667 58.24,337.052 C58.24,343.058667 59.141,348.5 60.943,353.376 C62.745,358.252 65.3243333,362.421333 68.681,365.884 C72.0376667,369.346667 76.0833333,371.996667 80.818,373.834 C85.5526667,375.671333 90.8526667,376.59 96.718,376.59 Z M96.718,358.782 C91.206,358.782 86.9836667,356.909333 84.051,353.164 C81.1183333,349.418667 79.652,344.048 79.652,337.052 C79.652,330.126667 81.1183333,324.791333 84.051,321.046 C86.9836667,317.300667 91.206,315.428 96.718,315.428 C102.23,315.428 106.452333,317.300667 109.385,321.046 C112.317667,324.791333 113.784,330.126667 113.784,337.052 C113.784,344.048 112.317667,349.418667 109.385,353.164 C106.452333,356.909333 102.23,358.782 96.718,358.782 Z M180.882,376.59 C187.878,376.59 193.867,375.247333 198.849,372.562 C203.831,369.876667 207.647,366.007667 210.297,360.955 C212.947,355.902333 214.272,349.878 214.272,342.882 L214.272,342.882 L214.272,299.21 L193.92,299.21 L193.92,345.214 C193.92,349.524667 192.789333,352.863667 190.528,355.231 C188.266667,357.598333 185.051333,358.782 180.882,358.782 C176.783333,358.782 173.585667,357.598333 171.289,355.231 C168.992333,352.863667 167.844,349.524667 167.844,345.214 L167.844,345.214 L167.844,299.21 L147.174,299.21 L147.174,342.882 C147.174,349.878 148.516667,355.902333 151.202,360.955 C153.887333,366.007667 157.756333,369.876667 162.809,372.562 C167.861667,375.247333 173.886,376.59 180.882,376.59 Z M284.232,375 L284.232,358.464 L248.086,358.464 L248.086,344.684 L277.978,344.684 L277.978,328.148 L248.086,328.148 L248.086,315.746 L282.218,315.746 L282.218,299.21 L227.946,299.21 L227.946,375 L284.232,375 Z M317.092,376.59 C324.017333,376.59 329.900333,375.636 334.741,373.728 C339.581667,371.82 343.291667,369.028667 345.871,365.354 C348.450333,361.679333 349.74,357.227333 349.74,351.998 C349.74,348.040667 349.104,344.737 347.832,342.087 C346.56,339.437 344.758,337.246333 342.426,335.515 C340.094,333.783667 337.338,332.317333 334.158,331.116 C330.978,329.914667 327.444667,328.854667 323.558,327.936 C319.812667,327.017333 316.933,326.045667 314.919,325.021 C312.905,323.996333 311.898,322.459333 311.898,320.41 C311.898,318.431333 312.869667,316.929667 314.813,315.905 C316.756333,314.880333 319.494667,314.368 323.028,314.368 C325.501333,314.368 328.063,314.597667 330.713,315.057 C333.363,315.516333 335.995333,316.187667 338.61,317.071 C341.224667,317.954333 343.698,319.102667 346.03,320.516 L346.03,320.516 L346.03,302.814 C342.779333,301.188667 339.14,299.916667 335.112,298.998 C331.084,298.079333 326.985333,297.62 322.816,297.62 C316.385333,297.62 310.802667,298.591667 306.068,300.535 C301.333333,302.478333 297.694,305.252 295.15,308.856 C292.606,312.46 291.334,316.806 291.334,321.894 C291.334,325.215333 291.828667,328.112667 292.818,330.586 C293.807333,333.059333 295.362,335.232333 297.482,337.105 C299.602,338.977667 302.358,340.620667 305.75,342.034 C309.142,343.447333 313.240667,344.719333 318.046,345.85 C320.236667,346.344667 322.144667,346.91 323.77,347.546 C325.395333,348.182 326.667333,348.941667 327.586,349.825 C328.504667,350.708333 328.964,351.892 328.964,353.376 C328.964,355.425333 327.939333,357.015333 325.89,358.146 C323.840667,359.276667 320.802,359.842 316.774,359.842 C312.675333,359.842 308.559,359.259 304.425,358.093 C300.291,356.927 296.245333,355.213333 292.288,352.952 L292.288,352.952 L292.288,370.866 C296.386667,372.844667 300.467667,374.293333 304.531,375.212 C308.594333,376.130667 312.781333,376.59 317.092,376.59 Z M398.394,375 L398.394,317.018 L421.078,317.018 L421.078,299.21 L355.04,299.21 L355.04,317.018 L377.724,317.018 L377.724,375 L398.394,375 Z M450.228,375 L450.228,299.21 L429.558,299.21 L429.558,375 L450.228,375 Z M499.942,376.59 C505.807333,376.59 511.107333,375.671333 515.842,373.834 C520.576667,371.996667 524.622333,369.346667 527.979,365.884 C531.335667,362.421333 533.915,358.252 535.717,353.376 C537.519,348.5 538.42,343.058667 538.42,337.052 C538.42,330.974667 537.519,325.515667 535.717,320.675 C533.915,315.834333 531.335667,311.700333 527.979,308.273 C524.622333,304.845667 520.576667,302.213333 515.842,300.376 C511.107333,298.538667 505.807333,297.62 499.942,297.62 C494.076667,297.62 488.776667,298.538667 484.042,300.376 C479.307333,302.213333 475.261667,304.845667 471.905,308.273 C468.548333,311.700333 465.969,315.834333 464.167,320.675 C462.365,325.515667 461.464,330.974667 461.464,337.052 C461.464,343.058667 462.365,348.5 464.167,353.376 C465.969,358.252 468.548333,362.421333 471.905,365.884 C475.261667,369.346667 479.307333,371.996667 484.042,373.834 C488.776667,375.671333 494.076667,376.59 499.942,376.59 Z M499.942,358.782 C494.43,358.782 490.207667,356.909333 487.275,353.164 C484.342333,349.418667 482.876,344.048 482.876,337.052 C482.876,330.126667 484.342333,324.791333 487.275,321.046 C490.207667,317.300667 494.43,315.428 499.942,315.428 C505.454,315.428 509.676333,317.300667 512.609,321.046 C515.541667,324.791333 517.008,330.126667 517.008,337.052 C517.008,344.048 515.541667,349.418667 512.609,353.164 C509.676333,356.909333 505.454,358.782 499.942,358.782 Z M569.372,375 L569.372,328.996 C573.965333,336.345333 578.647,343.924333 583.417,351.733 C588.187,359.541667 592.833333,367.297333 597.356,375 L597.356,375 L618.132,375 L618.132,299.21 L598.416,299.21 L598.416,344.366 C593.822667,336.663333 589.194,329.031333 584.53,321.47 C579.866,313.908667 575.166667,306.488667 570.432,299.21 L570.432,299.21 L549.656,299.21 L549.656,375 L569.372,375 Z M655.02,376.59 C661.945333,376.59 667.828333,375.636 672.669,373.728 C677.509667,371.82 681.219667,369.028667 683.799,365.354 C686.378333,361.679333 687.668,357.227333 687.668,351.998 C687.668,348.040667 687.032,344.737 685.76,342.087 C684.488,339.437 682.686,337.246333 680.354,335.515 C678.022,333.783667 675.266,332.317333 672.086,331.116 C668.906,329.914667 665.372667,328.854667 661.486,327.936 C657.740667,327.017333 654.861,326.045667 652.847,325.021 C650.833,323.996333 649.826,322.459333 649.826,320.41 C649.826,318.431333 650.797667,316.929667 652.741,315.905 C654.684333,314.880333 657.422667,314.368 660.956,314.368 C663.429333,314.368 665.991,314.597667 668.641,315.057 C671.291,315.516333 673.923333,316.187667 676.538,317.071 C679.152667,317.954333 681.626,319.102667 683.958,320.516 L683.958,320.516 L683.958,302.814 C680.707333,301.188667 677.068,299.916667 673.04,298.998 C669.012,298.079333 664.913333,297.62 660.744,297.62 C654.313333,297.62 648.730667,298.591667 643.996,300.535 C639.261333,302.478333 635.622,305.252 633.078,308.856 C630.534,312.46 629.262,316.806 629.262,321.894 C629.262,325.215333 629.756667,328.112667 630.746,330.586 C631.735333,333.059333 633.29,335.232333 635.41,337.105 C637.53,338.977667 640.286,340.620667 643.678,342.034 C647.07,343.447333 651.168667,344.719333 655.974,345.85 C658.164667,346.344667 660.072667,346.91 661.698,347.546 C663.323333,348.182 664.595333,348.941667 665.514,349.825 C666.432667,350.708333 666.892,351.892 666.892,353.376 C666.892,355.425333 665.867333,357.015333 663.818,358.146 C661.768667,359.276667 658.73,359.842 654.702,359.842 C650.603333,359.842 646.487,359.259 642.353,358.093 C638.219,356.927 634.173333,355.213333 630.216,352.952 L630.216,352.952 L630.216,370.866 C634.314667,372.844667 638.395667,374.293333 642.459,375.212 C646.522333,376.130667 650.709333,376.59 655.02,376.59 Z M759.96,375 L759.96,317.018 L782.644,317.018 L782.644,299.21 L716.606,299.21 L716.606,317.018 L739.29,317.018 L739.29,375 L759.96,375 Z M826.846,376.59 C832.711333,376.59 838.011333,375.671333 842.746,373.834 C847.480667,371.996667 851.526333,369.346667 854.883,365.884 C858.239667,362.421333 860.819,358.252 862.621,353.376 C864.423,348.5 865.324,343.058667 865.324,337.052 C865.324,330.974667 864.423,325.515667 862.621,320.675 C860.819,315.834333 858.239667,311.700333 854.883,308.273 C851.526333,304.845667 847.480667,302.213333 842.746,300.376 C838.011333,298.538667 832.711333,297.62 826.846,297.62 C820.980667,297.62 815.680667,298.538667 810.946,300.376 C806.211333,302.213333 802.165667,304.845667 798.809,308.273 C795.452333,311.700333 792.873,315.834333 791.071,320.675 C789.269,325.515667 788.368,330.974667 788.368,337.052 C788.368,343.058667 789.269,348.5 791.071,353.376 C792.873,358.252 795.452333,362.421333 798.809,365.884 C802.165667,369.346667 806.211333,371.996667 810.946,373.834 C815.680667,375.671333 820.980667,376.59 826.846,376.59 Z M826.846,358.782 C821.334,358.782 817.111667,356.909333 814.179,353.164 C811.246333,349.418667 809.78,344.048 809.78,337.052 C809.78,330.126667 811.246333,324.791333 814.179,321.046 C817.111667,317.300667 821.334,315.428 826.846,315.428 C832.358,315.428 836.580333,317.300667 839.513,321.046 C842.445667,324.791333 843.912,330.126667 843.912,337.052 C843.912,344.048 842.445667,349.418667 839.513,353.164 C836.580333,356.909333 832.358,358.782 826.846,358.782 Z M938.04,375 L938.04,317.018 L960.724,317.018 L960.724,299.21 L894.686,299.21 L894.686,317.018 L917.37,317.018 L917.37,375 L938.04,375 Z M989.238,375 L989.238,349.454 L999.626,349.454 C1002.09933,353.623333 1004.48433,357.845667 1006.781,362.121 C1009.07767,366.396333 1011.35667,370.689333 1013.618,375 L1013.618,375 L1036.408,375 C1033.51067,369.841333 1030.56033,364.788667 1027.557,359.842 C1024.55367,354.895333 1021.49733,349.984 1018.388,345.108 C1022.34533,342.988 1025.40167,340.161333 1027.557,336.628 C1029.71233,333.094667 1030.79,328.996 1030.79,324.332 C1030.79,316.205333 1027.99867,309.986667 1022.416,305.676 C1016.83333,301.365333 1008.77733,299.21 998.248,299.21 L998.248,299.21 L969.204,299.21 L969.204,375 L989.238,375 Z M997.294,333.554 L989.238,333.554 L989.238,315.11 L997.294,315.11 C1001.60467,315.11 1004.78467,315.869667 1006.834,317.389 C1008.88333,318.908333 1009.908,321.222667 1009.908,324.332 C1009.908,327.370667 1008.88333,329.667333 1006.834,331.222 C1004.78467,332.776667 1001.60467,333.554 997.294,333.554 L997.294,333.554 Z M1087.712,375 L1087.712,346.91 C1092.588,338.995333 1097.39333,331.063 1102.128,323.113 C1106.86267,315.163 1111.49133,307.195333 1116.014,299.21 L1116.014,299.21 L1093.33,299.21 C1090.85667,304.227333 1088.31267,309.262333 1085.698,314.315 C1083.08333,319.367667 1080.46867,324.402667 1077.854,329.42 C1075.16867,324.402667 1072.53633,319.385333 1069.957,314.368 C1067.37767,309.350667 1064.816,304.298 1062.272,299.21 L1062.272,299.21 L1038.846,299.21 C1043.298,307.195333 1047.89133,315.163 1052.626,323.113 C1057.36067,331.063 1062.166,338.995333 1067.042,346.91 L1067.042,346.91 L1067.042,375 L1087.712,375 Z M76.684,485 C78.168,480.194667 79.6166667,475.46 81.03,470.796 L81.03,470.796 L108.696,470.796 C109.402667,473.128 110.127,475.477667 110.869,477.845 C111.611,480.212333 112.335333,482.597333 113.042,485 L113.042,485 L135.408,485 C130.885333,472.350667 126.221333,459.701333 121.416,447.052 C116.610667,434.402667 111.664,421.788667 106.576,409.21 L106.576,409.21 L83.786,409.21 C78.8393333,421.152667 73.9633333,433.448667 69.158,446.098 C64.3526667,458.747333 59.618,471.714667 54.954,485 L54.954,485 L76.684,485 Z M103.608,454.684 L86.118,454.684 C87.5313333,450.302667 88.98,445.939 90.464,441.593 C91.948,437.247 93.432,432.883333 94.916,428.502 C96.4,432.812667 97.8663333,437.141 99.315,441.487 C100.763667,445.833 102.194667,450.232 103.608,454.684 L103.608,454.684 Z M163.074,485 L163.074,438.996 C167.667333,446.345333 172.349,453.924333 177.119,461.733 C181.889,469.541667 186.535333,477.297333 191.058,485 L191.058,485 L211.834,485 L211.834,409.21 L192.118,409.21 L192.118,454.366 C187.524667,446.663333 182.896,439.031333 178.232,431.47 C173.568,423.908667 168.868667,416.488667 164.134,409.21 L164.134,409.21 L143.358,409.21 L143.358,485 L163.074,485 Z M256.672,485 C264.728,485 271.600333,483.498333 277.289,480.495 C282.977667,477.491667 287.323667,473.163333 290.327,467.51 C293.330333,461.856667 294.832,455.002 294.832,446.946 C294.832,438.960667 293.330333,432.159 290.327,426.541 C287.323667,420.923 282.977667,416.63 277.289,413.662 C271.600333,410.694 264.763333,409.21 256.778,409.21 L256.778,409.21 L225.826,409.21 L225.826,485 L256.672,485 Z M255.718,467.404 L246.496,467.404 L246.496,426.806 L255.824,426.806 C261.618667,426.806 266,428.519667 268.968,431.947 C271.936,435.374333 273.42,440.374 273.42,446.946 C273.42,453.588667 271.918333,458.659 268.915,462.157 C265.911667,465.655 261.512667,467.404 255.718,467.404 L255.718,467.404 Z M360.552,485 C368.608,485 375.480333,483.498333 381.169,480.495 C386.857667,477.491667 391.203667,473.163333 394.207,467.51 C397.210333,461.856667 398.712,455.002 398.712,446.946 C398.712,438.960667 397.210333,432.159 394.207,426.541 C391.203667,420.923 386.857667,416.63 381.169,413.662 C375.480333,410.694 368.643333,409.21 360.658,409.21 L360.658,409.21 L329.706,409.21 L329.706,485 L360.552,485 Z M359.598,467.404 L350.376,467.404 L350.376,426.806 L359.704,426.806 C365.498667,426.806 369.88,428.519667 372.848,431.947 C375.816,435.374333 377.3,440.374 377.3,446.946 C377.3,453.588667 375.798333,458.659 372.795,462.157 C369.791667,465.655 365.392667,467.404 359.598,467.404 L359.598,467.404 Z M466.234,485 L466.234,468.464 L430.088,468.464 L430.088,454.684 L459.98,454.684 L459.98,438.148 L430.088,438.148 L430.088,425.746 L464.22,425.746 L464.22,409.21 L409.948,409.21 L409.948,485 L466.234,485 Z M514.04,485 L514.04,427.018 L536.724,427.018 L536.724,409.21 L470.686,409.21 L470.686,427.018 L493.37,427.018 L493.37,485 L514.04,485 Z M601.49,485 L601.49,468.464 L565.344,468.464 L565.344,454.684 L595.236,454.684 L595.236,438.148 L565.344,438.148 L565.344,425.746 L599.476,425.746 L599.476,409.21 L545.204,409.21 L545.204,485 L601.49,485 Z M631.488,485 L631.488,459.454 L641.876,459.454 C644.349333,463.623333 646.734333,467.845667 649.031,472.121 C651.327667,476.396333 653.606667,480.689333 655.868,485 L655.868,485 L678.658,485 C675.760667,479.841333 672.810333,474.788667 669.807,469.842 C666.803667,464.895333 663.747333,459.984 660.638,455.108 C664.595333,452.988 667.651667,450.161333 669.807,446.628 C671.962333,443.094667 673.04,438.996 673.04,434.332 C673.04,426.205333 670.248667,419.986667 664.666,415.676 C659.083333,411.365333 651.027333,409.21 640.498,409.21 L640.498,409.21 L611.454,409.21 L611.454,485 L631.488,485 Z M639.544,443.554 L631.488,443.554 L631.488,425.11 L639.544,425.11 C643.854667,425.11 647.034667,425.869667 649.084,427.389 C651.133333,428.908333 652.158,431.222667 652.158,434.332 C652.158,437.370667 651.133333,439.667333 649.084,441.222 C647.034667,442.776667 643.854667,443.554 639.544,443.554 L639.544,443.554 Z M706.112,485 L706.112,438.996 C708.444,444.366667 710.829,449.737333 713.267,455.108 C715.705,460.478667 718.160667,465.849333 720.634,471.22 L720.634,471.22 L736.534,471.22 C738.936667,465.849333 741.321667,460.461 743.689,455.055 C746.056333,449.649 748.406,444.19 750.738,438.678 L750.738,438.678 L750.738,485 L770.03,485 L770.03,409.21 L745.438,409.21 C742.752667,416.347333 740.032,423.396333 737.276,430.357 C734.52,437.317667 731.728667,444.19 728.902,450.974 C725.934,444.119333 723.019,437.194 720.157,430.198 C717.295,423.202 714.486,416.206 711.73,409.21 L711.73,409.21 L686.82,409.21 L686.82,485 L706.112,485 Z M804.692,485 L804.692,409.21 L784.022,409.21 L784.022,485 L804.692,485 Z M838.4,485 L838.4,438.996 C842.993333,446.345333 847.675,453.924333 852.445,461.733 C857.215,469.541667 861.861333,477.297333 866.384,485 L866.384,485 L887.16,485 L887.16,409.21 L867.444,409.21 L867.444,454.366 C862.850667,446.663333 858.222,439.031333 853.558,431.47 C848.894,423.908667 844.194667,416.488667 839.46,409.21 L839.46,409.21 L818.684,409.21 L818.684,485 L838.4,485 Z M957.438,485 L957.438,468.464 L921.292,468.464 L921.292,454.684 L951.184,454.684 L951.184,438.148 L921.292,438.148 L921.292,425.746 L955.424,425.746 L955.424,409.21 L901.152,409.21 L901.152,485 L957.438,485 Z M81.666,595 L81.666,564.366 L108.59,564.366 L108.59,595 L129.26,595 L129.26,519.21 L108.59,519.21 L108.59,546.558 L81.666,546.558 L81.666,519.21 L60.996,519.21 L60.996,595 L81.666,595 Z M199.538,595 L199.538,578.464 L163.392,578.464 L163.392,564.684 L193.284,564.684 L193.284,548.148 L163.392,548.148 L163.392,535.746 L197.524,535.746 L197.524,519.21 L143.252,519.21 L143.252,595 L199.538,595 Z M229.536,595 L229.536,569.454 L239.924,569.454 C242.397333,573.623333 244.782333,577.845667 247.079,582.121 C249.375667,586.396333 251.654667,590.689333 253.916,595 L253.916,595 L276.706,595 C273.808667,589.841333 270.858333,584.788667 267.855,579.842 C264.851667,574.895333 261.795333,569.984 258.686,565.108 C262.643333,562.988 265.699667,560.161333 267.855,556.628 C270.010333,553.094667 271.088,548.996 271.088,544.332 C271.088,536.205333 268.296667,529.986667 262.714,525.676 C257.131333,521.365333 249.075333,519.21 238.546,519.21 L238.546,519.21 L209.502,519.21 L209.502,595 L229.536,595 Z M237.592,553.554 L229.536,553.554 L229.536,535.11 L237.592,535.11 C241.902667,535.11 245.082667,535.869667 247.132,537.389 C249.181333,538.908333 250.206,541.222667 250.206,544.332 C250.206,547.370667 249.181333,549.667333 247.132,551.222 C245.082667,552.776667 241.902667,553.554 237.592,553.554 L237.592,553.554 Z M324.194,595 C325.678,590.194667 327.126667,585.46 328.54,580.796 L328.54,580.796 L356.206,580.796 C356.912667,583.128 357.637,585.477667 358.379,587.845 C359.121,590.212333 359.845333,592.597333 360.552,595 L360.552,595 L382.918,595 C378.395333,582.350667 373.731333,569.701333 368.926,557.052 C364.120667,544.402667 359.174,531.788667 354.086,519.21 L354.086,519.21 L331.296,519.21 C326.349333,531.152667 321.473333,543.448667 316.668,556.098 C311.862667,568.747333 307.128,581.714667 302.464,595 L302.464,595 L324.194,595 Z M351.118,564.684 L333.628,564.684 C335.041333,560.302667 336.49,555.939 337.974,551.593 C339.458,547.247 340.942,542.883333 342.426,538.502 C343.91,542.812667 345.376333,547.141 346.825,551.487 C348.273667,555.833 349.704667,560.232 351.118,564.684 L351.118,564.684 Z M428.18,596.59 C431.572,596.59 434.981667,596.378 438.409,595.954 C441.836333,595.53 445.14,594.876333 448.32,593.993 C451.5,593.109667 454.326667,592.067333 456.8,590.866 L456.8,590.866 L456.8,551.328 L427.226,551.328 L427.226,566.592 L438.25,566.592 L438.25,577.934 C436.907333,578.287333 435.511667,578.552333 434.063,578.729 C432.614333,578.905667 431.183333,578.994 429.77,578.994 C423.127333,578.994 418.092333,577.139 414.665,573.429 C411.237667,569.719 409.524,564.26 409.524,557.052 C409.524,550.126667 411.485,544.791333 415.407,541.046 C419.329,537.300667 424.929333,535.428 432.208,535.428 C436.66,535.428 440.741,535.905 444.451,536.859 C448.161,537.813 451.606,539.173333 454.786,540.94 L454.786,540.94 L454.786,522.284 C447.366,519.174667 438.956667,517.62 429.558,517.62 C423.339333,517.62 417.686,518.556333 412.598,520.429 C407.51,522.301667 403.128667,524.969333 399.454,528.432 C395.779333,531.894667 392.970333,536.046333 391.027,540.887 C389.083667,545.727667 388.112,551.116 388.112,557.052 C388.112,563.2 389.030667,568.712 390.868,573.588 C392.705333,578.464 395.355333,582.615667 398.818,586.043 C402.280667,589.470333 406.485333,592.085 411.432,593.887 C416.378667,595.689 421.961333,596.59 428.18,596.59 Z M525.594,595 L525.594,578.464 L489.448,578.464 L489.448,564.684 L519.34,564.684 L519.34,548.148 L489.448,548.148 L489.448,535.746 L523.58,535.746 L523.58,519.21 L469.308,519.21 L469.308,595 L525.594,595 Z M543.932,595.954 C546.193333,595.954 548.136667,595.477 549.762,594.523 C551.387333,593.569 552.641667,592.297 553.525,590.707 C554.408333,589.117 554.85,587.368 554.85,585.46 C554.85,583.552 554.408333,581.803 553.525,580.213 C552.641667,578.623 551.387333,577.368667 549.762,576.45 C548.136667,575.531333 546.193333,575.072 543.932,575.072 C541.670667,575.072 539.727333,575.531333 538.102,576.45 C536.476667,577.368667 535.222333,578.623 534.339,580.213 C533.455667,581.803 533.014,583.552 533.014,585.46 C533.014,587.368 533.455667,589.117 534.339,590.707 C535.222333,592.297 536.476667,593.569 538.102,594.523 C539.727333,595.477 541.670667,595.954 543.932,595.954 Z" id="WEAREGOINGTOASKMELALOADOFQUESTIONSTOTRYANDDETERMINEHERAGE." fill="#FFFFFF" fill-rule="nonzero"></path>
    </g>
</svg>